<svg width="60" height="60" viewBox="0 0 60 60" fill="none" xmlns="http://www.w3.org/2000/svg">
<g clip-path="url(#clip0_390_5679)">
<path d="M29.9995 25.5703C29.7745 25.5703 29.5487 25.587 29.3272 25.6213C28.8473 25.6942 28.5177 26.1425 28.5907 26.6224C28.6636 27.1022 29.1118 27.4318 29.5917 27.3589C29.7253 27.3387 29.8624 27.3281 29.9995 27.3281C31.4735 27.3281 32.6723 28.5269 32.6723 30.0009C32.6723 31.4748 31.4735 32.6736 29.9995 32.6736C28.5256 32.6736 27.3268 31.4748 27.3268 30.0009C27.3268 29.8637 27.3373 29.7258 27.3576 29.5904C27.4314 29.1105 27.1018 28.6623 26.6219 28.5885C26.142 28.5146 25.6938 28.8442 25.62 29.3241C25.5857 29.5465 25.5681 29.775 25.5681 30.0009C25.5681 32.4433 27.5553 34.4314 29.9987 34.4314C32.442 34.4314 34.4292 32.4442 34.4292 30.0009C34.4292 27.5575 32.442 25.5703 29.9987 25.5703H29.9995Z" fill="url(#paint0_linear_390_5679)"/>
<path d="M41.8374 37.5775L39.6868 35.4269C40.0454 34.787 40.338 34.1155 40.563 33.4194H43.7218C44.207 33.4194 44.6007 33.0257 44.6007 32.5405V27.4596C44.6007 26.9745 44.207 26.5807 43.7218 26.5807H40.563C40.3389 25.8846 40.0454 25.2131 39.6868 24.5733L41.8374 22.4226C42.1811 22.079 42.1811 21.5226 41.8374 21.1799L38.5345 17.8769C38.3693 17.7117 38.1461 17.6194 37.9131 17.6194C37.6802 17.6194 37.4561 17.7117 37.2918 17.8769L35.0576 20.1111C34.5267 19.8387 33.9757 19.6101 33.4088 19.4273V16.2686C33.4088 15.7834 33.015 15.3896 32.5299 15.3896H27.8585C27.3734 15.3896 26.9796 15.7834 26.9796 16.2686V19.3096C26.2756 19.5082 25.5936 19.7762 24.9414 20.1111L22.7073 17.8769C22.542 17.7117 22.3188 17.6194 22.0859 17.6194C21.853 17.6194 21.6289 17.7117 21.4645 17.8769L18.1616 21.1799C17.8188 21.5226 17.8188 22.0798 18.1616 22.4226L20.3123 24.5733C19.9537 25.2131 19.661 25.8846 19.436 26.5807H16.2772C15.7921 26.5807 15.3983 26.9745 15.3983 27.4596V32.5405C15.3983 33.0257 15.7921 33.4194 16.2772 33.4194H19.436C19.6601 34.1155 19.9537 34.787 20.3123 35.4269L18.1616 37.5775C17.8188 37.9212 17.8188 38.4775 18.1616 38.8203L21.4645 42.1232C21.6297 42.2884 21.853 42.3807 22.0859 42.3807C22.3188 42.3807 22.5429 42.2884 22.7073 42.1232L24.9414 39.889C25.5936 40.2239 26.2747 40.492 26.9796 40.6906V43.7316C26.9796 44.2168 27.3734 44.6105 27.8585 44.6105H32.5299C33.015 44.6105 33.4088 44.2168 33.4088 43.7316V40.5728C33.9757 40.39 34.5267 40.1615 35.0576 39.889L37.2918 42.1232C37.457 42.2884 37.6802 42.3807 37.9131 42.3807C38.1461 42.3807 38.3702 42.2884 38.5345 42.1232L41.8374 38.8203C42.1811 38.4766 42.1811 37.9203 41.8374 37.5775ZM37.9131 40.2591L35.8328 38.1787C35.5489 37.8948 35.1077 37.8394 34.7623 38.0442C33.9959 38.4995 33.1715 38.8414 32.3128 39.0602C31.9234 39.1596 31.651 39.5102 31.651 39.9119V42.8527H28.7374V40.0024C28.7374 39.5876 28.4474 39.229 28.0422 39.1429C27.0526 38.9319 26.1086 38.5619 25.2367 38.0442C24.8913 37.8386 24.4501 37.8939 24.1662 38.1787L22.0859 40.2591L20.0257 38.1989L22.0411 36.1836C22.3346 35.89 22.383 35.4321 22.1571 35.0841C21.6051 34.2324 21.1982 33.3034 20.9486 32.3235C20.8493 31.9341 20.4986 31.6616 20.0969 31.6616H17.1561V28.3385H20.0969C20.4986 28.3385 20.8493 28.0661 20.9486 27.6767C21.1982 26.6967 21.6051 25.7686 22.1571 24.9161C22.383 24.568 22.3346 24.1101 22.0411 23.8166L20.0257 21.8012L22.0859 19.7411L24.1662 21.8215C24.4501 22.1053 24.8913 22.1607 25.2367 21.9559C26.1086 21.4383 27.0526 21.0682 28.0422 20.8573C28.4483 20.7712 28.7374 20.4126 28.7374 19.9977V17.1475H31.651V20.0883C31.651 20.4899 31.9234 20.8406 32.3128 20.9399C33.1723 21.1588 33.9968 21.5007 34.7623 21.9559C35.1077 22.1616 35.548 22.1062 35.8328 21.8215L37.9131 19.7411L39.9733 21.8012L37.958 23.8166C37.6644 24.1101 37.6161 24.568 37.842 24.9161C38.3939 25.7677 38.8008 26.6967 39.0504 27.6767C39.1498 28.0661 39.5004 28.3385 39.9021 28.3385H42.8429V31.6616H39.9021C39.5004 31.6616 39.1498 31.9341 39.0504 32.3235C38.8008 33.3034 38.3939 34.2315 37.842 35.0841C37.6161 35.4321 37.6644 35.89 37.958 36.1836L39.9733 38.1989L37.9131 40.2591Z" fill="url(#paint1_linear_390_5679)"/>
<path d="M59.1211 5.32702H57.627C57.0126 4.02713 55.9729 2.98739 54.673 2.37304V0.878902C54.673 0.393748 54.2792 0 53.7941 0H50.2424C49.7573 0 49.3635 0.393748 49.3635 0.878902V2.37304C48.0628 2.98739 47.0239 4.02713 46.4095 5.32702H44.9154C44.4302 5.32702 44.0365 5.72077 44.0365 6.20593V9.75757C44.0365 10.2427 44.4302 10.6365 44.9154 10.6365H46.4095C47.0239 11.9372 48.0636 12.9761 49.3635 13.5905V15.0846C49.3635 15.5697 49.7573 15.9635 50.2424 15.9635H53.7941C54.2792 15.9635 54.673 15.5697 54.673 15.0846V13.5905C55.9729 12.9761 57.0126 11.9364 57.627 10.6365H59.1211C59.6062 10.6365 60 10.2427 60 9.75757V6.20593C60 5.72077 59.6062 5.32702 59.1211 5.32702ZM58.2422 8.87867H57.0399C56.6681 8.87867 56.3359 9.11333 56.2119 9.46402C55.7672 10.7173 54.7538 11.7307 53.5005 12.1754C53.1498 12.3002 52.9152 12.6316 52.9152 13.0034V14.2057H51.1213V13.0034C51.1213 12.6316 50.8867 12.2994 50.536 12.1754C49.2827 11.7307 48.2693 10.7173 47.8246 9.46402C47.6998 9.11333 47.3684 8.87867 46.9966 8.87867H45.7943V7.08483H46.9966C47.3684 7.08483 47.7006 6.85016 47.8246 6.49948C48.2693 5.24617 49.2827 4.23279 50.536 3.78807C50.8867 3.66326 51.1213 3.33192 51.1213 2.96014V1.7578H52.9152V2.96014C52.9152 3.33192 53.1498 3.66414 53.5005 3.78807C54.7538 4.23279 55.7672 5.24617 56.2119 6.49948C56.3367 6.85016 56.6681 7.08483 57.0399 7.08483H58.2422V8.87867Z" fill="url(#paint2_linear_390_5679)"/>
<path d="M52.0178 5.32715C50.5544 5.32715 49.3635 6.51806 49.3635 7.98143C49.3635 9.4448 50.5544 10.6357 52.0178 10.6357C53.4812 10.6357 54.6721 9.4448 54.6721 7.98143C54.6721 6.51806 53.4812 5.32715 52.0178 5.32715ZM52.0178 8.87879C51.5239 8.87879 51.1213 8.47625 51.1213 7.98231C51.1213 7.48837 51.5239 7.08583 52.0178 7.08583C52.5117 7.08583 52.9143 7.48837 52.9143 7.98231C52.9143 8.47625 52.5117 8.87879 52.0178 8.87879Z" fill="url(#paint3_linear_390_5679)"/>
<path d="M54.6729 52.0176C54.6729 50.5542 53.482 49.3633 52.0187 49.3633C50.5553 49.3633 49.3644 50.5542 49.3644 52.0176C49.3644 53.4809 50.5553 54.6718 52.0187 54.6718C53.482 54.6718 54.6729 53.4809 54.6729 52.0176ZM51.1213 52.0176C51.1213 51.5227 51.5238 51.1211 52.0178 51.1211C52.5117 51.1211 52.9143 51.5236 52.9143 52.0176C52.9143 52.5115 52.5117 52.914 52.0178 52.914C51.5238 52.914 51.1213 52.5115 51.1213 52.0176Z" fill="url(#paint4_linear_390_5679)"/>
<path d="M59.1211 49.3632H57.627C57.0126 48.0633 55.9729 47.0235 54.673 46.4092V44.915C54.673 44.4299 54.2792 44.0361 53.7941 44.0361H50.2424C49.7573 44.0361 49.3635 44.4299 49.3635 44.915V46.4777C49.1253 46.7212 49.0418 47.093 49.1807 47.4278C49.3662 47.8761 49.8803 48.0896 50.3286 47.9042C50.3954 47.8769 50.4648 47.8497 50.536 47.8251C50.8867 47.7003 51.1213 47.3689 51.1213 46.9963V45.7939H52.9152V46.9963C52.9152 47.368 53.1498 47.7003 53.5005 47.8242C54.7538 48.2689 55.7672 49.2823 56.2119 50.5356C56.3367 50.8863 56.6681 51.121 57.0399 51.121H58.2422V52.9148H57.0399C56.6681 52.9148 56.3359 53.1495 56.2119 53.5001C55.7672 54.7535 54.7538 55.7668 53.5005 56.2116C53.1498 56.3364 52.9152 56.6677 52.9152 57.0395V58.2418H51.1213V57.0395C51.1213 56.6677 50.8867 56.3355 50.536 56.2116C49.2827 55.7668 48.2693 54.7535 47.8246 53.5001C47.6998 53.1495 47.3684 52.9148 46.9966 52.9148H45.7943V51.121H46.9966C47.3684 51.121 47.7006 50.8863 47.8246 50.5365C47.8509 50.4635 47.8791 50.3897 47.9089 50.3168C48.0953 49.8685 47.8826 49.3544 47.4343 49.168C47.0933 49.0265 46.7145 49.1153 46.4711 49.3632H44.9154C44.4302 49.3632 44.0365 49.7569 44.0365 50.2421V53.7937C44.0365 54.2789 44.4302 54.6726 44.9154 54.6726H46.4095C47.0239 55.9734 48.0636 57.0122 49.3635 57.6266V59.1207C49.3635 59.6059 49.7573 59.9996 50.2424 59.9996H53.7941C54.2792 59.9996 54.673 59.6059 54.673 59.1207V57.6266C55.9729 57.0122 57.0126 55.9725 57.627 54.6726H59.1211C59.6062 54.6726 60 54.2789 60 53.7937V50.2421C60 49.7569 59.6062 49.3632 59.1211 49.3632Z" fill="url(#paint5_linear_390_5679)"/>
<path d="M0.878902 10.6365H2.37304C2.98739 11.9372 4.02713 12.9761 5.32702 13.5905V15.0846C5.32702 15.5697 5.72077 15.9635 6.20593 15.9635H9.75757C10.2427 15.9635 10.6365 15.5697 10.6365 15.0846V13.5905C11.9372 12.9761 12.9761 11.9364 13.5905 10.6365H15.0846C15.5697 10.6365 15.9635 10.2427 15.9635 9.75757V6.20593C15.9635 5.72077 15.5697 5.32702 15.0846 5.32702H13.5905C12.9761 4.02713 11.9364 2.98739 10.6365 2.37304V0.878902C10.6365 0.393748 10.2427 0 9.75757 0H6.20593C5.72077 0 5.32702 0.393748 5.32702 0.878902V2.44159C5.08884 2.68505 5.00535 3.05682 5.14421 3.39168C5.32966 3.83992 5.84382 4.0535 6.29206 3.86805C6.36149 3.83992 6.43093 3.81268 6.4986 3.78895C6.85016 3.66502 7.08483 3.3328 7.08483 2.96014V1.7578H8.87867V2.96014C8.87867 3.33192 9.11333 3.66414 9.46402 3.78807C10.7173 4.23279 11.7307 5.24617 12.1754 6.49948C12.3002 6.85016 12.6316 7.08483 13.0034 7.08483H14.2057V8.87867H13.0034C12.6316 8.87867 12.2994 9.11333 12.1754 9.46402C11.7307 10.7173 10.7173 11.7307 9.46402 12.1754C9.11333 12.3002 8.87867 12.6316 8.87867 13.0034V14.2057H7.08483V13.0034C7.08483 12.6316 6.85016 12.2994 6.49948 12.1754C5.24617 11.7307 4.23279 10.7173 3.78807 9.46402C3.66326 9.11333 3.33192 8.87867 2.96014 8.87867H1.7578V7.08483H2.96014C3.33192 7.08483 3.66414 6.85016 3.78807 6.50036C3.81443 6.42741 3.84256 6.3527 3.87244 6.28063C4.05877 5.83239 3.84608 5.31824 3.39696 5.13191C3.05594 4.99041 2.67714 5.07917 2.43368 5.32702H0.878902C0.393748 5.32702 0 5.72077 0 6.20593V9.75757C0 10.2427 0.393748 10.6365 0.878902 10.6365Z" fill="url(#paint6_linear_390_5679)"/>
<path d="M10.6364 7.98143C10.6364 6.51806 9.44554 5.32715 7.98216 5.32715C6.51879 5.32715 5.32788 6.51806 5.32788 7.98143C5.32788 9.4448 6.51879 10.6357 7.98216 10.6357C9.44554 10.6357 10.6364 9.4448 10.6364 7.98143ZM7.08481 7.98143C7.08481 7.48661 7.48734 7.08495 7.98129 7.08495C8.47523 7.08495 8.87777 7.48749 8.87777 7.98143C8.87777 8.47537 8.47523 8.87791 7.98129 8.87791C7.48734 8.87791 7.08481 8.47537 7.08481 7.98143Z" fill="url(#paint7_linear_390_5679)"/>
<path d="M15.0846 49.3632H13.5905C12.9761 48.0633 11.9364 47.0235 10.6365 46.4092V44.915C10.6365 44.4299 10.2427 44.0361 9.75757 44.0361H6.20593C5.72077 44.0361 5.32702 44.4299 5.32702 44.915V46.4092C4.02625 47.0235 2.98739 48.0633 2.37304 49.3632H0.878902C0.393748 49.3632 0 49.7569 0 50.2421V53.7937C0 54.2789 0.393748 54.6726 0.878902 54.6726H2.37304C2.98739 55.9734 4.02713 57.0122 5.32702 57.6266V59.1207C5.32702 59.6059 5.72077 59.9996 6.20593 59.9996H9.75757C10.2427 59.9996 10.6365 59.6059 10.6365 59.1207V57.6266C11.9372 57.0122 12.9761 55.9725 13.5905 54.6726H15.0846C15.5697 54.6726 15.9635 54.2789 15.9635 53.7937V50.2421C15.9635 49.7569 15.5697 49.3632 15.0846 49.3632ZM14.2057 52.9148H13.0034C12.6316 52.9148 12.2994 53.1495 12.1754 53.5001C11.7307 54.7535 10.7173 55.7668 9.46402 56.2116C9.11333 56.3364 8.87867 56.6677 8.87867 57.0395V58.2418H7.08483V57.0395C7.08483 56.6677 6.85016 56.3355 6.49948 56.2116C5.24617 55.7668 4.23279 54.7535 3.78807 53.5001C3.66326 53.1495 3.33192 52.9148 2.96014 52.9148H1.7578V51.121H2.96014C3.33192 51.121 3.66414 50.8863 3.78807 50.5356C4.23279 49.2823 5.24617 48.2689 6.49948 47.8242C6.85016 47.6994 7.08483 47.368 7.08483 46.9963V45.7939H8.87867V46.9963C8.87867 47.368 9.11333 47.7003 9.46402 47.8242C10.7173 48.2689 11.7307 49.2823 12.1754 50.5356C12.3002 50.8863 12.6316 51.121 13.0034 51.121H14.2057V52.9148Z" fill="url(#paint8_linear_390_5679)"/>
<path d="M7.98131 49.3633C6.51794 49.3633 5.32703 50.5542 5.32703 52.0176C5.32703 53.4809 6.51794 54.6718 7.98131 54.6718C9.44468 54.6718 10.6356 53.4809 10.6356 52.0176C10.6356 50.5542 9.44468 49.3633 7.98131 49.3633ZM7.98131 52.9149C7.48649 52.9149 7.08483 52.5124 7.08483 52.0184C7.08483 51.5245 7.48737 51.122 7.98131 51.122C8.47525 51.122 8.87779 51.5245 8.87779 52.0184C8.87779 52.5124 8.47525 52.9149 7.98131 52.9149Z" fill="url(#paint9_linear_390_5679)"/>
<path d="M14.5221 13.2786C14.1784 12.9358 13.6221 12.9358 13.2793 13.2786C12.9365 13.6222 12.9365 14.1786 13.2793 14.5213L15.8035 17.0455H15.0846C14.5994 17.0455 14.2057 17.4393 14.2057 17.9244C14.2057 18.4096 14.5994 18.8033 15.0846 18.8033H17.9261C17.9551 18.8033 17.9841 18.8016 18.0131 18.7989C18.0262 18.7981 18.0386 18.7954 18.0517 18.7937C18.0676 18.791 18.0825 18.7893 18.0983 18.7866C18.1133 18.784 18.1273 18.7796 18.1414 18.7761C18.1546 18.7726 18.1686 18.7699 18.1818 18.7655C18.1959 18.7612 18.2091 18.7559 18.2231 18.7515C18.2363 18.7471 18.2495 18.7427 18.2627 18.7365C18.2759 18.7313 18.2873 18.7251 18.3005 18.719C18.3136 18.7128 18.3277 18.7067 18.3409 18.6996C18.3523 18.6935 18.3637 18.6864 18.3752 18.6794C18.3884 18.6715 18.4015 18.6645 18.4147 18.6557C18.427 18.6478 18.4385 18.6381 18.4499 18.6293C18.4613 18.6214 18.4727 18.6135 18.4833 18.6038C18.5035 18.5871 18.5228 18.5696 18.5413 18.5511C18.543 18.5493 18.5457 18.5476 18.5474 18.5458C18.5492 18.5441 18.5509 18.5414 18.5527 18.5397C18.5712 18.5212 18.5887 18.5019 18.6054 18.4817C18.6142 18.4711 18.6221 18.4597 18.6301 18.4483C18.6388 18.436 18.6485 18.4245 18.6564 18.4122C18.6652 18.3999 18.6722 18.3867 18.6801 18.3736C18.6872 18.3621 18.6942 18.3507 18.7004 18.3384C18.7074 18.3252 18.7135 18.312 18.7197 18.298C18.7259 18.2857 18.732 18.2734 18.7373 18.2602C18.7426 18.247 18.7469 18.2338 18.7513 18.2206C18.7566 18.2066 18.7619 18.1934 18.7663 18.1784C18.7698 18.1653 18.7733 18.1521 18.7768 18.1389C18.7803 18.124 18.7847 18.1099 18.7874 18.0949C18.79 18.08 18.7918 18.0651 18.7944 18.0501C18.7962 18.0369 18.7988 18.0238 18.8006 18.0106C18.8032 17.9833 18.805 17.9552 18.805 17.928C18.805 17.9262 18.805 17.9253 18.805 17.9244V15.0829C18.805 14.5978 18.4112 14.204 17.9261 14.204C17.4409 14.204 17.0471 14.5978 17.0471 15.0829V15.8019L14.5229 13.2777L14.5221 13.2786Z" fill="url(#paint10_linear_390_5679)"/>
<path d="M41.1968 17.9484C41.1968 17.9695 41.1977 17.9906 41.2003 18.0117C41.202 18.0275 41.2047 18.0424 41.2073 18.0583C41.2091 18.0714 41.2108 18.0838 41.2135 18.0969C41.217 18.1136 41.2214 18.1295 41.2258 18.1453C41.2284 18.1567 41.2311 18.1681 41.2346 18.1804C41.239 18.1963 41.2451 18.2112 41.2504 18.2261C41.2548 18.2376 41.2583 18.2499 41.2636 18.2613C41.2697 18.2754 41.2759 18.2894 41.2829 18.3026C41.2891 18.3149 41.2943 18.3272 41.3005 18.3386C41.3075 18.3518 41.3154 18.3641 41.3233 18.3773C41.3304 18.3887 41.3374 18.401 41.3444 18.4125C41.3541 18.4265 41.3646 18.4406 41.3752 18.4538C41.3822 18.4626 41.3884 18.4722 41.3954 18.481C41.4323 18.5258 41.4736 18.5671 41.5185 18.6041C41.5272 18.612 41.5378 18.6181 41.5466 18.6252C41.5598 18.6357 41.5729 18.6454 41.587 18.655C41.5984 18.6629 41.6107 18.67 41.623 18.677C41.6353 18.6849 41.6477 18.692 41.6608 18.699C41.6731 18.706 41.6863 18.7113 41.6995 18.7174C41.7127 18.7236 41.7259 18.7306 41.7391 18.7359C41.7514 18.7412 41.7645 18.7456 41.7769 18.75C41.7909 18.7552 41.805 18.7605 41.8199 18.7649C41.8331 18.7684 41.8454 18.7719 41.8586 18.7746C41.8735 18.7781 41.8885 18.7825 41.9034 18.7851C41.9184 18.7878 41.9333 18.7895 41.9482 18.7921C41.9614 18.7939 41.9746 18.7965 41.9878 18.7983C42.0159 18.8009 42.0449 18.8027 42.073 18.8027C42.073 18.8027 42.0739 18.8027 42.0748 18.8027H44.9163C45.4014 18.8027 45.7952 18.4089 45.7952 17.9238C45.7952 17.4386 45.4014 17.0449 44.9163 17.0449H44.1973L46.7216 14.5207C47.0652 14.1779 47.0652 13.6207 46.7216 13.2779C46.3779 12.9343 45.8216 12.9351 45.4788 13.2779L42.9546 15.8021V15.0832C42.9546 14.598 42.5608 14.2043 42.0757 14.2043C41.5905 14.2043 41.1968 14.598 41.1968 15.0832V17.9229C41.1968 17.9229 41.1968 17.9238 41.1968 17.9247C41.1968 17.9326 41.1977 17.9396 41.1977 17.9475L41.1968 17.9484Z" fill="url(#paint11_linear_390_5679)"/>
<path d="M18.7997 41.7509C18.7979 41.7368 18.7962 41.7236 18.7935 41.7104C18.7918 41.6955 18.79 41.6806 18.7865 41.6665C18.7839 41.6516 18.7795 41.6366 18.776 41.6217C18.7724 41.6085 18.7698 41.5962 18.7663 41.583C18.7619 41.5681 18.7566 41.5549 18.7514 41.5399C18.747 41.5268 18.7426 41.5145 18.7373 41.5013C18.732 41.4881 18.725 41.4758 18.7197 41.4626C18.7136 41.4494 18.7074 41.4362 18.7004 41.423C18.6942 41.4107 18.6863 41.3993 18.6793 41.387C18.6714 41.3738 18.6643 41.3615 18.6564 41.3492C18.6476 41.336 18.638 41.3237 18.6283 41.3114C18.6204 41.3009 18.6134 41.2903 18.6046 41.2807C18.5861 41.2587 18.5668 41.2367 18.5466 41.2165C18.5466 41.2165 18.5457 41.2165 18.5448 41.2147C18.5246 41.1945 18.5035 41.1761 18.4815 41.1576C18.4719 41.1497 18.4613 41.1427 18.4508 41.1348C18.4376 41.1251 18.4253 41.1154 18.4121 41.1066C18.3998 41.0987 18.3875 41.0917 18.3752 41.0838C18.3629 41.0768 18.3506 41.0688 18.3383 41.0618C18.326 41.0548 18.3128 41.0495 18.3005 41.0434C18.2873 41.0372 18.2741 41.0302 18.26 41.0249C18.2477 41.0196 18.2354 41.0161 18.2231 41.0117C18.2082 41.0064 18.1932 41.0003 18.1783 40.9959C18.166 40.9924 18.1546 40.9897 18.1423 40.9862C18.1265 40.9818 18.1106 40.9774 18.0948 40.9748C18.0816 40.9722 18.0676 40.9704 18.0544 40.9687C18.0394 40.966 18.0254 40.9634 18.0104 40.9625C17.9867 40.9599 17.9639 40.959 17.9401 40.959C17.9349 40.959 17.9296 40.959 17.9243 40.959H15.0828C14.5977 40.959 14.2039 41.3527 14.2039 41.8379C14.2039 42.323 14.5977 42.7168 15.0828 42.7168H15.8018L13.2776 45.241C12.9339 45.5846 12.9348 46.141 13.2776 46.4838C13.4489 46.6551 13.6739 46.7413 13.8989 46.7413C14.1239 46.7413 14.3489 46.6551 14.5203 46.4838L17.0445 43.9596V44.6785C17.0445 45.1637 17.4383 45.5574 17.9234 45.5574C18.4086 45.5574 18.8023 45.1637 18.8023 44.6785V41.837C18.8023 41.837 18.8023 41.8335 18.8023 41.8309C18.8023 41.8036 18.8006 41.7772 18.7979 41.75L18.7997 41.7509Z" fill="url(#paint12_linear_390_5679)"/>
<path d="M45.478 46.4838C45.6493 46.6551 45.8743 46.7413 46.0993 46.7413C46.3243 46.7413 46.5493 46.6551 46.7207 46.4838C47.0644 46.1401 47.0644 45.5838 46.7207 45.241L44.1965 42.7168H44.9155C45.4006 42.7168 45.7944 42.323 45.7944 41.8379C45.7944 41.3527 45.4006 40.959 44.9155 40.959H42.074C42.0634 40.959 42.0538 40.9599 42.0432 40.9607C42.0248 40.9607 42.0063 40.9616 41.9878 40.9634C41.9703 40.9651 41.9536 40.9678 41.9369 40.9704C41.9254 40.9722 41.914 40.973 41.9035 40.9757C41.8859 40.9792 41.8683 40.9836 41.8507 40.9889C41.8402 40.9915 41.8305 40.9933 41.82 40.9968C41.8033 41.002 41.7866 41.0082 41.7708 41.0144C41.7602 41.0179 41.7497 41.0214 41.7391 41.0258C41.7242 41.0319 41.7092 41.0398 41.6943 41.0469C41.6829 41.0521 41.6723 41.0574 41.6609 41.0627C41.6468 41.0706 41.6328 41.0794 41.6187 41.0873C41.6082 41.0935 41.5967 41.0996 41.5871 41.1066C41.5721 41.1172 41.5572 41.1277 41.5431 41.1392C41.5352 41.1453 41.5264 41.1515 41.5185 41.1576C41.4737 41.1945 41.4324 41.2358 41.3955 41.2807C41.3875 41.2895 41.3814 41.3 41.3744 41.3088C41.3638 41.322 41.3542 41.3352 41.3445 41.3492C41.3366 41.3606 41.3295 41.3729 41.3225 41.3853C41.3146 41.3976 41.3067 41.4099 41.2997 41.423C41.2935 41.4353 41.2874 41.4477 41.2821 41.46C41.2759 41.4731 41.2689 41.4872 41.2627 41.5013C41.2575 41.5127 41.254 41.525 41.2496 41.5373C41.2443 41.5522 41.2381 41.5672 41.2337 41.583C41.2302 41.5944 41.2276 41.6059 41.225 41.6182C41.2206 41.634 41.2162 41.6507 41.2126 41.6665C41.21 41.6788 41.2091 41.692 41.2065 41.7052C41.2039 41.721 41.2012 41.7359 41.1995 41.7518C41.1977 41.7728 41.1968 41.7931 41.1959 41.8142C41.1959 41.8221 41.1951 41.83 41.1951 41.8379C41.1951 41.8379 41.1951 41.8388 41.1951 41.8396V44.6794C41.1951 45.1645 41.5888 45.5583 42.074 45.5583C42.5591 45.5583 42.9529 45.1645 42.9529 44.6794V43.9604L45.4771 46.4846L45.478 46.4838Z" fill="url(#paint13_linear_390_5679)"/>
</g>
<defs>
<linearGradient id="paint0_linear_390_5679" x1="25.5681" y1="30.0009" x2="34.4292" y2="30.0009" gradientUnits="userSpaceOnUse">
<stop stop-color="#223962"/>
<stop offset="0.526042" stop-color="#3277BC"/>
<stop offset="0.973958" stop-color="#48ABDF"/>
</linearGradient>
<linearGradient id="paint1_linear_390_5679" x1="15.3983" y1="30.0001" x2="44.6007" y2="30.0001" gradientUnits="userSpaceOnUse">
<stop stop-color="#223962"/>
<stop offset="0.526042" stop-color="#3277BC"/>
<stop offset="0.973958" stop-color="#48ABDF"/>
</linearGradient>
<linearGradient id="paint2_linear_390_5679" x1="44.0365" y1="7.98175" x2="60" y2="7.98175" gradientUnits="userSpaceOnUse">
<stop stop-color="#223962"/>
<stop offset="0.526042" stop-color="#3277BC"/>
<stop offset="0.973958" stop-color="#48ABDF"/>
</linearGradient>
<linearGradient id="paint3_linear_390_5679" x1="49.3635" y1="7.98143" x2="54.6721" y2="7.98143" gradientUnits="userSpaceOnUse">
<stop stop-color="#223962"/>
<stop offset="0.526042" stop-color="#3277BC"/>
<stop offset="0.973958" stop-color="#48ABDF"/>
</linearGradient>
<linearGradient id="paint4_linear_390_5679" x1="49.3644" y1="52.0176" x2="54.6729" y2="52.0176" gradientUnits="userSpaceOnUse">
<stop stop-color="#223962"/>
<stop offset="0.526042" stop-color="#3277BC"/>
<stop offset="0.973958" stop-color="#48ABDF"/>
</linearGradient>
<linearGradient id="paint5_linear_390_5679" x1="44.0365" y1="52.0179" x2="60" y2="52.0179" gradientUnits="userSpaceOnUse">
<stop stop-color="#223962"/>
<stop offset="0.526042" stop-color="#3277BC"/>
<stop offset="0.973958" stop-color="#48ABDF"/>
</linearGradient>
<linearGradient id="paint6_linear_390_5679" x1="-5.94686e-08" y1="7.98175" x2="15.9635" y2="7.98175" gradientUnits="userSpaceOnUse">
<stop stop-color="#223962"/>
<stop offset="0.526042" stop-color="#3277BC"/>
<stop offset="0.973958" stop-color="#48ABDF"/>
</linearGradient>
<linearGradient id="paint7_linear_390_5679" x1="5.32788" y1="7.98143" x2="10.6364" y2="7.98143" gradientUnits="userSpaceOnUse">
<stop stop-color="#223962"/>
<stop offset="0.526042" stop-color="#3277BC"/>
<stop offset="0.973958" stop-color="#48ABDF"/>
</linearGradient>
<linearGradient id="paint8_linear_390_5679" x1="-5.94686e-08" y1="52.0179" x2="15.9635" y2="52.0179" gradientUnits="userSpaceOnUse">
<stop stop-color="#223962"/>
<stop offset="0.526042" stop-color="#3277BC"/>
<stop offset="0.973958" stop-color="#48ABDF"/>
</linearGradient>
<linearGradient id="paint9_linear_390_5679" x1="5.32703" y1="52.0176" x2="10.6356" y2="52.0176" gradientUnits="userSpaceOnUse">
<stop stop-color="#223962"/>
<stop offset="0.526042" stop-color="#3277BC"/>
<stop offset="0.973958" stop-color="#48ABDF"/>
</linearGradient>
<linearGradient id="paint10_linear_390_5679" x1="13.0222" y1="15.9124" x2="18.805" y2="15.9124" gradientUnits="userSpaceOnUse">
<stop stop-color="#223962"/>
<stop offset="0.526042" stop-color="#3277BC"/>
<stop offset="0.973958" stop-color="#48ABDF"/>
</linearGradient>
<linearGradient id="paint11_linear_390_5679" x1="41.1968" y1="15.9116" x2="46.9793" y2="15.9116" gradientUnits="userSpaceOnUse">
<stop stop-color="#223962"/>
<stop offset="0.526042" stop-color="#3277BC"/>
<stop offset="0.973958" stop-color="#48ABDF"/>
</linearGradient>
<linearGradient id="paint12_linear_390_5679" x1="13.0201" y1="43.8501" x2="18.8023" y2="43.8501" gradientUnits="userSpaceOnUse">
<stop stop-color="#223962"/>
<stop offset="0.526042" stop-color="#3277BC"/>
<stop offset="0.973958" stop-color="#48ABDF"/>
</linearGradient>
<linearGradient id="paint13_linear_390_5679" x1="41.1951" y1="43.8501" x2="46.9785" y2="43.8501" gradientUnits="userSpaceOnUse">
<stop stop-color="#223962"/>
<stop offset="0.526042" stop-color="#3277BC"/>
<stop offset="0.973958" stop-color="#48ABDF"/>
</linearGradient>
<clipPath id="clip0_390_5679">
<rect width="60" height="60" fill="white"/>
</clipPath>
</defs>
</svg>
