<svg width="60" height="53" viewBox="0 0 60 53" fill="none" xmlns="http://www.w3.org/2000/svg">
<g clip-path="url(#clip0_390_5890)">
<path d="M31.2111 50.931H26.1791C25.6999 50.931 25.2217 50.7658 24.8315 50.4669C23.4042 49.3736 21.8855 49.0513 20.4125 48.9154V34.0188C21.6734 32.636 23.0233 31.6282 24.3323 30.6509C27.2912 28.442 30.0873 26.3561 29.8037 20.8859C29.7838 20.5121 29.915 20.1582 30.1728 19.8863C30.4306 19.6156 30.7775 19.4656 31.1513 19.4656C31.7407 19.4656 32.2704 19.8546 32.4403 20.4113C32.7849 21.5386 33.0263 22.5827 33.1798 23.6022C33.2524 24.0827 33.7001 24.4132 34.1794 24.3405C34.6598 24.2678 34.9903 23.8202 34.9176 23.3409C34.7512 22.2358 34.4911 21.1097 34.122 19.8992C33.7224 18.589 32.5294 17.709 31.1525 17.709C30.2912 17.709 29.4908 18.0535 28.899 18.6769C28.3061 19.3015 28.0049 20.1183 28.0494 20.9785C28.285 25.51 26.1862 27.0756 23.2823 29.2435C22.3753 29.9197 21.3898 30.6568 20.4136 31.5439V29.8119C20.4136 29.5787 20.3211 29.3549 20.1558 29.1908C19.9906 29.0256 19.7679 28.933 19.5347 28.933L11.5427 28.9365C11.0576 28.9365 10.6638 29.3302 10.6638 29.8154V38.548C10.6638 39.0332 11.0576 39.4269 11.5427 39.4269C12.0279 39.4269 12.4216 39.0332 12.4216 38.548V30.6943L18.6558 30.6919V33.5958C18.6523 33.6274 18.65 33.6591 18.65 33.6919V49.7334C18.65 49.7662 18.6523 49.799 18.6558 49.8306V50.9286L12.4216 50.9322V42.38C12.4216 41.8948 12.0279 41.5011 11.5427 41.5011C11.0576 41.5011 10.6638 41.8948 10.6638 42.38V51.8122C10.6638 52.0454 10.7564 52.2692 10.9216 52.4333C11.0869 52.5985 11.3095 52.6911 11.5427 52.6911L19.5347 52.6864C20.0199 52.6864 20.4136 52.2927 20.4136 51.8075V50.6849C21.7777 50.8255 22.7878 51.1161 23.7628 51.8638C24.4577 52.397 25.3167 52.6911 26.1803 52.6911H31.2122C31.6974 52.6911 32.0911 52.2974 32.0911 51.8122C32.0911 51.3271 31.6974 50.9333 31.2122 50.9333L31.2111 50.931Z" fill="url(#paint0_linear_390_5890)"/>
<path d="M15.9372 37.2684V35.0278C15.9372 34.5427 15.5435 34.1489 15.0583 34.1489C14.5732 34.1489 14.1794 34.5427 14.1794 35.0278V37.2684C14.1794 37.7535 14.5732 38.1473 15.0583 38.1473C15.5435 38.1473 15.9372 37.7535 15.9372 37.2684Z" fill="url(#paint1_linear_390_5890)"/>
<path d="M47.4987 36.1776C47.9323 35.5952 48.1667 34.8921 48.1667 34.1527C48.1667 32.2766 46.6409 30.7508 44.7648 30.7508H39.5348C39.5348 30.7508 39.5289 30.7508 39.5254 30.7508H34.4349C34.7712 29.6457 34.9857 28.5149 35.0771 27.3724C35.1157 26.8884 34.7548 26.4653 34.2708 26.4267C33.7869 26.388 33.3638 26.7489 33.3251 27.2329C33.2138 28.6391 32.9044 29.9727 32.3818 31.3086C32.3818 31.3109 32.3806 31.3133 32.3795 31.3156C32.3689 31.3438 32.3595 31.3731 32.3513 31.4024C32.3502 31.4082 32.3478 31.4141 32.3466 31.4188C32.3396 31.4469 32.3338 31.4762 32.3302 31.5055C32.3302 31.5102 32.3291 31.5148 32.3279 31.5195C32.3232 31.5547 32.3209 31.591 32.3209 31.6273V33.773C32.3209 36.2081 30.3393 38.1897 27.9042 38.1897C27.419 38.1897 27.0253 38.5835 27.0253 39.0686C27.0253 39.5538 27.419 39.9475 27.9042 39.9475C31.3096 39.9475 34.0786 37.1772 34.0786 33.773V32.5051H36.5501C36.2794 32.9926 36.1247 33.5527 36.1247 34.1492C36.1247 35.4628 36.8735 36.6042 37.9669 37.1702C37.5462 37.7362 37.2966 38.437 37.2966 39.194C37.2966 39.951 37.5462 40.6518 37.9657 41.2178C36.8735 41.7838 36.1247 42.9252 36.1247 44.2388C36.1247 45.5525 36.8735 46.6939 37.9669 47.2599C37.5462 47.8259 37.2966 48.5266 37.2966 49.2836C37.2966 49.8789 37.4512 50.4391 37.7208 50.9266H35.0419C34.5568 50.9266 34.163 51.3203 34.163 51.8055C34.163 52.2906 34.5568 52.6844 35.0419 52.6844H40.6844C40.6844 52.6844 40.6938 52.6844 40.6984 52.6844H43.5929C45.469 52.6844 46.9948 51.1586 46.9948 49.2825C46.9948 48.5255 46.7464 47.8259 46.3268 47.2599C46.6339 47.1005 46.9186 46.8942 47.1706 46.6423C47.8128 46.0001 48.1667 45.1458 48.1667 44.2376C48.1667 43.4795 47.917 42.7799 47.4975 42.2139C48.5897 41.6479 49.3385 40.5065 49.3385 39.1928C49.3385 37.8792 48.5909 36.7401 47.4987 36.173V36.1776ZM39.5266 32.5086H44.7648C45.6706 32.5086 46.4089 33.2457 46.4089 34.1527C46.4089 34.5921 46.2378 35.0046 45.9272 35.3152C45.6167 35.6257 45.2042 35.7968 44.7648 35.7968H39.5266C38.6207 35.7968 37.8825 35.0597 37.8825 34.1527C37.8825 33.2457 38.6196 32.5086 39.5266 32.5086ZM43.5929 50.9324H40.7043C40.7043 50.9324 40.6996 50.9324 40.6973 50.9324H40.6902C39.7867 50.9289 39.0532 50.193 39.0532 49.2895C39.0532 48.386 39.7903 47.6454 40.6973 47.6454H43.5917C44.4976 47.6454 45.2358 48.3825 45.2358 49.2895C45.2358 50.1965 44.4988 50.9336 43.5917 50.9336L43.5929 50.9324ZM45.9272 45.406C45.6167 45.7165 45.2042 45.8876 44.7648 45.8876H39.5266C38.6207 45.8876 37.8825 45.1505 37.8825 44.2435C37.8825 43.3365 38.6196 42.5994 39.5266 42.5994H44.7648C45.6706 42.5994 46.4089 43.3365 46.4089 44.2435C46.4089 44.683 46.2378 45.0954 45.9272 45.406ZM45.9366 40.8416H40.6984C39.7926 40.8416 39.0543 40.1045 39.0543 39.1975C39.0543 38.2905 39.7914 37.5534 40.6984 37.5534H45.9366C46.8425 37.5534 47.5807 38.2905 47.5807 39.1975C47.5807 40.1045 46.8436 40.8416 45.9366 40.8416Z" fill="url(#paint2_linear_390_5890)"/>
<path d="M25.7573 8.16195L25.3377 10.6088C25.2276 11.251 25.4866 11.8873 26.0139 12.2705C26.3116 12.4873 26.6596 12.5962 27.0112 12.5962C27.2807 12.5962 27.5525 12.5306 27.8033 12.3994L30.0005 11.2439L32.1978 12.3994C32.7743 12.7029 33.4599 12.6537 33.9872 12.2705C34.5145 11.8873 34.7735 11.251 34.6633 10.6088L34.2438 8.16195L36.0215 6.42878C36.4879 5.9741 36.6531 5.30615 36.4516 4.68741C36.25 4.0675 35.725 3.62454 35.0794 3.53079L32.6232 3.17338L31.524 0.946856C31.2357 0.362102 30.6521 0 30.0005 0C29.349 0 28.7654 0.363274 28.4771 0.946856L27.3779 3.17338L24.9217 3.53079C24.2772 3.62454 23.7511 4.0675 23.5507 4.68741C23.3491 5.30732 23.5143 5.9741 23.9807 6.42878L25.7584 8.16195H25.7573ZM27.6615 4.90889C28.2158 4.82803 28.6939 4.48116 28.9412 3.97961L30.0005 1.83278L31.0599 3.97961C31.3072 4.48116 31.7853 4.8292 32.3396 4.90889L34.709 5.25341L32.9946 6.92447C32.5939 7.3147 32.411 7.87719 32.506 8.42913L32.9103 10.7892L30.7904 9.67481C30.5431 9.54473 30.2712 9.47911 29.9994 9.47911C29.7275 9.47911 29.4568 9.54473 29.2084 9.67481L27.0885 10.7892L27.4928 8.42913C27.5877 7.87719 27.4049 7.31587 27.0041 6.92565L25.2897 5.25458L27.6592 4.91006L27.6615 4.90889Z" fill="url(#paint3_linear_390_5890)"/>
<path d="M12.8212 12.8494L12.4017 15.2963C12.2915 15.9385 12.5505 16.5748 13.0778 16.958C13.3755 17.1748 13.7247 17.2837 14.0751 17.2837C14.3446 17.2837 14.6165 17.2181 14.8672 17.0869L17.0645 15.9314L19.2617 17.0869C19.8382 17.3904 20.5238 17.3412 21.0511 16.958C21.5784 16.5748 21.8374 15.9385 21.7273 15.2963L21.3077 12.8494L23.0854 11.1163C23.5518 10.6616 23.7171 9.99365 23.5155 9.37491C23.3139 8.755 22.789 8.31204 22.1433 8.21829L19.6859 7.86088L18.5867 5.63436C18.2984 5.05077 17.7148 4.6875 17.0633 4.6875C16.4117 4.6875 15.8282 5.05077 15.5399 5.63436L14.4407 7.86088L11.9845 8.21829C11.34 8.31204 10.8138 8.755 10.6134 9.37491C10.4119 9.99482 10.5771 10.6616 11.0435 11.1163L12.8212 12.8494ZM14.7254 9.59639C15.2797 9.51553 15.7578 9.16866 16.0051 8.66711L17.0645 6.52028L18.1238 8.66711C18.3711 9.16866 18.8492 9.5167 19.4035 9.59639L21.773 9.94091L20.0585 11.612C19.6578 12.0022 19.475 12.5647 19.5699 13.1155L19.9742 15.4756L17.8543 14.3611C17.607 14.2311 17.3352 14.1654 17.0633 14.1654C16.7914 14.1654 16.5207 14.2299 16.2723 14.3611L14.1524 15.4756L14.5579 13.1155C14.6528 12.5635 14.47 12.0022 14.0692 11.612L12.3548 9.94091L14.7243 9.59639H14.7254Z" fill="url(#paint4_linear_390_5890)"/>
<path d="M11.1982 25.8417L10.7787 23.3949L12.5564 21.6617C13.0228 21.207 13.188 20.5391 12.9865 19.9203C12.7849 19.3004 12.2599 18.8574 11.6142 18.7637L9.15684 18.4063L8.05764 16.1798C7.76937 15.5962 7.18579 15.2329 6.53424 15.2329C5.88269 15.2329 5.2991 15.5962 5.01083 16.1798L3.91163 18.4063L1.45543 18.7637C0.810911 18.8574 0.284749 19.3004 0.0843624 19.9203C-0.117196 20.5402 0.048035 21.207 0.514432 21.6617L2.29213 23.3949L1.87261 25.8417C1.76245 26.4839 2.02143 27.1202 2.54877 27.5034C3.0761 27.8866 3.76163 27.9358 4.33819 27.6323L6.53541 26.4768L8.73263 27.6323C8.98341 27.7635 9.25528 27.8291 9.5248 27.8291C9.87519 27.8291 10.2244 27.719 10.522 27.5022C11.0494 27.119 11.3084 26.4827 11.1982 25.8405V25.8417ZM9.52949 22.1574C9.12872 22.5476 8.94591 23.1101 9.04083 23.662L9.44512 26.0222L7.32524 24.9077C7.07798 24.7776 6.80611 24.712 6.53424 24.712C6.26237 24.712 5.99167 24.7765 5.74324 24.9077L3.62336 26.0222L4.02882 23.6609C4.12374 23.1089 3.94093 22.5476 3.54015 22.1574L1.82573 20.4863L4.19522 20.1418C4.74951 20.0609 5.22762 19.7141 5.47488 19.2125L6.53424 17.0645L7.59476 19.2125C7.84202 19.7141 8.32014 20.0621 8.87443 20.1418L11.2439 20.4863L9.52949 22.1574Z" fill="url(#paint5_linear_390_5890)"/>
<path d="M59.9157 19.9203C59.7141 19.3004 59.1891 18.8574 58.5434 18.7637L56.0872 18.4063L54.988 16.1798C54.6997 15.595 54.1162 15.2329 53.4646 15.2329C52.8131 15.2329 52.2295 15.5962 51.9412 16.1798L50.842 18.4063L48.3858 18.7637C47.7413 18.8574 47.2151 19.3004 47.0136 19.9203C46.812 20.5402 46.9772 21.207 47.4436 21.6617L49.2213 23.3949L48.8018 25.8417C48.6917 26.4839 48.9506 27.1202 49.478 27.5034C50.0053 27.8866 50.6908 27.9358 51.2674 27.6323L53.4646 26.4768L55.6618 27.6323C55.9126 27.7635 56.1845 27.8291 56.454 27.8291C56.8056 27.8291 57.1536 27.719 57.4513 27.5022C57.9786 27.119 58.2376 26.4827 58.1274 25.8405L57.7079 23.3937L59.4856 21.6605C59.952 21.2058 60.1172 20.5379 59.9157 19.9191V19.9203ZM56.4587 22.1574C56.0579 22.5476 55.8751 23.1101 55.97 23.6609L56.3743 26.021L54.2544 24.9065C54.0072 24.7765 53.7353 24.7108 53.4634 24.7108C53.1916 24.7108 52.9197 24.7765 52.6724 24.9065L50.5526 26.021L50.958 23.6597C51.0518 23.1089 50.8701 22.5464 50.4694 22.1562L48.7549 20.4852L51.1244 20.1406C51.6787 20.0598 52.1568 19.7129 52.4041 19.2113L53.4634 17.0645L54.5228 19.2125C54.7701 19.7141 55.2493 20.0609 55.8025 20.1418L58.1719 20.4863L56.4575 22.1574H56.4587Z" fill="url(#paint6_linear_390_5890)"/>
<path d="M36.9496 11.1163L38.7273 12.8495L38.3078 15.2963C38.1976 15.9385 38.4566 16.5748 38.9839 16.958C39.2816 17.1748 39.6308 17.2837 39.9812 17.2837C40.2507 17.2837 40.5226 17.2181 40.7734 17.0869L42.9706 15.9314L45.1678 17.0869C45.7444 17.3904 46.4299 17.34 46.9572 16.958C47.4846 16.5748 47.7435 15.9385 47.6334 15.2963L47.2139 12.8495L48.9916 11.1163C49.458 10.6616 49.6232 9.99365 49.4216 9.37491C49.2201 8.75617 48.6951 8.31204 48.0494 8.21829L45.5932 7.86088L44.494 5.63436C44.2057 5.0496 43.6221 4.6875 42.9706 4.6875C42.319 4.6875 41.7355 5.05077 41.4472 5.63436L40.348 7.86088L37.8918 8.21829C37.2473 8.31204 36.7211 8.755 36.5195 9.37491C36.318 9.99482 36.4832 10.6616 36.9496 11.1163ZM40.6316 9.59522C41.1859 9.51436 41.664 9.16749 41.9112 8.66594L42.9706 6.5191L44.0299 8.66711C44.2772 9.16866 44.7565 9.51553 45.3096 9.59639L47.6791 9.94091L45.9647 11.612C45.5639 12.0022 45.3811 12.5647 45.476 13.1155L45.8803 15.4756L43.7604 14.3611C43.5132 14.2311 43.2413 14.1654 42.9694 14.1654C42.6975 14.1654 42.4257 14.2311 42.1784 14.3611L40.0585 15.4756L40.464 13.1155C40.5577 12.5647 40.3761 12.0022 39.9753 11.612L38.2609 9.94091L40.6304 9.59639L40.6316 9.59522Z" fill="url(#paint7_linear_390_5890)"/>
</g>
<defs>
<linearGradient id="paint0_linear_390_5890" x1="10.6638" y1="35.2001" x2="34.9277" y2="35.2001" gradientUnits="userSpaceOnUse">
<stop stop-color="#223962"/>
<stop offset="0.526042" stop-color="#3277BC"/>
<stop offset="0.973958" stop-color="#48ABDF"/>
</linearGradient>
<linearGradient id="paint1_linear_390_5890" x1="14.1794" y1="36.1481" x2="15.9372" y2="36.1481" gradientUnits="userSpaceOnUse">
<stop stop-color="#223962"/>
<stop offset="0.526042" stop-color="#3277BC"/>
<stop offset="0.973958" stop-color="#48ABDF"/>
</linearGradient>
<linearGradient id="paint2_linear_390_5890" x1="27.0253" y1="39.5541" x2="49.3385" y2="39.5541" gradientUnits="userSpaceOnUse">
<stop stop-color="#223962"/>
<stop offset="0.526042" stop-color="#3277BC"/>
<stop offset="0.973958" stop-color="#48ABDF"/>
</linearGradient>
<linearGradient id="paint3_linear_390_5890" x1="23.4662" y1="6.29838" x2="36.5361" y2="6.29838" gradientUnits="userSpaceOnUse">
<stop stop-color="#223962"/>
<stop offset="0.526042" stop-color="#3277BC"/>
<stop offset="0.973958" stop-color="#48ABDF"/>
</linearGradient>
<linearGradient id="paint4_linear_390_5890" x1="10.5289" y1="10.9859" x2="23.6" y2="10.9859" gradientUnits="userSpaceOnUse">
<stop stop-color="#223962"/>
<stop offset="0.526042" stop-color="#3277BC"/>
<stop offset="0.973958" stop-color="#48ABDF"/>
</linearGradient>
<linearGradient id="paint5_linear_390_5890" x1="-0.000122119" y1="21.5313" x2="13.0709" y2="21.5313" gradientUnits="userSpaceOnUse">
<stop stop-color="#223962"/>
<stop offset="0.526042" stop-color="#3277BC"/>
<stop offset="0.973958" stop-color="#48ABDF"/>
</linearGradient>
<linearGradient id="paint6_linear_390_5890" x1="46.9291" y1="21.5313" x2="60.0001" y2="21.5313" gradientUnits="userSpaceOnUse">
<stop stop-color="#223962"/>
<stop offset="0.526042" stop-color="#3277BC"/>
<stop offset="0.973958" stop-color="#48ABDF"/>
</linearGradient>
<linearGradient id="paint7_linear_390_5890" x1="36.4351" y1="10.9857" x2="49.5061" y2="10.9857" gradientUnits="userSpaceOnUse">
<stop stop-color="#223962"/>
<stop offset="0.526042" stop-color="#3277BC"/>
<stop offset="0.973958" stop-color="#48ABDF"/>
</linearGradient>
<clipPath id="clip0_390_5890">
<rect width="60" height="52.6888" fill="white"/>
</clipPath>
</defs>
</svg>
