<svg width="60" height="55" viewBox="0 0 60 55" fill="none" xmlns="http://www.w3.org/2000/svg">
<g clip-path="url(#clip0_390_5782)">
<path d="M26.0403 29.3555V34.8129C26.0403 35.4914 26.5922 36.0434 27.2708 36.0434H32.7282C33.4067 36.0434 33.9586 35.4914 33.9586 34.8129V29.3555C33.9586 28.677 33.4067 28.125 32.7282 28.125H27.2708C26.5922 28.125 26.0403 28.677 26.0403 29.3555ZM27.7981 29.8828H32.2008V34.2855H27.7981V29.8828Z" fill="url(#paint0_linear_390_5782)"/>
<path d="M43.5938 34.1934H47.2102C47.6953 34.1934 48.0891 33.7996 48.0891 33.3145C48.0891 32.8293 47.6953 32.4355 47.2102 32.4355H43.5938C43.1086 32.4355 42.7148 32.8293 42.7148 33.3145C42.7148 33.7996 43.1086 34.1934 43.5938 34.1934Z" fill="url(#paint1_linear_390_5782)"/>
<path d="M43.5938 37.127H47.2102C47.6953 37.127 48.0891 36.7332 48.0891 36.248C48.0891 35.7629 47.6953 35.3691 47.2102 35.3691H43.5938C43.1086 35.3691 42.7148 35.7629 42.7148 36.248C42.7148 36.7332 43.1086 37.127 43.5938 37.127Z" fill="url(#paint2_linear_390_5782)"/>
<path d="M43.5938 40.0605H45.3234C45.8086 40.0605 46.2023 39.6668 46.2023 39.1816C46.2023 38.6965 45.8086 38.3027 45.3234 38.3027H43.5938C43.1086 38.3027 42.7148 38.6965 42.7148 39.1816C42.7148 39.6668 43.1086 40.0605 43.5938 40.0605Z" fill="url(#paint3_linear_390_5782)"/>
<path d="M12.7898 34.1934H16.4062C16.8914 34.1934 17.2851 33.7996 17.2851 33.3145C17.2851 32.8293 16.8914 32.4355 16.4062 32.4355H12.7898C12.3046 32.4355 11.9109 32.8293 11.9109 33.3145C11.9109 33.7996 12.3046 34.1934 12.7898 34.1934Z" fill="url(#paint4_linear_390_5782)"/>
<path d="M12.7898 37.127H16.4062C16.8914 37.127 17.2851 36.7332 17.2851 36.248C17.2851 35.7629 16.8914 35.3691 16.4062 35.3691H12.7898C12.3046 35.3691 11.9109 35.7629 11.9109 36.248C11.9109 36.7332 12.3046 37.127 12.7898 37.127Z" fill="url(#paint5_linear_390_5782)"/>
<path d="M12.7898 40.0605H14.5195C15.0046 40.0605 15.3984 39.6668 15.3984 39.1816C15.3984 38.6965 15.0046 38.3027 14.5195 38.3027H12.7898C12.3046 38.3027 11.9109 38.6965 11.9109 39.1816C11.9109 39.6668 12.3046 40.0605 12.7898 40.0605Z" fill="url(#paint6_linear_390_5782)"/>
<path d="M56.946 23.7893C55.5679 23.7893 54.4007 24.7068 54.0222 25.9643H49.3605C48.5648 23.6158 46.5726 21.776 44.1 21.2299C44.1269 20.9357 44.1398 20.6428 44.1398 20.3521C44.1398 20.0615 44.1246 19.7592 44.0976 19.4674H52.0875C52.466 20.7236 53.6332 21.6424 55.0113 21.6424C56.6953 21.6424 58.0652 20.2725 58.0652 18.5885C58.0652 16.9045 56.6953 15.5346 55.0113 15.5346C53.6332 15.5346 52.466 16.4521 52.0875 17.7096H43.7742C42.7839 14.1834 39.8671 11.4576 36.2343 10.7463V9.38105C36.2343 9.21934 36.3656 9.08809 36.5273 9.08809H40.7039C41.0824 10.3443 42.2496 11.2631 43.6277 11.2631C45.3117 11.2631 46.6816 9.89316 46.6816 8.20918C46.6816 6.5252 45.3117 5.15527 43.6277 5.15527C42.2496 5.15527 41.0824 6.07285 40.7039 7.33027H36.5273C35.3964 7.33027 34.4765 8.2502 34.4765 9.38105V10.5658C34.4343 10.5658 34.3921 10.5623 34.35 10.5623C33.1406 10.5623 31.9675 10.7861 30.8777 11.1998V5.97676C32.1339 5.59824 33.0527 4.43105 33.0527 3.05293C33.0527 1.36895 31.6828 -0.000976562 29.9988 -0.000976562C28.3148 -0.000976562 26.9449 1.36895 26.9449 3.05293C26.9449 4.43105 27.8625 5.59824 29.1199 5.97676V12.0775C27.73 12.9564 26.5605 14.1846 25.7507 15.6729C25.6746 15.6459 25.5972 15.6213 25.521 15.5979V9.38105C25.521 8.2502 24.6011 7.33027 23.4703 7.33027H19.2937C18.9152 6.07402 17.748 5.15527 16.3699 5.15527C14.6859 5.15527 13.316 6.5252 13.316 8.20918C13.316 9.89316 14.6859 11.2631 16.3699 11.2631C17.748 11.2631 18.9152 10.3455 19.2937 9.08809H23.4703C23.632 9.08809 23.7632 9.21934 23.7632 9.38105V15.2756C23.6097 15.2662 23.455 15.2604 23.2992 15.2604C21.1183 15.2604 19.1437 16.199 17.7761 17.7107H11.9953C11.6167 16.4545 10.4496 15.5357 9.07144 15.5357C7.38745 15.5357 6.01753 16.9057 6.01753 18.5896C6.01753 20.2736 7.38745 21.6436 9.07144 21.6436C10.4496 21.6436 11.6167 20.726 11.9953 19.4686H16.5949C16.3335 20.0123 16.1343 20.5936 16.0101 21.2041C14.523 21.5053 13.1636 22.2764 12.1265 23.4189C11.4503 24.1643 10.9441 25.0314 10.6324 25.9643H5.97651C5.598 24.708 4.43081 23.7893 3.05269 23.7893C1.3687 23.7893 -0.0012207 25.1592 -0.0012207 26.8432C-0.0012207 28.5271 1.3687 29.8971 3.05269 29.8971C4.43081 29.8971 5.598 28.9795 5.97651 27.7221H10.2832C10.2714 27.8896 10.2632 28.0572 10.2632 28.2271C10.2632 28.3443 10.2667 28.4639 10.2726 28.5822H10.1601C9.35269 28.5822 8.69526 29.2396 8.69526 30.0471V31.8928C8.69526 32.3779 9.08901 32.7717 9.57417 32.7717C10.0593 32.7717 10.4531 32.3779 10.4531 31.8928V30.34H11.2617C11.2617 30.34 11.2664 30.34 11.2687 30.34H16.9031L18.7394 32.1775V41.6779H10.4531V35.9943C10.4531 35.5092 10.0593 35.1154 9.57417 35.1154C9.08901 35.1154 8.69526 35.5092 8.69526 35.9943V41.9709C8.69526 42.7783 9.35269 43.4357 10.1601 43.4357H19.0324C19.8398 43.4357 20.4972 42.7783 20.4972 41.9709V35.392H22.1542V37.8775C22.1542 38.8561 22.8433 39.6752 23.7621 39.8791V46.5928C23.7621 46.7545 23.6308 46.8857 23.4691 46.8857H19.2925C18.914 45.6295 17.7468 44.7107 16.3687 44.7107C14.6847 44.7107 13.3148 46.0807 13.3148 47.7646C13.3148 49.4486 14.6847 50.8186 16.3687 50.8186C17.7468 50.8186 18.914 49.901 19.2925 48.6436H23.4691C24.6 48.6436 25.5199 47.7236 25.5199 46.5928V39.9283H29.1187V48.9002C27.8624 49.2787 26.9437 50.4459 26.9437 51.824C26.9437 53.508 28.3136 54.8779 29.9976 54.8779C31.6816 54.8779 33.0515 53.508 33.0515 51.824C33.0515 50.4459 32.1339 49.2787 30.8765 48.9002V39.9283H34.4753V46.5928C34.4753 47.7236 35.3953 48.6436 36.5261 48.6436H40.7027C41.0812 49.8998 42.2484 50.8186 43.6265 50.8186C45.3105 50.8186 46.6804 49.4486 46.6804 47.7646C46.6804 46.0807 45.3105 44.7107 43.6265 44.7107C42.2484 44.7107 41.0812 45.6283 40.7027 46.8857H36.5261C36.3644 46.8857 36.2332 46.7545 36.2332 46.5928V39.8791C37.1519 39.6764 37.841 38.8561 37.841 37.8775V35.392H39.498V36.6975C39.498 37.1826 39.8917 37.5764 40.3769 37.5764C40.8621 37.5764 41.2558 37.1826 41.2558 36.6975V30.34H47.7058L47.9777 30.6119C47.9777 30.6119 47.9777 30.6119 47.9789 30.6119L49.5433 32.1764V41.6768H41.257V40.7979C41.257 40.3127 40.8632 39.9189 40.3781 39.9189C39.8929 39.9189 39.4992 40.3127 39.4992 40.7979V41.9697C39.4992 42.7772 40.1566 43.4346 40.964 43.4346H49.8363C50.6437 43.4346 51.3011 42.7772 51.3011 41.9697V32.0545C51.3011 31.6631 51.1488 31.2963 50.8722 31.0186L49.5738 29.7201C49.6792 29.2291 49.7332 28.7287 49.7332 28.226C49.7332 28.0561 49.725 27.8885 49.7132 27.7209H54.0199C54.3984 28.9771 55.5656 29.8959 56.9437 29.8959C58.6277 29.8959 59.9976 28.526 59.9976 26.842C59.9976 25.158 58.6277 23.7881 56.9437 23.7881L56.946 23.7893ZM55.0125 17.2936C55.7273 17.2936 56.3085 17.8748 56.3085 18.5896C56.3085 19.3045 55.7273 19.8857 55.0125 19.8857C54.2976 19.8857 53.7164 19.3045 53.7164 18.5896C53.7164 17.8748 54.2976 17.2936 55.0125 17.2936ZM43.6289 6.91426C44.3437 6.91426 44.9249 7.49551 44.9249 8.21035C44.9249 8.9252 44.3437 9.50645 43.6289 9.50645C42.914 9.50645 42.3328 8.9252 42.3328 8.21035C42.3328 7.49551 42.914 6.91426 43.6289 6.91426ZM28.7039 3.0541C28.7039 2.33926 29.2851 1.75801 30 1.75801C30.7148 1.75801 31.296 2.33926 31.296 3.0541C31.296 3.76895 30.7148 4.35019 30 4.35019C29.2851 4.35019 28.7039 3.76895 28.7039 3.0541ZM16.3699 9.50645C15.655 9.50645 15.0738 8.9252 15.0738 8.21035C15.0738 7.49551 15.655 6.91426 16.3699 6.91426C17.0847 6.91426 17.666 7.49551 17.666 8.21035C17.666 8.9252 17.0847 9.50645 16.3699 9.50645ZM9.07144 19.8857C8.35659 19.8857 7.77534 19.3045 7.77534 18.5896C7.77534 17.8748 8.35659 17.2936 9.07144 17.2936C9.78628 17.2936 10.3675 17.8748 10.3675 18.5896C10.3675 19.3045 9.78628 19.8857 9.07144 19.8857ZM3.05269 28.1393C2.33784 28.1393 1.75659 27.558 1.75659 26.8432C1.75659 26.1283 2.33784 25.5471 3.05269 25.5471C3.76753 25.5471 4.34878 26.1283 4.34878 26.8432C4.34878 27.558 3.76753 28.1393 3.05269 28.1393ZM16.3699 49.0607C15.655 49.0607 15.0738 48.4795 15.0738 47.7646C15.0738 47.0498 15.655 46.4686 16.3699 46.4686C17.0847 46.4686 17.666 47.0498 17.666 47.7646C17.666 48.4795 17.0847 49.0607 16.3699 49.0607ZM31.2949 51.824C31.2949 52.5389 30.7136 53.1201 29.9988 53.1201C29.2839 53.1201 28.7027 52.5389 28.7027 51.824C28.7027 51.1092 29.2839 50.5279 29.9988 50.5279C30.7136 50.5279 31.2949 51.1092 31.2949 51.824ZM43.6289 46.4686C44.3437 46.4686 44.9249 47.0498 44.9249 47.7646C44.9249 48.4795 44.3437 49.0607 43.6289 49.0607C42.914 49.0607 42.3328 48.4795 42.3328 47.7646C42.3328 47.0498 42.914 46.4686 43.6289 46.4686ZM40.9652 28.5822C40.1578 28.5822 39.5003 29.2396 39.5003 30.0471V33.6342H37.8433V26.2936C37.8433 25.1627 36.9234 24.2428 35.7925 24.2428H29.0625C28.5773 24.2428 28.1835 24.6365 28.1835 25.1217C28.1835 25.6068 28.5773 26.0006 29.0625 26.0006H35.7925C35.9542 26.0006 36.0855 26.1318 36.0855 26.2936V37.8787C36.0855 38.0404 35.9542 38.1717 35.7925 38.1717H24.2074C24.0457 38.1717 23.9144 38.0404 23.9144 37.8787V26.2936C23.9144 26.1318 24.0457 26.0006 24.2074 26.0006H24.9609C25.446 26.0006 25.8398 25.6068 25.8398 25.1217C25.8398 24.6365 25.446 24.2428 24.9609 24.2428H24.2074C23.0765 24.2428 22.1566 25.1627 22.1566 26.2936V33.6342H20.4996V32.0557C20.4996 31.6643 20.3472 31.2963 20.0707 31.0197L18.0621 29.0111C17.7855 28.7346 17.4175 28.5822 17.0261 28.5822H12.0375C12.0292 28.4627 12.0234 28.3443 12.0234 28.2271C12.0234 27.9201 12.0515 27.6189 12.1031 27.3248C12.1933 27.1865 12.2472 27.0213 12.2472 26.8443C12.2472 26.808 12.2437 26.7717 12.2402 26.7365C12.846 24.6799 14.6648 23.0803 16.8714 22.8506C17.2828 22.8072 17.6085 22.4838 17.6542 22.0725C17.9718 19.192 20.3988 17.0193 23.3015 17.0193C23.6894 17.0193 24.0691 17.0592 24.4417 17.1354C24.4605 17.14 24.4804 17.1436 24.4992 17.1471C24.9445 17.2432 25.3781 17.3908 25.7941 17.5947C26.0097 17.7002 26.2593 17.7131 26.4843 17.6299C26.7093 17.5467 26.891 17.3756 26.9871 17.1553C28.2632 14.2197 31.1554 12.3225 34.3546 12.3225C38.7832 12.3225 42.3855 15.9248 42.3855 20.3533C42.3855 20.8326 42.341 21.3225 42.2519 21.8088C42.2074 22.0525 42.2671 22.3033 42.4183 22.5002C42.5695 22.6971 42.7945 22.8213 43.0418 22.8424C45.2226 23.0311 47.0308 24.5381 47.7011 26.5256C47.6625 26.624 47.6414 26.7307 47.6414 26.8432C47.6414 27.101 47.7527 27.3318 47.9296 27.4936C47.9636 27.7338 47.9812 27.9787 47.9812 28.2271C47.9812 28.3479 47.9753 28.4686 47.9671 28.5881C47.9226 28.5846 47.8781 28.5811 47.8335 28.5811H40.9699L40.9652 28.5822ZM56.946 28.1393C56.2312 28.1393 55.65 27.558 55.65 26.8432C55.65 26.1283 56.2312 25.5471 56.946 25.5471C57.6609 25.5471 58.2421 26.1283 58.2421 26.8432C58.2421 27.558 57.6609 28.1393 56.946 28.1393Z" fill="url(#paint7_linear_390_5782)"/>
</g>
<defs>
<linearGradient id="paint0_linear_390_5782" x1="26.0403" y1="32.0842" x2="33.9586" y2="32.0842" gradientUnits="userSpaceOnUse">
<stop stop-color="#223962"/>
<stop offset="0.526042" stop-color="#3277BC"/>
<stop offset="0.973958" stop-color="#48ABDF"/>
</linearGradient>
<linearGradient id="paint1_linear_390_5782" x1="42.7148" y1="33.3145" x2="48.0891" y2="33.3145" gradientUnits="userSpaceOnUse">
<stop stop-color="#223962"/>
<stop offset="0.526042" stop-color="#3277BC"/>
<stop offset="0.973958" stop-color="#48ABDF"/>
</linearGradient>
<linearGradient id="paint2_linear_390_5782" x1="42.7148" y1="36.248" x2="48.0891" y2="36.248" gradientUnits="userSpaceOnUse">
<stop stop-color="#223962"/>
<stop offset="0.526042" stop-color="#3277BC"/>
<stop offset="0.973958" stop-color="#48ABDF"/>
</linearGradient>
<linearGradient id="paint3_linear_390_5782" x1="42.7148" y1="39.1816" x2="46.2023" y2="39.1816" gradientUnits="userSpaceOnUse">
<stop stop-color="#223962"/>
<stop offset="0.526042" stop-color="#3277BC"/>
<stop offset="0.973958" stop-color="#48ABDF"/>
</linearGradient>
<linearGradient id="paint4_linear_390_5782" x1="11.9109" y1="33.3145" x2="17.2851" y2="33.3145" gradientUnits="userSpaceOnUse">
<stop stop-color="#223962"/>
<stop offset="0.526042" stop-color="#3277BC"/>
<stop offset="0.973958" stop-color="#48ABDF"/>
</linearGradient>
<linearGradient id="paint5_linear_390_5782" x1="11.9109" y1="36.248" x2="17.2851" y2="36.248" gradientUnits="userSpaceOnUse">
<stop stop-color="#223962"/>
<stop offset="0.526042" stop-color="#3277BC"/>
<stop offset="0.973958" stop-color="#48ABDF"/>
</linearGradient>
<linearGradient id="paint6_linear_390_5782" x1="11.9109" y1="39.1816" x2="15.3984" y2="39.1816" gradientUnits="userSpaceOnUse">
<stop stop-color="#223962"/>
<stop offset="0.526042" stop-color="#3277BC"/>
<stop offset="0.973958" stop-color="#48ABDF"/>
</linearGradient>
<linearGradient id="paint7_linear_390_5782" x1="-0.00122093" y1="27.4385" x2="59.9976" y2="27.4385" gradientUnits="userSpaceOnUse">
<stop stop-color="#223962"/>
<stop offset="0.526042" stop-color="#3277BC"/>
<stop offset="0.973958" stop-color="#48ABDF"/>
</linearGradient>
<clipPath id="clip0_390_5782">
<rect width="60" height="54.8766" fill="white"/>
</clipPath>
</defs>
</svg>
