<svg width="53" height="60" viewBox="0 0 53 60" fill="none" xmlns="http://www.w3.org/2000/svg">
<g clip-path="url(#clip0_390_5672)">
<path d="M27.3433 28.2752C28.3605 27.258 28.991 25.8541 28.991 24.3049C28.991 21.2088 26.4726 18.6904 23.3765 18.6904C20.2804 18.6904 17.7621 21.2088 17.7621 24.3049C17.7621 25.8541 18.3926 27.258 19.4097 28.2752C16.8515 28.7979 14.9203 31.0654 14.9203 33.776V37.0912C14.9203 37.5764 15.314 37.9701 15.7992 37.9701H30.9527C31.4379 37.9701 31.8316 37.5764 31.8316 37.0912V33.776C31.8316 31.0654 29.9004 28.7979 27.3422 28.2752H27.3433ZM23.3765 20.4494C25.5035 20.4494 27.2332 22.1791 27.2332 24.3061C27.2332 26.433 25.5035 28.1627 23.3765 28.1627C21.2496 28.1627 19.5199 26.433 19.5199 24.3061C19.5199 22.1791 21.2496 20.4494 23.3765 20.4494ZM30.075 36.2123H28.0441V34.9607C28.0441 34.4756 27.6504 34.0818 27.1652 34.0818C26.6801 34.0818 26.2863 34.4756 26.2863 34.9607V36.2123H20.4679V34.9607C20.4679 34.4756 20.0742 34.0818 19.589 34.0818C19.1039 34.0818 18.7101 34.4756 18.7101 34.9607V36.2123H16.6793V33.776C16.6793 31.649 18.409 29.9193 20.5359 29.9193H26.2183C28.3453 29.9193 30.075 31.649 30.075 33.776V36.2123Z" fill="url(#paint0_linear_390_5672)"/>
<path d="M51.3984 48.2014C51.3984 48.2014 51.4078 48.2014 51.4125 48.2014C51.8977 48.1943 52.2855 47.7947 52.2773 47.3084C52.2305 44.2979 51.0223 41.4748 48.8766 39.3584C48.0879 38.5803 47.2043 37.9322 46.2527 37.4213C46.5785 35.7396 46.7438 34.0229 46.7438 32.3084L46.7473 17.6389C46.7473 17.1537 46.3535 16.76 45.8684 16.76C45.3832 16.76 44.9895 17.1537 44.9895 17.6389L44.9859 32.3084C44.9859 33.7791 44.8547 35.251 44.598 36.6982C43.9582 36.4779 43.2973 36.3139 42.6223 36.2096C42.8426 34.9264 42.9551 33.6186 42.9551 32.3084L42.9598 11.7643C42.9598 11.3553 42.6773 11.0002 42.2789 10.9076C39.1008 10.174 36.573 7.64746 35.8395 4.46934C35.748 4.0709 35.3918 3.78848 34.9828 3.78848H11.7703C11.3613 3.78848 11.0062 4.0709 10.9137 4.46934C10.1801 7.64746 7.65234 10.174 4.47422 10.9076C4.07578 11.0002 3.79336 11.3553 3.79336 11.7643L3.78984 27.9361C3.78984 28.4213 4.18359 28.815 4.66875 28.815C5.15391 28.815 5.54766 28.4213 5.54766 27.9361L5.55117 12.4381C8.83242 11.4373 11.4434 8.82637 12.4453 5.54512H34.3102C35.3121 8.8252 37.9219 11.4361 41.2031 12.4369L41.1984 32.3072C41.1984 33.5729 41.0848 34.8361 40.8621 36.0736C39.4418 36.0736 38.0824 36.3361 36.8262 36.8119C37.8715 34.7611 38.4621 32.4408 38.4621 29.9846C38.4621 21.6666 31.6945 14.899 23.3766 14.899C15.0586 14.899 8.29102 21.6666 8.29102 29.9846C8.29102 38.3025 15.0586 45.0701 23.3766 45.0701C25.8281 45.0701 28.1438 44.4818 30.1922 43.44C29.7129 44.6986 29.4504 46.0627 29.4504 47.4877C29.4504 48.7439 29.6555 49.9533 30.0316 51.0854C29.8418 51.1885 29.6508 51.2893 29.4609 51.3854L23.5066 54.3947C23.4211 54.4381 23.3227 54.4381 23.2348 54.3924L17.284 51.3854C13.752 49.6018 10.7883 46.8772 8.71523 43.5068C6.64219 40.1354 5.54648 36.2623 5.54648 32.3061V32.0354C5.54648 31.5502 5.15273 31.1564 4.66758 31.1564C4.18242 31.1564 3.78867 31.5502 3.78867 32.0354V32.3061C3.78867 36.5869 4.97461 40.7787 7.21758 44.4268C9.46172 48.0736 12.668 51.0221 16.4906 52.9533L22.4391 55.9592C22.732 56.108 23.0531 56.1818 23.373 56.1818C23.693 56.1818 24.0117 56.108 24.3023 55.9592L30.2531 52.9521C30.4078 52.8736 30.5637 52.7928 30.7184 52.7096C31.0312 53.3166 31.398 53.8908 31.8117 54.4287C31.5984 54.5447 31.384 54.6572 31.1695 54.765L25.1121 57.826C24.0234 58.3756 22.7215 58.3756 21.6328 57.826L15.5754 54.765C11.4176 52.6639 7.93008 49.4564 5.48906 45.4885C3.04805 41.5205 1.75898 36.9619 1.75898 32.3037L1.76367 9.39707C1.76367 9.22949 1.90078 9.09238 2.06836 9.09238H2.5418C6.16055 9.09238 9.10312 6.14863 9.10312 2.53105V2.05762C9.10312 1.89004 9.24023 1.75293 9.40781 1.75293H37.3465C37.5141 1.75293 37.6512 1.89004 37.6512 2.05762V2.53105C37.6512 6.1498 40.5949 9.09238 44.2125 9.09238H44.6859C44.8535 9.09238 44.9906 9.22949 44.9906 9.39707V13.5326C44.9895 14.0178 45.3832 14.4115 45.8684 14.4115C46.3535 14.4115 46.7473 14.0178 46.7473 13.5326V9.39707C46.7484 8.25918 45.8227 7.33457 44.6859 7.33457H44.2125C41.5641 7.33457 39.409 5.17949 39.409 2.53105V2.05762C39.409 0.920898 38.4844 -0.00488281 37.3465 -0.00488281H9.40781C8.26992 -0.00488281 7.34531 0.920898 7.34531 2.05762V2.53105C7.34531 5.17949 5.19023 7.33457 2.5418 7.33457H2.06836C0.930469 7.33926 0.0046875 8.26504 0.0046875 9.40176L0 32.3084C0 37.2912 1.38047 42.1686 3.99141 46.4143C6.60234 50.6588 10.3336 54.0912 14.782 56.3389L20.8406 59.3998C21.634 59.7994 22.5023 59.9986 23.3719 59.9986C24.2414 59.9986 25.1109 59.7982 25.9043 59.3986L31.9617 56.3377C32.3156 56.1596 32.6695 55.9697 33.0199 55.7729C35.0672 57.7135 37.8305 58.9053 40.8668 58.9053C43.2059 58.9053 45.4535 58.2021 47.3684 56.8732C49.2387 55.5748 50.666 53.7725 51.4945 51.6619C51.6715 51.2096 51.45 50.6998 50.9977 50.5229C50.5453 50.3447 50.0355 50.5674 49.8586 51.0197C49.1566 52.8057 47.9496 54.3303 46.3664 55.4295C44.7469 56.5533 42.8461 57.1475 40.8668 57.1475C35.5418 57.1475 31.2094 52.815 31.2094 47.49C31.2094 42.165 35.5418 37.8338 40.8668 37.8338C43.4191 37.8338 45.8262 38.8205 47.6437 40.6123C49.4602 42.4018 50.482 44.79 50.5207 47.3365C50.5277 47.817 50.9203 48.2014 51.3996 48.2014H51.3984ZM23.3766 43.3146C16.0277 43.3146 10.0488 37.3357 10.0488 29.9869C10.0488 22.6381 16.0277 16.6592 23.3766 16.6592C30.7254 16.6592 36.7043 22.6381 36.7043 29.9869C36.7043 37.3357 30.7254 43.3135 23.3766 43.3135V43.3146Z" fill="url(#paint1_linear_390_5672)"/>
<path d="M39.948 46.869C39.6047 46.5257 39.048 46.5257 38.7047 46.869C38.3613 47.2124 38.3613 47.769 38.7047 48.1124L39.7312 49.1378C39.9035 49.3089 40.1273 49.3956 40.3523 49.3956C40.5773 49.3956 40.8023 49.3101 40.9734 49.1378L43.0254 47.0858C43.3687 46.7425 43.3687 46.1858 43.0254 45.8425C42.682 45.4991 42.1254 45.4991 41.782 45.8425L40.3511 47.2733L39.9469 46.869H39.948Z" fill="url(#paint2_linear_390_5672)"/>
<path d="M34.3043 47.491C34.3043 51.1086 37.2481 54.0523 40.8656 54.0523C44.4832 54.0523 47.427 51.1086 47.427 47.491C47.427 43.8734 44.4832 40.9297 40.8656 40.9297C37.2481 40.9297 34.3043 43.8734 34.3043 47.491ZM45.6692 47.491C45.6692 50.1395 43.5141 52.2945 40.8656 52.2945C38.2172 52.2945 36.0621 50.1395 36.0621 47.491C36.0621 44.8426 38.2172 42.6875 40.8656 42.6875C43.5141 42.6875 45.6692 44.8426 45.6692 47.491Z" fill="url(#paint3_linear_390_5672)"/>
</g>
<defs>
<linearGradient id="paint0_linear_390_5672" x1="14.9203" y1="28.3303" x2="31.8316" y2="28.3303" gradientUnits="userSpaceOnUse">
<stop stop-color="#223962"/>
<stop offset="0.526042" stop-color="#3277BC"/>
<stop offset="0.973958" stop-color="#48ABDF"/>
</linearGradient>
<linearGradient id="paint1_linear_390_5672" x1="-1.94749e-07" y1="29.9969" x2="52.2775" y2="29.9969" gradientUnits="userSpaceOnUse">
<stop stop-color="#223962"/>
<stop offset="0.526042" stop-color="#3277BC"/>
<stop offset="0.973958" stop-color="#48ABDF"/>
</linearGradient>
<linearGradient id="paint2_linear_390_5672" x1="38.4471" y1="47.4903" x2="43.2829" y2="47.4903" gradientUnits="userSpaceOnUse">
<stop stop-color="#223962"/>
<stop offset="0.526042" stop-color="#3277BC"/>
<stop offset="0.973958" stop-color="#48ABDF"/>
</linearGradient>
<linearGradient id="paint3_linear_390_5672" x1="34.3043" y1="47.491" x2="47.427" y2="47.491" gradientUnits="userSpaceOnUse">
<stop stop-color="#223962"/>
<stop offset="0.526042" stop-color="#3277BC"/>
<stop offset="0.973958" stop-color="#48ABDF"/>
</linearGradient>
<clipPath id="clip0_390_5672">
<rect width="52.2785" height="60" fill="white"/>
</clipPath>
</defs>
</svg>
