<svg width="60" height="60" viewBox="0 0 60 60" fill="none" xmlns="http://www.w3.org/2000/svg">
<g clip-path="url(#clip0_390_5415)">
<path d="M51.1208 4.91003V1.80457C51.1208 0.813159 50.3145 0.00690925 49.3231 0.00690925H44.4036C43.7801 0.00690925 43.2293 0.322144 42.9 0.800269C34.9079 -1.34895 26.4118 0.896362 20.5454 6.76277C11.7411 15.5671 11.5325 29.7362 19.929 38.7925L18.1782 40.4975L17.127 39.4464C16.2364 38.5557 14.7868 38.5557 13.8961 39.4464C10.8926 42.451 3.67622 49.6663 0.997315 52.3452C-0.332764 53.6753 -0.332764 55.8386 0.997315 57.1686L2.87349 59.0448C4.14731 60.3186 6.21919 60.3186 7.49302 59.0448C7.76958 58.7682 19.3043 47.2335 20.4938 46.044C21.3844 45.1534 21.3844 43.7038 20.4938 42.8132L19.4204 41.7397L21.1711 40.0358C25.0278 43.6124 30.0012 45.7698 35.2735 46.1354C35.2946 46.1366 35.3145 46.1378 35.3356 46.1378C35.7926 46.1378 36.1793 45.7827 36.211 45.3198C36.245 44.8358 35.8793 44.4163 35.3954 44.3823C24.4313 43.6241 15.5473 34.5538 15.5473 23.0987C15.5473 8.96472 28.9887 -1.21536 42.5801 2.53347V4.79285C30.211 0.945581 17.6907 10.2561 17.6907 23.1233C17.6907 33.6725 26.2524 42.3151 36.8825 42.3151C45.9258 42.3151 50.6989 36.3421 50.8817 36.2507C50.8817 36.2507 50.884 36.2471 50.884 36.2483C50.8911 36.2413 50.8969 36.2343 50.904 36.2261C54.2379 32.6589 56.0743 28.0077 56.0743 23.1233C56.0743 18.2389 54.3176 13.7905 51.1208 10.2561V7.19636C55.6032 11.2077 58.2176 16.9007 58.2176 23.0987C58.2176 34.0018 50.0825 43.0604 39.3352 44.2932C38.8536 44.3483 38.5067 44.7843 38.5629 45.2659C38.618 45.7475 39.0528 46.0944 39.5356 46.0382C51.1641 44.7046 59.9754 34.9065 59.9754 23.0987C59.9754 15.887 56.7024 9.28347 51.1219 4.91003H51.1208ZM6.25083 57.8014C5.66255 58.3897 4.70513 58.3897 4.11685 57.8014L2.24067 55.9253C1.59614 55.2807 1.59614 54.2319 2.24067 53.5862L9.00942 46.8175L13.1227 50.9307L6.252 57.8014H6.25083ZM14.3637 49.6886L10.2504 45.5753L11.4938 44.3319L15.6071 48.4452L14.3637 49.6886ZM19.2516 44.8007L16.8504 47.2018L12.7372 43.0886L15.1383 40.6874C15.3422 40.4835 15.6797 40.4835 15.8836 40.6874L19.2504 44.0542C19.4543 44.2581 19.4543 44.5956 19.2504 44.7995L19.2516 44.8007ZM29.011 38.6776C27.109 37.7108 25.4063 36.4065 23.9836 34.8432V21.8178C23.9836 21.7803 24.0141 21.751 24.0504 21.751H29.011V38.6788V38.6776ZM35.795 40.5221C34.0723 40.4167 32.3918 40.0593 30.7688 39.451V15.1557C30.7688 15.1194 30.7993 15.0889 30.8356 15.0889H35.7961V40.5233L35.795 40.5221ZM35.795 8.49246V13.3311H30.8344C29.829 13.3311 29.011 14.1491 29.011 15.1546V19.9932H24.0504C23.045 19.9932 22.227 20.8112 22.227 21.8178V32.5593C14.7657 21.0128 23.1036 5.68816 36.8813 5.68816C38.836 5.68816 40.7497 6.00925 42.579 6.64207V6.66785H37.6184C36.6129 6.66785 35.7938 7.48582 35.7938 8.49246H35.795ZM42.579 39.6034C40.9219 40.1764 39.2168 40.4846 37.5516 40.5444V8.49246C37.5516 8.45613 37.5821 8.42566 37.6184 8.42566H42.579V39.6034ZM54.3165 23.1233C54.3165 26.762 53.1938 30.2577 51.1208 33.185V25.0956C51.1208 24.6104 50.727 24.2167 50.2418 24.2167C49.7567 24.2167 49.3629 24.6104 49.3629 25.0956V35.2932C47.9086 36.7862 46.1872 38.0061 44.3368 38.885V1.83035C44.3368 1.79402 44.3672 1.76355 44.4036 1.76355H49.3231C49.3454 1.76355 49.3641 1.7823 49.3641 1.80457V20.9964C49.3641 21.4815 49.7579 21.8753 50.243 21.8753C50.7282 21.8753 51.1219 21.4815 51.1219 20.9964V13.0616C53.1961 15.9889 54.3176 19.4858 54.3176 23.1233H54.3165Z" fill="url(#paint0_linear_390_5415)"/>
</g>
<defs>
<linearGradient id="paint0_linear_390_5415" x1="-0.000244364" y1="30.0002" x2="59.9754" y2="30.0002" gradientUnits="userSpaceOnUse">
<stop stop-color="#223962"/>
<stop offset="0.526042" stop-color="#3277BC"/>
<stop offset="0.973958" stop-color="#48ABDF"/>
</linearGradient>
<clipPath id="clip0_390_5415">
<rect width="59.9742" height="60" fill="white"/>
</clipPath>
</defs>
</svg>
