<svg width="48" height="60" viewBox="0 0 48 60" fill="none" xmlns="http://www.w3.org/2000/svg">
<g clip-path="url(#clip0_390_5112)">
<path d="M10.5316 58.2422H1.75781V1.75781H41.9684V5.625C41.9684 6.11016 42.3621 6.50391 42.8473 6.50391C43.3324 6.50391 43.7262 6.11016 43.7262 5.625V1.46484C43.7262 0.657422 43.0688 0 42.2613 0H1.46484C0.657422 0 0 0.657422 0 1.46484V58.5352C0 59.3426 0.657422 60 1.46484 60H10.5316C11.0168 60 11.4105 59.6062 11.4105 59.1211C11.4105 58.6359 11.0168 58.2422 10.5316 58.2422Z" fill="url(#paint0_linear_390_5112)"/>
<path d="M6.3773 25.5338C6.40308 25.8642 6.44058 26.1982 6.4898 26.5252C6.55543 26.9611 6.93043 27.2728 7.35816 27.2728C7.40152 27.2728 7.44605 27.2693 7.49058 27.2623C7.97105 27.1896 8.30035 26.742 8.22887 26.2627C8.18551 25.9767 8.15269 25.6861 8.13043 25.3978C8.09293 24.9139 7.67457 24.5506 7.1859 24.5892C6.70191 24.6267 6.3398 25.0498 6.3773 25.5338Z" fill="url(#paint1_linear_390_5112)"/>
<path d="M8.10006 19.6748C8.22311 19.7334 8.35201 19.7615 8.47975 19.7615C8.8067 19.7615 9.12076 19.5776 9.27311 19.2635C9.3985 19.0033 9.53443 18.7444 9.67857 18.4924C9.91998 18.0717 9.77467 17.5338 9.35397 17.2924C8.93326 17.051 8.39537 17.1963 8.15397 17.6182C7.98873 17.9065 7.8317 18.2041 7.68873 18.5018C7.47897 18.9389 7.66295 19.4639 8.10006 19.6748Z" fill="url(#paint2_linear_390_5112)"/>
<path d="M7.70276 30.4442C7.85393 30.7582 8.16799 30.941 8.49494 30.941C8.62385 30.941 8.75393 30.9129 8.87698 30.8531C9.31409 30.6422 9.4969 30.116 9.28596 29.6789C9.16057 29.4188 9.04221 29.1504 8.93674 28.8832C8.75745 28.4321 8.24651 28.2117 7.79534 28.3899C7.34416 28.5692 7.12385 29.0801 7.30198 29.5313C7.42385 29.8383 7.55862 30.1453 7.70276 30.4442Z" fill="url(#paint3_linear_390_5112)"/>
<path d="M6.66802 21.4452C6.59536 21.7698 6.53442 22.0991 6.48638 22.426C6.41489 22.9065 6.74653 23.353 7.227 23.4245C7.27036 23.4303 7.31372 23.4338 7.35708 23.4338C7.78481 23.4338 8.16099 23.1198 8.22544 22.6838C8.26763 22.3991 8.32153 22.1108 8.38364 21.8284C8.48911 21.3549 8.19028 20.885 7.71685 20.7795C7.24341 20.6741 6.77349 20.9717 6.66802 21.4463V21.4452Z" fill="url(#paint4_linear_390_5112)"/>
<path d="M17.9965 10.8552C17.6684 10.9056 17.3379 10.9688 17.0157 11.0427C16.5422 11.1505 16.2469 11.6227 16.3547 12.0962C16.4485 12.5028 16.8106 12.7794 17.2102 12.7794C17.2746 12.7794 17.3414 12.7724 17.4071 12.7571C17.6883 12.6927 17.9754 12.6376 18.2614 12.5942C18.7407 12.5204 19.07 12.0716 18.9961 11.5923C18.9223 11.113 18.4746 10.7837 17.9942 10.8575L17.9965 10.8552Z" fill="url(#paint5_linear_390_5112)"/>
<path d="M17.0473 37.8832C17.1129 37.8984 17.1785 37.9055 17.2418 37.9055C17.6437 37.9055 18.0059 37.6289 18.0984 37.2211C18.2062 36.7476 17.9086 36.2766 17.4352 36.1699C17.1527 36.1055 16.8703 36.0305 16.5949 35.9473C16.1297 35.8055 15.6398 36.0668 15.498 36.532C15.3562 36.9961 15.6176 37.4871 16.0828 37.6289C16.3992 37.7262 16.7238 37.8117 17.0473 37.8855V37.8832Z" fill="url(#paint6_linear_390_5112)"/>
<path d="M21.1043 10.7309C20.6227 10.6957 20.1996 11.0602 20.1645 11.5441C20.1293 12.0281 20.4937 12.4488 20.9777 12.484C21.266 12.5051 21.5578 12.5367 21.8437 12.5777C21.8859 12.5836 21.9293 12.5871 21.9715 12.5871C22.4004 12.5871 22.7766 12.2719 22.8398 11.8348C22.9102 11.3543 22.5773 10.9078 22.0957 10.8387C21.7687 10.7906 21.4348 10.7543 21.1043 10.7309Z" fill="url(#paint7_linear_390_5112)"/>
<path d="M14.0789 12.0783C13.7812 12.2236 13.4859 12.3806 13.1988 12.547C12.7793 12.7908 12.6363 13.3287 12.88 13.7482C13.0429 14.0295 13.3382 14.1865 13.6406 14.1865C13.7906 14.1865 13.9418 14.1478 14.0812 14.067C14.3308 13.9217 14.5898 13.7845 14.8488 13.658C15.2847 13.4447 15.4664 12.9197 15.2543 12.4826C15.041 12.0455 14.516 11.865 14.0789 12.0771V12.0783Z" fill="url(#paint8_linear_390_5112)"/>
<path d="M13.2258 36.3856C13.364 36.4653 13.5152 36.5039 13.664 36.5039C13.9676 36.5039 14.2629 36.3457 14.4258 36.0645C14.6683 35.6438 14.5242 35.1071 14.1047 34.8633C13.8539 34.718 13.6054 34.5633 13.3664 34.4004C12.9644 34.1274 12.4183 34.2328 12.1453 34.6336C11.8722 35.0356 11.9777 35.5817 12.3785 35.8547C12.6527 36.041 12.9375 36.2192 13.2246 36.3856H13.2258Z" fill="url(#paint9_linear_390_5112)"/>
<path d="M20.1399 38.2229C20.4715 38.2229 20.8067 38.2088 21.136 38.1842C21.6199 38.1479 21.9832 37.7272 21.9469 37.242C21.9106 36.758 21.4899 36.3959 21.0047 36.4311C20.7176 36.4522 20.4246 36.4639 20.134 36.4651C19.6489 36.4662 19.2563 36.8611 19.2574 37.3463C19.2586 37.8315 19.6524 38.2229 20.1364 38.2229H20.1387H20.1399Z" fill="url(#paint10_linear_390_5112)"/>
<path d="M29.5067 31.9218C29.2044 32.3015 29.2676 32.8546 29.6473 33.1569C29.809 33.2859 30.0024 33.348 30.1934 33.348C30.4524 33.348 30.7079 33.2343 30.8825 33.0163C31.0887 32.7573 31.2879 32.4866 31.4754 32.2124C31.7497 31.8116 31.6465 31.2644 31.2458 30.9913C30.845 30.7183 30.2977 30.8202 30.0247 31.2222C29.8618 31.4612 29.6872 31.6968 29.5079 31.923L29.5067 31.9218Z" fill="url(#paint11_linear_390_5112)"/>
<path d="M31.459 16.6826C31.1848 16.283 30.6375 16.1799 30.2367 16.4553C29.836 16.7295 29.734 17.2767 30.0094 17.6775C30.1735 17.9166 30.3293 18.1638 30.4758 18.4123C30.6387 18.6924 30.9328 18.8482 31.2352 18.8482C31.3852 18.8482 31.5387 18.8096 31.6782 18.7287C32.0977 18.4838 32.2383 17.9459 31.9934 17.5263C31.827 17.2416 31.6477 16.958 31.459 16.6838V16.6826Z" fill="url(#paint12_linear_390_5112)"/>
<path d="M31.5704 20.8959C31.6559 21.1713 31.7321 21.4537 31.7977 21.7362C31.8915 22.1428 32.2536 22.417 32.6532 22.417C32.7188 22.417 32.7856 22.41 32.8524 22.3936C33.3247 22.2834 33.62 21.8112 33.5098 21.3389C33.4348 21.0155 33.3469 20.6908 33.2485 20.3756C33.1043 19.9115 32.6122 19.6526 32.1481 19.7967C31.6852 19.9408 31.425 20.433 31.5692 20.8971L31.5704 20.8959Z" fill="url(#paint13_linear_390_5112)"/>
<path d="M32.1093 30.0189C32.4609 30.0189 32.7925 29.8068 32.9285 29.4588C33.0492 29.1494 33.1593 28.8318 33.2578 28.5154C33.4007 28.0513 33.1406 27.5591 32.6765 27.4162C32.2125 27.2732 31.7203 27.5334 31.5773 27.9974C31.4929 28.2728 31.3957 28.5505 31.2902 28.8201C31.1144 29.2724 31.3371 29.7822 31.7906 29.958C31.8949 29.999 32.0027 30.0177 32.1093 30.0177V30.0189Z" fill="url(#paint14_linear_390_5112)"/>
<path d="M11.2887 16.3045C11.4856 16.0924 11.6918 15.885 11.9028 15.6869C12.2579 15.3553 12.2766 14.7986 11.945 14.4447C11.6133 14.0908 11.0579 14.0709 10.7028 14.4025C10.4614 14.6287 10.2235 14.8666 9.99848 15.1103C9.66918 15.4666 9.69028 16.0232 10.0465 16.3525C10.2153 16.5096 10.4297 16.5869 10.643 16.5869C10.8797 16.5869 11.1153 16.492 11.2887 16.3045Z" fill="url(#paint15_linear_390_5112)"/>
<path d="M10.7356 31.9733C10.4321 31.5948 9.87779 31.5351 9.50045 31.8386C9.12193 32.1433 9.06217 32.6964 9.36568 33.0737C9.57311 33.3316 9.79225 33.5859 10.0184 33.8284C10.1919 34.0148 10.4262 34.1085 10.6618 34.1085C10.8762 34.1085 11.0907 34.0312 11.2594 33.873C11.6145 33.5425 11.6356 32.9859 11.3051 32.6308C11.1083 32.4187 10.9161 32.1972 10.7356 31.9722V31.9733Z" fill="url(#paint16_linear_390_5112)"/>
<path d="M33.8296 25.4554C33.8531 25.1261 33.8648 24.7909 33.8648 24.4593V24.4312C33.8648 23.946 33.471 23.5522 32.9859 23.5522C32.5007 23.5522 32.107 23.946 32.107 24.4312V24.4593C32.107 24.7499 32.0964 25.0417 32.0753 25.33C32.0402 25.814 32.4046 26.2347 32.8886 26.2698C32.9097 26.271 32.9308 26.2722 32.9519 26.2722C33.4089 26.2722 33.7945 25.9183 33.8273 25.4554H33.8296Z" fill="url(#paint17_linear_390_5112)"/>
<path d="M23.6718 35.9262C23.2089 36.0703 22.95 36.5625 23.0929 37.0266C23.2101 37.4027 23.557 37.6453 23.932 37.6453C24.0187 37.6453 24.1066 37.6324 24.1933 37.6055C24.5097 37.507 24.8261 37.3957 25.1355 37.2738C25.5867 37.0957 25.8093 36.5859 25.6312 36.1348C25.4531 35.6836 24.9433 35.4609 24.4921 35.6391C24.2226 35.7445 23.9472 35.8418 23.6718 35.9273V35.9262Z" fill="url(#paint18_linear_390_5112)"/>
<path d="M46.8293 26.0906C46.3523 25.9969 45.8906 26.3074 45.798 26.7844C44.6977 32.3941 39.743 36.4664 34.0172 36.4664C32.1047 36.4664 30.2953 36.0164 28.6887 35.2172C29.0648 34.9137 29.1258 34.3629 28.8234 33.9844C28.5211 33.6047 27.968 33.5438 27.5883 33.8461C27.4184 33.982 27.2414 34.1133 27.0633 34.2398C25.4297 33.075 24.0973 31.5117 23.2125 29.693C25.9066 28.9652 28.3008 27.3094 29.9309 24.9621C30.1406 24.6609 30.1406 24.2602 29.9309 23.959C28.2996 21.6117 25.9066 19.9547 23.2125 19.227C24.1313 17.3367 25.5328 15.7219 27.2555 14.5441C27.2953 14.7398 27.4008 14.9238 27.5695 15.0586C27.7957 15.2391 28.0184 15.4289 28.2305 15.6246C28.3992 15.7805 28.6125 15.8566 28.8258 15.8566C29.0625 15.8566 29.2992 15.7617 29.4727 15.573C29.802 15.2156 29.7785 14.6602 29.4211 14.3309C29.1855 14.1141 28.9383 13.9031 28.6875 13.7016C30.2941 12.9023 32.1035 12.4523 34.016 12.4523C40.0617 12.4523 45.184 16.9699 45.9293 22.9594C45.9891 23.441 46.4309 23.7832 46.9102 23.7234C47.3918 23.6637 47.734 23.2242 47.6742 22.7426C47.2828 19.5984 45.8402 16.8082 43.725 14.707V9.72656C43.725 9.24141 43.3312 8.84766 42.8461 8.84766C42.3609 8.84766 41.9672 9.24141 41.9672 9.72656V13.2281C39.709 11.6285 36.9586 10.6945 34.016 10.6945C31.2516 10.6945 28.6758 11.5148 26.5172 12.9246C26.5594 12.5625 26.3707 12.1969 26.0227 12.0316C25.7227 11.8887 25.4145 11.7551 25.1063 11.6344C24.6539 11.4574 24.1441 11.6813 23.9684 12.1336C23.7914 12.5859 24.0152 13.0957 24.4676 13.2727C24.7359 13.3781 25.0055 13.4941 25.2668 13.6195C25.3313 13.65 25.398 13.6723 25.466 13.6863C23.7352 15.0633 22.3418 16.8457 21.4324 18.8906C20.993 18.8414 20.5477 18.8145 20.1 18.8145C16.1824 18.8145 12.5074 20.7375 10.2691 23.959C10.0594 24.2602 10.0594 24.6609 10.2691 24.9621C12.5074 28.1836 16.1824 30.1066 20.1 30.1066C20.5477 30.1066 20.9918 30.0809 21.4324 30.0305C23.5758 34.8527 28.4086 38.2242 34.016 38.2242C36.948 38.2242 39.7031 37.2926 41.9672 35.6883V58.2434H14.6332C14.148 58.2434 13.7543 58.6371 13.7543 59.1223C13.7543 59.6074 14.148 60.0012 14.6332 60.0012H42.2625C43.0699 60.0012 43.7273 59.3438 43.7273 58.5363V34.2105C45.6223 32.3273 46.9816 29.8887 47.5242 27.1242C47.618 26.6484 47.3074 26.1855 46.8305 26.093L46.8293 26.0906ZM12.0855 24.4594C13.5082 22.6559 15.4863 21.3996 17.6824 20.8629C16.527 21.6422 15.7652 22.9641 15.7652 24.4594C15.7652 25.9547 16.527 27.2766 17.6824 28.0559C15.4863 27.5191 13.5082 26.2617 12.0855 24.4594ZM20.1012 27.0375C18.6797 27.0375 17.523 25.8809 17.523 24.4594C17.523 23.0379 18.6797 21.8813 20.1012 21.8813C21.5227 21.8813 22.6781 23.0379 22.6781 24.4594C22.6781 25.8809 21.5215 27.0375 20.1012 27.0375ZM24.4359 24.4594C24.4359 22.9641 23.6742 21.6422 22.5188 20.8629C24.7148 21.3996 26.693 22.657 28.1156 24.4594C26.693 26.2617 24.7148 27.5191 22.5188 28.0559C23.6742 27.2766 24.4359 25.9547 24.4359 24.4594Z" fill="url(#paint19_linear_390_5112)"/>
<path d="M30.4089 6.80615C30.4089 6.321 30.0152 5.92725 29.53 5.92725H14.196C13.7109 5.92725 13.3171 6.321 13.3171 6.80615C13.3171 7.29131 13.7109 7.68506 14.196 7.68506H29.53C30.0152 7.68506 30.4089 7.29131 30.4089 6.80615Z" fill="url(#paint20_linear_390_5112)"/>
<path d="M34.4039 44.0215C34.889 44.0215 35.2828 43.6277 35.2828 43.1426C35.2828 42.6574 34.889 42.2637 34.4039 42.2637H27.0551C26.5699 42.2637 26.1761 42.6574 26.1761 43.1426C26.1761 43.6277 26.5699 44.0215 27.0551 44.0215H34.4039Z" fill="url(#paint21_linear_390_5112)"/>
<path d="M8.44336 43.1426C8.44336 43.6277 8.83711 44.0215 9.32227 44.0215H24.007C24.4922 44.0215 24.8859 43.6277 24.8859 43.1426C24.8859 42.6574 24.4922 42.2637 24.007 42.2637H9.32227C8.83711 42.2637 8.44336 42.6574 8.44336 43.1426Z" fill="url(#paint22_linear_390_5112)"/>
<path d="M16.684 47.46C16.684 47.9451 17.0777 48.3389 17.5629 48.3389H34.4039C34.889 48.3389 35.2828 47.9451 35.2828 47.46C35.2828 46.9748 34.889 46.5811 34.4039 46.5811H17.5629C17.0777 46.5811 16.684 46.9748 16.684 47.46Z" fill="url(#paint23_linear_390_5112)"/>
<path d="M9.32227 48.3389H14.5148C15 48.3389 15.3937 47.9451 15.3937 47.46C15.3937 46.9748 15 46.5811 14.5148 46.5811H9.32227C8.83711 46.5811 8.44336 46.9748 8.44336 47.46C8.44336 47.9451 8.83711 48.3389 9.32227 48.3389Z" fill="url(#paint24_linear_390_5112)"/>
<path d="M9.32227 52.6558H34.4027C34.8879 52.6558 35.2816 52.262 35.2816 51.7769C35.2816 51.2917 34.8879 50.8979 34.4027 50.8979H9.32227C8.83711 50.8979 8.44336 51.2917 8.44336 51.7769C8.44336 52.262 8.83711 52.6558 9.32227 52.6558Z" fill="url(#paint25_linear_390_5112)"/>
</g>
<defs>
<linearGradient id="paint0_linear_390_5112" x1="-1.62893e-07" y1="30" x2="43.7262" y2="30" gradientUnits="userSpaceOnUse">
<stop stop-color="#223962"/>
<stop offset="0.526042" stop-color="#3277BC"/>
<stop offset="0.973958" stop-color="#48ABDF"/>
</linearGradient>
<linearGradient id="paint1_linear_390_5112" x1="6.37463" y1="25.9296" x2="8.23861" y2="25.9296" gradientUnits="userSpaceOnUse">
<stop stop-color="#223962"/>
<stop offset="0.526042" stop-color="#3277BC"/>
<stop offset="0.973958" stop-color="#48ABDF"/>
</linearGradient>
<linearGradient id="paint2_linear_390_5112" x1="7.60205" y1="18.4687" x2="9.79523" y2="18.4687" gradientUnits="userSpaceOnUse">
<stop stop-color="#223962"/>
<stop offset="0.526042" stop-color="#3277BC"/>
<stop offset="0.973958" stop-color="#48ABDF"/>
</linearGradient>
<linearGradient id="paint3_linear_390_5112" x1="7.24023" y1="29.6346" x2="9.3736" y2="29.6346" gradientUnits="userSpaceOnUse">
<stop stop-color="#223962"/>
<stop offset="0.526042" stop-color="#3277BC"/>
<stop offset="0.973958" stop-color="#48ABDF"/>
</linearGradient>
<linearGradient id="paint4_linear_390_5112" x1="6.47668" y1="22.0961" x2="8.40482" y2="22.0961" gradientUnits="userSpaceOnUse">
<stop stop-color="#223962"/>
<stop offset="0.526042" stop-color="#3277BC"/>
<stop offset="0.973958" stop-color="#48ABDF"/>
</linearGradient>
<linearGradient id="paint5_linear_390_5112" x1="16.3325" y1="11.8133" x2="19.0065" y2="11.8133" gradientUnits="userSpaceOnUse">
<stop stop-color="#223962"/>
<stop offset="0.526042" stop-color="#3277BC"/>
<stop offset="0.973958" stop-color="#48ABDF"/>
</linearGradient>
<linearGradient id="paint6_linear_390_5112" x1="15.4595" y1="36.9071" x2="18.1205" y2="36.9071" gradientUnits="userSpaceOnUse">
<stop stop-color="#223962"/>
<stop offset="0.526042" stop-color="#3277BC"/>
<stop offset="0.973958" stop-color="#48ABDF"/>
</linearGradient>
<linearGradient id="paint7_linear_390_5112" x1="20.1621" y1="11.6578" x2="22.8492" y2="11.6578" gradientUnits="userSpaceOnUse">
<stop stop-color="#223962"/>
<stop offset="0.526042" stop-color="#3277BC"/>
<stop offset="0.973958" stop-color="#48ABDF"/>
</linearGradient>
<linearGradient id="paint8_linear_390_5112" x1="12.7611" y1="13.0874" x2="15.3429" y2="13.0874" gradientUnits="userSpaceOnUse">
<stop stop-color="#223962"/>
<stop offset="0.526042" stop-color="#3277BC"/>
<stop offset="0.973958" stop-color="#48ABDF"/>
</linearGradient>
<linearGradient id="paint9_linear_390_5112" x1="11.9934" y1="35.3762" x2="14.5436" y2="35.3762" gradientUnits="userSpaceOnUse">
<stop stop-color="#223962"/>
<stop offset="0.526042" stop-color="#3277BC"/>
<stop offset="0.973958" stop-color="#48ABDF"/>
</linearGradient>
<linearGradient id="paint10_linear_390_5112" x1="19.2574" y1="37.3258" x2="21.9494" y2="37.3258" gradientUnits="userSpaceOnUse">
<stop stop-color="#223962"/>
<stop offset="0.526042" stop-color="#3277BC"/>
<stop offset="0.973958" stop-color="#48ABDF"/>
</linearGradient>
<linearGradient id="paint11_linear_390_5112" x1="29.3156" y1="32.0932" x2="31.629" y2="32.0932" gradientUnits="userSpaceOnUse">
<stop stop-color="#223962"/>
<stop offset="0.526042" stop-color="#3277BC"/>
<stop offset="0.973958" stop-color="#48ABDF"/>
</linearGradient>
<linearGradient id="paint12_linear_390_5112" x1="29.8546" y1="17.5745" x2="32.1137" y2="17.5745" gradientUnits="userSpaceOnUse">
<stop stop-color="#223962"/>
<stop offset="0.526042" stop-color="#3277BC"/>
<stop offset="0.973958" stop-color="#48ABDF"/>
</linearGradient>
<linearGradient id="paint13_linear_390_5112" x1="31.5294" y1="21.0869" x2="33.5329" y2="21.0869" gradientUnits="userSpaceOnUse">
<stop stop-color="#223962"/>
<stop offset="0.526042" stop-color="#3277BC"/>
<stop offset="0.973958" stop-color="#48ABDF"/>
</linearGradient>
<linearGradient id="paint14_linear_390_5112" x1="31.2301" y1="28.6979" x2="33.297" y2="28.6979" gradientUnits="userSpaceOnUse">
<stop stop-color="#223962"/>
<stop offset="0.526042" stop-color="#3277BC"/>
<stop offset="0.973958" stop-color="#48ABDF"/>
</linearGradient>
<linearGradient id="paint15_linear_390_5112" x1="9.76477" y1="15.3765" x2="12.1819" y2="15.3765" gradientUnits="userSpaceOnUse">
<stop stop-color="#223962"/>
<stop offset="0.526042" stop-color="#3277BC"/>
<stop offset="0.973958" stop-color="#48ABDF"/>
</linearGradient>
<linearGradient id="paint16_linear_390_5112" x1="9.17212" y1="32.8768" x2="11.54" y2="32.8768" gradientUnits="userSpaceOnUse">
<stop stop-color="#223962"/>
<stop offset="0.526042" stop-color="#3277BC"/>
<stop offset="0.973958" stop-color="#48ABDF"/>
</linearGradient>
<linearGradient id="paint17_linear_390_5112" x1="32.073" y1="24.9122" x2="33.8648" y2="24.9122" gradientUnits="userSpaceOnUse">
<stop stop-color="#223962"/>
<stop offset="0.526042" stop-color="#3277BC"/>
<stop offset="0.973958" stop-color="#48ABDF"/>
</linearGradient>
<linearGradient id="paint18_linear_390_5112" x1="23.0536" y1="36.6115" x2="25.6926" y2="36.6115" gradientUnits="userSpaceOnUse">
<stop stop-color="#223962"/>
<stop offset="0.526042" stop-color="#3277BC"/>
<stop offset="0.973958" stop-color="#48ABDF"/>
</linearGradient>
<linearGradient id="paint19_linear_390_5112" x1="10.1118" y1="34.4244" x2="47.681" y2="34.4244" gradientUnits="userSpaceOnUse">
<stop stop-color="#223962"/>
<stop offset="0.526042" stop-color="#3277BC"/>
<stop offset="0.973958" stop-color="#48ABDF"/>
</linearGradient>
<linearGradient id="paint20_linear_390_5112" x1="13.3171" y1="6.80615" x2="30.4089" y2="6.80615" gradientUnits="userSpaceOnUse">
<stop stop-color="#223962"/>
<stop offset="0.526042" stop-color="#3277BC"/>
<stop offset="0.973958" stop-color="#48ABDF"/>
</linearGradient>
<linearGradient id="paint21_linear_390_5112" x1="26.1761" y1="43.1426" x2="35.2828" y2="43.1426" gradientUnits="userSpaceOnUse">
<stop stop-color="#223962"/>
<stop offset="0.526042" stop-color="#3277BC"/>
<stop offset="0.973958" stop-color="#48ABDF"/>
</linearGradient>
<linearGradient id="paint22_linear_390_5112" x1="8.44336" y1="43.1426" x2="24.8859" y2="43.1426" gradientUnits="userSpaceOnUse">
<stop stop-color="#223962"/>
<stop offset="0.526042" stop-color="#3277BC"/>
<stop offset="0.973958" stop-color="#48ABDF"/>
</linearGradient>
<linearGradient id="paint23_linear_390_5112" x1="16.684" y1="47.46" x2="35.2828" y2="47.46" gradientUnits="userSpaceOnUse">
<stop stop-color="#223962"/>
<stop offset="0.526042" stop-color="#3277BC"/>
<stop offset="0.973958" stop-color="#48ABDF"/>
</linearGradient>
<linearGradient id="paint24_linear_390_5112" x1="8.44336" y1="47.46" x2="15.3937" y2="47.46" gradientUnits="userSpaceOnUse">
<stop stop-color="#223962"/>
<stop offset="0.526042" stop-color="#3277BC"/>
<stop offset="0.973958" stop-color="#48ABDF"/>
</linearGradient>
<linearGradient id="paint25_linear_390_5112" x1="8.44336" y1="51.7769" x2="35.2816" y2="51.7769" gradientUnits="userSpaceOnUse">
<stop stop-color="#223962"/>
<stop offset="0.526042" stop-color="#3277BC"/>
<stop offset="0.973958" stop-color="#48ABDF"/>
</linearGradient>
<clipPath id="clip0_390_5112">
<rect width="47.6824" height="60" fill="white"/>
</clipPath>
</defs>
</svg>
