<svg width="60" height="50" viewBox="0 0 60 50" fill="none" xmlns="http://www.w3.org/2000/svg">
<g clip-path="url(#clip0_343_4767)">
<path d="M47.6954 12.3047H41.0456H34.3958C32.8498 12.3047 31.3698 12.5921 30.0048 13.115C28.6012 12.5771 27.1238 12.3047 25.6068 12.3047H12.3064C9.67583 12.3047 7.16569 13.1238 5.04753 14.6742C4.65554 14.9607 4.57029 15.5109 4.85769 15.9029C5.02996 16.1385 5.29714 16.2633 5.56784 16.2624C5.74802 16.2624 5.92995 16.207 6.0864 16.0928C7.90133 14.7647 10.0529 14.0625 12.3073 14.0625H25.6077C26.3257 14.0625 27.0333 14.1337 27.725 14.2752C25.8142 15.5127 24.2665 17.2661 23.2804 19.3359H12.3064C9.39898 19.3359 7.03297 21.7019 7.03297 24.6093C7.03297 27.5167 9.39898 29.8827 12.3064 29.8827H18.0781V35.1561H12.3064C6.49069 35.1561 1.75956 30.425 1.75956 24.6093C1.75956 22.3541 2.4618 20.2034 3.78982 18.3884C4.07635 17.9965 3.99109 17.4471 3.59998 17.1597C3.20799 16.8732 2.65868 16.9585 2.37128 17.3496C0.819137 19.4686 0 21.9788 0 24.6093C0 31.3944 5.5195 36.9139 12.3046 36.9139H25.605C27.151 36.9139 28.632 36.6265 29.996 36.1036C31.3988 36.6415 32.8771 36.9139 34.3941 36.9139H47.6945C54.4796 36.9139 59.9991 31.3944 59.9991 24.6093C59.9991 17.8242 54.4796 12.3047 47.6945 12.3047H47.6954ZM34.3949 14.0625H40.1667V19.3359H36.1633C36.1633 19.3359 36.158 19.3359 36.1563 19.3359H34.3958C31.4884 19.3359 29.1224 21.7019 29.1224 24.6093C29.1224 26.5482 27.5457 28.1249 25.6068 28.1249H24.4493C24.0512 26.9999 23.849 25.8196 23.849 24.6093C23.849 18.7936 28.5801 14.0625 34.3958 14.0625H34.3949ZM37.4008 21.0937H47.6963C49.6351 21.0937 51.2119 22.6705 51.2119 24.6093C51.2119 26.5482 49.6351 28.1249 47.6963 28.1249H37.399C37.7321 27.0105 37.9114 25.831 37.9114 24.6093C37.9114 23.3876 37.74 22.2284 37.4017 21.0937H37.4008ZM8.7899 24.6093C8.7899 22.6705 10.3666 21.0937 12.3055 21.0937H22.6036C22.2705 22.2082 22.0912 23.3885 22.0912 24.6093C22.0912 25.8301 22.2626 26.9903 22.601 28.1249H12.3055C10.3666 28.1249 8.7899 26.5482 8.7899 24.6093ZM19.8351 35.1561V29.8827H23.8376C23.8376 29.8827 23.8446 29.8827 23.8481 29.8827H25.6068C28.5142 29.8827 30.8802 27.5167 30.8802 24.6093C30.8802 22.6705 32.457 21.0937 34.3958 21.0937H35.5533C35.9515 22.2187 36.1536 23.3991 36.1536 24.6093C36.1536 30.425 31.4225 35.1561 25.6068 35.1561H19.8351ZM47.6963 35.1561H34.3958C33.6778 35.1561 32.9702 35.0849 32.2786 34.9434C34.1893 33.7059 35.737 31.9525 36.7223 29.8827H47.6963C50.6037 29.8827 52.9697 27.5167 52.9697 24.6093C52.9697 21.7019 50.6037 19.3359 47.6963 19.3359H41.9245V14.0625H47.6963C53.5119 14.0625 58.2431 18.7936 58.2431 24.6093C58.2431 30.425 53.5119 35.1561 47.6963 35.1561Z" fill="url(#paint0_linear_343_4767)"/>
<path d="M29.9995 8.78902C31.4532 8.78902 32.6362 7.60602 32.6362 6.15231V2.63671C32.6362 1.183 31.4532 0 29.9995 0C28.5458 0 27.3628 1.183 27.3628 2.63671V6.15231C27.3628 7.60602 28.5458 8.78902 29.9995 8.78902ZM29.1206 2.63671C29.1206 2.15243 29.5152 1.7578 29.9995 1.7578C30.4838 1.7578 30.8784 2.15243 30.8784 2.63671V6.15231C30.8784 6.63659 30.4838 7.03122 29.9995 7.03122C29.5152 7.03122 29.1206 6.63659 29.1206 6.15231V2.63671Z" fill="url(#paint1_linear_343_4767)"/>
<path d="M20.3605 8.65043C20.7868 9.65326 21.7641 10.2571 22.7916 10.2571C23.1343 10.2571 23.4833 10.1894 23.8181 10.0479C25.1558 9.48012 25.7825 7.92886 25.2147 6.59029L23.841 3.35417C23.2732 2.0156 21.7219 1.38983 20.3834 1.9576C19.7347 2.23269 19.2329 2.74421 18.9692 3.39724C18.7056 4.05026 18.7117 4.76657 18.9868 5.4152L20.3605 8.65131V8.65043ZM20.5987 4.05466C20.6866 3.83669 20.8545 3.66618 21.0698 3.57478C21.5154 3.38581 22.0331 3.59411 22.222 4.04059L23.5958 7.27671C23.7847 7.72319 23.5764 8.23999 23.1299 8.42895C22.6835 8.61792 22.1667 8.40962 21.9777 7.96313L20.604 4.72702C20.5126 4.51081 20.5099 4.27175 20.5978 4.05466H20.5987Z" fill="url(#paint2_linear_343_4767)"/>
<path d="M36.181 10.0467C36.5158 10.1891 36.8647 10.2559 37.2075 10.2559C38.2341 10.2559 39.2123 9.65294 39.6386 8.64924L41.0123 5.41312C41.2874 4.76449 41.2935 4.04819 41.0299 3.39516C40.7662 2.74214 40.2635 2.23062 39.6157 1.95552C38.2771 1.38775 36.7268 2.01441 36.1581 3.3521L34.7844 6.58821C34.2166 7.92678 34.8433 9.47716 36.181 10.0458V10.0467ZM36.4024 7.27639L37.7762 4.04028C37.9185 3.70629 38.2446 3.50502 38.5865 3.50502C38.7008 3.50502 38.8168 3.52788 38.9284 3.57446C39.1446 3.66586 39.3116 3.83637 39.3995 4.05434C39.4874 4.27231 39.4856 4.51049 39.3933 4.7267L38.0196 7.96282C37.8307 8.40842 37.3139 8.6176 36.8674 8.42863C36.4209 8.23967 36.2126 7.722 36.4016 7.27639H36.4024Z" fill="url(#paint3_linear_343_4767)"/>
<path d="M29.9995 40.4297C28.5458 40.4297 27.3628 41.6127 27.3628 43.0664V46.582C27.3628 48.0357 28.5458 49.2187 29.9995 49.2187C31.4532 49.2187 32.6362 48.0357 32.6362 46.582V43.0664C32.6362 41.6127 31.4532 40.4297 29.9995 40.4297ZM30.8784 46.582C30.8784 47.0663 30.4838 47.4609 29.9995 47.4609C29.5152 47.4609 29.1206 47.0663 29.1206 46.582V43.0664C29.1206 42.5821 29.5152 42.1875 29.9995 42.1875C30.4838 42.1875 30.8784 42.5821 30.8784 43.0664V46.582Z" fill="url(#paint4_linear_343_4767)"/>
<path d="M23.8183 39.1713C22.4798 38.6036 20.9294 39.2302 20.3607 40.5679L18.987 43.804C18.4192 45.1426 19.0459 46.693 20.3836 47.2616C20.7185 47.404 21.0674 47.4708 21.4101 47.4708C22.4367 47.4708 23.4149 46.8679 23.8412 45.8642L25.2149 42.6281C25.7827 41.2895 25.156 39.7391 23.8183 39.1705V39.1713ZM23.5969 41.9416L22.2231 45.1778C22.0333 45.6242 21.5165 45.8325 21.0709 45.6436C20.6244 45.4546 20.4161 44.9369 20.6051 44.4913L21.9788 41.2552C22.1678 40.8087 22.6854 40.6004 23.131 40.7894C23.5775 40.9792 23.7858 41.496 23.5969 41.9416Z" fill="url(#paint5_linear_343_4767)"/>
<path d="M39.6386 40.5683C39.0708 39.2306 37.5195 38.6031 36.181 39.1717C34.8433 39.7395 34.2166 41.2907 34.7844 42.6293L36.1581 45.8654C36.5844 46.8683 37.5617 47.4721 38.5891 47.4721C38.9319 47.4721 39.2808 47.4044 39.6157 47.2629C40.9543 46.6951 41.5809 45.1439 41.0123 43.8053L39.6386 40.5692V40.5683ZM38.9284 45.6439C38.4819 45.8329 37.9651 45.6246 37.7762 45.1781L36.4024 41.942C36.2135 41.4955 36.4218 40.9787 36.8674 40.7898C36.979 40.7423 37.095 40.7203 37.2093 40.7203C37.5512 40.7203 37.8772 40.9216 38.0196 41.2556L39.3933 44.4917C39.5832 44.9382 39.374 45.455 38.9275 45.6439H38.9284Z" fill="url(#paint6_linear_343_4767)"/>
</g>
<defs>
<linearGradient id="paint0_linear_343_4767" x1="-2.23514e-07" y1="24.6093" x2="59.9991" y2="24.6093" gradientUnits="userSpaceOnUse">
<stop stop-color="#223962"/>
<stop offset="0.526042" stop-color="#3277BC"/>
<stop offset="0.973958" stop-color="#48ABDF"/>
</linearGradient>
<linearGradient id="paint1_linear_343_4767" x1="27.3628" y1="4.39451" x2="32.6362" y2="4.39451" gradientUnits="userSpaceOnUse">
<stop stop-color="#223962"/>
<stop offset="0.526042" stop-color="#3277BC"/>
<stop offset="0.973958" stop-color="#48ABDF"/>
</linearGradient>
<linearGradient id="paint2_linear_343_4767" x1="18.7759" y1="6.00256" x2="25.4241" y2="6.00256" gradientUnits="userSpaceOnUse">
<stop stop-color="#223962"/>
<stop offset="0.526042" stop-color="#3277BC"/>
<stop offset="0.973958" stop-color="#48ABDF"/>
</linearGradient>
<linearGradient id="paint3_linear_343_4767" x1="34.575" y1="6.00098" x2="41.2232" y2="6.00098" gradientUnits="userSpaceOnUse">
<stop stop-color="#223962"/>
<stop offset="0.526042" stop-color="#3277BC"/>
<stop offset="0.973958" stop-color="#48ABDF"/>
</linearGradient>
<linearGradient id="paint4_linear_343_4767" x1="27.3628" y1="44.8242" x2="32.6362" y2="44.8242" gradientUnits="userSpaceOnUse">
<stop stop-color="#223962"/>
<stop offset="0.526042" stop-color="#3277BC"/>
<stop offset="0.973958" stop-color="#48ABDF"/>
</linearGradient>
<linearGradient id="paint5_linear_343_4767" x1="18.7776" y1="43.2164" x2="25.4243" y2="43.2164" gradientUnits="userSpaceOnUse">
<stop stop-color="#223962"/>
<stop offset="0.526042" stop-color="#3277BC"/>
<stop offset="0.973958" stop-color="#48ABDF"/>
</linearGradient>
<linearGradient id="paint6_linear_343_4767" x1="34.575" y1="43.217" x2="41.2222" y2="43.217" gradientUnits="userSpaceOnUse">
<stop stop-color="#223962"/>
<stop offset="0.526042" stop-color="#3277BC"/>
<stop offset="0.973958" stop-color="#48ABDF"/>
</linearGradient>
<clipPath id="clip0_343_4767">
<rect width="60" height="49.2185" fill="white"/>
</clipPath>
</defs>
</svg>
