<svg width="60" height="60" viewBox="0 0 60 60" fill="none" xmlns="http://www.w3.org/2000/svg">
<g clip-path="url(#clip0_1_1543)">
<path d="M43.8166 27.5185H41.5823C41.4553 27.5185 41.3423 27.4335 41.3014 27.3071C41.0917 26.6592 40.8287 26.0239 40.5197 25.4183C40.4588 25.2992 40.4783 25.1588 40.5683 25.0689L42.1479 23.4893C42.9475 22.6898 42.9475 21.3887 42.1479 20.589L39.6844 18.1254C38.8847 17.3258 37.5837 17.3258 36.784 18.1254L35.2045 19.705C35.1145 19.7951 34.9739 19.8143 34.8551 19.7536C34.2495 19.4446 33.6139 19.1816 32.9665 18.9719C32.84 18.931 32.755 18.8181 32.755 18.6911V16.4567C32.755 15.3259 31.8349 14.4059 30.7042 14.4059H27.2202C26.0895 14.4059 25.1694 15.3259 25.1694 16.4567V18.6911C25.1694 18.8181 25.0843 18.931 24.958 18.9719C24.3104 19.1816 23.6749 19.4446 23.0693 19.7536C22.9501 19.8143 22.8097 19.795 22.7198 19.7051L21.1403 18.1255C20.3407 17.326 19.0396 17.3258 18.24 18.1255L15.7764 20.5892C14.9768 21.3887 14.9768 22.6897 15.7765 23.4894L17.3561 25.069C17.4459 25.1589 17.4655 25.2993 17.4046 25.4183C17.0955 26.0239 16.8326 26.6592 16.6228 27.3069C16.5818 27.4334 16.4689 27.5183 16.3419 27.5183H14.1076C12.9769 27.5183 12.0568 28.4384 12.0568 29.5691V33.0532C12.0568 34.184 12.9769 35.104 14.1076 35.104H16.3419C16.4689 35.104 16.5819 35.189 16.6228 35.3154C16.8326 35.9632 17.0957 36.5987 17.4046 37.204C17.4655 37.3232 17.4459 37.4636 17.3561 37.5535L15.8657 39.0436C14.3948 38.3115 12.7383 37.8988 10.9868 37.8988C9.2693 37.8988 7.64273 38.2954 6.19324 39.0011C5.6093 37.2762 5.21895 35.4821 5.04094 33.6528C4.56715 28.7814 5.59863 23.8642 7.95504 19.6254L9.01723 22.5642C9.1466 22.9221 9.4841 23.1447 9.84387 23.1447C9.94312 23.1447 10.044 23.1277 10.1427 23.0921C10.5993 22.9271 10.8354 22.4233 10.6705 21.9667L8.92887 17.148C8.76387 16.6914 8.25937 16.4554 7.80352 16.6201L2.98477 18.3618C2.5282 18.5268 2.29195 19.0306 2.45684 19.4871C2.58621 19.845 2.92371 20.0676 3.28348 20.0676C3.38273 20.0676 3.48363 20.0506 3.58219 20.0149L6.26813 19.0442C3.84574 23.5308 2.79352 28.7012 3.29156 33.8229C3.49465 35.9113 3.95449 37.9573 4.64906 39.9161C1.83809 41.9083 0 45.1864 0 48.8857C0 51.0402 0.625547 53.128 1.80902 54.9235C2.07621 55.3288 2.6216 55.4407 3.02648 55.1737C3.43184 54.9065 3.54387 54.3614 3.27668 53.9561C2.28293 52.4487 1.75781 50.6953 1.75781 48.8857C1.75781 43.797 5.89781 39.6569 10.9867 39.6569C16.0755 39.6569 20.2155 43.797 20.2155 48.8857C20.2155 53.9745 16.0755 58.1146 10.9867 58.1146C9.18234 58.1146 7.43297 57.5919 5.92793 56.6032C5.52211 56.3366 4.9773 56.4495 4.7107 56.8552C4.44422 57.2609 4.55695 57.8058 4.96266 58.0723C6.75516 59.2499 8.83816 59.8724 10.9866 59.8724C14.5973 59.8724 17.8066 58.1212 19.8105 55.4237C21.9341 56.2308 24.1668 56.7599 26.45 56.9819C27.2808 57.0626 28.1126 57.1027 28.9427 57.1027C33.953 57.1027 38.8963 55.6451 43.085 52.8989C43.491 52.6328 43.6043 52.088 43.3382 51.6821C43.0719 51.276 42.527 51.1628 42.1212 51.4289C37.5723 54.4114 32.0674 55.7622 26.6203 55.2324C24.6094 55.0368 22.6409 54.585 20.7602 53.9009C21.5353 52.3965 21.9734 50.6914 21.9734 48.8857C21.9734 47.3475 21.6551 45.8823 21.0817 44.5519C21.1012 44.5339 21.1209 44.516 21.14 44.4971L22.7196 42.9175C22.8097 42.8275 22.9505 42.8083 23.0691 42.8689C23.6747 43.1779 24.3102 43.4408 24.9578 43.6506C25.0842 43.6915 25.1692 43.8044 25.1692 43.9314V46.1658C25.1692 47.2965 26.0892 48.2166 27.22 48.2166H30.7039C31.8347 48.2166 32.7547 47.2965 32.7547 46.1658V43.9314C32.7547 43.8044 32.8397 43.6915 32.9661 43.6506C33.6137 43.4408 34.2492 43.1779 34.8548 42.8689C34.9739 42.8079 35.1143 42.8274 35.2042 42.9174L36.7837 44.4969C37.5834 45.2965 38.8845 45.2965 39.6841 44.4969L42.1477 42.0333C42.9472 41.2337 42.9472 39.9327 42.1477 39.133L40.5681 37.5535C40.4781 37.4636 40.4585 37.3231 40.5193 37.204C40.8284 36.5986 41.0914 35.9632 41.3012 35.3154C41.3422 35.1889 41.4551 35.1039 41.5821 35.1039H43.8164C44.9471 35.1039 45.8672 34.1839 45.8672 33.0531V29.569C45.8674 28.4385 44.9475 27.5185 43.8166 27.5185ZM44.1096 33.0533C44.1096 33.2148 43.9782 33.3463 43.8166 33.3463H41.5823C40.6907 33.3463 39.9056 33.9201 39.6292 34.774C39.4479 35.3336 39.2208 35.8824 38.9538 36.4051C38.5457 37.2052 38.6948 38.1662 39.3252 38.7966L40.9048 40.3762C40.9795 40.4508 40.9905 40.538 40.9905 40.5833C40.9905 40.6287 40.9794 40.7159 40.9048 40.7905L38.4412 43.2542C38.3666 43.3288 38.2794 43.3399 38.2341 43.3399C38.1887 43.3399 38.1015 43.3288 38.0269 43.2542L36.4473 41.6746C35.8171 41.0444 34.856 40.8949 34.056 41.3033C33.533 41.5702 32.9842 41.7974 32.4247 41.9786C31.5708 42.255 30.997 43.0401 30.997 43.9317V46.1662C30.997 46.3276 30.8657 46.4591 30.7041 46.4591H27.2201C27.0585 46.4591 26.9271 46.3276 26.9271 46.1662V43.9317C26.9271 43.0401 26.3534 42.255 25.4994 41.9786C24.94 41.7974 24.3912 41.5703 23.8682 41.3033C23.5676 41.1499 23.2441 41.0753 22.924 41.0753C22.3925 41.0753 21.8702 41.2813 21.4767 41.6747L20.2173 42.934C19.4736 41.7846 18.5211 40.7826 17.4141 39.9812L18.5986 38.7968C19.2291 38.1665 19.3782 37.2054 18.97 36.4053C18.7032 35.8826 18.476 35.3337 18.2947 34.7741C18.0183 33.9202 17.2332 33.3464 16.3416 33.3464H14.1073C13.9457 33.3464 13.8143 33.2149 13.8143 33.0535V29.5694C13.8143 29.4079 13.9457 29.2764 14.1073 29.2764H16.3416C17.2332 29.2764 18.0182 28.7026 18.2947 27.8487C18.476 27.2892 18.7031 26.7403 18.9701 26.2176C19.3784 25.4175 19.2291 24.4565 18.5987 23.8261L17.0191 22.2465C16.9048 22.1323 16.9048 21.9464 17.0191 21.8322L19.4828 19.3685C19.5574 19.2939 19.6446 19.2828 19.69 19.2828C19.7352 19.2828 19.8224 19.2939 19.8971 19.3685L21.4767 20.9481C22.1071 21.5783 23.0679 21.7276 23.868 21.3194C24.3911 21.0525 24.9398 20.8253 25.4994 20.6441C26.3532 20.3676 26.927 19.5826 26.927 18.691V16.4565C26.927 16.2951 27.0584 16.1636 27.22 16.1636H30.7039C30.8655 16.1636 30.9969 16.2951 30.9969 16.4565V18.691C30.9969 19.5826 31.5707 20.3676 32.4246 20.6441C32.9841 20.8253 33.5328 21.0524 34.0559 21.3194C34.8555 21.7274 35.8166 21.5783 36.4473 20.948L38.0269 19.3684C38.1015 19.2938 38.1887 19.2826 38.2341 19.2826C38.2794 19.2826 38.3666 19.2938 38.4412 19.3684L40.9048 21.8321C40.9795 21.9067 40.9905 21.9939 40.9905 22.0392C40.9905 22.0845 40.9794 22.1717 40.9048 22.2464L39.3253 23.826C38.6948 24.4564 38.5455 25.4174 38.9538 26.2176C39.2207 26.7403 39.4479 27.2892 39.6292 27.8487C39.9057 28.7026 40.6907 29.2763 41.5823 29.2763H43.8166C43.9782 29.2763 44.1096 29.4078 44.1096 29.5692V33.0533Z" fill="url(#paint0_linear_1_1543)"/>
<path d="M32.8152 23.8254C32.4722 23.4823 32.0161 23.2933 31.5307 23.2933H26.3932C25.9078 23.2933 25.4517 23.4823 25.1087 23.8253L21.4761 27.4579C21.1329 27.8009 20.944 28.2571 20.944 28.7425V29.1797C20.944 29.6651 21.3374 30.0586 21.8229 30.0586C22.3084 30.0586 22.7018 29.6651 22.7018 29.1797V28.7425C22.7018 28.7268 22.7078 28.7121 22.7189 28.701L26.3517 25.0681C26.3626 25.0573 26.3777 25.051 26.3932 25.051H31.5307C31.5462 25.051 31.5613 25.0572 31.5722 25.0681L35.205 28.7009C35.2159 28.7118 35.2221 28.7269 35.2221 28.7424V33.88C35.2221 33.8957 35.216 33.9105 35.205 33.9215L31.5722 37.5544C31.5613 37.5652 31.5462 37.5715 31.5307 37.5715H26.3932C26.3777 37.5715 26.3626 37.5653 26.3517 37.5544L22.7188 33.9215C22.7078 33.9105 22.7017 33.8958 22.7017 33.8801V33.2813C22.7017 32.7959 22.3083 32.4024 21.8228 32.4024C21.3373 32.4024 20.9439 32.7959 20.9439 33.2813V33.8801C20.9439 34.3654 21.1328 34.8216 21.4758 35.1645L25.1086 38.7972C25.4516 39.1403 25.9077 39.3293 26.3931 39.3293H31.5306C32.016 39.3293 32.4721 39.1403 32.8151 38.7973L36.4479 35.1644C36.7909 34.8212 36.9798 34.3653 36.9798 33.8801V28.7425C36.9798 28.2573 36.7909 27.8011 36.4479 27.4581L32.8152 23.8254Z" fill="url(#paint1_linear_1_1543)"/>
<path d="M10.9867 41.7635C10.5012 41.7635 10.1078 42.1571 10.1078 42.6425V48.8857C10.1078 49.3711 10.5012 49.7646 10.9867 49.7646H15.9619C16.4474 49.7646 16.8408 49.3711 16.8408 48.8857C16.8408 48.4003 16.4474 48.0068 15.9619 48.0068H11.8656V42.6425C11.8656 42.1571 11.4722 41.7635 10.9867 41.7635Z" fill="url(#paint2_linear_1_1543)"/>
<path d="M48.3096 11.226C48.7951 11.226 49.1885 10.8325 49.1885 10.3471V9.75684C49.1885 9.27145 48.7951 8.87793 48.3096 8.87793C47.8241 8.87793 47.4307 9.27145 47.4307 9.75684V10.3471C47.4307 10.8325 47.8242 11.226 48.3096 11.226Z" fill="url(#paint3_linear_1_1543)"/>
<path d="M50.992 11.226C51.4775 11.226 51.8709 10.8325 51.8709 10.3471V9.75684C51.8709 9.27145 51.4775 8.87793 50.992 8.87793C50.5065 8.87793 50.1131 9.27145 50.1131 9.75684V10.3471C50.1131 10.8325 50.5065 11.226 50.992 11.226Z" fill="url(#paint4_linear_1_1543)"/>
<path d="M26.7208 35.2582C26.9975 35.5347 27.3654 35.6869 27.7564 35.6869H30.1678C30.5591 35.6869 30.9269 35.5345 31.2036 35.2579L32.9087 33.5528C33.1853 33.2761 33.3377 32.9082 33.3377 32.517V30.1055C33.3377 29.7143 33.1853 29.3465 32.9087 29.0698L31.2037 27.3649C30.9272 27.0881 30.5592 26.9357 30.1678 26.9357H27.7564C27.3653 26.9357 26.9974 27.088 26.7205 27.3647L25.0154 29.0698C24.7389 29.3465 24.5864 29.7143 24.5864 30.1056V32.5168C24.5864 32.9081 24.7389 33.276 25.0154 33.5527L26.7205 35.2577C26.7206 35.258 26.7207 35.2581 26.7208 35.2582ZM26.3442 30.227L27.8777 28.6935H30.0464L31.5799 30.2269V32.3956L30.0464 33.929H27.8777L26.3442 32.3954V30.227Z" fill="url(#paint5_linear_1_1543)"/>
<path d="M60 10.4768C60 4.77024 55.3574 0.127625 49.6509 0.127625C47.5027 0.127625 45.4403 0.782468 43.6868 2.02126C43.2904 2.30134 43.196 2.84977 43.4762 3.24622C43.7562 3.64255 44.3046 3.737 44.7012 3.45692C46.1562 2.42884 47.8677 1.88544 49.6508 1.88544C54.3881 1.88544 58.2421 5.7395 58.2421 10.4768C58.2421 12.4733 57.5556 14.3115 56.4088 15.7719C55.8863 14.9031 55.109 14.2171 54.1836 13.8062C54.8708 12.8732 55.2779 11.7218 55.2779 10.4768C55.2779 7.37391 52.7536 4.84958 49.6507 4.84958C46.5478 4.84958 44.0235 7.37391 44.0235 10.4768C44.0235 11.7218 44.4306 12.8732 45.1177 13.8061C44.1925 14.2168 43.4152 14.903 42.8925 15.7718C41.7457 14.3114 41.0592 12.4733 41.0592 10.4768C41.0592 8.98196 41.4513 7.50762 42.193 6.21341C42.4344 5.79223 42.2886 5.25516 41.8676 5.01376C41.4463 4.77247 40.9093 4.91825 40.6681 5.3393C40.2174 6.12563 39.8741 6.96727 39.6442 7.83915C37.0739 6.66856 34.3132 5.9168 31.4736 5.64071C25.6301 5.07259 19.7217 6.52243 14.8388 9.72376C14.4328 9.98989 14.3195 10.5347 14.5856 10.9406C14.8519 11.3466 15.3969 11.4599 15.8026 11.1938C20.3515 8.21134 25.8566 6.8604 31.3035 7.39032C34.105 7.66278 36.8241 8.43223 39.3373 9.63575C39.3144 9.91512 39.3015 10.1956 39.3015 10.4768C39.3015 16.1834 43.9441 20.8259 49.6506 20.8259C49.9582 20.8259 50.2625 20.8116 50.5635 20.7851C51.8093 23.3402 52.6049 26.1118 52.8829 28.9696C53.3509 33.782 52.3501 38.6392 50.054 42.8428L49.0883 39.9196C48.9361 39.4587 48.4393 39.2084 47.9781 39.3607C47.5172 39.5129 47.267 40.01 47.4192 40.4709L49.0263 45.3362C49.1483 45.7056 49.4918 45.9396 49.8607 45.9396C49.952 45.9396 50.0449 45.9252 50.1366 45.8951L55.002 44.288C55.4629 44.1358 55.7131 43.6386 55.5608 43.1777C55.4086 42.7168 54.9118 42.4664 54.4506 42.6189L51.6795 43.5342C54.0851 39.0578 55.1289 33.9045 54.6324 28.7994C54.3503 25.8996 53.5716 23.0822 52.3579 20.4659C56.7558 19.2727 60 15.2468 60 10.4768ZM49.6509 6.60739C51.7845 6.60739 53.5204 8.34317 53.5204 10.4768C53.5204 12.6104 51.7846 14.3462 49.6509 14.3462C47.5173 14.3462 45.7815 12.6104 45.7815 10.4768C45.7815 8.34317 47.5173 6.60739 49.6509 6.60739ZM44.1856 17.1007C44.5999 16.0997 45.4964 15.3744 46.5741 15.1848C47.4591 15.7651 48.5159 16.104 49.6508 16.104C50.7858 16.104 51.8427 15.7651 52.7276 15.1848C53.8052 15.3745 54.7017 16.0997 55.1161 17.1008C53.6299 18.3292 51.725 19.0682 49.6508 19.0682C47.5766 19.0681 45.6717 18.3291 44.1856 17.1007Z" fill="url(#paint6_linear_1_1543)"/>
</g>
<defs>
<linearGradient id="paint0_linear_1_1543" x1="-1.70869e-07" y1="37.1392" x2="45.8672" y2="37.1392" gradientUnits="userSpaceOnUse">
<stop stop-color="#223962"/>
<stop offset="0.526042" stop-color="#3277BC"/>
<stop offset="0.973958" stop-color="#48ABDF"/>
</linearGradient>
<linearGradient id="paint1_linear_1_1543" x1="20.9439" y1="31.3113" x2="36.9798" y2="31.3113" gradientUnits="userSpaceOnUse">
<stop stop-color="#223962"/>
<stop offset="0.526042" stop-color="#3277BC"/>
<stop offset="0.973958" stop-color="#48ABDF"/>
</linearGradient>
<linearGradient id="paint2_linear_1_1543" x1="10.1078" y1="45.7641" x2="16.8408" y2="45.7641" gradientUnits="userSpaceOnUse">
<stop stop-color="#223962"/>
<stop offset="0.526042" stop-color="#3277BC"/>
<stop offset="0.973958" stop-color="#48ABDF"/>
</linearGradient>
<linearGradient id="paint3_linear_1_1543" x1="47.4307" y1="10.052" x2="49.1885" y2="10.052" gradientUnits="userSpaceOnUse">
<stop stop-color="#223962"/>
<stop offset="0.526042" stop-color="#3277BC"/>
<stop offset="0.973958" stop-color="#48ABDF"/>
</linearGradient>
<linearGradient id="paint4_linear_1_1543" x1="50.1131" y1="10.052" x2="51.8709" y2="10.052" gradientUnits="userSpaceOnUse">
<stop stop-color="#223962"/>
<stop offset="0.526042" stop-color="#3277BC"/>
<stop offset="0.973958" stop-color="#48ABDF"/>
</linearGradient>
<linearGradient id="paint5_linear_1_1543" x1="24.5864" y1="31.3113" x2="33.3377" y2="31.3113" gradientUnits="userSpaceOnUse">
<stop stop-color="#223962"/>
<stop offset="0.526042" stop-color="#3277BC"/>
<stop offset="0.973958" stop-color="#48ABDF"/>
</linearGradient>
<linearGradient id="paint6_linear_1_1543" x1="14.4417" y1="23.0336" x2="60" y2="23.0336" gradientUnits="userSpaceOnUse">
<stop stop-color="#223962"/>
<stop offset="0.526042" stop-color="#3277BC"/>
<stop offset="0.973958" stop-color="#48ABDF"/>
</linearGradient>
<clipPath id="clip0_1_1543">
<rect width="60" height="60" fill="white"/>
</clipPath>
</defs>
</svg>
