<svg width="55" height="60" viewBox="0 0 55 60" fill="none" xmlns="http://www.w3.org/2000/svg">
<g clip-path="url(#clip0_343_5516)">
<path d="M53.8394 8.73047C53.3543 8.73047 52.9605 9.12422 52.9605 9.60938V39.1184H49.4789L45.1934 33.5895C45.027 33.375 44.7703 33.2496 44.4984 33.2496H26.8008V25.9207C26.8008 25.9207 26.8125 25.909 26.8184 25.9031C28.8422 23.8793 29.9578 21.1875 29.9578 18.3246C29.9578 15.4617 28.8434 12.7699 26.8184 10.7461C26.8125 10.7402 26.8066 10.7344 26.8008 10.7285V1.75781H52.9605V5.50781C52.9605 5.99297 53.3543 6.38672 53.8394 6.38672C54.3246 6.38672 54.7184 5.99297 54.7184 5.50781V1.23047C54.7184 0.551953 54.1664 0 53.4879 0H26.2734C25.5949 0 25.043 0.551953 25.043 1.23047V9.31289C23.3285 8.2043 21.3305 7.60781 19.2398 7.60781C16.377 7.60781 13.6852 8.72227 11.6613 10.7473C9.6375 12.7711 8.52187 15.4629 8.52187 18.3258C8.52187 20.3906 9.1043 22.3641 10.1871 24.0645L8.79727 25.4543C8.2582 25.1777 7.57969 25.2633 7.12969 25.7145L0.977344 31.8668C0.346875 32.4973 0 33.3363 0 34.2281C0 35.1199 0.346875 35.959 0.977344 36.5895C1.60781 37.2199 2.44687 37.5668 3.33867 37.5668C4.23047 37.5668 5.06836 37.2199 5.7 36.5895L11.8523 30.4371C12.123 30.1664 12.2719 29.8066 12.2719 29.4246C12.2719 29.1926 12.2168 28.9688 12.1125 28.7695L13.5023 27.3797C15.2027 28.4625 17.1762 29.0449 19.241 29.0449C21.3059 29.0449 23.3297 28.4484 25.0441 27.3398V33.2531H12.968C12.6926 33.2531 12.4348 33.382 12.2684 33.6L6.19687 41.5945C5.8875 42.0012 5.83711 42.5379 6.06445 42.9949C6.2918 43.452 6.75 43.7367 7.25977 43.7367H12.0891V58.6688C12.0891 59.4047 12.6879 60.0035 13.4238 60.0035H44.0437C44.7797 60.0035 45.3785 59.4047 45.3785 58.6688V54.7301C45.3785 54.2449 44.9848 53.8512 44.4996 53.8512C44.0145 53.8512 43.6207 54.2449 43.6207 54.7301V58.2457H34.343V36.6996L39.3961 43.2188C39.6469 43.5434 40.0418 43.7367 40.4508 43.7367H43.6207V50.6285C43.6207 51.1137 44.0145 51.5074 44.4996 51.5074C44.9848 51.5074 45.3785 51.1137 45.3785 50.6285V43.7367H50.3344C50.8477 43.7367 51.307 43.4508 51.5332 42.9891C51.7594 42.5273 51.7043 41.9895 51.3891 41.584L50.843 40.8785H53.4891C54.1676 40.8785 54.7195 40.3266 54.7195 39.648V9.60938C54.7195 9.12422 54.3258 8.73047 53.8406 8.73047H53.8394ZM4.45664 35.3438C4.15781 35.6426 3.76055 35.8066 3.33867 35.8066C2.9168 35.8066 2.51953 35.6426 2.2207 35.3438C1.92188 35.0449 1.75781 34.6488 1.75781 34.2258C1.75781 33.8027 1.92188 33.4066 2.2207 33.1078L8.14219 27.1863L10.3781 29.4223L4.45664 35.3438ZM10.9172 27.4746L10.0898 26.6473L11.2605 25.4766C11.3906 25.6219 11.5242 25.7637 11.6625 25.902C11.8008 26.0402 11.9437 26.1738 12.0879 26.3039L10.9172 27.4746ZM19.241 27.2836C16.848 27.2836 14.598 26.352 12.9059 24.6598C11.2137 22.9676 10.282 20.7176 10.282 18.3246C10.282 15.9316 11.2137 13.6816 12.9059 11.9895C14.598 10.2973 16.848 9.36445 19.241 9.36445C21.634 9.36445 23.884 10.2961 25.5762 11.9895C27.2684 13.6816 28.2 15.9316 28.2 18.3246C28.2 20.7176 27.2684 22.9676 25.5762 24.6598C23.884 26.352 21.634 27.2836 19.241 27.2836ZM8.11289 41.9742L13.4051 35.0062H31.6934L26.4012 41.9742H8.11172H8.11289ZM32.5852 58.241H13.8469V43.732H26.6098C27.0246 43.732 27.4219 43.5352 27.6727 43.2047L32.584 36.7371V58.241H32.5852ZM40.6594 41.9742L35.2582 35.0062H44.0695L49.4707 41.9742H40.6594Z" fill="url(#paint0_linear_343_5516)"/>
<path d="M35.0425 12.949C34.6664 12.642 34.1132 12.6982 33.8062 13.0744L32.5406 14.6248L31.8117 13.8959C31.4683 13.5525 30.9117 13.5525 30.5683 13.8959C30.225 14.2392 30.225 14.7959 30.5683 15.1392L31.9851 16.556C32.1503 16.7213 32.3742 16.8138 32.6062 16.8138C32.6214 16.8138 32.6355 16.8138 32.6507 16.8127C32.8992 16.7998 33.13 16.6838 33.2871 16.4904L35.1667 14.1877C35.4738 13.8115 35.4175 13.2584 35.0414 12.9513L35.0425 12.949Z" fill="url(#paint1_linear_343_5516)"/>
<path d="M48.5719 14.1113H37.6934C37.2082 14.1113 36.8145 14.5051 36.8145 14.9902C36.8145 15.4754 37.2082 15.8691 37.6934 15.8691H48.5719C49.057 15.8691 49.4508 15.4754 49.4508 14.9902C49.4508 14.5051 49.057 14.1113 48.5719 14.1113Z" fill="url(#paint2_linear_343_5516)"/>
<path d="M35.0425 18.0037C34.6664 17.6967 34.1132 17.7529 33.8062 18.1291L32.5406 19.6795L31.8117 18.9506C31.4683 18.6072 30.9117 18.6072 30.5683 18.9506C30.225 19.2939 30.225 19.8506 30.5683 20.1939L31.9851 21.6107C32.1503 21.7759 32.3742 21.8685 32.6062 21.8685C32.6214 21.8685 32.6355 21.8685 32.6507 21.8674C32.8992 21.8545 33.13 21.7385 33.2871 21.5451L35.1667 19.2424C35.4738 18.8662 35.4175 18.3131 35.0414 18.006L35.0425 18.0037Z" fill="url(#paint3_linear_343_5516)"/>
<path d="M48.5719 19.166H37.6934C37.2082 19.166 36.8145 19.5598 36.8145 20.0449C36.8145 20.5301 37.2082 20.9238 37.6934 20.9238H48.5719C49.057 20.9238 49.4508 20.5301 49.4508 20.0449C49.4508 19.5598 49.057 19.166 48.5719 19.166Z" fill="url(#paint4_linear_343_5516)"/>
<path d="M35.0425 23.0574C34.6664 22.7504 34.1132 22.8066 33.8062 23.1828L32.5406 24.7332L31.8117 24.0043C31.4683 23.6609 30.9117 23.6609 30.5683 24.0043C30.225 24.3476 30.225 24.9043 30.5683 25.2476L31.9851 26.6644C32.1503 26.8297 32.3742 26.9222 32.6062 26.9222C32.6214 26.9222 32.6355 26.9222 32.6507 26.9211C32.8992 26.9082 33.13 26.7922 33.2871 26.5988L35.1667 24.2961C35.4738 23.9199 35.4175 23.3668 35.0414 23.0597L35.0425 23.0574Z" fill="url(#paint5_linear_343_5516)"/>
<path d="M48.5719 24.2207H37.6934C37.2082 24.2207 36.8145 24.6145 36.8145 25.0996C36.8145 25.5848 37.2082 25.9785 37.6934 25.9785H48.5719C49.057 25.9785 49.4508 25.5848 49.4508 25.0996C49.4508 24.6145 49.057 24.2207 48.5719 24.2207Z" fill="url(#paint6_linear_343_5516)"/>
<path d="M35.0425 28.1131C34.6664 27.806 34.1132 27.8623 33.8062 28.2385L32.5406 29.7888L31.8117 29.0599C31.4683 28.7166 30.9117 28.7166 30.5683 29.0599C30.225 29.4033 30.225 29.9599 30.5683 30.3033L31.9851 31.7201C32.1503 31.8853 32.3742 31.9779 32.6062 31.9779C32.6214 31.9779 32.6355 31.9779 32.6507 31.9767C32.8992 31.9638 33.13 31.8478 33.2871 31.6545L35.1667 29.3517C35.4738 28.9756 35.4175 28.4224 35.0414 28.1154L35.0425 28.1131Z" fill="url(#paint7_linear_343_5516)"/>
<path d="M48.5719 29.2744H37.6934C37.2082 29.2744 36.8145 29.6682 36.8145 30.1533C36.8145 30.6385 37.2082 31.0322 37.6934 31.0322H48.5719C49.057 31.0322 49.4508 30.6385 49.4508 30.1533C49.4508 29.6682 49.057 29.2744 48.5719 29.2744Z" fill="url(#paint8_linear_343_5516)"/>
<path d="M50.1 9.21211V6.06445C50.1 5.38594 49.548 4.83398 48.8695 4.83398H30.8929C30.2144 4.83398 29.6625 5.38594 29.6625 6.06445V9.21211C29.6625 9.89062 30.2144 10.4426 30.8929 10.4426H48.8695C49.548 10.4426 50.1 9.89062 50.1 9.21211ZM48.3422 8.68477H31.4203V6.5918H48.3422V8.68477Z" fill="url(#paint9_linear_343_5516)"/>
<path d="M25.5082 20.0512C25.0617 19.8602 24.5449 20.0676 24.355 20.5141C24.075 21.168 23.6777 21.7551 23.1749 22.259C21.0058 24.4281 17.4761 24.4281 15.307 22.259C13.1378 20.0898 13.1378 16.5602 15.307 14.391C17.4761 12.2219 21.0058 12.2219 23.1749 14.391C23.8886 15.1047 24.3937 15.9965 24.6375 16.9715C24.7546 17.4426 25.2328 17.7285 25.7027 17.6113C26.1738 17.4941 26.4597 17.0172 26.3425 16.5461C26.0214 15.2629 25.3558 14.0875 24.4171 13.1488C21.5636 10.2941 16.9183 10.2941 14.0636 13.1488C11.2089 16.0035 11.2089 20.6477 14.0636 23.5023C15.491 24.9297 17.3648 25.6434 19.2398 25.6434C21.1148 25.6434 22.9898 24.9297 24.416 23.5023C25.0781 22.8402 25.6007 22.0668 25.9699 21.2066C26.1609 20.7602 25.9535 20.2434 25.507 20.0535L25.5082 20.0512Z" fill="url(#paint10_linear_343_5516)"/>
</g>
<defs>
<linearGradient id="paint0_linear_343_5516" x1="-2.03846e-07" y1="30.0018" x2="54.7195" y2="30.0018" gradientUnits="userSpaceOnUse">
<stop stop-color="#223962"/>
<stop offset="0.526042" stop-color="#3277BC"/>
<stop offset="0.973958" stop-color="#48ABDF"/>
</linearGradient>
<linearGradient id="paint1_linear_343_5516" x1="30.3108" y1="14.7824" x2="35.3648" y2="14.7824" gradientUnits="userSpaceOnUse">
<stop stop-color="#223962"/>
<stop offset="0.526042" stop-color="#3277BC"/>
<stop offset="0.973958" stop-color="#48ABDF"/>
</linearGradient>
<linearGradient id="paint2_linear_343_5516" x1="36.8145" y1="14.9902" x2="49.4508" y2="14.9902" gradientUnits="userSpaceOnUse">
<stop stop-color="#223962"/>
<stop offset="0.526042" stop-color="#3277BC"/>
<stop offset="0.973958" stop-color="#48ABDF"/>
</linearGradient>
<linearGradient id="paint3_linear_343_5516" x1="30.3108" y1="19.8371" x2="35.3648" y2="19.8371" gradientUnits="userSpaceOnUse">
<stop stop-color="#223962"/>
<stop offset="0.526042" stop-color="#3277BC"/>
<stop offset="0.973958" stop-color="#48ABDF"/>
</linearGradient>
<linearGradient id="paint4_linear_343_5516" x1="36.8145" y1="20.0449" x2="49.4508" y2="20.0449" gradientUnits="userSpaceOnUse">
<stop stop-color="#223962"/>
<stop offset="0.526042" stop-color="#3277BC"/>
<stop offset="0.973958" stop-color="#48ABDF"/>
</linearGradient>
<linearGradient id="paint5_linear_343_5516" x1="30.3108" y1="24.8908" x2="35.3648" y2="24.8908" gradientUnits="userSpaceOnUse">
<stop stop-color="#223962"/>
<stop offset="0.526042" stop-color="#3277BC"/>
<stop offset="0.973958" stop-color="#48ABDF"/>
</linearGradient>
<linearGradient id="paint6_linear_343_5516" x1="36.8145" y1="25.0996" x2="49.4508" y2="25.0996" gradientUnits="userSpaceOnUse">
<stop stop-color="#223962"/>
<stop offset="0.526042" stop-color="#3277BC"/>
<stop offset="0.973958" stop-color="#48ABDF"/>
</linearGradient>
<linearGradient id="paint7_linear_343_5516" x1="30.3108" y1="29.9465" x2="35.3648" y2="29.9465" gradientUnits="userSpaceOnUse">
<stop stop-color="#223962"/>
<stop offset="0.526042" stop-color="#3277BC"/>
<stop offset="0.973958" stop-color="#48ABDF"/>
</linearGradient>
<linearGradient id="paint8_linear_343_5516" x1="36.8145" y1="30.1533" x2="49.4508" y2="30.1533" gradientUnits="userSpaceOnUse">
<stop stop-color="#223962"/>
<stop offset="0.526042" stop-color="#3277BC"/>
<stop offset="0.973958" stop-color="#48ABDF"/>
</linearGradient>
<linearGradient id="paint9_linear_343_5516" x1="29.6625" y1="7.63828" x2="50.1" y2="7.63828" gradientUnits="userSpaceOnUse">
<stop stop-color="#223962"/>
<stop offset="0.526042" stop-color="#3277BC"/>
<stop offset="0.973958" stop-color="#48ABDF"/>
</linearGradient>
<linearGradient id="paint10_linear_343_5516" x1="11.9226" y1="18.3256" x2="26.3688" y2="18.3256" gradientUnits="userSpaceOnUse">
<stop stop-color="#223962"/>
<stop offset="0.526042" stop-color="#3277BC"/>
<stop offset="0.973958" stop-color="#48ABDF"/>
</linearGradient>
<clipPath id="clip0_343_5516">
<rect width="54.7184" height="60" fill="white"/>
</clipPath>
</defs>
</svg>
