<svg width="60" height="60" viewBox="0 0 60 60" fill="none" xmlns="http://www.w3.org/2000/svg">
<g clip-path="url(#clip0_343_4456)">
<path d="M49.7312 24.4383C44.4284 19.136 37.3782 16.2158 29.8793 16.2158C26.7987 16.2158 23.7705 16.7116 20.8791 17.6896C20.4192 17.8451 20.1725 18.3438 20.328 18.8037C20.4836 19.2636 20.9829 19.5101 21.4421 19.3547C24.1519 18.4383 26.9906 17.9736 29.8793 17.9736C34.8969 17.9736 39.59 19.3866 43.5844 21.8332L41.9954 24.2413C38.4579 22.0955 34.3105 20.8589 29.8795 20.8589C25.4464 20.8589 21.2969 22.0966 17.7584 24.2444C17.2267 23.4408 16.6951 22.6341 16.165 21.8249C16.752 21.4671 17.3555 21.1294 17.9761 20.814C18.4088 20.5942 18.5814 20.0651 18.3615 19.6323C18.1417 19.1995 17.6127 19.0271 17.1798 19.2469C16.2513 19.7187 15.3531 20.2411 14.4873 20.8094C14.4786 20.8147 14.4696 20.8192 14.4609 20.8248C14.4516 20.8309 14.4433 20.8379 14.4342 20.8442C11.0783 23.0582 8.22201 25.9742 6.07221 29.4054C3.28093 33.8605 1.80554 39.0075 1.80554 44.2898C1.80554 44.7752 2.19894 45.1687 2.68445 45.1687H16.7852C17.2707 45.1687 17.6641 44.7752 17.6641 44.2898C17.6641 43.8044 17.2707 43.4109 16.7852 43.4109H8.22588C8.50197 36.5245 12.0056 30.4551 17.2629 26.6781C18.384 28.3653 19.5004 30.0344 20.597 31.6739C22.5312 34.5654 24.527 37.5496 26.5349 40.6116C26.0441 41.0703 25.6488 41.6296 25.3771 42.266C25.2184 42.6376 25.1078 43.0214 25.0445 43.4102H20.7094C20.2239 43.4102 19.8305 43.8037 19.8305 44.2891C19.8305 44.7745 20.2239 45.168 20.7094 45.168H25.0829C25.1419 45.4537 25.2255 45.7362 25.3365 46.0127C25.8239 47.2262 26.7546 48.1772 27.9573 48.6908C28.575 48.9544 29.2265 49.0865 29.8787 49.0865C30.496 49.0865 31.114 48.9681 31.704 48.7311C32.8312 48.2784 33.697 47.4503 34.2179 46.4489L36.4336 45.168H52.4202C52.424 45.168 52.4277 45.1686 52.4316 45.1686C52.4355 45.1686 52.4391 45.1681 52.443 45.168H57.075C57.5605 45.168 57.9539 44.7745 57.9539 44.2891C57.9539 36.7905 55.0336 29.7408 49.7312 24.4383ZM6.4669 43.4109H3.57765C3.84999 35.0829 7.98342 27.5135 14.6951 22.7886C15.2263 23.5993 15.7587 24.4073 16.2911 25.2122C10.5604 29.3058 6.74487 35.9139 6.4669 43.4109ZM31.049 47.1002C30.2712 47.4126 29.4183 47.4032 28.6475 47.0743C27.8768 46.7452 27.2802 46.1356 26.9679 45.3578C26.6555 44.5801 26.6646 43.7272 26.9938 42.9564C27.3228 42.1856 27.9324 41.5891 28.7101 41.2767C29.0924 41.1232 29.4871 41.0505 29.8756 41.0505C31.1198 41.0505 32.3 41.7956 32.7914 43.0189C33.4363 44.6245 32.6545 46.4553 31.049 47.1002ZM34.7735 44.0975C34.7634 43.5186 34.6509 42.9322 34.4226 42.3637C34.1945 41.7958 33.8704 41.2947 33.4777 40.8699L43.4585 38.4295C43.5182 38.4151 43.6998 38.3707 43.7921 38.6009C43.8841 38.8305 43.7227 38.9238 43.6695 38.9545L34.7735 44.0975ZM39.4742 43.4104L44.5492 40.4764C45.4522 39.9545 45.8117 38.9142 45.4235 37.9464C45.0351 36.9784 44.0564 36.4748 43.0418 36.7218L34.4857 38.8139L37.9687 33.535C38.236 33.1299 38.1243 32.5848 37.7192 32.3174C37.3142 32.0499 36.769 32.1616 36.5015 32.5668L31.9743 39.4278L31.4516 39.5557C30.382 39.1918 29.1831 39.1923 28.0548 39.6453C28.0411 39.6508 28.028 39.6571 28.0144 39.6628C25.9987 36.5889 23.9974 33.5962 22.0578 30.6967C20.9633 29.0604 19.8492 27.3944 18.7305 25.711C21.99 23.7477 25.8049 22.6168 29.8794 22.6168C33.9529 22.6168 37.7672 23.7473 41.0262 25.7099L38.821 29.0516C38.5537 29.4567 38.6654 30.0019 39.0705 30.2693C39.2196 30.3676 39.3876 30.4147 39.5538 30.4147C39.8393 30.4147 40.1191 30.2758 40.2882 30.0198L42.4943 26.6768C47.7526 30.4536 51.2569 36.5233 51.5333 43.4104H39.4742ZM53.2922 43.4104C53.014 35.9115 49.1964 29.3018 43.463 25.2087L45.052 22.8008C51.5656 27.4131 55.9012 34.907 56.1816 43.4104H53.2922Z" fill="url(#paint0_linear_343_4456)"/>
<path d="M3.40125 29.3367L1.40954 27.8286C1.02247 27.5356 0.471219 27.6118 0.178251 27.9988C-0.114717 28.3857 -0.038663 28.937 0.348407 29.23L2.34012 30.7381C2.49891 30.8582 2.68524 30.9164 2.87004 30.9164C3.13594 30.9164 3.39867 30.7963 3.57141 30.568C3.86438 30.181 3.78832 29.6298 3.40125 29.3367Z" fill="url(#paint1_linear_343_4456)"/>
<path d="M6.83085 24.8064L4.83913 23.2983C4.45206 23.0054 3.90081 23.0815 3.60785 23.4685C3.31499 23.8554 3.39105 24.4067 3.77812 24.6998L5.76983 26.2079C5.9285 26.328 6.11483 26.3861 6.29964 26.3861C6.56553 26.3861 6.82827 26.266 7.001 26.0377C7.29397 25.6507 7.21792 25.0995 6.83085 24.8064Z" fill="url(#paint2_linear_343_4456)"/>
<path d="M59.8217 27.9988C59.5287 27.6117 58.9774 27.5357 58.5904 27.8286L56.5987 29.3367C56.2116 29.6297 56.1355 30.1811 56.4285 30.568C56.6013 30.7963 56.8641 30.9164 57.1299 30.9164C57.3147 30.9164 57.501 30.8583 57.6597 30.7382L59.6514 29.2301C60.0386 28.9371 60.1146 28.3859 59.8217 27.9988Z" fill="url(#paint3_linear_343_4456)"/>
<path d="M56.392 23.4686C56.099 23.0815 55.5477 23.0053 55.1607 23.2984L53.169 24.8065C52.7819 25.0995 52.7058 25.6508 52.9988 26.0378C53.1717 26.2661 53.4344 26.3862 53.7003 26.3862C53.8851 26.3862 54.0714 26.3281 54.2301 26.2079L56.2218 24.6999C56.6089 24.4069 56.6849 23.8555 56.392 23.4686Z" fill="url(#paint4_linear_343_4456)"/>
<path d="M27.0386 10.9141C26.5531 10.9141 26.1597 11.3076 26.1597 11.793V14.2912C26.1597 14.7766 26.5531 15.1701 27.0386 15.1701C27.5241 15.1701 27.9175 14.7766 27.9175 14.2912V11.793C27.9175 11.3076 27.5241 10.9141 27.0386 10.9141Z" fill="url(#paint5_linear_343_4456)"/>
<path d="M32.7202 10.9141C32.2347 10.9141 31.8413 11.3076 31.8413 11.793V14.2912C31.8413 14.7766 32.2348 15.1701 32.7202 15.1701C33.2057 15.1701 33.5991 14.7766 33.5991 14.2912V11.793C33.5991 11.3076 33.2057 10.9141 32.7202 10.9141Z" fill="url(#paint6_linear_343_4456)"/>
</g>
<defs>
<linearGradient id="paint0_linear_343_4456" x1="1.80554" y1="32.6512" x2="57.9539" y2="32.6512" gradientUnits="userSpaceOnUse">
<stop stop-color="#223962"/>
<stop offset="0.526042" stop-color="#3277BC"/>
<stop offset="0.973958" stop-color="#48ABDF"/>
</linearGradient>
<linearGradient id="paint1_linear_343_4456" x1="-1.39686e-08" y1="29.2834" x2="3.74966" y2="29.2834" gradientUnits="userSpaceOnUse">
<stop stop-color="#223962"/>
<stop offset="0.526042" stop-color="#3277BC"/>
<stop offset="0.973958" stop-color="#48ABDF"/>
</linearGradient>
<linearGradient id="paint2_linear_343_4456" x1="3.42969" y1="24.7531" x2="7.17925" y2="24.7531" gradientUnits="userSpaceOnUse">
<stop stop-color="#223962"/>
<stop offset="0.526042" stop-color="#3277BC"/>
<stop offset="0.973958" stop-color="#48ABDF"/>
</linearGradient>
<linearGradient id="paint3_linear_343_4456" x1="56.2502" y1="29.2834" x2="59.9999" y2="29.2834" gradientUnits="userSpaceOnUse">
<stop stop-color="#223962"/>
<stop offset="0.526042" stop-color="#3277BC"/>
<stop offset="0.973958" stop-color="#48ABDF"/>
</linearGradient>
<linearGradient id="paint4_linear_343_4456" x1="52.8206" y1="24.7532" x2="56.5702" y2="24.7532" gradientUnits="userSpaceOnUse">
<stop stop-color="#223962"/>
<stop offset="0.526042" stop-color="#3277BC"/>
<stop offset="0.973958" stop-color="#48ABDF"/>
</linearGradient>
<linearGradient id="paint5_linear_343_4456" x1="26.1597" y1="13.0421" x2="27.9175" y2="13.0421" gradientUnits="userSpaceOnUse">
<stop stop-color="#223962"/>
<stop offset="0.526042" stop-color="#3277BC"/>
<stop offset="0.973958" stop-color="#48ABDF"/>
</linearGradient>
<linearGradient id="paint6_linear_343_4456" x1="31.8413" y1="13.0421" x2="33.5991" y2="13.0421" gradientUnits="userSpaceOnUse">
<stop stop-color="#223962"/>
<stop offset="0.526042" stop-color="#3277BC"/>
<stop offset="0.973958" stop-color="#48ABDF"/>
</linearGradient>
<clipPath id="clip0_343_4456">
<rect width="60" height="60" fill="white"/>
</clipPath>
</defs>
</svg>
