<svg width="59" height="60" viewBox="0 0 59 60" fill="none" xmlns="http://www.w3.org/2000/svg">
<g clip-path="url(#clip0_390_5373)">
<path d="M57.4359 25.295C56.4539 24.4395 54.9703 24.4372 53.9847 25.2879L45.5554 32.5711C45.4218 32.3403 45.2566 32.1247 45.0632 31.9313C43.9253 30.7934 42.1324 30.7079 40.8902 31.7297L33.5906 37.7403C31.7976 39.2168 30.7687 41.3965 30.7687 43.7192V48.9165C30.2976 49.3254 29.9988 49.9266 29.9988 50.5969V59.12C29.9988 59.6051 30.3914 59.9977 30.8765 59.9977C31.3617 59.9977 31.7542 59.6051 31.7542 59.12V50.5969C31.7542 50.3356 31.9664 50.1235 32.2277 50.1235H42.9457C43.207 50.1235 43.4191 50.3356 43.4191 50.5969V59.12C43.4191 59.6051 43.8117 59.9977 44.2968 59.9977C44.782 59.9977 45.1746 59.6051 45.1746 59.12V50.5969C45.1746 49.745 44.6941 49.0044 43.9898 48.6294V44.7047L45.9902 43.9594C47.6742 43.3325 49.0839 42.2063 50.0671 40.704L57.9105 28.7204C58.6277 27.6258 58.4238 26.1516 57.4371 25.2926L57.4359 25.295ZM56.441 27.7618L48.5976 39.7454C47.8207 40.9325 46.7062 41.8219 45.3773 42.3176L41.8875 43.6172C41.4328 43.786 41.2019 44.2922 41.3707 44.7458C41.5019 45.0997 41.8371 45.3176 42.1933 45.3176C42.2062 45.3176 42.2203 45.3165 42.2343 45.3153V48.3704H32.5242V43.7204C32.5242 41.9239 33.3199 40.2387 34.7062 39.0961L42.0058 33.0856C42.546 32.6415 43.3265 32.679 43.821 33.1735C44.3484 33.7008 44.3484 34.5586 43.821 35.086L40.9417 37.9653C40.5984 38.3086 40.5984 38.8641 40.9417 39.2063C41.2851 39.5497 41.8406 39.5497 42.1828 39.2063L45.0621 36.327C45.5472 35.8419 45.8507 35.2254 45.9421 34.5575L55.132 26.618C55.4601 26.3344 55.9546 26.3356 56.2828 26.6204C56.6121 26.9063 56.68 27.3985 56.441 27.7629V27.7618Z" fill="url(#paint0_linear_390_5373)"/>
<path d="M27.5672 48.9176V43.7203C27.5672 41.4281 26.5594 39.2672 24.8039 37.7918C24.4324 37.4801 23.8793 37.5281 23.5676 37.8996C23.2558 38.2711 23.3039 38.8242 23.6754 39.1359C25.0336 40.2773 25.8129 41.9484 25.8129 43.7203V48.3703H16.1039V45.3152C16.1168 45.3152 16.1308 45.3164 16.1449 45.3164C16.5012 45.3164 16.8363 45.0984 16.9676 44.7445C17.1363 44.2899 16.9055 43.7848 16.4508 43.616L12.9609 42.3164C11.6308 41.8207 10.5176 40.9313 9.74061 39.7441L1.89608 27.7617C1.65702 27.3973 1.72499 26.9051 2.05428 26.6191C2.38124 26.3344 2.87577 26.3332 3.20506 26.6168L12.3961 34.5586C12.4851 35.2055 12.7781 35.8301 13.275 36.327L16.1543 39.2063C16.3254 39.3773 16.5504 39.4629 16.7754 39.4629C17.0004 39.4629 17.2242 39.3773 17.3965 39.2063C17.7398 38.8629 17.7398 38.3074 17.3965 37.9652L14.5172 35.0859C13.9898 34.5586 13.9898 33.7008 14.5172 33.1734C15.0117 32.6789 15.7922 32.6414 16.3324 33.0856L20.7328 36.709C21.1066 37.0172 21.6598 36.9633 21.968 36.5895C22.2762 36.2156 22.2223 35.6625 21.8484 35.3543L17.448 31.7309C16.2058 30.7078 14.4129 30.7945 13.275 31.9324C13.0793 32.1281 12.9152 32.3438 12.7828 32.5723L4.35233 25.2879C3.36678 24.4359 1.88319 24.4395 0.901159 25.2949C-0.0855599 26.1539 -0.289466 27.6281 0.427721 28.7227L8.27108 40.7063C9.25428 42.2098 10.6652 43.3348 12.348 43.9617L14.3484 44.707V48.6316C13.6441 49.0066 13.1637 49.7473 13.1637 50.5992V59.1223C13.1637 59.6074 13.5562 60 14.0414 60C14.5265 60 14.9191 59.6074 14.9191 59.1223V50.5992C14.9191 50.3379 15.1312 50.1258 15.3926 50.1258H26.1105C26.3719 50.1258 26.584 50.3379 26.584 50.5992V59.1223C26.584 59.6074 26.9765 60 27.4617 60C27.9469 60 28.3394 59.6074 28.3394 59.1223V50.5992C28.3394 49.9289 28.0406 49.3277 27.5695 48.9188L27.5672 48.9176Z" fill="url(#paint1_linear_390_5373)"/>
<path d="M14.3719 27.8062C22.0383 27.8062 28.275 21.5695 28.275 13.9031C28.275 6.23672 22.0383 0 14.3719 0C6.70547 0 0.46875 6.23672 0.46875 13.9031C0.46875 21.5695 6.70547 27.8062 14.3719 27.8062ZM14.3719 1.75547C21.0703 1.75547 26.5195 7.20469 26.5195 13.9031C26.5195 20.6016 21.0703 26.0508 14.3719 26.0508C7.67344 26.0508 2.22422 20.6016 2.22422 13.9031C2.22422 7.20469 7.67344 1.75547 14.3719 1.75547Z" fill="url(#paint2_linear_390_5373)"/>
<path d="M11.2699 19.4169C11.7609 19.8821 12.4043 20.1387 13.0804 20.1387C13.7953 20.1387 14.4633 19.8575 14.9636 19.3465L16.8281 17.4399C17.1668 17.093 17.1609 16.5376 16.814 16.1989C16.4672 15.8602 15.9117 15.8661 15.573 16.213L13.7086 18.1196C13.5422 18.2895 13.3183 18.3833 13.0804 18.3833C12.8554 18.3833 12.641 18.2977 12.4769 18.143L9.84372 15.6481L11.0519 14.3743L12.0738 15.3434C12.6164 15.8579 13.4824 15.8415 14.005 15.3071L19.1343 10.0618L20.3894 11.2887L18.1886 13.5399C17.85 13.8868 17.8558 14.4423 18.2027 14.7809C18.5496 15.1196 19.105 15.1137 19.4437 14.7669L21.9093 12.245C22.166 11.9825 22.3054 11.6344 22.3019 11.2676C22.2984 10.9008 22.1508 10.5563 21.8883 10.2985L20.0918 8.54186C19.8293 8.28522 19.4824 8.1446 19.1144 8.14928C18.7465 8.1528 18.4031 8.30046 18.1453 8.56296L13.0113 13.8118L11.9847 12.8391C11.7175 12.586 11.3683 12.4512 11.0004 12.4618C10.6324 12.4712 10.2914 12.6247 10.0383 12.8907L8.30973 14.7153C7.78708 15.2661 7.81052 16.1391 8.36247 16.6618L11.2699 19.418V19.4169Z" fill="url(#paint3_linear_390_5373)"/>
<path d="M43.9653 27.8062C47.2278 27.8062 50.3989 26.6531 52.8961 24.5578C53.2676 24.2461 53.3156 23.693 53.0039 23.3215C52.6922 22.95 52.1391 22.902 51.7676 23.2137C49.5867 25.0441 46.8153 26.0508 43.9653 26.0508C37.2668 26.0508 31.8176 20.6016 31.8176 13.9031C31.8176 7.20469 37.2668 1.75547 43.9653 1.75547C50.6637 1.75547 56.1129 7.20469 56.1129 13.9031C56.1129 16.2996 55.4156 18.6176 54.0961 20.6062C53.8278 21.0105 53.9379 21.5555 54.3422 21.8227C54.7465 22.091 55.2914 21.9797 55.5586 21.5766C57.0692 19.2984 57.8672 16.6453 57.8672 13.9031C57.8684 6.23672 51.6305 0 43.9653 0C36.3 0 30.0621 6.23672 30.0621 13.9031C30.0621 21.5695 36.2989 27.8062 43.9653 27.8062Z" fill="url(#paint4_linear_390_5373)"/>
<path d="M51.1042 8.94601L49.091 6.88469C48.8343 6.62219 48.4921 6.4757 48.1253 6.47101C47.7585 6.46633 47.4128 6.60461 47.1503 6.86125L43.964 9.97258L40.7765 6.86008C40.514 6.60344 40.1683 6.46515 39.8015 6.46984C39.4347 6.47453 39.0925 6.62101 38.8359 6.88351L36.8226 8.94484C36.566 9.20734 36.4277 9.55305 36.4324 9.91984C36.4371 10.2866 36.5835 10.6288 36.846 10.8855L39.9374 13.9042L36.846 16.923C36.5835 17.1796 36.4371 17.5218 36.4324 17.8886C36.4277 18.2554 36.5671 18.6011 36.8226 18.8636L38.8359 20.9249C39.0925 21.1874 39.4347 21.3339 39.8015 21.3386C39.8074 21.3386 39.8132 21.3386 39.8179 21.3386C40.1777 21.3386 40.5175 21.2003 40.7765 20.9484L43.964 17.8359L47.1503 20.9472C47.4128 21.2038 47.7609 21.3398 48.1253 21.3374C48.4921 21.3327 48.8343 21.1862 49.091 20.9237L51.1042 18.8624C51.6328 18.321 51.6222 17.4515 51.0808 16.923L47.9906 13.9054L51.0808 10.8878C51.6222 10.3593 51.6316 9.48976 51.1042 8.94836V8.94601ZM46.1214 13.2749C45.9527 13.4402 45.8566 13.6663 45.8566 13.903C45.8566 14.1398 45.9515 14.3659 46.1214 14.5312L49.5808 17.9085L48.1031 19.4214L44.5781 15.9796C44.2371 15.6468 43.6921 15.6468 43.3511 15.9796L39.8249 19.4226L38.3472 17.9097L41.8078 14.5312C41.9765 14.3659 42.0726 14.1398 42.0726 13.903C42.0726 13.6663 41.9777 13.4402 41.8078 13.2749L38.3472 9.8964L39.8249 8.38351L43.3511 11.8265C43.6921 12.1593 44.2359 12.1593 44.5781 11.8265L48.1031 8.38469L49.5808 9.89758L46.1214 13.2749Z" fill="url(#paint5_linear_390_5373)"/>
</g>
<defs>
<linearGradient id="paint0_linear_390_5373" x1="29.9988" y1="42.3247" x2="58.3379" y2="42.3247" gradientUnits="userSpaceOnUse">
<stop stop-color="#223962"/>
<stop offset="0.526042" stop-color="#3277BC"/>
<stop offset="0.973958" stop-color="#48ABDF"/>
</linearGradient>
<linearGradient id="paint1_linear_390_5373" x1="0.000366105" y1="42.3256" x2="28.3394" y2="42.3256" gradientUnits="userSpaceOnUse">
<stop stop-color="#223962"/>
<stop offset="0.526042" stop-color="#3277BC"/>
<stop offset="0.973958" stop-color="#48ABDF"/>
</linearGradient>
<linearGradient id="paint2_linear_390_5373" x1="0.46875" y1="13.9031" x2="28.275" y2="13.9031" gradientUnits="userSpaceOnUse">
<stop stop-color="#223962"/>
<stop offset="0.526042" stop-color="#3277BC"/>
<stop offset="0.973958" stop-color="#48ABDF"/>
</linearGradient>
<linearGradient id="paint3_linear_390_5373" x1="7.93262" y1="14.144" x2="22.302" y2="14.144" gradientUnits="userSpaceOnUse">
<stop stop-color="#223962"/>
<stop offset="0.526042" stop-color="#3277BC"/>
<stop offset="0.973958" stop-color="#48ABDF"/>
</linearGradient>
<linearGradient id="paint4_linear_390_5373" x1="30.0621" y1="13.9031" x2="57.8672" y2="13.9031" gradientUnits="userSpaceOnUse">
<stop stop-color="#223962"/>
<stop offset="0.526042" stop-color="#3277BC"/>
<stop offset="0.973958" stop-color="#48ABDF"/>
</linearGradient>
<linearGradient id="paint5_linear_390_5373" x1="36.4323" y1="13.9042" x2="51.4938" y2="13.9042" gradientUnits="userSpaceOnUse">
<stop stop-color="#223962"/>
<stop offset="0.526042" stop-color="#3277BC"/>
<stop offset="0.973958" stop-color="#48ABDF"/>
</linearGradient>
<clipPath id="clip0_390_5373">
<rect width="58.3371" height="60" fill="white"/>
</clipPath>
</defs>
</svg>
