<svg width="60" height="60" viewBox="0 0 60 60" fill="none" xmlns="http://www.w3.org/2000/svg">
<g clip-path="url(#clip0_1_4513)">
<path d="M25.9796 33.1543H4.90017C4.41454 33.1543 4.02091 33.5479 4.02091 34.0336V55.1131C4.02091 55.5987 4.41454 55.9923 4.90017 55.9923H25.9796C26.4652 55.9923 26.8588 55.5987 26.8588 55.1131V34.0336C26.8588 33.548 26.4651 33.1543 25.9796 33.1543ZM25.1003 54.2338H5.77942V34.9128H25.1003V54.2338Z" fill="url(#paint0_linear_1_4513)"/>
<path d="M40.5581 4.01465H32.0388C31.553 4.01465 31.1595 4.40828 31.1595 4.8939C31.1595 5.37953 31.553 5.77316 32.0388 5.77316H39.6789V25.1314H20.3208V5.77316H27.9356C28.4212 5.77316 28.8148 5.37953 28.8148 4.8939C28.8148 4.40828 28.4212 4.01465 27.9356 4.01465H19.4416C18.956 4.01465 18.5623 4.40828 18.5623 4.8939V26.0107C18.5623 26.4963 18.956 26.89 19.4416 26.89H40.5581C41.0439 26.89 41.4374 26.4963 41.4374 26.0107V4.8939C41.4374 4.40828 41.0439 4.01465 40.5581 4.01465Z" fill="url(#paint1_linear_1_4513)"/>
<path d="M55.0999 43.4009C55.5857 43.4009 55.9792 43.0073 55.9792 42.5217V34.0336C55.9791 33.5479 55.5855 33.1543 55.0998 33.1543H34.0205C33.5348 33.1543 33.1413 33.5479 33.1413 34.0336V55.1131C33.1413 55.5987 33.5348 55.9923 34.0205 55.9923H55.0999C55.5857 55.9923 55.9792 55.5987 55.9792 55.1131V46.625C55.9792 46.1394 55.5857 45.7457 55.0999 45.7457C54.6142 45.7457 54.2207 46.1394 54.2207 46.625V54.2338H34.8998V34.9127H54.2207V42.5215C54.2207 43.0072 54.6142 43.4009 55.0999 43.4009Z" fill="url(#paint2_linear_1_4513)"/>
<path d="M55.3121 29.1465H44.4236C45.0663 28.3448 45.4521 27.3285 45.4521 26.2233V4.68163C45.4521 2.10011 43.3521 0 40.7708 0H19.2292C16.6476 0 14.5475 2.10011 14.5475 4.68163V26.2233C14.5475 27.3285 14.9333 28.3447 15.5762 29.1465H4.68818C2.11041 29.1465 0.0132294 31.2437 0.0132294 33.8214V55.3249C0.0132294 57.9027 2.11041 59.9999 4.68818 59.9999H26.1916C27.7613 59.9999 29.1517 59.2213 29.9999 58.0309C30.8481 59.2213 32.2388 59.9999 33.8085 59.9999H55.3119C57.8896 59.9999 59.9866 57.9027 59.9866 55.3249V33.8214C59.9869 31.2437 57.8898 29.1465 55.3121 29.1465ZM29.1078 55.3249C29.1078 56.9331 27.7995 58.2414 26.1916 58.2414H4.68818C3.08002 58.2414 1.77174 56.933 1.77174 55.3249V33.8214C1.77174 32.2133 3.08014 30.905 4.68818 30.905C5.43548 30.905 25.4447 30.905 26.1916 30.905C27.7996 30.905 29.1078 32.2134 29.1078 33.8214V55.3249ZM19.2292 29.1465C17.6173 29.1465 16.306 27.8351 16.306 26.2233V4.68163C16.306 3.06972 17.6175 1.75851 19.2292 1.75851H40.7707C42.3824 1.75851 43.6936 3.06984 43.6936 4.68163V26.2233C43.6936 27.8353 42.3823 29.1465 40.7707 29.1465C39.5733 29.1465 20.4671 29.1465 19.2292 29.1465ZM58.2283 55.3249C58.2283 56.9331 56.9201 58.2414 55.3121 58.2414H33.8088C32.2005 58.2414 30.8922 56.933 30.8922 55.3249V33.8214C30.8922 32.2133 32.2005 30.905 33.8088 30.905C34.5576 30.905 54.5653 30.905 55.3121 30.905C56.9202 30.905 58.2283 32.2134 58.2283 33.8214V55.3249Z" fill="url(#paint3_linear_1_4513)"/>
</g>
<defs>
<linearGradient id="paint0_linear_1_4513" x1="4.02091" y1="44.5733" x2="26.8588" y2="44.5733" gradientUnits="userSpaceOnUse">
<stop stop-color="#223962"/>
<stop offset="0.526042" stop-color="#3277BC"/>
<stop offset="0.973958" stop-color="#48ABDF"/>
</linearGradient>
<linearGradient id="paint1_linear_1_4513" x1="18.5623" y1="15.4523" x2="41.4374" y2="15.4523" gradientUnits="userSpaceOnUse">
<stop stop-color="#223962"/>
<stop offset="0.526042" stop-color="#3277BC"/>
<stop offset="0.973958" stop-color="#48ABDF"/>
</linearGradient>
<linearGradient id="paint2_linear_1_4513" x1="33.1413" y1="44.5733" x2="55.9792" y2="44.5733" gradientUnits="userSpaceOnUse">
<stop stop-color="#223962"/>
<stop offset="0.526042" stop-color="#3277BC"/>
<stop offset="0.973958" stop-color="#48ABDF"/>
</linearGradient>
<linearGradient id="paint3_linear_1_4513" x1="0.0132291" y1="30" x2="59.9866" y2="30" gradientUnits="userSpaceOnUse">
<stop stop-color="#223962"/>
<stop offset="0.526042" stop-color="#3277BC"/>
<stop offset="0.973958" stop-color="#48ABDF"/>
</linearGradient>
<clipPath id="clip0_1_4513">
<rect width="60" height="60" fill="white"/>
</clipPath>
</defs>
</svg>
