<svg width="47" height="60" viewBox="0 0 47 60" fill="none" xmlns="http://www.w3.org/2000/svg">
<g clip-path="url(#clip0_502_4593)">
<path fill-rule="evenodd" clip-rule="evenodd" d="M46.5718 42.0607C46.5718 42.5458 46.178 42.9396 45.6929 42.9396V42.9384C45.2077 42.9384 44.814 42.5447 44.814 42.0595V38.9635C41.0465 42.213 36.5489 44.4114 31.6658 45.3806V52.7867C31.6715 52.789 31.6774 52.7911 31.6833 52.7931L31.6963 52.7972C31.7065 52.8004 31.7168 52.8037 31.7267 52.8078L43.5952 57.4811C43.8741 57.5913 44.1765 57.5573 44.4249 57.3885C44.6733 57.2198 44.8151 56.9514 44.8151 56.6514V46.1634C44.8151 45.6782 45.2089 45.2845 45.694 45.2845C46.1792 45.2845 46.5729 45.6782 46.5729 46.1634V56.6514C46.5729 57.5291 46.1393 58.3471 45.414 58.8416C44.6886 59.3361 43.7675 59.4381 42.9507 59.117L31.0822 54.4437C31.0131 54.4167 30.9404 54.3991 30.8678 54.3898C30.8408 54.3921 30.8139 54.3933 30.7869 54.3933C30.7482 54.3933 30.7107 54.3898 30.6732 54.3851C30.59 54.3933 30.508 54.412 30.4283 54.4437L16.788 59.8143C16.4739 59.9373 16.1446 59.9994 15.8165 59.9994C15.4884 59.9994 15.1591 59.9373 14.8462 59.8143L1.67926 54.63C0.658581 54.2292 0 53.2613 0 52.1644V26.9837C0 26.4985 0.393742 26.1048 0.878889 26.1048C1.36404 26.1048 1.75778 26.4985 1.75778 26.9837V52.1644C1.75778 52.5335 1.98043 52.8605 2.32378 52.9953L14.9505 57.9662V2.03258L2.32378 7.00357C1.97926 7.13951 1.75778 7.46528 1.75778 7.83442V22.8822C1.75778 23.3673 1.36404 23.7611 0.878889 23.7611C0.393742 23.7611 0 23.3673 0 22.8822V7.83442C0 6.73756 0.659753 5.76961 1.67926 5.36884L14.8462 0.184567C15.472 -0.0615222 16.1622 -0.0615222 16.788 0.184567L30.4271 5.55516C30.5068 5.5868 30.5889 5.60555 30.6721 5.61376C30.7096 5.60907 30.7471 5.60555 30.7857 5.60555C30.8127 5.60555 30.8385 5.60673 30.8654 5.60907C30.9381 5.59969 31.0107 5.58212 31.081 5.55516L42.9496 0.881819C43.7663 0.560731 44.6874 0.662682 45.4128 1.1572C46.1382 1.65055 46.5718 2.46968 46.5718 3.3474V42.0607ZM16.7083 2.04195V57.9569L29.7838 52.8089C29.8103 52.798 29.8379 52.7891 29.8655 52.7803L29.8867 52.7735L29.9068 52.7667V7.23208C29.8932 7.2274 29.8795 7.22297 29.8658 7.21855C29.8385 7.20969 29.8111 7.20084 29.7838 7.1899L16.7083 2.04195ZM31.6658 7.21099V43.5888L31.667 43.5865C36.6227 42.5365 41.1426 40.1307 44.8151 36.5846V3.34622C44.8151 3.04623 44.6733 2.77788 44.4249 2.60913C44.1765 2.44038 43.8741 2.4064 43.5952 2.51655L31.7267 7.1899C31.714 7.19512 31.7009 7.19939 31.6879 7.20362L31.6878 7.20363L31.6878 7.20364L31.6878 7.20364L31.6878 7.20365L31.6877 7.20366C31.6803 7.20606 31.673 7.20845 31.6658 7.21099ZM40.1376 16.6609C40.5688 16.5753 41.0106 16.6878 41.3505 16.9667L41.3493 16.9679C41.6891 17.2468 41.8836 17.6593 41.8836 18.0987V33.1664C41.8836 33.5754 41.7114 33.9679 41.4102 34.2445C41.1395 34.4941 40.7833 34.6312 40.4177 34.6312C40.3766 34.6312 40.3356 34.63 40.2946 34.6265L35.9353 34.2574C35.1842 34.1929 34.5947 33.5519 34.5947 32.7973V18.9542C34.5947 18.2546 35.0928 17.6511 35.7783 17.5163L40.1376 16.6609ZM36.3537 32.5266L40.127 32.8465V18.4538L36.3537 19.1944V32.5266ZM5.18183 28.7758C5.45018 29.0125 5.79588 29.1414 6.14978 29.1414C6.20954 29.1414 6.27048 29.1379 6.33141 29.1297L10.7387 28.5789C11.4688 28.4875 12.0208 27.8641 12.0208 27.1282V8.34339C12.0208 7.89105 11.7969 7.46802 11.4231 7.21372C11.0493 6.95943 10.5735 6.90553 10.1528 7.07193L5.55448 8.88244C5.02831 9.08986 4.68848 9.58907 4.68848 10.1539V27.6801C4.68848 28.0996 4.86894 28.4992 5.183 28.7758H5.18183ZM6.44508 10.4199L10.263 8.91642V26.868L6.44508 27.345V10.4199ZM11.1421 35.123H5.56639C5.08124 35.123 4.6875 34.7293 4.6875 34.2441C4.6875 33.759 5.08124 33.3652 5.56639 33.3652H11.1421C11.6272 33.3652 12.021 33.759 12.021 34.2441C12.021 34.7293 11.6272 35.123 11.1421 35.123ZM11.2146 37.8136L5.63891 37.3448C5.15611 37.305 4.73072 37.6636 4.68971 38.1475C4.64869 38.6315 5.00845 39.0557 5.49243 39.0967L11.0681 39.5655C11.0927 39.5678 11.1185 39.569 11.1431 39.569C11.5954 39.569 11.9798 39.2221 12.0185 38.7639C12.0595 38.28 11.6997 37.8557 11.2158 37.8147L11.2146 37.8136ZM5.69415 41.328L11.2698 42.1483C11.7503 42.2186 12.0819 42.6651 12.0116 43.1456C11.9472 43.5827 11.5722 43.8967 11.1433 43.8967C11.1011 43.8967 11.0577 43.8932 11.0144 43.8873L5.43868 43.0671C4.95822 42.9967 4.62659 42.5503 4.6969 42.0698C4.76721 41.5893 5.21369 41.2565 5.69415 41.328ZM5.23804 50.9843L10.8137 53.2296C10.9215 53.2729 11.0329 53.2929 11.1418 53.2929C11.4899 53.2929 11.8192 53.0843 11.9574 52.7421C12.1391 52.2921 11.9211 51.78 11.47 51.5984L5.89428 49.3531C5.44429 49.1715 4.93219 49.3894 4.75055 49.8406C4.56891 50.2906 4.78688 50.8027 5.23804 50.9843ZM5.78298 45.3105L11.3586 46.7355C11.8286 46.855 12.1133 47.3343 11.9926 47.8042C11.8918 48.2027 11.5344 48.4663 11.1419 48.4663C11.0704 48.4663 10.9965 48.457 10.9239 48.4382L5.34822 47.0132C4.87831 46.8937 4.59355 46.4144 4.71425 45.9445C4.83378 45.4746 5.31306 45.191 5.78298 45.3105ZM26.4581 31.2295C26.144 30.9518 25.7257 30.8229 25.3085 30.8744L20.9 31.4252C20.1699 31.5166 19.6191 32.14 19.6191 32.8759V51.6619C19.6191 52.1142 19.843 52.5373 20.2168 52.7916C20.4476 52.9486 20.716 53.0295 20.9867 53.0295C21.1554 53.0295 21.3254 52.9978 21.4871 52.9345L26.0854 51.124C26.6116 50.9166 26.9514 50.4174 26.9514 49.8526V32.3263C26.9514 31.9068 26.771 31.5072 26.4569 31.2307L26.4581 31.2295ZM25.1948 49.5854L21.3769 51.0889V33.1373L25.1948 32.6603V49.5854ZM20.498 24.8809H26.0737C26.5588 24.8809 26.9526 25.2746 26.9526 25.7597C26.9526 26.2449 26.5588 26.6386 26.0737 26.6386H20.498C20.0129 26.6386 19.6191 26.2449 19.6191 25.7597C19.6191 25.2746 20.0129 24.8809 20.498 24.8809ZM20.4241 22.1914L25.9997 22.6602C26.0243 22.6625 26.0501 22.6637 26.0747 22.6637C26.5271 22.6637 26.9114 22.3168 26.9489 21.8586C26.99 21.3747 26.6302 20.9504 26.1462 20.9094L20.5705 20.4407C20.0877 20.3997 19.6612 20.7594 19.6213 21.2434C19.5803 21.7274 19.9401 22.1516 20.4241 22.1926V22.1914ZM25.946 18.6784L20.3703 17.8581C19.8899 17.7878 19.5582 17.3413 19.6285 16.8608C19.6989 16.3804 20.1453 16.0476 20.6258 16.119L26.2015 16.9393C26.6819 17.0096 27.0136 17.4561 26.9432 17.9366C26.8788 18.3737 26.5038 18.6877 26.0749 18.6877C26.0327 18.6877 25.9894 18.6842 25.946 18.6784ZM26.4016 9.02024L20.8259 6.77497C20.3759 6.59333 19.8638 6.81129 19.6822 7.26246C19.5006 7.71245 19.7185 8.22455 20.1697 8.40618L25.7454 10.6515C25.8532 10.6948 25.9645 10.7147 26.0735 10.7147C26.4215 10.7147 26.7508 10.5061 26.8891 10.164C27.0707 9.71397 26.8528 9.20187 26.4016 9.02024ZM25.8555 14.6933L20.2799 13.2695C19.8099 13.15 19.5252 12.6707 19.6459 12.2008C19.7654 11.7308 20.2447 11.4461 20.7146 11.5668L26.2903 12.9906C26.7602 13.1101 27.045 13.5894 26.9243 14.0593C26.8235 14.4566 26.4661 14.7214 26.0735 14.7214C26.002 14.7214 25.9282 14.712 25.8555 14.6933ZM35.2989 10.7146C35.4079 10.7146 35.5192 10.6935 35.627 10.6513L41.2027 8.40603C41.6527 8.22439 41.8707 7.7123 41.6902 7.2623C41.5086 6.81231 40.9965 6.59318 40.5465 6.77481L34.9708 9.02008C34.5208 9.20172 34.3028 9.71382 34.4833 10.1638C34.6216 10.506 34.9509 10.7146 35.2989 10.7146ZM35.5164 14.6929C35.4437 14.7116 35.3711 14.721 35.2984 14.721C34.907 14.721 34.5496 14.4562 34.4476 14.0589C34.3269 13.589 34.6117 13.1109 35.0816 12.9902L40.6573 11.5664C41.1272 11.4469 41.6053 11.7305 41.726 12.2004C41.8467 12.6703 41.562 13.1484 41.092 13.2691L35.5164 14.6929Z" fill="url(#paint0_linear_502_4593)"/>
</g>
<defs>
<linearGradient id="paint0_linear_502_4593" x1="-1.73498e-07" y1="29.9997" x2="46.5729" y2="29.9997" gradientUnits="userSpaceOnUse">
<stop stop-color="#223962"/>
<stop offset="0.526042" stop-color="#3277BC"/>
<stop offset="0.973958" stop-color="#48ABDF"/>
</linearGradient>
<clipPath id="clip0_502_4593">
<rect width="46.5717" height="60" fill="white"/>
</clipPath>
</defs>
</svg>
