<svg width="60" height="50" viewBox="0 0 60 50" fill="none" xmlns="http://www.w3.org/2000/svg">
<g clip-path="url(#clip0_502_4559)">
<path fill-rule="evenodd" clip-rule="evenodd" d="M19.1083 5.61172C19.7071 5.47578 20.3235 5.40664 20.9423 5.40664C23.1594 5.40664 25.2383 6.27383 26.7981 7.84883C27.0008 8.05391 27.2903 8.14531 27.5739 8.09609C27.8575 8.04688 28.0989 7.86055 28.2196 7.59922C29.8614 4.05195 33.4485 1.75859 37.3579 1.75859C42.9079 1.75859 47.4231 6.27266 47.4231 11.8227C47.4231 12.3922 47.3762 12.9594 47.2825 13.5078C47.2391 13.7633 47.3106 14.0246 47.4782 14.2215C47.6446 14.4195 47.8907 14.5332 48.1497 14.5332H49.2184C51.6618 14.5332 53.9598 15.4848 55.6883 17.2133C56.9048 18.4297 57.7508 19.9543 58.134 21.6219C58.2278 22.0285 58.5899 22.3039 58.9895 22.3039C59.0551 22.3039 59.1208 22.2969 59.1876 22.2816C59.661 22.1727 59.9563 21.7016 59.8473 21.2281C59.3891 19.2395 58.3813 17.4207 56.9317 15.9711C54.8715 13.9109 52.1329 12.7766 49.2196 12.7766H49.1446C49.1692 12.4602 49.1821 12.1426 49.1821 11.8238C49.1821 5.30586 43.8782 0.00195312 37.359 0.00195312C33.1614 0.00195312 29.2801 2.25313 27.1708 5.82383C25.4083 4.41406 23.2356 3.65 20.9434 3.65C20.1946 3.65 19.4469 3.7332 18.7204 3.89844C18.2469 4.00625 17.9505 4.47734 18.0583 4.95078C18.1661 5.42422 18.6372 5.7207 19.1106 5.61289L19.1083 5.61172ZM10.732 34.5864C11.2102 34.5864 11.6027 34.2032 11.6109 33.7228C11.6191 33.2376 11.2324 32.8368 10.7473 32.8286C8.36484 32.7888 6.12422 31.8372 4.43789 30.1509C2.70937 28.4224 1.75781 26.1255 1.75781 23.681C1.75781 18.636 5.86172 14.5321 10.9066 14.5321H11.823C12.3082 14.5321 12.702 14.1302 12.702 13.645C12.702 11.0446 13.8914 8.65167 15.9668 7.07784C16.3535 6.78487 16.4297 6.23292 16.1367 5.8462C15.8438 5.45948 15.2918 5.38331 14.9051 5.67628C12.6234 7.40597 11.2242 9.95479 10.9828 12.7732H10.9078C4.89258 12.7743 0 17.6681 0 23.6821C0 26.5954 1.13438 29.3341 3.19453 31.3942C5.2043 33.404 7.87617 34.5384 10.7168 34.5864H10.732ZM58.2531 25.127C58.3293 24.6477 58.7805 24.3196 59.2586 24.3958H59.2516C59.732 24.4719 60.059 24.9219 59.9828 25.4012C59.5809 27.9383 58.2836 30.2633 56.3277 31.9485C54.3508 33.6524 51.823 34.5899 49.2109 34.5899H41.8785V36.8153L48.6883 40.2207C48.9859 40.3696 49.1746 40.6743 49.1746 41.0071V43.9239C50.234 44.2895 50.998 45.2961 50.998 46.4786C50.998 47.968 49.7852 49.1809 48.2957 49.1809C46.8062 49.1809 45.5934 47.9692 45.5934 46.4786C45.5934 45.2961 46.3563 44.2895 47.4168 43.9239V41.5508L40.607 38.1454C40.3094 37.9965 40.1207 37.6918 40.1207 37.359V34.5911H36.407V36.9958L39.7973 40.386C39.9625 40.55 40.0551 40.7739 40.0551 41.0071V43.9239C41.1145 44.2895 41.8785 45.2961 41.8785 46.4786C41.8785 47.968 40.6656 49.1809 39.1762 49.1809C37.6867 49.1809 36.4738 47.9692 36.4738 46.4786C36.4738 45.2961 37.2367 44.2895 38.2973 43.9239V41.3715L34.907 37.9813C34.7418 37.8172 34.6492 37.5934 34.6492 37.3602V34.5922H30.9355V43.925C31.9949 44.2907 32.759 45.2973 32.759 46.4797C32.759 47.9692 31.5461 49.1821 30.0566 49.1821C28.5672 49.1821 27.3543 47.9704 27.3543 46.4797C27.3543 45.2973 28.1172 44.2907 29.1777 43.925V34.5922H25.4641V37.3602C25.4641 37.5934 25.3715 37.8161 25.2062 37.9813L21.816 41.3715V43.9239C22.8754 44.2895 23.6395 45.2961 23.6395 46.4786C23.6395 47.968 22.4266 49.1809 20.9371 49.1809C19.4477 49.1809 18.2348 47.9692 18.2348 46.4786C18.2348 45.2961 18.9977 44.2895 20.0582 43.9239V41.0071C20.0582 40.7739 20.1508 40.5512 20.316 40.386L23.7062 36.9958V34.5911H19.9926V37.359C19.9926 37.6918 19.8039 37.9965 19.5063 38.1454L12.6965 41.5508V43.9239C13.7559 44.2895 14.5199 45.2961 14.5199 46.4786C14.5199 47.968 13.307 49.1809 11.8176 49.1809C10.3281 49.1809 9.11523 47.9692 9.11523 46.4786C9.11523 45.2961 9.87812 44.2895 10.9387 43.9239V41.0071C10.9387 40.6743 11.1273 40.3696 11.425 40.2207L18.2348 36.8153V34.5899H14.5656C14.0805 34.5899 13.6867 34.1961 13.6867 33.711C13.6867 33.2258 14.0805 32.8321 14.5656 32.8321H19.1066H19.1137H19.1207H24.5793H24.5863H24.5934H30.052H30.059H30.066H35.5246H35.5316H35.5387H40.9973H41.0043H41.0113H49.2168C51.4094 32.8321 53.5293 32.0458 55.1863 30.6172C56.8281 29.204 57.9168 27.254 58.2531 25.127ZM10.8789 46.4786C10.8789 46.9989 11.302 47.4231 11.8234 47.4231C12.3438 47.4231 12.768 46.9989 12.768 46.4786C12.768 45.9582 12.3438 45.534 11.8234 45.534C11.3031 45.534 10.8789 45.9582 10.8789 46.4786ZM19.9984 46.4786C19.9984 46.9989 20.4215 47.4231 20.943 47.4231C21.4633 47.4231 21.8875 46.9989 21.8875 46.4786C21.8875 45.9582 21.4633 45.534 20.943 45.534C20.4227 45.534 19.9984 45.9582 19.9984 46.4786ZM29.118 46.4786C29.118 46.9989 29.541 47.4231 30.0625 47.4231C30.5828 47.4231 31.007 46.9989 31.007 46.4786C31.007 45.9582 30.5828 45.534 30.0625 45.534C29.5422 45.534 29.118 45.9582 29.118 46.4786ZM38.2375 46.4786C38.2375 46.9989 38.6605 47.4231 39.182 47.4231C39.7023 47.4231 40.1266 46.9989 40.1266 46.4786C40.1266 45.9582 39.7023 45.534 39.182 45.534C38.6617 45.534 38.2375 45.9582 38.2375 46.4786ZM47.357 46.4786C47.357 46.9989 47.7801 47.4231 48.3016 47.4231C48.8219 47.4231 49.2461 46.9989 49.2461 46.4786C49.2461 45.9582 48.8219 45.534 48.3016 45.534C47.7812 45.534 47.357 45.9582 47.357 46.4786ZM39.4018 23.0172C39.7896 22.9176 40.0615 22.5672 40.0615 22.1664V19.7184C40.0615 19.3176 39.7908 18.9672 39.4018 18.8676L37.8268 18.4609C37.6885 18.0285 37.515 17.6102 37.3076 17.207L38.1338 15.8055C38.3377 15.4598 38.2814 15.0215 37.9979 14.7379L36.267 13.007C35.9834 12.7234 35.5439 12.6672 35.1994 12.8711L33.7979 13.6973C33.3959 13.4898 32.9764 13.3164 32.5439 13.1781L32.1373 11.6031C32.0377 11.2152 31.6873 10.9434 31.2865 10.9434H28.8385C28.4377 10.9434 28.0873 11.2141 27.9877 11.6031L27.5811 13.1781C27.1486 13.3164 26.7303 13.4898 26.3271 13.6973L24.9256 12.8711C24.5799 12.6672 24.1416 12.7234 23.858 13.007L22.1271 14.7379C21.8436 15.0215 21.7885 15.4609 21.9912 15.8055L22.8174 17.207C22.61 17.6102 22.4365 18.0285 22.2982 18.4609L20.7232 18.8676C20.3354 18.9672 20.0635 19.3176 20.0635 19.7184V22.1664C20.0635 22.5672 20.3342 22.9176 20.7232 23.0172L22.2982 23.4238C22.4365 23.8563 22.61 24.2746 22.8174 24.6777L21.9912 26.0793C21.7873 26.425 21.8436 26.8633 22.1271 27.1469L23.858 28.8789C24.1416 29.1625 24.5811 29.2188 24.9256 29.0148L26.3271 28.1887C26.7303 28.3961 27.1486 28.5695 27.5811 28.7078L27.9877 30.2828C28.0873 30.6707 28.4377 30.9426 28.8385 30.9426H31.2865C31.6873 30.9426 32.0377 30.6719 32.1373 30.2828L32.5439 28.7078C32.9764 28.5695 33.3947 28.3961 33.7979 28.1887L35.1994 29.0148C35.5451 29.2188 35.9846 29.1625 36.267 28.8789L37.9979 27.1469C38.2814 26.8633 38.3365 26.4238 38.1338 26.0793L37.3076 24.6777C37.515 24.2758 37.6885 23.8563 37.8268 23.4238L39.4018 23.0172ZM36.8998 21.8477C36.5869 21.9285 36.3443 22.1734 36.2658 22.4875C36.1123 23.1051 35.8686 23.6934 35.5416 24.2371C35.3752 24.5137 35.3729 24.8594 35.5369 25.1371L36.2729 26.3863L35.5041 27.1551L34.2549 26.4191C33.9771 26.2551 33.6314 26.2563 33.3549 26.4238C32.8123 26.7508 32.2229 26.9945 31.6064 27.148C31.2936 27.2254 31.0475 27.4691 30.9666 27.782L30.6045 29.1859H29.5182L29.1561 27.782C29.0752 27.4691 28.8303 27.2266 28.5162 27.148C27.8986 26.9945 27.3104 26.7508 26.7666 26.4238C26.49 26.2574 26.1443 26.2551 25.8666 26.4191L24.6174 27.1551L23.8486 26.3863L24.5846 25.1371C24.7486 24.8594 24.7475 24.5137 24.5799 24.2371C24.2529 23.6934 24.0092 23.1051 23.8557 22.4887C23.7783 22.1758 23.5346 21.9297 23.2217 21.8488L21.8178 21.4867V20.4004L23.2217 20.0383C23.5346 19.9574 23.7771 19.7125 23.8557 19.3984C24.0092 18.7809 24.2529 18.1926 24.5799 17.65C24.7463 17.3734 24.7486 17.0277 24.5846 16.75L23.8486 15.5008L24.6174 14.732L25.8666 15.468C26.1443 15.632 26.49 15.6309 26.7666 15.4633C27.3104 15.1363 27.8986 14.8926 28.5162 14.7391C28.8291 14.6617 29.0752 14.418 29.1561 14.1051L29.5182 12.7012H30.6045L30.9666 14.1051C31.0475 14.418 31.2924 14.6605 31.6053 14.7379C32.2229 14.8914 32.8111 15.1352 33.3549 15.4621C33.6314 15.6285 33.9771 15.6309 34.2549 15.4668L35.5041 14.7309L36.2729 15.4996L35.5369 16.7488C35.3729 17.0266 35.374 17.3723 35.5416 17.6488C35.8686 18.1926 36.1135 18.7809 36.2658 19.3984C36.3432 19.7113 36.5869 19.9574 36.8998 20.0383L38.3037 20.4004V21.4867L36.8998 21.8488V21.8477ZM25.5635 20.9422C25.5635 18.4613 27.5814 16.4434 30.0623 16.4434C32.5432 16.4434 34.5611 18.4613 34.5611 20.9422C34.5611 23.423 32.5432 25.441 30.0623 25.441C27.5814 25.441 25.5635 23.423 25.5635 20.9422ZM27.3213 20.9422C27.3213 22.4539 28.5506 23.6832 30.0623 23.6832C31.574 23.6832 32.8033 22.4539 32.8033 20.9422C32.8033 19.4305 31.574 18.2012 30.0623 18.2012C28.5506 18.2012 27.3213 19.4305 27.3213 20.9422Z" fill="url(#paint0_linear_502_4559)"/>
</g>
<defs>
<linearGradient id="paint0_linear_502_4559" x1="-2.23494e-07" y1="24.592" x2="59.9938" y2="24.592" gradientUnits="userSpaceOnUse">
<stop stop-color="#223962"/>
<stop offset="0.526042" stop-color="#3277BC"/>
<stop offset="0.973958" stop-color="#48ABDF"/>
</linearGradient>
<clipPath id="clip0_502_4559">
<rect width="60" height="49.1801" fill="white"/>
</clipPath>
</defs>
</svg>
