<svg width="60" height="60" viewBox="0 0 60 60" fill="none" xmlns="http://www.w3.org/2000/svg">
<g clip-path="url(#clip0_390_5272)">
<path d="M46.8399 12.7816C45.4349 9.12422 43.0067 5.98945 39.8005 3.69844C36.4138 1.27852 32.4177 0 28.2435 0C22.4403 0 16.9384 2.52656 13.1474 6.93164C12.831 7.29961 12.872 7.85508 13.2399 8.17148C13.6079 8.48789 14.1622 8.44687 14.4798 8.07891C17.9368 4.06172 22.9536 1.75781 28.2435 1.75781C35.8618 1.75781 42.7255 6.57422 45.3235 13.7437C45.4946 14.216 45.9481 14.5336 46.4544 14.5336H46.4556C52.9548 14.5336 58.2423 19.8293 58.2423 26.3379C58.2423 29.3707 57.0962 32.2523 55.0138 34.452C54.6798 34.8047 54.695 35.3613 55.0478 35.6941C55.3993 36.027 55.956 36.0129 56.2899 35.6602C58.6817 33.1324 60.0001 29.8219 60.0001 26.3379C60.0001 18.9891 54.1337 12.9867 46.8399 12.7816Z" fill="url(#paint0_linear_390_5272)"/>
<path d="M30.8203 53.6777V51.7969C30.8203 51.3117 30.4266 50.918 29.9414 50.918C29.4562 50.918 29.0625 51.3117 29.0625 51.7969V53.6777C27.7113 54.0609 26.7188 55.3055 26.7188 56.7773C26.7188 58.5539 28.1648 60 29.9414 60C31.718 60 33.1641 58.5539 33.1641 56.7773C33.1641 55.3055 32.1715 54.0609 30.8203 53.6777ZM29.9414 58.2422C29.134 58.2422 28.4766 57.5848 28.4766 56.7773C28.4766 55.9699 29.134 55.3125 29.9414 55.3125C30.7488 55.3125 31.4062 55.9699 31.4062 56.7773C31.4062 57.5848 30.7488 58.2422 29.9414 58.2422Z" fill="url(#paint1_linear_390_5272)"/>
<path d="M22.5586 45.293C22.0734 45.293 21.6797 45.6867 21.6797 46.1719V50.918C21.6797 51.3375 21.3375 51.6797 20.918 51.6797H19.3301C18.9469 50.3285 17.7023 49.3359 16.2305 49.3359C14.4539 49.3359 13.0078 50.782 13.0078 52.5586C13.0078 54.3352 14.4539 55.7812 16.2305 55.7812C17.7023 55.7812 18.9469 54.7887 19.3301 53.4375H20.918C22.3066 53.4375 23.4375 52.3066 23.4375 50.918V46.1719C23.4375 45.6867 23.0437 45.293 22.5586 45.293ZM16.2305 54.0234C15.423 54.0234 14.7656 53.366 14.7656 52.5586C14.7656 51.7512 15.423 51.0938 16.2305 51.0938C17.0379 51.0938 17.6953 51.7512 17.6953 52.5586C17.6953 53.366 17.0379 54.0234 16.2305 54.0234Z" fill="url(#paint2_linear_390_5272)"/>
<path d="M50.918 42.7733C49.4461 42.7733 48.2016 43.7659 47.8184 45.1171H46.2305C45.8109 45.1171 45.4688 44.7749 45.4688 44.3554V39.8425C46.8926 39.8413 47.7188 39.839 47.7691 39.8343C49.5258 39.6644 51.2074 39.1616 52.766 38.339C53.1949 38.1128 53.3602 37.5808 53.1328 37.1519C52.9066 36.7229 52.3746 36.5577 51.9457 36.7851C50.598 37.4964 49.1461 37.9323 47.6285 38.0823C47.4328 38.0858 46.3301 38.087 44.591 38.087H44.5887C37.6137 38.087 20.4035 38.0612 10.3887 38.0448C8.71406 38.0413 7.13086 37.589 5.81016 36.737C3.27305 35.0999 1.75781 32.319 1.75781 29.3015C1.75781 24.9749 4.84453 21.3104 9.09727 20.5874C9.65508 20.4925 10.0711 20.0108 10.0863 19.4413C10.166 16.562 10.8961 13.8245 12.259 11.3038C12.4898 10.8772 12.3305 10.344 11.9039 10.1132C11.4762 9.88233 10.943 10.0417 10.7133 10.4683C9.28945 13.1015 8.49492 15.9503 8.34727 18.9433C3.48281 19.9839 0 24.2694 0 29.3003C0 32.919 1.81523 36.2507 4.85625 38.2124C6.46055 39.2483 8.37305 39.798 10.3852 39.8015C11.7117 39.8038 13.0582 39.8062 14.4141 39.8085V44.3554C14.4141 44.7749 14.0719 45.1171 13.6523 45.1171H12.0645C11.6812 43.7659 10.4367 42.7733 8.96484 42.7733C7.18828 42.7733 5.74219 44.2194 5.74219 45.996C5.74219 47.7726 7.18828 49.2187 8.96484 49.2187C10.4367 49.2187 11.6812 48.2261 12.0645 46.8749H13.6523C15.041 46.8749 16.1719 45.7452 16.1719 44.3554V39.8108C18.0094 39.8144 19.8539 39.8167 21.6797 39.819V42.0702C21.6797 42.5554 22.0734 42.9491 22.5586 42.9491C23.0438 42.9491 23.4375 42.5554 23.4375 42.0702V39.8226C25.3559 39.8249 27.2414 39.8284 29.0625 39.8308V47.6964C29.0625 48.1815 29.4562 48.5753 29.9414 48.5753C30.4266 48.5753 30.8203 48.1815 30.8203 47.6964V39.8331C32.8055 39.8355 34.6957 39.8378 36.4453 39.839V50.919C36.4453 52.3089 37.5762 53.4386 38.9648 53.4386H40.5527C40.9359 54.7897 42.1805 55.7823 43.6523 55.7823C45.4289 55.7823 46.875 54.3362 46.875 52.5597C46.875 50.7831 45.4289 49.337 43.6523 49.337C42.1805 49.337 40.9359 50.3296 40.5527 51.6808H38.9648C38.5453 51.6808 38.2031 51.3386 38.2031 50.919V39.8413C40.3336 39.8437 42.2027 39.8437 43.7098 39.8437H43.7109V44.3565C43.7109 45.7452 44.8418 46.8761 46.2305 46.8761H47.8184C48.2016 48.2272 49.4461 49.2198 50.918 49.2198C52.6945 49.2198 54.1406 47.7737 54.1406 45.9972C54.1406 44.2206 52.6945 42.7745 50.918 42.7745V42.7733ZM8.96484 47.4608C8.15742 47.4608 7.5 46.8034 7.5 45.996C7.5 45.1886 8.15742 44.5312 8.96484 44.5312C9.77227 44.5312 10.4297 45.1886 10.4297 45.996C10.4297 46.8034 9.77227 47.4608 8.96484 47.4608ZM43.6523 51.0937C44.4598 51.0937 45.1172 51.7511 45.1172 52.5585C45.1172 53.3659 44.4598 54.0233 43.6523 54.0233C42.8449 54.0233 42.1875 53.3659 42.1875 52.5585C42.1875 51.7511 42.8449 51.0937 43.6523 51.0937ZM50.918 47.4608C50.1105 47.4608 49.4531 46.8034 49.4531 45.996C49.4531 45.1886 50.1105 44.5312 50.918 44.5312C51.7254 44.5312 52.3828 45.1886 52.3828 45.996C52.3828 46.8034 51.7254 47.4608 50.918 47.4608Z" fill="url(#paint3_linear_390_5272)"/>
</g>
<defs>
<linearGradient id="paint0_linear_390_5272" x1="12.9346" y1="17.9673" x2="60.0001" y2="17.9673" gradientUnits="userSpaceOnUse">
<stop stop-color="#223962"/>
<stop offset="0.526042" stop-color="#3277BC"/>
<stop offset="0.973958" stop-color="#48ABDF"/>
</linearGradient>
<linearGradient id="paint1_linear_390_5272" x1="26.7187" y1="55.459" x2="33.1641" y2="55.459" gradientUnits="userSpaceOnUse">
<stop stop-color="#223962"/>
<stop offset="0.526042" stop-color="#3277BC"/>
<stop offset="0.973958" stop-color="#48ABDF"/>
</linearGradient>
<linearGradient id="paint2_linear_390_5272" x1="13.0078" y1="50.5371" x2="23.4375" y2="50.5371" gradientUnits="userSpaceOnUse">
<stop stop-color="#223962"/>
<stop offset="0.526042" stop-color="#3277BC"/>
<stop offset="0.973958" stop-color="#48ABDF"/>
</linearGradient>
<linearGradient id="paint3_linear_390_5272" x1="-2.01689e-07" y1="32.8948" x2="54.1406" y2="32.8948" gradientUnits="userSpaceOnUse">
<stop stop-color="#223962"/>
<stop offset="0.526042" stop-color="#3277BC"/>
<stop offset="0.973958" stop-color="#48ABDF"/>
</linearGradient>
<clipPath id="clip0_390_5272">
<rect width="60" height="60" fill="white"/>
</clipPath>
</defs>
</svg>
