<svg width="58" height="60" viewBox="0 0 58 60" fill="none" xmlns="http://www.w3.org/2000/svg">
<path fill-rule="evenodd" clip-rule="evenodd" d="M39.7849 58.2433H1.75669V1.75669H4.19522V54.9264C4.19522 55.4115 4.58847 55.8048 5.07357 55.8048H56.1472V58.2433H43.9034C43.4183 58.2433 43.0251 58.6366 43.0251 59.1217C43.0251 59.6068 43.4183 60 43.9034 60H56.2551C57.1658 60 57.9039 59.2619 57.9039 58.3512V55.6969C57.9039 54.7862 57.1658 54.0481 56.2551 54.0481H52.7909V11.2198C52.7909 10.2163 51.9775 9.403 50.9741 9.403H43.495C42.4918 9.403 41.6783 10.2163 41.6783 11.2198V54.0481H36.6059V5.99337C36.6059 4.98986 35.7924 4.1766 34.7892 4.1766H27.31C26.3066 4.1766 25.4933 4.99 25.4933 5.99337V54.0481H20.4209V48.2111C20.4209 47.726 20.0277 47.3327 19.5426 47.3327C19.0575 47.3327 18.6643 47.726 18.6643 48.2111V54.0481H11.065V26.206C11.065 26.1728 11.0919 26.1459 11.1251 26.1459H18.6042C18.6373 26.1459 18.6643 26.1729 18.6643 26.206V44.1317C18.6643 44.6168 19.0575 45.01 19.5426 45.01C20.0277 45.01 20.4209 44.6168 20.4209 44.1317V26.206C20.4209 25.2027 19.6075 24.3892 18.6042 24.3892H11.1251C10.1216 24.3892 9.30833 25.2028 9.30833 26.206V54.0481H5.95192V1.64883C5.95192 0.738136 5.21376 0 4.30308 0H1.64883C0.738153 0 0 0.738136 0 1.64883V58.3512C0 59.2619 0.73815 60 1.64883 60H39.7849C40.27 60 40.6632 59.6068 40.6632 59.1217C40.6632 58.6366 40.27 58.2433 39.7849 58.2433ZM27.25 54.0481V5.99337C27.25 5.96006 27.2769 5.93329 27.31 5.93329H34.7892C34.8224 5.93329 34.8493 5.9602 34.8493 5.99337V54.0481H27.25ZM43.4349 11.2198V54.0481H51.0342V11.2198C51.0342 11.1865 51.0073 11.1597 50.9741 11.1597H43.495C43.4618 11.1597 43.4349 11.1866 43.4349 11.2198Z" fill="url(#paint0_linear_390_4562)"/>
<defs>
<linearGradient id="paint0_linear_390_4562" x1="-2.15709e-07" y1="30" x2="57.9039" y2="30" gradientUnits="userSpaceOnUse">
<stop stop-color="#223962"/>
<stop offset="0.526042" stop-color="#3277BC"/>
<stop offset="0.973958" stop-color="#48ABDF"/>
</linearGradient>
</defs>
</svg>
