<svg width="61" height="47" viewBox="0 0 61 47" fill="none" xmlns="http://www.w3.org/2000/svg">
<path d="M6.20979 14.428H4.80237V5.89795C4.80237 5.41279 4.40862 5.01904 3.92346 5.01904C3.43831 5.01904 3.04456 5.41279 3.04456 5.89795V15.3069C3.04456 15.7921 3.43831 16.1858 3.92346 16.1858H19.2645C19.7496 16.1858 20.1434 15.7921 20.1434 15.3069C20.1434 14.8218 19.7496 14.428 19.2645 14.428H18.5602V7.8456C18.5602 7.36045 18.1664 6.9667 17.6813 6.9667C17.1961 6.9667 16.8024 7.36045 16.8024 7.8456V14.428H15.0293V10.4026C15.0293 9.91748 14.6356 9.52373 14.1504 9.52373C13.6653 9.52373 13.2715 9.91748 13.2715 10.4026V14.428H11.4985V7.8456C11.4985 7.36045 11.1047 6.9667 10.6196 6.9667C10.1344 6.9667 9.74065 7.36045 9.74065 7.8456V14.428H7.9676V12.1077C7.9676 11.6226 7.57385 11.2288 7.0887 11.2288C6.60354 11.2288 6.20979 11.6226 6.20979 12.1077V14.428Z" fill="url(#paint0_linear_390_6058)"/>
<path d="M27.8672 29.5312C27.8402 27.3104 26.9836 25.0979 25.2938 23.4081C23.6027 21.7171 21.3891 20.8604 19.1672 20.8347C19.1332 20.8312 19.0992 20.8276 19.0641 20.8276C19.0289 20.8276 18.9949 20.83 18.9609 20.8347C16.7391 20.8604 14.5254 21.7171 12.8344 23.4081C9.39961 26.8429 9.39961 32.4327 12.8344 35.8675C14.5523 37.5854 16.8082 38.4433 19.0641 38.4433C21.3199 38.4433 23.5758 37.5843 25.2938 35.8675C26.9836 34.1776 27.8402 31.9651 27.8672 29.7444C27.8719 29.7093 27.8742 29.6741 27.8742 29.6378C27.8742 29.6015 27.8719 29.5663 27.8672 29.5312ZM26.0566 28.7589H19.943V22.6452C21.4453 22.8327 22.8996 23.4995 24.0504 24.6503C25.2012 25.8022 25.8691 27.2554 26.0566 28.7589ZM24.0504 34.6241C22.6758 35.9987 20.8699 36.6866 19.0641 36.6866C17.2582 36.6866 15.4523 35.9987 14.0777 34.6241C11.3285 31.8749 11.3285 27.4007 14.0777 24.6503C15.2297 23.4983 16.6828 22.8315 18.1863 22.644V29.6366C18.1863 30.1218 18.5801 30.5155 19.0652 30.5155H26.0578C25.8703 32.0179 25.2035 33.4722 24.0516 34.623L24.0504 34.6241Z" fill="url(#paint1_linear_390_6058)"/>
<path d="M49.3782 36.6902H29.925C29.4399 36.6902 29.0461 37.0839 29.0461 37.5691C29.0461 38.0542 29.4399 38.448 29.925 38.448H49.3782C49.8633 38.448 50.2571 38.0542 50.2571 37.5691C50.2571 37.0839 49.8633 36.6902 49.3782 36.6902Z" fill="url(#paint2_linear_390_6058)"/>
<path d="M47.9133 24.6785C46.459 24.6785 45.2765 25.8609 45.2765 27.3152C45.2765 27.7218 45.3691 28.1074 45.5344 28.4507L43.541 30.4441C43.1965 30.2789 42.8121 30.1863 42.4054 30.1863C41.9988 30.1863 41.6133 30.2789 41.2699 30.4441L39.2777 28.4519C39.4429 28.1074 39.5355 27.723 39.5355 27.3164C39.5355 25.8621 38.3531 24.6796 36.8988 24.6796C35.4445 24.6796 34.2621 25.8621 34.2621 27.3164C34.2621 27.7605 34.3734 28.1789 34.5679 28.5468L32.2371 31.0722H29.9261C29.441 31.0722 29.0472 31.466 29.0472 31.9511C29.0472 32.4363 29.441 32.83 29.9261 32.83H32.6215C32.8664 32.83 33.1008 32.7269 33.2672 32.5476L35.8594 29.7398C36.1781 29.8769 36.5297 29.9542 36.8988 29.9542C37.3054 29.9542 37.691 29.8617 38.0344 29.6964L40.0265 31.6886C39.8613 32.0332 39.7687 32.4175 39.7687 32.8242C39.7687 34.2785 40.9511 35.4609 42.4054 35.4609C43.8597 35.4609 45.0422 34.2785 45.0422 32.8242C45.0422 32.4175 44.9496 32.032 44.7844 31.6886L46.7765 29.6964C47.1211 29.8617 47.5066 29.9542 47.9121 29.9542C49.3664 29.9542 50.5488 28.7718 50.5488 27.3175C50.5488 25.8632 49.3664 24.6808 47.9121 24.6808L47.9133 24.6785ZM36.3105 27.9667C36.3105 27.9667 36.3058 27.9621 36.3035 27.9597C36.3 27.9562 36.2965 27.9539 36.2929 27.9503C36.1254 27.7898 36.0199 27.5648 36.0199 27.3152C36.0199 26.83 36.4136 26.4363 36.8988 26.4363C37.384 26.4363 37.7777 26.83 37.7777 27.3152C37.7777 27.8003 37.384 28.1941 36.8988 28.1941C36.6726 28.1941 36.4676 28.1074 36.3117 27.9667H36.3105ZM42.4054 33.7019C41.9203 33.7019 41.5265 33.3082 41.5265 32.823C41.5265 32.3378 41.9203 31.9441 42.4054 31.9441C42.8906 31.9441 43.2843 32.3378 43.2843 32.823C43.2843 33.3082 42.8906 33.7019 42.4054 33.7019ZM47.9133 28.1941C47.4281 28.1941 47.0343 27.8003 47.0343 27.3152C47.0343 26.83 47.4281 26.4363 47.9133 26.4363C48.3984 26.4363 48.7922 26.83 48.7922 27.3152C48.7922 27.8003 48.3984 28.1941 47.9133 28.1941Z" fill="url(#paint3_linear_390_6058)"/>
<path d="M30.7477 23.6824H33.8824C34.3676 23.6824 34.7614 23.2886 34.7614 22.8035C34.7614 22.3183 34.3676 21.9246 33.8824 21.9246H30.7477C30.2625 21.9246 29.8688 22.3183 29.8688 22.8035C29.8688 23.2886 30.2625 23.6824 30.7477 23.6824Z" fill="url(#paint4_linear_390_6058)"/>
<path d="M37.0172 23.6824H46.8C47.2852 23.6824 47.6789 23.2886 47.6789 22.8035C47.6789 22.3183 47.2852 21.9246 46.8 21.9246H37.0172C36.5321 21.9246 36.1383 22.3183 36.1383 22.8035C36.1383 23.2886 36.5321 23.6824 37.0172 23.6824Z" fill="url(#paint5_linear_390_6058)"/>
<path d="M40.4719 17.2196C44.3801 17.2196 47.5606 14.0403 47.5606 10.1309C47.5606 6.22153 44.3813 3.04224 40.4719 3.04224C37.3137 3.04224 34.5083 5.16685 33.6504 8.20903C33.5192 8.67661 33.7911 9.16177 34.2575 9.29302C34.7251 9.42544 35.2102 9.15239 35.3415 8.68599C35.9872 6.39849 38.0965 4.80005 40.4708 4.80005C43.4098 4.80005 45.8016 7.19067 45.8016 10.1309C45.8016 13.0711 43.411 15.4618 40.4708 15.4618C38.3274 15.4618 36.4008 14.1844 35.5606 12.2063C35.3708 11.7598 34.8551 11.5512 34.4086 11.7411C33.9622 11.9309 33.7536 12.4465 33.9434 12.893C35.059 15.5215 37.6219 17.2196 40.4708 17.2196H40.4719Z" fill="url(#paint6_linear_390_6058)"/>
<path d="M59.1715 24.8344L55.957 21.6199V11.768C55.957 10.6371 55.0371 9.71719 53.9062 9.71719H50.5887C50.4891 7.26328 49.5059 4.83867 47.6355 2.96836C45.7652 1.09805 43.1777 0 40.4707 0C37.7637 0 35.2207 1.05352 33.307 2.96719C31.4379 4.83633 30.4535 7.26094 30.3539 9.71602H23.1855V3.79219C23.1855 2.79023 22.3711 1.97578 21.3691 1.97578H9.60938C9.12422 1.97578 8.73047 2.36953 8.73047 2.85469C8.73047 3.33984 9.12422 3.73359 9.60938 3.73359H21.3691C21.402 3.73359 21.4277 3.75938 21.4277 3.79219V17.4129C21.4277 17.4457 21.402 17.4715 21.3691 17.4715H1.81641C1.78359 17.4715 1.75781 17.4457 1.75781 17.4129V3.79219C1.75781 3.75938 1.78359 3.73359 1.81641 3.73359H5.50781C5.99297 3.73359 6.38672 3.33984 6.38672 2.85469C6.38672 2.36953 5.99297 1.97578 5.50781 1.97578H1.81641C0.814453 1.97578 0 2.79023 0 3.79219V17.4129C0 18.4148 0.814453 19.2293 1.81641 19.2293H2.69062V44.3777C2.69062 45.5086 3.61055 46.4285 4.74141 46.4285H50.3672C51.498 46.4285 52.418 45.5086 52.418 44.3777V42.8895H53.9062C55.0371 42.8895 55.957 41.9695 55.957 40.8387V29.3813C56.3402 29.5641 56.7563 29.6578 57.1734 29.6578C57.8977 29.6578 58.6207 29.3824 59.1727 28.8316C59.707 28.2973 60.0012 27.5883 60.0012 26.8324C60.0012 26.0766 59.707 25.3676 59.1727 24.8332L59.1715 24.8344ZM54.1992 11.7668V19.8609L53.0602 18.7219C52.7789 18.4406 52.4051 18.2859 52.0078 18.2859C51.6105 18.2859 51.2367 18.4406 50.9555 18.7219L50.6297 19.0477L48.2285 16.6465C49.5012 15.1324 50.2617 13.3324 50.5078 11.475H53.9062C54.068 11.475 54.1992 11.6062 54.1992 11.768V11.7668ZM34.5504 4.21055C36.1324 2.62852 38.2348 1.75781 40.4719 1.75781C42.709 1.75781 44.8113 2.62852 46.3934 4.21055C49.6582 7.47539 49.6582 12.7887 46.3934 16.0535C43.1285 19.3184 37.8152 19.3184 34.5504 16.0535C31.2855 12.7887 31.2855 7.47539 34.5504 4.21055ZM53.9062 41.1316H45.5859C45.1008 41.1316 44.707 41.5254 44.707 42.0105C44.707 42.4957 45.1008 42.8895 45.5859 42.8895H50.6602V44.3777C50.6602 44.5395 50.5289 44.6707 50.3672 44.6707H4.74141C4.57969 44.6707 4.44844 44.5395 4.44844 44.3777V19.2293H6.22969V40.8387C6.22969 41.9695 7.14961 42.8895 8.28047 42.8895H41.4844C41.9695 42.8895 42.3633 42.4957 42.3633 42.0105C42.3633 41.5254 41.9695 41.1316 41.4844 41.1316H8.28047C8.11875 41.1316 7.9875 41.0004 7.9875 40.8387V19.2293H21.3691C22.3711 19.2293 23.1855 18.4148 23.1855 17.4129V11.4738H30.4348C30.7172 13.6043 31.6734 15.6621 33.307 17.2957C33.368 17.3566 33.4301 17.4129 33.4922 17.4715H30.7477C30.2625 17.4715 29.8688 17.8652 29.8688 18.3504C29.8688 18.8355 30.2625 19.2293 30.7477 19.2293H36.0176C37.418 19.9137 38.9438 20.2582 40.4707 20.2582C42.7898 20.2582 45.1078 19.466 46.9852 17.8875L49.3863 20.2887L49.0605 20.6145C48.7793 20.8957 48.6246 21.2695 48.6246 21.6668C48.6246 22.0641 48.7793 22.4379 49.0605 22.7191L54.198 27.8566V40.8387C54.198 41.0004 54.0668 41.1316 53.9051 41.1316H53.9062ZM57.9293 27.5883C57.5121 28.0055 56.8348 28.0055 56.4176 27.5883L50.4961 21.6668L51.252 20.9109L52.0078 20.1551L54.457 22.6043L57.9293 26.0766C58.1309 26.2781 58.2422 26.5465 58.2422 26.8324C58.2422 27.1184 58.1309 27.3867 57.9293 27.5883Z" fill="url(#paint7_linear_390_6058)"/>
<path d="M39.1054 12.8788C39.2765 13.0499 39.5015 13.1366 39.7265 13.1366C39.9515 13.1366 40.1765 13.0511 40.3476 12.8788L44.2148 9.01162C44.5582 8.66826 44.5582 8.11162 44.2148 7.76826C43.8715 7.4249 43.3148 7.4249 42.9715 7.76826L39.7254 11.0144L37.8855 9.17451C37.5422 8.83115 36.9855 8.83115 36.6422 9.17451C36.2988 9.51787 36.2988 10.0745 36.6422 10.4179L39.1031 12.8788H39.1054Z" fill="url(#paint8_linear_390_6058)"/>
<defs>
<linearGradient id="paint0_linear_390_6058" x1="3.04456" y1="10.6024" x2="20.1434" y2="10.6024" gradientUnits="userSpaceOnUse">
<stop stop-color="#223962"/>
<stop offset="0.526042" stop-color="#3277BC"/>
<stop offset="0.973958" stop-color="#48ABDF"/>
</linearGradient>
<linearGradient id="paint1_linear_390_6058" x1="10.2583" y1="29.6355" x2="27.8742" y2="29.6355" gradientUnits="userSpaceOnUse">
<stop stop-color="#223962"/>
<stop offset="0.526042" stop-color="#3277BC"/>
<stop offset="0.973958" stop-color="#48ABDF"/>
</linearGradient>
<linearGradient id="paint2_linear_390_6058" x1="29.0461" y1="37.5691" x2="50.2571" y2="37.5691" gradientUnits="userSpaceOnUse">
<stop stop-color="#223962"/>
<stop offset="0.526042" stop-color="#3277BC"/>
<stop offset="0.973958" stop-color="#48ABDF"/>
</linearGradient>
<linearGradient id="paint3_linear_390_6058" x1="29.0472" y1="30.0697" x2="50.5488" y2="30.0697" gradientUnits="userSpaceOnUse">
<stop stop-color="#223962"/>
<stop offset="0.526042" stop-color="#3277BC"/>
<stop offset="0.973958" stop-color="#48ABDF"/>
</linearGradient>
<linearGradient id="paint4_linear_390_6058" x1="29.8688" y1="22.8035" x2="34.7614" y2="22.8035" gradientUnits="userSpaceOnUse">
<stop stop-color="#223962"/>
<stop offset="0.526042" stop-color="#3277BC"/>
<stop offset="0.973958" stop-color="#48ABDF"/>
</linearGradient>
<linearGradient id="paint5_linear_390_6058" x1="36.1383" y1="22.8035" x2="47.6789" y2="22.8035" gradientUnits="userSpaceOnUse">
<stop stop-color="#223962"/>
<stop offset="0.526042" stop-color="#3277BC"/>
<stop offset="0.973958" stop-color="#48ABDF"/>
</linearGradient>
<linearGradient id="paint6_linear_390_6058" x1="33.6174" y1="10.1309" x2="47.5606" y2="10.1309" gradientUnits="userSpaceOnUse">
<stop stop-color="#223962"/>
<stop offset="0.526042" stop-color="#3277BC"/>
<stop offset="0.973958" stop-color="#48ABDF"/>
</linearGradient>
<linearGradient id="paint7_linear_390_6058" x1="-2.23522e-07" y1="23.2143" x2="60.0012" y2="23.2143" gradientUnits="userSpaceOnUse">
<stop stop-color="#223962"/>
<stop offset="0.526042" stop-color="#3277BC"/>
<stop offset="0.973958" stop-color="#48ABDF"/>
</linearGradient>
<linearGradient id="paint8_linear_390_6058" x1="36.3846" y1="10.3237" x2="44.4723" y2="10.3237" gradientUnits="userSpaceOnUse">
<stop stop-color="#223962"/>
<stop offset="0.526042" stop-color="#3277BC"/>
<stop offset="0.973958" stop-color="#48ABDF"/>
</linearGradient>
</defs>
</svg>
