<svg width="60" height="54" viewBox="0 0 60 54" fill="none" xmlns="http://www.w3.org/2000/svg">
<g clip-path="url(#clip0_390_5163)">
<path d="M30 30.7383C28.623 30.7383 27.5027 31.8586 27.5027 33.2344C27.5027 34.6102 28.623 35.7316 30 35.7316C31.3769 35.7316 32.496 34.6113 32.496 33.2344C32.496 31.8574 31.3757 30.7383 30 30.7383ZM30 33.9738C29.5921 33.9738 29.2605 33.6422 29.2605 33.2344C29.2605 32.8266 29.5921 32.4961 30 32.4961C30.4078 32.4961 30.7382 32.8277 30.7382 33.2344C30.7382 33.641 30.4066 33.9738 30 33.9738Z" fill="url(#paint0_linear_390_5163)"/>
<path d="M10.5856 34.1143C11.071 34.1143 11.4645 33.7208 11.4645 33.2354C11.4645 32.7499 11.071 32.3564 10.5856 32.3564C10.1002 32.3564 9.70667 32.7499 9.70667 33.2354C9.70667 33.7208 10.1002 34.1143 10.5856 34.1143Z" fill="url(#paint1_linear_390_5163)"/>
<path d="M58.9488 17.7963H55.7695C56.2793 15.7162 55.752 13.4064 54.1348 11.7201C52.9078 10.4404 51.2566 9.72559 49.4848 9.70684C48.6117 9.69746 47.8711 8.99316 47.8664 8.16699C47.8641 7.75215 48.0234 7.36074 48.3164 7.0666C48.6094 6.77246 48.9984 6.61074 49.4133 6.61074C50.2359 6.61074 50.9145 7.25293 50.959 8.07207C50.9883 8.61348 51.4336 9.0377 51.9738 9.0377H54.9352C55.2082 9.0377 55.473 8.92519 55.6641 8.73066C55.8539 8.53613 55.9594 8.26777 55.9523 7.99707C55.8891 5.39434 54.2859 3.0916 51.9094 2.11074V1.01621C51.9094 0.454883 51.4535 -0.000976562 50.8922 -0.000976562H47.932C47.3719 -0.000976562 46.9148 0.454883 46.9148 1.01621V2.11426C44.5547 3.09512 42.9527 5.3791 42.873 7.95254C42.818 9.72676 43.4637 11.4084 44.6906 12.6869C45.9176 13.9654 47.5688 14.6803 49.3406 14.699C50.2137 14.7084 50.9543 15.4127 50.959 16.2389C50.9613 16.6537 50.802 17.0451 50.509 17.3393C50.216 17.6334 49.827 17.7963 49.4109 17.7963C48.5883 17.7963 47.9098 17.1541 47.8652 16.3338C47.8348 15.7936 47.3895 15.3693 46.8504 15.3693H43.8891C43.616 15.3693 43.3512 15.4818 43.1602 15.6764C42.9703 15.8709 42.8648 16.1381 42.8707 16.41C42.8824 16.8822 42.9434 17.3451 43.0523 17.7963H39.8754C39.2965 17.7963 38.8242 18.2674 38.8242 18.8475V18.8639C38.8242 21.9213 41.3109 24.408 44.3684 24.408H46.9137V29.9674C46.6242 30.1889 46.3641 30.449 46.1426 30.7385H44.4586C43.9734 30.7385 43.5797 31.1322 43.5797 31.6174C43.5797 32.1025 43.9734 32.4963 44.4586 32.4963H45.3633C45.2766 32.9732 45.273 33.476 45.3633 33.974H35.6824C35.7445 33.4947 35.7469 32.9955 35.6824 32.4963H40.357C40.8422 32.4963 41.2359 32.1025 41.2359 31.6174C41.2359 31.1322 40.8422 30.7385 40.357 30.7385H35.1562C34.7074 29.815 34.0172 29.0287 33.1688 28.4627L37.2914 24.34C37.5762 24.0553 37.6594 23.6322 37.5059 23.2607C37.3523 22.8893 36.9926 22.649 36.5906 22.649H23.4012C22.9992 22.649 22.6406 22.8893 22.4859 23.2607C22.3324 23.6322 22.4168 24.0553 22.7004 24.34L26.823 28.4627C25.9746 29.0287 25.2844 29.815 24.8355 30.7385H13.8492C13.6266 30.4478 13.3676 30.1889 13.077 29.9662V24.4068H15.6223C18.6797 24.4068 21.1664 21.9201 21.1664 18.8627V18.8463C21.1664 18.2662 20.6953 17.7951 20.1152 17.7951H19.1074C19.9207 16.3432 20.3578 14.6932 20.3578 13.0115C20.3578 7.6209 15.9715 3.23457 10.5809 3.23457C5.19023 3.23457 0.808594 7.62207 0.808594 13.0127C0.808594 14.6943 1.2457 16.3443 2.05898 17.7963H1.05117C0.472266 17.7963 0 18.2674 0 18.8475V18.8639C0 21.9213 2.48672 24.408 5.54414 24.408H8.08945V29.9674C7.10625 30.7197 6.47109 31.9045 6.47109 33.2357C6.47109 35.5045 8.3168 37.3502 10.5855 37.3502C11.9156 37.3502 13.1016 36.715 13.8539 35.7318H24.8402C25.2879 36.6541 25.9758 37.4381 26.8219 38.0041L24.5508 43.6818H21.9879C21.6047 43.6818 21.2602 43.8951 21.0891 44.2373L19.7496 46.9174H17.8559C15.1465 46.9174 12.9434 49.1217 12.9434 51.8299V52.5353C12.9434 53.0826 13.3887 53.5279 13.9359 53.5279H46.0652C46.6125 53.5279 47.0578 53.0826 47.0578 52.5353V51.8299C47.0578 49.1205 44.8535 46.9174 42.1453 46.9174H40.2516L38.9121 44.2373C38.741 43.8951 38.3965 43.6818 38.0133 43.6818H35.4504L33.1793 38.0041C34.0254 37.4381 34.7133 36.6541 35.1609 35.7318H46.1473C46.8996 36.715 48.0855 37.3502 49.4156 37.3502C51.6844 37.3502 53.5301 35.5045 53.5301 33.2357C53.5301 31.9057 52.8949 30.7197 51.9117 29.9674V24.408H54.457C57.5145 24.408 60.0012 21.9213 60.0012 18.8639V18.8475C60.0012 18.2686 59.5301 17.7963 58.95 17.7963H58.9488ZM10.5855 4.99355C15.007 4.99355 18.6047 8.59121 18.6047 13.0127C18.6047 14.7365 18.0457 16.4193 17.0215 17.7963H15.0422C16.3242 16.601 17.1258 14.8994 17.1258 13.0127C17.1258 9.40566 14.1914 6.47129 10.5844 6.47129C9.32109 6.47129 8.09414 6.83223 7.03711 7.51543C6.6293 7.7791 6.51328 8.32285 6.77578 8.73066C7.03945 9.13848 7.5832 9.25449 7.99102 8.99199C8.76328 8.49277 9.65977 8.2291 10.5844 8.2291C13.2223 8.2291 15.368 10.3748 15.368 13.0127C15.368 15.6506 13.2223 17.7963 10.5844 17.7963C7.94648 17.7963 5.80078 15.6506 5.80078 13.0127C5.80078 12.565 5.86172 12.1221 5.98359 11.6967C6.11719 11.2303 5.84648 10.7439 5.38008 10.6104C4.91367 10.4768 4.42734 10.7475 4.29375 11.2139C4.12734 11.7963 4.04297 12.401 4.04297 13.0115C4.04297 14.8982 4.8457 16.5998 6.12656 17.7951H4.14727C3.12422 16.4182 2.56406 14.7354 2.56406 13.0115C2.56406 8.59004 6.16172 4.99238 10.5832 4.99238L10.5855 4.99355ZM5.54297 22.6502C3.69141 22.6502 2.1457 21.3131 1.81992 19.5541H19.35C19.0242 21.3131 17.4785 22.6502 15.627 22.6502H5.54414H5.54297ZM11.3238 24.408V29.1881C10.8469 29.1014 10.3441 29.0978 9.84609 29.1881V24.408H11.3238ZM10.5855 35.5924C9.28594 35.5924 8.22891 34.5353 8.22891 33.2357C8.22891 31.9361 9.28594 30.8791 10.5855 30.8791C11.8852 30.8791 12.9422 31.9361 12.9422 33.2357C12.9422 34.5353 11.8852 35.5924 10.5855 35.5924ZM24.3141 33.9752H14.6332C14.7199 33.4982 14.7234 32.9955 14.6332 32.4975H24.3141C24.252 32.9779 24.2496 33.4771 24.3141 33.9752ZM25.2574 24.408H34.7414L31.4578 27.6916C30.5227 27.4455 29.5102 27.4361 28.541 27.6916L25.2574 24.408ZM37.5457 45.4396L38.284 46.9174H28.766C28.2809 46.9174 27.8871 47.3111 27.8871 47.7963C27.8871 48.2814 28.2809 48.6752 28.766 48.6752H42.143C43.8633 48.6752 45.266 50.058 45.2977 51.7713H14.7012C14.7328 50.0592 16.1355 48.6752 17.8559 48.6752H20.2758C20.2875 48.6752 20.298 48.6752 20.3086 48.6752H24.6656C25.1508 48.6752 25.5445 48.2814 25.5445 47.7963C25.5445 47.3111 25.1508 46.9174 24.6656 46.9174H21.7148L22.4531 45.4396H25.1262C25.1402 45.4396 25.152 45.4396 25.1648 45.4396H37.5457ZM33.5555 43.6818H26.4445L28.4191 38.7471C29.4363 39.0389 30.5402 39.0459 31.5809 38.7471L33.5555 43.6818ZM30 37.2107C27.8086 37.2107 26.025 35.4283 26.025 33.2357C26.025 31.0432 27.8086 29.2607 30 29.2607C32.1914 29.2607 33.975 31.0443 33.975 33.2357C33.975 35.4271 32.1926 37.2107 30 37.2107ZM49.3617 12.9424C48.0668 12.9283 46.8598 12.4057 45.9609 11.4705C45.0645 10.5354 44.5922 9.30605 44.632 8.00762C44.6941 5.99785 46.0289 4.22949 47.952 3.60488C48.3844 3.46543 48.6738 3.06699 48.6738 2.61348V1.75684H50.1516V2.61113C50.1516 3.06582 50.4434 3.46426 50.8758 3.60254C52.5656 4.14512 53.7961 5.57246 54.1148 7.27988H52.5996C52.2141 5.8748 50.9262 4.85293 49.4121 4.85293C48.5262 4.85293 47.693 5.19863 47.0684 5.82793C46.4437 6.45605 46.1016 7.29043 46.1063 8.17754C46.1156 9.97051 47.6227 11.4459 49.4637 11.4646C50.7586 11.4787 51.9668 12.0014 52.8645 12.9365C54.1676 14.2947 54.4922 16.1943 53.9367 17.7951H52.3348C52.5879 17.3182 52.7203 16.7838 52.718 16.2283C52.7086 14.4353 51.2016 12.96 49.3605 12.9412L49.3617 12.9424ZM46.4918 17.7963H44.8863C44.8113 17.5783 44.7527 17.3545 44.7105 17.1271H46.227C46.2914 17.3615 46.3816 17.5853 46.493 17.7963H46.4918ZM49.4133 35.5924C48.1137 35.5924 47.0566 34.5353 47.0566 33.2357C47.0566 31.9361 48.1137 30.8791 49.4133 30.8791C50.7129 30.8791 51.7699 31.9361 51.7699 33.2357C51.7699 34.5353 50.7129 35.5924 49.4133 35.5924ZM48.675 29.1881V24.408H50.1527V29.1881C49.6758 29.1014 49.173 29.0978 48.675 29.1881ZM54.4559 22.6502H44.3719C42.5203 22.6502 40.9746 21.3131 40.6488 19.5541H58.1789C57.8531 21.3131 56.3074 22.6502 54.4559 22.6502Z" fill="url(#paint2_linear_390_5163)"/>
<path d="M49.4144 34.1143C49.8998 34.1143 50.2933 33.7208 50.2933 33.2354C50.2933 32.7499 49.8998 32.3564 49.4144 32.3564C48.929 32.3564 48.5355 32.7499 48.5355 33.2354C48.5355 33.7208 48.929 34.1143 49.4144 34.1143Z" fill="url(#paint3_linear_390_5163)"/>
<path d="M10.5856 13.8913H12.2039C12.6891 13.8913 13.0828 13.4976 13.0828 13.0124C13.0828 12.5272 12.6891 12.1335 12.2039 12.1335H11.4645V10.5854C11.4645 10.1003 11.0707 9.70654 10.5856 9.70654C10.1004 9.70654 9.70667 10.1003 9.70667 10.5854V13.0124C9.70667 13.4976 10.1004 13.8913 10.5856 13.8913Z" fill="url(#paint4_linear_390_5163)"/>
</g>
<defs>
<linearGradient id="paint0_linear_390_5163" x1="27.5027" y1="33.235" x2="32.496" y2="33.235" gradientUnits="userSpaceOnUse">
<stop stop-color="#223962"/>
<stop offset="0.526042" stop-color="#3277BC"/>
<stop offset="0.973958" stop-color="#48ABDF"/>
</linearGradient>
<linearGradient id="paint1_linear_390_5163" x1="9.70667" y1="33.2354" x2="11.4645" y2="33.2354" gradientUnits="userSpaceOnUse">
<stop stop-color="#223962"/>
<stop offset="0.526042" stop-color="#3277BC"/>
<stop offset="0.973958" stop-color="#48ABDF"/>
</linearGradient>
<linearGradient id="paint2_linear_390_5163" x1="-2.23522e-07" y1="26.7635" x2="60.0012" y2="26.7635" gradientUnits="userSpaceOnUse">
<stop stop-color="#223962"/>
<stop offset="0.526042" stop-color="#3277BC"/>
<stop offset="0.973958" stop-color="#48ABDF"/>
</linearGradient>
<linearGradient id="paint3_linear_390_5163" x1="48.5355" y1="33.2354" x2="50.2933" y2="33.2354" gradientUnits="userSpaceOnUse">
<stop stop-color="#223962"/>
<stop offset="0.526042" stop-color="#3277BC"/>
<stop offset="0.973958" stop-color="#48ABDF"/>
</linearGradient>
<linearGradient id="paint4_linear_390_5163" x1="9.70667" y1="11.7989" x2="13.0828" y2="11.7989" gradientUnits="userSpaceOnUse">
<stop stop-color="#223962"/>
<stop offset="0.526042" stop-color="#3277BC"/>
<stop offset="0.973958" stop-color="#48ABDF"/>
</linearGradient>
<clipPath id="clip0_390_5163">
<rect width="60" height="53.5277" fill="white"/>
</clipPath>
</defs>
</svg>
