<svg width="60" height="60" viewBox="0 0 60 60" fill="none" xmlns="http://www.w3.org/2000/svg">
<g clip-path="url(#clip0_390_4789)">
<path d="M57.8508 45.8262H52.1086C51.6235 45.8262 51.2297 46.2199 51.2297 46.7051C51.2297 47.1902 51.6235 47.584 52.1086 47.584H57.8508C58.0395 47.584 58.193 47.7375 58.193 47.9262V57.9012C58.193 58.0898 58.0395 58.2434 57.8508 58.2434H19.8164C19.6278 58.2434 19.4742 58.0898 19.4742 57.9012V47.9262C19.4742 47.7375 19.6278 47.584 19.8164 47.584H21.8778C22.3629 47.584 22.7567 47.1902 22.7567 46.7051C22.7567 46.2199 22.3629 45.8262 21.8778 45.8262H19.8164C18.6586 45.8262 17.7164 46.7684 17.7164 47.9262V57.9012C17.7164 59.059 18.6586 60.0012 19.8164 60.0012H57.8508C59.0086 60.0012 59.9508 59.059 59.9508 57.9012V47.9262C59.9508 46.7684 59.0086 45.8262 57.8508 45.8262Z" fill="url(#paint0_linear_390_4789)"/>
<path d="M48.3633 47.584C48.8485 47.584 49.2422 47.1902 49.2422 46.7051C49.2422 46.2199 48.8485 45.8262 48.3633 45.8262H33.5989C33.1137 45.8262 32.72 46.2199 32.72 46.7051C32.72 47.1902 33.1137 47.584 33.5989 47.584H48.3633Z" fill="url(#paint1_linear_390_4789)"/>
<path d="M17.9484 23.2113L16.4941 21.4125C16.1895 21.0352 15.6352 20.9766 15.2578 21.2813C14.8805 21.5859 14.8219 22.1402 15.1266 22.5176L18.1441 26.25C18.3105 26.4562 18.5625 26.577 18.8273 26.577C19.0922 26.577 19.3441 26.4574 19.5105 26.25L22.5281 22.5176C22.8328 22.1402 22.7742 21.5871 22.3969 21.2813C22.0195 20.9766 21.4664 21.0352 21.1605 21.4125L19.7063 23.2113V14.1738H40.1332C41.291 14.1738 42.2332 13.2316 42.2332 12.0738V2.1C42.2332 0.942187 41.291 0 40.1332 0H2.1C0.942187 0 0 0.942187 0 2.1V12.075C0 13.2328 0.942187 14.175 2.1 14.175H4.76836C5.25352 14.175 5.64727 13.7812 5.64727 13.2961C5.64727 12.8109 5.25352 12.4172 4.76836 12.4172H2.1C1.91133 12.4172 1.75781 12.2637 1.75781 12.075V2.1C1.75781 1.91133 1.91133 1.75781 2.1 1.75781H40.1344C40.323 1.75781 40.4766 1.91133 40.4766 2.1V12.075C40.4766 12.2637 40.323 12.4172 40.1344 12.4172H8.51367C8.02852 12.4172 7.63477 12.8109 7.63477 13.2961C7.63477 13.7812 8.02852 14.175 8.51367 14.175H17.9484V23.2125V23.2113Z" fill="url(#paint2_linear_390_4789)"/>
<path d="M26.8594 46.1637L25.4051 44.3648C25.1004 43.9875 24.5461 43.9289 24.1688 44.2336C23.7914 44.5383 23.7328 45.0926 24.0375 45.4699L27.0551 49.2023C27.2215 49.4086 27.4735 49.5293 27.7383 49.5293C28.0031 49.5293 28.2551 49.4098 28.4215 49.2023L31.4391 45.4699C31.7438 45.0926 31.6852 44.5395 31.3078 44.2336C30.9305 43.9289 30.3774 43.9863 30.0715 44.3648L28.6172 46.1637V37.1262H49.0149C50.1727 37.1262 51.1149 36.184 51.1149 35.0262V25.0512C51.1149 23.8934 50.1727 22.9512 49.0149 22.9512H24.6574C24.1723 22.9512 23.7785 23.3449 23.7785 23.8301C23.7785 24.3152 24.1723 24.709 24.6574 24.709H49.0149C49.2035 24.709 49.3571 24.8625 49.3571 25.0512V35.0262C49.3571 35.2148 49.2035 35.3684 49.0149 35.3684H10.9805C10.7918 35.3684 10.6383 35.2148 10.6383 35.0262V25.0512C10.6383 24.8625 10.7918 24.709 10.9805 24.709H12.9973C13.4824 24.709 13.8762 24.3152 13.8762 23.8301C13.8762 23.3449 13.4824 22.9512 12.9973 22.9512H10.9805C9.82268 22.9512 8.88049 23.8934 8.88049 25.0512V35.0262C8.88049 36.184 9.82268 37.1262 10.9805 37.1262H26.8582V46.1637H26.8594Z" fill="url(#paint3_linear_390_4789)"/>
<path d="M36.7125 7.9668C37.1976 7.9668 37.5914 7.57305 37.5914 7.08789C37.5914 6.60273 37.1976 6.20898 36.7125 6.20898H11.9672C11.482 6.20898 11.0883 6.60273 11.0883 7.08789C11.0883 7.57305 11.482 7.9668 11.9672 7.9668H36.7125Z" fill="url(#paint4_linear_390_4789)"/>
<path d="M20.2383 30.1562C20.2383 30.6414 20.632 31.0352 21.1172 31.0352H45.9363C46.4215 31.0352 46.8152 30.6414 46.8152 30.1562C46.8152 29.6711 46.4215 29.2773 45.9363 29.2773H21.1172C20.632 29.2773 20.2383 29.6711 20.2383 30.1562Z" fill="url(#paint5_linear_390_4789)"/>
<path d="M22.8223 52.9121C22.8223 53.3973 23.216 53.791 23.7012 53.791H54.2637C54.7488 53.791 55.1426 53.3973 55.1426 52.9121C55.1426 52.427 54.7488 52.0332 54.2637 52.0332H23.7012C23.216 52.0332 22.8223 52.427 22.8223 52.9121Z" fill="url(#paint6_linear_390_4789)"/>
</g>
<defs>
<linearGradient id="paint0_linear_390_4789" x1="17.7164" y1="52.9137" x2="59.9508" y2="52.9137" gradientUnits="userSpaceOnUse">
<stop stop-color="#223962"/>
<stop offset="0.526042" stop-color="#3277BC"/>
<stop offset="0.973958" stop-color="#48ABDF"/>
</linearGradient>
<linearGradient id="paint1_linear_390_4789" x1="32.72" y1="46.7051" x2="49.2422" y2="46.7051" gradientUnits="userSpaceOnUse">
<stop stop-color="#223962"/>
<stop offset="0.526042" stop-color="#3277BC"/>
<stop offset="0.973958" stop-color="#48ABDF"/>
</linearGradient>
<linearGradient id="paint2_linear_390_4789" x1="-1.57331e-07" y1="13.2885" x2="42.2332" y2="13.2885" gradientUnits="userSpaceOnUse">
<stop stop-color="#223962"/>
<stop offset="0.526042" stop-color="#3277BC"/>
<stop offset="0.973958" stop-color="#48ABDF"/>
</linearGradient>
<linearGradient id="paint3_linear_390_4789" x1="8.88049" y1="36.2402" x2="51.1149" y2="36.2402" gradientUnits="userSpaceOnUse">
<stop stop-color="#223962"/>
<stop offset="0.526042" stop-color="#3277BC"/>
<stop offset="0.973958" stop-color="#48ABDF"/>
</linearGradient>
<linearGradient id="paint4_linear_390_4789" x1="11.0883" y1="7.08789" x2="37.5914" y2="7.08789" gradientUnits="userSpaceOnUse">
<stop stop-color="#223962"/>
<stop offset="0.526042" stop-color="#3277BC"/>
<stop offset="0.973958" stop-color="#48ABDF"/>
</linearGradient>
<linearGradient id="paint5_linear_390_4789" x1="20.2383" y1="30.1562" x2="46.8152" y2="30.1562" gradientUnits="userSpaceOnUse">
<stop stop-color="#223962"/>
<stop offset="0.526042" stop-color="#3277BC"/>
<stop offset="0.973958" stop-color="#48ABDF"/>
</linearGradient>
<linearGradient id="paint6_linear_390_4789" x1="22.8223" y1="52.9121" x2="55.1426" y2="52.9121" gradientUnits="userSpaceOnUse">
<stop stop-color="#223962"/>
<stop offset="0.526042" stop-color="#3277BC"/>
<stop offset="0.973958" stop-color="#48ABDF"/>
</linearGradient>
<clipPath id="clip0_390_4789">
<rect width="59.9508" height="60" fill="white"/>
</clipPath>
</defs>
</svg>
