<svg width="60" height="52" viewBox="0 0 60 52" fill="none" xmlns="http://www.w3.org/2000/svg">
<g clip-path="url(#clip0_390_6099)">
<path d="M27.934 47.2149H2.75747C2.21138 47.2149 1.76606 46.7708 1.76606 46.2235V18.0985C1.76606 17.611 1.37114 17.2161 0.883643 17.2161C0.396143 17.2161 0.0012207 17.611 0.0012207 18.0985V46.2235C0.0012207 47.7434 1.23755 48.9809 2.75864 48.9809H27.9352C28.4227 48.9809 28.8176 48.586 28.8176 48.0985C28.8176 47.611 28.4227 47.2161 27.9352 47.2161L27.934 47.2149Z" fill="url(#paint0_linear_390_6099)"/>
<path d="M58.9137 45.532C58.8926 45.5109 58.8703 45.491 58.8469 45.4711L48.8145 37.3102C50.3801 34.9746 51.2215 32.2289 51.2215 29.3531C51.2215 25.7789 49.9219 22.4051 47.5453 19.7695C47.5605 19.7051 47.5688 19.6395 47.5688 19.5715V2.99297C47.5688 1.34297 46.2258 0 44.5758 0H2.99297C1.34297 0 0 1.34297 0 2.99297V14.5664C0 15.0539 0.394922 15.4488 0.882422 15.4488C1.36992 15.4488 1.76484 15.0539 1.76484 14.5664V2.99297C1.76484 2.3168 2.31563 1.76602 2.9918 1.76602H16.3641V10.3336C16.3641 10.6207 16.5035 10.8902 16.7391 11.0555C16.9746 11.2207 17.2758 11.2617 17.5453 11.1633L23.782 8.9168L30.0188 11.1633C30.116 11.1984 30.2168 11.216 30.3176 11.216C30.4969 11.216 30.675 11.1609 30.825 11.0555C31.0605 10.8902 31.2 10.6207 31.2 10.3336V1.76602H44.5723C45.2484 1.76602 45.7992 2.3168 45.7992 2.99297V18.1313C43.2738 16.118 40.166 15.0246 36.8895 15.0246C33.0621 15.0246 29.4633 16.5152 26.7574 19.2211C25.7238 20.2547 24.8812 21.4102 24.2297 22.6395H10.8434C9.80273 22.6395 8.95547 23.4867 8.95547 24.5273V33.9914C8.95547 35.032 9.80273 35.8793 10.8434 35.8793H24.1324C24.7969 37.1789 25.6711 38.3988 26.7574 39.4852C29.4645 42.1922 33.0621 43.6816 36.8895 43.6816C39.8133 43.6816 42.6023 42.8109 44.9637 41.1937L45.7992 42.116V46.2211C45.7992 46.7672 45.3551 47.2125 44.8078 47.2125H31.4625C30.975 47.2125 30.5801 47.6074 30.5801 48.0949C30.5801 48.5824 30.975 48.9773 31.4625 48.9773H44.8078C46.3277 48.9773 47.5652 47.741 47.5652 46.2199V44.0637L53.6262 50.7516C53.6355 50.7621 53.6461 50.7727 53.6566 50.7832C54.3809 51.5074 55.3324 51.8695 56.284 51.8695C57.2355 51.8695 58.1871 51.5074 58.9113 50.7832C60.3598 49.3348 60.3598 46.977 58.9113 45.5285L58.9137 45.532ZM29.4375 9.07617L24.0844 7.14727C23.891 7.07812 23.6789 7.07812 23.4855 7.14727L18.1313 9.07617V1.76602H29.4375V9.07617ZM13.1414 34.1145H10.8457C10.7789 34.1145 10.7238 34.0594 10.7238 33.9926V24.5285C10.7238 24.4617 10.7789 24.4066 10.8457 24.4066H13.1414V34.1145ZM18.2742 34.1145H14.9074V24.4066H18.2742V34.1145ZM23.3777 34.1145H20.0402V24.4066H23.4457C22.302 27.5309 22.2785 30.9773 23.3777 34.1145ZM45.7758 38.2383C43.4027 40.6113 40.248 41.918 36.893 41.918C33.5379 41.918 30.382 40.6113 28.009 38.2383C23.1105 33.3398 23.1105 25.3699 28.009 20.4715C30.382 18.0984 33.5367 16.7918 36.893 16.7918C40.2492 16.7918 43.4039 18.0984 45.7758 20.4715C48.1488 22.8445 49.4555 25.9992 49.4555 29.3555C49.4555 32.7117 48.1488 35.8664 45.7758 38.2395V38.2383ZM57.6645 49.5387C56.9098 50.2945 55.6828 50.2992 54.9211 49.5527L46.3629 40.1074C46.5891 39.9082 46.8094 39.702 47.0238 39.4875C47.2734 39.2379 47.5125 38.9801 47.741 38.7164L57.6926 46.8117C58.043 47.1762 58.2352 47.6543 58.2352 48.1605C58.2352 48.6809 58.0324 49.1707 57.6645 49.5387Z" fill="url(#paint1_linear_390_6099)"/>
<path d="M44.0637 22.1824C42.1477 20.2664 39.6012 19.2117 36.8918 19.2117C34.1825 19.2117 31.636 20.2664 29.72 22.1824C27.804 24.0984 26.7493 26.6449 26.7493 29.3542C26.7493 32.0636 27.804 34.6101 29.72 36.5261C31.636 38.4421 34.1825 39.4968 36.8918 39.4968C39.6012 39.4968 42.1477 38.4421 44.0637 36.5261C48.0188 32.571 48.0188 26.1363 44.0637 22.1824ZM31.4836 34.1144H29.9989C29.0356 32.7257 28.5153 31.0804 28.5153 29.3542C28.5153 27.6281 29.0825 25.8339 30.1313 24.4066H31.4836V34.1144ZM42.8145 35.2781C41.2325 36.8601 39.129 37.732 36.8918 37.732C34.9583 37.732 33.1243 37.0792 31.6407 35.8816H36.7231C37.7637 35.8816 38.611 35.0343 38.611 33.9937V24.5296C38.611 23.489 37.7637 22.6417 36.7231 22.6417H31.8809C33.32 21.5625 35.0602 20.9789 36.8918 20.9789C39.129 20.9789 41.2325 21.8507 42.8145 23.4328C46.0805 26.6988 46.0805 32.0132 42.8145 35.2792V35.2781ZM33.2497 34.1144V24.4066H36.7231C36.7899 24.4066 36.845 24.4617 36.845 24.5285V33.9925C36.845 34.0593 36.7899 34.1144 36.7231 34.1144H33.2497Z" fill="url(#paint2_linear_390_6099)"/>
</g>
<defs>
<linearGradient id="paint0_linear_390_6099" x1="0.0012206" y1="33.0985" x2="28.8176" y2="33.0985" gradientUnits="userSpaceOnUse">
<stop stop-color="#223962"/>
<stop offset="0.526042" stop-color="#3277BC"/>
<stop offset="0.973958" stop-color="#48ABDF"/>
</linearGradient>
<linearGradient id="paint1_linear_390_6099" x1="-2.23509e-07" y1="25.9348" x2="59.9977" y2="25.9348" gradientUnits="userSpaceOnUse">
<stop stop-color="#223962"/>
<stop offset="0.526042" stop-color="#3277BC"/>
<stop offset="0.973958" stop-color="#48ABDF"/>
</linearGradient>
<linearGradient id="paint2_linear_390_6099" x1="26.7493" y1="29.3543" x2="47.03" y2="29.3543" gradientUnits="userSpaceOnUse">
<stop stop-color="#223962"/>
<stop offset="0.526042" stop-color="#3277BC"/>
<stop offset="0.973958" stop-color="#48ABDF"/>
</linearGradient>
<clipPath id="clip0_390_6099">
<rect width="60" height="51.873" fill="white"/>
</clipPath>
</defs>
</svg>
