<svg width="60" height="57" viewBox="0 0 60 57" fill="none" xmlns="http://www.w3.org/2000/svg">
<g clip-path="url(#clip0_502_4543)">
<path fill-rule="evenodd" clip-rule="evenodd" d="M58.2422 43.6472C58.2422 43.1621 58.6357 42.7685 59.1207 42.7682C59.6056 42.7685 59.9991 43.1621 59.9991 43.6472V45.782C59.9991 48.395 57.8731 50.5202 55.2601 50.5202H52.4863V54.4181C52.4863 55.4385 51.864 56.3156 50.9016 56.654C50.6371 56.7472 50.3672 56.792 50.1009 56.792C49.4004 56.792 48.7298 56.4791 48.2675 55.9026L43.9416 50.521H30.1296C27.5184 50.521 25.3932 48.395 25.3932 45.7829V32.2381H16.0575L11.7316 37.6205C11.2693 38.1962 10.5987 38.51 9.89819 38.51C9.63277 38.51 9.36206 38.4651 9.09752 38.372C8.13512 38.0336 7.51373 37.1556 7.51373 36.1361V32.2381H4.73904C2.12606 32.2381 0 30.1129 0 27.5008V4.73728C0 2.12519 2.12606 0 4.73904 0H29.8695C32.4816 0 34.6068 2.12519 34.6068 4.73728V18.2794H55.261C57.8739 18.2794 60 20.4037 60 23.0158V39.5427C60 40.0278 59.6063 40.4216 59.1211 40.4216C58.6359 40.4216 58.2422 40.0278 58.2422 39.5427V23.0158C58.2422 21.3731 56.9045 20.0372 55.261 20.0372H34.6068V25.9074C34.6194 25.907 34.6321 25.9064 34.6448 25.9058C34.6637 25.9048 34.6827 25.9039 34.7017 25.9039H40.0568V24.4431C40.0568 22.9877 41.2407 21.8038 42.6962 21.8038C44.1516 21.8038 45.3355 22.9877 45.3355 24.4431V25.9039H50.6916C52.147 25.9039 53.3309 27.0878 53.3309 28.5432C53.3309 29.9987 52.147 31.1826 50.6916 31.1826H50.0166C49.7186 32.246 49.2229 33.6602 48.4134 35.2027C47.8465 36.2837 47.1751 37.3261 46.4131 38.3131C47.618 39.2228 48.9838 40.019 50.4841 40.6861C51.1284 40.9718 51.6223 41.4921 51.8754 42.1504C52.1286 42.8087 52.1101 43.5267 51.8236 44.171C51.4017 45.1228 50.4543 45.7381 49.4119 45.7381C49.0427 45.7381 48.6824 45.6607 48.3414 45.5095C46.2619 44.5858 44.367 43.438 42.6979 42.0941C41.0271 43.4389 39.1322 44.5858 37.0536 45.5095C36.7153 45.6607 36.354 45.7381 35.9831 45.7381C34.9399 45.7381 33.9933 45.1228 33.5705 44.1701C33.284 43.5267 33.2656 42.8096 33.5187 42.1513C33.7718 41.493 34.2658 40.9727 34.91 40.687C36.4006 40.0243 37.7655 39.2263 38.9767 38.3078C38.2155 37.3217 37.5458 36.2811 36.9798 35.2035C36.1703 33.6611 35.6746 32.2469 35.3767 31.1834H34.7017C34.1893 31.1834 33.7024 31.0384 33.2875 30.7748C32.4245 31.6747 31.2116 32.2372 29.8695 32.2372H27.151V45.782C27.151 47.4256 28.487 48.7624 30.1296 48.7624H44.3635C44.6298 48.7624 44.8811 48.8836 45.0481 49.0911L49.6386 54.8013C49.8909 55.1151 50.224 55.0289 50.3198 54.9955C50.4428 54.9525 50.7293 54.8092 50.7293 54.4181V49.6413C50.7293 49.1561 51.1231 48.7624 51.6082 48.7624H55.261C56.9045 48.7624 58.2422 47.4256 58.2422 45.782V43.6472ZM41.8146 26.7854C41.8146 27.2706 41.4209 27.6643 40.9357 27.6643L40.9349 27.667H34.7008C34.6674 27.667 34.634 27.6705 34.6015 27.674C34.5813 28.2488 34.4582 28.799 34.2491 29.3044C34.3835 29.3843 34.5382 29.4292 34.7008 29.4292H36.0552C36.4621 29.4292 36.8154 29.7078 36.9104 30.1033C37.1486 31.1008 37.624 32.6538 38.5355 34.3888C39.1788 35.6149 39.9707 36.79 40.8874 37.8824C41.0377 38.0609 41.1098 38.292 41.0896 38.5249C41.0685 38.7569 40.9568 38.9723 40.7775 39.1217C39.2808 40.3732 37.5458 41.4411 35.6219 42.2963C35.4074 42.3921 35.2422 42.5652 35.1578 42.785C35.0735 43.0047 35.0796 43.2437 35.1754 43.4591C35.3169 43.7772 35.6333 43.9829 35.9814 43.9829C36.1044 43.9829 36.2231 43.9574 36.3364 43.9064C38.5012 42.9449 40.4479 41.7268 42.124 40.2871C42.4536 40.0041 42.9405 40.0041 43.2701 40.2871C44.9435 41.7259 46.8894 42.9431 49.0542 43.9055C49.1693 43.9565 49.2888 43.982 49.411 43.982C49.7599 43.982 50.0763 43.7772 50.2169 43.4591C50.3127 43.2437 50.3189 43.0038 50.2345 42.7841C50.1501 42.5643 49.9849 42.3903 49.7705 42.2954C47.8334 41.4341 46.0975 40.3689 44.6104 39.1287C44.4303 38.9793 44.3186 38.7649 44.2975 38.5319C44.2764 38.299 44.3494 38.0679 44.4997 37.8886C45.4181 36.7952 46.2109 35.6175 46.8569 34.3879C47.7683 32.6521 48.2438 31.0991 48.482 30.1024C48.5769 29.706 48.9302 29.4274 49.3372 29.4274H50.6916C51.1776 29.4274 51.5731 29.0319 51.5731 28.5459C51.5731 28.0598 51.1776 27.6643 50.6916 27.6643H44.4566C43.9715 27.6643 43.5777 27.2706 43.5777 26.7854V24.4458C43.5777 23.9597 43.1822 23.5642 42.6962 23.5642C42.2101 23.5642 41.8146 23.9597 41.8146 24.4458V26.7854ZM14.9519 30.809C15.118 30.6007 15.3702 30.4803 15.6365 30.4803V30.4794H29.8695C31.5122 30.4794 32.849 29.1426 32.849 27.5V27.0869V27.0693V19.1662V19.1609V19.1557V4.73728C32.849 3.09461 31.5122 1.7578 29.8695 1.7578H4.73904C3.09549 1.7578 1.7578 3.09461 1.7578 4.73728V27.5017C1.7578 29.1444 3.09549 30.4812 4.73904 30.4812H8.39264C8.87779 30.4812 9.27154 30.8749 9.27154 31.3601V36.1369C9.27154 36.528 9.55806 36.6713 9.68111 36.7144C9.80415 36.7574 10.117 36.8251 10.3623 36.5201L14.9519 30.809ZM42.0058 36.4836C41.3141 35.6214 40.6979 34.6906 40.175 33.7177C39.6283 32.7008 39.1862 31.639 38.8602 30.5606C38.7793 30.2943 38.8294 30.0061 38.9955 29.7828C39.1616 29.5596 39.4227 29.4277 39.7013 29.4277H45.6945C45.9731 29.4277 46.2341 29.5596 46.4003 29.7828C46.5655 30.0061 46.6165 30.2943 46.5356 30.5606C46.0935 32.024 45.1865 34.2406 43.3751 36.4853C43.2081 36.6919 42.9567 36.8123 42.6913 36.8123H42.6904C42.4241 36.8123 42.1727 36.691 42.0058 36.4836ZM42.6931 34.4674C43.5201 33.2826 44.0808 32.1435 44.4588 31.1847H40.9352C41.1611 31.7621 41.4248 32.3307 41.7227 32.8853C42.0154 33.4294 42.3397 33.9585 42.6931 34.4674ZM20.0253 6.50761C20.0218 6.4997 20.0174 6.48827 20.0148 6.48036L20.0081 6.46384C20.0045 6.45485 20.001 6.44607 19.9972 6.4373C19.5287 5.30527 18.4363 4.57314 17.2076 4.57227C15.9789 4.57227 14.8829 5.30703 14.4153 6.44345L14.4121 6.45117C14.4098 6.4567 14.4074 6.46283 14.4056 6.4663C14.3986 6.48388 14.3916 6.50233 14.3845 6.52079L12.4448 11.6615C12.2734 12.1159 12.5028 12.623 12.9572 12.7944C13.4116 12.9658 13.9187 12.7364 14.0901 12.282L16.0316 7.13602C16.0321 7.13459 16.0326 7.13316 16.0332 7.13173C16.0337 7.13052 16.0342 7.12932 16.0347 7.12811C16.0358 7.12548 16.0369 7.12284 16.0377 7.1202V7.12284L16.0421 7.10878C16.2381 6.63593 16.6952 6.33007 17.2084 6.33007C17.7217 6.33007 18.1796 6.63856 18.3747 7.11405L18.3783 7.12285L18.3818 7.13163L24.6712 23.6444C24.8443 24.0988 24.6149 24.6095 24.1623 24.7826C23.707 24.9558 23.1964 24.7272 23.0241 24.2729L21.8895 21.2943C21.7594 20.9532 21.4324 20.7282 21.0677 20.7282H13.394C13.0284 20.7282 12.7006 20.955 12.5722 21.2969L11.449 24.2711C11.3216 24.6112 10.9902 24.8397 10.6255 24.8397C10.5191 24.8397 10.4154 24.8204 10.3152 24.7826C9.86082 24.6112 9.63054 24.1015 9.80193 23.648L12.6566 16.0824C12.828 15.628 12.5986 15.1208 12.1442 14.9495C11.6898 14.7781 11.1827 15.0075 11.0113 15.4619L8.15663 23.0275C7.9079 23.6866 7.93075 24.4038 8.22079 25.0463C8.51082 25.6879 9.03377 26.1792 9.69207 26.427C9.99089 26.5404 10.3047 26.5975 10.6246 26.5975C11.7179 26.5975 12.7102 25.9111 13.0934 24.8898L14.0013 22.4852H20.4613L21.3797 24.8978C21.7796 25.9489 22.7851 26.5975 23.8494 26.5975C24.1614 26.5975 24.4778 26.5422 24.7863 26.4244C26.1442 25.9059 26.8289 24.3774 26.3121 23.0187L20.0236 6.50849L20.0253 6.50761ZM19.7276 18.9649H14.7231C14.434 18.9649 14.1641 18.8234 13.9998 18.5861C13.8354 18.3488 13.7985 18.0456 13.9005 17.7757L16.3913 11.1761C16.5205 10.8342 16.8465 10.6074 17.2122 10.6074C17.5804 10.6083 17.9047 10.8324 18.0348 11.1734L20.5485 17.7731C20.6513 18.0429 20.6144 18.3462 20.4509 18.5843C20.2874 18.8225 20.0167 18.9649 19.7276 18.9649ZM17.2179 13.9669L15.9949 17.2071H18.4523L17.2179 13.9669Z" fill="url(#paint0_linear_502_4543)"/>
</g>
<defs>
<linearGradient id="paint0_linear_502_4543" x1="-2.23517e-07" y1="28.396" x2="60" y2="28.396" gradientUnits="userSpaceOnUse">
<stop stop-color="#223962"/>
<stop offset="0.526042" stop-color="#3277BC"/>
<stop offset="0.973958" stop-color="#48ABDF"/>
</linearGradient>
<clipPath id="clip0_502_4543">
<rect width="60" height="56.792" fill="white"/>
</clipPath>
</defs>
</svg>
