<svg width="60" height="46" viewBox="0 0 60 46" fill="none" xmlns="http://www.w3.org/2000/svg">
<path d="M57.4805 29.7377H52.7892V24.3214C52.7892 23.1907 51.8692 22.2706 50.7384 22.2706H30.8789V16.2624H36.7421C38.1314 16.2624 39.2617 15.1321 39.2617 13.7429V2.86133C39.2617 1.47207 38.1314 0.341797 36.7421 0.341797H33.8598C33.3743 0.341797 32.9809 0.735196 32.9809 1.2207C32.9809 1.70621 33.3743 2.09961 33.8598 2.09961H36.7421C37.1621 2.09961 37.5039 2.44133 37.5039 2.86133V13.7429C37.5039 14.1629 37.1621 14.5046 36.7421 14.5046H23.2579C22.8379 14.5046 22.4961 14.1629 22.4961 13.7429V2.86133C22.4961 2.44133 22.8379 2.09961 23.2579 2.09961H30.3442C30.8297 2.09961 31.2231 1.70621 31.2231 1.2207C31.2231 0.735196 30.8297 0.341797 30.3442 0.341797H23.2579C21.8686 0.341797 20.7383 1.47195 20.7383 2.86133V13.7429C20.7383 15.1321 21.8686 16.2624 23.2579 16.2624H29.121V22.2706H9.26168C8.13094 22.2706 7.2109 23.1907 7.2109 24.3214V29.7377H2.51953C1.13027 29.7377 0 30.868 0 32.2572V43.1389C0 44.5282 1.13027 45.6584 2.51953 45.6584H4.47176C4.95715 45.6584 5.35066 45.265 5.35066 44.7795C5.35066 44.294 4.95715 43.9006 4.47176 43.9006H2.51953C2.09953 43.9006 1.75781 43.5589 1.75781 43.1389V32.2572C1.75781 31.8372 2.09953 31.4955 2.51953 31.4955H13.66C14.08 31.4955 14.4217 31.8372 14.4217 32.2572V43.1389C14.4217 43.5589 14.08 43.9006 13.66 43.9006H7.98738C7.50199 43.9006 7.10848 44.294 7.10848 44.7795C7.10848 45.265 7.50199 45.6584 7.98738 45.6584H13.66C15.0492 45.6584 16.1795 44.5282 16.1795 43.1389V32.2572C16.1795 30.868 15.0492 29.7377 13.66 29.7377H8.96871V24.3214C8.96871 24.1598 9.10019 24.0284 9.26168 24.0284H29.1211V29.7377H24.4298C23.0406 29.7377 21.9103 30.868 21.9103 32.2572V43.1389C21.9103 44.5282 23.0406 45.6584 24.4298 45.6584H35.5703C36.9595 45.6584 38.0898 44.5282 38.0898 43.1389V32.2572C38.0898 30.868 36.9595 29.7377 35.5703 29.7377H30.8789V24.0284H50.7384C50.9 24.0284 51.0314 24.1598 51.0314 24.3214V29.7377H46.34C44.9508 29.7377 43.8205 30.868 43.8205 32.2572V43.1389C43.8205 44.5282 44.9508 45.6584 46.34 45.6584H57.4805C58.8697 45.6584 60 44.5282 60 43.1389V32.2572C60 30.8679 58.8697 29.7377 57.4805 29.7377ZM36.332 32.2572V43.1389C36.332 43.5589 35.9903 43.9006 35.5703 43.9006H24.4298C24.0098 43.9006 23.6681 43.5589 23.6681 43.1389V32.2572C23.6681 31.8372 24.0098 31.4955 24.4298 31.4955H35.5703C35.9903 31.4955 36.332 31.8372 36.332 32.2572ZM58.2422 43.1388C58.2422 43.5588 57.9005 43.9005 57.4805 43.9005H46.34C45.92 43.9005 45.5783 43.5588 45.5783 43.1388V32.2571C45.5783 31.8371 45.92 31.4954 46.34 31.4954H57.4805C57.9005 31.4954 58.2422 31.8371 58.2422 32.2571V43.1388Z" fill="url(#paint0_linear_390_5289)"/>
<defs>
<linearGradient id="paint0_linear_390_5289" x1="-2.23517e-07" y1="23.0001" x2="60" y2="23.0001" gradientUnits="userSpaceOnUse">
<stop stop-color="#223962"/>
<stop offset="0.526042" stop-color="#3277BC"/>
<stop offset="0.973958" stop-color="#48ABDF"/>
</linearGradient>
</defs>
</svg>
