<svg width="80" height="80" viewBox="0 0 80 80" fill="none" xmlns="http://www.w3.org/2000/svg">
<g clip-path="url(#clip0_1_1578)">
<path d="M79.6379 68.9944C79.6343 68.9881 79.6305 68.9819 79.6268 68.9758L76.9163 64.5308C76.5596 63.9271 75.9899 63.4969 75.3114 63.3189C74.8075 63.1869 74.2881 63.2054 73.8054 63.3674C74.0409 59.4435 73.9329 55.6434 73.4825 52.0428C72.9583 47.8527 70.2108 44.2143 66.3072 42.535C66.2132 42.2581 66.0819 41.9917 65.9146 41.7423L63.3329 37.8961C62.972 37.3586 62.2435 37.2157 61.7068 37.5761C61.1695 37.9369 61.0262 38.665 61.3868 39.2022L63.9685 43.0484C64.117 43.2695 64.1704 43.535 64.119 43.7961C64.0677 44.0571 63.9177 44.2825 63.6968 44.4307L54.8007 50.4024L53.8982 48.8586C52.9065 47.1612 50.7284 46.5901 49.0312 47.5824C47.4739 48.4927 46.8442 50.4257 47.5665 52.0785L48.6195 54.4881C48.2187 54.5964 47.7756 54.4448 47.532 54.0817L45.4381 50.9621C44.7164 49.8871 43.2547 49.5994 42.1797 50.321L39.954 51.815C39.2657 52.2772 38.4193 52.4361 37.631 52.2506C36.8781 52.0736 36.2527 51.6067 35.8706 50.9361C35.1504 49.6721 35.534 48.0457 36.744 47.2335L39.0622 45.6774C40.1369 44.9559 40.4244 43.4942 39.703 42.419L37.6091 39.2997C37.3029 38.8435 37.4248 38.2231 37.8809 37.9171L40.751 35.9905C40.7641 35.9816 40.7821 35.9852 40.7908 35.9983L42.1652 38.0458C43.6567 40.2673 46.6772 40.8614 48.8987 39.3705C51.1204 37.8791 51.7144 34.8585 50.2234 32.637L48.849 30.5895C48.8413 30.5782 48.8456 30.557 48.8567 30.5495L52.6632 27.9942C53.119 27.6883 53.7397 27.8098 54.0458 28.2661L58.8611 35.4396C59.2219 35.9771 59.9503 36.1199 60.4872 35.7596C61.0245 35.3988 61.1678 34.6707 60.8071 34.1335L55.9919 26.96C54.9655 25.431 52.8863 25.0217 51.3571 26.0481L47.5506 28.6034C47.0243 28.9567 46.6673 29.4937 46.545 30.1156C46.4226 30.7373 46.5498 31.3695 46.9029 31.8957L48.2773 33.9432C49.0484 35.0919 48.7412 36.6535 47.5926 37.4244C46.4437 38.1956 44.8822 37.8882 44.1114 36.7397L42.737 34.6923C42.3838 34.166 41.8469 33.809 41.225 33.6865C40.6033 33.564 39.9711 33.6915 39.4449 34.0444L36.5748 35.971C35.834 36.4683 35.3312 37.2243 35.159 38.0997C34.9867 38.9752 35.1659 39.8652 35.6632 40.6059L37.7562 43.7314L35.4378 45.2876C33.2137 46.7805 32.5094 49.7713 33.834 52.0966C34.5423 53.3395 35.7003 54.2045 37.0945 54.5323C38.5146 54.8665 40.0329 54.585 41.2599 53.7612L43.4917 52.2683L45.5858 55.3881C46.2295 56.3472 47.2875 56.8654 48.3639 56.8654C48.7671 56.8654 49.1731 56.7926 49.5607 56.6431L51.3154 60.6585C52.0719 62.3897 53.3116 63.8452 54.9008 64.8669L57.4747 66.5222C58.165 66.9663 58.7487 67.5755 59.1631 68.284L60.7621 71.0196C60.4256 71.3498 60.1831 71.7657 60.0604 72.2337C59.8814 72.9165 59.979 73.6282 60.3353 74.2377C60.3389 74.244 60.3426 74.2502 60.3464 74.2563L63.0568 78.7011C63.549 79.5342 64.4315 79.9991 65.3368 79.9991C65.7894 79.9991 66.2479 79.8828 66.6661 79.6383L72.6261 76.1544C73.1848 75.8279 73.3729 75.1101 73.0462 74.5513C72.7197 73.9927 72.0022 73.8045 71.4431 74.1312L65.4832 77.615C65.3412 77.6983 65.1569 77.6503 65.0738 77.5075C65.0702 77.5014 65.0665 77.4952 65.0627 77.4891L62.3551 73.0488C62.3071 72.9626 62.3135 72.8816 62.3274 72.8282C62.3418 72.7734 62.3774 72.6974 62.466 72.6457L74.4901 65.6172C74.5784 65.5653 74.662 65.5719 74.7168 65.5861C74.7715 65.6005 74.8476 65.6361 74.8993 65.7247C74.9029 65.731 74.9067 65.7372 74.9104 65.7433L77.6179 70.1832C77.6963 70.3248 77.6476 70.5047 77.5071 70.5867L75.3549 71.8448C74.7962 72.1713 74.6081 72.8891 74.9348 73.4479C75.2614 74.0065 75.9788 74.1948 76.5379 73.868L78.6901 72.6099C79.2994 72.2538 79.7338 71.6815 79.9127 70.9987C80.0918 70.3156 79.9941 69.604 79.6379 68.9944ZM58.7423 64.551L56.1684 62.8957C54.9692 62.1246 54.0338 61.0266 53.463 59.7202L49.7137 51.1403C49.4673 50.5763 49.6823 49.9166 50.2137 49.606C50.792 49.2682 51.5351 49.461 51.8746 50.0416L56.2959 57.6053C56.6225 58.1639 57.34 58.352 57.8991 58.0254C58.4578 57.6989 58.6459 56.9811 58.3192 56.4223L55.9853 52.4299L65.0026 46.377C65.5026 46.0415 65.8943 45.5879 66.1488 45.0592C68.8808 46.5321 70.7705 49.2472 71.1564 52.3336C71.6462 56.249 71.714 60.4173 71.3583 64.7327L62.7448 69.7676L61.186 67.1012C60.5868 66.0756 59.7417 65.1938 58.7423 64.551Z" fill="url(#paint0_linear_1_1578)"/>
<path d="M34.3863 32.4218C35.6719 32.4218 36.8864 31.9451 37.8408 31.0582C38.9094 30.0653 39.5224 28.6479 39.5224 27.1697L39.5267 24.4846H43.284C45.1257 24.4846 46.624 22.9861 46.624 21.1444V3.3409C46.624 1.4992 45.1257 0.000938416 43.284 0.000938416H25.4802C24.6516 0.000938416 23.8927 0.304216 23.3083 0.80546C22.7249 0.307966 21.9688 0.00734459 21.1438 0.00734459H11.628C10.9807 0.00734459 10.4561 0.53187 10.4561 1.17921C10.4561 1.82654 10.9807 2.35107 11.628 2.35107H21.1438C21.6933 2.35107 22.1402 2.79794 22.1402 3.34731V7.10461C22.1402 8.39943 23.1935 9.4527 24.4881 9.4527H27.1689C27.998 9.4527 28.7894 9.79286 29.3403 10.3858C29.8668 10.9525 30.1256 11.6885 30.0692 12.4584C29.9626 13.9094 28.7376 15.0459 27.2801 15.0459H24.488C23.1933 15.0459 22.1401 16.0992 22.1401 17.394V21.1513C22.1401 21.6663 21.7471 22.0915 21.2452 22.1424L17.3821 22.1365V19.3443C17.3821 16.6656 15.2914 14.4137 12.6227 14.218C11.1933 14.1134 9.83207 14.5923 8.78287 15.5673C7.71428 16.5603 7.10148 17.9776 7.10148 19.4557L7.09726 22.1408L3.2384 22.1424C2.73637 22.0913 2.34357 21.6663 2.34357 21.1513V3.34731C2.34357 2.79794 2.79044 2.35107 3.33996 2.35107H7.09679C7.74413 2.35107 8.26865 1.82654 8.26865 1.17921C8.26865 0.53187 7.74413 0.00734459 7.09679 0.00734459H3.34012C1.49842 0.00734459 0 1.50561 0 3.34731V21.1512C0 21.9763 0.300778 22.7325 0.798584 23.316C0.300778 23.8994 0 24.6556 0 25.4808V43.2845C0 45.1262 1.49842 46.6246 3.34012 46.6246H21.1438C22.9855 46.6246 24.4839 45.1262 24.4839 43.2845V38.6999C24.4839 37.3918 23.4196 36.3274 22.1113 36.3274H19.6456C18.2621 36.3274 17.1367 35.2019 17.1367 33.8185C17.1367 32.4351 18.2621 31.3096 19.6456 31.3096H22.1113C23.4196 31.3096 24.4839 30.2453 24.4839 28.9372V25.4805C24.4839 25.0458 24.4005 24.6303 24.2488 24.2491C24.63 24.4008 25.0455 24.4844 25.4802 24.4844L29.2418 24.4888V27.2809C29.2418 29.9595 31.3324 32.2112 34.0013 32.4073C34.1305 32.4171 34.2587 32.4218 34.3863 32.4218ZM22.1402 28.9375C22.1402 28.9534 22.1272 28.9662 22.1113 28.9662H19.6456C16.9698 28.9662 14.793 31.1431 14.793 33.8188C14.793 36.4946 16.9698 38.6714 19.6456 38.6714H22.1113C22.1272 38.6714 22.1402 38.6842 22.1402 38.7002V43.2848C22.1402 43.8343 21.6933 44.2812 21.1438 44.2812H3.34012C2.79059 44.2812 2.34372 43.8343 2.34372 43.2848V25.4808C2.34372 24.9656 2.73669 24.5405 3.23856 24.4896C3.36293 24.4933 3.23902 24.4844 7.09742 24.4844C8.39209 24.4844 9.44536 23.4311 9.44536 22.1365V19.4557C9.44536 18.6267 9.78551 17.8354 10.3785 17.2843C10.9452 16.7578 11.6814 16.4986 12.4513 16.5554C13.9022 16.662 15.0387 17.887 15.0387 19.3445V22.1366C15.0387 23.4313 16.092 24.4846 17.3867 24.4846C21.2454 24.4846 21.1208 24.4935 21.2455 24.4897C21.7476 24.5408 22.1404 24.9658 22.1404 25.481V28.9375H22.1402ZM31.5856 27.2814V24.4892C31.5856 23.1944 30.5323 22.1411 29.2375 22.1411H25.4802C24.9311 22.1411 24.4842 21.6946 24.4839 21.1452L24.4881 17.3895H27.2803C29.959 17.3895 32.2109 15.2987 32.4067 12.63C32.5115 11.2032 32.0323 9.83957 31.0573 8.79037C30.0645 7.72179 28.6472 7.10898 27.1689 7.10898L24.4838 7.10461V3.34731C24.4838 3.3459 24.4838 3.34449 24.4838 3.34309C24.4838 3.34231 24.4838 3.34168 24.4838 3.3409C24.4838 2.79153 24.9306 2.34466 25.48 2.34466H43.2839C43.8332 2.34466 44.2801 2.79153 44.2801 3.3409V21.1446C44.2801 21.6941 43.8332 22.141 43.2839 22.141H39.5266C38.2317 22.141 37.1785 23.1943 37.1785 24.4891V27.1697C37.1785 27.9987 36.8383 28.7901 36.2452 29.3412C35.6786 29.8676 34.9415 30.1257 34.1729 30.0701C32.7223 29.9637 31.5856 28.7386 31.5856 27.2814Z" fill="url(#paint1_linear_1_1578)"/>
</g>
<defs>
<linearGradient id="paint0_linear_1_1578" x1="33.1665" y1="52.7408" x2="80.0002" y2="52.7408" gradientUnits="userSpaceOnUse">
<stop stop-color="#223962"/>
<stop offset="0.526042" stop-color="#3277BC"/>
<stop offset="0.973958" stop-color="#48ABDF"/>
</linearGradient>
<linearGradient id="paint1_linear_1_1578" x1="-1.73688e-07" y1="23.3128" x2="46.624" y2="23.3128" gradientUnits="userSpaceOnUse">
<stop stop-color="#223962"/>
<stop offset="0.526042" stop-color="#3277BC"/>
<stop offset="0.973958" stop-color="#48ABDF"/>
</linearGradient>
<clipPath id="clip0_1_1578">
<rect width="80" height="80" fill="white"/>
</clipPath>
</defs>
</svg>
