<svg width="60" height="52" viewBox="0 0 60 52" fill="none" xmlns="http://www.w3.org/2000/svg">
<g clip-path="url(#clip0_343_4863)">
<path d="M57.9487 45.085H56.1145V41.0061C56.1391 40.9876 56.1637 40.9691 56.1883 40.9489L59.3541 38.2393C59.8524 37.813 60.0071 37.1002 59.7294 36.5061L56.5636 29.7324C56.3201 29.2112 55.8121 28.8878 55.2364 28.8878C54.6616 28.8878 54.1528 29.2112 53.9093 29.7324L52.2297 33.3253V20.4626C52.2297 19.9774 51.836 19.5837 51.3508 19.5837C50.8657 19.5837 50.4719 19.9774 50.4719 20.4626V45.085H42.3377V42.4114H46.4334C47.5645 42.4114 48.4838 41.4912 48.4838 40.3609V32.7092C48.4838 31.5781 47.5636 30.6587 46.4334 30.6587H42.3377V27.1563H46.4334C47.5645 27.1563 48.4838 26.2361 48.4838 25.1058V17.4541C48.4838 16.323 47.5636 15.4036 46.4334 15.4036H42.3377V12.73H50.1784C50.3401 12.73 50.471 12.8619 50.471 13.0227V16.6104C50.471 17.0955 50.8648 17.4893 51.3499 17.4893C51.8351 17.4893 52.2288 17.0955 52.2288 16.6104V13.0227C52.2288 11.8915 51.3086 10.9722 50.1784 10.9722H42.3377V2.05048C42.3377 0.919331 41.4175 0 40.2872 0H19.7139C18.5827 0 17.6634 0.92021 17.6634 2.05048V10.9696H15.5408C15.0557 10.9696 14.6619 11.3633 14.6619 11.8485C14.6619 12.3336 15.0557 12.7274 15.5408 12.7274H17.6634V15.401H13.5677C12.4366 15.401 11.5172 16.3212 11.5172 17.4515V25.1032C11.5172 26.2343 12.4374 27.1537 13.5677 27.1537H17.6634V30.6561H13.5677C12.4366 30.6561 11.5172 31.5763 11.5172 32.7066V40.3583C11.5172 41.4894 12.4374 42.4088 13.5677 42.4088H17.6634V45.0824H9.52915V13.0209C9.52915 12.8592 9.66099 12.7283 9.82183 12.7283H11.686C12.1711 12.7283 12.5649 12.3345 12.5649 11.8494C12.5649 11.3642 12.1711 10.9705 11.686 10.9705H9.82183C8.69068 10.9705 7.77135 11.8907 7.77135 13.0209V33.3253L6.09177 29.7324C5.84831 29.2112 5.33943 28.8878 4.76463 28.8878C4.18982 28.8878 3.68094 29.2112 3.43748 29.7324L0.271678 36.5052C-0.00605467 37.0993 0.147753 37.8121 0.646091 38.2384L3.8119 40.948C3.83563 40.9683 3.86023 40.9867 3.88572 41.0052V45.0842H2.05145C0.920308 45.0842 0.000976562 46.0044 0.000976562 47.1346V49.5516C0.000976562 50.6828 0.921187 51.6021 2.05145 51.6021H13.0993C13.5844 51.6021 13.9782 51.2083 13.9782 50.7232C13.9782 50.238 13.5844 49.8443 13.0993 49.8443H2.05058C1.88886 49.8443 1.7579 49.7125 1.7579 49.5516V47.1346C1.7579 46.9729 1.88974 46.842 2.05058 46.842H29.9979C29.9979 46.842 29.9988 46.842 29.9997 46.842C30.0005 46.842 30.0005 46.842 30.0014 46.842H57.9487C58.1105 46.842 58.2414 46.9738 58.2414 47.1346V49.5516C58.2414 49.7133 58.1096 49.8443 57.9487 49.8443H16.9532C16.4681 49.8443 16.0743 50.238 16.0743 50.7232C16.0743 51.2083 16.4681 51.6021 16.9532 51.6021H57.9496C59.0808 51.6021 60.0001 50.6819 60.0001 49.5516V47.1346C60.0001 46.0035 59.0799 45.0842 57.9496 45.0842L57.9487 45.085ZM1.95829 37.0484L4.76463 31.0446L7.57096 37.0484L4.76463 39.4504L1.95829 37.0484ZM5.64353 41.0061C5.66814 40.9876 5.69362 40.9691 5.71735 40.9489L7.77135 39.1911V45.0859H5.64353V41.0069V41.0061ZM46.4334 40.6536H42.3377V37.414H46.726V40.3609C46.726 40.5227 46.5942 40.6536 46.4334 40.6536ZM46.4334 32.4157C46.5951 32.4157 46.726 32.5475 46.726 32.7083V35.6553H42.3377V32.4157H46.4334ZM46.4334 25.3976H42.3377V22.158H46.726V25.105C46.726 25.2667 46.5942 25.3976 46.4334 25.3976ZM46.4334 17.1597C46.5951 17.1597 46.726 17.2915 46.726 17.4524V20.3993H42.3377V17.1597H46.4334ZM13.5677 17.1597H17.6634V20.3993H13.275V17.4524C13.275 17.2906 13.4069 17.1597 13.5677 17.1597ZM13.5677 25.3976C13.406 25.3976 13.275 25.2658 13.275 25.105V22.158H17.6634V25.3976H13.5677ZM13.5677 32.4157H17.6634V35.6553H13.275V32.7083C13.275 32.5466 13.4069 32.4157 13.5677 32.4157ZM13.5677 40.6536C13.406 40.6536 13.275 40.5218 13.275 40.3609V37.414H17.6634V40.6536H13.5677ZM19.4212 41.5334V36.5368V31.5403V26.2818V21.2852V16.2887V2.05048C19.4212 1.88876 19.553 1.7578 19.7139 1.7578H40.2872C40.4489 1.7578 40.5799 1.88964 40.5799 2.05048V21.2765C40.5799 21.2765 40.5799 21.2773 40.5799 21.2782C40.5799 21.2791 40.5799 21.2791 40.5799 21.28V36.5324C40.5799 36.5324 40.5799 36.5333 40.5799 36.5342C40.5799 36.5351 40.5799 36.5351 40.5799 36.536V45.085H35.4181V37.4131H35.6431C36.7742 37.4131 37.6936 36.4929 37.6936 35.3626V34.351C37.6936 33.2199 36.7734 32.3005 35.6431 32.3005H24.3571C23.226 32.3005 22.3066 33.2207 22.3066 34.351V35.3626C22.3066 36.4938 23.2268 37.4131 24.3571 37.4131H24.5821V45.085H19.4203V41.5334H19.4212ZM24.358 35.6562C24.1963 35.6562 24.0653 35.5243 24.0653 35.3635V34.3519C24.0653 34.1902 24.1971 34.0592 24.358 34.0592H35.644C35.8057 34.0592 35.9366 34.191 35.9366 34.3519V35.3635C35.9366 35.5252 35.8048 35.6562 35.644 35.6562H34.5418C34.5418 35.6562 34.5409 35.6562 34.5401 35.6562H25.4628C25.4628 35.6562 25.4619 35.6562 25.461 35.6562H24.3589H24.358ZM26.3408 37.414H29.1216V45.0859H26.3408V37.414ZM30.8794 45.0859V37.414H33.6603V45.0859H30.8794ZM55.2364 31.0455L58.0428 37.0492L55.2364 39.4504L52.4301 37.0492L55.2364 31.0455ZM52.2297 39.1911L54.2837 40.9489C54.3074 40.9691 54.3321 40.9876 54.3567 41.0061V45.085H52.2288V39.1902L52.2297 39.1911Z" fill="url(#paint0_linear_343_4863)"/>
<path d="M26.6781 29.8973C27.8093 29.8973 28.7286 28.9771 28.7286 27.8468V24.2917C28.7286 23.1605 27.8084 22.2412 26.6781 22.2412H23.123C21.9918 22.2412 21.0725 23.1614 21.0725 24.2917V27.8468C21.0725 28.978 21.9927 29.8973 23.123 29.8973H26.6781ZM22.8294 27.8468V24.2917C22.8294 24.13 22.9613 23.999 23.1221 23.999H26.6773C26.839 23.999 26.9699 24.1309 26.9699 24.2917V27.8468C26.9699 28.0086 26.8381 28.1395 26.6773 28.1395H23.1221C22.9604 28.1395 22.8294 28.0077 22.8294 27.8468Z" fill="url(#paint1_linear_343_4863)"/>
<path d="M33.321 29.8973H36.877C38.0082 29.8973 38.9275 28.9771 38.9275 27.8468V24.2917C38.9275 23.1605 38.0073 22.2412 36.877 22.2412H33.321C32.1898 22.2412 31.2705 23.1614 31.2705 24.2917V27.8468C31.2705 28.978 32.1907 29.8973 33.321 29.8973ZM33.0283 24.2908C33.0283 24.1291 33.1601 23.9981 33.321 23.9981H36.877C37.0387 23.9981 37.1697 24.13 37.1697 24.2908V27.846C37.1697 28.0077 37.0379 28.1386 36.877 28.1386H33.321C33.1593 28.1386 33.0283 28.0068 33.0283 27.846V24.2908Z" fill="url(#paint2_linear_343_4863)"/>
<path d="M23.123 20.8573H26.6781C27.8093 20.8573 28.7286 19.9371 28.7286 18.8068V15.2517C28.7286 14.1205 27.8084 13.2012 26.6781 13.2012H23.123C21.9918 13.2012 21.0725 14.1214 21.0725 15.2517V18.8068C21.0725 19.938 21.9927 20.8573 23.123 20.8573ZM22.8303 15.2508C22.8303 15.0891 22.9621 14.9581 23.123 14.9581H26.6781C26.8399 14.9581 26.9708 15.0899 26.9708 15.2508V18.8059C26.9708 18.9676 26.839 19.0986 26.6781 19.0986H23.123C22.9613 19.0986 22.8303 18.9668 22.8303 18.8059V15.2508Z" fill="url(#paint3_linear_343_4863)"/>
<path d="M33.321 20.8573H36.877C38.0082 20.8573 38.9275 19.9371 38.9275 18.8068V15.2517C38.9275 14.1205 38.0073 13.2012 36.877 13.2012H33.321C32.1898 13.2012 31.2705 14.1214 31.2705 15.2517V18.8068C31.2705 19.938 32.1907 20.8573 33.321 20.8573ZM33.0283 15.2508C33.0283 15.0891 33.1601 14.9581 33.321 14.9581H36.877C37.0387 14.9581 37.1697 15.0899 37.1697 15.2508V18.8059C37.1697 18.9676 37.0379 19.0986 36.877 19.0986H33.321C33.1593 19.0986 33.0283 18.9668 33.0283 18.8059V15.2508Z" fill="url(#paint4_linear_343_4863)"/>
<path d="M23.123 11.8172H26.6781C27.8093 11.8172 28.7286 10.897 28.7286 9.76677V6.21161C28.7286 5.08046 27.8084 4.16113 26.6781 4.16113H23.123C21.9918 4.16113 21.0725 5.08134 21.0725 6.21161V9.76677C21.0725 10.8979 21.9927 11.8172 23.123 11.8172ZM22.8303 6.21073C22.8303 6.04901 22.9621 5.91806 23.123 5.91806H26.6781C26.8399 5.91806 26.9708 6.04989 26.9708 6.21073V9.76589C26.9708 9.92761 26.839 10.0586 26.6781 10.0586H23.123C22.9613 10.0586 22.8303 9.92673 22.8303 9.76589V6.21073Z" fill="url(#paint5_linear_343_4863)"/>
<path d="M33.321 11.8172H36.877C38.0082 11.8172 38.9275 10.897 38.9275 9.76677V6.21161C38.9275 5.08046 38.0073 4.16113 36.877 4.16113H33.321C32.1898 4.16113 31.2705 5.08134 31.2705 6.21161V9.76677C31.2705 10.8979 32.1907 11.8172 33.321 11.8172ZM33.0283 6.21073C33.0283 6.04901 33.1601 5.91806 33.321 5.91806H36.877C37.0387 5.91806 37.1697 6.04989 37.1697 6.21073V9.76589C37.1697 9.92761 37.0379 10.0586 36.877 10.0586H33.321C33.1593 10.0586 33.0283 9.92673 33.0283 9.76589V6.21073Z" fill="url(#paint6_linear_343_4863)"/>
</g>
<defs>
<linearGradient id="paint0_linear_343_4863" x1="0.000976339" y1="25.8011" x2="60.0001" y2="25.8011" gradientUnits="userSpaceOnUse">
<stop stop-color="#223962"/>
<stop offset="0.526042" stop-color="#3277BC"/>
<stop offset="0.973958" stop-color="#48ABDF"/>
</linearGradient>
<linearGradient id="paint1_linear_343_4863" x1="21.0725" y1="26.0693" x2="28.7286" y2="26.0693" gradientUnits="userSpaceOnUse">
<stop stop-color="#223962"/>
<stop offset="0.526042" stop-color="#3277BC"/>
<stop offset="0.973958" stop-color="#48ABDF"/>
</linearGradient>
<linearGradient id="paint2_linear_343_4863" x1="31.2705" y1="26.0693" x2="38.9275" y2="26.0693" gradientUnits="userSpaceOnUse">
<stop stop-color="#223962"/>
<stop offset="0.526042" stop-color="#3277BC"/>
<stop offset="0.973958" stop-color="#48ABDF"/>
</linearGradient>
<linearGradient id="paint3_linear_343_4863" x1="21.0725" y1="17.0292" x2="28.7286" y2="17.0292" gradientUnits="userSpaceOnUse">
<stop stop-color="#223962"/>
<stop offset="0.526042" stop-color="#3277BC"/>
<stop offset="0.973958" stop-color="#48ABDF"/>
</linearGradient>
<linearGradient id="paint4_linear_343_4863" x1="31.2705" y1="17.0292" x2="38.9275" y2="17.0292" gradientUnits="userSpaceOnUse">
<stop stop-color="#223962"/>
<stop offset="0.526042" stop-color="#3277BC"/>
<stop offset="0.973958" stop-color="#48ABDF"/>
</linearGradient>
<linearGradient id="paint5_linear_343_4863" x1="21.0725" y1="7.98919" x2="28.7286" y2="7.98919" gradientUnits="userSpaceOnUse">
<stop stop-color="#223962"/>
<stop offset="0.526042" stop-color="#3277BC"/>
<stop offset="0.973958" stop-color="#48ABDF"/>
</linearGradient>
<linearGradient id="paint6_linear_343_4863" x1="31.2705" y1="7.98919" x2="38.9275" y2="7.98919" gradientUnits="userSpaceOnUse">
<stop stop-color="#223962"/>
<stop offset="0.526042" stop-color="#3277BC"/>
<stop offset="0.973958" stop-color="#48ABDF"/>
</linearGradient>
<clipPath id="clip0_343_4863">
<rect width="60" height="51.603" fill="white"/>
</clipPath>
</defs>
</svg>
