<svg width="60" height="60" viewBox="0 0 60 60" fill="none" xmlns="http://www.w3.org/2000/svg">
<path d="M33.9252 13.5007C33.9252 13.0152 33.5318 12.6218 33.0463 12.6218H26.9536C26.4681 12.6218 26.0747 13.0152 26.0747 13.5007C26.0747 13.9862 26.4681 14.3796 26.9536 14.3796H33.0463C33.5317 14.3796 33.9252 13.9861 33.9252 13.5007Z" fill="url(#paint0_linear_390_5508)"/>
<path d="M26.9536 16.2246C26.4681 16.2246 26.0747 16.618 26.0747 17.1035C26.0747 17.589 26.4681 17.9824 26.9536 17.9824H29.9999C30.4854 17.9824 30.8788 17.589 30.8788 17.1035C30.8788 16.618 30.4854 16.2246 29.9999 16.2246H26.9536Z" fill="url(#paint1_linear_390_5508)"/>
<path d="M5.04346 43.7756H11.1362C11.6217 43.7756 12.0151 43.3822 12.0151 42.8967C12.0151 42.4112 11.6217 42.0178 11.1362 42.0178H5.04346C4.55807 42.0178 4.16455 42.4112 4.16455 42.8967C4.16455 43.3821 4.55807 43.7756 5.04346 43.7756Z" fill="url(#paint2_linear_390_5508)"/>
<path d="M5.04346 47.3784H8.08986C8.57525 47.3784 8.96877 46.985 8.96877 46.4995C8.96877 46.014 8.57525 45.6206 8.08986 45.6206H5.04346C4.55807 45.6206 4.16455 46.014 4.16455 46.4995C4.16455 46.985 4.55807 47.3784 5.04346 47.3784Z" fill="url(#paint3_linear_390_5508)"/>
<path d="M26.0747 42.8967C26.0747 43.3822 26.4681 43.7756 26.9536 43.7756H33.0463C33.5318 43.7756 33.9252 43.3822 33.9252 42.8967C33.9252 42.4112 33.5318 42.0178 33.0463 42.0178H26.9536C26.4682 42.0178 26.0747 42.4112 26.0747 42.8967Z" fill="url(#paint4_linear_390_5508)"/>
<path d="M29.9999 45.6206H26.9536C26.4681 45.6206 26.0747 46.014 26.0747 46.4995C26.0747 46.985 26.4681 47.3784 26.9536 47.3784H29.9999C30.4854 47.3784 30.8788 46.985 30.8788 46.4995C30.8788 46.014 30.4854 45.6206 29.9999 45.6206Z" fill="url(#paint5_linear_390_5508)"/>
<path d="M54.9565 42.0178H48.8638C48.3783 42.0178 47.9849 42.4112 47.9849 42.8967C47.9849 43.3822 48.3783 43.7756 48.8638 43.7756H54.9565C55.442 43.7756 55.8354 43.3822 55.8354 42.8967C55.8354 42.4112 55.442 42.0178 54.9565 42.0178Z" fill="url(#paint6_linear_390_5508)"/>
<path d="M51.9102 45.6206H48.8638C48.3783 45.6206 47.9849 46.014 47.9849 46.4995C47.9849 46.985 48.3783 47.3784 48.8638 47.3784H51.9102C52.3957 47.3784 52.7891 46.985 52.7891 46.4995C52.7891 46.014 52.3957 45.6206 51.9102 45.6206Z" fill="url(#paint7_linear_390_5508)"/>
<path d="M57.4805 36.7377H52.7892V31.3214C52.7892 30.1907 51.8692 29.2706 50.7384 29.2706H30.8789V23.2624H36.7421C38.1314 23.2624 39.2617 22.1321 39.2617 20.7429V9.86133C39.2617 8.47207 38.1314 7.3418 36.7421 7.3418H33.8598C33.3743 7.3418 32.9809 7.7352 32.9809 8.2207C32.9809 8.70621 33.3743 9.09961 33.8598 9.09961H36.7421C37.1621 9.09961 37.5039 9.44133 37.5039 9.86133V20.7429C37.5039 21.1629 37.1621 21.5046 36.7421 21.5046H23.2579C22.8379 21.5046 22.4961 21.1629 22.4961 20.7429V9.86133C22.4961 9.44133 22.8379 9.09961 23.2579 9.09961H30.3442C30.8297 9.09961 31.2231 8.70621 31.2231 8.2207C31.2231 7.7352 30.8297 7.3418 30.3442 7.3418H23.2579C21.8686 7.3418 20.7383 8.47195 20.7383 9.86133V20.7429C20.7383 22.1321 21.8686 23.2624 23.2579 23.2624H29.121V29.2706H9.26168C8.13094 29.2706 7.2109 30.1907 7.2109 31.3214V36.7377H2.51953C1.13027 36.7377 0 37.868 0 39.2572V50.1389C0 51.5282 1.13027 52.6584 2.51953 52.6584H4.47176C4.95715 52.6584 5.35066 52.265 5.35066 51.7795C5.35066 51.294 4.95715 50.9006 4.47176 50.9006H2.51953C2.09953 50.9006 1.75781 50.5589 1.75781 50.1389V39.2572C1.75781 38.8372 2.09953 38.4955 2.51953 38.4955H13.66C14.08 38.4955 14.4217 38.8372 14.4217 39.2572V50.1389C14.4217 50.5589 14.08 50.9006 13.66 50.9006H7.98738C7.50199 50.9006 7.10848 51.294 7.10848 51.7795C7.10848 52.265 7.50199 52.6584 7.98738 52.6584H13.66C15.0492 52.6584 16.1795 51.5282 16.1795 50.1389V39.2572C16.1795 37.868 15.0492 36.7377 13.66 36.7377H8.96871V31.3214C8.96871 31.1598 9.10019 31.0284 9.26168 31.0284H29.1211V36.7377H24.4298C23.0406 36.7377 21.9103 37.868 21.9103 39.2572V50.1389C21.9103 51.5282 23.0406 52.6584 24.4298 52.6584H35.5703C36.9595 52.6584 38.0898 51.5282 38.0898 50.1389V39.2572C38.0898 37.868 36.9595 36.7377 35.5703 36.7377H30.8789V31.0284H50.7384C50.9 31.0284 51.0314 31.1598 51.0314 31.3214V36.7377H46.34C44.9508 36.7377 43.8205 37.868 43.8205 39.2572V50.1389C43.8205 51.5282 44.9508 52.6584 46.34 52.6584H57.4805C58.8697 52.6584 60 51.5282 60 50.1389V39.2572C60 37.8679 58.8697 36.7377 57.4805 36.7377ZM36.332 39.2572V50.1389C36.332 50.5589 35.9903 50.9006 35.5703 50.9006H24.4298C24.0098 50.9006 23.6681 50.5589 23.6681 50.1389V39.2572C23.6681 38.8372 24.0098 38.4955 24.4298 38.4955H35.5703C35.9903 38.4955 36.332 38.8372 36.332 39.2572ZM58.2422 50.1388C58.2422 50.5588 57.9005 50.9005 57.4805 50.9005H46.34C45.92 50.9005 45.5783 50.5588 45.5783 50.1388V39.2571C45.5783 38.8371 45.92 38.4954 46.34 38.4954H57.4805C57.9005 38.4954 58.2422 38.8371 58.2422 39.2571V50.1388Z" fill="url(#paint8_linear_390_5508)"/>
<defs>
<linearGradient id="paint0_linear_390_5508" x1="26.0747" y1="13.5007" x2="33.9252" y2="13.5007" gradientUnits="userSpaceOnUse">
<stop stop-color="#223962"/>
<stop offset="0.526042" stop-color="#3277BC"/>
<stop offset="0.973958" stop-color="#48ABDF"/>
</linearGradient>
<linearGradient id="paint1_linear_390_5508" x1="26.0747" y1="17.1035" x2="30.8788" y2="17.1035" gradientUnits="userSpaceOnUse">
<stop stop-color="#223962"/>
<stop offset="0.526042" stop-color="#3277BC"/>
<stop offset="0.973958" stop-color="#48ABDF"/>
</linearGradient>
<linearGradient id="paint2_linear_390_5508" x1="4.16455" y1="42.8967" x2="12.0151" y2="42.8967" gradientUnits="userSpaceOnUse">
<stop stop-color="#223962"/>
<stop offset="0.526042" stop-color="#3277BC"/>
<stop offset="0.973958" stop-color="#48ABDF"/>
</linearGradient>
<linearGradient id="paint3_linear_390_5508" x1="4.16455" y1="46.4995" x2="8.96877" y2="46.4995" gradientUnits="userSpaceOnUse">
<stop stop-color="#223962"/>
<stop offset="0.526042" stop-color="#3277BC"/>
<stop offset="0.973958" stop-color="#48ABDF"/>
</linearGradient>
<linearGradient id="paint4_linear_390_5508" x1="26.0747" y1="42.8967" x2="33.9252" y2="42.8967" gradientUnits="userSpaceOnUse">
<stop stop-color="#223962"/>
<stop offset="0.526042" stop-color="#3277BC"/>
<stop offset="0.973958" stop-color="#48ABDF"/>
</linearGradient>
<linearGradient id="paint5_linear_390_5508" x1="26.0747" y1="46.4995" x2="30.8788" y2="46.4995" gradientUnits="userSpaceOnUse">
<stop stop-color="#223962"/>
<stop offset="0.526042" stop-color="#3277BC"/>
<stop offset="0.973958" stop-color="#48ABDF"/>
</linearGradient>
<linearGradient id="paint6_linear_390_5508" x1="47.9849" y1="42.8967" x2="55.8354" y2="42.8967" gradientUnits="userSpaceOnUse">
<stop stop-color="#223962"/>
<stop offset="0.526042" stop-color="#3277BC"/>
<stop offset="0.973958" stop-color="#48ABDF"/>
</linearGradient>
<linearGradient id="paint7_linear_390_5508" x1="47.9849" y1="46.4995" x2="52.7891" y2="46.4995" gradientUnits="userSpaceOnUse">
<stop stop-color="#223962"/>
<stop offset="0.526042" stop-color="#3277BC"/>
<stop offset="0.973958" stop-color="#48ABDF"/>
</linearGradient>
<linearGradient id="paint8_linear_390_5508" x1="-2.23517e-07" y1="30.0001" x2="60" y2="30.0001" gradientUnits="userSpaceOnUse">
<stop stop-color="#223962"/>
<stop offset="0.526042" stop-color="#3277BC"/>
<stop offset="0.973958" stop-color="#48ABDF"/>
</linearGradient>
</defs>
</svg>
