<svg width="80" height="80" viewBox="0 0 80 80" fill="none" xmlns="http://www.w3.org/2000/svg">
<g clip-path="url(#clip0_1_1561)">
<path d="M77.9377 19.8497H74.2186C74.1903 19.7398 74.1608 19.6302 74.1303 19.5206L77.3511 17.6611C78.3358 17.0927 78.6745 15.8289 78.1061 14.8439L75.2947 9.97453C74.7259 8.98953 73.4622 8.65125 72.4775 9.21968L69.2522 11.0819C69.1733 11.0016 69.0936 10.922 69.0133 10.843L70.8755 7.61781C71.4441 6.63297 71.1055 5.36922 70.1206 4.80047L65.2513 1.98906C64.7741 1.71343 64.2181 1.64031 63.6863 1.78297C63.1542 1.92562 62.7094 2.26687 62.4339 2.7439L60.5744 5.96468C60.4648 5.93437 60.3553 5.905 60.2455 5.87656V2.1575C60.2455 1.02031 59.3203 0.0951538 58.1831 0.0951538H52.5605C51.4233 0.0951538 50.4983 1.02031 50.4983 2.1575V5.8764C50.3884 5.90484 50.2788 5.93422 50.1692 5.96468L48.3098 2.74375C48.0344 2.26672 47.5895 1.92547 47.0575 1.78281C46.5258 1.64031 45.9697 1.71344 45.4927 1.9889L41.8025 4.11937C39.032 2.27422 35.7083 1.19719 32.1372 1.19719C22.497 1.19719 14.6542 9.04 14.6542 18.6803V20.6536H14.0842C11.1855 20.6536 8.82734 23.0119 8.82734 25.9105C8.82734 28.8091 11.1856 31.1673 14.0842 31.1673H14.7388C15.4317 38.237 20.3531 44.0844 26.9331 46.1405V50.1178C21.7514 51.5583 17.4361 55.0958 14.9567 59.753L14.655 59.7533C14.6142 58.6339 14.6831 56.5555 15.6041 55.2136C15.973 54.6759 15.9622 53.9619 15.5772 53.4369C15.193 52.913 14.5164 52.6883 13.8939 52.8784C11.5259 53.6011 7.24141 55.4547 5.15578 59.7469H3.66891C1.64563 59.7467 0 61.3923 0 63.415V71.8764C0 73.8991 1.64563 75.5447 3.66844 75.5447H4.87094C5.51719 75.5447 6.04109 75.0208 6.04109 74.3744C6.04109 73.7281 5.51719 73.2042 4.87094 73.2042H3.66844C2.93625 73.2042 2.34047 72.6084 2.34047 71.8764V63.415C2.34047 62.6828 2.93625 62.0872 3.66844 62.0872H5.15531C6.04328 62.0872 6.86797 61.5712 7.25625 60.773C7.88453 59.4816 9.39547 57.2794 12.7791 55.7825C12.3442 57.183 12.2731 58.6734 12.3155 59.8387C12.3614 61.0995 13.388 62.0872 14.6523 62.0872H22.7767C23.5089 62.0872 24.1045 62.683 24.1045 63.415V71.8764C24.1045 72.6086 23.5087 73.2042 22.7767 73.2042H10.3623C9.71609 73.2042 9.19203 73.7281 9.19203 74.3744C9.19203 75.0206 9.71594 75.5447 10.3623 75.5447H12.6834V78.7347C12.6834 79.3809 13.2073 79.9048 13.8536 79.9048H50.4202C51.0666 79.9048 51.5903 79.3809 51.5903 78.7347V68.862C51.5903 59.9373 45.5486 52.3992 37.3409 50.1177V46.1406C38.517 45.7731 39.6389 45.2827 40.6942 44.6875L45.492 47.4575C45.9692 47.7331 46.525 47.8061 47.057 47.6636C47.5891 47.5209 48.0339 47.1797 48.3094 46.7027L50.1687 43.4819C50.2783 43.5123 50.388 43.5416 50.4978 43.57V47.2891C50.4978 48.4262 51.4228 49.3514 52.56 49.3514H58.1827C59.3198 49.3514 60.245 48.4262 60.245 47.2891V43.5703C60.3548 43.5419 60.4644 43.5125 60.5739 43.4822L62.4334 46.703C62.7089 47.18 63.1537 47.5212 63.6858 47.6637C64.2178 47.8064 64.7738 47.7331 65.2506 47.4577L70.1202 44.6462C71.1048 44.0777 71.4434 42.8137 70.8748 41.8291L69.0127 38.6037C69.093 38.5248 69.1727 38.4452 69.2516 38.3648L72.4769 40.2269C73.462 40.7953 74.7256 40.4569 75.2941 39.472L78.1056 34.6023C78.6739 33.6175 78.3352 32.3537 77.3505 31.7853L74.1297 29.9258C74.1602 29.8162 74.1895 29.7066 74.218 29.5969H77.937C79.0742 29.5969 79.9994 28.6717 79.9994 27.5345V21.9119C80 20.7748 79.0748 19.8497 77.9377 19.8497V19.8497ZM14.6537 28.827H14.0838C12.4756 28.827 11.1673 27.5187 11.1673 25.9106C11.1673 24.3025 12.4756 22.9942 14.0838 22.9942H14.6537V28.827ZM16.9942 18.6805C16.9942 10.3308 23.7872 3.53781 32.1369 3.53781C40.4866 3.53781 47.2795 10.3308 47.2795 18.6805V20.2886C44.4906 20.0478 37.3266 18.8558 33.0866 12.9669C32.8667 12.6614 32.5133 12.4805 32.1369 12.4805C31.7605 12.4805 31.407 12.6616 31.1872 12.9669C26.9617 18.8355 19.7862 20.0394 16.9942 20.2861V18.6805ZM49.2498 68.862V77.5645H15.0238V75.5448H22.7769C24.7995 75.5448 26.4452 73.8992 26.4452 71.8766V63.4152C26.4452 61.3925 24.7995 59.7469 22.7769 59.7469L17.6605 59.7511C19.7925 56.3761 23.0694 53.7933 26.9436 52.5566C27.1105 55.2767 29.3753 57.4389 32.1369 57.4389C34.8984 57.4389 37.1634 55.2764 37.33 52.5561C44.2348 54.7598 49.2498 61.2358 49.2498 68.862V68.862ZM29.2731 52.2347V46.6973C30.2052 46.8516 31.1617 46.9323 32.1369 46.9323C33.1119 46.9323 34.0684 46.8516 35.0005 46.6973V52.2347C35.0005 53.8137 33.7159 55.0983 32.1369 55.0983C30.5578 55.0983 29.2731 53.8137 29.2731 52.2347ZM32.1369 44.5917C23.7872 44.5917 16.9942 37.7987 16.9942 29.4491V22.6423C19.8444 22.4347 27.1706 21.3305 32.1369 15.5417C37.1025 21.3298 44.4289 22.4336 47.2795 22.6419V29.4491C47.2795 37.7987 40.4866 44.5917 32.1369 44.5917V44.5917ZM77.6595 27.2566H73.2894C72.7339 27.2566 72.255 27.647 72.1431 28.1911C72.0114 28.8317 71.8388 29.4764 71.6302 30.1072C71.4558 30.6341 71.6755 31.2108 72.1559 31.4883L75.9403 33.6733L73.4069 38.0609L69.6183 35.8736C69.138 35.5962 68.5286 35.6941 68.1595 36.1084C67.7208 36.6008 67.2489 37.0727 66.7572 37.5108C66.3428 37.8798 66.2447 38.4891 66.5222 38.9695L68.7095 42.7583L64.3219 45.2916L62.1369 41.5072C61.8592 41.0266 61.2823 40.807 60.7558 40.9814C60.1252 41.19 59.4805 41.3627 58.8395 41.4945C58.2956 41.6064 57.905 42.0853 57.905 42.6408V47.0109H52.8386V42.6408C52.8386 42.0853 52.4481 41.6064 51.9039 41.4945C51.2634 41.3628 50.6186 41.1902 49.9877 40.9814C49.4608 40.807 48.8839 41.0267 48.6066 41.5072L46.4217 45.2916L42.8678 43.2397C44.7431 41.7772 46.3136 39.9417 47.4666 37.845C49.7764 39.2419 52.4813 40.0484 55.3719 40.0484C58.8594 40.0484 62.2727 38.8453 64.9828 36.6609C65.4859 36.2553 65.565 35.5186 65.1594 35.0155C64.7539 34.5122 64.0173 34.433 63.5139 34.8387C61.1852 36.7159 58.3697 37.7081 55.3719 37.7081C52.8322 37.7081 50.4636 36.9711 48.4606 35.7052C49.0114 34.273 49.3803 32.7512 49.5356 31.1675H50.1902C53.0888 31.1675 55.447 28.8092 55.447 25.9106C55.447 23.012 53.0888 20.6537 50.1902 20.6537H49.6202V18.6805C49.6202 16.8808 49.3466 15.1437 48.8392 13.5086C50.7597 12.3853 52.9911 11.7384 55.372 11.7384C62.5319 11.7384 68.3569 17.5634 68.3569 24.7233C68.3569 26.9452 67.7866 29.137 66.7075 31.062C66.3914 31.6258 66.5923 32.3391 67.1561 32.655C67.7195 32.9708 68.4328 32.7702 68.7491 32.2064C70.0236 29.9327 70.6973 27.3452 70.6973 24.7234C70.6973 16.273 63.8223 9.39812 55.372 9.39812C52.6947 9.39812 50.1764 10.0894 47.9841 11.3011C46.9784 9.15015 45.548 7.2364 43.8005 5.66859L46.4219 4.15515L48.6067 7.93953C48.8842 8.42 49.4605 8.64 49.9878 8.46531C50.6183 8.25672 51.263 8.08406 51.9042 7.95219C52.4483 7.84031 52.8387 7.3614 52.8387 6.80593V2.43547H57.9052V6.80562C57.9052 7.36093 58.2956 7.84 58.8397 7.95187C59.4811 8.0839 60.1258 8.2564 60.7559 8.465C61.2825 8.63937 61.8594 8.41969 62.137 7.93922L64.322 4.15484L68.7097 6.68797L66.5223 10.4767C66.2448 10.9572 66.343 11.5664 66.7573 11.9355C67.2495 12.3741 67.7212 12.8458 68.1597 13.3378C68.5289 13.7522 69.1383 13.8502 69.6184 13.5728L73.4072 11.3853L75.9405 15.773L72.1561 17.958C71.6755 18.2355 71.4559 18.8123 71.6303 19.3391C71.8391 19.9698 72.0117 20.6147 72.1433 21.2553C72.2552 21.7994 72.7342 22.1898 73.2895 22.1898H77.6597V27.2566H77.6595ZM49.62 28.827V22.9942H50.19C51.7981 22.9942 53.1064 24.3025 53.1064 25.9106C53.1064 27.5187 51.7981 28.827 50.19 28.827H49.62Z" fill="url(#paint0_linear_1_1561)"/>
<path d="M63.2296 18.7919H55.3715C54.7251 18.7919 54.2012 19.3158 54.2012 19.9622C54.2012 20.6084 54.7251 21.1323 55.3715 21.1323H63.2296C63.876 21.1323 64.3999 20.6084 64.3999 19.9622C64.3998 19.3158 63.8759 18.7919 63.2296 18.7919V18.7919Z" fill="url(#paint1_linear_1_1561)"/>
<path d="M63.2296 23.5531H57.747C57.1006 23.5531 56.5767 24.077 56.5767 24.7234C56.5767 25.3697 57.1006 25.8936 57.747 25.8936H63.2296C63.876 25.8936 64.3999 25.3697 64.3999 24.7234C64.3998 24.077 63.8759 23.5531 63.2296 23.5531Z" fill="url(#paint2_linear_1_1561)"/>
<path d="M63.23 28.3145H59.3962C58.7498 28.3145 58.2261 28.8384 58.2261 29.4848C58.2261 30.1312 58.75 30.6551 59.3962 30.6551H63.23C63.8764 30.6551 64.4003 30.1312 64.4003 29.4848C64.4003 28.8384 63.8762 28.3145 63.23 28.3145Z" fill="url(#paint3_linear_1_1561)"/>
<path d="M24.7966 24.8506C24.1504 24.8506 23.6265 25.3746 23.6265 26.021V28.7875C23.6265 29.4338 24.1504 29.9577 24.7966 29.9577C25.4429 29.9577 25.9668 29.4338 25.9668 28.7875V26.021C25.9668 25.3746 25.4429 24.8506 24.7966 24.8506Z" fill="url(#paint4_linear_1_1561)"/>
<path d="M39.4773 24.8506C38.831 24.8506 38.3071 25.3746 38.3071 26.021V28.7875C38.3071 29.4338 38.831 29.9577 39.4773 29.9577C40.1235 29.9577 40.6474 29.4338 40.6474 28.7875V26.021C40.6474 25.3746 40.1235 24.8506 39.4773 24.8506V24.8506Z" fill="url(#paint5_linear_1_1561)"/>
<path d="M35.1447 33.7056C34.6392 33.3028 33.9031 33.3861 33.5002 33.8914C33.1652 34.3119 32.6652 34.5529 32.1285 34.5529C31.5981 34.5529 31.102 34.3164 30.767 33.904C30.3595 33.4023 29.6224 33.3261 29.121 33.7334C28.6192 34.1409 28.543 34.8779 28.9503 35.3797C29.7317 36.3417 30.8902 36.8936 32.1286 36.8936C33.3819 36.8936 34.5489 36.3311 35.3306 35.3501C35.7333 34.8447 35.65 34.1084 35.1447 33.7056V33.7056Z" fill="url(#paint6_linear_1_1561)"/>
</g>
<defs>
<linearGradient id="paint0_linear_1_1561" x1="-2.98021e-07" y1="40" x2="79.9994" y2="40" gradientUnits="userSpaceOnUse">
<stop stop-color="#223962"/>
<stop offset="0.526042" stop-color="#3277BC"/>
<stop offset="0.973958" stop-color="#48ABDF"/>
</linearGradient>
<linearGradient id="paint1_linear_1_1561" x1="54.2012" y1="19.9621" x2="64.3999" y2="19.9621" gradientUnits="userSpaceOnUse">
<stop stop-color="#223962"/>
<stop offset="0.526042" stop-color="#3277BC"/>
<stop offset="0.973958" stop-color="#48ABDF"/>
</linearGradient>
<linearGradient id="paint2_linear_1_1561" x1="56.5767" y1="24.7233" x2="64.3999" y2="24.7233" gradientUnits="userSpaceOnUse">
<stop stop-color="#223962"/>
<stop offset="0.526042" stop-color="#3277BC"/>
<stop offset="0.973958" stop-color="#48ABDF"/>
</linearGradient>
<linearGradient id="paint3_linear_1_1561" x1="58.2261" y1="29.4848" x2="64.4003" y2="29.4848" gradientUnits="userSpaceOnUse">
<stop stop-color="#223962"/>
<stop offset="0.526042" stop-color="#3277BC"/>
<stop offset="0.973958" stop-color="#48ABDF"/>
</linearGradient>
<linearGradient id="paint4_linear_1_1561" x1="23.6265" y1="27.4042" x2="25.9668" y2="27.4042" gradientUnits="userSpaceOnUse">
<stop stop-color="#223962"/>
<stop offset="0.526042" stop-color="#3277BC"/>
<stop offset="0.973958" stop-color="#48ABDF"/>
</linearGradient>
<linearGradient id="paint5_linear_1_1561" x1="38.3071" y1="27.4042" x2="40.6474" y2="27.4042" gradientUnits="userSpaceOnUse">
<stop stop-color="#223962"/>
<stop offset="0.526042" stop-color="#3277BC"/>
<stop offset="0.973958" stop-color="#48ABDF"/>
</linearGradient>
<linearGradient id="paint6_linear_1_1561" x1="28.6885" y1="35.172" x2="35.5856" y2="35.172" gradientUnits="userSpaceOnUse">
<stop stop-color="#223962"/>
<stop offset="0.526042" stop-color="#3277BC"/>
<stop offset="0.973958" stop-color="#48ABDF"/>
</linearGradient>
<clipPath id="clip0_1_1561">
<rect width="80" height="80" fill="white"/>
</clipPath>
</defs>
</svg>
