<svg width="59" height="60" viewBox="0 0 59 60" fill="none" xmlns="http://www.w3.org/2000/svg">
<g clip-path="url(#clip0_390_5528)">
<path d="M58.8826 11.9961L56.4487 2.57301C56.139 1.37368 55.2415 0.459439 54.0474 0.128589C52.8542 -0.203141 51.6135 0.11715 50.7301 0.985631L43.7867 7.80413C42.9032 8.67173 42.56 9.90626 42.8698 11.1056C43.1795 12.3049 44.077 13.2192 45.2711 13.55L46.1378 13.7902C44.7766 17.0424 42.9278 20.0324 40.633 22.6889C38.12 25.5988 35.1247 28.0467 31.73 29.9658C23.9321 34.3742 14.8848 35.482 6.25453 33.0851C5.32094 32.8255 4.34247 32.9461 3.4995 33.4221C2.65654 33.8982 2.0494 34.6751 1.78982 35.6087C1.25483 37.5349 2.38729 39.5376 4.31343 40.0726C7.93958 41.0792 11.6256 41.5781 15.2887 41.5781C22.2304 41.5781 29.0902 39.7884 35.2981 36.2792C39.5058 33.9008 43.2077 30.8528 46.3015 27.2213C49.2114 23.8046 51.5194 19.947 53.1684 15.7437L54.6475 16.1546C55.8407 16.4863 57.0814 16.166 57.9648 15.2975C58.8491 14.4299 59.1914 13.1954 58.8817 11.9961H58.8826ZM56.7329 14.0419C56.3026 14.4642 55.6999 14.62 55.1191 14.459L52.8674 13.8333C52.4266 13.711 51.9655 13.9469 51.8071 14.3763C50.2153 18.6799 47.9126 22.6176 44.9631 26.081C42.0039 29.5549 38.4614 32.4709 34.434 34.7482C25.3594 39.8781 14.8302 41.1672 4.78595 38.3778C3.79428 38.1024 3.21177 37.072 3.48719 36.0804C3.62093 35.5999 3.93331 35.2004 4.36711 34.955C4.65132 34.7939 4.96545 34.7121 5.2831 34.7121C5.45029 34.7121 5.61923 34.735 5.78554 34.7807C8.92333 35.6518 12.113 36.083 15.2834 36.083C21.2906 36.083 27.2266 34.5343 32.5985 31.4977C36.1692 29.4792 39.3211 26.9028 41.967 23.8389C44.6041 20.7856 46.6825 17.3143 48.144 13.5219C48.2329 13.2904 48.2206 13.0317 48.1088 12.81C47.9971 12.5883 47.7973 12.4237 47.558 12.3577L45.7436 11.8535C45.1628 11.6925 44.7264 11.2481 44.5759 10.6648C44.4255 10.0814 44.5918 9.48126 45.0221 9.0589L51.9655 2.2404C52.3958 1.81804 52.9985 1.66229 53.5793 1.82331C54.16 1.98434 54.5965 2.4287 54.7469 3.01209L57.1808 12.4352C57.3313 13.0185 57.165 13.6186 56.7347 14.041L56.7329 14.0419Z" fill="url(#paint0_linear_390_5528)"/>
<path d="M11.7734 43.717C9.44335 43.5507 7.27786 43.1239 5.87087 42.7948C4.94607 42.5784 3.9896 42.7931 3.24695 43.3826C2.50606 43.9704 2.08105 44.8503 2.08105 45.7962V56.8023C2.08105 58.5656 3.51532 59.9999 5.27869 59.9999H11.4284C13.1918 59.9999 14.6261 58.5656 14.6261 56.8023V46.7914C14.6261 45.182 13.3731 43.8314 11.7743 43.717H11.7734ZM12.8654 56.8023C12.8654 57.5951 12.2204 58.2401 11.4276 58.2401H5.27869C4.48588 58.2401 3.8409 57.5951 3.8409 56.8023V45.7962C3.8409 45.3906 4.02304 45.0131 4.34069 44.7614C4.57915 44.5723 4.86776 44.4737 5.1643 44.4737C5.26637 44.4737 5.36932 44.4851 5.47051 44.5089C6.93909 44.8521 9.20313 45.2973 11.6475 45.4724C12.3304 45.5208 12.8654 46.1007 12.8654 46.7914V56.8023Z" fill="url(#paint1_linear_390_5528)"/>
<path d="M27.7589 43.2368C27.0127 42.6472 26.0545 42.436 25.1288 42.6569C23.1736 43.1224 21.1709 43.4523 19.177 43.6371C17.5852 43.7849 16.385 45.1039 16.385 46.7054V56.8025C16.385 58.5658 17.8193 60.0001 19.5826 60.0001H25.7324C27.4958 60.0001 28.93 58.5658 28.93 56.8025V45.6548C28.93 44.7062 28.5033 43.8254 27.7589 43.2376V43.2368ZM27.1702 56.8025C27.1702 57.5953 26.5252 58.2403 25.7324 58.2403H19.5826C18.7898 58.2403 18.1449 57.5953 18.1449 56.8025V46.7054C18.1449 46.0182 18.6587 45.4524 19.3398 45.389C21.4164 45.1963 23.5009 44.8532 25.5371 44.3683C25.6409 44.3437 25.7447 44.3314 25.8486 44.3314C26.1433 44.3314 26.4311 44.4299 26.6686 44.6173C26.9872 44.869 27.1702 45.2474 27.1702 45.6539V56.8016V56.8025Z" fill="url(#paint2_linear_390_5528)"/>
<path d="M41.6317 36.8633C40.6277 36.3142 39.4521 36.3547 38.4877 36.9724C37.8093 37.4071 37.1071 37.8295 36.4005 38.2281C35.1458 38.9373 33.8435 39.5893 32.5298 40.1674C31.4114 40.6593 30.689 41.7662 30.689 42.9884V56.8014C30.689 58.5648 32.1232 59.999 33.8866 59.999H40.0364C41.7997 59.999 43.234 58.5648 43.234 56.8014V39.5673C43.234 38.4234 42.6348 37.4124 41.6317 36.8633ZM41.4741 56.8014C41.4741 57.5942 40.8292 58.2392 40.0364 58.2392H33.8866C33.0938 58.2392 32.4488 57.5942 32.4488 56.8014V42.9884C32.4488 42.464 32.7585 41.9897 33.2381 41.7785C34.6055 41.1775 35.9606 40.4982 37.2655 39.76C38.0002 39.3456 38.7306 38.9056 39.4363 38.4542C39.6571 38.3134 39.9026 38.2421 40.1499 38.2421C40.3672 38.2421 40.5845 38.2967 40.786 38.4076C41.2163 38.6434 41.4733 39.0772 41.4733 39.5682V56.8023L41.4741 56.8014Z" fill="url(#paint3_linear_390_5528)"/>
<path d="M55.9549 19.0942C55.0081 18.8698 54.0789 19.3036 53.6425 20.1738C53.6372 20.1853 53.631 20.1976 53.6258 20.2099C52.0956 23.2474 50.2055 26.0948 48.0075 28.6747C47.4654 29.31 46.9049 29.9304 46.3391 30.5199C45.4715 31.4262 44.9946 32.6115 44.9946 33.8583V51.2852C44.9946 51.7709 45.3888 52.1651 45.8745 52.1651C46.3603 52.1651 46.7545 51.7709 46.7545 51.2852V33.8583C46.7545 33.0673 47.0589 32.3141 47.6098 31.7377C48.1984 31.1244 48.7827 30.4777 49.3467 29.816C51.6433 27.1208 53.617 24.144 55.2131 20.9702C55.2175 20.9614 55.2219 20.9526 55.2255 20.9438C55.3135 20.788 55.449 20.7827 55.5493 20.8065C55.6531 20.8311 55.7772 20.9006 55.7772 21.0951V56.8023C55.7772 57.5951 55.1322 58.2409 54.3403 58.2409H48.1914C47.3986 58.2409 46.7545 57.5959 46.7545 56.8023V54.8057C46.7545 54.32 46.3603 53.9258 45.8745 53.9258C45.3888 53.9258 44.9946 54.32 44.9946 54.8057V56.8023C44.9946 58.5656 46.4289 60.0008 48.1914 60.0008H54.3403C56.1027 60.0008 57.537 58.5665 57.537 56.8023V21.0942C57.537 20.1219 56.9017 19.3177 55.9549 19.0933V19.0942Z" fill="url(#paint4_linear_390_5528)"/>
<path d="M13.256 17.1082C13.6581 16.8345 13.7619 16.2872 13.4883 15.886C12.7087 14.7395 12.296 13.3976 12.296 12.0055C12.296 8.19725 15.3942 5.09905 19.2025 5.09905C23.0108 5.09905 26.109 8.19725 26.109 12.0055C26.109 15.8138 23.0108 18.912 19.2025 18.912C17.9715 18.912 16.7651 18.5856 15.7118 17.967C15.293 17.7206 14.7536 17.8605 14.5072 18.2803C14.2608 18.6991 14.4016 19.2385 14.8205 19.4849C16.143 20.2618 17.6582 20.6728 19.2025 20.6728C23.9813 20.6728 27.8688 16.7853 27.8688 12.0064C27.8688 7.22758 23.9813 3.34009 19.2025 3.34009C14.4236 3.34009 10.5361 7.22758 10.5361 12.0064C10.5361 13.7522 11.0535 15.4364 12.0329 16.8759C12.3065 17.278 12.853 17.3819 13.2551 17.1082H13.256Z" fill="url(#paint5_linear_390_5528)"/>
<path d="M31.2583 14.3822C32.5685 14.3822 33.6349 13.3158 33.6349 12.0056C33.6349 10.6954 32.5685 9.62891 31.2583 9.62891C29.9481 9.62891 28.8816 10.6954 28.8816 12.0056C28.8816 13.3158 29.9481 14.3822 31.2583 14.3822ZM31.2583 11.3879C31.5988 11.3879 31.8751 11.665 31.8751 12.0047C31.8751 12.3443 31.5979 12.6215 31.2583 12.6215C30.9186 12.6215 30.6414 12.3443 30.6414 12.0047C30.6414 11.665 30.9186 11.3879 31.2583 11.3879Z" fill="url(#paint6_linear_390_5528)"/>
<path d="M9.52432 12.0056C9.52432 10.6945 8.45786 9.62891 7.14766 9.62891C5.83746 9.62891 4.771 10.6954 4.771 12.0056C4.771 13.3158 5.83746 14.3822 7.14766 14.3822C8.45786 14.3822 9.52432 13.3158 9.52432 12.0056ZM6.52996 12.0056C6.52996 11.665 6.80713 11.3887 7.14678 11.3887C7.48643 11.3887 7.7636 11.6659 7.7636 12.0056C7.7636 12.3452 7.48643 12.6224 7.14678 12.6224C6.80713 12.6224 6.52996 12.3452 6.52996 12.0056Z" fill="url(#paint7_linear_390_5528)"/>
<path d="M30.4787 24.0095C30.4787 24.0095 30.4796 24.0095 30.4804 24.0095C30.4813 24.0095 30.4813 24.0095 30.4822 24.0095H35.0622C36.9056 24.0095 38.4059 22.5101 38.4059 20.6666V3.34453C38.4059 1.50109 36.9056 0.00170898 35.0622 0.00170898H3.3437C1.49938 0.00170898 0 1.50109 0 3.34453V20.6666C0 22.5101 1.49938 24.0095 3.3437 24.0095H30.4796H30.4787ZM1.75984 8.7578C5.42823 8.35039 8.34868 5.42994 8.75609 1.76155H29.6498C30.0572 5.42994 32.9776 8.35127 36.646 8.7578V15.2542C32.9776 15.6616 30.0572 18.5821 29.6498 22.2505H8.75609C8.34868 18.5821 5.42823 15.6616 1.75984 15.2542V8.7578ZM35.0622 22.2496H31.4237C31.8109 19.5527 33.9491 17.4153 36.6452 17.0282V20.6666C36.6452 21.5395 35.9351 22.2496 35.0613 22.2496H35.0622ZM36.646 3.34453V6.983C33.9491 6.59583 31.8118 4.45762 31.4246 1.76067H35.0631C35.9359 1.76067 36.6469 2.47076 36.6469 3.34453H36.646ZM3.3437 1.76155H6.98217C6.595 4.4585 4.4568 6.59671 1.76072 6.983V3.34453C1.76072 2.47164 2.47082 1.76067 3.34458 1.76067L3.3437 1.76155ZM1.75984 20.6666V17.0282C4.4568 17.4153 6.59412 19.5535 6.98129 22.2496H3.34282C2.46994 22.2496 1.75896 21.5395 1.75896 20.6666H1.75984Z" fill="url(#paint8_linear_390_5528)"/>
</g>
<defs>
<linearGradient id="paint0_linear_390_5528" x1="1.65723" y1="20.7892" x2="58.9935" y2="20.7892" gradientUnits="userSpaceOnUse">
<stop stop-color="#223962"/>
<stop offset="0.526042" stop-color="#3277BC"/>
<stop offset="0.973958" stop-color="#48ABDF"/>
</linearGradient>
<linearGradient id="paint1_linear_390_5528" x1="2.08105" y1="51.3562" x2="14.6261" y2="51.3562" gradientUnits="userSpaceOnUse">
<stop stop-color="#223962"/>
<stop offset="0.526042" stop-color="#3277BC"/>
<stop offset="0.973958" stop-color="#48ABDF"/>
</linearGradient>
<linearGradient id="paint2_linear_390_5528" x1="16.385" y1="51.2857" x2="28.93" y2="51.2857" gradientUnits="userSpaceOnUse">
<stop stop-color="#223962"/>
<stop offset="0.526042" stop-color="#3277BC"/>
<stop offset="0.973958" stop-color="#48ABDF"/>
</linearGradient>
<linearGradient id="paint3_linear_390_5528" x1="30.689" y1="48.2388" x2="43.234" y2="48.2388" gradientUnits="userSpaceOnUse">
<stop stop-color="#223962"/>
<stop offset="0.526042" stop-color="#3277BC"/>
<stop offset="0.973958" stop-color="#48ABDF"/>
</linearGradient>
<linearGradient id="paint4_linear_390_5528" x1="44.9946" y1="39.5182" x2="57.537" y2="39.5182" gradientUnits="userSpaceOnUse">
<stop stop-color="#223962"/>
<stop offset="0.526042" stop-color="#3277BC"/>
<stop offset="0.973958" stop-color="#48ABDF"/>
</linearGradient>
<linearGradient id="paint5_linear_390_5528" x1="10.5361" y1="12.0064" x2="27.8688" y2="12.0064" gradientUnits="userSpaceOnUse">
<stop stop-color="#223962"/>
<stop offset="0.526042" stop-color="#3277BC"/>
<stop offset="0.973958" stop-color="#48ABDF"/>
</linearGradient>
<linearGradient id="paint6_linear_390_5528" x1="28.8816" y1="12.0056" x2="33.6349" y2="12.0056" gradientUnits="userSpaceOnUse">
<stop stop-color="#223962"/>
<stop offset="0.526042" stop-color="#3277BC"/>
<stop offset="0.973958" stop-color="#48ABDF"/>
</linearGradient>
<linearGradient id="paint7_linear_390_5528" x1="4.771" y1="12.0056" x2="9.52432" y2="12.0056" gradientUnits="userSpaceOnUse">
<stop stop-color="#223962"/>
<stop offset="0.526042" stop-color="#3277BC"/>
<stop offset="0.973958" stop-color="#48ABDF"/>
</linearGradient>
<linearGradient id="paint8_linear_390_5528" x1="-1.43073e-07" y1="12.0056" x2="38.4059" y2="12.0056" gradientUnits="userSpaceOnUse">
<stop stop-color="#223962"/>
<stop offset="0.526042" stop-color="#3277BC"/>
<stop offset="0.973958" stop-color="#48ABDF"/>
</linearGradient>
<clipPath id="clip0_390_5528">
<rect width="58.9943" height="60" fill="white"/>
</clipPath>
</defs>
</svg>
