<svg width="60" height="60" viewBox="0 0 60 60" fill="none" xmlns="http://www.w3.org/2000/svg">
<g clip-path="url(#clip0_502_4613)">
<path fill-rule="evenodd" clip-rule="evenodd" d="M43.9321 25.236L7.52885 5.20404C6.19028 4.46577 5.69985 2.77652 6.43637 1.43795C6.79584 0.78844 7.38383 0.317348 8.09398 0.111685C8.80237 -0.0957355 9.55296 -0.0122398 10.2033 0.345473L32.8087 12.7872C33.2341 13.021 33.3888 13.5554 33.155 13.9808C32.9212 14.4061 32.3868 14.5608 31.9614 14.327L9.3552 1.88619C9.11702 1.75523 8.84368 1.72447 8.58441 1.80006C8.32249 1.87564 8.10716 2.04879 7.97533 2.28697C7.70726 2.77564 7.88656 3.39351 8.37699 3.66421L46.6409 24.7201C46.952 24.8914 47.1304 25.2333 47.0909 25.5867C47.0522 25.94 46.8035 26.2344 46.4624 26.3337L43.8046 27.1045C43.2676 27.2601 42.9574 27.8243 43.1129 28.3622C43.1885 28.6224 43.3617 28.8377 43.599 28.9687C43.8363 29.0996 44.1105 29.1295 44.3707 29.0539L51.4195 27.0087C51.6796 26.9331 51.8949 26.7609 52.0259 26.5236C52.156 26.2863 52.1867 26.012 52.1111 25.7519L50.0659 18.7031C49.9095 18.1652 49.3461 17.855 48.8091 18.0105C48.5481 18.087 48.3327 18.2593 48.2018 18.4966C48.0708 18.733 48.041 19.0072 48.1165 19.2674L48.8865 21.926C48.9849 22.267 48.8689 22.6344 48.5911 22.8568C48.3134 23.0783 47.9293 23.1117 47.6182 22.9403L35.5561 16.3028C35.1308 16.069 34.9761 15.5347 35.2099 15.1093C35.4436 14.6839 35.978 14.5292 36.4034 14.763L46.6075 20.3783L46.4273 19.7578C46.2207 19.0476 46.3042 18.2979 46.6611 17.6493C47.0179 17.0007 47.6059 16.5296 48.3178 16.323C49.0288 16.1165 49.7785 16.1991 50.4272 16.5568C51.0749 16.9145 51.546 17.5025 51.7526 18.2136L53.7978 25.2623C54.0043 25.9734 53.9217 26.7222 53.564 27.3717C53.2063 28.0203 52.6174 28.4914 51.9064 28.6971L44.8576 30.7414C44.6018 30.8161 44.3399 30.853 44.0806 30.853C43.6192 30.853 43.163 30.737 42.7482 30.5085C42.0987 30.1508 41.6276 29.5628 41.4211 28.8509C40.9966 27.3814 41.8447 25.8398 43.3125 25.4153L43.9321 25.236ZM57.3958 54.4448H59.1211C59.6063 54.4448 60 54.8386 60 55.3237V59.1118C60 59.597 59.6063 59.9907 59.1211 59.9907H0.878902C0.393748 59.9907 0 59.597 0 59.1118V55.3237C0 54.8386 0.393748 54.4448 0.878902 54.4448H2.60419V18.6269C2.60419 18.1418 2.99793 17.748 3.48309 17.748H11.0592C11.5444 17.748 11.9381 18.1418 11.9381 18.6269V25.9333C11.9381 26.4184 11.5444 26.8122 11.0592 26.8122C10.5741 26.8122 10.1803 26.4184 10.1803 25.9333V19.5059H4.36199V54.4448H10.1803V30.0351C10.1803 29.5499 10.5741 29.1562 11.0592 29.1562C11.5444 29.1562 11.9381 29.5499 11.9381 30.0351V54.4448H13.9693V24.5455C13.9693 24.0603 14.363 23.6666 14.8482 23.6666H22.4243C22.9095 23.6666 23.3032 24.0603 23.3032 24.5455V54.4448H25.3326V30.464C25.3326 29.9788 25.7263 29.5851 26.2115 29.5851H33.7885C34.2737 29.5851 34.6674 29.9788 34.6674 30.464V38.7925C34.6674 39.2776 34.2737 39.6714 33.7885 39.6714C33.3034 39.6714 32.9096 39.2776 32.9096 38.7925V31.3429H27.0904V54.4448H32.9096V42.8943C32.9096 42.4092 33.3034 42.0154 33.7885 42.0154C34.2737 42.0154 34.6674 42.4092 34.6674 42.8943V54.4448H36.6968V36.3834C36.6968 35.8983 37.0905 35.5045 37.5757 35.5045H45.1518C45.637 35.5045 46.0307 35.8983 46.0307 36.3834V54.4448H48.0619V42.3019C48.0619 41.8168 48.4556 41.423 48.9408 41.423H56.5169C57.0021 41.423 57.3958 41.8168 57.3958 42.3019V54.4448ZM55.638 43.1808H49.8197V54.4448H55.638V43.1808ZM44.2729 37.2623H38.4546V54.4448H44.2729V37.2623ZM21.5445 25.4244H15.7262V54.4448H21.5445V25.4244ZM1.7578 58.2329H58.2413H58.2431V56.2026H56.5248H56.5178H48.9417H48.9346H33.7964H33.7894H26.2124H26.2053H11.0663H11.0592H3.48309H3.47606H1.7578V58.2329Z" fill="url(#paint0_linear_502_4613)"/>
</g>
<defs>
<linearGradient id="paint0_linear_502_4613" x1="-2.23517e-07" y1="29.9954" x2="60" y2="29.9954" gradientUnits="userSpaceOnUse">
<stop stop-color="#223962"/>
<stop offset="0.526042" stop-color="#3277BC"/>
<stop offset="0.973958" stop-color="#48ABDF"/>
</linearGradient>
<clipPath id="clip0_502_4613">
<rect width="60" height="59.9903" fill="white"/>
</clipPath>
</defs>
</svg>
