<svg width="80" height="80" viewBox="0 0 80 80" fill="none" xmlns="http://www.w3.org/2000/svg">
<g clip-path="url(#clip0_1_1602)">
<path d="M70.1206 46.4611H62.6206C61.9733 46.4611 61.4487 46.9858 61.4487 47.6329C61.4487 48.2801 61.9733 48.8048 62.6206 48.8048H70.1206C70.7679 48.8048 71.2925 48.2801 71.2925 47.6329C71.2925 46.9858 70.7679 46.4611 70.1206 46.4611Z" fill="url(#paint0_linear_1_1602)"/>
<path d="M70.1206 51.2781H62.6206C61.9733 51.2781 61.4487 51.8028 61.4487 52.45C61.4487 53.0971 61.9733 53.6218 62.6206 53.6218H70.1206C70.7679 53.6218 71.2925 53.0971 71.2925 52.45C71.2925 51.8028 70.7679 51.2781 70.1206 51.2781Z" fill="url(#paint1_linear_1_1602)"/>
<path d="M70.1206 41.6441H62.6206C61.9733 41.6441 61.4487 42.1687 61.4487 42.8159C61.4487 43.4631 61.9733 43.9878 62.6206 43.9878H70.1206C70.7679 43.9878 71.2925 43.4631 71.2925 42.8159C71.2925 42.1687 70.7679 41.6441 70.1206 41.6441Z" fill="url(#paint2_linear_1_1602)"/>
<path d="M52.9776 40.12C51.9325 40.12 51.0822 40.9703 51.0822 42.0155V43.1259H48.3325C47.2875 43.1259 46.4372 43.9762 46.4372 45.0212V46.0234H43.68C42.635 46.0234 41.7847 46.8738 41.7847 47.9188V53.4069C41.7847 54.3659 42.5648 55.1461 43.5237 55.1461H56.3395C57.2984 55.1461 58.0786 54.3659 58.0786 53.4069V42.0155C58.0786 40.9703 57.2284 40.12 56.1833 40.12H52.9776ZM46.4372 52.8023H44.1284V48.3672H46.4372V52.8023ZM51.0822 52.8023H48.7809C48.7809 51.3763 48.7809 46.9236 48.7809 45.4697H51.0822V52.8023ZM55.7347 52.8023H53.4334C53.4334 45.2228 53.4258 42.8131 53.4258 42.4638H55.7345V52.8023H55.7347Z" fill="url(#paint3_linear_1_1602)"/>
<path d="M2.88202 74.4638H22.6823C23.3296 74.4638 23.8541 73.9391 23.8541 73.2919C23.8541 72.6447 23.3296 72.1201 22.6823 72.1201H10.6409V56.3768C10.6409 55.7296 10.1164 55.205 9.46903 55.205C8.82168 55.205 8.29716 55.7296 8.29716 56.3768V72.1201H2.88202C2.5853 72.1201 2.34374 71.8786 2.34374 71.5818V54.9948C2.34374 51.2864 4.96998 48.8555 6.74107 48.1222L14.361 45.1463L18.8962 49.6812C20.559 51.3445 22.8776 52.3834 25.4166 52.3833C27.8643 52.3831 30.2054 51.4125 31.9372 49.6814L36.4085 45.21V60.7195C36.4085 62.3777 37.7575 63.7268 39.4156 63.7268H40.1923V72.1204H28.151C27.5036 72.1204 26.9791 72.6451 26.9791 73.2922C26.9791 73.9394 27.5036 74.4641 28.151 74.4641H47.9512C49.5404 74.4641 50.8332 73.1713 50.8332 71.5821V63.7268H55.6973V67.3204C54.2478 67.8105 53.2007 69.1827 53.2007 70.7957C53.2007 72.8185 54.8463 74.4641 56.8692 74.4641C58.892 74.4641 60.5376 72.8185 60.5376 70.7957C60.5376 69.1827 59.4907 67.8105 58.041 67.3204V63.7268H74.3225C75.9806 63.7268 77.3297 62.3777 77.3297 60.7195V50.3676C77.3297 49.7205 76.8052 49.1958 76.1578 49.1958C75.5105 49.1958 74.986 49.7205 74.986 50.3676V60.7195C74.986 61.0854 74.6883 61.3831 74.3225 61.3831H49.6614H39.4158C39.05 61.3831 38.7523 61.0854 38.7523 60.7195C38.7523 59.9812 38.7523 34.0597 38.7523 33.3215H74.986V44.8989C74.986 45.5461 75.5105 46.0708 76.1578 46.0708C76.8052 46.0708 77.3297 45.5461 77.3297 44.8989V33.3215H77.3305C78.8025 33.3215 80 32.1238 80 30.6518V28.393C80 26.921 78.8025 25.7235 77.3305 25.7235H40.3898C40.1498 24.4457 39.4269 23.3065 38.3998 22.5609C38.5119 22.249 38.5761 21.9145 38.5761 21.5645V13.995C38.5761 11.5159 36.4281 9.69608 34.2122 9.86623C33.9364 9.88764 33.6263 9.74639 33.5655 9.43608C33.0522 6.81187 31.4035 5.53609 28.5252 5.53609H18.5799C14.2895 5.53609 10.799 9.02655 10.799 13.317V20.5703C10.799 21.5865 11.1846 22.5143 11.8168 23.2156C10.9057 24.139 10.3537 25.3818 10.3537 26.6615C10.3537 29.0507 12.2185 31.1768 14.851 31.4735C15.2276 34.165 16.671 36.7664 18.992 38.4978V40.8213C17.6737 41.3363 7.27357 45.398 5.87732 45.9433C5.87076 45.9459 5.8642 45.9486 5.85763 45.9512C3.03655 47.1123 0 50.4376 0 54.9948V71.5819C0 73.171 1.29281 74.4638 2.88202 74.4638ZM56.8692 69.4708C57.5996 69.4708 58.1938 70.0651 58.1938 70.7955C58.1938 71.526 57.5996 72.1202 56.8692 72.1202C56.1387 72.1202 55.5445 71.526 55.5445 70.7955C55.5445 70.0651 56.1387 69.4708 56.8692 69.4708ZM42.5361 63.7266H48.4895V71.5819C48.4895 71.8786 48.2479 72.1202 47.9512 72.1202H42.5362V63.7266H42.5361ZM22.3574 49.3209C23.7555 47.9133 23.2477 48.4245 24.6502 47.0126C24.6518 47.0111 24.653 47.0094 24.6544 47.0078C24.7577 46.9031 24.8555 46.7717 24.9154 46.6748H25.8979C25.9607 46.7775 26.0615 46.9101 26.1633 47.0126L28.4625 49.3273C26.5419 50.2792 24.276 50.2767 22.3574 49.3209ZM21.3341 41.1011C21.3352 41.0714 21.3359 41.0416 21.3359 41.0114V39.8081C23.7533 40.7728 26.7672 40.9294 29.4907 39.8266L29.4918 41.0203C29.4918 41.0427 29.4922 41.065 29.493 41.0874C28.1336 42.437 27.5454 43.0211 26.226 44.3311H24.5877C23.7629 43.5125 21.9974 41.7597 21.3341 41.1011ZM30.376 47.928C30.151 47.7016 28.4275 45.9664 28.1685 45.7055L30.8858 43.0075C32.5378 43.6474 32.4475 43.6124 34.065 44.2388L30.376 47.928ZM36.4086 42.633L31.8355 40.8621L31.8335 38.51C33.5964 37.1955 34.9358 35.3432 35.606 33.1979C35.8592 33.2779 36.1285 33.3215 36.4078 33.3215H36.4086V42.633ZM77.3305 28.0669C77.51 28.0669 77.6563 28.2132 77.6563 28.3927V30.6515C77.6563 30.8312 77.51 30.9774 77.3305 30.9774C75.3613 30.9774 38.4155 30.9774 36.4078 30.9774C36.2283 30.9774 36.082 30.8312 36.082 30.6515C36.082 29.3635 36.082 29.6421 36.082 28.3927C36.082 28.213 36.2283 28.0668 36.4078 28.0668C38.8234 28.0669 74.946 28.0669 77.3305 28.0669ZM36.7652 24.2923C37.3145 24.5973 37.7459 25.117 37.9689 25.723H36.4078C36.3016 25.723 36.1536 25.734 36.082 25.7427V24.4877C36.3142 24.451 36.5783 24.3715 36.7652 24.2923ZM14.7513 29.0829C13.584 28.8048 12.6975 27.8352 12.6975 26.6613C12.6975 25.804 13.2149 24.941 13.9921 24.4506C14.1768 24.4866 14.3659 24.5106 14.5585 24.5199C14.6228 24.5232 14.687 24.5248 14.7512 24.5249V29.0829H14.7513ZM14.7537 22.181C13.8853 22.181 13.1428 21.4729 13.1428 20.5701V13.317C13.1428 10.3189 15.5818 7.87984 18.5799 7.87984H28.5252C30.6963 7.87984 31.0507 8.78843 31.2653 9.88592C31.5463 11.3225 32.8924 12.3183 34.3919 12.2031C35.26 12.1368 36.2322 12.8967 36.2322 13.995V21.564C36.2322 21.9012 35.9411 22.181 35.6152 22.181C34.3672 22.181 33.3742 21.1503 33.3742 19.9401C33.3742 18.5381 31.4928 18.0765 30.8378 19.3029C29.8888 21.0781 28.0507 22.1809 26.0413 22.1809C24.404 22.181 16.3937 22.181 14.7537 22.181ZM17.0951 30.0641V24.5248H26.0413C28.1427 24.5248 30.1532 23.6756 31.6132 22.1751C32.0927 23.0304 32.8394 23.7156 33.7383 24.1207V30.064C33.7383 34.6307 30.0063 38.25 25.5521 38.25C20.4474 38.2502 17.0951 34.2833 17.0951 30.0641ZM19.9021 42.982C21.6832 44.7505 21.0054 44.0775 22.6452 45.7056C21.4555 46.9033 21.8863 46.4697 20.4476 47.9181L16.7448 44.2153L19.9021 42.982Z" fill="url(#paint4_linear_1_1602)"/>
</g>
<defs>
<linearGradient id="paint0_linear_1_1602" x1="61.4487" y1="47.6329" x2="71.2925" y2="47.6329" gradientUnits="userSpaceOnUse">
<stop stop-color="#223962"/>
<stop offset="0.526042" stop-color="#3277BC"/>
<stop offset="0.973958" stop-color="#48ABDF"/>
</linearGradient>
<linearGradient id="paint1_linear_1_1602" x1="61.4487" y1="52.45" x2="71.2925" y2="52.45" gradientUnits="userSpaceOnUse">
<stop stop-color="#223962"/>
<stop offset="0.526042" stop-color="#3277BC"/>
<stop offset="0.973958" stop-color="#48ABDF"/>
</linearGradient>
<linearGradient id="paint2_linear_1_1602" x1="61.4487" y1="42.8159" x2="71.2925" y2="42.8159" gradientUnits="userSpaceOnUse">
<stop stop-color="#223962"/>
<stop offset="0.526042" stop-color="#3277BC"/>
<stop offset="0.973958" stop-color="#48ABDF"/>
</linearGradient>
<linearGradient id="paint3_linear_1_1602" x1="41.7847" y1="47.6331" x2="58.0786" y2="47.6331" gradientUnits="userSpaceOnUse">
<stop stop-color="#223962"/>
<stop offset="0.526042" stop-color="#3277BC"/>
<stop offset="0.973958" stop-color="#48ABDF"/>
</linearGradient>
<linearGradient id="paint4_linear_1_1602" x1="-2.98023e-07" y1="40.0001" x2="80" y2="40.0001" gradientUnits="userSpaceOnUse">
<stop stop-color="#223962"/>
<stop offset="0.526042" stop-color="#3277BC"/>
<stop offset="0.973958" stop-color="#48ABDF"/>
</linearGradient>
<clipPath id="clip0_1_1602">
<rect width="80" height="80" fill="white"/>
</clipPath>
</defs>
</svg>
