<svg width="48" height="60" viewBox="0 0 48 60" fill="none" xmlns="http://www.w3.org/2000/svg">
<g clip-path="url(#clip0_390_5521)">
<path d="M46.1297 47.8125C45.6445 47.8125 45.2507 48.2062 45.2507 48.6914V53.8477C45.2507 56.2301 43.2386 58.2422 40.8562 58.2422H19.1765C16.8175 58.2422 14.8992 56.2711 14.8992 53.8477V23.4961C14.8992 22.7414 15.1113 22.1016 15.5308 21.593L22.0488 13.6957C22.6558 12.9609 23.4879 12.5391 24.3316 12.5391H35.6988C35.864 12.5391 36.0293 12.5555 36.1921 12.5871C35.6414 14.4633 34.2785 16.0289 32.4386 16.8141C31.957 16.009 31.0781 15.4688 30.0738 15.4688C28.555 15.4688 27.3199 16.7039 27.3199 18.2227C27.3199 19.7414 28.555 20.9766 30.0738 20.9766C31.4777 20.9766 32.639 19.9195 32.8066 18.5602C35.1738 17.6648 36.9632 15.7676 37.7613 13.452C37.8375 13.5293 37.9125 13.6102 37.9828 13.6957L44.5007 21.5941C44.9836 22.1789 45.2496 22.8551 45.2496 23.4973V44.591C45.2496 45.0762 45.6433 45.4699 46.1285 45.4699C46.6136 45.4699 47.0074 45.0762 47.0074 44.591V23.4973C47.0074 22.4484 46.5984 21.375 45.8566 20.4762L39.3386 12.5789C38.9976 12.1652 38.605 11.816 38.1785 11.5383C38.2043 11.2699 38.2195 10.998 38.2195 10.725V0.878906C38.2195 0.39375 37.8257 0 37.3406 0C36.8554 0 36.4617 0.39375 36.4617 0.878906C36.4617 0.878906 36.4593 10.807 36.4593 10.848C36.2097 10.8035 35.9554 10.7812 35.7 10.7812H24.3328C23.5324 10.7812 22.7484 11.0063 22.0453 11.4188C22.0148 11.4293 21.9843 11.4422 21.955 11.4563L13.3875 15.6293C12.4382 16.1051 11.6789 16.9043 11.25 17.8781C11.2453 17.8887 11.2406 17.8992 11.2371 17.9098L7.69449 26.8945C7.51637 27.3457 7.73785 27.8566 8.19019 28.0348C8.29566 28.077 8.40465 28.0957 8.51246 28.0957C8.86285 28.0957 9.19449 27.8848 9.33043 27.5391L12.866 18.5719C13.132 17.9777 13.5972 17.4914 14.1679 17.2043L18.6949 14.9988L14.1761 20.4738C13.5 21.293 13.1425 22.3383 13.1425 23.4949V53.8465C13.1425 54.2004 13.173 54.5461 13.2304 54.8836L4.17418 50.8711C2.12808 49.9652 1.20113 47.557 2.10816 45.5039C2.11168 45.4945 2.11637 45.4863 2.11988 45.477L7.84801 31.241C8.02965 30.791 7.81051 30.2789 7.36051 30.0973C6.90933 29.9156 6.3984 30.1348 6.21676 30.5848L0.490975 44.8078C-0.795744 47.7434 0.533163 51.1816 3.45933 52.4789L14.0789 57.1852C14.0918 57.191 14.1046 57.1957 14.1187 57.2004C15.1968 58.8844 17.0601 60.0012 19.1754 60.0012H40.855C44.1902 60.0012 47.0074 57.184 47.0074 53.8488V48.6926C47.0074 48.2074 46.6136 47.8137 46.1285 47.8137L46.1297 47.8125ZM30.075 19.2188C29.5254 19.2188 29.0789 18.7723 29.0789 18.2227C29.0789 17.673 29.5254 17.2266 30.075 17.2266C30.6246 17.2266 31.0711 17.673 31.0711 18.2227C31.0711 18.7723 30.6246 19.2188 30.075 19.2188Z" fill="url(#paint0_linear_390_5521)"/>
<path d="M22.4578 46.7577C22.6828 46.7577 22.9078 46.6722 23.0789 46.4999L38.0789 31.4999C38.4223 31.1565 38.4223 30.5999 38.0789 30.2565C37.7356 29.9132 37.1789 29.9132 36.8356 30.2565L21.8356 45.2565C21.2754 45.7792 21.7055 46.7835 22.4567 46.7565L22.4578 46.7577Z" fill="url(#paint1_linear_390_5521)"/>
<path d="M24.3328 37.5C26.4328 37.5 28.1414 35.7914 28.1414 33.6914C28.1414 31.5914 26.4328 29.8828 24.3328 29.8828H24.2156C22.1156 29.8828 20.407 31.5914 20.407 33.6914C20.407 35.7914 22.1156 37.5 24.2156 37.5H24.3328ZM22.1648 33.6914C22.1648 32.5605 23.0847 31.6406 24.2156 31.6406H24.3328C25.4636 31.6406 26.3835 32.5605 26.3835 33.6914C26.3835 34.8223 25.4636 35.7422 24.3328 35.7422H24.2156C23.0847 35.7422 22.1648 34.8223 22.1648 33.6914Z" fill="url(#paint2_linear_390_5521)"/>
<path d="M35.7 46.7578H35.8171C37.9171 46.7578 39.6257 45.0492 39.6257 42.9492C39.6257 40.8492 37.9171 39.1406 35.8171 39.1406H35.7C33.6 39.1406 31.8914 40.8492 31.8914 42.9492C31.8914 45.0492 33.6 46.7578 35.7 46.7578ZM35.7 40.8984H35.8171C36.948 40.8984 37.8679 41.8184 37.8679 42.9492C37.8679 44.0801 36.948 45 35.8171 45H35.7C34.5691 45 33.6492 44.0801 33.6492 42.9492C33.6492 41.8184 34.5691 40.8984 35.7 40.8984Z" fill="url(#paint3_linear_390_5521)"/>
</g>
<defs>
<linearGradient id="paint0_linear_390_5521" x1="-0.000122245" y1="30.0006" x2="47.0074" y2="30.0006" gradientUnits="userSpaceOnUse">
<stop stop-color="#223962"/>
<stop offset="0.526042" stop-color="#3277BC"/>
<stop offset="0.973958" stop-color="#48ABDF"/>
</linearGradient>
<linearGradient id="paint1_linear_390_5521" x1="21.5801" y1="38.3784" x2="38.3365" y2="38.3784" gradientUnits="userSpaceOnUse">
<stop stop-color="#223962"/>
<stop offset="0.526042" stop-color="#3277BC"/>
<stop offset="0.973958" stop-color="#48ABDF"/>
</linearGradient>
<linearGradient id="paint2_linear_390_5521" x1="20.407" y1="33.6914" x2="28.1414" y2="33.6914" gradientUnits="userSpaceOnUse">
<stop stop-color="#223962"/>
<stop offset="0.526042" stop-color="#3277BC"/>
<stop offset="0.973958" stop-color="#48ABDF"/>
</linearGradient>
<linearGradient id="paint3_linear_390_5521" x1="31.8914" y1="42.9492" x2="39.6257" y2="42.9492" gradientUnits="userSpaceOnUse">
<stop stop-color="#223962"/>
<stop offset="0.526042" stop-color="#3277BC"/>
<stop offset="0.973958" stop-color="#48ABDF"/>
</linearGradient>
<clipPath id="clip0_390_5521">
<rect width="47.0086" height="60" fill="white"/>
</clipPath>
</defs>
</svg>
