<svg width="60" height="60" viewBox="0 0 60 60" fill="none" xmlns="http://www.w3.org/2000/svg">
<path d="M45.883 6.23455C42.2459 6.23455 38.8127 6.79201 36.2159 7.80463C33.3463 8.92342 31.7659 10.5189 31.7659 12.2976C31.7659 12.5801 31.8049 12.8578 31.8825 13.1297C31.2553 13.0945 30.6259 13.0764 30 13.0764C29.3652 13.0764 28.7371 13.0944 28.118 13.1279C28.1952 12.8565 28.234 12.5795 28.234 12.2976C28.234 9.8847 25.6245 8.50271 23.679 7.76549C19.4815 6.1749 14.7166 5.94217 10.2899 6.44842C9.78715 6.50595 9.42621 6.96006 9.48363 7.46303C9.54117 7.96576 9.99445 8.32623 10.4982 8.26927C14.6457 7.7997 19.1918 7.98146 23.1184 9.51228C25.174 10.3137 26.4013 11.3551 26.4013 12.2978C26.4013 12.6268 26.253 12.9681 25.96 13.3153C25.9493 13.3164 25.939 13.3181 25.9283 13.3192C25.3485 13.3903 24.7709 13.4781 24.1961 13.5828C24.1678 13.5881 24.1398 13.5936 24.1117 13.5988C21.1279 14.157 18.7315 15.1274 17.3208 16.3682C17.213 16.379 17.1052 16.3895 16.9966 16.3993C16.0391 16.4848 15.0783 16.5282 14.117 16.5282C10.72 16.5282 6.93188 16.1471 3.88324 14.5229C2.63191 13.8563 1.89387 13.0969 1.83645 12.3869C1.8341 12.3571 1.83281 12.3274 1.83281 12.2978C1.83281 11.0668 3.84645 9.74021 6.96281 8.91814C7.45207 8.789 7.74422 8.28767 7.61508 7.79842C7.48594 7.30916 6.98449 7.01713 6.49535 7.14615C2.36742 8.2347 0 10.1125 0 12.2976V21.8274V31.3572V40.887C0 44.825 7.27348 46.9501 14.117 46.9501C14.7059 46.9501 15.2964 46.9333 15.8829 46.9033V47.729C15.8829 51.667 23.1564 53.792 29.9999 53.792C33.637 53.792 37.0702 53.2346 39.667 52.222C42.5366 51.1032 44.117 49.5076 44.117 47.729V46.9033C44.7035 46.9333 45.2941 46.9501 45.8829 46.9501C49.52 46.9501 52.9532 46.3926 55.55 45.38C58.4196 44.2612 60 42.6656 60 40.887V31.3572V21.8274V12.2976C60 8.35963 52.7265 6.23455 45.883 6.23455ZM15.883 45.0697C15.2972 45.1013 14.7061 45.1174 14.1171 45.1174C7.08621 45.1174 1.8327 42.884 1.8327 40.887V34.4617C1.8409 34.4678 1.84969 34.4737 1.85789 34.4797C2.54039 34.9853 3.2993 35.3752 4.08187 35.701C6.4091 36.6699 8.92207 37.1088 11.4237 37.3111C12.8473 37.4265 14.2789 37.4478 15.7057 37.3823C15.7646 37.3796 15.8241 37.3785 15.883 37.3756V45.0697ZM15.883 28.6693V35.539C15.8518 35.5408 15.8204 35.5421 15.7891 35.5437C15.567 35.555 15.3444 35.5642 15.1219 35.5714C14.787 35.582 14.452 35.5877 14.117 35.5877C7.08609 35.5877 1.83258 33.3543 1.83258 31.3573V24.932C1.84078 24.9381 1.84957 24.944 1.85777 24.95C1.93008 25.0036 2.00379 25.0567 2.07973 25.109C2.08559 25.113 2.0918 25.117 2.09766 25.121C4.64414 26.8481 7.95234 27.4574 10.9611 27.7409C12.5502 27.8906 14.1478 27.9256 15.742 27.8507C15.7889 27.8485 15.8363 27.8477 15.883 27.8453V28.6693ZM15.8831 19.1395V26.0088C15.8358 26.0113 15.7886 26.0136 15.7412 26.0158C12.4064 26.1797 8.93859 25.9124 5.75813 24.8394C4.75102 24.4996 3.72832 24.0738 2.8793 23.4221C2.38535 23.043 1.8327 22.4979 1.8327 21.8273V15.402C1.8409 15.4081 1.84969 15.414 1.85777 15.4199C1.93113 15.4742 2.00496 15.5272 2.07984 15.579C4.64133 17.3541 8.05512 17.9485 11.097 18.2233C12.7113 18.3692 14.3346 18.3971 15.9531 18.3118C15.969 18.311 15.985 18.3105 16.001 18.3094C15.923 18.581 15.8831 18.8579 15.8831 19.1395ZM42.2844 47.7289C42.2844 48.6715 41.0571 49.7129 39.0015 50.5144C36.6116 51.4462 33.4148 51.9592 30 51.9592C26.5852 51.9592 23.3884 51.4461 20.9985 50.5144C18.9429 49.713 17.7156 48.6717 17.7156 47.7289V41.3036C17.7238 41.3097 17.7326 41.3156 17.7408 41.3215C21.1311 43.8357 25.9106 44.262 30 44.262C33.6371 44.262 37.0703 43.7045 39.6671 42.6919C40.5734 42.3386 41.4657 41.8988 42.25 41.312C42.2612 41.3036 42.2733 41.2955 42.2844 41.2871V47.7289ZM17.7156 38.1991V31.7738C17.7238 31.7799 17.7325 31.7856 17.7408 31.7917C21.3885 34.493 26.2991 34.8099 30.6795 34.7256C34.5164 34.6519 39.0762 34.1567 42.2498 31.7822C42.2611 31.7738 42.2732 31.7657 42.2843 31.7573V38.199C42.2843 38.2579 42.2795 38.3172 42.27 38.3769C42.1277 39.2708 40.9286 40.2331 39.0014 40.9845C36.1614 42.0918 33.0302 42.4293 30 42.4293C26.5852 42.4293 23.3884 41.9161 20.9985 40.9845C18.9429 40.1831 17.7156 39.1417 17.7156 38.1991ZM36.9554 22.5704C36.4648 22.6946 36.1679 23.193 36.292 23.6835C36.4162 24.1743 36.915 24.4709 37.4052 24.3469C38.7307 24.0113 40.0458 23.5628 41.2458 22.9004C41.5777 22.7171 41.8995 22.5146 42.2051 22.2902C42.2313 22.2708 42.2586 22.252 42.2844 22.2325V28.6693C42.2844 28.7282 42.2796 28.7875 42.2701 28.8472C42.1277 29.7413 40.9286 30.7035 39.0014 31.4548C36.1603 32.5625 33.0313 32.8997 30 32.8997C26.5852 32.8997 23.3884 32.3866 20.9985 31.4548C18.9429 30.6534 17.7156 29.612 17.7156 28.6693V22.244C17.7238 22.2501 17.7326 22.256 17.7408 22.2619C21.1332 24.7748 25.9091 25.2025 30 25.2025C31.2104 25.2025 32.4238 25.1409 33.6273 25.011C34.654 24.9003 34.7024 23.3572 33.671 23.1956C33.5932 23.1834 33.5128 23.18 33.4307 23.1888C32.3183 23.3089 31.164 23.3698 29.9999 23.3698C26.585 23.3698 23.3883 22.8567 20.9984 21.9249C18.9429 21.1236 17.7156 20.0822 17.7155 19.1395C17.7154 17.5642 20.2781 16.4917 21.4854 16.0726C25.2176 14.7767 29.6089 14.6683 33.4995 15.0972C36.1617 15.3908 39.6427 15.9305 41.6391 17.9022C41.6418 17.9049 41.6449 17.9068 41.6477 17.9095C41.6528 17.9144 41.6579 17.9191 41.663 17.9238C42.0668 18.3296 42.2843 18.7433 42.2843 19.1394C42.2844 20.3844 40.1428 21.7633 36.9554 22.5704ZM54.8844 43.6724C52.4945 44.6042 49.2977 45.1172 45.8829 45.1172C45.294 45.1172 44.7028 45.1012 44.117 45.0695V38.199V37.3755C44.1757 37.3784 44.2352 37.3795 44.2942 37.3822C44.8233 37.4062 45.3532 37.42 45.883 37.42C47.5298 37.42 49.1421 37.3056 50.6749 37.0803C51.1755 37.0066 51.5218 36.5411 51.448 36.0404C51.3743 35.5397 50.9094 35.1935 50.4081 35.2673C48.9634 35.4797 47.4409 35.5876 45.883 35.5876C45.3254 35.5876 44.7677 35.5711 44.2107 35.5437C44.1795 35.5421 44.1482 35.5408 44.1169 35.539V28.6693V27.8453C44.1637 27.8478 44.211 27.8485 44.2579 27.8507C46.9318 27.9765 49.6909 27.8363 52.3301 27.2726C54.3449 26.8423 56.4632 26.1883 58.1327 24.9405C58.144 24.932 58.1561 24.924 58.1672 24.9155V31.3572C58.1672 32.4542 56.5416 33.6506 53.9245 34.4798C53.4422 34.6326 53.175 35.1476 53.3278 35.6301C53.4805 36.1124 53.9953 36.3801 54.4781 36.2268C55.7275 35.8311 56.9547 35.3213 58.0267 34.5571C58.074 34.523 58.1214 34.489 58.1672 34.4546V40.8869H58.1674C58.1673 41.8297 56.9401 42.871 54.8844 43.6724ZM58.1673 21.8274C58.1673 22.7702 56.94 23.8114 54.8844 24.6129C52.4945 25.5447 49.2977 26.0579 45.8829 26.0579C45.6183 26.0579 45.3532 26.0536 45.0884 26.0471C45.0116 26.0452 44.9348 26.0425 44.8582 26.0403C44.6579 26.0341 44.4581 26.026 44.2587 26.0161C44.2113 26.0138 44.1642 26.0116 44.117 26.0091V19.1398C44.117 18.8535 44.0775 18.5773 44.0036 18.3104C44.018 18.3111 44.0325 18.3115 44.0469 18.3124C47.8839 18.511 51.9422 18.1976 55.5502 16.7909C56.471 16.4317 57.377 15.9851 58.1673 15.386V21.8274ZM54.8844 15.0831C52.4945 16.0149 49.2977 16.5279 45.8829 16.5279C44.8192 16.5279 43.7555 16.4752 42.697 16.3697C42.0592 15.8085 41.2318 15.3165 40.2688 14.8953C40.2203 14.8737 40.1711 14.8525 40.1217 14.8314C40.1186 14.8301 40.1155 14.8287 40.1123 14.8274C38.4671 14.1234 36.3911 13.6001 34.0399 13.3151C33.7468 12.9679 33.5986 12.6265 33.5986 12.2976C33.5986 11.3549 34.8259 10.3136 36.8815 9.51205C39.2714 8.58029 42.4682 8.06724 45.883 8.06724C49.2979 8.06724 52.4946 8.58041 54.8845 9.51205C56.9401 10.3135 58.1674 11.3548 58.1674 12.2976C58.1674 13.2404 56.9401 14.2816 54.8844 15.0831Z" fill="url(#paint0_linear_343_4793)"/>
<defs>
<linearGradient id="paint0_linear_343_4793" x1="-2.23517e-07" y1="30.0005" x2="60" y2="30.0005" gradientUnits="userSpaceOnUse">
<stop stop-color="#223962"/>
<stop offset="0.526042" stop-color="#3277BC"/>
<stop offset="0.973958" stop-color="#48ABDF"/>
</linearGradient>
</defs>
</svg>
