<svg width="60" height="60" viewBox="0 0 60 60" fill="none" xmlns="http://www.w3.org/2000/svg">
<g clip-path="url(#clip0_1_811)">
<path d="M19.6289 45.3516H7.91016C6.7793 45.3516 5.85938 46.2715 5.85938 47.4023V49.1602C5.85938 50.291 6.7793 51.2109 7.91016 51.2109H19.6289C20.7598 51.2109 21.6797 50.291 21.6797 49.1602V47.4023C21.6797 46.2715 20.7598 45.3516 19.6289 45.3516ZM15.2344 47.1094V49.4531H12.3047V47.1094H15.2344ZM7.61719 49.1602V47.4023C7.61719 47.2406 7.74844 47.1094 7.91016 47.1094H10.5469V49.4531H7.91016C7.74844 49.4531 7.61719 49.3219 7.61719 49.1602ZM19.9219 49.1602C19.9219 49.3219 19.7906 49.4531 19.6289 49.4531H16.9922V47.1094H19.6289C19.7906 47.1094 19.9219 47.2406 19.9219 47.4023V49.1602Z" fill="url(#paint0_linear_1_811)"/>
<path d="M39.8438 35.0977C39.8438 33.9668 38.9238 33.0469 37.793 33.0469H26.0742C24.9434 33.0469 24.0234 33.9668 24.0234 35.0977V36.8555C24.0234 37.2914 24.1605 37.6945 24.3938 38.0273C24.1617 38.3602 24.0234 38.7633 24.0234 39.1992V40.957C24.0234 41.393 24.1605 41.7961 24.3938 42.1289C24.1617 42.4617 24.0234 42.8648 24.0234 43.3008V45.0586C24.0234 45.4945 24.1605 45.8977 24.3938 46.2305C24.1617 46.5633 24.0234 46.9664 24.0234 47.4023V49.1602C24.0234 50.291 24.9434 51.2109 26.0742 51.2109H37.793C38.9238 51.2109 39.8438 50.291 39.8438 49.1602V47.4023C39.8438 46.9664 39.7066 46.5633 39.4734 46.2305C39.7055 45.8977 39.8438 45.4945 39.8438 45.0586V43.3008C39.8438 42.8648 39.7066 42.4617 39.4734 42.1289C39.7055 41.7961 39.8438 41.393 39.8438 40.957V39.1992C39.8438 38.7633 39.7066 38.3602 39.4734 38.0273C39.7055 37.6945 39.8438 37.2914 39.8438 36.8555V35.0977ZM38.0859 35.0977V36.8555C38.0859 37.0172 37.9547 37.1484 37.793 37.1484H35.1562V34.8047H37.793C37.9547 34.8047 38.0859 34.9359 38.0859 35.0977ZM38.0859 39.1992V40.957C38.0859 41.1187 37.9547 41.25 37.793 41.25H32.8125V38.9062H37.793C37.9547 38.9062 38.0859 39.0375 38.0859 39.1992ZM38.0859 43.3008V45.0586C38.0859 45.2203 37.9547 45.3516 37.793 45.3516H35.1562V43.0078H37.793C37.9547 43.0078 38.0859 43.1391 38.0859 43.3008ZM30.4688 45.3516V43.0078H33.3984V45.3516H30.4688ZM26.0742 45.3516C25.9125 45.3516 25.7812 45.2203 25.7812 45.0586V43.3008C25.7812 43.1391 25.9125 43.0078 26.0742 43.0078H28.7109V45.3516H26.0742ZM25.7812 40.957V39.1992C25.7812 39.0375 25.9125 38.9062 26.0742 38.9062H31.0547V41.25H26.0742C25.9125 41.25 25.7812 41.1187 25.7812 40.957ZM30.4688 37.1484V34.8047H33.3984V37.1484H30.4688ZM25.7812 35.0977C25.7812 34.9359 25.9125 34.8047 26.0742 34.8047H28.7109V37.1484H26.0742C25.9125 37.1484 25.7812 37.0172 25.7812 36.8555V35.0977ZM25.7812 49.1602V47.4023C25.7812 47.2406 25.9125 47.1094 26.0742 47.1094H31.0547V49.4531H26.0742C25.9125 49.4531 25.7812 49.3219 25.7812 49.1602ZM38.0859 49.1602C38.0859 49.3219 37.9547 49.4531 37.793 49.4531H32.8125V47.1094H37.793C37.9547 47.1094 38.0859 47.2406 38.0859 47.4023V49.1602Z" fill="url(#paint1_linear_1_811)"/>
<path d="M20.8008 55.8985H14.6484V54.4337C14.6484 53.9485 14.2547 53.5548 13.7695 53.5548C13.2844 53.5548 12.8906 53.9485 12.8906 54.4337V55.8985H4.10156V40.0196H5.56641C6.05156 40.0196 6.44531 39.6259 6.44531 39.1407C6.44531 38.6556 6.05156 38.2618 5.56641 38.2618H4.10156V27.7149H5.56641C6.05156 27.7149 6.44531 27.3212 6.44531 26.836C6.44531 26.3509 6.05156 25.9571 5.56641 25.9571H4.10156V19.7017C4.10156 19.2165 3.70781 18.8228 3.22266 18.8228C2.7375 18.8228 2.34375 19.2165 2.34375 19.7017V55.8985H0.878906C0.39375 55.8985 0 56.2923 0 56.7774C0 57.2626 0.39375 57.6563 0.878906 57.6563H2.34375V59.1212C2.34375 59.6063 2.7375 60.0001 3.22266 60.0001C3.70781 60.0001 4.10156 59.6063 4.10156 59.1212V57.6563H20.8008C21.2859 57.6563 21.6797 57.2626 21.6797 56.7774C21.6797 56.2923 21.2859 55.8985 20.8008 55.8985Z" fill="url(#paint2_linear_1_811)"/>
<path d="M36.8309 14.3532C36.5027 14.7118 36.5285 15.2672 36.8859 15.5954C37.0547 15.75 37.2668 15.8262 37.4789 15.8262C37.7168 15.8262 37.9547 15.7301 38.1281 15.5403C40.3523 13.1086 43.2586 11.2477 46.7742 10.0032C47.427 11.1668 48.6715 11.9543 50.0977 11.9543C52.1977 11.9543 53.9063 10.2458 53.9063 8.14575C53.9063 6.04575 52.1977 4.33716 50.0977 4.33716C47.9977 4.33716 46.2891 6.04575 46.2891 8.14575C46.2891 8.20083 46.2914 8.25591 46.2938 8.30982C42.457 9.65161 39.2754 11.6813 36.832 14.3532H36.8309ZM50.0977 6.0938C51.2285 6.0938 52.1484 7.01372 52.1484 8.14458C52.1484 9.27544 51.2285 10.1954 50.0977 10.1954C48.9668 10.1954 48.0469 9.27544 48.0469 8.14458C48.0469 7.01372 48.9668 6.0938 50.0977 6.0938Z" fill="url(#paint3_linear_1_811)"/>
<path d="M42.1875 22.7929C42.1875 25.2761 43.3383 27.4944 45.1336 28.9452H44.2383C43.1074 28.9452 42.1875 29.8651 42.1875 30.996V32.7538C42.1875 33.1897 42.3246 33.5929 42.5578 33.9257C42.3258 34.2585 42.1875 34.6616 42.1875 35.0976V36.8554C42.1875 37.2913 42.3246 37.6944 42.5578 38.0272C42.3258 38.3601 42.1875 38.7632 42.1875 39.1991V40.9569C42.1875 41.3929 42.3246 41.796 42.5578 42.1288C42.3258 42.4616 42.1875 42.8647 42.1875 43.3007V45.0585C42.1875 45.4944 42.3246 45.8976 42.5578 46.2304C42.3258 46.5632 42.1875 46.9663 42.1875 47.4022V49.1601C42.1875 50.2909 43.1074 51.2108 44.2383 51.2108H55.957C57.0879 51.2108 58.0078 50.2909 58.0078 49.1601V47.4022C58.0078 46.9663 57.8707 46.5632 57.6375 46.2304C57.8695 45.8976 58.0078 45.4944 58.0078 45.0585V43.3007C58.0078 42.8647 57.8707 42.4616 57.6375 42.1288C57.8695 41.796 58.0078 41.3929 58.0078 40.9569V39.1991C58.0078 38.7632 57.8707 38.3601 57.6375 38.0272C57.8695 37.6944 58.0078 37.2913 58.0078 36.8554V35.0976C58.0078 34.6616 57.8707 34.2585 57.6375 33.9257C57.8695 33.5929 58.0078 33.1897 58.0078 32.7538V30.996C58.0078 29.8651 57.0879 28.9452 55.957 28.9452H55.0688C56.2922 27.9538 57.2098 26.5991 57.6656 25.0991C57.8074 24.6351 57.5449 24.144 57.0809 24.0022C56.6168 23.8616 56.1258 24.1229 55.984 24.587C55.1918 27.1933 52.8258 28.944 50.0988 28.944C46.7063 28.944 43.9465 26.1843 43.9465 22.7917C43.9465 19.3991 46.7063 16.6394 50.0988 16.6394C52.827 16.6394 55.1918 18.3901 55.984 20.9964C56.1258 21.4604 56.6168 21.7229 57.0809 21.5812C57.5449 21.4394 57.8074 20.9483 57.6656 20.4843C57.1828 18.8964 56.1832 17.469 54.8496 16.4659C53.4715 15.4288 51.8273 14.8804 50.0977 14.8804C45.7359 14.8804 42.1875 18.4288 42.1875 22.7905V22.7929ZM51.5625 30.703V33.0468H48.6328V30.703H51.5625ZM55.957 34.8046C56.1187 34.8046 56.25 34.9358 56.25 35.0976V36.8554C56.25 37.0171 56.1187 37.1483 55.957 37.1483H50.9766V34.8046H55.957ZM56.25 39.1991V40.9569C56.25 41.1187 56.1187 41.2499 55.957 41.2499H53.3203V38.9062H55.957C56.1187 38.9062 56.25 39.0374 56.25 39.1991ZM56.25 43.3007V45.0585C56.25 45.2202 56.1187 45.3515 55.957 45.3515H50.9766V43.0077H55.957C56.1187 43.0077 56.25 43.139 56.25 43.3007ZM44.2383 45.3515C44.0766 45.3515 43.9453 45.2202 43.9453 45.0585V43.3007C43.9453 43.139 44.0766 43.0077 44.2383 43.0077H49.2188V45.3515H44.2383ZM43.9453 40.9569V39.1991C43.9453 39.0374 44.0766 38.9062 44.2383 38.9062H46.875V41.2499H44.2383C44.0766 41.2499 43.9453 41.1187 43.9453 40.9569ZM43.9453 36.8554V35.0976C43.9453 34.9358 44.0766 34.8046 44.2383 34.8046H49.2188V37.1483H44.2383C44.0766 37.1483 43.9453 37.0171 43.9453 36.8554ZM48.6328 41.2499V38.9062H51.5625V41.2499H48.6328ZM51.5625 47.1093V49.453H48.6328V47.1093H51.5625ZM43.9453 30.996C43.9453 30.8343 44.0766 30.703 44.2383 30.703H46.875V33.0468H44.2383C44.0766 33.0468 43.9453 32.9155 43.9453 32.7538V30.996ZM43.9453 49.1601V47.4022C43.9453 47.2405 44.0766 47.1093 44.2383 47.1093H46.875V49.453H44.2383C44.0766 49.453 43.9453 49.3218 43.9453 49.1601ZM56.25 49.1601C56.25 49.3218 56.1187 49.453 55.957 49.453H53.3203V47.1093H55.957C56.1187 47.1093 56.25 47.2405 56.25 47.4022V49.1601ZM56.25 30.996V32.7538C56.25 32.9155 56.1187 33.0468 55.957 33.0468H53.3203V30.703H55.957C56.1187 30.703 56.25 30.8343 56.25 30.996Z" fill="url(#paint4_linear_1_811)"/>
<path d="M50.0965 27.6645C50.5816 27.6645 50.9754 27.2708 50.9754 26.7856V26.4C51.7406 26.1118 52.3207 25.4602 52.4895 24.6223C52.7156 23.5067 52.1461 22.4485 51.075 21.9868C50.7996 21.8684 50.5617 21.7864 50.352 21.7149C50.0121 21.5989 49.8457 21.5379 49.752 21.4348C49.6582 21.3317 49.6266 21.2192 49.6559 21.102C49.6887 20.9731 49.7859 20.8688 49.916 20.8219C50.3191 20.679 50.7867 20.9508 50.809 20.9649C51.2133 21.225 51.7535 21.1114 52.0184 20.7083C52.2844 20.3028 52.1719 19.7579 51.7664 19.4907C51.7066 19.452 51.409 19.2657 50.9754 19.1391V18.8157C50.9754 18.3305 50.5816 17.9368 50.0965 17.9368C49.6113 17.9368 49.2176 18.3305 49.2176 18.8157V19.2083C48.5883 19.4708 48.1195 20.0086 47.952 20.6696C47.7773 21.3598 47.9566 22.0676 48.4453 22.6102C48.8484 23.0579 49.3231 23.2208 49.7824 23.3778C49.9711 23.4422 50.1656 23.509 50.3801 23.6004C50.7984 23.7809 50.802 24.0985 50.7668 24.2719C50.7492 24.3598 50.6332 24.7981 50.0906 24.8016C49.6102 24.804 49.3641 24.7102 49.016 24.5098C48.5953 24.2684 48.0586 24.4125 47.816 24.8333C47.5746 25.254 47.7188 25.7918 48.1395 26.0333C48.4781 26.2278 48.8133 26.3825 49.2176 26.4727V26.7844C49.2176 27.2696 49.6113 27.6633 50.0965 27.6633V27.6645Z" fill="url(#paint5_linear_1_811)"/>
<path d="M13.7695 42.9493C15.8695 42.9493 17.5781 41.2407 17.5781 39.1407C17.5781 38.2032 17.2371 37.3431 16.6723 36.6786C20.0262 32.6017 24 29.8501 28.5012 28.4861C29.1176 29.7622 30.4242 30.6446 31.9336 30.6446C34.0336 30.6446 35.7422 28.9361 35.7422 26.8361C35.7422 25.3642 34.902 24.0845 33.6762 23.4517C34.227 21.7232 34.9359 20.1236 35.7891 18.6904C36.0375 18.2732 35.9004 17.7341 35.4832 17.4857C35.066 17.2372 34.527 17.3743 34.2785 17.7915C33.3387 19.37 32.5641 21.1302 31.9688 23.0286C31.957 23.0286 31.9465 23.0286 31.9348 23.0286C29.8594 23.0286 28.1672 24.6986 28.1285 26.7646C23.2066 28.2236 18.8813 31.2036 15.2578 35.6357C14.8008 35.4411 14.2992 35.3333 13.7719 35.3333C11.6719 35.3333 9.96329 37.0419 9.96329 39.1419C9.96329 41.2419 11.6719 42.9505 13.7719 42.9505L13.7695 42.9493ZM31.9336 24.7853C33.0645 24.7853 33.9844 25.7052 33.9844 26.8361C33.9844 27.9669 33.0645 28.8868 31.9336 28.8868C30.8027 28.8868 29.8828 27.9669 29.8828 26.8361C29.8828 25.7052 30.8027 24.7853 31.9336 24.7853ZM13.7695 37.09C14.9004 37.09 15.8203 38.0099 15.8203 39.1407C15.8203 40.2716 14.9004 41.1915 13.7695 41.1915C12.6387 41.1915 11.7188 40.2716 11.7188 39.1407C11.7188 38.0099 12.6387 37.09 13.7695 37.09Z" fill="url(#paint6_linear_1_811)"/>
<path d="M1.50001 3.8437L2.34376 2.99995V15.5988C2.34376 16.0839 2.73751 16.4777 3.22267 16.4777C3.70782 16.4777 4.10157 16.0839 4.10157 15.5988V9.02222H5.56642C6.05157 9.02222 6.44532 8.62847 6.44532 8.14331C6.44532 7.65815 6.05157 7.26441 5.56642 7.26441H4.10157V3.00112L4.94532 3.84487C5.11642 4.01597 5.34142 4.10269 5.56642 4.10269C5.79142 4.10269 6.01642 4.01714 6.18751 3.84487C6.53087 3.50151 6.53087 2.94487 6.18751 2.60151L3.84376 0.257764C3.5004 -0.0855957 2.94376 -0.0855957 2.6004 0.257764L0.257825 2.60151C-0.0855347 2.94487 -0.0855347 3.50151 0.257825 3.84487C0.601184 4.18823 1.15782 4.18823 1.50118 3.84487L1.50001 3.8437Z" fill="url(#paint7_linear_1_811)"/>
<path d="M59.7422 56.1562L57.3984 53.8125C57.0551 53.4691 56.4984 53.4691 56.1551 53.8125C55.8117 54.1558 55.8117 54.7124 56.1551 55.0558L56.9988 55.8996H50.9754V54.4347C50.9754 53.9496 50.5816 53.5558 50.0965 53.5558C49.6113 53.5558 49.2176 53.9496 49.2176 54.4347V55.8996H32.8125V54.4347C32.8125 53.9496 32.4188 53.5558 31.9336 53.5558C31.4484 53.5558 31.0547 53.9496 31.0547 54.4347V55.8996H24.9023C24.4172 55.8996 24.0234 56.2933 24.0234 56.7785C24.0234 57.2636 24.4172 57.6574 24.9023 57.6574H56.9988L56.1551 58.5011C55.8117 58.8445 55.8117 59.4011 56.1551 59.7445C56.3262 59.9156 56.5512 60.0023 56.7762 60.0023C57.0012 60.0023 57.2262 59.9167 57.3973 59.7445L59.741 57.4007C60.0844 57.0574 60.0844 56.5007 59.741 56.1574L59.7422 56.1562Z" fill="url(#paint8_linear_1_811)"/>
<path d="M11.4258 27.7148H13.7695C14.2547 27.7148 14.6484 27.3211 14.6484 26.8359C14.6484 26.3508 14.2547 25.957 13.7695 25.957H11.4258C10.9406 25.957 10.5469 26.3508 10.5469 26.8359C10.5469 27.3211 10.9406 27.7148 11.4258 27.7148Z" fill="url(#paint9_linear_1_811)"/>
<path d="M11.4258 9.02344H13.7695C14.2547 9.02344 14.6484 8.62969 14.6484 8.14453C14.6484 7.65938 14.2547 7.26562 13.7695 7.26562H11.4258C10.9406 7.26562 10.5469 7.65938 10.5469 8.14453C10.5469 8.62969 10.9406 9.02344 11.4258 9.02344Z" fill="url(#paint10_linear_1_811)"/>
<path d="M19.6289 9.02344H21.9727C22.4578 9.02344 22.8516 8.62969 22.8516 8.14453C22.8516 7.65938 22.4578 7.26562 21.9727 7.26562H19.6289C19.1438 7.26562 18.75 7.65938 18.75 8.14453C18.75 8.62969 19.1438 9.02344 19.6289 9.02344Z" fill="url(#paint11_linear_1_811)"/>
<path d="M19.6289 27.7148H21.9727C22.4578 27.7148 22.8516 27.3211 22.8516 26.8359C22.8516 26.3508 22.4578 25.957 21.9727 25.957H19.6289C19.1438 25.957 18.75 26.3508 18.75 26.8359C18.75 27.3211 19.1438 27.7148 19.6289 27.7148Z" fill="url(#paint12_linear_1_811)"/>
<path d="M27.832 9.02344H30.1758C30.6609 9.02344 31.0547 8.62969 31.0547 8.14453C31.0547 7.65938 30.6609 7.26562 30.1758 7.26562H27.832C27.3469 7.26562 26.9531 7.65938 26.9531 8.14453C26.9531 8.62969 27.3469 9.02344 27.832 9.02344Z" fill="url(#paint13_linear_1_811)"/>
<path d="M36.0352 9.02344H38.3789C38.8641 9.02344 39.2578 8.62969 39.2578 8.14453C39.2578 7.65938 38.8641 7.26562 38.3789 7.26562H36.0352C35.55 7.26562 35.1562 7.65938 35.1562 8.14453C35.1562 8.62969 35.55 9.02344 36.0352 9.02344Z" fill="url(#paint14_linear_1_811)"/>
</g>
<defs>
<linearGradient id="paint0_linear_1_811" x1="5.85937" y1="48.2813" x2="21.6797" y2="48.2813" gradientUnits="userSpaceOnUse">
<stop stop-color="#223962"/>
<stop offset="0.526042" stop-color="#3277BC"/>
<stop offset="0.973958" stop-color="#48ABDF"/>
</linearGradient>
<linearGradient id="paint1_linear_1_811" x1="24.0234" y1="42.1289" x2="39.8437" y2="42.1289" gradientUnits="userSpaceOnUse">
<stop stop-color="#223962"/>
<stop offset="0.526042" stop-color="#3277BC"/>
<stop offset="0.973958" stop-color="#48ABDF"/>
</linearGradient>
<linearGradient id="paint2_linear_1_811" x1="-8.07631e-08" y1="39.4114" x2="21.6797" y2="39.4114" gradientUnits="userSpaceOnUse">
<stop stop-color="#223962"/>
<stop offset="0.526042" stop-color="#3277BC"/>
<stop offset="0.973958" stop-color="#48ABDF"/>
</linearGradient>
<linearGradient id="paint3_linear_1_811" x1="36.6004" y1="10.0817" x2="53.9063" y2="10.0817" gradientUnits="userSpaceOnUse">
<stop stop-color="#223962"/>
<stop offset="0.526042" stop-color="#3277BC"/>
<stop offset="0.973958" stop-color="#48ABDF"/>
</linearGradient>
<linearGradient id="paint4_linear_1_811" x1="42.1875" y1="33.0456" x2="58.0078" y2="33.0456" gradientUnits="userSpaceOnUse">
<stop stop-color="#223962"/>
<stop offset="0.526042" stop-color="#3277BC"/>
<stop offset="0.973958" stop-color="#48ABDF"/>
</linearGradient>
<linearGradient id="paint5_linear_1_811" x1="47.6991" y1="22.8006" x2="52.5386" y2="22.8006" gradientUnits="userSpaceOnUse">
<stop stop-color="#223962"/>
<stop offset="0.526042" stop-color="#3277BC"/>
<stop offset="0.973958" stop-color="#48ABDF"/>
</linearGradient>
<linearGradient id="paint6_linear_1_811" x1="9.96329" y1="30.1562" x2="35.9129" y2="30.1562" gradientUnits="userSpaceOnUse">
<stop stop-color="#223962"/>
<stop offset="0.526042" stop-color="#3277BC"/>
<stop offset="0.973958" stop-color="#48ABDF"/>
</linearGradient>
<linearGradient id="paint7_linear_1_811" x1="0.000305152" y1="8.23897" x2="6.44532" y2="8.23897" gradientUnits="userSpaceOnUse">
<stop stop-color="#223962"/>
<stop offset="0.526042" stop-color="#3277BC"/>
<stop offset="0.973958" stop-color="#48ABDF"/>
</linearGradient>
<linearGradient id="paint8_linear_1_811" x1="24.0234" y1="56.7786" x2="59.9985" y2="56.7786" gradientUnits="userSpaceOnUse">
<stop stop-color="#223962"/>
<stop offset="0.526042" stop-color="#3277BC"/>
<stop offset="0.973958" stop-color="#48ABDF"/>
</linearGradient>
<linearGradient id="paint9_linear_1_811" x1="10.5469" y1="26.8359" x2="14.6484" y2="26.8359" gradientUnits="userSpaceOnUse">
<stop stop-color="#223962"/>
<stop offset="0.526042" stop-color="#3277BC"/>
<stop offset="0.973958" stop-color="#48ABDF"/>
</linearGradient>
<linearGradient id="paint10_linear_1_811" x1="10.5469" y1="8.14453" x2="14.6484" y2="8.14453" gradientUnits="userSpaceOnUse">
<stop stop-color="#223962"/>
<stop offset="0.526042" stop-color="#3277BC"/>
<stop offset="0.973958" stop-color="#48ABDF"/>
</linearGradient>
<linearGradient id="paint11_linear_1_811" x1="18.75" y1="8.14453" x2="22.8516" y2="8.14453" gradientUnits="userSpaceOnUse">
<stop stop-color="#223962"/>
<stop offset="0.526042" stop-color="#3277BC"/>
<stop offset="0.973958" stop-color="#48ABDF"/>
</linearGradient>
<linearGradient id="paint12_linear_1_811" x1="18.75" y1="26.8359" x2="22.8516" y2="26.8359" gradientUnits="userSpaceOnUse">
<stop stop-color="#223962"/>
<stop offset="0.526042" stop-color="#3277BC"/>
<stop offset="0.973958" stop-color="#48ABDF"/>
</linearGradient>
<linearGradient id="paint13_linear_1_811" x1="26.9531" y1="8.14453" x2="31.0547" y2="8.14453" gradientUnits="userSpaceOnUse">
<stop stop-color="#223962"/>
<stop offset="0.526042" stop-color="#3277BC"/>
<stop offset="0.973958" stop-color="#48ABDF"/>
</linearGradient>
<linearGradient id="paint14_linear_1_811" x1="35.1562" y1="8.14453" x2="39.2578" y2="8.14453" gradientUnits="userSpaceOnUse">
<stop stop-color="#223962"/>
<stop offset="0.526042" stop-color="#3277BC"/>
<stop offset="0.973958" stop-color="#48ABDF"/>
</linearGradient>
<clipPath id="clip0_1_811">
<rect width="60" height="60" fill="white"/>
</clipPath>
</defs>
</svg>
