<svg width="52" height="60" viewBox="0 0 52 60" fill="none" xmlns="http://www.w3.org/2000/svg">
<g clip-path="url(#clip0_343_4606)">
<path d="M25.9743 26.2803C23.9229 26.2803 22.2539 27.9493 22.2539 30.0007C22.2539 32.052 23.9229 33.7211 25.9743 33.7211C28.0257 33.7211 29.6938 32.052 29.6938 30.0007C29.6938 27.9493 28.0248 26.2803 25.9743 26.2803ZM25.9743 31.9624C24.8924 31.9624 24.0117 31.0826 24.0117 29.9998C24.0117 28.917 24.8924 28.0372 25.9743 28.0372C27.0562 28.0372 27.936 28.9179 27.936 29.9998C27.936 31.0817 27.0562 31.9624 25.9743 31.9624Z" fill="url(#paint0_linear_343_4606)"/>
<path d="M46.2672 39.598V34.735C46.2672 31.6395 43.7491 29.1206 40.6527 29.1206H37.0334V29.0529C37.0334 28.0457 36.2143 27.2274 35.2079 27.2274H33.9634C33.8553 26.9163 33.7279 26.6104 33.5828 26.3125L34.4635 25.4318C34.808 25.0873 34.9988 24.6285 34.9988 24.1407C34.9988 23.6529 34.8089 23.1941 34.4644 22.8496L33.1249 21.5102C32.413 20.7982 31.2546 20.7982 30.5427 21.5102L29.6621 22.3908C29.3641 22.2458 29.0591 22.1192 28.7471 22.0102V21.0391C28.7471 21.0329 28.7471 21.0276 28.7471 21.0224V15.8113C28.7471 15.3262 28.3534 14.9324 27.8682 14.9324C27.3831 14.9324 26.9893 15.3262 26.9893 15.8113V18.9446C26.9665 18.9446 26.9436 18.9411 26.9199 18.9411H25.0259C25.0021 18.9411 24.9802 18.9438 24.9564 18.9446V7.20954C24.9564 6.85446 24.742 6.53366 24.4141 6.39743C24.0854 6.2612 23.7075 6.33679 23.4561 6.58815L22.1017 7.94254C22.0868 7.95748 22.0613 7.95748 22.0464 7.94254L20.7465 6.64264C20.7315 6.6277 20.7315 6.60134 20.7465 6.58639L25.2948 2.03808C25.4759 1.85702 25.7167 1.75771 25.9733 1.75771C26.2299 1.75771 26.4708 1.85702 26.6518 2.03808L31.2001 6.58639C31.2001 6.58639 31.2116 6.59782 31.2116 6.61452C31.2116 6.63122 31.2037 6.63913 31.2001 6.64264L29.9002 7.94254C29.8853 7.95748 29.8598 7.95748 29.8449 7.94254L28.4905 6.58815C28.2391 6.33679 27.8612 6.26208 27.5325 6.39743C27.2038 6.53366 26.9902 6.85358 26.9902 7.20954V11.7095C26.9902 12.1947 27.3839 12.5884 27.8691 12.5884C28.3543 12.5884 28.748 12.1947 28.748 11.7095V9.31626C29.0662 9.5729 29.459 9.71177 29.873 9.71177C30.3529 9.71177 30.8046 9.52456 31.1439 9.18531L32.4438 7.88541C33.1451 7.18405 33.1451 6.04411 32.4438 5.34275L27.8955 0.79443C27.3822 0.281151 26.7002 -0.000976562 25.9742 -0.000976562C25.2482 -0.000976562 24.5662 0.281151 24.0529 0.79443L19.5046 5.34275C18.8041 6.04411 18.8041 7.18405 19.5046 7.88541L20.8045 9.18531C21.1437 9.52456 21.5955 9.71177 22.0754 9.71177C22.4893 9.71177 22.8822 9.5729 23.2004 9.31626V21.0224C23.2004 21.0276 23.2004 21.0329 23.2004 21.0382V22.0102C22.8892 22.1183 22.5834 22.2458 22.2863 22.3908L21.4057 21.5102C20.6937 20.7982 19.5354 20.7982 18.8234 21.5102L17.484 22.8496C16.7721 23.5615 16.7721 24.7199 17.484 25.4318L18.3647 26.3125C18.2196 26.6104 18.0931 26.9154 17.9841 27.2274H16.7396C15.7323 27.2274 14.9141 28.0465 14.9141 29.0529V29.1206H11.2948C8.19928 29.1206 5.68034 31.6386 5.68034 34.735V39.598C2.4785 40.0295 0 42.7787 0 46.0992C0 49.7168 2.94256 52.6602 6.56012 52.6602C10.1777 52.6602 13.1211 49.7168 13.1211 46.0992C13.1211 45.1623 12.9278 44.257 12.5454 43.408C12.3459 42.965 11.8256 42.7682 11.3835 42.9668C10.9406 43.1663 10.7437 43.6857 10.9423 44.1287C11.2218 44.7492 11.3633 45.4128 11.3633 46.0992C11.3633 48.7482 9.20826 50.9024 6.56012 50.9024C3.91199 50.9024 1.7578 48.7473 1.7578 46.0992C1.7578 43.4511 3.90936 41.2986 6.55485 41.296C6.55661 41.296 6.55837 41.296 6.561 41.296C6.56364 41.296 6.56452 41.296 6.56628 41.296C7.25182 41.296 7.91188 41.4384 8.52974 41.717C8.97183 41.9165 9.49302 41.7196 9.69253 41.2775C9.89204 40.8354 9.69517 40.3143 9.25308 40.1147C8.673 39.8528 8.06568 39.6814 7.43991 39.598V34.735C7.43991 32.6089 9.16958 30.8784 11.2965 30.8784H14.9158V30.946C14.9158 31.9533 15.735 32.7724 16.7413 32.7724H17.9858C18.094 33.0835 18.2214 33.3885 18.3664 33.6865L17.4858 34.5671C16.7738 35.279 16.7738 36.4374 17.4858 37.1493L18.8252 38.4888C19.5371 39.2007 20.6955 39.2007 21.4074 38.4888L22.2881 37.6081C22.586 37.7531 22.891 37.8797 23.2021 37.9887V39.2332C23.2021 40.2404 24.0213 41.0587 25.0285 41.0587H25.0962V46.9377C21.8926 47.3683 19.4141 50.1184 19.4141 53.438C19.4141 57.0556 22.3575 59.999 25.9751 59.999C29.5926 59.999 32.5361 57.0556 32.5361 53.438C32.5361 50.1184 30.0576 47.3683 26.854 46.9377V41.0587H26.9216C27.9289 41.0587 28.748 40.2396 28.748 39.2332V37.9887C29.0591 37.8806 29.365 37.7531 29.6629 37.6081L30.5436 38.4888C31.2555 39.2007 32.4139 39.2007 33.1258 38.4888L34.4653 37.1493C34.8098 36.8048 35.0005 36.346 35.0005 35.8582C35.0005 35.3704 34.8107 34.9116 34.4661 34.5671L33.5855 33.6865C33.7305 33.3885 33.8571 33.0835 33.966 32.7724H35.2106C36.2178 32.7724 37.036 31.9533 37.036 30.946V30.8784H40.6554C42.7814 30.8784 44.512 32.608 44.512 34.735V39.5971C43.5382 39.728 42.6074 40.0743 41.7812 40.6192C41.3761 40.8864 41.2644 41.4322 41.5316 41.8374C41.7988 42.2426 42.3446 42.3542 42.7498 42.087C43.532 41.5711 44.4426 41.2977 45.3847 41.296C45.3865 41.296 45.3891 41.296 45.3909 41.296C45.3927 41.296 45.3944 41.296 45.397 41.296C48.0425 41.2986 50.1941 43.4528 50.1941 46.0992C50.1941 48.7456 48.0399 50.9024 45.3918 50.9024C42.7436 50.9024 40.5886 48.7473 40.5886 46.0992C40.5886 45.6764 40.6439 45.2572 40.7529 44.8512C40.8786 44.3827 40.6009 43.9002 40.1324 43.7745C39.6631 43.6488 39.1814 43.9265 39.0558 44.395C38.9064 44.9496 38.8308 45.5235 38.8308 46.1001C38.8308 49.7176 41.7742 52.6611 45.3918 52.6611C49.0093 52.6611 51.9519 49.7176 51.9519 46.1001C51.9519 42.7805 49.4734 40.0304 46.2707 39.5997L46.2672 39.598ZM30.7774 53.438C30.7774 56.0862 28.6223 58.2412 25.9742 58.2412C23.3261 58.2412 21.171 56.0862 21.171 53.438C21.171 50.7899 23.3261 48.6348 25.9742 48.6348C28.6223 48.6348 30.7774 50.7899 30.7774 53.438ZM35.2756 30.946C35.2756 30.9838 35.2448 31.0146 35.2079 31.0146H33.3121C32.9114 31.0146 32.5607 31.2862 32.4614 31.6747C32.3067 32.2767 32.065 32.8568 31.7442 33.3999C31.5403 33.7453 31.5956 34.1848 31.8795 34.4687L33.2216 35.8108C33.2269 35.816 33.2418 35.831 33.2418 35.8591C33.2418 35.8872 33.2269 35.9022 33.2216 35.9074L31.8822 37.2469C31.8558 37.2733 31.8127 37.2733 31.7855 37.2469L30.4434 35.9048C30.1595 35.6209 29.7201 35.5656 29.3747 35.7695C28.8315 36.0903 28.2514 36.332 27.6494 36.4866C27.2609 36.5868 26.9893 36.9366 26.9893 37.3374V39.2332C26.9893 39.271 26.9586 39.3009 26.9208 39.3009H25.0267C24.9889 39.3009 24.9582 39.2701 24.9582 39.2332V37.3374C24.9582 36.9366 24.6866 36.586 24.2981 36.4866C23.6961 36.332 23.116 36.0903 22.5728 35.7695C22.434 35.6868 22.2793 35.6473 22.1264 35.6473C21.8987 35.6473 21.6737 35.7352 21.505 35.9048L20.1629 37.2469C20.1365 37.2733 20.0935 37.2733 20.0662 37.2469L18.7268 35.9074C18.7004 35.8811 18.7004 35.838 18.7268 35.8108L20.0688 34.4687C20.3527 34.1848 20.4081 33.7453 20.2042 33.3999C19.8834 32.8568 19.6417 32.2758 19.487 31.6747C19.3868 31.2862 19.037 31.0146 18.6362 31.0146H16.7404C16.7027 31.0146 16.6728 30.9838 16.6728 30.946V29.052C16.6728 29.0142 16.7035 28.9843 16.7404 28.9843H18.6362C19.037 28.9843 19.3877 28.7128 19.487 28.3243C19.6417 27.7222 19.8834 27.1422 20.2042 26.599C20.4081 26.2536 20.3527 25.8141 20.0688 25.5302L18.7268 24.1882C18.7004 24.1618 18.7004 24.1187 18.7268 24.0915L20.0662 22.752C20.0926 22.7257 20.1356 22.7257 20.1629 22.752L21.505 24.0941C21.7889 24.378 22.2283 24.4334 22.5737 24.2295C23.1169 23.9087 23.6978 23.667 24.299 23.5123C24.6875 23.4121 24.9591 23.0623 24.9591 22.6615V20.7657C24.9591 20.7279 24.9898 20.698 25.0276 20.698H26.9216C26.9594 20.698 26.9902 20.7288 26.9902 20.7657V22.6615C26.9902 23.0623 27.2618 23.413 27.6503 23.5123C28.2514 23.667 28.8324 23.9078 29.3755 24.2295C29.7209 24.4334 30.1604 24.378 30.4443 24.0941L31.7864 22.752C31.8127 22.7257 31.8558 22.7257 31.883 22.752L33.2225 24.0915C33.2278 24.0968 33.2427 24.1117 33.2427 24.1398C33.2427 24.168 33.2278 24.1829 33.2225 24.1882L31.8804 25.5302C31.5965 25.8141 31.5412 26.2536 31.7451 26.599C32.0659 27.1422 32.3076 27.7222 32.4622 28.3243C32.5624 28.7128 32.9122 28.9843 33.313 28.9843H35.2088C35.2466 28.9843 35.2765 29.0151 35.2765 29.052V30.946H35.2756Z" fill="url(#paint1_linear_343_4606)"/>
</g>
<defs>
<linearGradient id="paint0_linear_343_4606" x1="22.2539" y1="30.0007" x2="29.6938" y2="30.0007" gradientUnits="userSpaceOnUse">
<stop stop-color="#223962"/>
<stop offset="0.526042" stop-color="#3277BC"/>
<stop offset="0.973958" stop-color="#48ABDF"/>
</linearGradient>
<linearGradient id="paint1_linear_343_4606" x1="-1.93536e-07" y1="29.999" x2="51.9519" y2="29.999" gradientUnits="userSpaceOnUse">
<stop stop-color="#223962"/>
<stop offset="0.526042" stop-color="#3277BC"/>
<stop offset="0.973958" stop-color="#48ABDF"/>
</linearGradient>
<clipPath id="clip0_343_4606">
<rect width="51.9493" height="60" fill="white"/>
</clipPath>
</defs>
</svg>
