<svg width="60" height="60" viewBox="0 0 60 60" fill="none" xmlns="http://www.w3.org/2000/svg">
<g clip-path="url(#clip0_343_5239)">
<path d="M56.7224 25.3723C56.0017 25.3723 55.3231 25.6535 54.8134 26.1633L52.9712 28.0055L52.3056 27.3398C51.7958 26.8301 51.1185 26.5488 50.3966 26.5488C49.6747 26.5488 48.9974 26.8301 48.4888 27.3398C47.979 27.8496 47.6978 28.527 47.6978 29.2488C47.6978 29.9707 47.979 30.648 48.4888 31.1566L51.0634 33.7312C51.5896 34.2574 52.281 34.5199 52.9724 34.5199C53.6638 34.5199 54.354 34.2563 54.8813 33.7312L58.6313 29.9801C59.1411 29.4703 59.4224 28.793 59.4224 28.0711C59.4224 27.3492 59.1411 26.6719 58.6313 26.1621C58.1216 25.6523 57.4442 25.3711 56.7224 25.3711V25.3723ZM57.388 28.7367L53.638 32.4867C53.2712 32.8535 52.6735 32.8535 52.3067 32.4867L49.7321 29.9121C49.554 29.734 49.4567 29.4984 49.4567 29.2465C49.4567 28.9945 49.554 28.759 49.7321 28.5809C49.9103 28.4027 50.1458 28.3055 50.3978 28.3055C50.6497 28.3055 50.8853 28.4039 51.0634 28.5809L52.3501 29.8676C52.6935 30.2109 53.2501 30.2109 53.5935 29.8676L56.0567 27.4043C56.2349 27.2262 56.4704 27.1289 56.7224 27.1289C56.9743 27.1289 57.2099 27.2273 57.388 27.4043C57.5661 27.5824 57.6634 27.818 57.6634 28.0699C57.6634 28.3219 57.5661 28.5574 57.388 28.7355V28.7367Z" fill="url(#paint0_linear_343_5239)"/>
<path d="M26.6742 43.1354C26.823 43.433 27.1277 43.6217 27.4605 43.6217H31.3804C31.7132 43.6217 32.0179 43.433 32.1667 43.1354L33.2203 41.0271C33.6667 40.8736 34.1039 40.692 34.5292 40.4846L36.7652 41.2299C37.0816 41.3354 37.4296 41.2533 37.6652 41.0178L40.4367 38.2463C40.6722 38.0107 40.7542 37.6627 40.6488 37.3475L39.9035 35.1115C40.1109 34.6873 40.2925 34.249 40.446 33.8025L42.5542 32.749C42.8519 32.6002 43.0406 32.2955 43.0406 31.9627V28.0428C43.0406 27.71 42.8519 27.4053 42.5542 27.2564L40.446 26.2029C40.2925 25.7564 40.1109 25.3193 39.9035 24.8939L40.6488 22.658C40.7542 22.3428 40.6722 21.9936 40.4367 21.7592L37.6652 18.9877C37.4296 18.7521 37.0816 18.6701 36.7652 18.7756L34.5292 19.5209C34.105 19.3135 33.6667 19.1318 33.2203 18.9783L32.1667 16.8701C32.0179 16.5725 31.7132 16.3838 31.3804 16.3838H27.4605C27.1277 16.3838 26.823 16.5713 26.6742 16.8701L25.6207 18.9783C25.1742 19.1318 24.7371 19.3135 24.3117 19.5209L22.0757 18.7756C21.7605 18.6701 21.4113 18.7521 21.1769 18.9877L18.4054 21.7592C18.1699 21.9947 18.0878 22.3428 18.1933 22.658L18.9386 24.8939C18.7312 25.3182 18.5496 25.7564 18.396 26.2029L16.2878 27.2564C15.9902 27.4053 15.8015 27.71 15.8015 28.0428V31.9627C15.8015 32.2955 15.989 32.6002 16.2878 32.749L18.396 33.8025C18.5496 34.249 18.7312 34.6861 18.9386 35.1115L18.1933 37.3475C18.0878 37.6639 18.1699 38.0119 18.4054 38.2475L21.1769 41.0189C21.4125 41.2545 21.7605 41.3365 22.0757 41.2311L24.3117 40.4857C24.7359 40.6932 25.1742 40.8748 25.6207 41.0283L26.6742 43.1365V43.1354ZM24.1042 38.701L22.0347 39.3912L20.0308 37.3873L20.721 35.3178C20.7972 35.0893 20.7761 34.8408 20.6636 34.6287C20.3753 34.0838 20.1375 33.5096 19.9558 32.9213C19.8855 32.6916 19.7238 32.5018 19.5093 32.3939L17.5593 31.4189V28.5854L19.5093 27.6104C19.7238 27.5025 19.8855 27.3127 19.9558 27.083C20.1375 26.4947 20.3753 25.9205 20.6636 25.3756C20.7761 25.1635 20.796 24.9139 20.721 24.6865L20.0308 22.617L22.0347 20.6131L24.1042 21.3033C24.3328 21.3795 24.5812 21.3584 24.7933 21.2459C25.3382 20.9576 25.9125 20.7197 26.5007 20.5381C26.7304 20.4678 26.9203 20.3061 27.0281 20.0916L28.0031 18.1416H30.8367L31.8117 20.0916C31.9195 20.3061 32.1093 20.4678 32.339 20.5381C32.9273 20.7197 33.5015 20.9576 34.0464 21.2459C34.2585 21.3584 34.5082 21.3783 34.7355 21.3033L36.805 20.6131L38.8089 22.617L38.1187 24.6865C38.0425 24.9139 38.0636 25.1635 38.1761 25.3756C38.4644 25.9205 38.7023 26.4947 38.8839 27.083C38.9542 27.3127 39.116 27.5025 39.3304 27.6104L41.2804 28.5854V31.4189L39.3304 32.3939C39.116 32.5018 38.9542 32.6916 38.8839 32.9213C38.7023 33.5096 38.4644 34.0838 38.1761 34.6287C38.0636 34.8408 38.0425 35.0904 38.1187 35.3178L38.8089 37.3873L36.805 39.3912L34.7355 38.701C34.507 38.6248 34.2585 38.6459 34.0464 38.7584C33.5015 39.0467 32.9273 39.2846 32.339 39.4662C32.1093 39.5365 31.9195 39.6982 31.8117 39.9127L30.8367 41.8627H28.0031L27.0281 39.9127C26.9203 39.6982 26.7304 39.5365 26.5007 39.4662C25.9136 39.2857 25.3394 39.0467 24.7933 38.7584C24.5812 38.6459 24.3316 38.6248 24.1042 38.701Z" fill="url(#paint1_linear_343_5239)"/>
<path d="M35.7598 30.0013C35.7598 29.1376 35.5887 28.2997 35.2512 27.511C35.0602 27.0646 34.5446 26.8571 34.0981 27.0481C33.6516 27.2392 33.4442 27.756 33.6352 28.2013C33.8789 28.7708 34.002 29.3755 34.002 30.0013C34.002 32.5278 31.9465 34.5821 29.4211 34.5821C26.8957 34.5821 24.8403 32.5267 24.8403 30.0013C24.8403 27.4759 26.8957 25.4204 29.4211 25.4204C30.0375 25.4204 30.6352 25.5399 31.1977 25.7767C31.6453 25.9653 32.161 25.7544 32.3485 25.3079C32.536 24.8614 32.3262 24.3446 31.8797 24.1571C31.1004 23.829 30.2731 23.6626 29.4223 23.6626C25.9266 23.6626 23.0836 26.5067 23.0836 30.0013C23.0836 33.4958 25.9278 36.3399 29.4223 36.3399C32.9168 36.3399 35.761 33.4958 35.761 30.0013H35.7598Z" fill="url(#paint2_linear_343_5239)"/>
<path d="M59.121 2.98457H46.1308V1.75996C46.1308 1.1248 45.8015 0.555273 45.2507 0.237695C44.7 -0.0798828 44.0425 -0.0798828 43.4929 0.237695L36.7007 4.16348C36.1511 4.48105 35.8218 5.05059 35.823 5.68574C35.823 6.3209 36.1523 6.89043 36.7019 7.20801L43.4964 11.1291C43.7718 11.2873 44.073 11.367 44.3753 11.367C44.6777 11.367 44.98 11.2873 45.2543 11.1279C45.805 10.8104 46.1332 10.2408 46.1332 9.60567V8.38223H59.1222C59.6074 8.38223 60.0011 7.98848 60.0011 7.50332V3.86348C60.0011 3.37832 59.6074 2.98457 59.1222 2.98457H59.121ZM58.2421 6.62441H45.2531C44.7679 6.62441 44.3742 7.01816 44.3742 7.50332V9.60567L37.5796 5.68457L44.3718 1.75996V3.86348C44.3718 4.34863 44.7667 4.74238 45.2519 4.74238H58.2421V6.62441Z" fill="url(#paint3_linear_343_5239)"/>
<path d="M4.27739 23.2958C4.57621 23.4985 4.91723 23.6017 5.26176 23.6017C5.52192 23.6017 5.78442 23.5431 6.03051 23.4235L13.0911 20.004C13.6629 19.7274 14.0321 19.1837 14.0778 18.5497C14.1235 17.9157 13.8375 17.3239 13.3114 16.9677L12.4102 16.356C13.9688 14.5243 15.8122 12.954 17.9016 11.6802C20.57 10.0536 23.475 9.01299 26.543 8.58174C27.3258 9.22978 28.3289 9.62002 29.4223 9.62002C31.9137 9.62002 33.9411 7.59268 33.9411 5.10127C33.9411 2.60986 31.9137 0.58252 29.4223 0.58252C27.5707 0.58252 25.977 1.70166 25.2797 3.29893C21.8778 3.84619 18.6258 5.00986 15.6071 6.76533C15.1875 7.00908 15.0446 7.54697 15.2895 7.9665C15.4524 8.24658 15.7477 8.40361 16.05 8.40361C16.2 8.40361 16.3524 8.36494 16.4907 8.28408C19.1274 6.7501 21.9528 5.69775 24.9047 5.14697C24.9118 5.80674 25.0606 6.43369 25.3219 6.99736C22.3747 7.53408 19.5774 8.60049 16.9875 10.179C14.4446 11.7294 12.2391 13.6888 10.4309 16.0032C10.2809 16.1954 10.2176 16.4403 10.2551 16.6806C10.2926 16.9208 10.4286 17.1353 10.6301 17.2712L12.3258 18.422L5.26528 21.8415L5.83246 14.0169L7.6102 15.2228C7.99575 15.4841 8.5184 15.3997 8.80082 15.0306C10.0653 13.3817 11.5266 11.8841 13.1438 10.5821C13.5223 10.2774 13.5809 9.72432 13.2774 9.3458C12.9727 8.96729 12.4196 8.90752 12.0411 9.21221C10.5305 10.4286 9.14653 11.8044 7.92074 13.3091L6.81801 12.5614C6.29184 12.2052 5.63676 12.1571 5.06489 12.4349C4.49301 12.7114 4.12387 13.2552 4.07817 13.8892L3.51098 21.7138C3.46528 22.3478 3.75121 22.9384 4.27739 23.2958ZM29.4211 2.33916C30.9434 2.33916 32.1821 3.57783 32.1821 5.1001C32.1821 6.62236 30.9434 7.86104 29.4211 7.86104C27.8989 7.86104 26.6602 6.62236 26.6602 5.1001C26.6602 3.57783 27.8989 2.33916 29.4211 2.33916Z" fill="url(#paint4_linear_343_5239)"/>
<path d="M19.4227 46.3324C19.1461 45.7605 18.6023 45.3914 17.9684 45.3457C17.3332 45.3 16.7426 45.5859 16.3863 46.1121L15.7746 47.0133C13.943 45.4547 12.3727 43.6113 11.0988 41.5219C9.47227 38.8535 8.43164 35.9484 8.00039 32.8805C8.64844 32.0977 9.03867 31.0945 9.03867 30.0012C9.03867 27.5098 7.01133 25.4824 4.51992 25.4824C2.02852 25.4824 0 27.5098 0 30.0012C0 31.8527 1.11914 33.4465 2.71641 34.1437C3.29531 37.7449 4.56211 41.1691 6.48867 44.3309C7.12852 45.3809 7.8375 46.3922 8.59688 47.3379C8.77031 47.5547 9.02578 47.6672 9.28242 47.6672C9.47578 47.6672 9.66914 47.6039 9.83203 47.4738C10.2105 47.1703 10.2715 46.6172 9.96797 46.2387C9.25547 45.3516 8.59102 44.4012 7.98984 43.4168C6.29883 40.6441 5.15039 37.6559 4.56562 34.5199C5.22539 34.5129 5.85234 34.3641 6.41602 34.1027C6.95273 37.05 8.01914 39.8473 9.59766 42.4371C11.148 44.9801 13.1074 47.1867 15.4219 48.9937C15.6141 49.1437 15.859 49.207 16.0992 49.1695C16.3395 49.132 16.5539 48.9961 16.6898 48.7945L17.8406 47.0988L21.2602 54.1594L13.4355 53.5922L14.6414 51.8145C14.9027 51.4289 14.8184 50.9074 14.4492 50.6238C13.8246 50.1457 13.2164 49.6336 12.641 49.1039C12.2836 48.7746 11.7281 48.798 11.3988 49.1555C11.0695 49.5129 11.093 50.0684 11.4504 50.3977C11.8629 50.7773 12.2906 51.1477 12.7289 51.5051L11.9812 52.6078C11.625 53.134 11.577 53.7891 11.8535 54.3609C12.1301 54.9328 12.6738 55.302 13.3078 55.3477L21.1324 55.9148C21.177 55.9184 21.2203 55.9195 21.2637 55.9195C21.8473 55.9195 22.3816 55.6371 22.7133 55.1484C23.0695 54.6223 23.1176 53.9672 22.841 53.3953L19.4215 46.3348L19.4227 46.3324ZM1.75781 30.0012C1.75781 28.4789 2.99648 27.2402 4.51875 27.2402C6.04102 27.2402 7.27969 28.4789 7.27969 30.0012C7.27969 31.5234 6.04102 32.7621 4.51875 32.7621C2.99648 32.7621 1.75781 31.5234 1.75781 30.0012Z" fill="url(#paint5_linear_343_5239)"/>
<path d="M54.5648 36.7079C54.0386 36.3516 53.3835 36.3036 52.8117 36.5813L45.7511 40.0008C45.1792 40.2774 44.8101 40.8212 44.7644 41.4551C44.7187 42.0891 45.0046 42.6809 45.5308 43.0372L46.432 43.6489C44.8734 45.4805 43.03 47.0508 40.9406 48.3247C38.2722 49.9512 35.3671 50.9919 32.2992 51.4243C31.5164 50.7762 30.5132 50.386 29.4199 50.386C26.9285 50.386 24.9011 52.4133 24.9011 54.9047C24.9011 57.3962 26.9285 59.4235 29.4199 59.4235C31.2714 59.4235 32.8652 58.3044 33.5624 56.7071C37.1636 56.1282 40.589 54.8614 43.7496 52.9337C46.5035 51.2544 48.9117 49.1579 50.9203 46.6946L52.023 47.4422C52.5492 47.7985 53.2042 47.8465 53.7761 47.5688C54.348 47.2922 54.7171 46.7485 54.7628 46.1145L55.33 38.2899C55.3757 37.6559 55.0898 37.0641 54.5636 36.7079H54.5648ZM29.421 57.6645C27.8988 57.6645 26.6601 56.4258 26.6601 54.9036C26.6601 53.3813 27.8988 52.1426 29.421 52.1426C30.9433 52.1426 32.182 53.3813 32.182 54.9036C32.182 56.4258 30.9433 57.6645 29.421 57.6645ZM53.0109 45.9868L51.2332 44.7809C50.8476 44.5196 50.3261 44.604 50.0425 44.9731C48.0691 47.5477 45.6445 49.7204 42.8367 51.4325C40.064 53.1235 37.0757 54.2719 33.9398 54.8567C33.9328 54.1969 33.7839 53.57 33.5226 53.0063C36.4699 52.4696 39.2671 51.4032 41.857 49.8247C44.4 48.2743 46.6054 46.3149 48.4136 44.0005C48.5636 43.8083 48.6269 43.5633 48.5894 43.3231C48.5519 43.0829 48.416 42.8684 48.2144 42.7325L46.5187 41.5817L53.5792 38.1622L53.0121 45.9868H53.0109Z" fill="url(#paint6_linear_343_5239)"/>
</g>
<defs>
<linearGradient id="paint0_linear_343_5239" x1="47.6978" y1="29.9455" x2="59.4224" y2="29.9455" gradientUnits="userSpaceOnUse">
<stop stop-color="#223962"/>
<stop offset="0.526042" stop-color="#3277BC"/>
<stop offset="0.973958" stop-color="#48ABDF"/>
</linearGradient>
<linearGradient id="paint1_linear_343_5239" x1="15.8015" y1="30.0027" x2="43.0406" y2="30.0027" gradientUnits="userSpaceOnUse">
<stop stop-color="#223962"/>
<stop offset="0.526042" stop-color="#3277BC"/>
<stop offset="0.973958" stop-color="#48ABDF"/>
</linearGradient>
<linearGradient id="paint2_linear_343_5239" x1="23.0836" y1="30.0013" x2="35.761" y2="30.0013" gradientUnits="userSpaceOnUse">
<stop stop-color="#223962"/>
<stop offset="0.526042" stop-color="#3277BC"/>
<stop offset="0.973958" stop-color="#48ABDF"/>
</linearGradient>
<linearGradient id="paint3_linear_343_5239" x1="35.823" y1="5.68326" x2="60.0011" y2="5.68326" gradientUnits="userSpaceOnUse">
<stop stop-color="#223962"/>
<stop offset="0.526042" stop-color="#3277BC"/>
<stop offset="0.973958" stop-color="#48ABDF"/>
</linearGradient>
<linearGradient id="paint4_linear_343_5239" x1="3.50623" y1="12.0921" x2="33.9411" y2="12.0921" gradientUnits="userSpaceOnUse">
<stop stop-color="#223962"/>
<stop offset="0.526042" stop-color="#3277BC"/>
<stop offset="0.973958" stop-color="#48ABDF"/>
</linearGradient>
<linearGradient id="paint5_linear_343_5239" x1="-8.57525e-08" y1="40.701" x2="23.019" y2="40.701" gradientUnits="userSpaceOnUse">
<stop stop-color="#223962"/>
<stop offset="0.526042" stop-color="#3277BC"/>
<stop offset="0.973958" stop-color="#48ABDF"/>
</linearGradient>
<linearGradient id="paint6_linear_343_5239" x1="24.9011" y1="47.9129" x2="55.3348" y2="47.9129" gradientUnits="userSpaceOnUse">
<stop stop-color="#223962"/>
<stop offset="0.526042" stop-color="#3277BC"/>
<stop offset="0.973958" stop-color="#48ABDF"/>
</linearGradient>
<clipPath id="clip0_343_5239">
<rect width="60" height="59.4223" fill="white"/>
</clipPath>
</defs>
</svg>
