<svg width="60" height="60" viewBox="0 0 60 60" fill="none" xmlns="http://www.w3.org/2000/svg">
<g clip-path="url(#clip0_343_4799)">
<path d="M58.0031 23.3545C57.5332 23.2373 57.0551 23.5232 56.9379 23.9943C56.8207 24.4654 57.1066 24.9424 57.5777 25.0596C57.9691 25.158 58.2434 25.5084 58.2434 25.9127V34.0877C58.2434 34.492 57.9691 34.8424 57.5777 34.9408L52.3664 36.2439C52.0699 36.3178 51.8332 36.5416 51.7406 36.8334C51.341 38.1072 50.8242 39.3541 50.2043 40.54C50.0625 40.8119 50.0719 41.1365 50.2289 41.399L52.9934 46.0068C53.2008 46.3537 53.1469 46.7943 52.8609 47.0803L47.0801 52.8611C46.7941 53.1471 46.3535 53.201 46.0066 52.9936L41.3988 50.2291C41.1363 50.0721 40.8105 50.0615 40.5398 50.2045C39.3539 50.8244 38.107 51.3412 36.8332 51.7408C36.5414 51.8322 36.3176 52.0689 36.2438 52.3666L34.9406 57.5779C34.8422 57.9693 34.4918 58.2436 34.0875 58.2436H25.9125C25.5082 58.2436 25.1578 57.9693 25.0594 57.5779L23.7563 52.3666C23.6824 52.0701 23.4586 51.8334 23.1668 51.7408C21.893 51.3412 20.6461 50.8244 19.4602 50.2045C19.1895 50.0627 18.8637 50.0721 18.6012 50.2291L13.9934 52.9936C13.6465 53.201 13.2047 53.1471 12.9199 52.8611L7.13906 47.0803C6.85312 46.7943 6.79922 46.3525 7.00664 46.0068L9.77109 41.399C9.92812 41.1365 9.93867 40.8107 9.79688 40.54C9.17695 39.3541 8.66016 38.1072 8.26055 36.8334C8.16914 36.5416 7.93242 36.3178 7.63477 36.2439L2.42344 34.9408C2.03203 34.8424 1.75781 34.492 1.75781 34.0877V25.9127C1.75781 25.5084 2.03203 25.158 2.42344 25.0596L7.63477 23.7564C7.93125 23.6826 8.16797 23.4588 8.26055 23.167C8.66016 21.8932 9.17695 20.6463 9.79688 19.4604C9.93867 19.1896 9.9293 18.8639 9.77109 18.6014L7.00664 13.9936C6.79922 13.6467 6.85312 13.2061 7.13906 12.9201L12.9199 7.13926C13.2059 6.85332 13.6477 6.79941 13.9934 7.00684L18.6012 9.77129C18.8637 9.92832 19.1895 9.9377 19.4602 9.79707C20.6461 9.17715 21.893 8.66035 23.1668 8.26074C23.4586 8.16934 23.6824 7.93262 23.7563 7.63496L25.0594 2.42363C25.1578 2.03223 25.5082 1.75801 25.9125 1.75801H34.0875C34.4918 1.75801 34.8422 2.03223 34.9406 2.42363L36.2438 7.63496C36.3176 7.93145 36.5414 8.16816 36.8332 8.26074C38.107 8.66035 39.3539 9.17715 40.5398 9.79707C40.8117 9.93887 41.1363 9.92949 41.3988 9.77129L46.0066 7.00684C46.3535 6.79941 46.7953 6.85332 47.0801 7.13926L52.8609 12.9201C53.1469 13.2061 53.2008 13.6479 52.9934 13.9936L50.2289 18.6014C50.0719 18.8639 50.0625 19.1896 50.2043 19.4604C50.8242 20.6463 51.341 21.8932 51.7406 23.167C51.832 23.4588 52.0687 23.6826 52.3664 23.7564L53.6297 24.0717C54.0996 24.1889 54.5777 23.9029 54.6949 23.4318C54.8121 22.9607 54.5262 22.4838 54.0551 22.3666L53.2641 22.1686C52.9102 21.1162 52.4813 20.0838 51.9867 19.0877L54.5004 14.8971C55.1238 13.8576 54.9609 12.5334 54.1043 11.6756L48.3234 5.89473C47.4668 5.03809 46.1414 4.87402 45.102 5.49863L40.9113 8.01231C39.9152 7.51777 38.8828 7.08887 37.8305 6.73496L36.6457 1.9959C36.3516 0.819336 35.3004 -0.000976562 34.0875 -0.000976562H25.9125C24.7008 -0.000976562 23.6484 0.820508 23.3543 1.9959L22.1695 6.73496C21.1172 7.08887 20.0848 7.51777 19.0887 8.01231L14.898 5.49863C13.8586 4.8752 12.5344 5.03809 11.6766 5.89473L5.8957 11.6756C5.03906 12.5322 4.875 13.8576 5.49961 14.8971L8.01328 19.0877C7.51875 20.0838 7.08984 21.1162 6.73594 22.1686L1.99688 23.3533C0.821485 23.6475 0 24.6986 0 25.9115V34.0865C0 35.2982 0.821485 36.3506 1.99688 36.6447L6.73594 37.8295C7.08984 38.8818 7.51875 39.9143 8.01328 40.9104L5.49961 45.101C4.87617 46.1404 5.03906 47.4646 5.8957 48.3225L11.6766 54.1033C12.5332 54.9611 13.8586 55.1229 14.898 54.4994L19.0887 51.9857C20.0848 52.4803 21.1172 52.9092 22.1695 53.2631L23.3543 58.0022C23.6484 59.1787 24.6996 59.999 25.9125 59.999H34.0875C35.2992 59.999 36.3516 59.1775 36.6457 58.0022L37.8305 53.2631C38.8828 52.9092 39.9152 52.4803 40.9113 51.9857L45.102 54.4994C46.1414 55.1229 47.4656 54.96 48.3234 54.1033L54.1043 48.3225C54.9609 47.4658 55.125 46.1404 54.5004 45.101L51.9867 40.9104C52.4813 39.9143 52.9102 38.8818 53.2641 37.8295L58.0031 36.6447C59.1797 36.3506 60 35.2994 60 34.0865V25.9115C60 24.6998 59.1785 23.6475 58.0031 23.3533V23.3545Z" fill="url(#paint0_linear_343_4799)"/>
<path d="M53.3414 33.9958C53.38 34.0004 53.4187 34.004 53.4574 34.004C53.8921 34.004 54.2695 33.6817 54.3281 33.2399C54.4687 32.1735 54.5402 31.0836 54.5402 30.0008C54.5402 28.918 54.4687 27.8282 54.3281 26.7618C54.2648 26.2801 53.823 25.9415 53.3414 26.0059C52.8597 26.0692 52.5211 26.511 52.5855 26.9926C52.7168 27.9829 52.7824 28.9954 52.7824 30.002C52.7824 31.0086 52.7156 32.0211 52.5855 33.0114C52.5222 33.493 52.8609 33.9348 53.3414 33.9981V33.9958Z" fill="url(#paint1_linear_343_4799)"/>
<path d="M44.3765 49.6735C44.5629 49.6735 44.7504 49.6149 44.9098 49.4919C46.6312 48.1723 48.1734 46.6313 49.4918 44.9098C49.7871 44.5243 49.7133 43.9723 49.3289 43.6782C48.9433 43.3829 48.3914 43.4567 48.0973 43.8411C46.8726 45.4395 45.4406 46.8716 43.8422 48.0962C43.4566 48.3915 43.384 48.9434 43.6793 49.3278C43.8527 49.554 44.114 49.6723 44.3777 49.6723L44.3765 49.6735Z" fill="url(#paint2_linear_343_4799)"/>
<path d="M26.0039 53.3418C25.9407 53.8234 26.2793 54.2652 26.7598 54.3285C27.8262 54.4691 28.9161 54.5406 29.9989 54.5406C31.0817 54.5406 32.1703 54.4691 33.2379 54.3285C33.7196 54.2652 34.0582 53.8234 33.995 53.3418C33.9317 52.8601 33.4887 52.5226 33.0082 52.5848C31.0231 52.8461 28.9688 52.8461 26.9895 52.5848C26.509 52.5215 26.0661 52.8601 26.0028 53.3406L26.0039 53.3418Z" fill="url(#paint3_linear_343_4799)"/>
<path d="M15.0903 49.492C15.2496 49.6139 15.4371 49.6737 15.6246 49.6737C15.8883 49.6737 16.1496 49.5553 16.3231 49.3291C16.6184 48.9436 16.5457 48.3916 16.1602 48.0975C14.5618 46.8729 13.1297 45.4409 11.9051 43.8424C11.6098 43.4569 11.0578 43.3842 10.6735 43.6795C10.2879 43.9748 10.2153 44.5268 10.5106 44.9123C11.8301 46.6338 13.3711 48.176 15.0926 49.4944L15.0903 49.492Z" fill="url(#paint4_linear_343_4799)"/>
<path d="M6.65854 26.0037C6.17808 25.9404 5.73628 26.2791 5.67183 26.7596C5.5312 27.826 5.45972 28.9158 5.45972 29.9986C5.45972 31.0814 5.5312 32.1713 5.67183 33.2377C5.73042 33.6795 6.10776 34.0017 6.54253 34.0017C6.5812 34.0017 6.61987 33.9994 6.65854 33.9935C7.14019 33.9303 7.47886 33.4885 7.4144 33.0068C7.28433 32.0166 7.21753 31.0041 7.21753 29.9974C7.21753 28.9908 7.28433 27.9783 7.4144 26.9881C7.47769 26.5064 7.13901 26.0658 6.65854 26.0014V26.0037Z" fill="url(#paint5_linear_343_4799)"/>
<path d="M11.2042 16.5039C11.4679 16.5039 11.7292 16.3856 11.9026 16.1594C13.1272 14.561 14.5593 13.1289 16.1577 11.9032C16.5432 11.6078 16.6159 11.0559 16.3206 10.6715C16.0253 10.286 15.4733 10.2133 15.089 10.5086C13.3675 11.8282 11.8253 13.3692 10.5069 15.0907C10.2116 15.4762 10.2843 16.0282 10.6698 16.3235C10.8292 16.4453 11.0167 16.5051 11.2042 16.5051V16.5039Z" fill="url(#paint6_linear_343_4799)"/>
<path d="M26.9905 7.41445C28.971 7.15312 31.0288 7.15312 33.0093 7.41445C33.048 7.41914 33.0866 7.42266 33.1253 7.42266C33.5601 7.42266 33.9374 7.10039 33.996 6.65859C34.0593 6.17695 33.7206 5.73633 33.2401 5.67188C31.1073 5.39062 28.8948 5.39062 26.762 5.67188C26.2804 5.73516 25.9417 6.17695 26.0062 6.65859C26.0706 7.14023 26.5101 7.47891 26.9929 7.41445H26.9905Z" fill="url(#paint7_linear_343_4799)"/>
<path d="M48.0973 16.1591C48.2708 16.3852 48.5321 16.5036 48.7958 16.5036C48.9821 16.5036 49.1696 16.445 49.329 16.3219C49.7145 16.0266 49.7872 15.4747 49.4919 15.0903C48.1735 13.3688 46.6313 11.8266 44.9098 10.5083C44.5243 10.213 43.9723 10.2868 43.6782 10.6712C43.3829 11.0567 43.4567 11.6087 43.8411 11.904C45.4395 13.1286 46.8716 14.5606 48.0962 16.1591H48.0973Z" fill="url(#paint8_linear_343_4799)"/>
<path d="M30.8121 29.6637C30.7898 29.6109 30.7629 29.5594 30.7312 29.5125C30.6984 29.4645 30.6621 29.4188 30.6211 29.3789C30.5812 29.3379 30.5355 29.3016 30.4875 29.2688C30.4406 29.2371 30.3891 29.2102 30.3363 29.1879C30.2836 29.1668 30.2273 29.1492 30.1723 29.1387C30.0586 29.1152 29.9414 29.1152 29.8277 29.1387C29.7727 29.1492 29.7164 29.1668 29.6637 29.1879C29.6109 29.2102 29.5594 29.2371 29.5125 29.2688C29.4645 29.3016 29.4187 29.3379 29.3789 29.3789C29.3379 29.4188 29.3016 29.4645 29.2687 29.5125C29.2371 29.5594 29.2102 29.6109 29.1879 29.6637C29.1668 29.7164 29.1492 29.7727 29.1387 29.8277C29.127 29.8852 29.1211 29.9426 29.1211 30C29.1211 30.0574 29.127 30.1148 29.1387 30.1723C29.1492 30.2273 29.1668 30.2836 29.1879 30.3363C29.2102 30.3891 29.2371 30.4406 29.2687 30.4875C29.3016 30.5355 29.3379 30.5812 29.3789 30.6211C29.4187 30.6621 29.4645 30.6984 29.5125 30.7312C29.5594 30.7629 29.6109 30.7898 29.6637 30.8121C29.7164 30.8332 29.7727 30.8508 29.8277 30.8613C29.8852 30.873 29.9426 30.8789 30 30.8789C30.0574 30.8789 30.1148 30.873 30.1723 30.8613C30.2273 30.8508 30.2836 30.8332 30.3363 30.8121C30.3891 30.7898 30.4406 30.7629 30.4875 30.7312C30.5355 30.6984 30.5812 30.6621 30.6211 30.6211C30.6621 30.5812 30.6984 30.5355 30.7312 30.4875C30.7629 30.4406 30.7898 30.3891 30.8121 30.3363C30.8332 30.2836 30.8508 30.2273 30.8613 30.1723C30.873 30.1148 30.8789 30.0574 30.8789 30C30.8789 29.9426 30.873 29.8852 30.8613 29.8277C30.8508 29.7727 30.8332 29.7164 30.8121 29.6637Z" fill="url(#paint9_linear_343_4799)"/>
<path d="M31.8199 38.1582C32.3051 38.1582 32.6988 37.7645 32.6988 37.2793C32.6988 36.7941 32.3051 36.4004 31.8199 36.4004H30C29.5148 36.4004 29.1211 36.7941 29.1211 37.2793V43.6813H29.0895C27.6012 43.6813 26.3906 44.8918 26.3906 46.3801C26.3906 47.8684 27.6012 49.0789 29.0895 49.0789H30.9094C32.3977 49.0789 33.6082 47.8684 33.6082 46.3801C33.6082 44.8918 32.3977 43.6813 30.9094 43.6813H30.8777V41.7992H31.8187C32.3039 41.7992 32.6977 41.4055 32.6977 40.9203C32.6977 40.4352 32.3039 40.0414 31.8187 40.0414H30.8777V38.1594H31.8187L31.8199 38.1582ZM31.8516 46.3801C31.8516 46.8992 31.4297 47.3211 30.9105 47.3211H29.0906C28.5715 47.3211 28.1496 46.8992 28.1496 46.3801C28.1496 45.8609 28.5715 45.4391 29.0906 45.4391H30.9105C31.4297 45.4391 31.8516 45.8609 31.8516 46.3801Z" fill="url(#paint10_linear_343_4799)"/>
<path d="M40.5867 35.2156C40.8011 34.7809 40.623 34.2535 40.1882 34.0391C39.7535 33.8246 39.2261 34.0027 39.0105 34.4375C38.823 34.8184 38.6085 35.1898 38.3742 35.5437C37.4332 36.9617 37.6277 38.8695 38.8371 40.0789C39.5191 40.7609 40.432 41.1359 41.3847 41.1359C41.5066 41.1359 41.6285 41.1301 41.7503 41.1172C42.8343 41.0082 43.8 40.4246 44.4011 39.5164C46.2714 36.6922 47.2605 33.4004 47.2605 29.9996C47.2605 25.3941 45.4675 21.0617 42.2132 17.8027C42.2109 17.8004 42.2097 17.7992 42.2074 17.7969C42.2003 17.7898 42.1945 17.784 42.1886 17.7793C38.9308 14.5297 34.6031 12.7402 30.0011 12.7402C27.914 12.7402 25.8738 13.1094 23.9367 13.8359C23.482 14.007 23.2523 14.5133 23.4222 14.968C23.5933 15.4227 24.0996 15.6523 24.5542 15.4824C26.2933 14.8297 28.125 14.4992 30.0011 14.4992C33.2648 14.4992 36.375 15.5023 38.98 17.3609C38.755 17.4852 38.5441 17.6422 38.3531 17.8332L36.2156 19.9707C34.3523 18.8129 32.2195 18.2023 30.0023 18.2023C27.1453 18.2023 24.4441 19.2113 22.3031 21.0594L19.6828 18.4391C20.1152 18.0523 20.5675 17.6879 21.0386 17.3539C21.4347 17.0727 21.5273 16.5242 21.246 16.1281C20.9648 15.732 20.4164 15.6395 20.0203 15.9207C19.2304 16.4809 18.4828 17.1125 17.7972 17.798C14.5382 21.0582 12.7429 25.3918 12.7429 30.002C12.7429 33.4039 13.732 36.6945 15.6023 39.5188C16.2035 40.427 17.1703 41.0105 18.2531 41.1195C18.375 41.1313 18.4968 41.1383 18.6187 41.1383C19.5714 41.1383 20.4843 40.7633 21.1664 40.0812C22.3757 38.8719 22.5703 36.9652 21.6292 35.5461C20.5382 33.902 19.9617 31.9848 19.9617 30.002C19.9617 27.3195 21.0058 24.7977 22.9031 22.9016C24.7992 21.0055 27.321 19.9602 30.0035 19.9602C31.7507 19.9602 33.4359 20.4055 34.9347 21.2539L30.9527 25.2359C30.7746 25.4141 30.5355 25.5078 30.3035 25.4926C30.1816 25.4844 30.0585 25.4809 29.9367 25.4832C28.7343 25.5008 27.6058 25.9918 26.7609 26.8672C25.9148 27.7426 25.4625 28.8875 25.4859 30.0922C25.5339 32.5297 27.4804 34.475 29.9191 34.5207C29.9472 34.5207 29.9753 34.5207 30.0046 34.5207C31.1765 34.5207 32.2886 34.0684 33.1418 33.2422C34.016 32.3973 34.5058 31.2687 34.5234 30.0676C34.5257 29.948 34.5222 29.825 34.514 29.702C34.4988 29.4676 34.5925 29.2309 34.7707 29.0516L38.7527 25.0695C39.6011 26.5684 40.0464 28.2535 40.0464 30.0008C40.0464 30.2457 40.0371 30.4918 40.0207 30.7332C39.9855 31.2172 40.35 31.6379 40.8339 31.673C40.855 31.6742 40.8773 31.6754 40.8984 31.6754C41.3554 31.6754 41.741 31.3227 41.7738 30.8598C41.7937 30.5762 41.8043 30.2867 41.8043 30.0008C41.8043 27.7836 41.1937 25.6508 40.0359 23.7875L42.2097 21.6137C42.3843 21.4391 42.532 21.2422 42.6503 21.0301C44.5054 23.634 45.5062 26.7406 45.5062 30.0008C45.5062 33.0559 44.6191 36.0113 42.9398 38.5473C42.6304 39.0137 42.1347 39.3137 41.5781 39.3699C41.0226 39.425 40.4789 39.2316 40.0839 38.8367C39.464 38.2168 39.3621 37.2406 39.8425 36.5164C40.1179 36.1004 40.3699 35.6633 40.5914 35.2168L40.5867 35.2156ZM18.2015 29.9996C18.2015 32.3293 18.88 34.5828 20.1621 36.5164C20.6425 37.2406 20.5417 38.2168 19.9207 38.8367C19.5257 39.2316 18.982 39.4262 18.4265 39.3699C17.8699 39.3137 17.3742 39.0137 17.0648 38.5473C15.3855 36.0113 14.4984 33.0559 14.4984 30.0008C14.4984 26.1547 15.8894 22.5219 18.4347 19.6777L21.0585 22.3016C19.2105 24.4426 18.2015 27.1438 18.2015 30.0008V29.9996ZM40.9617 20.3691L33.5238 27.807C32.9871 28.3437 32.707 29.075 32.7562 29.8145C32.7609 29.8895 32.7632 29.9656 32.7621 30.0395C32.7515 30.7707 32.4515 31.4586 31.916 31.9766C31.3804 32.4957 30.6796 32.7758 29.9484 32.7594C28.4589 32.7312 27.2695 31.543 27.2402 30.0547C27.2261 29.3211 27.5039 28.6227 28.0218 28.0859C28.5398 27.5504 29.2277 27.2492 29.9589 27.2387C29.973 27.2387 29.9871 27.2387 30 27.2387C30.0609 27.2387 30.123 27.241 30.1839 27.2445C30.9222 27.2926 31.6546 27.0137 32.1914 26.477L39.5929 19.0754C39.9632 18.7051 40.5609 18.6746 40.9265 19.0074C41.1199 19.1832 41.23 19.4234 41.2359 19.6824C41.2418 19.9426 41.1445 20.1863 40.9605 20.3703L40.9617 20.3691Z" fill="url(#paint11_linear_343_4799)"/>
</g>
<defs>
<linearGradient id="paint0_linear_343_4799" x1="-2.23517e-07" y1="29.999" x2="60" y2="29.999" gradientUnits="userSpaceOnUse">
<stop stop-color="#223962"/>
<stop offset="0.526042" stop-color="#3277BC"/>
<stop offset="0.973958" stop-color="#48ABDF"/>
</linearGradient>
<linearGradient id="paint1_linear_343_4799" x1="52.5776" y1="30.001" x2="54.5402" y2="30.001" gradientUnits="userSpaceOnUse">
<stop stop-color="#223962"/>
<stop offset="0.526042" stop-color="#3277BC"/>
<stop offset="0.973958" stop-color="#48ABDF"/>
</linearGradient>
<linearGradient id="paint2_linear_343_4799" x1="43.4978" y1="46.5853" x2="49.6729" y2="46.5853" gradientUnits="userSpaceOnUse">
<stop stop-color="#223962"/>
<stop offset="0.526042" stop-color="#3277BC"/>
<stop offset="0.973958" stop-color="#48ABDF"/>
</linearGradient>
<linearGradient id="paint3_linear_343_4799" x1="25.9963" y1="53.5589" x2="34.0026" y2="53.5589" gradientUnits="userSpaceOnUse">
<stop stop-color="#223962"/>
<stop offset="0.526042" stop-color="#3277BC"/>
<stop offset="0.973958" stop-color="#48ABDF"/>
</linearGradient>
<linearGradient id="paint4_linear_343_4799" x1="10.3291" y1="46.5859" x2="16.5046" y2="46.5859" gradientUnits="userSpaceOnUse">
<stop stop-color="#223962"/>
<stop offset="0.526042" stop-color="#3277BC"/>
<stop offset="0.973958" stop-color="#48ABDF"/>
</linearGradient>
<linearGradient id="paint5_linear_343_4799" x1="5.45972" y1="29.9989" x2="7.42227" y2="29.9989" gradientUnits="userSpaceOnUse">
<stop stop-color="#223962"/>
<stop offset="0.526042" stop-color="#3277BC"/>
<stop offset="0.973958" stop-color="#48ABDF"/>
</linearGradient>
<linearGradient id="paint6_linear_343_4799" x1="10.3254" y1="13.4161" x2="16.5021" y2="13.4161" gradientUnits="userSpaceOnUse">
<stop stop-color="#223962"/>
<stop offset="0.526042" stop-color="#3277BC"/>
<stop offset="0.973958" stop-color="#48ABDF"/>
</linearGradient>
<linearGradient id="paint7_linear_343_4799" x1="25.9983" y1="6.4418" x2="34.0036" y2="6.4418" gradientUnits="userSpaceOnUse">
<stop stop-color="#223962"/>
<stop offset="0.526042" stop-color="#3277BC"/>
<stop offset="0.973958" stop-color="#48ABDF"/>
</linearGradient>
<linearGradient id="paint8_linear_343_4799" x1="43.4971" y1="13.4154" x2="49.6734" y2="13.4154" gradientUnits="userSpaceOnUse">
<stop stop-color="#223962"/>
<stop offset="0.526042" stop-color="#3277BC"/>
<stop offset="0.973958" stop-color="#48ABDF"/>
</linearGradient>
<linearGradient id="paint9_linear_343_4799" x1="29.1211" y1="30" x2="30.8789" y2="30" gradientUnits="userSpaceOnUse">
<stop stop-color="#223962"/>
<stop offset="0.526042" stop-color="#3277BC"/>
<stop offset="0.973958" stop-color="#48ABDF"/>
</linearGradient>
<linearGradient id="paint10_linear_343_4799" x1="26.3906" y1="42.7397" x2="33.6082" y2="42.7397" gradientUnits="userSpaceOnUse">
<stop stop-color="#223962"/>
<stop offset="0.526042" stop-color="#3277BC"/>
<stop offset="0.973958" stop-color="#48ABDF"/>
</linearGradient>
<linearGradient id="paint11_linear_343_4799" x1="12.7429" y1="26.9393" x2="47.2605" y2="26.9393" gradientUnits="userSpaceOnUse">
<stop stop-color="#223962"/>
<stop offset="0.526042" stop-color="#3277BC"/>
<stop offset="0.973958" stop-color="#48ABDF"/>
</linearGradient>
<clipPath id="clip0_343_4799">
<rect width="60" height="60" fill="white"/>
</clipPath>
</defs>
</svg>
