<svg width="60" height="56" viewBox="0 0 60 56" fill="none" xmlns="http://www.w3.org/2000/svg">
<g clip-path="url(#clip0_390_5486)">
<path d="M29.9995 27.2424C29.5592 27.2424 29.1426 27.347 28.7735 27.5307L24.9845 23.7418C24.6409 23.3981 24.0845 23.399 23.7417 23.7418C23.3981 24.0854 23.3981 24.6418 23.7417 24.9845L27.5307 28.7735C27.3461 29.1435 27.2424 29.5592 27.2424 29.9996C27.2424 31.5201 28.4799 32.7576 30.0004 32.7576C31.2133 32.7576 32.246 31.9692 32.6134 30.8785H39.3941C39.8793 30.8785 40.273 30.4847 40.273 29.9996C40.273 29.5144 39.8793 29.1207 39.3941 29.1207H32.6134C32.2451 28.0299 31.2133 27.2416 30.0004 27.2416L29.9995 27.2424ZM29.9995 30.9998C29.4485 30.9998 28.9993 30.5515 28.9993 29.9996C28.9993 29.4476 29.4476 28.9994 29.9995 28.9994C30.5515 28.9994 30.9997 29.4476 30.9997 29.9996C30.9997 30.5515 30.5515 30.9998 29.9995 30.9998Z" fill="url(#paint0_linear_390_5486)"/>
<path d="M17.7626 29.1654C17.9586 26.207 19.2225 23.4209 21.3222 21.3221C23.4219 19.2224 26.2071 17.9585 29.1655 17.7625C32.0949 17.5683 34.9979 18.4279 37.3384 20.1813C37.7269 20.4722 38.278 20.3931 38.5689 20.0046C38.8598 19.6161 38.7807 19.0651 38.3922 18.7741C35.716 16.7694 32.3972 15.7868 29.0495 16.0082C25.6657 16.2324 22.4797 17.6773 20.0794 20.0784C17.6783 22.4796 16.2334 25.6647 16.0092 29.0485C15.7878 32.3971 16.7695 35.715 18.7751 38.3912C18.9474 38.6215 19.212 38.7437 19.4791 38.7437C19.6628 38.7437 19.8474 38.6865 20.0056 38.5679C20.3941 38.277 20.4732 37.7259 20.1823 37.3374C18.4289 34.9969 17.5702 32.0939 17.7635 29.1645L17.7626 29.1654Z" fill="url(#paint1_linear_390_5486)"/>
<path d="M30.8784 21.5455V20.606C30.8784 20.1208 30.4847 19.7271 29.9995 19.7271C29.5144 19.7271 29.1206 20.1208 29.1206 20.606V21.5455C29.1206 22.0307 29.5144 22.4244 29.9995 22.4244C30.4847 22.4244 30.8784 22.0307 30.8784 21.5455Z" fill="url(#paint2_linear_390_5486)"/>
<path d="M29.9995 37.5757C29.5144 37.5757 29.1206 37.9694 29.1206 38.4546V39.3941C29.1206 39.8793 29.5144 40.273 29.9995 40.273C30.4847 40.273 30.8784 39.8793 30.8784 39.3941V38.4546C30.8784 37.9694 30.4847 37.5757 29.9995 37.5757Z" fill="url(#paint3_linear_390_5486)"/>
<path d="M22.4243 29.9995C22.4243 29.5144 22.0305 29.1206 21.5454 29.1206H20.6058C20.1207 29.1206 19.7269 29.5144 19.7269 29.9995C19.7269 30.4847 20.1207 30.8784 20.6058 30.8784H21.5454C22.0305 30.8784 22.4243 30.4847 22.4243 29.9995Z" fill="url(#paint4_linear_390_5486)"/>
<path d="M32.8182 10.2119H53.4847C54.0358 10.2119 54.4849 10.6601 54.4849 11.2121V12.2149C54.4647 12.2132 54.4445 12.2123 54.4243 12.2123H42.2119C41.7268 12.2123 41.333 12.606 41.333 13.0912C41.333 13.5763 41.7268 13.9701 42.2119 13.9701H54.4243C54.4445 13.9701 54.4647 13.9683 54.4849 13.9675V26.2431C54.4849 26.7941 54.0367 27.2433 53.4847 27.2433H50.667C50.1818 27.2433 49.7881 27.637 49.7881 28.1222C49.7881 28.6073 50.1818 29.0011 50.667 29.0011H53.4847C55.0052 29.0011 56.2427 27.7636 56.2427 26.2431V11.2121C56.2427 9.6916 55.0052 8.4541 53.4847 8.4541H32.8182C32.3331 8.4541 31.9393 8.84785 31.9393 9.333C31.9393 9.81816 32.3331 10.2119 32.8182 10.2119Z" fill="url(#paint5_linear_390_5486)"/>
<path d="M60 37.515C60 37.515 60 37.5141 60 37.5133V35.6359C60 34.1154 58.7625 32.8779 57.242 32.8779H47.5547C47.7085 31.9296 47.7876 30.9654 47.7876 29.9995C47.7876 20.191 39.8081 12.2114 29.9995 12.2114C20.191 12.2114 12.2114 20.191 12.2114 29.9995C12.2114 39.8081 20.191 47.7876 29.9995 47.7876C30.9654 47.7876 31.9296 47.7085 32.8779 47.5547V52.5451C32.8779 54.0656 34.1154 55.3031 35.6359 55.3031H57.242C58.7625 55.3031 60 54.0656 60 52.5451V37.5168C60 37.5168 60 37.5159 60 37.515ZM58.2422 35.6359V36.6361H34.6366V35.6359C34.6366 35.0848 35.0849 34.6357 35.6368 34.6357H42.5995C42.5995 34.6357 42.6021 34.6357 42.603 34.6357C42.6047 34.6357 42.6074 34.6357 42.6091 34.6357H57.242C57.793 34.6357 58.2422 35.084 58.2422 35.6359ZM30.0004 46.0298C21.1613 46.0298 13.9701 38.8386 13.9701 29.9995C13.9701 21.1604 21.1613 13.9692 30.0004 13.9692C38.8395 13.9692 46.0307 21.1604 46.0307 29.9995C46.0307 30.9672 45.9428 31.9322 45.7714 32.8779H43.728C44.5383 28.9624 43.6366 24.8245 41.2257 21.6069C40.9348 21.2184 40.3838 21.1393 39.9953 21.4302C39.6068 21.7211 39.5277 22.2722 39.8186 22.6607C42 25.5734 42.7682 29.3483 41.9262 32.8779H35.6359C34.1154 32.8779 32.8779 34.1154 32.8779 35.6359V41.9262C29.3483 42.7682 25.5734 42 22.6607 39.8186C22.2722 39.5277 21.7211 39.6068 21.4302 39.9953C21.1393 40.3837 21.2184 40.9348 21.6069 41.2257C24.0529 43.0574 27.0297 44.0189 30.0364 44.0189C30.9857 44.0189 31.9384 43.9213 32.8779 43.7271V45.7714C31.9322 45.9428 30.9672 46.0307 29.9995 46.0307L30.0004 46.0298ZM57.2428 53.5453H35.6368C35.0857 53.5453 34.6366 53.0971 34.6366 52.5451V46.4745C34.6366 46.4745 34.6366 46.4719 34.6366 46.471V42.6188C34.6366 42.6188 34.6366 42.6118 34.6366 42.6082V38.3939H58.2422V52.5451C58.2422 53.0962 57.7939 53.5453 57.242 53.5453H57.2428Z" fill="url(#paint6_linear_390_5486)"/>
<path d="M53.4847 41.333H39.3942C38.909 41.333 38.5153 41.7268 38.5153 42.2119C38.5153 42.6971 38.909 43.0908 39.3942 43.0908H53.4847C53.9699 43.0908 54.3636 42.6971 54.3636 42.2119C54.3636 41.7268 53.9699 41.333 53.4847 41.333Z" fill="url(#paint7_linear_390_5486)"/>
<path d="M53.4847 48.8484H39.3942C38.909 48.8484 38.5153 49.2421 38.5153 49.7273C38.5153 50.2124 38.909 50.6062 39.3942 50.6062H53.4847C53.9699 50.6062 54.3636 50.2124 54.3636 49.7273C54.3636 49.2421 53.9699 48.8484 53.4847 48.8484Z" fill="url(#paint8_linear_390_5486)"/>
<path d="M50.6661 46.8481C51.1512 46.8481 51.545 46.4544 51.545 45.9692C51.545 45.4841 51.1512 45.0903 50.6661 45.0903H42.2119C41.7268 45.0903 41.333 45.4841 41.333 45.9692C41.333 46.4544 41.7268 46.8481 42.2119 46.8481H50.6661Z" fill="url(#paint9_linear_390_5486)"/>
<path d="M21.4847 9.333C21.4847 8.84785 21.091 8.4541 20.6058 8.4541H6.51525C6.0301 8.4541 5.63635 8.84785 5.63635 9.333C5.63635 9.81816 6.0301 10.2119 6.51525 10.2119H20.6058C21.091 10.2119 21.4847 9.81816 21.4847 9.333Z" fill="url(#paint10_linear_390_5486)"/>
<path d="M6.51525 15.9697C6.0301 15.9697 5.63635 16.3635 5.63635 16.8486C5.63635 17.3338 6.0301 17.7275 6.51525 17.7275H14.0307C14.5159 17.7275 14.9096 17.3338 14.9096 16.8486C14.9096 16.3635 14.5159 15.9697 14.0307 15.9697H6.51525Z" fill="url(#paint11_linear_390_5486)"/>
<path d="M18.667 13.0913C18.667 12.6062 18.2733 12.2124 17.7881 12.2124H9.33398C8.84883 12.2124 8.45508 12.6062 8.45508 13.0913C8.45508 13.5765 8.84883 13.9702 9.33398 13.9702H17.7881C18.2733 13.9702 18.667 13.5765 18.667 13.0913Z" fill="url(#paint12_linear_390_5486)"/>
<path d="M12.0911 21.5453C12.0911 21.0602 11.6973 20.6664 11.2122 20.6664H2.75799C2.20692 20.6664 1.7578 20.2182 1.7578 19.6662V5.51501H25.3634V9.33296C25.3634 9.81812 25.7571 10.2119 26.2423 10.2119C26.7274 10.2119 27.1212 9.81812 27.1212 9.33296V4.63875C27.1212 4.63875 27.1212 4.63699 27.1212 4.63611C27.1212 4.63523 27.1212 4.63435 27.1212 4.63347V2.75702C27.1212 1.23652 25.8837 -0.000976562 24.3632 -0.000976562H2.75799C1.23749 -9.76606e-05 0 1.2374 0 2.7579V4.63611V19.6653C0 21.1867 1.23749 22.4242 2.75799 22.4242H11.2122C11.6973 22.4242 12.0911 22.0305 12.0911 21.5453ZM2.75799 1.75771H24.364C24.9151 1.75771 25.3642 2.20595 25.3642 2.7579V3.75809H1.7578V2.7579C1.7578 2.20683 2.20604 1.75771 2.75799 1.75771Z" fill="url(#paint13_linear_390_5486)"/>
<path d="M51.545 17.7881C51.545 17.3029 51.1513 16.9092 50.6661 16.9092H46.9088C46.4237 16.9092 46.0299 17.3029 46.0299 17.7881C46.0299 18.2732 46.4237 18.667 46.9088 18.667H50.6661C51.1513 18.667 51.545 18.2732 51.545 17.7881Z" fill="url(#paint14_linear_390_5486)"/>
<path d="M49.3213 22.4243H50.6669C51.152 22.4243 51.5458 22.0306 51.5458 21.5454C51.5458 21.0603 51.152 20.6665 50.6669 20.6665H49.3213C48.8361 20.6665 48.4424 21.0603 48.4424 21.5454C48.4424 22.0306 48.8361 22.4243 49.3213 22.4243Z" fill="url(#paint15_linear_390_5486)"/>
<path d="M27.1818 49.7871H6.51532C5.96425 49.7871 5.51513 49.3388 5.51513 48.7869V36.5148H10.2726C10.7578 36.5148 11.1515 36.121 11.1515 35.6359C11.1515 35.1507 10.7578 34.757 10.2726 34.757H5.51513V33.7568C5.51513 33.2057 5.96337 32.7566 6.51532 32.7566H9.33308C9.81823 32.7566 10.212 32.3628 10.212 31.8777C10.212 31.3925 9.81823 30.9988 9.33308 30.9988H6.51532C4.99482 30.9988 3.75732 32.2363 3.75732 33.7568V35.635V48.786C3.75732 50.3065 4.99482 51.544 6.51532 51.544H27.1818C27.667 51.544 28.0607 51.1502 28.0607 50.6651C28.0607 50.1799 27.667 49.7862 27.1818 49.7862V49.7871Z" fill="url(#paint16_linear_390_5486)"/>
<path d="M8.4541 45.0298C8.4541 45.5149 8.84785 45.9087 9.333 45.9087H14.9694C15.4546 45.9087 15.8483 45.5149 15.8483 45.0298C15.8483 44.5446 15.4546 44.1509 14.9694 44.1509H9.333C8.84785 44.1509 8.4541 44.5446 8.4541 45.0298Z" fill="url(#paint17_linear_390_5486)"/>
<path d="M12.1517 40.3936H9.33398C8.84883 40.3936 8.45508 40.7873 8.45508 41.2725C8.45508 41.7576 8.84883 42.1514 9.33398 42.1514H12.1517C12.6369 42.1514 13.0306 41.7576 13.0306 41.2725C13.0306 40.7873 12.6369 40.3936 12.1517 40.3936Z" fill="url(#paint18_linear_390_5486)"/>
</g>
<defs>
<linearGradient id="paint0_linear_390_5486" x1="23.484" y1="28.121" x2="40.273" y2="28.121" gradientUnits="userSpaceOnUse">
<stop stop-color="#223962"/>
<stop offset="0.526042" stop-color="#3277BC"/>
<stop offset="0.973958" stop-color="#48ABDF"/>
</linearGradient>
<linearGradient id="paint1_linear_390_5486" x1="15.9785" y1="27.3606" x2="38.7443" y2="27.3606" gradientUnits="userSpaceOnUse">
<stop stop-color="#223962"/>
<stop offset="0.526042" stop-color="#3277BC"/>
<stop offset="0.973958" stop-color="#48ABDF"/>
</linearGradient>
<linearGradient id="paint2_linear_390_5486" x1="29.1206" y1="21.0757" x2="30.8784" y2="21.0757" gradientUnits="userSpaceOnUse">
<stop stop-color="#223962"/>
<stop offset="0.526042" stop-color="#3277BC"/>
<stop offset="0.973958" stop-color="#48ABDF"/>
</linearGradient>
<linearGradient id="paint3_linear_390_5486" x1="29.1206" y1="38.9244" x2="30.8784" y2="38.9244" gradientUnits="userSpaceOnUse">
<stop stop-color="#223962"/>
<stop offset="0.526042" stop-color="#3277BC"/>
<stop offset="0.973958" stop-color="#48ABDF"/>
</linearGradient>
<linearGradient id="paint4_linear_390_5486" x1="19.7269" y1="29.9995" x2="22.4243" y2="29.9995" gradientUnits="userSpaceOnUse">
<stop stop-color="#223962"/>
<stop offset="0.526042" stop-color="#3277BC"/>
<stop offset="0.973958" stop-color="#48ABDF"/>
</linearGradient>
<linearGradient id="paint5_linear_390_5486" x1="31.9393" y1="18.7276" x2="56.2427" y2="18.7276" gradientUnits="userSpaceOnUse">
<stop stop-color="#223962"/>
<stop offset="0.526042" stop-color="#3277BC"/>
<stop offset="0.973958" stop-color="#48ABDF"/>
</linearGradient>
<linearGradient id="paint6_linear_390_5486" x1="12.2114" y1="33.7573" x2="60" y2="33.7573" gradientUnits="userSpaceOnUse">
<stop stop-color="#223962"/>
<stop offset="0.526042" stop-color="#3277BC"/>
<stop offset="0.973958" stop-color="#48ABDF"/>
</linearGradient>
<linearGradient id="paint7_linear_390_5486" x1="38.5153" y1="42.2119" x2="54.3636" y2="42.2119" gradientUnits="userSpaceOnUse">
<stop stop-color="#223962"/>
<stop offset="0.526042" stop-color="#3277BC"/>
<stop offset="0.973958" stop-color="#48ABDF"/>
</linearGradient>
<linearGradient id="paint8_linear_390_5486" x1="38.5153" y1="49.7273" x2="54.3636" y2="49.7273" gradientUnits="userSpaceOnUse">
<stop stop-color="#223962"/>
<stop offset="0.526042" stop-color="#3277BC"/>
<stop offset="0.973958" stop-color="#48ABDF"/>
</linearGradient>
<linearGradient id="paint9_linear_390_5486" x1="41.333" y1="45.9692" x2="51.545" y2="45.9692" gradientUnits="userSpaceOnUse">
<stop stop-color="#223962"/>
<stop offset="0.526042" stop-color="#3277BC"/>
<stop offset="0.973958" stop-color="#48ABDF"/>
</linearGradient>
<linearGradient id="paint10_linear_390_5486" x1="5.63635" y1="9.333" x2="21.4847" y2="9.333" gradientUnits="userSpaceOnUse">
<stop stop-color="#223962"/>
<stop offset="0.526042" stop-color="#3277BC"/>
<stop offset="0.973958" stop-color="#48ABDF"/>
</linearGradient>
<linearGradient id="paint11_linear_390_5486" x1="5.63635" y1="16.8486" x2="14.9096" y2="16.8486" gradientUnits="userSpaceOnUse">
<stop stop-color="#223962"/>
<stop offset="0.526042" stop-color="#3277BC"/>
<stop offset="0.973958" stop-color="#48ABDF"/>
</linearGradient>
<linearGradient id="paint12_linear_390_5486" x1="8.45508" y1="13.0913" x2="18.667" y2="13.0913" gradientUnits="userSpaceOnUse">
<stop stop-color="#223962"/>
<stop offset="0.526042" stop-color="#3277BC"/>
<stop offset="0.973958" stop-color="#48ABDF"/>
</linearGradient>
<linearGradient id="paint13_linear_390_5486" x1="-1.01034e-07" y1="11.2116" x2="27.1212" y2="11.2116" gradientUnits="userSpaceOnUse">
<stop stop-color="#223962"/>
<stop offset="0.526042" stop-color="#3277BC"/>
<stop offset="0.973958" stop-color="#48ABDF"/>
</linearGradient>
<linearGradient id="paint14_linear_390_5486" x1="46.0299" y1="17.7881" x2="51.545" y2="17.7881" gradientUnits="userSpaceOnUse">
<stop stop-color="#223962"/>
<stop offset="0.526042" stop-color="#3277BC"/>
<stop offset="0.973958" stop-color="#48ABDF"/>
</linearGradient>
<linearGradient id="paint15_linear_390_5486" x1="48.4424" y1="21.5454" x2="51.5458" y2="21.5454" gradientUnits="userSpaceOnUse">
<stop stop-color="#223962"/>
<stop offset="0.526042" stop-color="#3277BC"/>
<stop offset="0.973958" stop-color="#48ABDF"/>
</linearGradient>
<linearGradient id="paint16_linear_390_5486" x1="3.75732" y1="41.2714" x2="28.0607" y2="41.2714" gradientUnits="userSpaceOnUse">
<stop stop-color="#223962"/>
<stop offset="0.526042" stop-color="#3277BC"/>
<stop offset="0.973958" stop-color="#48ABDF"/>
</linearGradient>
<linearGradient id="paint17_linear_390_5486" x1="8.4541" y1="45.0298" x2="15.8483" y2="45.0298" gradientUnits="userSpaceOnUse">
<stop stop-color="#223962"/>
<stop offset="0.526042" stop-color="#3277BC"/>
<stop offset="0.973958" stop-color="#48ABDF"/>
</linearGradient>
<linearGradient id="paint18_linear_390_5486" x1="8.45508" y1="41.2725" x2="13.0306" y2="41.2725" gradientUnits="userSpaceOnUse">
<stop stop-color="#223962"/>
<stop offset="0.526042" stop-color="#3277BC"/>
<stop offset="0.973958" stop-color="#48ABDF"/>
</linearGradient>
<clipPath id="clip0_390_5486">
<rect width="60" height="55.3031" fill="white"/>
</clipPath>
</defs>
</svg>
