<svg width="59" height="60" viewBox="0 0 59 60" fill="none" xmlns="http://www.w3.org/2000/svg">
<g clip-path="url(#clip0_343_5129)">
<path d="M58.8824 11.9958L56.4486 2.57276C56.1389 1.37343 55.2413 0.459195 54.0473 0.128345C52.8541 -0.203385 51.6134 0.116906 50.73 0.985387L43.7865 7.80389C42.9031 8.67149 42.5599 9.90602 42.8697 11.1053C43.1794 12.3047 44.0769 13.2189 45.271 13.5498L46.1377 13.79C44.7764 17.0422 42.9277 20.0321 40.6329 22.6886C38.1198 25.5985 35.1246 28.0465 31.7299 29.9656C23.932 34.374 14.8847 35.4818 6.25441 33.0849C5.32082 32.8253 4.34235 32.9458 3.49938 33.4219C2.65642 33.8979 2.04927 34.6749 1.7897 35.6085C1.25471 37.5346 2.38716 39.5373 4.31331 40.0723C7.93946 41.079 11.6254 41.5779 15.2886 41.5779C22.2302 41.5779 29.0901 39.7881 35.2979 36.279C39.5057 33.9006 43.2075 30.8525 46.3013 27.2211C49.2112 23.8044 51.5193 19.9468 53.1682 15.7434L54.6474 16.1543C55.8406 16.4861 57.0812 16.1658 57.9647 15.2973C58.849 14.4297 59.1913 13.1952 58.8816 11.9958H58.8824ZM56.7328 14.0416C56.3025 14.464 55.6998 14.6198 55.119 14.4587L52.8673 13.8331C52.4265 13.7108 51.9654 13.9466 51.807 14.376C50.2152 18.6797 47.9125 22.6173 44.963 26.0807C42.0038 29.5546 38.4613 32.4707 34.4339 34.7479C25.3592 39.8779 14.8301 41.1669 4.78583 38.3776C3.79416 38.1022 3.21165 37.0718 3.48706 36.0801C3.62081 35.5997 3.93318 35.2002 4.36698 34.9547C4.6512 34.7937 4.96533 34.7118 5.28298 34.7118C5.45017 34.7118 5.61911 34.7347 5.78541 34.7805C8.92321 35.6516 12.1129 36.0828 15.2833 36.0828C21.2905 36.0828 27.2264 34.5341 32.5983 31.4975C36.1691 29.479 39.3209 26.9026 41.9669 23.8387C44.604 20.7854 46.6823 17.3141 48.1439 13.5216C48.2328 13.2902 48.2204 13.0315 48.1087 12.8098C47.9969 12.588 47.7972 12.4235 47.5579 12.3575L45.7435 11.8533C45.1627 11.6923 44.7263 11.2479 44.5758 10.6645C44.4254 10.0811 44.5917 9.48102 45.0219 9.05865L51.9654 2.24015C52.3957 1.81779 52.9984 1.66205 53.5792 1.82307C54.1599 1.9841 54.5963 2.42846 54.7468 3.01184L57.1807 12.4349C57.3311 13.0183 57.1648 13.6184 56.7346 14.0408L56.7328 14.0416Z" fill="url(#paint0_linear_343_5129)"/>
<path d="M11.7734 43.717C9.44335 43.5507 7.27786 43.1239 5.87087 42.7948C4.94607 42.5784 3.9896 42.7931 3.24695 43.3826C2.50606 43.9704 2.08105 44.8503 2.08105 45.7962V56.8023C2.08105 58.5656 3.51532 59.9999 5.27869 59.9999H11.4284C13.1918 59.9999 14.6261 58.5656 14.6261 56.8023V46.7914C14.6261 45.182 13.3731 43.8314 11.7743 43.717H11.7734ZM12.8654 56.8023C12.8654 57.5951 12.2204 58.2401 11.4276 58.2401H5.27869C4.48588 58.2401 3.8409 57.5951 3.8409 56.8023V45.7962C3.8409 45.3906 4.02304 45.0131 4.34069 44.7614C4.57915 44.5723 4.86776 44.4737 5.1643 44.4737C5.26637 44.4737 5.36932 44.4851 5.47051 44.5089C6.93909 44.8521 9.20313 45.2973 11.6475 45.4724C12.3304 45.5208 12.8654 46.1007 12.8654 46.7914V56.8023Z" fill="url(#paint1_linear_343_5129)"/>
<path d="M27.7589 43.2368C27.0127 42.6472 26.0545 42.436 25.1288 42.6569C23.1736 43.1224 21.1709 43.4523 19.177 43.6371C17.5852 43.7849 16.385 45.1039 16.385 46.7054V56.8025C16.385 58.5658 17.8193 60.0001 19.5826 60.0001H25.7324C27.4958 60.0001 28.93 58.5658 28.93 56.8025V45.6548C28.93 44.7062 28.5033 43.8254 27.7589 43.2376V43.2368ZM27.1702 56.8025C27.1702 57.5953 26.5252 58.2403 25.7324 58.2403H19.5826C18.7898 58.2403 18.1449 57.5953 18.1449 56.8025V46.7054C18.1449 46.0182 18.6587 45.4524 19.3398 45.389C21.4164 45.1963 23.5009 44.8532 25.5371 44.3683C25.6409 44.3437 25.7447 44.3314 25.8486 44.3314C26.1433 44.3314 26.4311 44.4299 26.6686 44.6173C26.9872 44.869 27.1702 45.2474 27.1702 45.6539V56.8016V56.8025Z" fill="url(#paint2_linear_343_5129)"/>
<path d="M41.6317 36.8633C40.6277 36.3142 39.4521 36.3547 38.4877 36.9724C37.8093 37.4071 37.1071 37.8295 36.4005 38.2281C35.1458 38.9373 33.8435 39.5893 32.5298 40.1674C31.4114 40.6593 30.689 41.7662 30.689 42.9884V56.8014C30.689 58.5648 32.1232 59.999 33.8866 59.999H40.0364C41.7997 59.999 43.234 58.5648 43.234 56.8014V39.5673C43.234 38.4234 42.6348 37.4124 41.6317 36.8633ZM41.4741 56.8014C41.4741 57.5942 40.8292 58.2392 40.0364 58.2392H33.8866C33.0938 58.2392 32.4488 57.5942 32.4488 56.8014V42.9884C32.4488 42.464 32.7585 41.9897 33.2381 41.7785C34.6055 41.1775 35.9606 40.4982 37.2655 39.76C38.0002 39.3456 38.7306 38.9056 39.4363 38.4542C39.6571 38.3134 39.9026 38.2421 40.1499 38.2421C40.3672 38.2421 40.5845 38.2967 40.786 38.4076C41.2163 38.6434 41.4733 39.0772 41.4733 39.5682V56.8023L41.4741 56.8014Z" fill="url(#paint3_linear_343_5129)"/>
<path d="M55.9549 19.0942C55.0081 18.8698 54.0789 19.3036 53.6425 20.1738C53.6372 20.1853 53.631 20.1976 53.6258 20.2099C52.0956 23.2474 50.2055 26.0948 48.0075 28.6747C47.4654 29.31 46.9049 29.9304 46.3391 30.5199C45.4715 31.4262 44.9946 32.6115 44.9946 33.8583V51.2852C44.9946 51.7709 45.3888 52.1651 45.8745 52.1651C46.3603 52.1651 46.7545 51.7709 46.7545 51.2852V33.8583C46.7545 33.0673 47.0589 32.3141 47.6098 31.7377C48.1984 31.1244 48.7827 30.4777 49.3467 29.816C51.6433 27.1208 53.617 24.144 55.2131 20.9702C55.2175 20.9614 55.2219 20.9526 55.2255 20.9438C55.3135 20.788 55.449 20.7827 55.5493 20.8065C55.6531 20.8311 55.7772 20.9006 55.7772 21.0951V56.8023C55.7772 57.5951 55.1322 58.2409 54.3403 58.2409H48.1914C47.3986 58.2409 46.7545 57.5959 46.7545 56.8023V54.8057C46.7545 54.32 46.3603 53.9258 45.8745 53.9258C45.3888 53.9258 44.9946 54.32 44.9946 54.8057V56.8023C44.9946 58.5656 46.4289 60.0008 48.1914 60.0008H54.3403C56.1027 60.0008 57.537 58.5665 57.537 56.8023V21.0942C57.537 20.1219 56.9017 19.3177 55.9549 19.0933V19.0942Z" fill="url(#paint4_linear_343_5129)"/>
<path d="M13.256 17.1084C13.6581 16.8348 13.7619 16.2875 13.4883 15.8862C12.7087 14.7397 12.296 13.3978 12.296 12.0058C12.296 8.19749 15.3942 5.09929 19.2025 5.09929C23.0108 5.09929 26.109 8.19749 26.109 12.0058C26.109 15.8141 23.0108 18.9123 19.2025 18.9123C17.9715 18.9123 16.7651 18.5858 15.7118 17.9672C15.293 17.7209 14.7536 17.8608 14.5072 18.2805C14.2608 18.6993 14.4016 19.2387 14.8205 19.4851C16.143 20.2621 17.6582 20.673 19.2025 20.673C23.9813 20.673 27.8688 16.7855 27.8688 12.0067C27.8688 7.22782 23.9813 3.34033 19.2025 3.34033C14.4236 3.34033 10.5361 7.22782 10.5361 12.0067C10.5361 13.7524 11.0535 15.4366 12.0329 16.8761C12.3065 17.2783 12.853 17.3821 13.2551 17.1084H13.256Z" fill="url(#paint5_linear_343_5129)"/>
<path d="M31.2583 14.3822C32.5685 14.3822 33.6349 13.3158 33.6349 12.0056C33.6349 10.6954 32.5685 9.62891 31.2583 9.62891C29.9481 9.62891 28.8816 10.6954 28.8816 12.0056C28.8816 13.3158 29.9481 14.3822 31.2583 14.3822ZM31.2583 11.3879C31.5988 11.3879 31.8751 11.665 31.8751 12.0047C31.8751 12.3443 31.5979 12.6215 31.2583 12.6215C30.9186 12.6215 30.6414 12.3443 30.6414 12.0047C30.6414 11.665 30.9186 11.3879 31.2583 11.3879Z" fill="url(#paint6_linear_343_5129)"/>
<path d="M9.5242 12.0056C9.5242 10.6945 8.45774 9.62891 7.14754 9.62891C5.83734 9.62891 4.77087 10.6954 4.77087 12.0056C4.77087 13.3158 5.83734 14.3822 7.14754 14.3822C8.45774 14.3822 9.5242 13.3158 9.5242 12.0056ZM6.52983 12.0056C6.52983 11.665 6.80701 11.3887 7.14666 11.3887C7.48631 11.3887 7.76348 11.6659 7.76348 12.0056C7.76348 12.3452 7.48631 12.6224 7.14666 12.6224C6.80701 12.6224 6.52983 12.3452 6.52983 12.0056Z" fill="url(#paint7_linear_343_5129)"/>
<path d="M30.4787 24.0097C30.4787 24.0097 30.4796 24.0097 30.4804 24.0097C30.4813 24.0097 30.4813 24.0097 30.4822 24.0097H35.0622C36.9056 24.0097 38.4059 22.5103 38.4059 20.6669V3.34477C38.4059 1.50134 36.9056 0.00195312 35.0622 0.00195312H3.3437C1.49938 0.00195312 0 1.50134 0 3.34477V20.6669C0 22.5103 1.49938 24.0097 3.3437 24.0097H30.4796H30.4787ZM1.75984 8.75804C5.42823 8.35064 8.34868 5.43018 8.75609 1.76179H29.6498C30.0572 5.43018 32.9776 8.35152 36.646 8.75804V15.2545C32.9776 15.6619 30.0572 18.5823 29.6498 22.2507H8.75609C8.34868 18.5823 5.42823 15.6619 1.75984 15.2545V8.75804ZM35.0622 22.2499H31.4237C31.8109 19.5529 33.9491 17.4156 36.6452 17.0284V20.6669C36.6452 21.5398 35.9351 22.2499 35.0613 22.2499H35.0622ZM36.646 3.34477V6.98324C33.9491 6.59608 31.8118 4.45787 31.4246 1.76091H35.0631C35.9359 1.76091 36.6469 2.47101 36.6469 3.34477H36.646ZM3.3437 1.76179H6.98217C6.595 4.45875 4.4568 6.59696 1.76072 6.98324V3.34477C1.76072 2.47189 2.47082 1.76091 3.34458 1.76091L3.3437 1.76179ZM1.75984 20.6669V17.0284C4.4568 17.4156 6.59412 19.5538 6.98129 22.2499H3.34282C2.46994 22.2499 1.75896 21.5398 1.75896 20.6669H1.75984Z" fill="url(#paint8_linear_343_5129)"/>
</g>
<defs>
<linearGradient id="paint0_linear_343_5129" x1="1.6571" y1="20.7889" x2="58.9934" y2="20.7889" gradientUnits="userSpaceOnUse">
<stop stop-color="#223962"/>
<stop offset="0.526042" stop-color="#3277BC"/>
<stop offset="0.973958" stop-color="#48ABDF"/>
</linearGradient>
<linearGradient id="paint1_linear_343_5129" x1="2.08105" y1="51.3562" x2="14.6261" y2="51.3562" gradientUnits="userSpaceOnUse">
<stop stop-color="#223962"/>
<stop offset="0.526042" stop-color="#3277BC"/>
<stop offset="0.973958" stop-color="#48ABDF"/>
</linearGradient>
<linearGradient id="paint2_linear_343_5129" x1="16.385" y1="51.2857" x2="28.93" y2="51.2857" gradientUnits="userSpaceOnUse">
<stop stop-color="#223962"/>
<stop offset="0.526042" stop-color="#3277BC"/>
<stop offset="0.973958" stop-color="#48ABDF"/>
</linearGradient>
<linearGradient id="paint3_linear_343_5129" x1="30.689" y1="48.2388" x2="43.234" y2="48.2388" gradientUnits="userSpaceOnUse">
<stop stop-color="#223962"/>
<stop offset="0.526042" stop-color="#3277BC"/>
<stop offset="0.973958" stop-color="#48ABDF"/>
</linearGradient>
<linearGradient id="paint4_linear_343_5129" x1="44.9946" y1="39.5182" x2="57.537" y2="39.5182" gradientUnits="userSpaceOnUse">
<stop stop-color="#223962"/>
<stop offset="0.526042" stop-color="#3277BC"/>
<stop offset="0.973958" stop-color="#48ABDF"/>
</linearGradient>
<linearGradient id="paint5_linear_343_5129" x1="10.5361" y1="12.0067" x2="27.8688" y2="12.0067" gradientUnits="userSpaceOnUse">
<stop stop-color="#223962"/>
<stop offset="0.526042" stop-color="#3277BC"/>
<stop offset="0.973958" stop-color="#48ABDF"/>
</linearGradient>
<linearGradient id="paint6_linear_343_5129" x1="28.8816" y1="12.0056" x2="33.6349" y2="12.0056" gradientUnits="userSpaceOnUse">
<stop stop-color="#223962"/>
<stop offset="0.526042" stop-color="#3277BC"/>
<stop offset="0.973958" stop-color="#48ABDF"/>
</linearGradient>
<linearGradient id="paint7_linear_343_5129" x1="4.77087" y1="12.0056" x2="9.5242" y2="12.0056" gradientUnits="userSpaceOnUse">
<stop stop-color="#223962"/>
<stop offset="0.526042" stop-color="#3277BC"/>
<stop offset="0.973958" stop-color="#48ABDF"/>
</linearGradient>
<linearGradient id="paint8_linear_343_5129" x1="-1.43073e-07" y1="12.0058" x2="38.4059" y2="12.0058" gradientUnits="userSpaceOnUse">
<stop stop-color="#223962"/>
<stop offset="0.526042" stop-color="#3277BC"/>
<stop offset="0.973958" stop-color="#48ABDF"/>
</linearGradient>
<clipPath id="clip0_343_5129">
<rect width="58.9943" height="60" fill="white"/>
</clipPath>
</defs>
</svg>
