<svg width="60" height="60" viewBox="0 0 60 60" fill="none" xmlns="http://www.w3.org/2000/svg">
<g clip-path="url(#clip0_390_5017)">
<path d="M43.0676 34.0537C38.0977 34.0537 34.0547 38.0967 34.0547 43.0666C34.0547 48.0365 38.0977 52.0795 43.0676 52.0795C44.2078 52.0795 45.3188 51.8697 46.3711 51.4549C46.8234 51.2768 47.0461 50.7658 46.868 50.3123C46.6898 49.86 46.1789 49.6373 45.7254 49.8154C44.8793 50.1482 43.9852 50.3182 43.0676 50.3182C39.0691 50.3182 35.816 47.065 35.816 43.0666C35.816 39.0682 39.0691 35.815 43.0676 35.815C47.066 35.815 50.3191 39.0682 50.3191 43.0666C50.3191 44.9311 49.6137 46.7029 48.3316 48.0553C47.9965 48.408 48.0117 48.9658 48.3645 49.2998C48.7172 49.635 49.275 49.6197 49.609 49.267C51.2027 47.5865 52.0805 45.3846 52.0805 43.0666C52.0805 38.0967 48.0375 34.0537 43.0676 34.0537Z" fill="url(#paint0_linear_390_5017)"/>
<path d="M58.4238 40.2434L56.3145 39.9258C55.9805 38.5066 55.4238 37.1637 54.6551 35.9215L55.923 34.2047C56.4715 33.4617 56.3965 32.448 55.7426 31.7953L54.3387 30.3914C54.1945 30.2473 54.0316 30.1324 53.8594 30.0457C53.9719 29.0379 54.0305 28.0219 54.0305 27.0152C54.0305 19.7988 51.2203 13.0148 46.118 7.9125C41.0145 2.81016 34.2305 0 27.0152 0C20.6484 0 14.4645 2.2582 9.60586 6.35742C9.23438 6.67148 9.1875 7.22695 9.50039 7.59844C9.81328 7.96992 10.3699 8.0168 10.7414 7.70391C15.2836 3.87187 21.0621 1.76133 27.0152 1.76133C33.7605 1.76133 40.1027 4.38867 44.8723 9.1582C49.6418 13.9277 52.2691 20.2699 52.2691 27.0152C52.2691 28.043 52.2047 29.0824 52.0793 30.1125C52.0289 30.143 51.9785 30.1758 51.9305 30.2121L50.2137 31.4801C49.8785 31.2727 49.5352 31.0816 49.1859 30.9059C49.4086 29.6262 49.5234 28.3207 49.5234 27.0164C49.5234 22.5586 48.2227 18.2508 45.7617 14.5559C45.4922 14.1504 44.9449 14.0414 44.5406 14.3109C44.1352 14.5805 44.0262 15.1277 44.2957 15.532C46.5633 18.9363 47.7621 22.9078 47.7621 27.0164C47.7621 28.084 47.6801 29.1516 47.5184 30.2027C47.0906 30.0551 46.6547 29.9262 46.2105 29.8219L45.893 27.7125C45.7559 26.7996 44.9859 26.1363 44.0625 26.1363H42.0762C41.1527 26.1363 40.3828 26.7996 40.2457 27.7125L39.9281 29.8219C38.509 30.1559 37.166 30.7125 35.9238 31.4813L34.207 30.2133C33.4641 29.6648 32.4504 29.741 31.7977 30.3937L30.3937 31.7977C29.741 32.4504 29.6648 33.4641 30.2133 34.207L31.4813 35.9238C30.7125 37.166 30.1559 38.5078 29.8219 39.9281L27.7125 40.2457C26.7996 40.3828 26.1363 41.1527 26.1363 42.0762V44.0625C26.1363 44.9859 26.7996 45.7559 27.7125 45.893L29.8219 46.2105C29.9262 46.6547 30.0551 47.0895 30.2027 47.5184C29.1516 47.6801 28.084 47.7621 27.0164 47.7621C21.6129 47.7621 16.6863 45.6855 12.9914 42.2883L25.0875 30.191C25.65 30.5344 26.3109 30.7324 27.0164 30.7324C29.0648 30.7324 30.7312 29.066 30.7312 27.0176C30.7312 25.2727 29.5219 23.8055 27.8965 23.4094V6.28945C30.5145 6.39727 33.0457 6.98672 35.434 8.04844C38.0004 9.18984 40.2762 10.8141 42.198 12.8777C42.5297 13.234 43.0863 13.2527 43.4426 12.9223C43.7988 12.5906 43.8176 12.034 43.4871 11.6777C41.4023 9.43945 38.9332 7.67695 36.15 6.43945C33.2684 5.15859 30.1945 4.5082 27.0152 4.5082C14.6051 4.5082 4.50938 14.6039 4.50938 27.0141C4.50938 39.4242 14.6051 49.5199 27.0152 49.5199C28.3207 49.5199 29.625 49.4062 30.9047 49.1824C31.0816 49.5316 31.2715 49.875 31.4789 50.2102L30.2109 51.927C30.1746 51.975 30.1418 52.0254 30.1113 52.0758C29.0824 52.2023 28.043 52.2656 27.0141 52.2656C20.2688 52.2656 13.9266 49.6383 9.15703 44.8688C4.3875 40.0992 1.76016 33.757 1.76016 27.0117C1.76016 20.734 4.07813 14.7176 8.2875 10.0687C8.61445 9.70781 8.58633 9.15117 8.22539 8.82539C7.86445 8.49844 7.30781 8.52656 6.98203 8.8875C2.47969 13.8633 0 20.3004 0 27.0152C0 34.2316 2.81016 41.0156 7.9125 46.118C13.0148 51.2203 19.7988 54.0305 27.0152 54.0305C28.0219 54.0305 29.0379 53.973 30.0457 53.8594C30.1336 54.0316 30.2473 54.1945 30.3914 54.3387L31.7953 55.7437C32.448 56.3965 33.4617 56.4727 34.2047 55.9242L35.9215 54.6562C37.1637 55.425 38.5055 55.9816 39.9258 56.3156L40.2434 58.425C40.3805 59.3379 41.1504 60.0012 42.0738 60.0012H44.0602C44.9836 60.0012 45.7535 59.3379 45.8906 58.425L46.2082 56.3156C47.6273 55.9816 48.9703 55.425 50.2113 54.6562L51.9281 55.9242C52.6711 56.4727 53.6848 56.3977 54.3375 55.7437L55.7426 54.3387C56.3953 53.6859 56.4715 52.6723 55.923 51.9293L54.6551 50.2125C55.4238 48.9703 55.9805 47.6285 56.3145 46.2082L58.4238 45.8906C59.3367 45.7535 60 44.9836 60 44.0602V42.0738C60 41.1504 59.3367 40.3805 58.4238 40.2422V40.2434ZM27.0152 25.0605C28.0922 25.0605 28.9688 25.9371 28.9688 27.0141C28.9688 28.091 28.0922 28.9676 27.0152 28.9676C25.9383 28.9676 25.0617 28.091 25.0617 27.0141C25.0617 25.9371 25.9383 25.0605 27.0152 25.0605ZM6.29063 27.8953H9.48047C9.9668 27.8953 10.3605 27.5016 10.3605 27.0141C10.3605 26.5266 9.9668 26.134 9.48047 26.134H6.29063C6.50273 21.0773 8.53359 16.4824 11.7445 12.9891L13.9934 15.2379C14.3367 15.5813 14.8945 15.5813 15.2391 15.2379C15.5836 14.8945 15.5824 14.3367 15.2391 13.9922L12.9902 11.7434C16.4836 8.53242 21.0785 6.50156 26.1352 6.28945V23.4059C24.5109 23.802 23.3004 25.2691 23.3004 27.0141C23.3004 27.7195 23.4984 28.3805 23.8418 28.943L11.7457 41.0402C8.53477 37.5469 6.50391 32.952 6.2918 27.8953H6.29063ZM58.2398 44.0602C58.2398 44.1047 58.207 44.1422 58.1625 44.1492L55.4484 44.557C55.0781 44.6133 54.7828 44.8969 54.7137 45.266C54.4113 46.8797 53.7867 48.3879 52.8563 49.7473C52.6453 50.0566 52.6523 50.4656 52.875 50.768L54.5062 52.9758C54.5332 53.0121 54.5297 53.0613 54.4969 53.093L53.0918 54.498C53.0602 54.5297 53.0109 54.5332 52.9746 54.5062L50.7668 52.875C50.4656 52.6523 50.0555 52.6453 49.7461 52.8563C48.3867 53.7855 46.8797 54.4102 45.2648 54.7137C44.8969 54.7828 44.6121 55.0781 44.5559 55.4484L44.148 58.1625C44.141 58.207 44.1035 58.2398 44.059 58.2398H42.0727C42.027 58.2398 41.9895 58.207 41.9836 58.1625L41.5758 55.4484C41.5195 55.0781 41.2359 54.7828 40.8668 54.7137C39.2531 54.4113 37.7449 53.7867 36.3855 52.8563C36.0762 52.6453 35.6672 52.6523 35.3648 52.875L33.157 54.5062C33.1219 54.532 33.0715 54.5285 33.0398 54.498L31.6359 53.093C31.6043 53.0613 31.6008 53.0121 31.6266 52.9758L33.2578 50.768C33.4805 50.4668 33.4875 50.0566 33.2766 49.7473C32.3473 48.3879 31.7227 46.8809 31.4191 45.266C31.35 44.898 31.0559 44.6133 30.6844 44.557L27.9703 44.1492C27.927 44.1422 27.893 44.1047 27.893 44.0602V42.0738C27.893 42.0281 27.9258 41.9906 27.9703 41.9848L30.6844 41.577C31.0547 41.5207 31.35 41.2371 31.4191 40.868C31.7215 39.2543 32.3473 37.7461 33.2766 36.3867C33.4875 36.0773 33.4805 35.6684 33.2578 35.366L31.6266 33.1582C31.6008 33.123 31.6043 33.0727 31.6359 33.041L33.0398 31.6371C33.0715 31.6055 33.1219 31.602 33.157 31.6277L35.3648 33.259C35.666 33.4816 36.0762 33.4887 36.3855 33.2777C37.7449 32.3484 39.2531 31.7238 40.8668 31.4203C41.2348 31.3512 41.5195 31.0559 41.5758 30.6855L41.9836 27.9715C41.9906 27.927 42.0281 27.8941 42.0727 27.8941H44.059C44.1035 27.8941 44.141 27.927 44.148 27.9715L44.5559 30.6855C44.6121 31.0559 44.8957 31.3512 45.2648 31.4203C46.8785 31.7227 48.3867 32.3484 49.7461 33.2777C50.0555 33.4887 50.4645 33.4816 50.7668 33.259L52.9746 31.6277C53.0109 31.6008 53.0602 31.6043 53.0918 31.6371L54.4957 33.041C54.5273 33.0727 54.5309 33.123 54.5039 33.1582L52.8727 35.366C52.65 35.6672 52.643 36.0773 52.8539 36.3867C53.7832 37.7461 54.4078 39.2531 54.7113 40.868C54.7805 41.2359 55.0758 41.5207 55.4461 41.577L58.1602 41.9848C58.2047 41.9918 58.2375 42.0293 58.2375 42.0738V44.0602H58.2398Z" fill="url(#paint1_linear_390_5017)"/>
<path d="M45.4172 40.4512L42.1277 43.825L40.7004 42.4363C40.3512 42.0977 39.7945 42.1047 39.4547 42.4539C39.116 42.8031 39.1231 43.3598 39.4723 43.6996L41.5301 45.7012C41.8781 46.0399 42.4348 46.0328 42.7746 45.6848L46.6781 41.6817C47.018 41.3336 47.0109 40.7758 46.6629 40.436C46.3137 40.0961 45.757 40.1031 45.4172 40.4512Z" fill="url(#paint2_linear_390_5017)"/>
</g>
<defs>
<linearGradient id="paint0_linear_390_5017" x1="34.0547" y1="43.0666" x2="52.0805" y2="43.0666" gradientUnits="userSpaceOnUse">
<stop stop-color="#223962"/>
<stop offset="0.526042" stop-color="#3277BC"/>
<stop offset="0.973958" stop-color="#48ABDF"/>
</linearGradient>
<linearGradient id="paint1_linear_390_5017" x1="-2.23517e-07" y1="30.0006" x2="60" y2="30.0006" gradientUnits="userSpaceOnUse">
<stop stop-color="#223962"/>
<stop offset="0.526042" stop-color="#3277BC"/>
<stop offset="0.973958" stop-color="#48ABDF"/>
</linearGradient>
<linearGradient id="paint2_linear_390_5017" x1="39.2054" y1="43.0681" x2="46.9285" y2="43.0681" gradientUnits="userSpaceOnUse">
<stop stop-color="#223962"/>
<stop offset="0.526042" stop-color="#3277BC"/>
<stop offset="0.973958" stop-color="#48ABDF"/>
</linearGradient>
<clipPath id="clip0_390_5017">
<rect width="60" height="60" fill="white"/>
</clipPath>
</defs>
</svg>
