<svg width="60" height="60" viewBox="0 0 60 60" fill="none" xmlns="http://www.w3.org/2000/svg">
<g clip-path="url(#clip0_343_5816)">
<path d="M36.4937 38.8888C36.8005 38.5126 36.7442 37.9589 36.368 37.6521C34.5944 36.2063 32.3541 35.4092 30.0619 35.4092C24.5547 35.4092 20.075 39.8889 20.075 45.3961C20.075 50.9033 24.5547 55.3831 30.0619 55.3831C35.5691 55.3831 40.0489 50.9033 40.0489 45.3961C40.0489 43.9117 39.7307 42.4835 39.1032 41.1493C38.8966 40.7098 38.3728 40.5218 37.9334 40.7283C37.4939 40.9348 37.3058 41.4587 37.5124 41.8981C38.0292 42.9959 38.2902 44.1727 38.2902 45.3961C38.2902 49.9339 34.5988 53.6253 30.061 53.6253C25.5233 53.6253 21.8319 49.9339 21.8319 45.3961C21.8319 40.8584 25.5233 37.167 30.061 37.167C31.9507 37.167 33.7955 37.8226 35.2571 39.0144C35.6333 39.3212 36.187 39.2649 36.4937 38.8888Z" fill="url(#paint0_linear_343_5816)"/>
<path d="M30.0619 31.5061C26.2835 31.5061 22.7503 32.9967 20.1136 35.7029C19.7753 36.0509 19.7823 36.6072 20.1294 36.9456C20.4775 37.2849 21.0338 37.277 21.3722 36.9298C23.6758 34.5656 26.7616 33.2639 30.0619 33.2639C36.7521 33.2639 42.1943 38.7069 42.1943 45.3963C42.1943 52.0856 36.7512 57.5286 30.0619 57.5286C23.3726 57.5286 17.9296 52.0856 17.9296 45.3963C17.9296 43.5154 18.3479 41.7137 19.1723 40.0402C19.3868 39.6052 19.2075 39.0778 18.7724 38.8634C18.3374 38.6489 17.81 38.8274 17.5956 39.2633C16.6508 41.1802 16.1718 43.2438 16.1718 45.3963C16.1718 53.055 22.4032 59.2864 30.0619 59.2864C37.7207 59.2864 43.9521 53.055 43.9521 45.3963C43.9521 37.7375 37.7207 31.5061 30.0619 31.5061Z" fill="url(#paint1_linear_343_5816)"/>
<path d="M30.062 51.6707C30.5471 51.6707 30.9409 51.277 30.9409 50.7918V50.1766C32.0245 49.8277 32.8428 48.8873 33.0493 47.6586C33.2928 46.2092 32.5405 44.9129 31.1782 44.4312C30.9901 44.3644 30.8099 44.3047 30.6376 44.2467C29.9899 44.0296 29.5214 43.8731 29.2885 43.6103C29.0925 43.3897 29.0046 43.0839 29.0582 42.8123C29.111 42.5425 29.2938 42.3289 29.6014 42.1777C30.2474 41.8596 31.0393 42.4221 31.063 42.4396C31.4374 42.7464 31.9894 42.6928 32.2979 42.3192C32.6073 41.9448 32.5536 41.3911 32.1792 41.0817C31.9639 40.9042 31.5113 40.6256 30.9426 40.4603V40.0112C30.9426 39.5261 30.5489 39.1323 30.0637 39.1323C29.5786 39.1323 29.1848 39.5261 29.1848 40.0112V40.4551C29.0653 40.4937 28.9449 40.5412 28.8253 40.6001C28.0229 40.9956 27.4929 41.6609 27.3338 42.4739C27.1748 43.2843 27.4147 44.1456 27.9746 44.7766C28.5195 45.391 29.2437 45.6336 30.0813 45.9139C30.2448 45.9684 30.4153 46.0256 30.5937 46.0888C31.3926 46.371 31.3654 47.0767 31.317 47.3676C31.2203 47.9416 30.7695 48.5612 30.0075 48.5665C29.3676 48.5735 29.1268 48.432 28.392 47.9521C27.986 47.6867 27.4411 47.8009 27.1756 48.207C26.9102 48.613 27.0245 49.158 27.4305 49.4234C28.0545 49.8312 28.5353 50.1239 29.1848 50.2522V50.7927C29.1848 51.2779 29.5786 51.6716 30.0637 51.6716L30.062 51.6707Z" fill="url(#paint2_linear_343_5816)"/>
<path d="M17.2476 15.5635C17.2476 10.8086 13.3786 6.9397 8.62379 6.9397C3.86893 6.9397 0 10.8077 0 15.5635C0 20.3192 3.86893 24.1873 8.62379 24.1873C13.3786 24.1873 17.2476 20.3183 17.2476 15.5635ZM8.62379 22.4295C4.83748 22.4295 1.7578 19.3498 1.7578 15.5635C1.7578 11.7772 4.83836 8.6975 8.62379 8.6975C12.4092 8.6975 15.4898 11.7772 15.4898 15.5635C15.4898 19.3498 12.4101 22.4295 8.62379 22.4295Z" fill="url(#paint3_linear_343_5816)"/>
<path d="M51.7744 6.82476C51.2919 6.80454 50.8788 7.17808 50.8568 7.66235C50.8348 8.14751 51.2101 8.55795 51.6944 8.5808C55.3656 8.74779 58.2422 11.7607 58.2422 15.4398C58.2422 19.1188 55.1625 22.3057 51.3762 22.3057C47.5899 22.3057 44.5102 19.2261 44.5102 15.4398C44.5102 12.8883 45.913 10.561 48.17 9.36654C48.5989 9.13979 48.7624 8.60805 48.5356 8.17827C48.3089 7.74936 47.7771 7.58501 47.3473 7.81264C44.5129 9.31293 42.7524 12.2353 42.7524 15.4398C42.7524 20.1946 46.6214 24.0635 51.3762 24.0635C56.1311 24.0635 60 20.1946 60 15.4398C60 10.6849 56.3869 7.03482 51.7753 6.82476H51.7744Z" fill="url(#paint4_linear_343_5816)"/>
<path d="M30.062 17.2476C34.8169 17.2476 38.6858 13.3786 38.6858 8.62379C38.6858 3.86893 34.8169 0 30.062 0C25.3072 0 21.4382 3.86893 21.4382 8.62379C21.4382 13.3786 25.3072 17.2476 30.062 17.2476ZM30.062 1.7578C33.8483 1.7578 36.928 4.83748 36.928 8.62379C36.928 12.4101 33.8475 15.4898 30.062 15.4898C26.2766 15.4898 23.196 12.4092 23.196 8.62379C23.196 4.83836 26.2757 1.7578 30.062 1.7578Z" fill="url(#paint5_linear_343_5816)"/>
<path d="M28.9748 29.6479H31.1483C31.956 29.6479 32.6134 28.9905 32.6134 28.1828V27.1018H34.0451C34.5118 27.1018 34.9319 26.8434 35.1429 26.4277C35.3538 26.0119 35.3134 25.5197 35.0374 25.1436L31.2432 19.9704C30.9681 19.5959 30.5269 19.3718 30.062 19.3718C29.597 19.3718 29.1558 19.5951 28.8807 19.9704L25.0856 25.1436C24.8096 25.5197 24.7692 26.0111 24.9801 26.4277C25.1911 26.8434 25.6112 27.1018 26.0779 27.1018H27.5096V28.1828C27.5096 28.9905 28.167 29.6479 28.9748 29.6479ZM27.1185 25.3448L30.0611 21.3335L33.0036 25.3448H31.7336C31.2485 25.3448 30.8547 25.7386 30.8547 26.2237V27.891H29.2665V26.2237C29.2665 25.7386 28.8728 25.3448 28.3876 25.3448H27.1176H27.1185Z" fill="url(#paint6_linear_343_5816)"/>
<path d="M45.0771 24.0688C44.6965 23.8025 44.2061 23.7322 43.7667 23.8816L37.6917 25.9426C37.2505 26.092 36.935 26.4717 36.869 26.934C36.8031 27.3955 36.9991 27.849 37.3814 28.1162L38.5548 28.937L37.9352 29.8221C37.711 30.1429 37.6249 30.5314 37.6926 30.9172C37.7602 31.3022 37.9747 31.6388 38.2946 31.8629L40.0753 33.1101C40.3302 33.2885 40.6228 33.3746 40.9138 33.3746C41.3761 33.3746 41.8313 33.1567 42.1161 32.7506L42.7357 31.8647L43.9082 32.6856C44.2896 32.9528 44.7827 32.9826 45.194 32.7629C45.6053 32.5432 45.8541 32.1169 45.8444 31.6502L45.7029 25.236C45.6923 24.7711 45.4594 24.3351 45.078 24.0688H45.0771ZM43.0222 29.9205C42.8315 29.7869 42.5951 29.7342 42.3657 29.7746C42.1363 29.8151 41.9324 29.9451 41.7979 30.1359L40.8417 31.5017L39.5409 30.5911L40.4971 29.2262C40.7758 28.8289 40.6791 28.2805 40.2809 28.0019L39.2412 27.2733L43.953 25.6754L44.0629 30.6491L43.0222 29.9205Z" fill="url(#paint7_linear_343_5816)"/>
<path d="M17.3829 31.8637L18.0026 32.7496C18.2873 33.1557 18.7426 33.3736 19.2049 33.3736C19.4949 33.3736 19.7876 33.2875 20.0425 33.1091L21.8232 31.8619C22.144 31.6378 22.3575 31.3021 22.4252 30.9162C22.4929 30.5313 22.4068 30.1419 22.1826 29.822L21.563 28.9369L22.7363 28.1152C23.1178 27.848 23.3147 27.3945 23.2487 26.9331C23.1828 26.4716 22.8673 26.0919 22.4261 25.9417L16.3502 23.8806C15.9099 23.7312 15.4204 23.8015 15.0398 24.0678C14.6592 24.3341 14.4254 24.771 14.4149 25.2359L14.2734 31.6501C14.2628 32.1168 14.5125 32.5431 14.9238 32.7628C15.3351 32.9825 15.8273 32.9527 16.2096 32.6855L17.3829 31.8646V31.8637ZM16.1639 25.6745L20.8757 27.2723L19.8351 28.0009C19.6444 28.1345 19.5143 28.3384 19.4739 28.5687C19.4334 28.7981 19.4862 29.0345 19.6198 29.2252L20.576 30.5902L19.2752 31.5007L18.319 30.1358C18.1476 29.8914 17.8751 29.7605 17.5983 29.7605C17.4243 29.7605 17.2485 29.8123 17.0947 29.9196L16.054 30.6482L16.1639 25.6745Z" fill="url(#paint8_linear_343_5816)"/>
<path d="M8.62383 10.8755C6.03898 10.8755 3.93665 12.9787 3.93665 15.5627C3.93665 18.1466 6.03986 20.2499 8.62383 20.2499C11.2078 20.2499 13.311 18.1466 13.311 15.5627C13.311 12.9787 11.2078 10.8755 8.62383 10.8755ZM8.62383 18.4929C7.00841 18.4929 5.69445 17.179 5.69445 15.5636C5.69445 13.9481 7.00841 12.6342 8.62383 12.6342C10.2393 12.6342 11.5532 13.9481 11.5532 15.5636C11.5532 17.179 10.2393 18.4929 8.62383 18.4929Z" fill="url(#paint9_linear_343_5816)"/>
<path d="M26.1544 8.71599C26.6299 8.81355 27.094 8.50681 27.1915 8.03133C27.4693 6.67694 28.676 5.69433 30.0611 5.69433C31.6766 5.69433 32.9905 7.00829 32.9905 8.62371C32.9905 10.2391 31.6766 11.5531 30.0611 11.5531C29.3826 11.5531 28.7463 11.3281 28.2207 10.9027C27.8437 10.5977 27.29 10.6557 26.985 11.0337C26.68 11.4107 26.738 11.9644 27.1159 12.2694C27.9465 12.9409 28.9924 13.3109 30.062 13.3109C32.6469 13.3109 34.7492 11.2077 34.7492 8.62371C34.7492 6.03974 32.6469 3.93652 30.062 3.93652C27.8454 3.93652 25.9145 5.51064 25.4698 7.67889C25.3722 8.15437 25.6789 8.61931 26.1544 8.71599Z" fill="url(#paint10_linear_343_5816)"/>
<path d="M46.6882 15.4396C46.6882 18.0245 48.7914 20.1268 51.3754 20.1268C53.9594 20.1268 56.0626 18.0236 56.0626 15.4396C56.0626 12.8557 53.9603 10.7524 51.3754 10.7524C48.7906 10.7524 46.6882 12.8557 46.6882 15.4396ZM51.3754 12.5102C52.9908 12.5102 54.3048 13.8242 54.3048 15.4396C54.3048 17.055 52.9908 18.369 51.3754 18.369C49.76 18.369 48.446 17.055 48.446 15.4396C48.446 13.8242 49.76 12.5102 51.3754 12.5102Z" fill="url(#paint11_linear_343_5816)"/>
</g>
<defs>
<linearGradient id="paint0_linear_343_5816" x1="20.075" y1="45.3961" x2="40.0489" y2="45.3961" gradientUnits="userSpaceOnUse">
<stop stop-color="#223962"/>
<stop offset="0.526042" stop-color="#3277BC"/>
<stop offset="0.973958" stop-color="#48ABDF"/>
</linearGradient>
<linearGradient id="paint1_linear_343_5816" x1="16.1718" y1="45.3963" x2="43.9521" y2="45.3963" gradientUnits="userSpaceOnUse">
<stop stop-color="#223962"/>
<stop offset="0.526042" stop-color="#3277BC"/>
<stop offset="0.973958" stop-color="#48ABDF"/>
</linearGradient>
<linearGradient id="paint2_linear_343_5816" x1="27.0325" y1="45.402" x2="33.0947" y2="45.402" gradientUnits="userSpaceOnUse">
<stop stop-color="#223962"/>
<stop offset="0.526042" stop-color="#3277BC"/>
<stop offset="0.973958" stop-color="#48ABDF"/>
</linearGradient>
<linearGradient id="paint3_linear_343_5816" x1="-6.42522e-08" y1="15.5635" x2="17.2476" y2="15.5635" gradientUnits="userSpaceOnUse">
<stop stop-color="#223962"/>
<stop offset="0.526042" stop-color="#3277BC"/>
<stop offset="0.973958" stop-color="#48ABDF"/>
</linearGradient>
<linearGradient id="paint4_linear_343_5816" x1="42.7524" y1="15.4438" x2="60" y2="15.4438" gradientUnits="userSpaceOnUse">
<stop stop-color="#223962"/>
<stop offset="0.526042" stop-color="#3277BC"/>
<stop offset="0.973958" stop-color="#48ABDF"/>
</linearGradient>
<linearGradient id="paint5_linear_343_5816" x1="21.4382" y1="8.62379" x2="38.6858" y2="8.62379" gradientUnits="userSpaceOnUse">
<stop stop-color="#223962"/>
<stop offset="0.526042" stop-color="#3277BC"/>
<stop offset="0.973958" stop-color="#48ABDF"/>
</linearGradient>
<linearGradient id="paint6_linear_343_5816" x1="24.8462" y1="24.5099" x2="35.2768" y2="24.5099" gradientUnits="userSpaceOnUse">
<stop stop-color="#223962"/>
<stop offset="0.526042" stop-color="#3277BC"/>
<stop offset="0.973958" stop-color="#48ABDF"/>
</linearGradient>
<linearGradient id="paint7_linear_343_5816" x1="36.8564" y1="28.5895" x2="45.8447" y2="28.5895" gradientUnits="userSpaceOnUse">
<stop stop-color="#223962"/>
<stop offset="0.526042" stop-color="#3277BC"/>
<stop offset="0.973958" stop-color="#48ABDF"/>
</linearGradient>
<linearGradient id="paint8_linear_343_5816" x1="14.2731" y1="28.5886" x2="23.2613" y2="28.5886" gradientUnits="userSpaceOnUse">
<stop stop-color="#223962"/>
<stop offset="0.526042" stop-color="#3277BC"/>
<stop offset="0.973958" stop-color="#48ABDF"/>
</linearGradient>
<linearGradient id="paint9_linear_343_5816" x1="3.93665" y1="15.5627" x2="13.311" y2="15.5627" gradientUnits="userSpaceOnUse">
<stop stop-color="#223962"/>
<stop offset="0.526042" stop-color="#3277BC"/>
<stop offset="0.973958" stop-color="#48ABDF"/>
</linearGradient>
<linearGradient id="paint10_linear_343_5816" x1="25.4517" y1="8.62371" x2="34.7492" y2="8.62371" gradientUnits="userSpaceOnUse">
<stop stop-color="#223962"/>
<stop offset="0.526042" stop-color="#3277BC"/>
<stop offset="0.973958" stop-color="#48ABDF"/>
</linearGradient>
<linearGradient id="paint11_linear_343_5816" x1="46.6882" y1="15.4396" x2="56.0626" y2="15.4396" gradientUnits="userSpaceOnUse">
<stop stop-color="#223962"/>
<stop offset="0.526042" stop-color="#3277BC"/>
<stop offset="0.973958" stop-color="#48ABDF"/>
</linearGradient>
<clipPath id="clip0_343_5816">
<rect width="60" height="59.2872" fill="white"/>
</clipPath>
</defs>
</svg>
