<svg width="50" height="60" viewBox="0 0 50 60" fill="none" xmlns="http://www.w3.org/2000/svg">
<g clip-path="url(#clip0_343_4912)">
<path d="M32.1633 43.6422L29.9344 42.3555C29.9215 42.3484 29.9086 42.3426 29.8957 42.3355C29.8852 42.3297 29.8735 42.3238 29.8629 42.318C29.8465 42.3098 29.8289 42.3039 29.8114 42.2969C29.802 42.2934 29.7938 42.2898 29.7844 42.2863C29.7668 42.2805 29.7481 42.2746 29.7293 42.2699C29.7199 42.2676 29.7117 42.2641 29.7024 42.2617C29.6848 42.257 29.666 42.2547 29.6485 42.2512C29.6391 42.2488 29.6285 42.2477 29.6192 42.2453C29.6028 42.243 29.5852 42.2418 29.5676 42.2406C29.5559 42.2406 29.5442 42.2383 29.5336 42.2383C29.5184 42.2383 29.502 42.2383 29.4867 42.2383C29.4739 42.2383 29.461 42.2383 29.4469 42.2383C29.4328 42.2383 29.4188 42.2406 29.4035 42.2418C29.3895 42.243 29.3742 42.2441 29.3602 42.2465C29.3473 42.2488 29.3332 42.2512 29.3203 42.2547C29.3051 42.2582 29.2899 42.2605 29.2746 42.2652C29.2723 42.2652 29.2699 42.2652 29.2676 42.2664C29.2559 42.2699 29.2453 42.2734 29.2336 42.277C29.2196 42.2816 29.2055 42.2852 29.1914 42.2898C29.175 42.2957 29.1586 42.3027 29.1434 42.3098C29.134 42.3133 29.1246 42.3168 29.1153 42.3215C29.1141 42.3215 29.1117 42.3227 29.1106 42.3238C29.0942 42.332 29.0789 42.3402 29.0637 42.3496C29.0531 42.3555 29.0426 42.3602 29.0332 42.3672C29.0227 42.3742 29.0121 42.3813 29.0016 42.3895C28.9875 42.3988 28.9735 42.4082 28.9606 42.4176C28.9571 42.4199 28.9535 42.4234 28.95 42.427C28.8856 42.4785 28.8282 42.5371 28.7813 42.6027C28.7813 42.6039 28.7801 42.6051 28.7789 42.6063C28.7637 42.6285 28.7485 42.6508 28.7356 42.6742C28.7356 42.6742 28.7356 42.6742 28.7356 42.6754L27.4489 44.9043C27.2063 45.325 27.3504 45.8617 27.7711 46.1055C27.9094 46.1852 28.0606 46.2238 28.2094 46.2238C28.5129 46.2238 28.8082 46.0668 28.9711 45.7844L29.1492 45.4762C29.1457 46.6633 28.684 47.834 27.8086 48.7094C26.4375 50.0805 24.3422 50.4402 22.5938 49.6047C22.1555 49.3949 21.6305 49.5812 21.4219 50.0195C21.2121 50.4578 21.3985 50.9816 21.8367 51.1914C22.7063 51.6062 23.6379 51.809 24.5625 51.809C26.2102 51.809 27.8379 51.168 29.052 49.9527C30.3973 48.6074 31.0383 46.757 30.8848 44.9313L31.2879 45.1633C31.7074 45.4059 32.2453 45.2617 32.4891 44.841C32.7317 44.4203 32.5875 43.8836 32.1668 43.6398L32.1633 43.6422Z" fill="url(#paint0_linear_343_4912)"/>
<path d="M20.3367 48.3576C20.3601 48.3271 20.3812 48.2966 20.4 48.2638L21.6867 46.0349C21.9293 45.6142 21.7851 45.0775 21.3656 44.8337C20.9461 44.5912 20.4082 44.7353 20.1644 45.1548L19.9863 45.463C19.9898 44.2759 20.4515 43.1052 21.3269 42.2298C22.698 40.8587 24.7933 40.499 26.5418 41.3345C26.9801 41.5431 27.5039 41.358 27.7136 40.9197C27.9234 40.4814 27.7371 39.9576 27.2988 39.7478C24.8801 38.5923 21.9797 39.0904 20.0836 40.9865C18.7383 42.3318 18.0972 44.1822 18.2508 46.0068L17.8476 45.7748C17.4269 45.5322 16.8902 45.6763 16.6465 46.097C16.4039 46.5177 16.548 47.0544 16.9687 47.2982L19.1976 48.5849C19.2105 48.5931 19.2246 48.5978 19.2375 48.6048C19.2562 48.6142 19.2738 48.6248 19.2937 48.6318C19.3136 48.64 19.3347 48.647 19.3547 48.654C19.3711 48.6599 19.3875 48.6658 19.4051 48.6705C19.4285 48.6763 19.4519 48.681 19.4754 48.6857C19.4906 48.688 19.5058 48.6927 19.5211 48.6951C19.5457 48.6986 19.5715 48.6986 19.5961 48.6998C19.6101 48.6998 19.6242 48.7021 19.6383 48.7021C19.6746 48.7021 19.7109 48.6998 19.7472 48.6951C19.7508 48.6951 19.7554 48.6939 19.759 48.6927C19.7894 48.688 19.8211 48.6822 19.8515 48.6751C19.8597 48.6728 19.8691 48.6705 19.8773 48.6681C19.9031 48.6611 19.9277 48.6529 19.9523 48.6435C19.9629 48.6388 19.9734 48.6353 19.984 48.6306C19.9945 48.6259 20.0051 48.6224 20.0156 48.6177C20.0285 48.6119 20.0414 48.6037 20.0543 48.5966C20.0625 48.5919 20.0695 48.5884 20.0777 48.5837C20.141 48.5474 20.1972 48.504 20.2476 48.456C20.2523 48.4513 20.257 48.4466 20.2605 48.4419C20.2828 48.4197 20.3027 48.3962 20.3226 48.3716C20.3261 48.3669 20.3308 48.3623 20.3343 48.3576H20.3367Z" fill="url(#paint1_linear_343_4912)"/>
<path d="M34.5187 11.8C34.5187 9.30859 32.4914 7.28125 30 7.28125C27.5085 7.28125 25.4812 9.30859 25.4812 11.8C25.4812 14.2914 27.5085 16.3187 30 16.3187C32.4914 16.3187 34.5187 14.2914 34.5187 11.8ZM27.239 11.8C27.239 10.2777 28.4777 9.03906 30 9.03906C31.5222 9.03906 32.7609 10.2777 32.7609 11.8C32.7609 13.3223 31.5222 14.5609 30 14.5609C28.4777 14.5609 27.239 13.3223 27.239 11.8Z" fill="url(#paint2_linear_343_4912)"/>
<path d="M46.4426 0H2.63672C1.18242 0 0 1.18242 0 2.63672V37.343C0 38.7973 1.18242 39.9797 2.63672 39.9797H7.0418C7.52695 39.9797 7.9207 39.5859 7.9207 39.1008C7.9207 38.6156 7.52695 38.2219 7.0418 38.2219H2.63672C2.15156 38.2219 1.75781 37.8281 1.75781 37.343V2.63672C1.75781 2.15156 2.15156 1.75781 2.63672 1.75781H46.4426C46.9277 1.75781 47.3215 2.15156 47.3215 2.63672V37.343C47.3215 37.8281 46.9277 38.2219 46.4426 38.2219H36.3199C36.4945 37.5656 36.3586 36.8754 35.9531 36.3398H44.5605C45.0457 36.3398 45.4394 35.9461 45.4394 35.4609V4.51875C45.4394 4.03359 45.0457 3.63984 44.5605 3.63984H4.51875C4.03359 3.63984 3.63984 4.03359 3.63984 4.51875V11.2055C3.63984 11.6906 4.03359 12.0844 4.51875 12.0844C5.00391 12.0844 5.39766 11.6906 5.39766 11.2055V5.39766H43.6816V22.7109L36.0094 16.5727C35.659 16.2926 35.1551 16.3207 34.8387 16.6371L30.4758 21L21.3996 14.7164C21.0844 14.4973 20.6625 14.509 20.3602 14.7457L5.39766 26.3824V15.307C5.39766 14.8219 5.00391 14.4281 4.51875 14.4281C4.03359 14.4281 3.63984 14.8219 3.63984 15.307V35.4598C3.63984 35.9449 4.03359 36.3387 4.51875 36.3387H13.1801C12.7746 36.8754 12.6387 37.5645 12.8133 38.2207H11.1422C10.657 38.2207 10.2633 38.6145 10.2633 39.0996C10.2633 39.5848 10.657 39.9785 11.1422 39.9785H13.3934L13.4004 40.0008C13.1707 40.4684 12.9715 40.9512 12.8027 41.4434L11.25 42.2191C10.5012 42.5941 10.0348 43.3465 10.0348 44.1844V46.7555C10.0348 47.5934 10.5 48.3457 11.2488 48.7207L12.8016 49.4965C12.9703 49.9887 13.1695 50.4715 13.3992 50.9379L12.8496 52.5855C12.5848 53.3801 12.7875 54.2414 13.3805 54.8344L15.198 56.652C15.7898 57.2437 16.6512 57.4477 17.4469 57.1828L19.0945 56.6332C19.5621 56.8629 20.0449 57.0621 20.5371 57.2309L21.3129 58.7836C21.6879 59.5324 22.4402 59.9977 23.2781 59.9977H25.8492C26.6871 59.9977 27.4406 59.5324 27.8145 58.7836L28.5902 57.2309C29.0824 57.0621 29.5652 56.8629 30.0328 56.6332L31.6805 57.1816C32.475 57.4465 33.3363 57.2438 33.9293 56.6508L35.7469 54.8332C36.3387 54.2414 36.5426 53.3789 36.2777 52.5844L35.7281 50.9367C35.9578 50.4691 36.157 49.9863 36.3258 49.4941L37.8785 48.7184C38.6273 48.3434 39.0926 47.591 39.0926 46.7531V44.182C39.0926 43.3441 38.6273 42.5906 37.8785 42.2168L36.3258 41.441C36.157 40.9488 35.9566 40.466 35.7281 39.9984L35.7352 39.9762H46.4391C47.8934 39.9762 49.0758 38.7938 49.0758 37.3395V2.63672C49.0758 1.18242 47.8934 0 46.4391 0H46.4426ZM5.39766 28.6102L20.9297 16.5293L34.3922 25.8492C34.7918 26.1258 35.3391 26.0262 35.6156 25.6266C35.8922 25.227 35.7926 24.6797 35.393 24.4031L31.9453 22.016L35.5254 18.4359L43.6816 24.9609V30.1418L38.7176 26.7047C38.318 26.4281 37.7707 26.5277 37.4941 26.9273C37.2176 27.327 37.3172 27.8742 37.7168 28.1508L43.6816 32.2805V34.5809H34.2258L33.9316 34.2867C33.3398 33.6949 32.4773 33.491 31.6828 33.7559L30.0352 34.3055C29.5676 34.0758 29.0848 33.8766 28.5926 33.7078L27.8168 32.1551C27.4418 31.4063 26.6895 30.9398 25.8516 30.9398H23.2805C22.4426 30.9398 21.6891 31.4051 21.3152 32.1539L20.5395 33.7066C20.0473 33.8754 19.5656 34.0746 19.0969 34.3043L17.4492 33.7547C16.6547 33.4898 15.7934 33.6938 15.2004 34.2855L14.9062 34.5797H5.39766V28.6078V28.6102ZM37.0957 43.793C37.2457 43.868 37.3383 44.018 37.3383 44.1855V46.7566C37.3383 46.9242 37.2457 47.0742 37.0957 47.1492L35.2148 48.0902C35.0004 48.198 34.8387 48.3879 34.7684 48.6176C34.5727 49.2516 34.316 49.8703 34.0055 50.4574C33.893 50.6695 33.8719 50.9191 33.948 51.1465L34.6137 53.1434C34.6664 53.3027 34.6254 53.475 34.507 53.5934L32.6895 55.4109C32.5711 55.5293 32.3988 55.5703 32.2394 55.5176L30.2426 54.852C30.0141 54.7758 29.7656 54.7969 29.5535 54.9094C28.9664 55.2211 28.3477 55.4766 27.7137 55.6723C27.484 55.7426 27.2941 55.9043 27.1863 56.1188L26.2453 58.0008C26.1703 58.1508 26.0203 58.2434 25.8527 58.2434H23.2816C23.1141 58.2434 22.9641 58.1508 22.8891 58.0008L21.948 56.1188C21.8402 55.9043 21.6504 55.7426 21.4207 55.6723C20.7867 55.4777 20.168 55.2211 19.5809 54.9094C19.4531 54.8414 19.3113 54.8074 19.1695 54.8074C19.0758 54.8074 18.982 54.8227 18.8918 54.852L16.8949 55.5176C16.7355 55.5703 16.5633 55.5305 16.4449 55.4109L14.6273 53.5934C14.509 53.475 14.468 53.3027 14.5207 53.1434L15.1863 51.1465C15.2625 50.9191 15.2414 50.6695 15.1289 50.4574C14.8184 49.8703 14.5617 49.2504 14.366 48.6176C14.2957 48.3879 14.134 48.198 13.9195 48.0902L12.0375 47.1492C11.8875 47.0742 11.7949 46.9242 11.7949 46.7566V44.1855C11.7949 44.018 11.8875 43.868 12.0375 43.793L13.9195 42.852C14.134 42.7441 14.2957 42.5543 14.366 42.3246C14.5617 41.6906 14.8184 41.0719 15.1289 40.4848C15.2414 40.2727 15.2625 40.023 15.1863 39.7957L14.8687 38.8441C14.8687 38.8441 14.8652 38.8348 14.8641 38.8312L14.5207 37.8C14.468 37.6406 14.509 37.4684 14.6273 37.35L15.8895 36.0879C15.8895 36.0879 15.8953 36.082 15.8977 36.0797L16.4438 35.5336C16.5621 35.4152 16.7344 35.3742 16.8937 35.427L18.8906 36.0926C19.118 36.1687 19.3676 36.1477 19.5797 36.0352C20.168 35.7234 20.7867 35.4668 21.4195 35.2723C21.6492 35.202 21.8391 35.0402 21.9469 34.8258L22.8879 32.9437C22.9629 32.7938 23.1129 32.7012 23.2805 32.7012H25.8516C26.0191 32.7012 26.1691 32.7938 26.2441 32.9437L27.1852 34.8246C27.293 35.0391 27.4828 35.2008 27.7125 35.2711C28.3465 35.4668 28.9652 35.7234 29.5523 36.034C29.7645 36.1465 30.0141 36.1676 30.2414 36.0914L32.2383 35.4258C32.3977 35.373 32.5699 35.4141 32.6883 35.5324L33.2379 36.082C33.2379 36.082 33.2391 36.0832 33.2402 36.0844L34.5059 37.35C34.6242 37.4684 34.6652 37.6406 34.6125 37.8L34.2668 38.8383C34.2668 38.8383 34.2668 38.8418 34.2656 38.843L33.9469 39.7969C33.8707 40.0254 33.8918 40.2738 34.0043 40.4859C34.3148 41.073 34.5715 41.6918 34.7672 42.3258C34.8375 42.5555 34.9992 42.7453 35.2137 42.8531L37.0957 43.7941V43.793Z" fill="url(#paint3_linear_343_4912)"/>
</g>
<defs>
<linearGradient id="paint0_linear_343_4912" x1="21.3357" y1="47.0236" x2="32.6069" y2="47.0236" gradientUnits="userSpaceOnUse">
<stop stop-color="#223962"/>
<stop offset="0.526042" stop-color="#3277BC"/>
<stop offset="0.973958" stop-color="#48ABDF"/>
</linearGradient>
<linearGradient id="paint1_linear_343_4912" x1="16.5287" y1="43.9165" x2="27.7999" y2="43.9165" gradientUnits="userSpaceOnUse">
<stop stop-color="#223962"/>
<stop offset="0.526042" stop-color="#3277BC"/>
<stop offset="0.973958" stop-color="#48ABDF"/>
</linearGradient>
<linearGradient id="paint2_linear_343_4912" x1="25.4812" y1="11.8" x2="34.5187" y2="11.8" gradientUnits="userSpaceOnUse">
<stop stop-color="#223962"/>
<stop offset="0.526042" stop-color="#3277BC"/>
<stop offset="0.973958" stop-color="#48ABDF"/>
</linearGradient>
<linearGradient id="paint3_linear_343_4912" x1="-1.82821e-07" y1="29.9988" x2="49.0758" y2="29.9988" gradientUnits="userSpaceOnUse">
<stop stop-color="#223962"/>
<stop offset="0.526042" stop-color="#3277BC"/>
<stop offset="0.973958" stop-color="#48ABDF"/>
</linearGradient>
<clipPath id="clip0_343_4912">
<rect width="49.0793" height="60" fill="white"/>
</clipPath>
</defs>
</svg>
