<svg width="58" height="60" viewBox="0 0 58 60" fill="none" xmlns="http://www.w3.org/2000/svg">
<g clip-path="url(#clip0_343_5148)">
<path d="M57.0422 19.7649L51.5297 15.354C51.15 15.0505 50.6414 14.9919 50.2031 15.2028C49.7648 15.4137 49.4918 15.8473 49.4918 16.3337V17.3321H46.6863C46.2012 17.3321 45.8074 17.7259 45.8074 18.211C45.8074 18.6962 46.2012 19.0899 46.6863 19.0899H50.3707C50.8559 19.0899 51.2496 18.6962 51.2496 18.211V17.3813L55.452 20.7446L51.2496 24.1079V23.2782C51.2496 22.793 50.8559 22.3993 50.3707 22.3993H36.8965V21.3411C36.8965 20.1001 37.9066 19.0899 39.1477 19.0899H42.5848C43.0699 19.0899 43.4637 18.6962 43.4637 18.211C43.4637 17.7259 43.0699 17.3321 42.5848 17.3321H39.1477C36.9375 17.3321 35.1387 19.1309 35.1387 21.3411V23.2782V28.0079C33.1723 27.1876 31.016 26.7341 28.7566 26.7341C26.4973 26.7341 24.3867 27.17 22.3746 28.0044V23.2782C22.3746 23.2782 22.3746 23.277 22.3746 23.2759V21.3411C22.3746 19.1309 20.5758 17.3321 18.3656 17.3321H8.02148V16.3337C8.02148 15.8473 7.74961 15.4137 7.31016 15.2028C6.87188 14.9919 6.36328 15.0493 5.98242 15.354L0.471094 19.7649C0.172266 20.004 0 20.3614 0 20.7446C0 21.1278 0.171094 21.4852 0.471094 21.7243L5.98242 26.1341C6.21094 26.3169 6.48516 26.4106 6.76406 26.4106C6.94922 26.4106 7.13438 26.3696 7.31016 26.2852C7.74844 26.0743 8.02148 25.6407 8.02148 25.1544V24.1559H15.5496V33.2579C15.1699 33.7536 14.816 34.2692 14.4926 34.8059C14.243 35.222 14.3766 35.7622 14.7926 36.0118C15.2086 36.2614 15.7488 36.1278 15.9984 35.7118C16.4039 35.0368 16.8633 34.3958 17.3684 33.7946C17.3719 33.7899 17.3754 33.7864 17.3789 33.7817C17.4668 33.6786 17.5559 33.5755 17.6461 33.4747C17.6895 33.4266 17.734 33.3786 17.7773 33.3305C17.8266 33.2778 17.8746 33.2239 17.925 33.1712C17.9836 33.1091 18.0434 33.047 18.1043 32.9848C18.1359 32.952 18.1676 32.9204 18.1992 32.8887C18.273 32.8149 18.348 32.7399 18.423 32.6673C18.4301 32.6614 18.4359 32.6544 18.443 32.6485C19.2656 31.8587 20.1785 31.1614 21.1535 30.579C21.1828 30.5614 21.2121 30.5438 21.2414 30.5262C21.3141 30.4841 21.3867 30.4419 21.4605 30.4009C21.5215 30.3669 21.5824 30.3329 21.6434 30.2989C21.7055 30.2649 21.7676 30.2309 21.8309 30.1981C23.6977 29.2149 25.7625 28.6419 27.8777 28.5165V43.3641C27.8777 43.3934 27.8789 43.4227 27.8824 43.4509C27.8836 43.4637 27.8859 43.4755 27.8883 43.4884C27.8906 43.5048 27.893 43.52 27.8953 43.5364C27.8977 43.5505 27.9023 43.5645 27.9059 43.5786C27.9094 43.5927 27.9117 43.6055 27.9164 43.6196C27.9211 43.6337 27.9258 43.6477 27.9305 43.6606C27.9352 43.6735 27.9398 43.6876 27.9445 43.7005C27.9504 43.7134 27.9563 43.7263 27.9621 43.738C27.968 43.7509 27.975 43.7649 27.982 43.7778C27.9891 43.7895 27.9961 43.8012 28.0031 43.813C28.0113 43.8259 28.0184 43.8388 28.0266 43.8516C28.0348 43.8645 28.0453 43.8774 28.0547 43.8891C28.0629 43.8997 28.0699 43.9102 28.0781 43.9208C28.0957 43.9419 28.1133 43.9618 28.1332 43.9817C28.1332 43.9829 28.1355 43.9841 28.1367 43.9852L38.632 54.4805C36.0035 56.8173 32.5441 58.2399 28.759 58.2399C26.1938 58.2399 23.7023 57.5872 21.4875 56.3438L21.6844 56.147C22.2621 55.5692 22.2621 54.6294 21.6844 54.0516L21.0316 53.3989C21.0797 53.2899 21.1254 53.1774 21.1699 53.0649H22.0934C22.9102 53.0649 23.5746 52.4005 23.5746 51.5837V48.811C23.5746 47.9942 22.9102 47.3298 22.0934 47.3298H21.1699C21.1266 47.2173 21.0809 47.1059 21.0316 46.9958L21.6844 46.343C22.2621 45.7653 22.2621 44.8255 21.6844 44.2477L19.7238 42.2872C19.1461 41.7095 18.2062 41.7095 17.6285 42.2872L16.9758 42.9399C16.8656 42.8919 16.7543 42.8462 16.6418 42.8016V41.8782C16.6418 41.0614 15.9773 40.397 15.1605 40.397H14.182C14.2594 40.0161 14.3508 39.6364 14.4586 39.2614C14.5922 38.795 14.3227 38.3087 13.8551 38.1751C13.3887 38.0415 12.9023 38.311 12.7687 38.7786C12.6164 39.3106 12.4922 39.8532 12.3938 40.3981H12.3879C11.5711 40.3981 10.9066 41.0626 10.9066 41.8794V42.8028C10.7941 42.8462 10.6828 42.8919 10.5727 42.9411L9.91992 42.2884C9.34219 41.7106 8.40234 41.7106 7.82461 42.2884L5.86406 44.2489C5.58398 44.529 5.43047 44.9005 5.43047 45.2966C5.43047 45.6927 5.58516 46.0641 5.86406 46.3442L6.5168 46.997C6.46875 47.1071 6.42305 47.2184 6.37852 47.3309H5.45508C4.63828 47.3309 3.97383 47.9954 3.97383 48.8122V51.5848C3.97383 52.4016 4.63828 53.0661 5.45508 53.0661H6.37852C6.42188 53.1786 6.46758 53.2899 6.5168 53.4001L5.86406 54.0528C5.58398 54.3329 5.43047 54.7044 5.43047 55.1005C5.43047 55.4966 5.58516 55.868 5.86406 56.1481L7.82461 58.1087C8.40234 58.6864 9.34219 58.6864 9.91992 58.1087L10.5727 57.4559C10.6816 57.504 10.7941 57.5497 10.9066 57.593V58.5165C10.9066 59.3333 11.5711 59.9977 12.3879 59.9977H15.1605C15.9773 59.9977 16.6418 59.3333 16.6418 58.5165V57.593C16.7543 57.5497 16.8656 57.504 16.9758 57.4548L17.6285 58.1075C18.2062 58.6852 19.1461 58.6852 19.7238 58.1075L20.2031 57.6282C22.7836 59.1798 25.7262 59.9977 28.759 59.9977C33.3012 59.9977 37.4238 58.1661 40.4285 55.2048C40.4602 55.1802 40.4918 55.1544 40.5211 55.1262C40.5504 55.097 40.5762 55.0665 40.5996 55.0337C43.5609 52.029 45.3926 47.9063 45.3926 43.3641C45.3926 39.5684 44.1141 36.0669 41.966 33.2649V24.1548H49.4941V25.1532C49.4941 25.6395 49.7672 26.0731 50.2055 26.2841C50.3801 26.3684 50.5664 26.4095 50.7516 26.4095C51.0293 26.4095 51.3047 26.3157 51.5332 26.1329L57.0445 21.7231C57.3434 21.4841 57.5156 21.1266 57.5156 20.7434C57.5156 20.3602 57.3445 20.0028 57.0445 19.7637L57.0422 19.7649ZM18.0797 56.079C17.6402 55.6395 16.9641 55.5223 16.3992 55.7884C16.2281 55.8692 16.0488 55.943 15.8672 56.0087C15.2777 56.2196 14.8816 56.7809 14.8816 57.4032V58.2434H12.6609V57.4032C12.6609 56.7798 12.2648 56.2196 11.6766 56.0087C11.4949 55.943 11.3156 55.8692 11.1434 55.7884C10.5773 55.5235 9.90234 55.6395 9.46289 56.079L8.86992 56.672L7.29961 55.1016L7.89375 54.5075C8.3332 54.068 8.45039 53.3919 8.18437 52.827C8.10352 52.6559 8.02969 52.4766 7.96406 52.295C7.75195 51.7055 7.1918 51.3106 6.56953 51.3106H5.7293V49.0899H6.56953C7.1918 49.0899 7.75312 48.6938 7.96406 48.1055C8.02969 47.9239 8.10352 47.7446 8.18437 47.5723C8.45039 47.0063 8.3332 46.3313 7.89375 45.8919L7.30078 45.2989L8.87109 43.7286L9.46406 44.3227C9.90352 44.7622 10.5797 44.8794 11.1457 44.6134C11.3168 44.5325 11.4961 44.4587 11.6777 44.393C12.2672 44.1809 12.6621 43.6208 12.6621 42.9985V42.1583H13.1379C13.1379 42.1583 13.1402 42.1583 13.1414 42.1583C13.1426 42.1583 13.1449 42.1583 13.1461 42.1583H14.8816V42.9985C14.8816 43.6208 15.2777 44.1821 15.866 44.393C16.0477 44.4587 16.227 44.5325 16.3992 44.6134C16.9652 44.8782 17.6402 44.7622 18.0797 44.3227L18.6727 43.7298L20.243 45.3001L19.6488 45.8942C19.2094 46.3337 19.0922 47.0098 19.3582 47.5747C19.4391 47.747 19.5129 47.9262 19.5785 48.1067C19.7906 48.6962 20.3508 49.0911 20.973 49.0911H21.8133V51.3118H20.973C20.3508 51.3118 19.7895 51.7079 19.5785 52.2962C19.5129 52.4778 19.4391 52.6571 19.3582 52.8294C19.0922 53.3954 19.2094 54.0704 19.6488 54.5098L20.2418 55.1028L19.4555 55.8891C19.4555 55.8891 19.4508 55.8938 19.4484 55.8962L18.6715 56.6731L18.0785 56.079H18.0797ZM36.8965 28.8598V24.1583H40.2059V31.3055C39.2062 30.3587 38.0895 29.5325 36.8965 28.8598ZM39.873 53.2407L30.8789 44.2466H43.6066C43.4051 47.6872 42.0293 50.8173 39.8742 53.2407H39.873ZM29.6355 42.4888V28.5188C37.1402 28.9583 43.166 34.9852 43.6055 42.4888H29.6355ZM20.4434 28.9583C20.3977 28.9852 20.352 29.0134 20.3062 29.0403C20.2254 29.0884 20.1457 29.1364 20.0648 29.1845C20.0086 29.2184 19.9535 29.2536 19.8984 29.2887C19.7941 29.3544 19.691 29.4212 19.5879 29.488C19.5586 29.5079 19.5281 29.5278 19.4988 29.5477C19.3711 29.6333 19.2445 29.72 19.1191 29.8091C19.1133 29.8126 19.1086 29.8173 19.1027 29.8208C18.4699 30.272 17.8699 30.7641 17.3062 31.2997V24.1583H20.6156V28.8598C20.5898 28.8739 20.5652 28.8903 20.5395 28.9044C20.5078 28.922 20.475 28.9395 20.4434 28.9583ZM7.14258 22.4005C6.65742 22.4005 6.26367 22.7942 6.26367 23.2794V24.1091L2.06016 20.7458L6.2625 17.3825V18.2122C6.2625 18.6973 6.65625 19.0911 7.14141 19.0911H18.3645C19.6055 19.0911 20.6156 20.1012 20.6156 21.3423V22.4005H7.14258Z" fill="url(#paint0_linear_343_5148)"/>
<path d="M21.927 8.64375C21.4582 8.76914 21.1805 9.25195 21.3059 9.7207C22.132 12.7957 24.7664 15.0223 27.8766 15.3785V15.8027C27.8766 16.2879 28.2703 16.6816 28.7555 16.6816C29.2406 16.6816 29.6344 16.2879 29.6344 15.8027V15.3785C33.4758 14.9402 36.4699 11.6719 36.4699 7.71562C36.4711 3.46055 33.0105 0 28.7566 0C25.5176 0 22.6008 2.04609 21.5004 5.0918C21.3352 5.54883 21.5719 6.05156 22.0277 6.2168C22.4848 6.38203 22.9875 6.14531 23.1527 5.68945C24.0035 3.3375 26.2547 1.75781 28.7566 1.75781C32.0414 1.75781 34.7133 4.42969 34.7133 7.71445C34.7133 10.9992 32.0414 13.6711 28.7566 13.6711C26.0672 13.6711 23.7012 11.8582 23.0039 9.26367C22.8785 8.79492 22.3957 8.51719 21.927 8.64258V8.64375Z" fill="url(#paint1_linear_343_5148)"/>
<path d="M27.4336 10.6383C27.5989 10.8035 27.8215 10.8961 28.0547 10.8961C28.2879 10.8961 28.5117 10.8035 28.6758 10.6383L32.761 6.55312C33.1043 6.20977 33.1043 5.65313 32.761 5.30977C32.4176 4.96641 31.861 4.96641 31.5176 5.30977L28.0535 8.77383L26.0391 6.75937C25.6957 6.41602 25.1391 6.41602 24.7957 6.75937C24.4524 7.10273 24.4524 7.65937 24.7957 8.00273L27.4313 10.6383H27.4336Z" fill="url(#paint2_linear_343_5148)"/>
<path d="M15.7769 46.84C15.5015 46.5635 15.1195 46.4053 14.7292 46.4053H12.8132C12.4171 46.4053 12.0457 46.56 11.7656 46.8389L10.4109 48.1936C10.1308 48.4736 9.97729 48.8451 9.97729 49.2412V51.1572C9.97729 51.5533 10.132 51.9248 10.4109 52.2049L11.7656 53.5596C12.0457 53.8397 12.4171 53.9932 12.8132 53.9932H14.7292C15.1195 53.9932 15.5015 53.835 15.7769 53.5596L17.1316 52.2049C17.4117 51.9248 17.5652 51.5533 17.5652 51.1572V49.2412C17.5652 48.8451 17.4105 48.4736 17.1316 48.1936L15.7769 46.8389V46.84ZM15.8074 51.0436L14.6144 52.2365H12.9281L11.7351 51.0436V49.3572L12.9281 48.1643H14.6144L15.8074 49.3572V51.0436Z" fill="url(#paint3_linear_343_5148)"/>
<path d="M29.6355 19.0581C29.6355 18.5729 29.2417 18.1792 28.7566 18.1792C28.2714 18.1792 27.8777 18.5729 27.8777 19.0581V20.3097C27.8777 20.7948 28.2714 21.1886 28.7566 21.1886C29.2417 21.1886 29.6355 20.7948 29.6355 20.3097V19.0581Z" fill="url(#paint4_linear_343_5148)"/>
<path d="M28.7566 22.6865C28.2714 22.6865 27.8777 23.0803 27.8777 23.5654V24.817C27.8777 25.3021 28.2714 25.6959 28.7566 25.6959C29.2417 25.6959 29.6355 25.3021 29.6355 24.817V23.5654C29.6355 23.0803 29.2417 22.6865 28.7566 22.6865Z" fill="url(#paint5_linear_343_5148)"/>
</g>
<defs>
<linearGradient id="paint0_linear_343_5148" x1="-2.14262e-07" y1="37.5375" x2="57.5156" y2="37.5375" gradientUnits="userSpaceOnUse">
<stop stop-color="#223962"/>
<stop offset="0.526042" stop-color="#3277BC"/>
<stop offset="0.973958" stop-color="#48ABDF"/>
</linearGradient>
<linearGradient id="paint1_linear_343_5148" x1="21.2758" y1="8.34083" x2="36.4699" y2="8.34083" gradientUnits="userSpaceOnUse">
<stop stop-color="#223962"/>
<stop offset="0.526042" stop-color="#3277BC"/>
<stop offset="0.973958" stop-color="#48ABDF"/>
</linearGradient>
<linearGradient id="paint2_linear_343_5148" x1="24.5382" y1="7.97417" x2="33.0185" y2="7.97417" gradientUnits="userSpaceOnUse">
<stop stop-color="#223962"/>
<stop offset="0.526042" stop-color="#3277BC"/>
<stop offset="0.973958" stop-color="#48ABDF"/>
</linearGradient>
<linearGradient id="paint3_linear_343_5148" x1="9.97729" y1="50.1992" x2="17.5652" y2="50.1992" gradientUnits="userSpaceOnUse">
<stop stop-color="#223962"/>
<stop offset="0.526042" stop-color="#3277BC"/>
<stop offset="0.973958" stop-color="#48ABDF"/>
</linearGradient>
<linearGradient id="paint4_linear_343_5148" x1="27.8777" y1="19.6839" x2="29.6355" y2="19.6839" gradientUnits="userSpaceOnUse">
<stop stop-color="#223962"/>
<stop offset="0.526042" stop-color="#3277BC"/>
<stop offset="0.973958" stop-color="#48ABDF"/>
</linearGradient>
<linearGradient id="paint5_linear_343_5148" x1="27.8777" y1="24.1912" x2="29.6355" y2="24.1912" gradientUnits="userSpaceOnUse">
<stop stop-color="#223962"/>
<stop offset="0.526042" stop-color="#3277BC"/>
<stop offset="0.973958" stop-color="#48ABDF"/>
</linearGradient>
<clipPath id="clip0_343_5148">
<rect width="57.5121" height="60" fill="white"/>
</clipPath>
</defs>
</svg>
