<svg width="49" height="60" viewBox="0 0 49 60" fill="none" xmlns="http://www.w3.org/2000/svg">
<g clip-path="url(#clip0_343_5737)">
<path d="M35.3283 9.96186C35.3283 9.15447 34.6709 8.49707 33.8635 8.49707H5.9599C5.15251 8.49707 4.49512 9.15447 4.49512 9.96186V13.5594V18.5033V23.4484V28.3936C4.49512 28.8787 4.88885 29.2724 5.37399 29.2724H34.4494C34.9346 29.2724 35.3283 28.8787 35.3283 28.3936V23.4484V18.5033V13.5582V9.96068V9.96186ZM33.5705 17.6244H15.1892V14.4371H33.5705V17.6244ZM13.4315 17.6244H6.25286V14.4371H13.4315V17.6244ZM6.25286 19.3822H13.4315V22.5696H6.25286V19.3822ZM15.1892 22.5696V19.3822H33.5705V22.5696H15.1892ZM6.25286 10.2548H33.5705V12.6805H6.25286V10.2548ZM6.25286 24.3273H13.4315V27.5147H6.25286V24.3273ZM15.1892 27.5147V24.3273H33.5705V27.5147H15.1892Z" fill="url(#paint0_linear_343_5737)"/>
<path d="M44.3549 32.0343H43.9834V2.0507C43.9834 0.919886 43.0635 0 41.9327 0H5.93297C4.80216 0 3.88227 0.919886 3.88227 2.0507V3.79087H2.0507C0.919886 3.79087 0 4.71075 0 5.84157V53.5643C0 54.6951 0.919886 55.615 2.0507 55.615H6.14742C6.63255 55.615 7.02629 55.2213 7.02629 54.7361C7.02629 54.251 6.63255 53.8573 6.14742 53.8573H2.0507C1.88899 53.8573 1.75774 53.726 1.75774 53.5643V5.84157C1.75774 5.67986 1.88899 5.54861 2.0507 5.54861H29.1153C29.6004 5.54861 29.9941 5.15488 29.9941 4.66974C29.9941 4.1846 29.6004 3.79087 29.1153 3.79087H5.64001V2.0507C5.64001 1.88899 5.77126 1.75774 5.93297 1.75774H41.9327C42.0944 1.75774 42.2257 1.88899 42.2257 2.0507V32.0343H40.1012V5.84157C40.1012 4.71075 39.1813 3.79087 38.0505 3.79087H33.2167C32.7315 3.79087 32.3378 4.1846 32.3378 4.66974C32.3378 5.15488 32.7315 5.54861 33.2167 5.54861H38.0505C38.2122 5.54861 38.3434 5.67986 38.3434 5.84157V31.7741C37.7399 31.5363 37.2009 31.1425 36.779 30.6176C36.6126 30.409 36.3595 30.2883 36.0935 30.2883C35.8275 30.2883 35.5744 30.409 35.408 30.6176C34.6861 31.5187 33.6174 32.0355 32.4761 32.0355H27.8321C25.6092 32.0355 23.801 33.8436 23.801 36.0666V37.8513C23.801 38.3364 24.1948 38.7301 24.6799 38.7301C25.165 38.7301 25.5588 38.3364 25.5588 37.8513V36.0666C25.5588 34.8127 26.5783 33.7932 27.8321 33.7932H32.4761C33.8213 33.7932 35.0963 33.3069 36.0935 32.4339C37.0907 33.3069 38.3657 33.7932 39.7109 33.7932H44.3549C45.6088 33.7932 46.6283 34.8127 46.6283 36.0666V45.2314C46.6283 47.7333 45.5373 50.0992 43.6342 51.7234L36.0935 58.1579L28.5528 51.7234C26.6497 50.0992 25.5588 47.7333 25.5588 45.2314V41.9527C25.5588 41.4675 25.165 41.0738 24.6799 41.0738C24.1948 41.0738 23.801 41.4675 23.801 41.9527V45.2314C23.801 48.2489 25.117 51.1023 27.4126 53.0604L28.3489 53.8596H10.2488C9.76368 53.8596 9.36995 54.2533 9.36995 54.7385C9.36995 55.2236 9.76368 55.6174 10.2488 55.6174H30.409L35.1268 59.6426C35.4068 59.8816 35.7513 60.0012 36.0947 60.0012C36.438 60.0012 36.7825 59.8816 37.0626 59.6426L44.7756 53.0604C47.07 51.1023 48.3872 48.2489 48.3872 45.2314V36.0666C48.3872 33.8436 46.579 32.0355 44.3561 32.0355L44.3549 32.0343Z" fill="url(#paint1_linear_343_5737)"/>
<path d="M36.0935 51.9705C40.6238 51.9705 44.3092 48.2851 44.3092 43.7548C44.3092 39.2245 40.6238 35.5391 36.0935 35.5391C31.5632 35.5391 27.8778 39.2245 27.8778 43.7548C27.8778 48.2851 31.5632 51.9705 36.0935 51.9705ZM36.0935 37.2956C39.6547 37.2956 42.5515 40.1924 42.5515 43.7536C42.5515 47.3148 39.6547 50.2115 36.0935 50.2115C32.5323 50.2115 29.6356 47.3148 29.6356 43.7536C29.6356 40.1924 32.5323 37.2956 36.0935 37.2956Z" fill="url(#paint2_linear_343_5737)"/>
<path d="M34.7189 46.8464C34.89 47.0175 35.115 47.1042 35.34 47.1042C35.565 47.1042 35.79 47.0187 35.9611 46.8464L40.6871 42.1205C41.0304 41.7771 41.0304 41.2205 40.6871 40.8771C40.3437 40.5338 39.7871 40.5338 39.4438 40.8771L35.34 44.9809L33.1323 42.7732C32.7889 42.4298 32.2323 42.4298 31.889 42.7732C31.5456 43.1165 31.5456 43.6731 31.889 44.0165L34.7178 46.8453L34.7189 46.8464Z" fill="url(#paint3_linear_343_5737)"/>
<path d="M5.37399 49.7324H14.6889C15.174 49.7324 15.5677 49.3386 15.5677 48.8535C15.5677 48.3683 15.174 47.9746 14.6889 47.9746H5.37399C4.88885 47.9746 4.49512 48.3683 4.49512 48.8535C4.49512 49.3386 4.88885 49.7324 5.37399 49.7324Z" fill="url(#paint4_linear_343_5737)"/>
<path d="M21.0191 47.9746H18.1704C17.6852 47.9746 17.2915 48.3683 17.2915 48.8535C17.2915 49.3386 17.6852 49.7324 18.1704 49.7324H21.0191C21.5042 49.7324 21.898 49.3386 21.898 48.8535C21.898 48.3683 21.5042 47.9746 21.0191 47.9746Z" fill="url(#paint5_linear_343_5737)"/>
<path d="M5.37399 45.9614H21.0191C21.5042 45.9614 21.898 45.5676 21.898 45.0825C21.898 44.5973 21.5042 44.2036 21.0191 44.2036H5.37399C4.88885 44.2036 4.49512 44.5973 4.49512 45.0825C4.49512 45.5676 4.88885 45.9614 5.37399 45.9614Z" fill="url(#paint6_linear_343_5737)"/>
<path d="M5.37399 42.0699H21.0191C21.5042 42.0699 21.898 41.6762 21.898 41.191C21.898 40.7059 21.5042 40.3121 21.0191 40.3121H20.63V37.3591C20.63 36.874 20.2363 36.4803 19.7512 36.4803C19.266 36.4803 18.8723 36.874 18.8723 37.3591V40.3121H16.2603V32.0742C16.2603 31.589 15.8665 31.1953 15.3814 31.1953C14.8963 31.1953 14.5025 31.589 14.5025 32.0742V40.3121H11.8905V36.0385C11.8905 35.5533 11.4968 35.1596 11.0117 35.1596C10.5265 35.1596 10.1328 35.5533 10.1328 36.0385V40.3121H7.52078V34.7167C7.52078 34.2315 7.12705 33.8378 6.64191 33.8378C6.15677 33.8378 5.76304 34.2315 5.76304 34.7167V40.3121H5.37399C4.88885 40.3121 4.49512 40.7059 4.49512 41.191C4.49512 41.6762 4.88885 42.0699 5.37399 42.0699Z" fill="url(#paint7_linear_343_5737)"/>
</g>
<defs>
<linearGradient id="paint0_linear_343_5737" x1="4.49512" y1="18.8848" x2="35.3283" y2="18.8848" gradientUnits="userSpaceOnUse">
<stop stop-color="#223962"/>
<stop offset="0.526042" stop-color="#3277BC"/>
<stop offset="0.973958" stop-color="#48ABDF"/>
</linearGradient>
<linearGradient id="paint1_linear_343_5737" x1="-1.80256e-07" y1="30.0006" x2="48.3872" y2="30.0006" gradientUnits="userSpaceOnUse">
<stop stop-color="#223962"/>
<stop offset="0.526042" stop-color="#3277BC"/>
<stop offset="0.973958" stop-color="#48ABDF"/>
</linearGradient>
<linearGradient id="paint2_linear_343_5737" x1="27.8778" y1="43.7548" x2="44.3092" y2="43.7548" gradientUnits="userSpaceOnUse">
<stop stop-color="#223962"/>
<stop offset="0.526042" stop-color="#3277BC"/>
<stop offset="0.973958" stop-color="#48ABDF"/>
</linearGradient>
<linearGradient id="paint3_linear_343_5737" x1="31.6315" y1="43.8619" x2="40.9446" y2="43.8619" gradientUnits="userSpaceOnUse">
<stop stop-color="#223962"/>
<stop offset="0.526042" stop-color="#3277BC"/>
<stop offset="0.973958" stop-color="#48ABDF"/>
</linearGradient>
<linearGradient id="paint4_linear_343_5737" x1="4.49512" y1="48.8535" x2="15.5677" y2="48.8535" gradientUnits="userSpaceOnUse">
<stop stop-color="#223962"/>
<stop offset="0.526042" stop-color="#3277BC"/>
<stop offset="0.973958" stop-color="#48ABDF"/>
</linearGradient>
<linearGradient id="paint5_linear_343_5737" x1="17.2915" y1="48.8535" x2="21.898" y2="48.8535" gradientUnits="userSpaceOnUse">
<stop stop-color="#223962"/>
<stop offset="0.526042" stop-color="#3277BC"/>
<stop offset="0.973958" stop-color="#48ABDF"/>
</linearGradient>
<linearGradient id="paint6_linear_343_5737" x1="4.49512" y1="45.0825" x2="21.898" y2="45.0825" gradientUnits="userSpaceOnUse">
<stop stop-color="#223962"/>
<stop offset="0.526042" stop-color="#3277BC"/>
<stop offset="0.973958" stop-color="#48ABDF"/>
</linearGradient>
<linearGradient id="paint7_linear_343_5737" x1="4.49512" y1="36.6326" x2="21.898" y2="36.6326" gradientUnits="userSpaceOnUse">
<stop stop-color="#223962"/>
<stop offset="0.526042" stop-color="#3277BC"/>
<stop offset="0.973958" stop-color="#48ABDF"/>
</linearGradient>
<clipPath id="clip0_343_5737">
<rect width="48.386" height="60" fill="white"/>
</clipPath>
</defs>
</svg>
