<svg width="60" height="60" viewBox="0 0 60 60" fill="none" xmlns="http://www.w3.org/2000/svg">
<g clip-path="url(#clip0_343_5249)">
<path d="M59.0414 47.3051V28.8762C59.0414 28.391 58.6477 27.9973 58.1625 27.9973H57.8121C57.8789 26.843 58.2305 25.7648 58.8398 24.859C59.5992 23.7281 60 22.4109 60 21.0504V1.84219C60 1.35703 59.6063 0.963281 59.1211 0.963281H51.7406C51.2637 0.376172 50.5371 0 49.7238 0H49.3184C48.5051 0 47.7785 0.376172 47.3016 0.963281H38.6684C38.1832 0.963281 37.7895 1.35703 37.7895 1.84219C37.7895 2.32734 38.1832 2.72109 38.6684 2.72109H43.6746C43.1871 3.19336 42.8824 3.8543 42.8824 4.58555V8.6168C42.6187 8.52656 42.3375 8.47734 42.0445 8.47734H41.6391C40.2258 8.47734 39.0738 9.61172 39.0434 11.018C39.0434 11.0285 39.0434 11.0402 39.0434 11.0508C39.0563 15.4488 39.0129 15.6516 39.0867 16.5645H29.7563V2.72109H35.1551C35.6402 2.72109 36.034 2.32734 36.034 1.84219C36.034 1.35703 35.6402 0.963281 35.1551 0.963281H28.8773C28.3922 0.963281 27.9984 1.35703 27.9984 1.84219V2.19258C26.8453 2.12578 25.7672 1.77422 24.8602 1.16484C23.7281 0.405469 22.4109 0.0046875 21.0492 0.0046875C21.034 0.0046875 1.85156 0 1.8375 0C1.35234 0 0.958594 0.39375 0.958594 0.878906V8.26758C0.373828 8.74453 0 9.46875 0 10.2809V10.6863C0 11.4973 0.373828 12.2227 0.958594 12.6996V22.4719C0.958594 22.957 1.35234 23.3508 1.8375 23.3508C2.32266 23.3508 2.71641 22.957 2.71641 22.4719V16.3266C3.18867 16.8176 3.85195 17.1234 4.58555 17.1234H8.6168C8.52656 17.3871 8.47734 17.6684 8.47734 17.9613V18.3668C8.47734 19.7801 9.61172 20.9332 11.018 20.9625C11.0285 20.9625 11.0391 20.9625 11.0508 20.9625C15.4629 20.9496 15.6492 20.993 16.5598 20.9191V30.2437H2.71641V25.984C2.71641 25.4988 2.32266 25.1051 1.8375 25.1051C1.35234 25.1051 0.958594 25.4988 0.958594 25.984V31.1227C0.958594 31.6078 1.35234 32.0016 1.8375 32.0016H2.18789C2.12109 33.1559 1.76953 34.234 1.16016 35.1398C0.400781 36.2695 0 37.5867 0 38.9484V58.1602C0 58.6453 0.39375 59.0391 0.878906 59.0391H8.26289C8.73984 59.6238 9.46523 59.9977 10.2762 59.9977H10.6816C11.4926 59.9977 12.218 59.6238 12.6949 59.0391H31.1238C31.609 59.0391 32.0027 58.6453 32.0027 58.1602V57.8098C33.157 57.8766 34.2352 58.2281 35.141 58.8375C36.2719 59.5969 37.5891 59.9977 38.9496 59.9977H58.1613C58.6465 59.9977 59.0402 59.6039 59.0402 59.1188V51.7348C59.625 51.2578 59.9988 50.5336 59.9988 49.7215V49.316C59.9988 48.5051 59.625 47.7797 59.0402 47.3027L59.0414 47.3051ZM52.3195 2.72109H58.2422V6.88008C57.9785 6.78984 57.6973 6.74062 57.4043 6.74062H56.9988C56.7059 6.74062 56.4234 6.78984 56.1609 6.88008V5.80195C56.1609 4.36992 54.9961 3.20625 53.5652 3.20625H53.1598C52.8668 3.20625 52.5844 3.25547 52.3219 3.3457V2.71992L52.3195 2.72109ZM40.7988 11.073C40.7988 10.6113 41.175 10.2352 41.6367 10.2352H42.0422C42.5039 10.2352 42.8801 10.6113 42.8801 11.073V15.307C42.8801 15.7922 43.2738 16.1859 43.759 16.1859C44.2441 16.1859 44.6379 15.7922 44.6379 15.307V4.58555C44.6379 4.12266 45.0141 3.74766 45.4758 3.74766H45.8812C46.343 3.74766 46.7191 4.12383 46.7191 4.58555V13.166C46.7191 13.6512 47.1129 14.0449 47.598 14.0449C48.0832 14.0449 48.477 13.6512 48.477 13.166V2.5957C48.477 2.13398 48.8531 1.75781 49.3148 1.75781H49.7203C50.1832 1.75781 50.5582 2.13398 50.5582 2.5957V13.1484C50.5582 13.6336 50.952 14.0273 51.4371 14.0273C51.9223 14.0273 52.316 13.6336 52.316 13.1484V5.80312C52.316 5.34141 52.6922 4.96523 53.1539 4.96523H53.5594C54.0211 4.96523 54.3973 5.34141 54.3973 5.80312V14.4375C54.3973 14.9227 54.791 15.3164 55.2762 15.3164C55.7613 15.3164 56.1551 14.9227 56.1551 14.4375V9.3375C56.1551 8.87461 56.5312 8.49961 56.993 8.49961H57.3984C57.8602 8.49961 58.2363 8.87578 58.2363 9.3375V21.0504C58.2363 22.0617 57.9387 23.0402 57.375 23.8793C56.5711 25.0758 56.1152 26.4926 56.0461 27.9984H44.6344V25.4484C44.6344 24.4945 44.2078 23.6039 43.4637 23.0074C42.8813 22.5398 42.4336 21.9234 42.1711 21.225L41.5254 19.5117C40.4262 16.5961 40.9172 14.6367 40.7953 11.0742L40.7988 11.073ZM48.982 39.0422C48.9715 39.0422 48.9598 39.0422 48.9492 39.0422C44.5488 39.0551 44.3496 39.0117 43.4402 39.0855V29.7563H57.2824V43.6793C56.8102 43.1883 56.1469 42.8824 55.4133 42.8824H51.382C51.4723 42.6187 51.5215 42.3375 51.5215 42.0445V41.6391C51.5215 40.2258 50.3871 39.0738 48.9809 39.0434L48.982 39.0422ZM2.71641 1.75781H6.88125C6.78984 2.02266 6.73945 2.30508 6.73945 2.60039V3.00586C6.73945 3.29883 6.78867 3.58125 6.87891 3.84375H5.80078C4.36875 3.84375 3.20508 5.00859 3.20508 6.43945V6.84492C3.20508 7.13789 3.2543 7.42031 3.34453 7.68281H2.71523V1.75781H2.71641ZM11.073 19.2047C10.6102 19.2047 10.2352 18.8285 10.2352 18.3668V17.9613C10.2352 17.4996 10.6113 17.1234 11.073 17.1234H15.307C15.7922 17.1234 16.1859 16.7297 16.1859 16.2445C16.1859 15.7594 15.7922 15.3656 15.307 15.3656H4.58555C4.12383 15.3656 3.74766 14.9895 3.74766 14.5277V14.1223C3.74766 13.6605 4.12383 13.2844 4.58555 13.2844H13.166C13.6512 13.2844 14.0449 12.8906 14.0449 12.4055C14.0449 11.9203 13.6512 11.5266 13.166 11.5266H2.5957C2.13398 11.5266 1.75781 11.1504 1.75781 10.6887V10.2832C1.75781 9.82148 2.13398 9.44531 2.5957 9.44531H13.1484C13.6336 9.44531 14.0273 9.05156 14.0273 8.56641C14.0273 8.08125 13.6336 7.6875 13.1484 7.6875H5.80312C5.34141 7.6875 4.96523 7.31133 4.96523 6.84961V6.44414C4.96523 5.98242 5.34141 5.60625 5.80312 5.60625H14.4375C14.9227 5.60625 15.3164 5.2125 15.3164 4.72734C15.3164 4.24219 14.9227 3.84844 14.4375 3.84844H9.3375C8.87461 3.84844 8.49961 3.47227 8.49961 3.01055V2.60508C8.49961 2.14336 8.87578 1.76719 9.3375 1.76719H21.0504C22.0617 1.76719 23.0402 2.06484 23.8793 2.62852C25.0758 3.43242 26.4926 3.88828 27.9984 3.95742V15.3691H25.4484C24.4945 15.3691 23.6039 15.7957 23.0074 16.5398C22.5398 17.1223 21.9234 17.5688 21.225 17.8324L19.5117 18.4781C16.5938 19.5773 14.6297 19.0863 11.0742 19.2082L11.073 19.2047ZM7.68047 57.2824H1.75781V53.1188C2.02148 53.209 2.30273 53.2582 2.5957 53.2582H3.00117C3.29414 53.2582 3.57656 53.209 3.83906 53.1188V54.1969C3.83906 55.6289 5.00391 56.7926 6.43477 56.7926H6.84023C7.1332 56.7926 7.41562 56.7434 7.67812 56.6531V57.2824H7.68047ZM15.3609 44.693V55.4145C15.3609 55.8762 14.9848 56.2523 14.523 56.2523H14.1176C13.6547 56.2523 13.2797 55.8762 13.2797 55.4145V46.834C13.2797 46.3488 12.8859 45.9551 12.4008 45.9551C11.9156 45.9551 11.5219 46.3488 11.5219 46.834V57.4043C11.5219 57.866 11.1457 58.2422 10.684 58.2422H10.2785C9.81563 58.2422 9.44062 57.866 9.44062 57.4043V46.8516C9.44062 46.3664 9.04688 45.9727 8.56172 45.9727C8.07656 45.9727 7.68281 46.3664 7.68281 46.8516V54.1969C7.68281 54.6598 7.30664 55.0348 6.84492 55.0348H6.43945C5.97773 55.0348 5.60156 54.6586 5.60156 54.1969V45.5637C5.60156 45.0785 5.20781 44.6848 4.72266 44.6848C4.2375 44.6848 3.84375 45.0785 3.84375 45.5637V50.6637C3.84375 51.1254 3.46758 51.5016 3.00586 51.5016H2.60039C2.13867 51.5016 1.7625 51.1254 1.7625 50.6637V38.9508C1.7625 37.9395 2.06016 36.9621 2.625 36.1219C3.42891 34.9254 3.88477 33.5086 3.95391 32.0027H15.3656V34.5527C15.3656 35.5066 15.7922 36.3973 16.5363 36.9937C17.8418 38.0414 17.925 39.2625 18.4746 40.4895C19.575 43.4062 19.0828 45.3715 19.2047 48.927C19.2047 49.3898 18.8285 49.7648 18.3668 49.7648H17.9613C17.4996 49.7648 17.1234 49.3887 17.1234 48.927V44.693C17.1234 44.2078 16.7297 43.8141 16.2445 43.8141C15.7594 43.8141 15.3656 44.2078 15.3656 44.693H15.3609ZM31.1238 41.6824H27.9973C27.5121 41.6824 27.1184 42.0762 27.1184 42.5613C27.1184 43.0465 27.5121 43.4402 27.9973 43.4402H30.2449V57.2824H16.3219C16.8129 56.8102 17.1187 56.1469 17.1187 55.4133V51.382C17.3824 51.4723 17.6637 51.5215 17.9566 51.5215H18.3621C19.7754 51.5215 20.9273 50.3871 20.9578 48.9809C20.9578 48.9703 20.9578 48.9586 20.9578 48.948C20.9449 44.5359 20.9883 44.3496 20.9145 43.4391H24.4816C24.9668 43.4391 25.3605 43.0453 25.3605 42.5602C25.3605 42.075 24.9668 41.6812 24.4816 41.6812H20.652C20.5172 41.0672 20.3379 40.4613 20.1141 39.8672C19.5984 38.7527 19.3992 37.0395 17.6309 35.6203C17.3039 35.359 17.1176 34.9688 17.1176 34.5504V32.0004H17.4375C17.9227 32.0004 18.3164 31.6066 18.3164 31.1215V20.6555C18.9305 20.5207 19.5363 20.3414 20.1305 20.1176L21.8438 19.4719C22.8363 19.098 23.7129 18.4617 24.3773 17.6344C24.6387 17.3086 25.0289 17.1211 25.4473 17.1211H27.9973V17.441C27.9973 17.9262 28.391 18.3199 28.8762 18.3199H39.348C39.4828 18.9328 39.6621 19.5375 39.8848 20.1293L40.5305 21.8426C40.9043 22.8352 41.5395 23.7117 42.368 24.3762C42.6938 24.6375 42.8813 25.0277 42.8813 25.4461V27.9961H42.5613C42.0762 27.9961 41.6824 28.3898 41.6824 28.875V39.3457C41.0684 39.4805 40.4625 39.6598 39.8684 39.8836L38.1551 40.5293C37.1613 40.9043 36.2859 41.5395 35.6215 42.3668C35.3602 42.6926 34.9699 42.8801 34.5516 42.8801H32.0016V42.5602C32.0016 42.075 31.6078 41.6812 31.1227 41.6812L31.1238 41.6824ZM57.2836 58.241H53.1199C53.2102 57.9773 53.2594 57.6961 53.2594 57.4031V56.9977C53.2594 56.7047 53.2102 56.4223 53.1199 56.1598H54.198C55.6301 56.1598 56.7938 54.9949 56.7938 53.5641V53.1586C56.7938 52.8656 56.7445 52.5832 56.6543 52.3207H57.2836V58.2434V58.241ZM58.2422 49.7227C58.2422 50.1844 57.866 50.5605 57.4043 50.5605H46.8516C46.3664 50.5605 45.9727 50.9543 45.9727 51.4395C45.9727 51.9246 46.3664 52.3184 46.8516 52.3184H54.1969C54.6586 52.3184 55.0348 52.6945 55.0348 53.1562V53.5617C55.0348 54.0234 54.6586 54.3996 54.1969 54.3996H45.5625C45.0773 54.3996 44.6836 54.7934 44.6836 55.2785C44.6836 55.7637 45.0773 56.1574 45.5625 56.1574H50.6625C51.1254 56.1574 51.5004 56.5336 51.5004 56.9953V57.4008C51.5004 57.8637 51.1242 58.2387 50.6625 58.2387H38.9496C37.9383 58.2387 36.9609 57.941 36.1207 57.3773C34.9242 56.5734 33.5074 56.1176 32.0016 56.0484V44.6367H34.5516C35.5055 44.6367 36.3961 44.2102 36.9926 43.466C37.4602 42.8836 38.0766 42.4371 38.775 42.1734L40.4883 41.5277C43.4039 40.4285 45.3645 40.9195 48.9258 40.7977C49.3875 40.7977 49.7637 41.1738 49.7637 41.6355V42.041C49.7637 42.5027 49.3875 42.8789 48.9258 42.8789H44.6918C44.2066 42.8789 43.8129 43.2727 43.8129 43.7578C43.8129 44.243 44.2066 44.6367 44.6918 44.6367H55.4133C55.8762 44.6367 56.2512 45.0129 56.2512 45.4746V45.8801C56.2512 46.343 55.875 46.718 55.4133 46.718H46.8328C46.3477 46.718 45.9539 47.1117 45.9539 47.5969C45.9539 48.082 46.3477 48.4758 46.8328 48.4758H57.4031C57.8648 48.4758 58.241 48.852 58.241 49.3137V49.7191L58.2422 49.7227Z" fill="url(#paint0_linear_343_5249)"/>
</g>
<defs>
<linearGradient id="paint0_linear_343_5249" x1="-2.23517e-07" y1="29.9988" x2="60" y2="29.9988" gradientUnits="userSpaceOnUse">
<stop stop-color="#223962"/>
<stop offset="0.526042" stop-color="#3277BC"/>
<stop offset="0.973958" stop-color="#48ABDF"/>
</linearGradient>
<clipPath id="clip0_343_5249">
<rect width="60" height="60" fill="white"/>
</clipPath>
</defs>
</svg>
