<svg version="1.2" xmlns="http://www.w3.org/2000/svg" viewBox="0 0 114 22" width="114" height="22">
	<title>incortasvg,102-svg</title>
	<style>
		.s0 { fill: #005596 } 
	</style>
	<g id="Layer 1">
		<path id="&lt;Compound Path&gt;" fill-rule="evenodd" class="s0" d="m2.6 1.9h0.6v18h-0.6zm-1.3 1.9h0.6v14.3h-0.6zm-1.3 1.8h0.6v10.6h-0.6zm14 16.2v-10.5h-9.5v10.5h-0.7v-21.7h0.7v10.5h9.5v-10.5h0.7v21.7zm1.2-19.9h0.7v18.1h-0.7zm1.3 1.8h0.6v14.4h-0.6zm1.3 1.8h0.6v10.6h-0.6zm-12.8 4.4v-8.1h0.7v7.4h7v-7.4h0.6v8.1zm1.3-1.3v-4.9h0.6v4.3h4.5v-4.3h0.6v4.9zm1.3-1.3v-1.8h0.6v1.2h1.9v-1.2h0.6v1.8zm5.8 4.5v8.1h-0.7v-7.5h-7v7.5h-0.6v-8.1zm-1.3 1.3v4.9h-0.6v-4.3h-4.5v4.3h-0.6v-4.9zm-1.3 1.2v1.8h-0.6v-1.1h-1.9v1.1h-0.6v-1.8zm18.4-3.4q-0.7 0-1.4 0-0.7 0-1.4 0-0.7 0-1.4 0.1v1q0 1.5 0 2.7 0.1 1.2 0.1 2.4-0.3-0.1-0.7-0.1-0.3 0-0.8 0-0.5 0-0.8 0-0.4 0-0.7 0.1 0.1-1.2 0.1-2.4 0-1.2 0-2.7v-2.5q0-1.5 0-2.7 0-1.2-0.1-2.4 0.3 0 0.7 0.1 0.3 0 0.8 0 0.5 0 0.8 0 0.4-0.1 0.7-0.1-0.1 1.2-0.1 2.4 0 1.1 0 2.7 0.5 0 1.1 0 0.7 0 1.7 0 1 0 1.6 0 0.7 0 1.2 0 0-1.6 0-2.7-0.1-1.2-0.2-2.4 0.4 0 0.7 0.1 0.4 0 0.9 0 0.4 0 0.8 0 0.4-0.1 0.7-0.1-0.1 1.2-0.1 2.4-0.1 1.2-0.1 2.7v2.5q0 1.5 0.1 2.7 0 1.2 0.1 2.4-0.3-0.1-0.7-0.1-0.4 0-0.8 0-0.5 0-0.9 0-0.3 0-0.7 0.1 0.1-1.2 0.2-2.4 0-1.2 0-2.7v-1q-0.7-0.1-1.4-0.1zm17.4 6.2q-0.5-0.1-0.9-0.1-0.4 0-0.7 0-0.4 0-0.8 0-0.4 0-0.8 0.1-0.3-0.9-0.6-1.9-0.3-0.9-0.7-1.9-0.6 0-1.2 0-0.6 0-1.2 0-0.4 0-0.9 0-0.5 0-1 0-0.3 1-0.7 1.9-0.3 1-0.5 1.9-0.3-0.1-0.5-0.1-0.2 0-0.4 0-0.2 0-0.4 0-0.3 0-0.5 0.1 0.2-0.5 0.6-1.4 0.3-0.8 0.8-1.9 0.4-1.1 0.9-2.3 0.5-1.2 1-2.5 0.6-1.2 1-2.4 0.5-1.3 0.9-2.3 0.2 0 0.4 0.1 0.2 0 0.3 0 0.2 0 0.4 0 0.2-0.1 0.3-0.1 0.6 1.6 1.3 3.3 0.7 1.8 1.4 3.6 0.7 1.7 1.3 3.2 0.6 1.6 1.2 2.7zm-6.6-9.2q-0.4 1.1-0.9 2.2-0.4 1-0.8 2.2h3.4q-0.4-1.2-0.8-2.2-0.4-1.1-0.9-2.2zm8-1.1q-0.1-1.2-0.1-2.4 0.3 0 0.7 0.1 0.3 0 0.8 0 0.5 0 0.8 0 0.4-0.1 0.7-0.1-0.1 1.2-0.1 2.4 0 1.2 0 2.7c0 0.7 0 3.9 0 4.5q0 1 0 1.7 1 0 2.1 0 1.1-0.1 2.1-0.2 0 0.2 0 0.4 0 0.1 0 0.4 0 0.3 0 0.5 0 0.2 0 0.3-0.5 0-1.2-0.1-0.7 0-2 0-1.1 0-1.8 0-0.7 0-1.1 0-0.5 0-0.7 0-0.2 0.1-0.3 0.1 0-1.2 0.1-2.4 0-1.2 0-2.7v-2.5q0-1.5 0-2.7zm11.4 8q0 1.4 0.1 2.3-0.3-0.1-0.7-0.1-0.3 0-0.8 0-0.5 0-0.8 0-0.4 0-0.7 0.1 0.1-1.2 0.1-2.4 0-1.2 0-2.7v-2.5q0-1.5 0-2.7 0-1.2-0.1-2.4 0.3 0 0.7 0.1 0.3 0 0.8 0 0.5 0 0.8 0 0.4-0.1 0.7-0.1-0.1 0.5-0.1 1.6 0 1.2 0 2.5v1.8q0.6-0.8 1.3-1.6 0.7-0.9 1.4-1.8 0.7-0.8 1.2-1.5 0.5-0.7 0.8-1 0.2 0 0.5 0.1 0.3 0 0.5 0 0.3 0 0.5 0 0.3-0.1 0.6-0.1-0.3 0.3-0.9 1-0.7 0.7-1.4 1.5-0.7 0.8-1.4 1.6-0.7 0.8-1 1.2 0.5 0.9 1.3 2 0.7 1.1 1.4 2.1 0.7 1.1 1.3 2 0.6 0.8 1 1.3-0.5-0.1-1-0.1-0.4 0-0.8 0-0.4 0-0.8 0-0.4 0-0.8 0.1-0.9-1.4-1.8-2.9-1-1.4-1.9-2.9 0 2 0 3.5zm8.2-8q0-1.2-0.1-2.4 0.3 0 0.7 0.1 0.3 0 0.8 0 0.8 0 1.7-0.1 0.8 0 1.6 0 0.9 0 1.5 0.1 0.7 0.2 1.2 0.6 0.5 0.3 0.8 0.8 0.3 0.6 0.3 1.3 0 0.8-0.4 1.4-0.3 0.5-0.7 0.9-0.5 0.3-1 0.5-0.5 0.2-1 0.3 0.5 0 1 0.2 0.6 0.2 1.1 0.6 0.5 0.3 0.9 0.9 0.4 0.6 0.4 1.4 0 1-0.4 1.7-0.4 0.7-1 1.2-0.6 0.4-1.3 0.6-0.8 0.2-1.6 0.2-0.8 0-1.4 0-0.7-0.1-1.4-0.1-0.5 0-1 0-0.5 0-0.8 0.1 0.1-1.2 0.1-2.4 0-1.2 0-2.7v-2.5q0-1.5 0-2.7zm5.6 0q-0.1-0.4-0.3-0.7-0.3-0.3-0.6-0.5-0.4-0.2-1-0.2-0.4 0-0.5 0.1-0.2 0-0.4 0 0 0.7 0 1.4 0 0.7 0 1.2 0 0.5 0 0.9 0 0.5 0 0.9h0.8q0.4 0 0.8-0.1 0.4-0.2 0.7-0.4 0.3-0.3 0.4-0.8 0.2-0.4 0.2-1 0-0.4-0.1-0.8zm-0.3 4.8q-0.6-0.6-1.7-0.6-0.3 0-0.5 0-0.2 0-0.3 0 0 0.4 0 0.8 0 0.4 0 1 0 0.4 0 0.9 0 0.5 0 0.9 0 0.5 0 0.8 0 0.4 0 0.6 0.3 0.1 0.5 0.1 0.2 0 0.5 0 0.4 0 0.8-0.2 0.4-0.2 0.6-0.5 0.3-0.3 0.5-0.8 0.2-0.4 0.1-1 0.1-1.3-0.5-2zm16 5.5q-0.5-0.1-0.9-0.1-0.4 0-0.7 0-0.4 0-0.8 0-0.4 0-0.8 0.1-0.3-0.9-0.6-1.9-0.3-0.9-0.7-1.9-0.6 0-1.2 0-0.6 0-1.2 0-0.4 0-0.9 0-0.5 0-1 0-0.3 1-0.7 1.9-0.3 1-0.5 1.9-0.3-0.1-0.5-0.1-0.2 0-0.4 0-0.2 0-0.4 0-0.3 0-0.5 0.1 0.2-0.5 0.6-1.4 0.3-0.8 0.8-1.9 0.4-1.1 0.9-2.3 0.5-1.2 1-2.5 0.6-1.2 1-2.4 0.5-1.3 0.9-2.3 0.2 0 0.4 0.1 0.2 0 0.3 0 0.2 0 0.4 0 0.2-0.1 0.3-0.1 0.6 1.6 1.3 3.3 0.7 1.8 1.4 3.6 0.7 1.7 1.3 3.2 0.6 1.6 1.2 2.7zm-6.6-9.2q-0.4 1.1-0.9 2.2-0.4 1-0.8 2.2h3.4q-0.4-1.2-0.8-2.2-0.4-1.1-0.9-2.2zm8.2-2q-0.1-0.9-0.1-1.5 0.5 0.1 0.8 0.1 0.3 0 0.9-0.1 2 2.2 3.9 4.4 2 2.1 4.1 4.4v-3.4q0-0.9 0-1.8 0-0.9-0.1-1.6 0-0.8 0-1.3 0-0.5-0.1-0.7 0.6 0.1 0.9 0.1 0.3 0 0.8-0.1-0.1 1.7-0.1 3-0.1 1.4-0.1 2.6-0.1 1.2-0.1 2.4c0 0.7 0 3.8 0 4.7q-0.4-0.1-0.7-0.1-0.4 0-0.8 0.1-3.8-4.5-8-9-0.1 0.6-0.1 1.1c0 0.4 0 2.9 0 3.3q0 1.1 0 1.8 0 0.8 0.1 1.4 0 0.5 0 0.8 0 0.4 0 0.6-0.2-0.1-0.4-0.1-0.2 0-0.4 0-0.5 0-0.9 0.1 0.1-0.2 0.1-1.1 0.1-0.9 0.1-2.2 0.1-1.3 0.1-2.8 0.1-1.5 0.1-2.9 0-1.3 0-2.2zm16.3 8.9q0 1.4 0.2 2.3-0.4-0.1-0.7-0.1-0.4 0-0.9 0-0.4 0-0.8 0-0.4 0-0.7 0.1 0.1-1.2 0.1-2.4 0.1-1.2 0.1-2.7v-2.5q0-1.5-0.1-2.7 0-1.2-0.1-2.4 0.3 0 0.7 0.1 0.4 0 0.8 0 0.5 0 0.9 0 0.3-0.1 0.7-0.1-0.1 0.5-0.2 1.6 0 1.2 0 2.5v1.8q0.6-0.8 1.4-1.6 0.7-0.9 1.3-1.8 0.7-0.8 1.2-1.5 0.6-0.7 0.8-1 0.3 0 0.5 0.1 0.3 0 0.6 0 0.2 0 0.5 0 0.2-0.1 0.6-0.1-0.4 0.3-1 1-0.6 0.7-1.4 1.5-0.7 0.8-1.4 1.6-0.6 0.8-1 1.2 0.6 0.9 1.3 2 0.7 1.1 1.4 2.1 0.7 1.1 1.4 2 0.6 0.8 0.9 1.3-0.5-0.1-0.9-0.1-0.4 0-0.9 0-0.4 0-0.8 0-0.4 0-0.8 0.1-0.9-1.4-1.8-2.9-0.9-1.4-1.9-2.9 0 2 0 3.5z"/>
	</g>
</svg>