<svg width="48" height="60" viewBox="0 0 48 60" fill="none" xmlns="http://www.w3.org/2000/svg">
<g clip-path="url(#clip0_390_5106)">
<path d="M46.6764 22.9444C46.1429 22.0164 46.0252 20.8993 46.3547 19.8798C47.0948 17.5886 46.2844 15.0962 44.3395 13.6777C43.4738 13.0467 42.9122 12.0738 42.7989 11.0095C42.5431 8.61545 40.7889 6.66789 38.4353 6.16254C37.3886 5.93755 36.4798 5.27753 35.9429 4.3512C34.7353 2.2683 32.3413 1.20224 29.985 1.69879C28.9374 1.91939 27.8389 1.68561 26.9714 1.0581C25.0212 -0.353352 22.4004 -0.353352 20.4503 1.0581C19.5828 1.68561 18.4842 1.91939 17.4357 1.69879C15.0804 1.20224 12.6855 2.2683 11.4779 4.3512C10.941 5.27753 10.0322 5.93755 8.9846 6.16254C6.631 6.66789 4.87679 8.61545 4.62104 11.0086C4.50679 12.0738 3.9452 13.0458 3.0804 13.6768C1.13547 15.0953 0.325159 17.5878 1.06516 19.879C1.39386 20.8984 1.27697 22.0155 0.74262 22.9436C-0.457029 25.0309 -0.183702 27.6376 1.42462 29.4287C2.14001 30.2258 2.48716 31.2945 2.37643 32.3597C2.12947 34.7546 3.43985 37.0238 5.63701 38.0073C6.61431 38.445 7.36573 39.279 7.69882 40.2976C7.7665 40.505 7.84647 40.7063 7.93612 40.9005L1.78583 51.3792C1.47823 51.903 1.49668 52.5428 1.83417 53.049C2.17165 53.5544 2.75522 53.8171 3.35724 53.7345L9.91356 52.8346L12.3243 58.998C12.5458 59.564 13.0599 59.9455 13.6654 59.9938C13.7085 59.9973 13.7507 59.9991 13.7929 59.9991C14.3501 59.9991 14.8607 59.709 15.1463 59.2222L22.5586 46.5938C23.3066 46.3565 24.1134 46.3565 24.8613 46.5938L32.2745 59.223C32.5601 59.7099 33.0707 60 33.6279 60C33.6701 60 33.7132 59.9982 33.7554 59.9947C34.3609 59.9463 34.875 59.5649 35.0965 58.9989L37.5072 52.8355L44.0636 53.7354C44.6665 53.818 45.2491 53.5552 45.5866 53.0499C45.9241 52.5446 45.9417 51.9047 45.6341 51.3809L39.4838 40.9023C39.5734 40.708 39.6525 40.5068 39.7211 40.2985C40.0542 39.2807 40.8056 38.4458 41.7829 38.0082C43.9809 37.0247 45.2913 34.7555 45.0435 32.3606C44.9336 31.2954 45.2808 30.2267 45.9953 29.4296C47.6027 27.6376 47.8769 25.0309 46.6764 22.9436V22.9444ZM13.8219 58.0049L11.4964 52.0594C11.231 51.3801 10.5402 50.9749 9.81688 51.0742L3.49258 51.9425L9.03909 42.493C10.0568 43.5169 11.4577 44.1294 12.9738 44.1321C14.0451 44.1338 15.0707 44.5908 15.7888 45.3853C16.926 46.6439 18.5343 47.2846 20.155 47.2134L13.8201 58.0049H13.8219ZM43.9256 51.9425L37.6013 51.0742C36.8788 50.9749 36.1881 51.3801 35.9218 52.0603L33.5972 58.0049L27.2632 47.2134C27.3441 47.2169 27.4258 47.2195 27.5066 47.2195C29.0438 47.2195 30.5493 46.5797 31.6294 45.3845C32.3474 44.59 33.3731 44.133 34.4444 44.1312C35.9604 44.1286 37.3613 43.516 38.3791 42.4921L43.9256 51.9417V51.9425ZM44.6867 28.2563C43.6408 29.4217 43.1337 30.9834 43.2945 32.5416C43.4642 34.1798 42.5677 35.7319 41.064 36.4042C39.635 37.044 38.5364 38.2639 38.0495 39.7527C37.9678 40.0032 37.8614 40.2405 37.734 40.4628C37.7287 40.4716 37.7234 40.4813 37.7182 40.4901C37.0485 41.6396 35.8128 42.3717 34.4409 42.3743C32.8747 42.377 31.3745 43.0449 30.3252 44.2068C29.2213 45.4284 27.468 45.801 25.9625 45.134C25.2471 44.8167 24.4781 44.6585 23.71 44.6585C22.9418 44.6585 22.1728 44.8167 21.4574 45.134C19.9519 45.801 18.1986 45.4284 17.0947 44.2068C16.0445 43.0449 14.5452 42.377 12.979 42.3743C11.6071 42.3717 10.3723 41.6396 9.70263 40.4909C9.69736 40.4813 9.69208 40.4716 9.68593 40.4628C9.55938 40.2405 9.45303 40.0041 9.3713 39.7536C8.88441 38.2648 7.78583 37.0449 6.3568 36.4051C4.85394 35.7328 3.9575 34.1807 4.12624 32.5425C4.28708 30.9852 3.77997 29.4234 2.73412 28.2572C1.63467 27.032 1.44747 25.2488 2.26833 23.8215C3.04876 22.4637 3.22014 20.8308 2.7394 19.3411C2.23317 17.7741 2.78773 16.0691 4.11745 15.0988C5.38302 14.176 6.20388 12.754 6.36998 11.1975C6.54488 9.56023 7.74452 8.22787 9.3546 7.88248C10.8856 7.55378 12.2144 6.58879 12.9992 5.23446C13.8254 3.80982 15.4627 3.08125 17.0737 3.42049C18.6055 3.74303 20.2121 3.40203 21.4803 2.48362C22.8144 1.51863 24.6064 1.51863 25.9405 2.48362C27.2087 3.40115 28.8153 3.74303 30.3471 3.42049C31.9581 3.08125 33.5954 3.8107 34.4215 5.23446C35.2072 6.58879 36.5352 7.55378 38.0662 7.88248C39.6763 8.22787 40.8759 9.56023 41.0508 11.1975C41.2169 12.754 42.0387 14.1769 43.3033 15.0988C44.6339 16.0691 45.1876 17.7741 44.6814 19.3411C44.2007 20.8316 44.372 22.4646 45.1525 23.8215C45.9733 25.2488 45.7861 27.032 44.6867 28.2572V28.2563Z" fill="url(#paint0_linear_390_5106)"/>
<path d="M23.709 7.55811C20.1698 7.55811 16.8135 8.68744 14.002 10.8248C13.9413 10.8714 13.8807 10.918 13.8201 10.9655C13.4378 11.2643 13.3701 11.8171 13.6698 12.1994C13.9686 12.5817 14.5214 12.6494 14.9037 12.3497C14.9582 12.3075 15.0118 12.2653 15.0663 12.224C17.5684 10.3221 20.5565 9.31583 23.709 9.31583C31.5907 9.31583 38.0029 15.728 38.0029 23.6097C38.0029 26.7569 37.0001 29.7424 35.1026 32.2419C34.8091 32.6286 34.8847 33.1796 35.2714 33.4731C35.4304 33.5936 35.6168 33.6524 35.8022 33.6524C36.0676 33.6524 36.3304 33.5329 36.5026 33.3044C38.6339 30.4964 39.7606 27.1436 39.7606 23.6097C39.7606 14.7586 32.5601 7.55811 23.709 7.55811Z" fill="url(#paint1_linear_390_5106)"/>
<path d="M31.1628 29.6572C31.1856 29.6317 31.2085 29.6062 31.2322 29.5807C32.8853 27.7307 33.7958 25.3446 33.7958 22.8618C33.7958 19.4008 32.0522 16.2202 29.1308 14.3553C28.5429 13.98 27.7967 13.9554 27.1842 14.2911C26.5689 14.6277 26.1875 15.2719 26.1875 15.9724V22.3863C26.1875 23.0481 25.6497 23.586 24.9879 23.586H22.4321C21.7704 23.586 21.2325 23.0472 21.2325 22.3863V15.9724C21.2325 15.2719 20.8502 14.6277 20.2359 14.2911C19.6233 13.9554 18.8771 13.98 18.2892 14.3553C15.3687 16.2202 13.6242 19.3999 13.6242 22.8618C13.6242 25.3446 14.5347 27.7307 16.1887 29.5816L16.23 29.6273C17.8752 31.4544 18.7805 33.801 18.7805 36.2337V37.0273C13.3201 35.0147 9.41529 29.76 9.41529 23.6097C9.41529 20.459 10.4198 17.4708 12.3217 14.9696C12.6152 14.5829 12.5405 14.0319 12.1538 13.7383C11.7671 13.4448 11.2161 13.5195 10.9225 13.9062C8.78691 16.7159 7.65845 20.0714 7.65845 23.6106C7.65845 30.9632 12.6275 37.1758 19.3834 39.0698C19.3974 39.0742 19.4115 39.0795 19.4255 39.083C19.48 39.0979 19.5345 39.1111 19.589 39.1252C19.6637 39.1454 19.7384 39.1647 19.8131 39.1832C19.8861 39.2016 19.959 39.2201 20.0328 39.2368C20.1541 39.2649 20.2754 39.2921 20.3985 39.3176C20.4442 39.3273 20.4907 39.337 20.5364 39.3466C20.6744 39.3748 20.8133 39.4002 20.9521 39.4249C21.0005 39.4336 21.0497 39.4415 21.0989 39.4495C21.2202 39.4697 21.3415 39.4881 21.4628 39.5048C21.5049 39.511 21.548 39.5171 21.5902 39.5224C21.7537 39.5444 21.918 39.5637 22.0832 39.5804C22.0832 39.5804 22.0832 39.5804 22.0841 39.5804C22.2458 39.5971 22.4084 39.6103 22.571 39.6217C22.6158 39.6252 22.6615 39.6279 22.7063 39.6305C22.8294 39.6384 22.9533 39.6446 23.0772 39.649C23.1238 39.6507 23.1704 39.6525 23.217 39.6542C23.3804 39.6595 23.5448 39.6621 23.71 39.6621C23.8779 39.6621 24.0449 39.6586 24.2118 39.6534C24.2347 39.6534 24.2584 39.6525 24.2813 39.6516C27.6078 39.5365 30.7532 38.4186 33.4109 36.4007C33.7976 36.1071 33.8723 35.5561 33.5788 35.1694C33.2852 34.7827 32.7342 34.7071 32.3475 35.0015C31.2032 35.8707 29.957 36.5518 28.6396 37.0361V36.2355C28.6396 33.794 29.5369 31.4571 31.1636 29.658L31.1628 29.6572ZM17.5342 28.4496L17.4973 28.4092C16.1324 26.8817 15.3801 24.9122 15.3801 22.8618C15.3801 20.0037 16.8206 17.3777 19.2331 15.837C19.2515 15.8247 19.3087 15.7887 19.3895 15.8326C19.4449 15.8634 19.473 15.91 19.473 15.9724V22.3863C19.473 24.0175 20.8001 25.3437 22.4304 25.3437H24.9861C26.6173 25.3437 27.9435 24.0166 27.9435 22.3863V15.9724C27.9435 15.91 27.9716 15.8634 28.027 15.8326C28.1078 15.7887 28.165 15.8247 28.1834 15.837C30.5959 17.3777 32.0364 20.0037 32.0364 22.8618C32.0364 24.9122 31.2849 26.8826 29.9192 28.4092C29.9007 28.4303 29.8823 28.4505 29.8603 28.4742C27.9373 30.6002 26.8792 33.3563 26.8792 36.2337V37.5494C25.3271 37.9009 23.7083 37.9897 22.1219 37.8148C22.1114 37.8139 22.1008 37.8121 22.0903 37.8113C21.9778 37.799 21.8662 37.7849 21.7545 37.7691C21.7247 37.7647 21.6957 37.7612 21.6658 37.7568C21.5761 37.7436 21.4865 37.7304 21.3968 37.7155C21.3503 37.7076 21.3037 37.7005 21.2571 37.6926C21.1894 37.6812 21.1218 37.668 21.0541 37.6557C20.9899 37.6434 20.9258 37.632 20.8616 37.6188C20.8194 37.61 20.7781 37.6012 20.7359 37.5924C20.6691 37.5784 20.6015 37.5634 20.5356 37.5485V36.2337C20.5356 33.3651 19.4695 30.6011 17.5325 28.4496H17.5342Z" fill="url(#paint2_linear_390_5106)"/>
</g>
<defs>
<linearGradient id="paint0_linear_390_5106" x1="0.000243964" y1="29.9997" x2="47.4192" y2="29.9997" gradientUnits="userSpaceOnUse">
<stop stop-color="#223962"/>
<stop offset="0.526042" stop-color="#3277BC"/>
<stop offset="0.973958" stop-color="#48ABDF"/>
</linearGradient>
<linearGradient id="paint1_linear_390_5106" x1="13.4827" y1="20.6053" x2="39.7606" y2="20.6053" gradientUnits="userSpaceOnUse">
<stop stop-color="#223962"/>
<stop offset="0.526042" stop-color="#3277BC"/>
<stop offset="0.973958" stop-color="#48ABDF"/>
</linearGradient>
<linearGradient id="paint2_linear_390_5106" x1="7.65845" y1="26.6106" x2="33.7958" y2="26.6106" gradientUnits="userSpaceOnUse">
<stop stop-color="#223962"/>
<stop offset="0.526042" stop-color="#3277BC"/>
<stop offset="0.973958" stop-color="#48ABDF"/>
</linearGradient>
<clipPath id="clip0_390_5106">
<rect width="47.4191" height="60" fill="white"/>
</clipPath>
</defs>
</svg>
