<svg width="60" height="52" viewBox="0 0 60 52" fill="none" xmlns="http://www.w3.org/2000/svg">
<path d="M0.733883 31.6941C1.05468 31.9331 1.43349 32.0579 1.82021 32.0579C1.99511 32.0579 2.17177 32.0325 2.34579 31.9806L38.0266 21.3775C39.3774 20.9759 40.6185 20.2367 41.6151 19.24L51.8517 9.00347V9.54927C51.8508 10.9889 52.9538 12.1684 54.3618 12.2334C55.0913 12.2686 55.7821 12.0111 56.3086 11.5083C56.828 11.0135 57.126 10.3174 57.126 9.60025V2.63671C57.126 1.18388 55.9439 0.0017578 54.4893 0H47.5266C46.0729 0 44.8899 1.18388 44.8899 2.63583C44.889 3.34071 45.1624 4.0034 45.6607 4.50174C46.1582 4.99919 46.8209 5.27341 47.5257 5.27341H48.1234L38.1022 15.2947C37.784 15.6128 37.3876 15.8484 36.9561 15.9749L12.9023 23.0527C12.4365 23.1898 12.1702 23.6785 12.3073 24.1443C12.4444 24.6101 12.933 24.8764 13.3989 24.7393L37.4526 17.6615C38.1654 17.4524 38.8193 17.0639 39.3449 16.5383L50.8656 5.01765C51.1169 4.76629 51.1916 4.38836 51.0563 4.05965C50.9209 3.73094 50.6001 3.51737 50.2442 3.51737H47.5249C47.2893 3.51649 47.0678 3.42508 46.9026 3.25897C46.7374 3.09373 46.646 2.87313 46.646 2.63758C46.646 2.15331 47.0397 1.75868 47.5249 1.75868H54.4866C54.9718 1.75868 55.3664 2.15243 55.3664 2.63671V9.60025C55.3664 9.84282 55.2697 10.0687 55.094 10.2357C54.9191 10.4027 54.6888 10.4888 54.4427 10.4774C53.9822 10.4563 53.6077 10.0406 53.6077 9.55015V6.8818C53.6077 6.52673 53.3933 6.20593 53.0655 6.0697C52.7368 5.93347 52.3588 6.00905 52.1075 6.26042L40.3706 17.9973C39.5796 18.7883 38.5952 19.3745 37.5238 19.6927L1.84482 30.2949C1.83515 30.2975 1.8123 30.3045 1.78505 30.2843C1.7578 30.2641 1.7578 30.2404 1.7578 30.2298V28.2145C1.7578 28.1846 1.77802 28.1583 1.80614 28.1495L9.44995 25.9004C9.91577 25.7633 10.1821 25.2746 10.045 24.8088C9.90786 24.3429 9.41919 24.0766 8.95337 24.2137L1.30956 26.4629C0.538767 26.6905 0 27.4103 0 28.2145V30.2298C0 30.8117 0.267186 31.3452 0.733883 31.6932V31.6941Z" fill="url(#paint0_linear_390_5446)"/>
<path d="M58.1464 34.3299H56.1284C55.8736 33.3719 55.4948 32.4579 54.9964 31.5992L56.4237 30.1718C56.7736 29.822 56.9669 29.3562 56.9669 28.8614C56.9669 28.3666 56.7744 27.9008 56.4237 27.551L54.9305 26.0577C54.5807 25.7079 54.1149 25.5145 53.6201 25.5145C53.1252 25.5145 52.6594 25.707 52.3096 26.0577L50.8823 27.485C50.0236 26.9867 49.1095 26.6079 48.1515 26.353V24.3351C48.1515 23.3129 47.3201 22.4814 46.2979 22.4814H44.1868C43.1646 22.4814 42.3332 23.3129 42.3332 24.3351V26.353C41.3752 26.6079 40.4611 26.9867 39.6024 27.485L38.1751 26.0577C37.4527 25.3352 36.2767 25.3352 35.5542 26.0577L34.061 27.551C33.7112 27.9008 33.5178 28.3666 33.5178 28.8614C33.5178 29.3562 33.7103 29.822 34.061 30.1718L35.4883 31.5992C34.99 32.4579 34.6112 33.3719 34.3563 34.3299H32.3383C31.3162 34.3299 30.4856 35.1614 30.4856 36.1835V38.2947C30.4856 39.3168 31.317 40.1483 32.3383 40.1483H34.3563C34.6112 41.1063 34.99 42.0203 35.4883 42.879L34.061 44.3063C33.7112 44.6561 33.5178 45.122 33.5178 45.6168C33.5178 46.1116 33.7103 46.5774 34.061 46.9272L35.5542 48.4205C36.2767 49.1429 37.4527 49.1429 38.1751 48.4205L39.6024 46.9931C40.4611 47.4915 41.3752 47.8703 42.3332 48.1252V50.1431C42.3332 51.1653 43.1646 51.9967 44.1868 51.9967H46.2979C47.3201 51.9967 48.1515 51.1653 48.1515 50.1431V48.1252C49.1095 47.8703 50.0236 47.4915 50.8823 46.9931L52.3096 48.4205C52.6594 48.7703 53.1252 48.9636 53.6201 48.9636C54.1149 48.9636 54.5807 48.7712 54.9305 48.4205L56.4237 46.9272C56.7736 46.5774 56.9669 46.1116 56.9669 45.6168C56.9669 45.122 56.7744 44.6561 56.4237 44.3063L54.9964 42.879C55.4948 42.0203 55.8736 41.1063 56.1284 40.1483H58.1464C59.1686 40.1483 59.9991 39.3168 59.9991 38.2947V36.1835C59.9991 35.1614 59.1677 34.3299 58.1464 34.3299ZM58.2413 38.2947C58.2413 38.3474 58.1983 38.3904 58.1464 38.3904H55.4297C55.0105 38.3904 54.6492 38.6866 54.5675 39.0988C54.3249 40.3258 53.8477 41.4763 53.1507 42.5187C52.9178 42.8676 52.9635 43.3325 53.2597 43.6287L55.181 45.55C55.1994 45.5684 55.2091 45.5913 55.2091 45.6177C55.2091 45.644 55.1994 45.6669 55.181 45.6853L53.6877 47.1786C53.6508 47.2155 53.5902 47.2155 53.5533 47.1786L51.632 45.2573C51.3349 44.9602 50.87 44.9154 50.5219 45.1483C49.4795 45.8462 48.3291 46.3225 47.1021 46.566C46.6908 46.6477 46.3937 47.009 46.3937 47.4282V50.1449C46.3937 50.1976 46.3507 50.2407 46.2979 50.2407H44.1868C44.1341 50.2407 44.091 50.1976 44.091 50.1449V47.4282C44.091 47.009 43.7948 46.6477 43.3826 46.566C42.1557 46.3225 41.0052 45.8462 39.9628 45.1483C39.8134 45.049 39.6438 44.9998 39.4741 44.9998C39.2474 44.9998 39.0224 45.0877 38.8527 45.2573L36.9315 47.1786C36.8946 47.2164 36.8339 47.2155 36.7961 47.1786L35.3029 45.6853C35.2844 45.6669 35.2747 45.644 35.2747 45.6177C35.2747 45.5913 35.2844 45.5684 35.3029 45.55L37.2241 43.6287C37.5212 43.3316 37.566 42.8676 37.3331 42.5187C36.6362 41.4763 36.1589 40.3258 35.9163 39.0988C35.8346 38.6875 35.4734 38.3904 35.0541 38.3904H32.3374C32.2847 38.3904 32.2425 38.3474 32.2425 38.2947V36.1835C32.2425 36.1308 32.2856 36.0877 32.3374 36.0877H35.0541C35.4734 36.0877 35.8346 35.7915 35.9163 35.3793C36.1598 34.1524 36.6362 33.0019 37.3331 31.9595C37.566 31.6106 37.5203 31.1457 37.2241 30.8495L35.3029 28.9282C35.2844 28.9097 35.2747 28.8869 35.2747 28.8605C35.2747 28.8341 35.2844 28.8113 35.3029 28.7928L36.7961 27.2996C36.833 27.2627 36.8937 27.2627 36.9315 27.2996L38.8527 29.2209C39.1498 29.5179 39.6139 29.5628 39.9628 29.3298C41.0052 28.6329 42.1557 28.1556 43.3826 27.9122C43.7939 27.8304 44.0901 27.4692 44.0901 27.05V24.3342C44.0901 24.2814 44.1332 24.2384 44.1859 24.2384H46.297C46.3498 24.2384 46.3928 24.2814 46.3928 24.3342V27.05C46.3928 27.4692 46.689 27.8304 47.1012 27.9122C48.3282 28.1556 49.4787 28.632 50.521 29.3298C50.87 29.5628 51.3349 29.5171 51.6311 29.2209L53.5524 27.2996C53.5893 27.2627 53.6499 27.2627 53.6869 27.2996L55.1801 28.7928C55.1986 28.8113 55.2082 28.8341 55.2082 28.8605C55.2082 28.8869 55.1986 28.9097 55.1801 28.9282L53.2588 30.8495C52.9618 31.1465 52.9169 31.6106 53.1498 31.9595C53.8468 33.0019 54.3241 34.1524 54.5666 35.3793C54.6484 35.7907 55.0096 36.0877 55.4288 36.0877H58.1455C58.1983 36.0877 58.2404 36.1308 58.2404 36.1835V38.2947H58.2413Z" fill="url(#paint1_linear_390_5446)"/>
<path d="M47.6251 31.0823C47.1725 30.9074 46.6636 31.1315 46.4878 31.5841C46.3129 32.0367 46.537 32.5456 46.9897 32.7214C48.8406 33.4377 50.0843 35.2535 50.0843 37.239C50.0843 39.9091 47.9116 42.0808 45.2424 42.0808C42.5732 42.0808 40.3996 39.9082 40.3996 37.239C40.3996 35.2263 41.6661 33.4026 43.5514 32.6994C44.0067 32.5298 44.2378 32.0236 44.0682 31.5692C43.8986 31.1148 43.3923 30.8827 42.9379 31.0524C40.3689 32.0095 38.6418 34.4959 38.6418 37.239C38.6418 40.8785 41.6029 43.8386 45.2424 43.8386C48.8819 43.8386 51.8421 40.8776 51.8421 37.239C51.8421 34.5328 50.1467 32.0587 47.6242 31.0823H47.6251Z" fill="url(#paint2_linear_390_5446)"/>
<path d="M10.6575 43.6401H9.49561C9.19239 43.1927 8.80391 42.8042 8.35655 42.501V41.3391C8.35655 40.607 7.76154 40.012 7.02941 40.012H4.95696C4.22483 40.012 3.62982 40.607 3.62982 41.3391V42.501C3.18246 42.8042 2.79398 43.1927 2.49076 43.6401H1.32885C0.596726 43.6401 0.00170898 44.2351 0.00170898 44.9672V47.0397C0.00170898 47.7718 0.596726 48.3668 1.32885 48.3668H2.49076C2.79398 48.8142 3.18246 49.2026 3.62982 49.5059V50.6678C3.62982 51.3999 4.22483 51.9949 4.95696 51.9949H7.02941C7.76154 51.9949 8.35655 51.3999 8.35655 50.6678V49.5059C8.80391 49.2026 9.19239 48.8142 9.49561 48.3668H10.6575C11.3896 48.3668 11.9847 47.7718 11.9847 47.0397V44.9672C11.9847 44.2351 11.3896 43.6401 10.6575 43.6401ZM10.2269 46.6099H8.99288C8.65889 46.6099 8.35392 46.7988 8.20538 47.0986C7.96632 47.5811 7.56906 47.9783 7.08654 48.2174C6.78771 48.3659 6.59787 48.6709 6.59787 49.0049V50.2389H5.38674V49.0049C5.38674 48.6709 5.19778 48.3659 4.89807 48.2174C4.41556 47.9783 4.01829 47.5811 3.77923 47.0986C3.6307 46.7988 3.32572 46.6099 2.99173 46.6099H1.75776V45.3979H2.99173C3.32572 45.3979 3.6307 45.2089 3.77923 44.9092C4.01829 44.4267 4.41556 44.0294 4.89807 43.7904C5.1969 43.6418 5.38674 43.3368 5.38674 43.0029V41.7689H6.59787V43.0029C6.59787 43.3368 6.78683 43.6418 7.08654 43.7904C7.56906 44.0294 7.96632 44.4267 8.20538 44.9092C8.35392 45.2089 8.65889 45.3979 8.99288 45.3979H10.2269V46.6099Z" fill="url(#paint3_linear_390_5446)"/>
<path d="M29.4591 40.0094C29.4591 39.5857 29.2938 39.1876 28.995 38.8879L26.6844 36.5773C26.0665 35.9594 25.0601 35.9594 24.4423 36.5773L22.9517 38.0679C22.0121 37.8446 21.0242 37.8446 20.0847 38.0679L18.5941 36.5773C17.9762 35.9594 16.9699 35.9585 16.3511 36.5773L14.0405 38.8879C13.7408 39.1876 13.5764 39.5857 13.5764 40.0094C13.5764 40.433 13.7416 40.8311 14.0405 41.1308L15.5311 42.6215C15.3079 43.561 15.3079 44.5489 15.5311 45.4884L14.0405 46.9791C13.4226 47.5978 13.4226 48.6033 14.0405 49.2211L16.3511 51.5318C16.9699 52.1505 17.9753 52.1505 18.5941 51.5318L20.0847 50.0412C21.0242 50.2644 22.0121 50.2644 22.9517 50.0412L24.4423 51.5318C24.742 51.8315 25.1401 51.9967 25.5638 51.9967C25.9874 51.9967 26.3855 51.8315 26.6852 51.5318L28.9959 49.2211C29.2956 48.9214 29.4599 48.5233 29.4599 48.0997C29.4599 47.676 29.2947 47.2779 28.9959 46.9782L27.5053 45.4876C27.7285 44.548 27.7285 43.5601 27.5053 42.6206L28.9959 41.13C29.2956 40.8303 29.4599 40.4321 29.4599 40.0085L29.4591 40.0094ZM25.896 41.7434C25.6596 41.9799 25.5778 42.3297 25.685 42.6461C25.9909 43.5549 25.9909 44.5559 25.685 45.4638C25.5787 45.7802 25.6604 46.13 25.896 46.3656L27.6301 48.0997L25.5629 50.1668L23.8288 48.4328C23.5924 48.1963 23.2435 48.1146 22.9262 48.221C22.0174 48.5277 21.0163 48.5277 20.1084 48.221C19.792 48.1146 19.4422 48.1963 19.2058 48.4328L17.4717 50.1668L15.4045 48.0997L17.1386 46.3656C17.375 46.1292 17.4568 45.7794 17.3495 45.463C17.0428 44.5542 17.0428 43.554 17.3495 42.6452C17.4559 42.3288 17.3742 41.979 17.1386 41.7426L15.4045 40.0085L17.4717 37.9413L19.2058 39.6754C19.4422 39.9118 19.7911 39.9935 20.1084 39.8872C21.0172 39.5805 22.0183 39.5805 22.9262 39.8872C23.2426 39.9935 23.5924 39.9118 23.8288 39.6754L25.5629 37.9413L27.6301 40.0085L25.896 41.7426V41.7434Z" fill="url(#paint4_linear_390_5446)"/>
<path d="M42.8613 37.2391C42.8613 37.7243 43.2551 38.118 43.7402 38.118H44.3634V38.742C44.3634 39.2272 44.7571 39.6209 45.2423 39.6209C45.7274 39.6209 46.1212 39.2272 46.1212 38.742V38.118H46.7452C47.2303 38.118 47.6241 37.7243 47.6241 37.2391C47.6241 36.7539 47.2303 36.3602 46.7452 36.3602H46.1212V35.7371C46.1212 35.2519 45.7274 34.8582 45.2423 34.8582C44.7571 34.8582 44.3634 35.2519 44.3634 35.7371V36.3602H43.7402C43.2551 36.3602 42.8613 36.7539 42.8613 37.2391Z" fill="url(#paint5_linear_390_5446)"/>
<path d="M21.5181 43.176C21.0584 43.176 20.6181 43.5803 20.6392 44.0549C20.6602 44.5313 21.025 44.9338 21.5181 44.9338C21.9777 44.9338 22.4181 44.5295 22.397 44.0549C22.3759 43.5786 22.0111 43.176 21.5181 43.176Z" fill="url(#paint6_linear_390_5446)"/>
<defs>
<linearGradient id="paint0_linear_390_5446" x1="-2.12811e-07" y1="16.029" x2="57.126" y2="16.029" gradientUnits="userSpaceOnUse">
<stop stop-color="#223962"/>
<stop offset="0.526042" stop-color="#3277BC"/>
<stop offset="0.973958" stop-color="#48ABDF"/>
</linearGradient>
<linearGradient id="paint1_linear_390_5446" x1="30.4856" y1="37.2391" x2="59.9991" y2="37.2391" gradientUnits="userSpaceOnUse">
<stop stop-color="#223962"/>
<stop offset="0.526042" stop-color="#3277BC"/>
<stop offset="0.973958" stop-color="#48ABDF"/>
</linearGradient>
<linearGradient id="paint2_linear_390_5446" x1="38.6418" y1="37.4177" x2="51.8421" y2="37.4177" gradientUnits="userSpaceOnUse">
<stop stop-color="#223962"/>
<stop offset="0.526042" stop-color="#3277BC"/>
<stop offset="0.973958" stop-color="#48ABDF"/>
</linearGradient>
<linearGradient id="paint3_linear_390_5446" x1="0.00170894" y1="46.0034" x2="11.9847" y2="46.0034" gradientUnits="userSpaceOnUse">
<stop stop-color="#223962"/>
<stop offset="0.526042" stop-color="#3277BC"/>
<stop offset="0.973958" stop-color="#48ABDF"/>
</linearGradient>
<linearGradient id="paint4_linear_390_5446" x1="13.5764" y1="44.0551" x2="29.4599" y2="44.0551" gradientUnits="userSpaceOnUse">
<stop stop-color="#223962"/>
<stop offset="0.526042" stop-color="#3277BC"/>
<stop offset="0.973958" stop-color="#48ABDF"/>
</linearGradient>
<linearGradient id="paint5_linear_390_5446" x1="42.8613" y1="37.2395" x2="47.6241" y2="37.2395" gradientUnits="userSpaceOnUse">
<stop stop-color="#223962"/>
<stop offset="0.526042" stop-color="#3277BC"/>
<stop offset="0.973958" stop-color="#48ABDF"/>
</linearGradient>
<linearGradient id="paint6_linear_390_5446" x1="20.6384" y1="44.0549" x2="22.3977" y2="44.0549" gradientUnits="userSpaceOnUse">
<stop stop-color="#223962"/>
<stop offset="0.526042" stop-color="#3277BC"/>
<stop offset="0.973958" stop-color="#48ABDF"/>
</linearGradient>
</defs>
</svg>
