<svg width="60" height="54" viewBox="0 0 60 54" fill="none" xmlns="http://www.w3.org/2000/svg">
<g clip-path="url(#clip0_1_639)">
<path d="M30 30.7383C28.6231 30.7383 27.5027 31.8586 27.5027 33.2344C27.5027 34.6102 28.6231 35.7316 30 35.7316C31.377 35.7316 32.4961 34.6113 32.4961 33.2344C32.4961 31.8574 31.3758 30.7383 30 30.7383ZM30 33.9738C29.5922 33.9738 29.2606 33.6422 29.2606 33.2344C29.2606 32.8266 29.5922 32.4961 30 32.4961C30.4078 32.4961 30.7383 32.8277 30.7383 33.2344C30.7383 33.641 30.4067 33.9738 30 33.9738Z" fill="url(#paint0_linear_1_639)"/>
<path d="M10.5856 34.1144C11.071 34.1144 11.4645 33.7209 11.4645 33.2355C11.4645 32.7501 11.071 32.3566 10.5856 32.3566C10.1002 32.3566 9.70667 32.7501 9.70667 33.2355C9.70667 33.7209 10.1002 34.1144 10.5856 34.1144Z" fill="url(#paint1_linear_1_639)"/>
<path d="M58.9488 17.7961H55.7695C56.2793 15.716 55.752 13.4063 54.1348 11.7199C52.9078 10.4402 51.2566 9.7254 49.4848 9.70665C48.6117 9.69728 47.8711 8.99298 47.8664 8.16681C47.8641 7.75197 48.0234 7.36056 48.3164 7.06642C48.6094 6.77228 48.9984 6.61056 49.4133 6.61056C50.2359 6.61056 50.9145 7.25275 50.959 8.07189C50.9883 8.61329 51.4336 9.03751 51.9738 9.03751H54.9352C55.2082 9.03751 55.473 8.92501 55.6641 8.73048C55.8539 8.53595 55.9594 8.26759 55.9523 7.99689C55.8891 5.39415 54.2859 3.09142 51.9094 2.11056V1.01603C51.9094 0.4547 51.4535 -0.00115967 50.8922 -0.00115967H47.932C47.3719 -0.00115967 46.9148 0.4547 46.9148 1.01603V2.11407C44.5547 3.09493 42.9527 5.37892 42.873 7.95236C42.818 9.72657 43.4637 11.4082 44.6906 12.6867C45.9176 13.9652 47.5688 14.6801 49.3406 14.6988C50.2137 14.7082 50.9543 15.4125 50.959 16.2387C50.9613 16.6535 50.802 17.0449 50.509 17.3391C50.216 17.6332 49.827 17.7961 49.4109 17.7961C48.5883 17.7961 47.9098 17.1539 47.8652 16.3336C47.8348 15.7934 47.3895 15.3692 46.8504 15.3692H43.8891C43.616 15.3692 43.3512 15.4817 43.1602 15.6762C42.9703 15.8707 42.8648 16.1379 42.8707 16.4098C42.8824 16.882 42.9434 17.3449 43.0523 17.7961H39.8754C39.2965 17.7961 38.8242 18.2672 38.8242 18.8473V18.8637C38.8242 21.9211 41.3109 24.4078 44.3684 24.4078H46.9137V29.9672C46.6242 30.1887 46.3641 30.4488 46.1426 30.7383H44.4586C43.9734 30.7383 43.5797 31.132 43.5797 31.6172C43.5797 32.1024 43.9734 32.4961 44.4586 32.4961H45.3633C45.2766 32.9731 45.273 33.4758 45.3633 33.9738H35.6824C35.7445 33.4945 35.7469 32.9953 35.6824 32.4961H40.357C40.8422 32.4961 41.2359 32.1024 41.2359 31.6172C41.2359 31.132 40.8422 30.7383 40.357 30.7383H35.1562C34.7074 29.8149 34.0172 29.0285 33.1688 28.4625L37.2914 24.3399C37.5762 24.0551 37.6594 23.632 37.5059 23.2606C37.3523 22.8891 36.9926 22.6488 36.5906 22.6488H23.4012C22.9992 22.6488 22.6406 22.8891 22.4859 23.2606C22.3324 23.632 22.4168 24.0551 22.7004 24.3399L26.823 28.4625C25.9746 29.0285 25.2844 29.8149 24.8355 30.7383H13.8492C13.6266 30.4477 13.3676 30.1887 13.077 29.966V24.4067H15.6223C18.6797 24.4067 21.1664 21.9199 21.1664 18.8625V18.8461C21.1664 18.266 20.6953 17.7949 20.1152 17.7949H19.1074C19.9207 16.343 20.3578 14.693 20.3578 13.0113C20.3578 7.62072 15.9715 3.23439 10.5809 3.23439C5.19023 3.23439 0.808594 7.62189 0.808594 13.0125C0.808594 14.6942 1.2457 16.3442 2.05898 17.7961H1.05117C0.472266 17.7961 0 18.2672 0 18.8473V18.8637C0 21.9211 2.48672 24.4078 5.54414 24.4078H8.08945V29.9672C7.10625 30.7195 6.47109 31.9043 6.47109 33.2356C6.47109 35.5043 8.3168 37.35 10.5855 37.35C11.9156 37.35 13.1016 36.7149 13.8539 35.7317H24.8402C25.2879 36.6539 25.9758 37.4379 26.8219 38.0039L24.5508 43.6817H21.9879C21.6047 43.6817 21.2602 43.8949 21.0891 44.2371L19.7496 46.9172H17.8559C15.1465 46.9172 12.9434 49.1215 12.9434 51.8297V52.5352C12.9434 53.0824 13.3887 53.5277 13.9359 53.5277H46.0652C46.6125 53.5277 47.0578 53.0824 47.0578 52.5352V51.8297C47.0578 49.1203 44.8535 46.9172 42.1453 46.9172H40.2516L38.9121 44.2371C38.741 43.8949 38.3965 43.6817 38.0133 43.6817H35.4504L33.1793 38.0039C34.0254 37.4379 34.7133 36.6539 35.1609 35.7317H46.1473C46.8996 36.7149 48.0855 37.35 49.4156 37.35C51.6844 37.35 53.5301 35.5043 53.5301 33.2356C53.5301 31.9055 52.8949 30.7195 51.9117 29.9672V24.4078H54.457C57.5145 24.4078 60.0012 21.9211 60.0012 18.8637V18.8473C60.0012 18.2684 59.5301 17.7961 58.95 17.7961H58.9488ZM10.5855 4.99337C15.007 4.99337 18.6047 8.59103 18.6047 13.0125C18.6047 14.7363 18.0457 16.4192 17.0215 17.7961H15.0422C16.3242 16.6008 17.1258 14.8992 17.1258 13.0125C17.1258 9.40548 14.1914 6.47111 10.5844 6.47111C9.32109 6.47111 8.09414 6.83204 7.03711 7.51525C6.6293 7.77892 6.51328 8.32267 6.77578 8.73048C7.03945 9.13829 7.5832 9.25431 7.99102 8.99181C8.76328 8.49259 9.65977 8.22892 10.5844 8.22892C13.2223 8.22892 15.368 10.3746 15.368 13.0125C15.368 15.6504 13.2223 17.7961 10.5844 17.7961C7.94648 17.7961 5.80078 15.6504 5.80078 13.0125C5.80078 12.5649 5.86172 12.1219 5.98359 11.6965C6.11719 11.2301 5.84648 10.7438 5.38008 10.6102C4.91367 10.4766 4.42734 10.7473 4.29375 11.2137C4.12734 11.7961 4.04297 12.4008 4.04297 13.0113C4.04297 14.8981 4.8457 16.5996 6.12656 17.7949H4.14727C3.12422 16.418 2.56406 14.7352 2.56406 13.0113C2.56406 8.58986 6.16172 4.9922 10.5832 4.9922L10.5855 4.99337ZM5.54297 22.65C3.69141 22.65 2.1457 21.3129 1.81992 19.5539H19.35C19.0242 21.3129 17.4785 22.65 15.627 22.65H5.54414H5.54297ZM11.3238 24.4078V29.1879C10.8469 29.1012 10.3441 29.0977 9.84609 29.1879V24.4078H11.3238ZM10.5855 35.5922C9.28594 35.5922 8.22891 34.5352 8.22891 33.2356C8.22891 31.9359 9.28594 30.8789 10.5855 30.8789C11.8852 30.8789 12.9422 31.9359 12.9422 33.2356C12.9422 34.5352 11.8852 35.5922 10.5855 35.5922ZM24.3141 33.975H14.6332C14.7199 33.4981 14.7234 32.9953 14.6332 32.4973H24.3141C24.252 32.9777 24.2496 33.477 24.3141 33.975ZM25.2574 24.4078H34.7414L31.4578 27.6914C30.5227 27.4453 29.5102 27.4359 28.541 27.6914L25.2574 24.4078ZM37.5457 45.4395L38.284 46.9172H28.766C28.2809 46.9172 27.8871 47.3109 27.8871 47.7961C27.8871 48.2813 28.2809 48.675 28.766 48.675H42.143C43.8633 48.675 45.266 50.0578 45.2977 51.7711H14.7012C14.7328 50.059 16.1355 48.675 17.8559 48.675H20.2758C20.2875 48.675 20.298 48.675 20.3086 48.675H24.6656C25.1508 48.675 25.5445 48.2813 25.5445 47.7961C25.5445 47.3109 25.1508 46.9172 24.6656 46.9172H21.7148L22.4531 45.4395H25.1262C25.1402 45.4395 25.152 45.4395 25.1648 45.4395H37.5457ZM33.5555 43.6817H26.4445L28.4191 38.7469C29.4363 39.0387 30.5402 39.0457 31.5809 38.7469L33.5555 43.6817ZM30 37.2106C27.8086 37.2106 26.025 35.4281 26.025 33.2356C26.025 31.043 27.8086 29.2606 30 29.2606C32.1914 29.2606 33.975 31.0441 33.975 33.2356C33.975 35.427 32.1926 37.2106 30 37.2106ZM49.3617 12.9422C48.0668 12.9281 46.8598 12.4055 45.9609 11.4703C45.0645 10.5352 44.5922 9.30587 44.632 8.00743C44.6941 5.99767 46.0289 4.22931 47.952 3.6047C48.3844 3.46525 48.6738 3.06681 48.6738 2.61329V1.75665H50.1516V2.61095C50.1516 3.06564 50.4434 3.46407 50.8758 3.60236C52.5656 4.14493 53.7961 5.57228 54.1148 7.2797H52.5996C52.2141 5.87462 50.9262 4.85275 49.4121 4.85275C48.5262 4.85275 47.693 5.19845 47.0684 5.82775C46.4437 6.45587 46.1016 7.29025 46.1063 8.17736C46.1156 9.97032 47.6227 11.4457 49.4637 11.4645C50.7586 11.4785 51.9668 12.0012 52.8645 12.9363C54.1676 14.2945 54.4922 16.1942 53.9367 17.7949H52.3348C52.5879 17.318 52.7203 16.7836 52.718 16.2281C52.7086 14.4352 51.2016 12.9598 49.3605 12.941L49.3617 12.9422ZM46.4918 17.7961H44.8863C44.8113 17.5781 44.7527 17.3543 44.7105 17.127H46.227C46.2914 17.3613 46.3816 17.5852 46.493 17.7961H46.4918ZM49.4133 35.5922C48.1137 35.5922 47.0566 34.5352 47.0566 33.2356C47.0566 31.9359 48.1137 30.8789 49.4133 30.8789C50.7129 30.8789 51.7699 31.9359 51.7699 33.2356C51.7699 34.5352 50.7129 35.5922 49.4133 35.5922ZM48.675 29.1879V24.4078H50.1527V29.1879C49.6758 29.1012 49.173 29.0977 48.675 29.1879ZM54.4559 22.65H44.3719C42.5203 22.65 40.9746 21.3129 40.6488 19.5539H58.1789C57.8531 21.3129 56.3074 22.65 54.4559 22.65Z" fill="url(#paint2_linear_1_639)"/>
<path d="M49.4144 34.1144C49.8998 34.1144 50.2933 33.7209 50.2933 33.2355C50.2933 32.7501 49.8998 32.3566 49.4144 32.3566C48.929 32.3566 48.5355 32.7501 48.5355 33.2355C48.5355 33.7209 48.929 34.1144 49.4144 34.1144Z" fill="url(#paint3_linear_1_639)"/>
<path d="M10.5856 13.8914H12.2039C12.6891 13.8914 13.0828 13.4977 13.0828 13.0125C13.0828 12.5274 12.6891 12.1336 12.2039 12.1336H11.4645V10.5856C11.4645 10.1004 11.0707 9.70667 10.5856 9.70667C10.1004 9.70667 9.70667 10.1004 9.70667 10.5856V13.0125C9.70667 13.4977 10.1004 13.8914 10.5856 13.8914Z" fill="url(#paint4_linear_1_639)"/>
</g>
<defs>
<linearGradient id="paint0_linear_1_639" x1="27.5027" y1="33.235" x2="32.4961" y2="33.235" gradientUnits="userSpaceOnUse">
<stop stop-color="#223962"/>
<stop offset="0.526042" stop-color="#3277BC"/>
<stop offset="0.973958" stop-color="#48ABDF"/>
</linearGradient>
<linearGradient id="paint1_linear_1_639" x1="9.70667" y1="33.2355" x2="11.4645" y2="33.2355" gradientUnits="userSpaceOnUse">
<stop stop-color="#223962"/>
<stop offset="0.526042" stop-color="#3277BC"/>
<stop offset="0.973958" stop-color="#48ABDF"/>
</linearGradient>
<linearGradient id="paint2_linear_1_639" x1="-2.23522e-07" y1="26.7633" x2="60.0012" y2="26.7633" gradientUnits="userSpaceOnUse">
<stop stop-color="#223962"/>
<stop offset="0.526042" stop-color="#3277BC"/>
<stop offset="0.973958" stop-color="#48ABDF"/>
</linearGradient>
<linearGradient id="paint3_linear_1_639" x1="48.5355" y1="33.2355" x2="50.2933" y2="33.2355" gradientUnits="userSpaceOnUse">
<stop stop-color="#223962"/>
<stop offset="0.526042" stop-color="#3277BC"/>
<stop offset="0.973958" stop-color="#48ABDF"/>
</linearGradient>
<linearGradient id="paint4_linear_1_639" x1="9.70667" y1="11.799" x2="13.0828" y2="11.799" gradientUnits="userSpaceOnUse">
<stop stop-color="#223962"/>
<stop offset="0.526042" stop-color="#3277BC"/>
<stop offset="0.973958" stop-color="#48ABDF"/>
</linearGradient>
<clipPath id="clip0_1_639">
<rect width="60" height="53.5277" fill="white"/>
</clipPath>
</defs>
</svg>
