<svg width="60" height="60" viewBox="0 0 60 60" fill="none" xmlns="http://www.w3.org/2000/svg">
<g clip-path="url(#clip0_390_5970)">
<path d="M58.8234 51.5369C58.541 49.9232 57.1476 48.7514 55.5093 48.7514H53.9156V48.3729C55.4683 47.2994 56.4878 45.5064 56.4878 43.4803V41.4693C56.4878 40.6033 56.3003 39.7807 55.9664 39.0389C55.9558 39.0131 55.9453 38.9873 55.9324 38.9627C55.0816 37.1404 53.332 35.8186 51.2578 35.5678C51.73 33.7584 51.9703 31.8904 51.9703 30.0002C51.9703 28.11 51.7335 26.2736 51.2695 24.4771H58.4109C58.8808 24.4771 59.3238 24.2709 59.6261 23.9111C59.9285 23.5514 60.0562 23.0791 59.9753 22.6162L59.516 19.9807C59.4328 19.5025 58.9781 19.1826 58.4988 19.2658C58.0206 19.349 57.7007 19.8049 57.7839 20.283L58.2093 22.7193H42.8765L43.9945 16.3162C44.1292 15.5451 44.7949 14.9861 45.5765 14.9861H47.1703V15.224C47.1703 17.0838 48.6831 18.5979 50.5441 18.5979C52.405 18.5979 53.9179 17.085 53.9179 15.224V14.9861H55.5117C56.2933 14.9861 56.9589 15.5451 57.0937 16.3162C57.1687 16.7428 57.539 17.0439 57.9585 17.0439C58.0089 17.0439 58.0593 17.0393 58.1109 17.0311C58.589 16.9479 58.9089 16.492 58.8257 16.0139C58.5433 14.4002 57.1499 13.2283 55.5117 13.2283H53.9179V12.8498C55.4706 11.7764 56.4902 9.9834 56.4902 7.95723V5.94629C56.4902 5.08027 56.3027 4.25762 55.9687 3.51465C55.9581 3.48887 55.9476 3.46426 55.9347 3.43848C54.9867 1.40996 52.9277 -0.000976562 50.5453 -0.000976562C47.2828 -0.000976562 44.6261 2.64043 44.6003 5.89707C44.6003 5.89941 44.6003 5.90293 44.6003 5.90527C44.6003 5.91816 44.6003 5.93105 44.6003 5.94395V7.95488C44.6003 9.98105 45.6199 11.774 47.1726 12.8475V13.226H45.5788C45.1769 13.226 44.7902 13.2975 44.4304 13.4275C40.4296 9.94121 35.3249 8.02637 30.0023 8.02637C24.6796 8.02637 19.5749 9.94121 15.5742 13.4275C15.2144 13.2975 14.8277 13.226 14.4246 13.226H12.8308V12.8475C14.3835 11.774 15.4031 9.98105 15.4031 7.95488V5.94395C15.4031 5.07793 15.2156 4.25645 14.8816 3.51348C14.871 3.4877 14.8593 3.46191 14.8464 3.4373C13.8984 1.40996 11.8394 0.000195312 9.45698 0.000195312C6.19331 0.000195312 3.53784 2.6416 3.51206 5.89824C3.51206 5.90059 3.51206 5.9041 3.51206 5.90645C3.51206 5.91934 3.51206 5.93223 3.51206 5.94512V7.95605C3.51206 9.98223 4.53159 11.7752 6.08432 12.8486V13.2271H4.49057C2.85229 13.2271 1.45893 14.399 1.17651 16.0127L0.0233834 22.615C-0.057476 23.0779 0.0690866 23.5502 0.372602 23.91C0.674946 24.2697 1.11791 24.476 1.58901 24.476H8.73042C8.26518 26.2725 8.02963 28.1252 8.02963 29.999C8.02963 31.8729 8.26987 33.7572 8.74213 35.5666C5.81479 35.9193 3.53666 38.4061 3.51206 41.4213C3.51206 41.4236 3.51206 41.4272 3.51206 41.4295C3.51206 41.4424 3.51206 41.4553 3.51206 41.4682V43.4791C3.51206 45.5053 4.53159 47.2982 6.08432 48.3717V48.7502H4.49057C2.85229 48.7502 1.45893 49.9221 1.17651 51.5357L0.0233834 58.1393C-0.057476 58.6021 0.0690866 59.0744 0.372602 59.4342C0.674946 59.7939 1.11791 60.0002 1.58901 60.0002H17.3249C17.7949 60.0002 18.2378 59.7939 18.5414 59.4342C18.8437 59.0744 18.9714 58.6021 18.8906 58.1393L17.7386 51.5381C17.4574 49.9244 16.0628 48.7525 14.4246 48.7525H12.8308V48.374C13.7144 47.7635 14.4234 46.9197 14.8722 45.933C18.4453 49.3291 23.0425 51.4268 27.9632 51.8791C27.9902 51.8814 28.0183 51.8826 28.0453 51.8826C28.4941 51.8826 28.8773 51.5404 28.9195 51.0846C28.964 50.6018 28.6078 50.1729 28.1249 50.1283C23.271 49.6818 18.7582 47.4939 15.3832 43.9596C15.396 43.8014 15.4042 43.642 15.4042 43.4814V41.4705C15.4042 40.6045 15.2167 39.783 14.8828 39.04C14.8722 39.0143 14.8605 38.9885 14.8476 38.9627C14.0531 37.2611 12.4769 35.9967 10.5831 35.6322C10.0558 33.81 9.78862 31.9174 9.78862 30.0014C9.78862 28.0854 10.0464 26.2678 10.5527 24.4783H17.3261C17.796 24.4783 18.239 24.2721 18.5414 23.9123C18.8437 23.5525 18.9714 23.0803 18.8906 22.6174L17.7386 16.0162C17.6378 15.4385 17.3941 14.917 17.0472 14.4857C20.6777 11.4506 25.2456 9.78769 30.0023 9.78769C34.7589 9.78769 39.3257 11.4506 42.9574 14.4846C42.6105 14.9158 42.3667 15.4361 42.266 16.015L41.114 22.6162C41.0331 23.0791 41.1609 23.5514 41.4632 23.9111C41.7656 24.2709 42.2085 24.4771 42.6796 24.4771H49.4531C49.9605 26.2654 50.2171 28.1217 50.2171 30.0002C50.2171 31.8787 49.9499 33.8088 49.4226 35.6311C46.6956 36.1561 44.6261 38.549 44.6027 41.4213C44.6027 41.4236 44.6027 41.4272 44.6027 41.4295C44.6027 41.4424 44.6027 41.4553 44.6027 41.4682V43.4791C44.6027 43.6396 44.6109 43.799 44.6238 43.9572C41.2617 47.4775 36.7652 49.6643 31.9347 50.1213C31.4519 50.167 31.0968 50.5959 31.1425 51.0787C31.1859 51.5334 31.5679 51.8744 32.0167 51.8744C32.0449 51.8744 32.073 51.8732 32.1011 51.8709C36.996 51.408 41.5757 49.3104 45.1347 45.9295C45.5835 46.9162 46.2925 47.76 47.1761 48.3705V48.749H45.5824C43.9441 48.749 42.5507 49.9209 42.2683 51.5346L41.1163 58.1357C41.0355 58.5986 41.1632 59.0709 41.4656 59.4307C41.7679 59.7904 42.2109 59.9967 42.682 59.9967H58.4179C58.8878 59.9967 59.3308 59.7904 59.6331 59.4307C59.9355 59.0709 60.0632 58.5986 59.9824 58.1357L58.8304 51.5346L58.8234 51.5369ZM52.1589 15.224C52.1589 16.1146 51.4347 16.84 50.5429 16.84C49.6511 16.84 48.9269 16.1158 48.9269 15.224V13.6783C49.4414 13.8236 49.9828 13.9033 50.5429 13.9033C51.1031 13.9033 51.6445 13.8236 52.1589 13.6783V15.224ZM50.5429 1.75801C51.9773 1.75801 53.2453 2.4834 53.9999 3.58496C50.1398 6.2498 47.4316 5.75996 46.3921 5.39434C46.6628 3.34473 48.4206 1.75801 50.5429 1.75801ZM46.3546 7.21074C46.8574 7.3373 47.4913 7.43809 48.2437 7.43809C49.882 7.43809 52.0781 6.96113 54.6726 5.25254C54.7101 5.47871 54.7312 5.70957 54.7312 5.94629V7.95723C54.7312 10.267 52.8527 12.1455 50.5429 12.1455C48.2331 12.1455 46.3546 10.267 46.3546 7.95723V7.21074ZM11.0718 50.7471C11.0718 51.6377 10.3476 52.3631 9.45581 52.3631C8.56401 52.3631 7.84096 51.6389 7.84096 50.7471V49.2014C8.35542 49.3467 8.89682 49.4264 9.45581 49.4264C10.0148 49.4264 10.5574 49.3467 11.0718 49.2014V50.7471ZM14.4234 50.5092C15.205 50.5092 15.8706 51.0682 16.0054 51.8393L17.1234 58.2424H1.79057L2.90854 51.8393C3.04331 51.0682 3.70893 50.5092 4.49057 50.5092H6.08432V50.7471C6.08432 52.6068 7.59721 54.1209 9.45698 54.1209C11.3167 54.1209 12.8308 52.608 12.8308 50.7471V50.5092H14.4246H14.4234ZM13.6453 43.4803C13.6453 45.79 11.7667 47.6686 9.45698 47.6686C7.14721 47.6686 5.2687 45.79 5.2687 43.4803V42.7338C5.77143 42.8604 6.40541 42.9611 7.15776 42.9611C8.79604 42.9611 10.9921 42.4854 13.5867 40.7756C13.6242 41.0018 13.6453 41.2326 13.6453 41.4693V43.4803ZM12.914 39.108C9.05385 41.7729 6.34448 41.283 5.3062 40.9174C5.5769 38.8678 7.33471 37.2811 9.45698 37.2811C10.8914 37.2811 12.1593 38.0064 12.914 39.108ZM7.84096 13.6783C8.35542 13.8236 8.89682 13.9033 9.45581 13.9033C10.0148 13.9033 10.5574 13.8236 11.0718 13.6783V15.224C11.0718 16.1146 10.3476 16.84 9.45581 16.84C8.56401 16.84 7.84096 16.1158 7.84096 15.224V13.6783ZM9.45581 1.75801C10.8902 1.75801 12.1581 2.4834 12.9128 3.58496C9.05268 6.2498 6.34331 5.75996 5.30502 5.39434C5.57573 3.34473 7.33354 1.75801 9.45581 1.75801ZM5.26752 7.21074C5.77026 7.3373 6.40424 7.43809 7.15659 7.43809C8.79487 7.43809 10.991 6.96113 13.5855 5.25254C13.623 5.47871 13.6441 5.70957 13.6441 5.94629V7.95723C13.6441 10.267 11.7656 12.1455 9.45581 12.1455C7.14604 12.1455 5.26752 10.267 5.26752 7.95723V7.21074ZM1.79057 22.7193L2.90854 16.3162C3.04331 15.5451 3.70893 14.9861 4.49057 14.9861H6.08432V15.224C6.08432 17.0838 7.59721 18.5979 9.45698 18.5979C11.3167 18.5979 12.8308 17.085 12.8308 15.224V14.9861H14.4246C15.2062 14.9861 15.8718 15.5451 16.0066 16.3162L17.1246 22.7193H1.79057ZM48.9281 49.2014C49.4425 49.3467 49.9839 49.4264 50.5441 49.4264C51.1042 49.4264 51.6456 49.3467 52.1601 49.2014V50.7471C52.1601 51.6377 51.4359 52.3631 50.5441 52.3631C49.6523 52.3631 48.9281 51.6389 48.9281 50.7471V49.2014ZM50.5441 37.2811C51.9785 37.2811 53.2464 38.0064 54.0011 39.108C50.141 41.7729 47.4316 41.283 46.3933 40.9174C46.664 38.8678 48.4218 37.2799 50.5441 37.2799V37.2811ZM46.3558 42.7338C46.8585 42.8604 47.4925 42.9611 48.2449 42.9611C49.8831 42.9611 52.0792 42.4842 54.6738 40.7756C54.7113 41.0018 54.7324 41.2326 54.7324 41.4693V43.4803C54.7324 45.79 52.8539 47.6686 50.5441 47.6686C48.2343 47.6686 46.3558 45.79 46.3558 43.4803V42.7338ZM42.8777 58.2424L43.9956 51.8393C44.1304 51.0682 44.796 50.5092 45.5777 50.5092H47.1714V50.7471C47.1714 52.6068 48.6843 54.1209 50.5453 54.1209C52.4062 54.1209 53.9191 52.608 53.9191 50.7471V50.5092H55.5128C56.2945 50.5092 56.9601 51.0682 57.0949 51.8393L58.2128 58.2424H42.88H42.8777Z" fill="url(#paint0_linear_390_5970)"/>
<path d="M33.2766 37.1684C33.3094 37.1109 33.3621 37.0664 33.4254 37.0418C35.202 36.3574 36.7207 35.1668 37.8153 33.6012C38.9367 31.998 39.5285 30.1125 39.5285 28.1496C39.5285 22.9148 35.27 18.641 30.0364 18.6211C30.0246 18.6211 30.0129 18.6211 30.0012 18.6211C25.6032 18.6211 21.6996 21.7289 20.7106 26.0227C20.6016 26.4961 20.8969 26.9672 21.3703 27.0762C21.8426 27.1852 22.3149 26.8898 22.4239 26.4164C23.2301 22.9137 26.4141 20.3777 30.0012 20.3777C30.0106 20.3777 30.0211 20.3777 30.0305 20.3777C34.2985 20.3941 37.7719 23.8805 37.7719 28.1484C37.7719 31.3383 35.7715 34.2527 32.7938 35.4C32.3578 35.5676 31.9887 35.8828 31.7543 36.2871L30 39.3258L28.2457 36.2871C28.0125 35.884 27.6434 35.5676 27.2051 35.3988C24.7524 34.4531 22.9571 32.3578 22.4039 29.7961C22.302 29.3215 21.8344 29.0203 21.3598 29.1223C20.8852 29.2242 20.584 29.693 20.686 30.1664C21.3645 33.3094 23.5653 35.8781 26.5723 37.0383C26.6367 37.0629 26.6907 37.1086 26.7235 37.1648L28.7321 40.643C28.9969 41.1012 29.4715 41.3754 30.0012 41.3754C30.5309 41.3754 31.0055 41.1012 31.2703 40.643L33.2778 37.1648L33.2766 37.1684Z" fill="url(#paint1_linear_390_5970)"/>
<path d="M26.2395 28.9616C26.2922 28.9839 26.3473 29.0003 26.4035 29.012C26.4598 29.0237 26.5184 29.0296 26.5758 29.0296C26.6332 29.0296 26.6907 29.0237 26.7469 29.012C26.8032 29.0003 26.8582 28.9839 26.911 28.9616C26.9649 28.9394 27.0153 28.9124 27.0633 28.8808C27.1114 28.8491 27.1559 28.8128 27.1969 28.7718C27.361 28.6077 27.4547 28.3815 27.4547 28.1507C27.4547 27.9198 27.361 27.6925 27.1969 27.5284C27.1559 27.4886 27.1114 27.4511 27.0633 27.4194C27.0153 27.3878 26.9649 27.3608 26.911 27.3386C26.8582 27.3163 26.8032 27.2999 26.7469 27.2882C26.6332 27.2659 26.5172 27.2659 26.4035 27.2882C26.3473 27.2999 26.2922 27.3163 26.2395 27.3386C26.1867 27.3608 26.1352 27.3878 26.0871 27.4194C26.0391 27.4511 25.9946 27.4886 25.9535 27.5284C25.9137 27.5694 25.8762 27.614 25.8446 27.662C25.8129 27.7101 25.786 27.7604 25.7637 27.8144C25.7414 27.8671 25.725 27.9222 25.7133 27.9784C25.7028 28.0347 25.6969 28.0933 25.6969 28.1507C25.6969 28.3815 25.7906 28.6077 25.9535 28.7718C25.9946 28.8128 26.0391 28.8491 26.0871 28.8808C26.1352 28.9124 26.1867 28.9394 26.2395 28.9616Z" fill="url(#paint2_linear_390_5970)"/>
<path d="M30.1723 29.012C30.2273 29.0003 30.2836 28.9839 30.3363 28.9616C30.3891 28.9394 30.4406 28.9124 30.4875 28.8808C30.5355 28.8491 30.5812 28.8128 30.6211 28.7718C30.6621 28.7308 30.6984 28.6862 30.7312 28.6382C30.7629 28.5901 30.7898 28.5397 30.8121 28.4858C30.8332 28.4331 30.8508 28.378 30.8613 28.3218C30.873 28.2655 30.8789 28.2081 30.8789 28.1507C30.8789 28.0933 30.873 28.0347 30.8613 27.9784C30.8508 27.9222 30.8332 27.8671 30.8121 27.8144C30.7898 27.7616 30.7629 27.7101 30.7312 27.662C30.6984 27.614 30.6621 27.5694 30.6211 27.5284C30.5812 27.4886 30.5355 27.4511 30.4875 27.4194C30.4406 27.3878 30.3891 27.3608 30.3363 27.3386C30.2836 27.3163 30.2273 27.2999 30.1723 27.2882C30.0586 27.2659 29.9414 27.2659 29.8277 27.2882C29.7727 27.2999 29.7164 27.3163 29.6637 27.3386C29.6109 27.3608 29.5594 27.3878 29.5125 27.4194C29.4645 27.4511 29.4187 27.4886 29.3789 27.5284C29.3379 27.5694 29.3016 27.614 29.2687 27.662C29.2371 27.7101 29.2102 27.7616 29.1879 27.8144C29.1668 27.8671 29.1492 27.9222 29.1387 27.9784C29.127 28.0347 29.1211 28.0933 29.1211 28.1507C29.1211 28.3815 29.2148 28.6077 29.3789 28.7718C29.5418 28.9358 29.7691 29.0296 30 29.0296C30.0574 29.0296 30.1148 29.0237 30.1723 29.012Z" fill="url(#paint3_linear_390_5970)"/>
<path d="M32.9367 28.8807C32.9847 28.9124 33.0351 28.9393 33.0879 28.9616C33.1418 28.9838 33.1969 29.0002 33.2531 29.012C33.3094 29.0237 33.3668 29.0295 33.4242 29.0295C33.6562 29.0295 33.8824 28.9358 34.0465 28.7717C34.2094 28.6077 34.3031 28.3815 34.3031 28.1506C34.3031 27.9198 34.2094 27.6924 34.0465 27.5284C33.8414 27.3245 33.5379 27.2307 33.2531 27.2881C33.1969 27.2999 33.1418 27.3163 33.0879 27.3385C33.0351 27.3608 32.9847 27.3877 32.9367 27.4194C32.8886 27.451 32.8441 27.4885 32.8031 27.5284C32.639 27.6924 32.5453 27.9186 32.5453 28.1506C32.5453 28.3827 32.639 28.6077 32.8031 28.7717C32.8441 28.8116 32.8886 28.8491 32.9367 28.8807Z" fill="url(#paint4_linear_390_5970)"/>
</g>
<defs>
<linearGradient id="paint0_linear_390_5970" x1="-0.000488505" y1="29.9996" x2="60.0061" y2="29.9996" gradientUnits="userSpaceOnUse">
<stop stop-color="#223962"/>
<stop offset="0.526042" stop-color="#3277BC"/>
<stop offset="0.973958" stop-color="#48ABDF"/>
</linearGradient>
<linearGradient id="paint1_linear_390_5970" x1="20.6661" y1="29.9983" x2="39.5285" y2="29.9982" gradientUnits="userSpaceOnUse">
<stop stop-color="#223962"/>
<stop offset="0.526042" stop-color="#3277BC"/>
<stop offset="0.973958" stop-color="#48ABDF"/>
</linearGradient>
<linearGradient id="paint2_linear_390_5970" x1="25.6969" y1="28.1505" x2="27.4547" y2="28.1505" gradientUnits="userSpaceOnUse">
<stop stop-color="#223962"/>
<stop offset="0.526042" stop-color="#3277BC"/>
<stop offset="0.973958" stop-color="#48ABDF"/>
</linearGradient>
<linearGradient id="paint3_linear_390_5970" x1="29.1211" y1="28.1505" x2="30.8789" y2="28.1505" gradientUnits="userSpaceOnUse">
<stop stop-color="#223962"/>
<stop offset="0.526042" stop-color="#3277BC"/>
<stop offset="0.973958" stop-color="#48ABDF"/>
</linearGradient>
<linearGradient id="paint4_linear_390_5970" x1="32.5453" y1="28.1505" x2="34.3031" y2="28.1505" gradientUnits="userSpaceOnUse">
<stop stop-color="#223962"/>
<stop offset="0.526042" stop-color="#3277BC"/>
<stop offset="0.973958" stop-color="#48ABDF"/>
</linearGradient>
<clipPath id="clip0_390_5970">
<rect width="60" height="60" fill="white"/>
</clipPath>
</defs>
</svg>
