<svg width="60" height="60" viewBox="0 0 60 60" fill="none" xmlns="http://www.w3.org/2000/svg">
<path d="M42.8906 0H17.1094C14.6862 0 12.7148 1.97133 12.7148 4.39453V55.6055C12.7148 58.0287 14.6862 60 17.1094 60H42.8906C45.3138 60 47.2852 58.0287 47.2852 55.6055V4.39453C47.2852 1.97133 45.3138 0 42.8906 0ZM45.5273 47.6953H20.625C20.1396 47.6953 19.7461 48.0888 19.7461 48.5742C19.7461 49.0596 20.1396 49.4531 20.625 49.4531H45.5273V55.6055C45.5273 57.0594 44.3446 58.2422 42.8906 58.2422H17.1094C15.6554 58.2422 14.4727 57.0594 14.4727 55.6055V49.4531H17.1094C17.5948 49.4531 17.9883 49.0596 17.9883 48.5742C17.9883 48.0888 17.5948 47.6953 17.1094 47.6953H14.4727V8.78906H45.5273V47.6953ZM45.5273 7.03125H14.4727V4.39453C14.4727 2.94059 15.6554 1.75781 17.1094 1.75781H42.8906C44.3446 1.75781 45.5273 2.94059 45.5273 4.39453V7.03125Z" fill="url(#paint0_linear_343_4487)"/>
<path d="M33.5156 3.51562H30C29.5146 3.51562 29.1211 3.90914 29.1211 4.39453C29.1211 4.87992 29.5146 5.27344 30 5.27344H33.5156C34.001 5.27344 34.3945 4.87992 34.3945 4.39453C34.3945 3.90914 34.001 3.51562 33.5156 3.51562Z" fill="url(#paint1_linear_343_4487)"/>
<path d="M30 51.2109C28.5461 51.2109 27.3633 52.3937 27.3633 53.8477C27.3633 55.3016 28.5461 56.4844 30 56.4844C31.4539 56.4844 32.6367 55.3016 32.6367 53.8477C32.6367 52.3937 31.4539 51.2109 30 51.2109ZM30 54.7266C29.5153 54.7266 29.1211 54.3323 29.1211 53.8477C29.1211 53.363 29.5153 52.9688 30 52.9688C30.4847 52.9688 30.8789 53.363 30.8789 53.8477C30.8789 54.3323 30.4847 54.7266 30 54.7266Z" fill="url(#paint2_linear_343_4487)"/>
<path d="M26.4844 5.27344C26.9698 5.27344 27.3633 4.87994 27.3633 4.39453C27.3633 3.90912 26.9698 3.51562 26.4844 3.51562C25.999 3.51562 25.6055 3.90912 25.6055 4.39453C25.6055 4.87994 25.999 5.27344 26.4844 5.27344Z" fill="url(#paint3_linear_343_4487)"/>
<defs>
<linearGradient id="paint0_linear_343_4487" x1="12.7148" y1="30" x2="47.2852" y2="30" gradientUnits="userSpaceOnUse">
<stop stop-color="#223962"/>
<stop offset="0.526042" stop-color="#3277BC"/>
<stop offset="0.973958" stop-color="#48ABDF"/>
</linearGradient>
<linearGradient id="paint1_linear_343_4487" x1="29.1211" y1="4.39453" x2="34.3945" y2="4.39453" gradientUnits="userSpaceOnUse">
<stop stop-color="#223962"/>
<stop offset="0.526042" stop-color="#3277BC"/>
<stop offset="0.973958" stop-color="#48ABDF"/>
</linearGradient>
<linearGradient id="paint2_linear_343_4487" x1="27.3633" y1="53.8477" x2="32.6367" y2="53.8477" gradientUnits="userSpaceOnUse">
<stop stop-color="#223962"/>
<stop offset="0.526042" stop-color="#3277BC"/>
<stop offset="0.973958" stop-color="#48ABDF"/>
</linearGradient>
<linearGradient id="paint3_linear_343_4487" x1="25.6055" y1="4.39453" x2="27.3633" y2="4.39453" gradientUnits="userSpaceOnUse">
<stop stop-color="#223962"/>
<stop offset="0.526042" stop-color="#3277BC"/>
<stop offset="0.973958" stop-color="#48ABDF"/>
</linearGradient>
</defs>
</svg>
