<svg width="53" height="60" viewBox="0 0 53 60" fill="none" xmlns="http://www.w3.org/2000/svg">
<g clip-path="url(#clip0_343_5619)">
<path d="M6.65625 38.9082V34.9074C6.65625 34.4223 6.2625 34.0285 5.77734 34.0285C5.29219 34.0285 4.89844 34.4223 4.89844 34.9074V38.9082C4.89844 39.7742 4.19414 40.4785 3.32812 40.4785C2.46211 40.4785 1.75781 39.7742 1.75781 38.9082V21.0898C1.75781 20.2238 2.46211 19.5195 3.32812 19.5195C4.19414 19.5195 4.89844 20.2238 4.89844 21.0898V30.7742C4.89844 31.2594 5.29219 31.6531 5.77734 31.6531C6.2625 31.6531 6.65625 31.2594 6.65625 30.7742V21.0898C6.65625 19.2547 5.16328 17.7617 3.32812 17.7617C1.49297 17.7617 0 19.2547 0 21.091V38.9094C0 40.7445 1.49297 42.2375 3.32812 42.2375C5.16328 42.2375 6.65625 40.7445 6.65625 38.9094V38.9082Z" fill="url(#paint0_linear_343_5619)"/>
<path d="M49.6255 17.7637H38.3767C36.5345 17.7637 35.0356 19.2566 35.0356 21.0918C35.0356 22.927 36.5345 24.4199 38.3767 24.4199H40.6372V38.909C40.6372 40.7441 42.136 42.2371 43.9782 42.2371C45.8204 42.2371 47.3192 40.7441 47.3192 38.909V24.4199H49.6255C51.4677 24.4199 52.9665 22.927 52.9665 21.0918C52.9665 19.2566 51.4677 17.7637 49.6255 17.7637ZM49.6255 22.6621H46.4403C45.9552 22.6621 45.5614 23.0559 45.5614 23.541V38.909C45.5614 39.775 44.8513 40.4793 43.9782 40.4793C43.1052 40.4793 42.395 39.775 42.395 38.909V23.541C42.395 23.0559 42.0013 22.6621 41.5161 22.6621H38.3767C37.5036 22.6621 36.7935 21.9578 36.7935 21.0918C36.7935 20.2258 37.5036 19.5215 38.3767 19.5215H49.6255C50.4985 19.5215 51.2087 20.2258 51.2087 21.0918C51.2087 21.9578 50.4985 22.6621 49.6255 22.6621Z" fill="url(#paint1_linear_343_5619)"/>
<path d="M27.7641 29.9996C27.7641 26.9633 25.2938 24.4941 22.2586 24.4941C19.2235 24.4941 16.7532 26.9645 16.7532 29.9996C16.7532 33.0348 19.2235 35.5051 22.2586 35.5051C25.2938 35.5051 27.7641 33.0348 27.7641 29.9996ZM18.511 29.9996C18.511 27.9336 20.1926 26.252 22.2586 26.252C24.3247 26.252 26.0063 27.9336 26.0063 29.9996C26.0063 32.0656 24.3247 33.7473 22.2586 33.7473C20.1926 33.7473 18.511 32.0656 18.511 29.9996Z" fill="url(#paint2_linear_343_5619)"/>
<path d="M32.7433 12.8611C31.7847 12.2611 30.7699 11.7396 29.7258 11.3107C29.2769 11.1256 28.7636 11.34 28.5785 11.7889C28.3933 12.2377 28.6078 12.751 29.0566 12.9361C30.0094 13.3275 30.9363 13.8045 31.8105 14.3518C32.5441 14.8111 32.7679 15.7826 32.3086 16.5162C32.0191 16.9779 31.5211 17.2545 30.975 17.2545C30.682 17.2545 30.3949 17.1713 30.1453 17.0154C27.7207 15.499 24.9234 14.6975 22.0558 14.6975C19.3383 14.6975 16.6687 15.4217 14.3344 16.7928C13.9722 17.0049 13.5504 17.0635 13.1437 16.958C12.7383 16.8525 12.3972 16.5947 12.1851 16.2326C11.973 15.8705 11.9144 15.4486 12.0199 15.042C12.1254 14.6365 12.3832 14.2955 12.7441 14.0834C15.5601 12.4299 18.7793 11.5557 22.0558 11.5557C23.1011 11.5557 24.1523 11.6447 25.1801 11.8217C25.6582 11.9049 26.1129 11.5826 26.1949 11.1045C26.2769 10.6264 25.9558 10.1717 25.4777 10.0896C24.3527 9.89629 23.2008 9.79785 22.0558 9.79785C18.4676 9.79785 14.939 10.7553 11.8535 12.567C11.0871 13.017 10.541 13.7389 10.3172 14.599C10.0933 15.4592 10.2176 16.3557 10.6687 17.1221C11.1187 17.8885 11.8406 18.4346 12.7008 18.6584C13.5609 18.8822 14.4574 18.758 15.2238 18.3068C17.2887 17.0951 19.65 16.4541 22.0547 16.4541C24.5918 16.4541 27.0668 17.1631 29.2113 18.5049C29.741 18.8365 30.3504 19.0123 30.9738 19.0123C32.1293 19.0123 33.1851 18.4275 33.798 17.449C34.7707 15.8928 34.2972 13.8361 32.741 12.8623L32.7433 12.8611Z" fill="url(#paint3_linear_343_5619)"/>
<path d="M15.5777 23.1537C15.2086 22.8385 14.6531 22.883 14.3391 23.2521C12.7371 25.1307 11.8535 27.5271 11.8535 29.9998C11.8535 35.7373 16.5211 40.4049 22.2574 40.4049C27.9937 40.4049 32.6625 35.7373 32.6625 29.9998C32.6625 24.2623 27.9949 19.5947 22.2574 19.5947C20.7398 19.5947 19.2762 19.9146 17.9074 20.5451C17.4668 20.7479 17.2734 21.2705 17.4773 21.7111C17.6801 22.1518 18.2027 22.3451 18.6434 22.1412C19.7801 21.6174 20.9953 21.3525 22.2574 21.3525C27.0258 21.3525 30.9047 25.2314 30.9047 29.9998C30.9047 34.7682 27.0258 38.6471 22.2574 38.6471C17.4891 38.6471 13.6113 34.7682 13.6113 29.9998C13.6113 27.9443 14.3449 25.9533 15.6762 24.3924C15.9914 24.0232 15.9469 23.4678 15.5777 23.1537Z" fill="url(#paint4_linear_343_5619)"/>
<path d="M7.63943 10.2023C8.49959 10.4262 9.39607 10.3008 10.1625 9.85078C13.7203 7.76016 17.7926 6.65625 21.9387 6.65625C26.3121 6.65625 30.5789 7.87852 34.2761 10.1918C34.8058 10.5234 35.4152 10.698 36.0375 10.698C37.1929 10.698 38.2488 10.1133 38.8617 9.13477C39.3328 8.38125 39.4828 7.48828 39.2836 6.62227C39.0844 5.75625 38.5594 5.01914 37.8047 4.54805C33.0492 1.57266 27.5613 0 21.9387 0C16.609 0 11.3707 1.42148 6.79099 4.11211C5.20896 5.04141 4.67693 7.08516 5.60623 8.66719C6.05623 9.43359 6.7781 9.97852 7.63943 10.2023ZM7.68162 5.62734C11.9906 3.09609 16.9207 1.75781 21.9387 1.75781C27.232 1.75781 32.3965 3.23789 36.8742 6.03867C37.2293 6.26133 37.4777 6.6082 37.5715 7.01719C37.6652 7.42617 37.5949 7.84688 37.3722 8.20312C37.0828 8.66484 36.5847 8.94141 36.0386 8.94141C35.7457 8.94141 35.4586 8.8582 35.209 8.70234C31.2316 6.21445 26.6437 4.89961 21.9398 4.89961C17.4808 4.89961 13.1015 6.08789 9.27302 8.33672C8.91091 8.54883 8.48904 8.60742 8.0824 8.50195C7.67576 8.39648 7.33591 8.13867 7.1238 7.77773C6.68552 7.03125 6.9363 6.0668 7.68279 5.62852L7.68162 5.62734Z" fill="url(#paint5_linear_343_5619)"/>
<path d="M10.6687 42.8773C10.2187 43.6438 10.0933 44.5402 10.3172 45.4004C10.541 46.2605 11.0859 46.9824 11.8535 47.4324C14.939 49.2441 18.4664 50.2016 22.0558 50.2016C25.8433 50.2016 29.5383 49.1422 32.7433 47.1383C34.2996 46.1645 34.773 44.1078 33.8004 42.5516C33.1875 41.573 32.1328 40.9883 30.9761 40.9883C30.3539 40.9883 29.7445 41.1641 29.2136 41.4957C27.0691 42.8375 24.5941 43.5465 22.057 43.5465C19.6523 43.5465 17.2898 42.9055 15.2261 41.6938C14.4597 41.2438 13.5633 41.1184 12.7031 41.3422C11.8429 41.566 11.1211 42.1109 10.6711 42.8785L10.6687 42.8773ZM12.1851 43.7668C12.3972 43.4047 12.7383 43.148 13.1437 43.0426C13.275 43.0086 13.4086 42.991 13.5422 42.991C13.8175 42.991 14.0906 43.0648 14.3343 43.2078C16.6687 44.5777 19.3383 45.3031 22.0558 45.3031C24.9234 45.3031 27.7207 44.5016 30.1453 42.9852C30.3961 42.8281 30.682 42.7461 30.975 42.7461C31.5211 42.7461 32.0203 43.0215 32.3086 43.4844C32.7679 44.2191 32.5441 45.1895 31.8105 45.6488C28.8855 47.4781 25.5129 48.4449 22.0558 48.4449C18.7793 48.4449 15.5601 47.5707 12.7441 45.9172C12.382 45.7051 12.1254 45.3641 12.0199 44.9586C11.9144 44.5531 11.973 44.1301 12.1851 43.768V43.7668Z" fill="url(#paint6_linear_343_5619)"/>
<path d="M36.0387 49.3018C35.4164 49.3018 34.8071 49.4775 34.2762 49.808C31.0676 51.8143 27.3739 53.0166 23.5934 53.285C23.1094 53.3189 22.745 53.7396 22.7789 54.2236C22.8129 54.7076 23.2336 55.0732 23.7176 55.0381C27.784 54.7498 31.7579 53.4572 35.209 51.2986C35.4598 51.1416 35.7469 51.0596 36.0399 51.0596C36.586 51.0596 37.0852 51.335 37.3735 51.7979C37.5961 52.1541 37.6664 52.5748 37.5727 52.9838C37.4789 53.3928 37.2305 53.7408 36.8754 53.9623C32.3977 56.7631 27.2332 58.2432 21.9399 58.2432C16.9231 58.2432 11.993 56.9049 7.68285 54.3736C6.93637 53.9354 6.68559 52.9709 7.12387 52.2244C7.33598 51.8623 7.67699 51.6057 8.08246 51.5002C8.48793 51.3947 8.91098 51.4533 9.27309 51.6666C12.3575 53.4783 15.8778 54.6244 19.4532 54.9795C19.936 55.0275 20.3672 54.6748 20.4153 54.192C20.4633 53.7092 20.1106 53.2779 19.6278 53.2299C16.3032 52.8994 13.0301 51.8342 10.1637 50.1502C9.39731 49.7002 8.50082 49.5748 7.64067 49.7986C6.78051 50.0225 6.05864 50.5674 5.60746 51.3338C4.67817 52.9158 5.20903 54.9596 6.79223 55.8889C11.3719 58.5783 16.6102 60.001 21.9399 60.001C27.5637 60.001 33.0504 58.4283 37.8071 55.4529C38.5606 54.9818 39.0856 54.2447 39.286 53.3787C39.4852 52.5127 39.3364 51.6197 38.8641 50.8662C38.2512 49.8877 37.1954 49.3029 36.0399 49.3029L36.0387 49.3018Z" fill="url(#paint7_linear_343_5619)"/>
</g>
<defs>
<linearGradient id="paint0_linear_343_5619" x1="-2.47965e-08" y1="29.9996" x2="6.65625" y2="29.9996" gradientUnits="userSpaceOnUse">
<stop stop-color="#223962"/>
<stop offset="0.526042" stop-color="#3277BC"/>
<stop offset="0.973958" stop-color="#48ABDF"/>
</linearGradient>
<linearGradient id="paint1_linear_343_5619" x1="35.0356" y1="30.0004" x2="52.9665" y2="30.0004" gradientUnits="userSpaceOnUse">
<stop stop-color="#223962"/>
<stop offset="0.526042" stop-color="#3277BC"/>
<stop offset="0.973958" stop-color="#48ABDF"/>
</linearGradient>
<linearGradient id="paint2_linear_343_5619" x1="16.7532" y1="29.9996" x2="27.7641" y2="29.9996" gradientUnits="userSpaceOnUse">
<stop stop-color="#223962"/>
<stop offset="0.526042" stop-color="#3277BC"/>
<stop offset="0.973958" stop-color="#48ABDF"/>
</linearGradient>
<linearGradient id="paint3_linear_343_5619" x1="10.2085" y1="14.4051" x2="34.3035" y2="14.4051" gradientUnits="userSpaceOnUse">
<stop stop-color="#223962"/>
<stop offset="0.526042" stop-color="#3277BC"/>
<stop offset="0.973958" stop-color="#48ABDF"/>
</linearGradient>
<linearGradient id="paint4_linear_343_5619" x1="11.8535" y1="29.9998" x2="32.6625" y2="29.9998" gradientUnits="userSpaceOnUse">
<stop stop-color="#223962"/>
<stop offset="0.526042" stop-color="#3277BC"/>
<stop offset="0.973958" stop-color="#48ABDF"/>
</linearGradient>
<linearGradient id="paint5_linear_343_5619" x1="5.1488" y1="5.34903" x2="39.3695" y2="5.34903" gradientUnits="userSpaceOnUse">
<stop stop-color="#223962"/>
<stop offset="0.526042" stop-color="#3277BC"/>
<stop offset="0.973958" stop-color="#48ABDF"/>
</linearGradient>
<linearGradient id="paint6_linear_343_5619" x1="10.2087" y1="45.5949" x2="34.3058" y2="45.5949" gradientUnits="userSpaceOnUse">
<stop stop-color="#223962"/>
<stop offset="0.526042" stop-color="#3277BC"/>
<stop offset="0.973958" stop-color="#48ABDF"/>
</linearGradient>
<linearGradient id="paint7_linear_343_5619" x1="5.14978" y1="54.6514" x2="39.3721" y2="54.6514" gradientUnits="userSpaceOnUse">
<stop stop-color="#223962"/>
<stop offset="0.526042" stop-color="#3277BC"/>
<stop offset="0.973958" stop-color="#48ABDF"/>
</linearGradient>
<clipPath id="clip0_343_5619">
<rect width="52.9664" height="60" fill="white"/>
</clipPath>
</defs>
</svg>
