<svg width="80" height="80" viewBox="0 0 80 80" fill="none" xmlns="http://www.w3.org/2000/svg">
<g clip-path="url(#clip0_1_1662)">
<path d="M75.851 19.9574C73.5634 19.9574 71.7018 21.8184 71.7018 24.106C71.7018 25.1735 72.1077 26.1476 72.7718 26.8837L63.865 43.6084C63.4951 43.4998 63.1045 43.4406 62.6998 43.4406C61.7355 43.4406 60.8474 43.7726 60.1419 44.3268L58.367 43.1653C59.1525 40.6214 59.5559 37.9505 59.5559 35.2082C59.5559 26.9288 55.8236 19.2336 49.3155 14.0969C48.8065 13.6947 48.068 13.7819 47.6663 14.291C47.2647 14.8 47.3514 15.5379 47.8604 15.9401C53.801 20.6288 57.2073 27.6521 57.2073 35.2082C57.2073 40.34 55.6631 45.1996 52.7292 49.3451L49.3576 45.9735C51.434 42.7643 52.5265 39.0638 52.5265 35.2082C52.5265 30.4548 50.8206 25.8558 47.7225 22.2584C44.8783 18.9552 41.0306 16.6811 36.8034 15.7839V11.0189C39.3534 11.451 41.8027 12.2805 44.1013 13.4932C44.675 13.7954 45.3855 13.5762 45.6876 13.0025C45.9903 12.4288 45.7706 11.719 45.1969 11.4162C42.2489 9.86106 39.0751 8.88023 35.7633 8.50059C35.4313 8.46275 35.0975 8.56834 34.8478 8.79112C34.5982 9.01389 34.4554 9.3325 34.4554 9.66697V16.7598C34.4554 17.3372 34.8747 17.8285 35.4447 17.9195C39.5115 18.5671 43.2401 20.652 45.9433 23.7904C48.674 26.9624 50.1785 31.0169 50.1785 35.2082C50.1785 36.0468 50.1169 36.8763 50.0009 37.6935L37.6914 29.6418C38.2121 28.7507 38.5123 27.7156 38.5123 26.6108C38.5123 23.2875 35.8085 20.5836 32.4846 20.5836C29.1612 20.5836 26.4574 23.2875 26.4574 26.6108C26.4574 28.3625 27.2093 29.9415 28.4062 31.0438L17.4584 43.8873C16.0186 41.3715 15.2227 38.5218 15.1659 35.5512C15.1531 34.903 14.6209 34.3867 13.969 34.3995C13.3208 34.4123 12.8051 34.9476 12.8179 35.5964C12.8881 39.253 13.9446 42.7478 15.8513 45.7733L12.7074 49.4617C9.82843 45.4413 8.13228 40.5194 8.13228 35.2082C8.13228 23.3613 16.6546 13.2186 28.1657 11.0836V15.865C20.8574 17.5569 15.097 23.2484 13.3501 30.6062C13.2006 31.2367 13.5906 31.8696 14.2217 32.0197C14.8522 32.1693 15.4851 31.7793 15.6353 31.1482C17.2423 24.3788 22.7037 19.2085 29.5482 17.9775C30.1072 17.8768 30.5143 17.3903 30.5143 16.8221V9.71091C30.5143 9.37278 30.3691 9.05174 30.1152 8.82896C29.8619 8.60618 29.5238 8.50242 29.1893 8.54637C15.8465 10.2718 5.78427 21.7342 5.78427 35.2082C5.78427 41.2372 7.77888 46.8085 11.1425 51.2976L9.28278 53.4796C8.34346 52.8741 7.22591 52.5207 6.02719 52.5207C2.70384 52.5207 0 55.2246 0 58.5479C0 61.8712 2.70384 64.5757 6.02719 64.5757C9.35114 64.5757 12.055 61.8712 12.055 58.5479C12.055 57.2723 11.6552 56.0888 10.9759 55.1135L12.6568 53.1414C17.5829 58.6334 24.7295 62.094 32.6701 62.094C38.6784 62.094 44.3613 60.1549 49.1049 56.4855C49.3717 56.2792 49.5371 55.968 49.5584 55.6317C49.5798 55.2947 49.4553 54.9652 49.2166 54.7265L44.191 49.7003C43.7882 49.2981 43.1547 49.2419 42.6877 49.5685C39.741 51.6284 36.2773 52.7166 32.6701 52.7166C28.0534 52.7166 23.6968 50.9356 20.4039 47.7008C19.8302 47.1374 19.301 46.5405 18.8164 45.9155L30.4387 32.2797C31.0783 32.5117 31.7674 32.638 32.4852 32.638C33.8481 32.638 35.1066 32.1827 36.1173 31.4173L49.4705 40.152C48.9188 42.0294 48.0533 43.8092 46.8869 45.4291C46.5506 45.896 46.6019 46.5381 47.009 46.9452L52.0273 51.9635C52.2482 52.1844 52.5473 52.3077 52.8574 52.3077C52.8805 52.3077 52.9031 52.3071 52.9263 52.3053C53.2608 52.2857 53.5709 52.124 53.779 51.8609C55.3488 49.873 56.611 47.7167 57.5503 45.4376L58.7783 46.2408C58.6319 46.6638 58.5519 47.1173 58.5519 47.5891C58.5519 49.8767 60.4128 51.7383 62.7004 51.7383C64.988 51.7383 66.849 49.8767 66.849 47.5891C66.849 46.5582 66.4699 45.614 65.8449 44.8877L74.778 28.1135C75.1204 28.2051 75.4799 28.2551 75.851 28.2551C78.1386 28.2551 80.0001 26.3936 80.0001 24.106C80.0001 21.8184 78.1386 19.9574 75.851 19.9574ZM6.02719 62.2271C3.999 62.2271 2.34862 60.5767 2.34862 58.5479C2.34862 56.5191 3.999 54.8687 6.02719 54.8687C8.05598 54.8687 9.70636 56.5191 9.70636 58.5479C9.70636 60.5767 8.05598 62.2271 6.02719 62.2271ZM18.7578 49.3762C22.4932 53.0444 27.4339 55.0653 32.6701 55.0653C36.4292 55.0653 40.0516 54.0222 43.2084 52.0392L46.5879 55.4186C42.4882 58.2537 37.7042 59.746 32.6701 59.746C25.3087 59.746 18.6956 56.4874 14.1943 51.3372L17.2637 47.7362C17.7288 48.3057 18.2262 48.8537 18.7578 49.3762ZM28.806 26.6108C28.806 24.582 30.4564 22.9317 32.4852 22.9317C34.514 22.9317 36.1643 24.582 36.1643 26.6108C36.1643 28.6396 34.514 30.29 32.4852 30.29C30.4564 30.29 28.806 28.6396 28.806 26.6108ZM62.7004 49.3896C61.7074 49.3896 60.8999 48.5821 60.8999 47.5891C60.8999 47.2943 60.9725 47.0166 61.0983 46.7706C61.1874 46.6974 61.2679 46.6113 61.3345 46.51C61.3778 46.4435 61.4132 46.3745 61.4413 46.3043C61.7666 45.9857 62.2103 45.7886 62.6998 45.7886C63.6929 45.7886 64.5004 46.5967 64.5004 47.5891C64.5004 48.5821 63.6929 49.3896 62.7004 49.3896ZM75.851 25.9065C74.858 25.9065 74.0505 25.0984 74.0505 24.106C74.0505 23.1135 74.858 22.3054 75.851 22.3054C76.8434 22.3054 77.6509 23.1135 77.6509 24.106C77.6509 25.0984 76.8434 25.9065 75.851 25.9065Z" fill="url(#paint0_linear_1_1662)"/>
<path d="M63.3267 7.11997H68.8802V7.59299C68.8802 8.84237 69.897 9.85921 71.1464 9.85921H74.4411C75.6911 9.85921 76.7079 8.84237 76.7079 7.59299V4.29833C76.7079 3.04833 75.6911 2.03149 74.4411 2.03149H71.1464C69.897 2.03149 68.8802 3.04833 68.8802 4.29833V4.77135H63.3267C62.6779 4.77135 62.1523 5.29686 62.1523 5.94566C62.1523 6.59385 62.6779 7.11997 63.3267 7.11997ZM71.2282 4.38011H74.3593V7.5112H71.2282V4.38011Z" fill="url(#paint1_linear_1_1662)"/>
<path d="M57.3812 7.11998H59.2709C59.919 7.11998 60.4452 6.59386 60.4452 5.94567C60.4452 5.29687 59.919 4.77136 59.2709 4.77136H57.3812C56.733 4.77136 56.2075 5.29687 56.2075 5.94567C56.2075 6.59386 56.733 7.11998 57.3812 7.11998Z" fill="url(#paint2_linear_1_1662)"/>
<path d="M70.1245 11.8904C68.9782 11.8904 68.031 12.7461 67.8808 13.8514H64.2157C63.5675 13.8514 63.042 14.3775 63.042 15.0257C63.042 15.6739 63.5675 16.2 64.2157 16.2H67.8808C68.031 17.3054 68.9782 18.1611 70.1245 18.1611H71.8621C73.1115 18.1611 74.1284 17.1443 74.1284 15.8943V14.1572C74.1284 12.9072 73.1115 11.8904 71.8621 11.8904H70.1245ZM71.7803 15.8131H70.2063V14.239H71.7803V15.8131Z" fill="url(#paint3_linear_1_1662)"/>
<path d="M58.7861 15.0257C58.7861 15.6739 59.3116 16.2001 59.9604 16.2001H61.313C61.9612 16.2001 62.4873 15.6739 62.4873 15.0257C62.4873 14.3776 61.9612 13.8514 61.313 13.8514H59.9604C59.3116 13.8514 58.7861 14.3776 58.7861 15.0257Z" fill="url(#paint4_linear_1_1662)"/>
<path d="M12.9654 73.812H9.30026C9.15011 72.7067 8.20285 71.851 7.05662 71.851H5.31896C4.06957 71.851 3.05273 72.8678 3.05273 74.1178V75.8548C3.05273 77.1048 4.06957 78.1217 5.31896 78.1217H7.05662C8.20285 78.1217 9.15011 77.266 9.30026 76.1606H12.9654C13.6136 76.1606 14.1391 75.6351 14.1391 74.9863C14.1391 74.3381 13.6136 73.812 12.9654 73.812ZM6.97483 75.7737H5.40074V74.199H6.97483V75.7737Z" fill="url(#paint5_linear_1_1662)"/>
<path d="M24.8135 73.812H16.6507C16.0026 73.812 15.4771 74.3375 15.4771 74.9863C15.4771 75.6345 16.0026 76.1606 16.6507 76.1606H24.8135C25.4623 76.1606 25.9879 75.6345 25.9879 74.9863C25.9879 74.3375 25.4623 73.812 24.8135 73.812Z" fill="url(#paint6_linear_1_1662)"/>
<path d="M17.4414 69.1155H21.1065C21.7547 69.1155 22.2802 68.5899 22.2802 67.9411C22.2802 67.293 21.7547 66.7674 21.1065 66.7674H17.4414C17.2912 65.6615 16.344 64.8058 15.1977 64.8058H13.4601C12.2107 64.8058 11.1938 65.8226 11.1938 67.0726V68.8103C11.1938 70.0603 12.2107 71.0765 13.4601 71.0765H15.1977C16.344 71.0765 17.2912 70.2208 17.4414 69.1155ZM15.1159 68.7285H13.5419V67.1544H15.1159V68.7285Z" fill="url(#paint7_linear_1_1662)"/>
<path d="M27.6317 66.7675H25.1049C24.4567 66.7675 23.9312 67.293 23.9312 67.9412C23.9312 68.59 24.4567 69.1155 25.1049 69.1155H27.6317C28.2805 69.1155 28.806 68.59 28.806 67.9412C28.806 67.293 28.2805 66.7675 27.6317 66.7675Z" fill="url(#paint8_linear_1_1662)"/>
</g>
<defs>
<linearGradient id="paint0_linear_1_1662" x1="-2.98024e-07" y1="36.5344" x2="80.0001" y2="36.5344" gradientUnits="userSpaceOnUse">
<stop stop-color="#223962"/>
<stop offset="0.526042" stop-color="#3277BC"/>
<stop offset="0.973958" stop-color="#48ABDF"/>
</linearGradient>
<linearGradient id="paint1_linear_1_1662" x1="62.1523" y1="5.94535" x2="76.7079" y2="5.94535" gradientUnits="userSpaceOnUse">
<stop stop-color="#223962"/>
<stop offset="0.526042" stop-color="#3277BC"/>
<stop offset="0.973958" stop-color="#48ABDF"/>
</linearGradient>
<linearGradient id="paint2_linear_1_1662" x1="56.2075" y1="5.94567" x2="60.4452" y2="5.94567" gradientUnits="userSpaceOnUse">
<stop stop-color="#223962"/>
<stop offset="0.526042" stop-color="#3277BC"/>
<stop offset="0.973958" stop-color="#48ABDF"/>
</linearGradient>
<linearGradient id="paint3_linear_1_1662" x1="63.042" y1="15.0257" x2="74.1284" y2="15.0257" gradientUnits="userSpaceOnUse">
<stop stop-color="#223962"/>
<stop offset="0.526042" stop-color="#3277BC"/>
<stop offset="0.973958" stop-color="#48ABDF"/>
</linearGradient>
<linearGradient id="paint4_linear_1_1662" x1="58.7861" y1="15.0258" x2="62.4873" y2="15.0258" gradientUnits="userSpaceOnUse">
<stop stop-color="#223962"/>
<stop offset="0.526042" stop-color="#3277BC"/>
<stop offset="0.973958" stop-color="#48ABDF"/>
</linearGradient>
<linearGradient id="paint5_linear_1_1662" x1="3.05273" y1="74.9863" x2="14.1391" y2="74.9863" gradientUnits="userSpaceOnUse">
<stop stop-color="#223962"/>
<stop offset="0.526042" stop-color="#3277BC"/>
<stop offset="0.973958" stop-color="#48ABDF"/>
</linearGradient>
<linearGradient id="paint6_linear_1_1662" x1="15.4771" y1="74.9863" x2="25.9879" y2="74.9863" gradientUnits="userSpaceOnUse">
<stop stop-color="#223962"/>
<stop offset="0.526042" stop-color="#3277BC"/>
<stop offset="0.973958" stop-color="#48ABDF"/>
</linearGradient>
<linearGradient id="paint7_linear_1_1662" x1="11.1938" y1="67.9411" x2="22.2802" y2="67.9411" gradientUnits="userSpaceOnUse">
<stop stop-color="#223962"/>
<stop offset="0.526042" stop-color="#3277BC"/>
<stop offset="0.973958" stop-color="#48ABDF"/>
</linearGradient>
<linearGradient id="paint8_linear_1_1662" x1="23.9312" y1="67.9415" x2="28.806" y2="67.9415" gradientUnits="userSpaceOnUse">
<stop stop-color="#223962"/>
<stop offset="0.526042" stop-color="#3277BC"/>
<stop offset="0.973958" stop-color="#48ABDF"/>
</linearGradient>
<clipPath id="clip0_1_1662">
<rect width="80" height="80" fill="white"/>
</clipPath>
</defs>
</svg>
