<svg width="60" height="60" viewBox="0 0 60 60" fill="none" xmlns="http://www.w3.org/2000/svg">
<g clip-path="url(#clip0_343_5630)">
<path d="M58.9125 42.4287C58.4262 42.4287 58.0312 42.8225 58.0312 43.31V49.2596C58.0312 49.9393 57.4781 50.4924 56.7984 50.4924H46.6324V42.2576C46.6324 37.174 42.4969 33.0396 37.4144 33.0396H35.5359L35.7234 32.1221C35.8125 31.6885 35.7023 31.242 35.4223 30.8998C35.1422 30.5564 34.7273 30.3596 34.2844 30.3596H25.5105C25.0676 30.3596 24.6527 30.5564 24.3727 30.8998C24.0926 31.2432 23.9836 31.6885 24.0715 32.1221L24.259 33.0385H22.3805C17.298 33.0385 13.1625 37.174 13.1625 42.2564V50.4912H2.99531C2.31562 50.4912 1.7625 49.9381 1.7625 49.2584V25.6791C1.7625 25.1928 1.36875 24.7979 0.88125 24.7979C0.39375 24.7979 0 25.1928 0 25.6791V49.2584C0 50.9096 1.34414 52.2537 2.99531 52.2537H13.1613V53.5814H12.0633C11.059 53.5814 10.2422 54.3982 10.2422 55.4025V58.1799C10.2422 59.1842 11.059 60.001 12.0633 60.001H47.7293C48.7336 60.001 49.5504 59.1842 49.5504 58.1799V55.4025C49.5504 54.3982 48.7336 53.5814 47.7293 53.5814H46.6312V52.2537H56.7973C58.4484 52.2537 59.7926 50.9096 59.7926 49.2584V43.3088C59.7926 42.8225 59.3988 42.4275 58.9113 42.4275L58.9125 42.4287ZM33.9234 32.1209L31.7883 42.5553H28.0043L25.8691 32.1209H33.9234ZM47.7293 55.3439C47.7621 55.3439 47.7879 55.3709 47.7879 55.4025V58.1799C47.7879 58.2127 47.7609 58.2385 47.7293 58.2385H12.0633C12.0305 58.2385 12.0047 58.2115 12.0047 58.1799V55.4025C12.0047 55.3697 12.0316 55.3439 12.0633 55.3439H38.7129C39.1992 55.3439 39.5941 54.9502 39.5941 54.4627C39.5941 53.9752 39.2004 53.5814 38.7129 53.5814H14.9238V42.2564C14.9238 38.1443 18.2684 34.7998 22.3805 34.7998H24.6199L26.3273 43.1424C26.4668 43.8221 27.0715 44.3166 27.7664 44.3166H32.0297C32.7234 44.3166 33.3293 43.8232 33.4676 43.1424L35.175 34.7998H37.4144C41.5266 34.7998 44.8711 38.1443 44.8711 42.2564V53.5814H42.8262C42.3398 53.5814 41.9449 53.9752 41.9449 54.4627C41.9449 54.9502 42.3387 55.3439 42.8262 55.3439H47.7316H47.7293Z" fill="url(#paint0_linear_343_5630)"/>
<path d="M59.7937 18.3527V9.49219C59.7937 7.84102 58.4496 6.49688 56.7984 6.49688H50.9836V2.99531C50.9836 1.34414 49.6395 0 47.9883 0H43.4602C41.809 0 40.4648 1.34414 40.4648 2.99531V6.49688H19.3289V2.99531C19.3289 1.34414 17.9848 0 16.3336 0H11.8055C10.1543 0 8.81016 1.34414 8.81016 2.99531V6.49688H2.99531C1.34414 6.49688 0 7.84102 0 9.49219V21.5684C0 22.0547 0.39375 22.4496 0.88125 22.4496C1.36875 22.4496 1.7625 22.0559 1.7625 21.5684V19.2352H58.0324V39.198C58.0324 39.6844 58.4262 40.0793 58.9137 40.0793C59.4012 40.0793 59.7949 39.6855 59.7949 39.198V18.3563C59.7949 18.3563 59.7949 18.3551 59.7949 18.3539C59.7949 18.3539 59.7949 18.3527 59.7949 18.3516L59.7937 18.3527ZM42.2262 7.38516C42.2262 7.38516 42.2262 7.38047 42.2262 7.37813C42.2262 7.37578 42.2262 7.37344 42.2262 7.37109V2.99531C42.2262 2.31562 42.7793 1.7625 43.459 1.7625H47.9871C48.6668 1.7625 49.2199 2.31562 49.2199 2.99531V11.243C49.2199 11.9227 48.6668 12.4758 47.9871 12.4758H43.459C42.7793 12.4758 42.2262 11.9227 42.2262 11.243V7.38516ZM10.5715 2.99531C10.5715 2.31562 11.1246 1.7625 11.8043 1.7625H16.3324C17.0121 1.7625 17.5652 2.31562 17.5652 2.99531V11.243C17.5652 11.9227 17.0121 12.4758 16.3324 12.4758H11.8043C11.1246 12.4758 10.5715 11.9227 10.5715 11.243V2.99531ZM58.0312 17.4738H1.7625V9.49219C1.7625 8.8125 2.31562 8.25938 2.99531 8.25938H8.80898V11.243C8.80898 12.8941 10.1531 14.2383 11.8043 14.2383H16.3324C17.9836 14.2383 19.3277 12.8941 19.3277 11.243V8.25938H40.4637V11.243C40.4637 12.8941 41.8078 14.2383 43.459 14.2383H47.9871C49.6383 14.2383 50.9824 12.8941 50.9824 11.243V8.25938H56.7973C57.477 8.25938 58.0301 8.8125 58.0301 9.49219V17.4738H58.0312Z" fill="url(#paint1_linear_343_5630)"/>
</g>
<defs>
<linearGradient id="paint0_linear_343_5630" x1="-2.22745e-07" y1="42.3994" x2="59.7926" y2="42.3994" gradientUnits="userSpaceOnUse">
<stop stop-color="#223962"/>
<stop offset="0.526042" stop-color="#3277BC"/>
<stop offset="0.973958" stop-color="#48ABDF"/>
</linearGradient>
<linearGradient id="paint1_linear_343_5630" x1="-2.22753e-07" y1="20.0397" x2="59.7949" y2="20.0397" gradientUnits="userSpaceOnUse">
<stop stop-color="#223962"/>
<stop offset="0.526042" stop-color="#3277BC"/>
<stop offset="0.973958" stop-color="#48ABDF"/>
</linearGradient>
<clipPath id="clip0_343_5630">
<rect width="59.7937" height="60" fill="white"/>
</clipPath>
</defs>
</svg>
