<svg width="60" height="60" viewBox="0 0 60 60" fill="none" xmlns="http://www.w3.org/2000/svg">
<g clip-path="url(#clip0_343_4698)">
<path d="M53.4211 5.82051H47.7352C47.2488 5.82051 46.8539 6.21543 46.8539 6.70176C46.8539 7.18809 47.2488 7.58301 47.7352 7.58301H53.4211C56.0777 7.58301 58.2387 9.74395 58.2387 12.4006V39.9186H16.8551C16.3688 39.9186 15.9738 40.3135 15.9738 40.7998C15.9738 41.2861 16.3688 41.6811 16.8551 41.6811H58.1566C57.7418 43.9182 55.7766 45.6174 53.4211 45.6174H33.3598C32.8734 45.6174 32.4785 46.0123 32.4785 46.4986C32.4785 46.985 32.8734 47.3799 33.3598 47.3799H35.4527V50.8498C35.4527 51.0607 35.5289 51.2658 35.6672 51.4252L37.7391 53.8252H22.3793L24.4512 51.4252C24.5895 51.2658 24.6656 51.0607 24.6656 50.8498V47.3799H29.6074C30.0937 47.3799 30.4887 46.985 30.4887 46.4986C30.4887 46.0123 30.0937 45.6174 29.6074 45.6174H6.57891C4.22344 45.6174 2.25937 43.9182 1.84336 41.6811H13.1016C13.5879 41.6811 13.9828 41.2861 13.9828 40.7998C13.9828 40.3135 13.5879 39.9186 13.1016 39.9186H1.76133V12.3994C1.76133 9.74277 3.92227 7.58184 6.57891 7.58184H12.382C12.8684 7.58184 13.2633 7.18691 13.2633 6.70059C13.2633 6.21426 12.8684 5.81934 12.382 5.81934H6.57891C2.95078 5.82051 0 8.77246 0 12.3994V40.7975C0 44.4256 2.95078 47.3764 6.57891 47.3764H22.9031V50.5193L20.052 53.8229H18.8777C17.4727 53.8229 16.3289 54.9666 16.3289 56.3717V57.2646C16.3289 58.6697 17.4727 59.8135 18.8777 59.8135H41.1223C42.5273 59.8135 43.6711 58.6697 43.6711 57.2646V56.3717C43.6711 54.9666 42.5273 53.8229 41.1223 53.8229H40.0652L37.2141 50.5193V47.3764H53.4211C57.0492 47.3764 60 44.4256 60 40.7975V12.3994C60 8.77129 57.0492 5.82051 53.4211 5.82051ZM41.1223 55.583C41.5559 55.583 41.9098 55.9357 41.9098 56.3705V57.2635C41.9098 57.6971 41.557 58.051 41.1223 58.051H18.8777C18.4441 58.051 18.0902 57.6982 18.0902 57.2635V56.3705C18.0902 55.9369 18.443 55.583 18.8777 55.583H41.1223Z" fill="url(#paint0_linear_343_4698)"/>
<path d="M30.0586 37.534C34.125 37.534 37.9934 36.2543 41.2477 33.8344C41.6379 33.5438 41.7188 32.9918 41.4293 32.6016C41.1387 32.2113 40.5879 32.1305 40.1965 32.4199C37.2481 34.6125 33.743 35.7715 30.0586 35.7715C20.6825 35.7715 13.0536 28.1426 13.0536 18.7664C13.0536 9.39023 20.6825 1.76133 30.0586 1.76133C39.4348 1.76133 47.0637 9.39023 47.0637 18.7664C47.0637 18.9012 47.0614 19.0348 47.059 19.1695C47.0473 19.6559 47.4329 20.059 47.9192 20.0707C48.4067 20.0836 48.8086 19.6969 48.8204 19.2105C48.8239 19.0629 48.8262 18.9152 48.8262 18.7664C48.825 8.41875 40.4063 0 30.0586 0C19.711 0 11.2922 8.41875 11.2922 18.7664C11.2922 29.1141 19.711 37.5328 30.0586 37.5328V37.534Z" fill="url(#paint1_linear_343_4698)"/>
<path d="M30.0001 6.0875C36.9915 6.0875 42.6798 11.7758 42.6798 18.7672C42.6798 19.0941 42.6669 19.4246 42.6423 19.7504C42.6048 20.2355 42.9681 20.6586 43.4532 20.6961C43.9384 20.7348 44.3614 20.3703 44.3989 19.8852C44.427 19.5148 44.4411 19.1387 44.4411 18.7672C44.4411 10.8043 37.963 4.32617 30.0001 4.32617C22.0372 4.32617 15.5591 10.8043 15.5591 18.7672C15.5591 20.8203 15.9821 22.8043 16.8153 24.6652C16.9618 24.9922 17.2829 25.1867 17.6192 25.1867C17.7399 25.1867 17.8618 25.1621 17.979 25.1094C18.4231 24.9102 18.6212 24.3898 18.4231 23.9457C17.6919 22.3133 17.3204 20.5707 17.3204 18.7672C17.3204 11.7758 23.0087 6.0875 30.0001 6.0875Z" fill="url(#paint2_linear_343_4698)"/>
<path d="M29.9999 33.2072C33.3632 33.2072 36.6386 32.0248 39.2214 29.8791C39.5952 29.5685 39.6468 29.013 39.3362 28.6392C39.0257 28.2654 38.4702 28.2138 38.0964 28.5244C35.8288 30.4087 32.953 31.4458 29.9999 31.4458C26.2522 31.4458 22.7167 29.7994 20.2991 26.9294C19.9862 26.558 19.4296 26.5099 19.0581 26.8228C18.6866 27.1357 18.6386 27.6923 18.9515 28.0638C21.7042 31.3322 25.7319 33.206 29.9999 33.206V33.2072Z" fill="url(#paint3_linear_343_4698)"/>
<path d="M30.0586 8.68359C24.4981 8.68359 19.9758 13.207 19.9758 18.7664C19.9758 24.3258 24.4993 28.8492 30.0586 28.8492C31.6793 28.8492 33.2942 28.4531 34.7262 27.7031C35.1575 27.4781 35.3239 26.9449 35.0977 26.5148C34.8727 26.0836 34.3395 25.9172 33.9094 26.1434C32.7106 26.7703 31.4157 27.0891 30.0586 27.0891C25.4696 27.0891 21.7372 23.3555 21.7372 18.7676C21.7372 14.1797 25.4708 10.4461 30.0586 10.4461C34.2106 10.4461 37.7555 13.5457 38.304 17.6555C38.3684 18.1371 38.8114 18.4758 39.293 18.4113C39.7747 18.3469 40.1133 17.9039 40.0489 17.4223C39.3833 12.4406 35.0883 8.68477 30.0575 8.68477L30.0586 8.68359Z" fill="url(#paint4_linear_343_4698)"/>
<path d="M56.2113 24.2535L50.6976 21.3977C50.2253 21.1527 49.664 21.1926 49.2316 21.5008L45.8015 23.9441L36.0492 18.8934C36.0492 18.8512 36.0539 18.8078 36.0539 18.7668C36.0539 15.4609 33.3644 12.7715 30.0585 12.7715C26.7527 12.7715 24.0632 15.4609 24.0632 18.7668C24.0632 22.0727 26.7527 24.7621 30.0585 24.7621C31.35 24.7621 32.5933 24.3484 33.621 23.5879L43.3722 28.6375L43.3558 32.8492C43.3535 33.3801 43.6453 33.8617 44.1175 34.1066L49.6312 36.9625C49.8363 37.068 50.0578 37.1219 50.2792 37.1219C50.4843 37.1219 50.6894 37.0762 50.8816 36.9859C51.2824 36.7961 51.566 36.4398 51.6585 36.0062L52.3007 32.9992C52.3464 33.0016 52.391 33.0039 52.4367 33.0039C52.705 33.0039 52.9757 32.9629 53.2394 32.8785C53.9121 32.6652 54.4617 32.2023 54.7863 31.5754C55.1109 30.9484 55.1718 30.2336 54.9585 29.5609C54.8613 29.2527 54.7078 28.9727 54.5144 28.7254L56.6015 26.4637C56.9027 26.1379 57.0304 25.7008 56.9542 25.2637C56.8781 24.8266 56.6074 24.4598 56.2136 24.2559L56.2113 24.2535ZM30.0585 23.0008C27.7242 23.0008 25.8257 21.1012 25.8257 18.768C25.8257 16.4348 27.7253 14.5352 30.0585 14.5352C32.1105 14.5352 33.825 16.0023 34.2105 17.943L31.2738 16.4219C30.6468 16.0973 29.9308 16.0363 29.2593 16.2496C28.5867 16.4629 28.0371 16.9258 27.7125 17.5527C27.0421 18.8465 27.5496 20.4437 28.8433 21.1141L31.7812 22.6352C31.2445 22.8742 30.6585 23.0008 30.0585 23.0008ZM50.0308 35.1848L45.1171 32.6406L45.1289 29.548L50.6261 32.3945L50.0296 35.1848H50.0308ZM53.2207 30.7621C53.1128 30.9707 52.9289 31.1254 52.705 31.1969C52.4812 31.2684 52.2421 31.2473 52.0335 31.1395L29.6531 19.5484C29.2218 19.3246 29.0531 18.7926 29.2757 18.3613C29.4316 18.059 29.741 17.8855 30.0597 17.8855C30.1957 17.8855 30.3339 17.9172 30.4628 17.984L52.8433 29.575C53.2746 29.7988 53.4433 30.3309 53.2207 30.7621ZM53.0566 27.7012L47.5593 24.8547L50.0777 23.0605L54.9914 25.6047L53.0566 27.7012Z" fill="url(#paint5_linear_343_4698)"/>
</g>
<defs>
<linearGradient id="paint0_linear_343_4698" x1="-2.23517e-07" y1="32.8164" x2="60" y2="32.8164" gradientUnits="userSpaceOnUse">
<stop stop-color="#223962"/>
<stop offset="0.526042" stop-color="#3277BC"/>
<stop offset="0.973958" stop-color="#48ABDF"/>
</linearGradient>
<linearGradient id="paint1_linear_343_4698" x1="11.2922" y1="18.767" x2="48.8262" y2="18.767" gradientUnits="userSpaceOnUse">
<stop stop-color="#223962"/>
<stop offset="0.526042" stop-color="#3277BC"/>
<stop offset="0.973958" stop-color="#48ABDF"/>
</linearGradient>
<linearGradient id="paint2_linear_343_4698" x1="15.5591" y1="14.7565" x2="44.4411" y2="14.7565" gradientUnits="userSpaceOnUse">
<stop stop-color="#223962"/>
<stop offset="0.526042" stop-color="#3277BC"/>
<stop offset="0.973958" stop-color="#48ABDF"/>
</linearGradient>
<linearGradient id="paint3_linear_343_4698" x1="18.7449" y1="29.9117" x2="39.5392" y2="29.9117" gradientUnits="userSpaceOnUse">
<stop stop-color="#223962"/>
<stop offset="0.526042" stop-color="#3277BC"/>
<stop offset="0.973958" stop-color="#48ABDF"/>
</linearGradient>
<linearGradient id="paint4_linear_343_4698" x1="19.9758" y1="18.7664" x2="40.0567" y2="18.7664" gradientUnits="userSpaceOnUse">
<stop stop-color="#223962"/>
<stop offset="0.526042" stop-color="#3277BC"/>
<stop offset="0.973958" stop-color="#48ABDF"/>
</linearGradient>
<linearGradient id="paint5_linear_343_4698" x1="24.0632" y1="24.9467" x2="56.9758" y2="24.9467" gradientUnits="userSpaceOnUse">
<stop stop-color="#223962"/>
<stop offset="0.526042" stop-color="#3277BC"/>
<stop offset="0.973958" stop-color="#48ABDF"/>
</linearGradient>
<clipPath id="clip0_343_4698">
<rect width="60" height="59.8125" fill="white"/>
</clipPath>
</defs>
</svg>
