<svg width="60" height="60" viewBox="0 0 60 60" fill="none" xmlns="http://www.w3.org/2000/svg">
<g clip-path="url(#clip0_502_4584)">
<path fill-rule="evenodd" clip-rule="evenodd" d="M12.9506 16.6184C12.9506 17.5981 13.3326 18.5192 14.024 19.2117C14.7389 19.9266 15.6775 20.284 16.6174 20.284C17.5572 20.284 18.4959 19.9266 19.2107 19.2117C20.6404 17.782 20.6404 15.4559 19.2107 14.0262C18.7643 13.5797 18.2299 13.2727 17.6639 13.1051C17.5432 12.2824 17.2994 11.4047 16.9713 10.5164L18.7396 8.74806C18.8885 8.59923 19.0994 8.53477 19.3068 8.57462L30.6342 10.7859C30.7572 10.8106 30.8709 10.8703 30.9588 10.9594L51.8744 31.875C52.2225 32.2231 52.7873 32.2231 53.1353 31.875C53.4834 31.527 53.4834 30.9621 53.1353 30.6141L32.2197 9.69845C31.8787 9.35743 31.4486 9.12892 30.9752 9.03634L19.6478 6.82501C18.8592 6.67032 18.0471 6.91876 17.4775 7.48712L16.2166 8.74806C15.0623 6.3422 13.4709 4.07227 12.2311 2.83243C8.98496 -0.416007 4.23535 -0.94921 1.64316 1.64298C-0.949028 4.23517 -0.415825 8.98478 2.83027 12.2309C4.2166 13.6172 6.48886 15.1313 8.75293 16.2106L7.48613 17.4785C6.9166 18.0481 6.66933 18.859 6.82402 19.6488L9.03535 30.9762C9.12793 31.4496 9.35644 31.8797 9.69746 32.2207L11.6838 34.207C11.8572 34.3817 12.0857 34.4684 12.3143 34.4684C12.5428 34.4684 12.7713 34.3817 12.9447 34.207C13.2928 33.859 13.2928 33.2942 12.9447 32.9461L10.9584 30.9598C10.8693 30.8707 10.8096 30.7582 10.785 30.6352L8.57363 19.3078C8.53379 19.1016 8.59824 18.8895 8.74707 18.7418L15.558 11.9309C15.6775 12.3223 15.7713 12.6938 15.8381 13.0395C15.1736 13.1836 14.5408 13.5117 14.0264 14.0274C13.3338 14.7199 12.9518 15.641 12.9518 16.6195L12.9506 16.6184ZM10.0971 14.8664C7.84824 13.8738 5.44238 12.3211 4.09121 10.9699C2.82675 9.70548 2.01933 8.14571 1.82011 6.57892C1.63144 5.09649 2.01699 3.7922 2.9041 2.90509C4.80019 1.00899 8.41894 1.54102 10.9689 4.0922C12.3271 5.4504 13.8658 7.83048 14.8654 10.0981L10.0971 14.8664ZM16.8201 16.8199C17.2853 16.3535 17.5584 15.7535 17.6768 15.0609C17.7728 15.1266 17.8643 15.2004 17.9498 15.2859C18.6846 16.0207 18.6846 17.2149 17.9498 17.9496C17.215 18.6844 16.0209 18.6844 15.2861 17.9496C15.2018 17.8652 15.1268 17.7738 15.0611 17.6777C15.7818 17.5559 16.3713 17.2699 16.8201 16.8211V16.8199ZM15.2861 15.2859C15.4666 15.1055 15.6752 14.9707 15.8967 14.8781C15.8322 15.1664 15.7197 15.3973 15.558 15.5578C15.3834 15.7324 15.1408 15.8356 14.8771 15.8942C14.9709 15.6692 15.108 15.4629 15.2861 15.2848V15.2859ZM58.6716 36.1478L56.063 33.5403C55.7149 33.1923 55.1501 33.1923 54.8021 33.5403C54.454 33.8884 54.454 34.4532 54.8021 34.8013L57.4106 37.4087C57.931 37.929 58.2169 38.6204 58.2169 39.3563C58.2169 40.0923 57.9298 40.7837 57.4106 41.304L41.3044 57.4103C40.7841 57.9306 40.0927 58.2165 39.3579 58.2165C38.6231 58.2165 37.9306 57.9306 37.4103 57.4103L15.8794 35.8794C15.5313 35.5313 14.9665 35.5313 14.6185 35.8794C14.2704 36.2274 14.2704 36.7923 14.6185 37.1403L36.1493 58.6712C37.006 59.5278 38.1462 60.0001 39.3579 60.0001C40.5696 60.0001 41.7099 59.5278 42.5665 58.6712L58.6728 42.5649C60.4423 40.7954 60.4423 37.9173 58.6728 36.1478H58.6716ZM32.6353 43.7816V22.5684C32.6353 22.0832 33.029 21.6895 33.5142 21.6895C33.9994 21.6895 34.3931 22.0832 34.3931 22.5684V43.7816C34.3931 44.0242 34.2947 44.2434 34.1353 44.4027C33.6232 44.9535 32.6083 44.5469 32.6353 43.7816ZM23.5288 31.1448L23.4456 31.228C21.9608 32.7128 21.9608 35.1292 23.4456 36.614C24.9304 38.0987 27.3468 38.0987 28.8315 36.614L28.9147 36.5308C30.3995 35.046 30.3995 32.6296 28.9147 31.1448C27.43 29.6601 25.0136 29.6601 23.5288 31.1448ZM27.6726 35.2886L27.5894 35.3718C26.7901 36.171 25.4882 36.171 24.689 35.3718C23.8897 34.5726 23.8897 33.2706 24.689 32.4714L24.7722 32.3882C25.5714 31.589 26.8733 31.589 27.6726 32.3882C28.4718 33.1874 28.4718 34.4894 27.6726 35.2886ZM38.1126 29.6538L38.1958 29.5706C39.6806 28.0858 42.097 28.0858 43.5817 29.5706C45.0665 31.0554 45.0665 33.4718 43.5817 34.9565L43.4985 35.0397C42.0138 36.5245 39.5974 36.5245 38.1126 35.0397C36.6278 33.555 36.6278 31.1386 38.1126 29.6538ZM42.2563 33.7976L42.3395 33.7144C43.1388 32.9151 43.1388 31.6132 42.3395 30.814C41.5403 30.0147 40.2384 30.0147 39.4392 30.814L39.356 30.8972C38.5567 31.6964 38.5567 32.9983 39.356 33.7976C40.1552 34.5968 41.4571 34.5968 42.2563 33.7976Z" fill="url(#paint0_linear_502_4584)"/>
</g>
<defs>
<linearGradient id="paint0_linear_502_4584" x1="-2.23517e-07" y1="30.0001" x2="59.9999" y2="30.0001" gradientUnits="userSpaceOnUse">
<stop stop-color="#223962"/>
<stop offset="0.526042" stop-color="#3277BC"/>
<stop offset="0.973958" stop-color="#48ABDF"/>
</linearGradient>
<clipPath id="clip0_502_4584">
<rect width="59.9977" height="60" fill="white"/>
</clipPath>
</defs>
</svg>
