<svg width="60" height="60" viewBox="0 0 60 60" fill="none" xmlns="http://www.w3.org/2000/svg">
<g clip-path="url(#clip0_343_4821)">
<path d="M59.6508 22.2355L52.0465 14.6862C51.504 14.1472 50.5512 14.5444 50.5512 15.3097V19.0772C44.3309 19.0315 38.3907 20.9171 33.7383 25.1628V9.36006H37.5059C38.2711 9.36006 38.6672 8.40732 38.1282 7.86475L30.5778 0.259277C30.1629 -0.0864258 29.7469 -0.0864258 29.3321 0.259277L21.7829 7.86357C21.2438 8.40615 21.6411 9.35889 22.4051 9.35889H26.1727V25.1581C24.7043 23.814 23.0731 22.6679 21.3036 21.7362C20.8747 21.5101 20.3438 21.6753 20.1188 22.1042C19.8926 22.5331 20.0579 23.064 20.4868 23.289C22.6149 24.4081 24.5262 25.8659 26.1727 27.6237V34.6972C22.7426 27.6671 15.9176 24.8839 8.48208 24.8839C7.99692 24.8839 7.60435 25.2765 7.60435 25.7616V28.2987L2.12231 22.8565L7.60435 17.4144V19.9515C7.60435 20.4366 7.99692 20.8292 8.48208 20.8292C11.1657 20.8292 13.7942 20.9077 16.4016 21.6519C17.5266 21.9354 17.9883 20.3159 16.8833 19.9644C14.4223 19.2624 11.9075 19.0503 9.35981 19.0749V15.3073C9.35981 14.5421 8.40708 14.146 7.8645 14.6839L0.259033 22.2355C-0.0866699 22.6503 -0.0866699 23.0663 0.259033 23.4812L7.86333 31.0304C8.40591 31.5694 9.35864 31.1733 9.35864 30.4069V26.6394C18.3739 26.5304 26.0836 32.9897 26.1715 42.3272V46.3198C20.6965 47.9522 16.6922 53.0335 16.6922 59.0312C16.6922 59.5163 17.0848 59.9089 17.57 59.9089C18.0551 59.9089 18.4477 59.5163 18.4477 59.0312C18.3282 49.9515 28.9407 44.3147 36.3868 49.4897C37.3266 50.1249 38.3098 48.6706 37.3688 48.0354C36.2426 47.2749 35.0192 46.6983 33.736 46.3175V42.319C33.736 32.9874 41.6086 26.5327 50.5489 26.6405V30.4081C50.5489 31.1733 51.5016 31.5694 52.0442 31.0315L59.6485 23.4823C59.9942 23.0675 59.9942 22.6515 59.6485 22.2366L59.6508 22.2355ZM32.8594 7.60459C32.3743 7.60459 31.9817 7.99717 31.9817 8.48232V27.1925C31.9747 27.2558 31.9747 27.3202 31.9817 27.3835V45.9249C30.6411 45.7198 29.2688 45.7187 27.9282 45.9249V8.48232C27.9282 7.99717 27.5356 7.60459 27.0504 7.60459H24.5133L29.9555 2.12256L35.3977 7.60459H32.8606H32.8594ZM52.3055 28.2999V25.7628C52.3055 25.2776 51.9129 24.8851 51.4278 24.8851C43.9922 24.8851 37.1696 27.6659 33.7372 34.6983V27.6249C38.4762 22.5718 44.7047 20.8304 51.4278 20.8304C51.9129 20.8304 52.3055 20.4378 52.3055 19.9526V17.4155L57.7875 22.8577L52.3055 28.2999Z" fill="url(#paint0_linear_343_4821)"/>
<path d="M12.239 47.366C11.8241 47.1163 11.2851 47.2499 11.0343 47.6648C10.7835 48.0808 10.5444 48.5109 10.3218 48.9421C10.1003 49.3734 10.2691 49.9019 10.7003 50.1245C11.1468 50.3331 11.5405 50.2066 11.8827 49.746C12.0878 49.3488 12.3081 48.9538 12.5378 48.5706C12.7874 48.1558 12.6538 47.6167 12.239 47.366Z" fill="url(#paint1_linear_343_4821)"/>
<path d="M9.98779 51.8579C9.5249 51.7126 9.03271 51.9704 8.88857 52.4333C8.74325 52.8962 8.61318 53.3696 8.49833 53.8419C8.38466 54.313 8.67411 54.7876 9.14521 54.9013C9.57646 55.0056 10.0991 54.688 10.2046 54.2544C10.3089 53.8196 10.4296 53.3837 10.5632 52.9583C10.7073 52.4954 10.4507 52.0032 9.98779 51.8591V51.8579Z" fill="url(#paint2_linear_343_4821)"/>
<path d="M14.2395 43.5376C13.8985 43.8833 13.5656 44.2442 13.2481 44.6122C12.9317 44.979 12.9715 45.5333 13.3383 45.8497C13.7637 46.1614 14.1762 46.1321 14.5758 45.7594C14.8676 45.4208 15.1746 45.088 15.4887 44.7704C15.8285 44.4259 15.825 43.8692 15.4805 43.5294C15.136 43.1884 14.5793 43.193 14.2395 43.5376Z" fill="url(#paint3_linear_343_4821)"/>
<path d="M22.0137 40.2559C22.1227 40.2559 22.2352 40.2348 22.343 40.1914C22.7567 40.0238 23.1809 39.8692 23.6051 39.7297C24.0657 39.5785 24.3165 39.0828 24.1641 38.6223C24.013 38.1617 23.5173 37.9121 23.0567 38.0621C22.5962 38.2133 22.1344 38.382 21.6844 38.5649C21.2356 38.7465 21.0188 39.2586 21.2005 39.7074C21.3387 40.0485 21.6669 40.2559 22.0149 40.2559H22.0137Z" fill="url(#paint4_linear_343_4821)"/>
<path d="M17.6179 42.6769C17.7949 42.6769 17.9742 42.623 18.1289 42.5129C18.4921 42.2527 18.8683 42.0008 19.2468 41.7652C19.6582 41.5098 19.7847 40.9683 19.5292 40.557C19.2738 40.1457 18.7324 40.0191 18.321 40.2746C17.9085 40.5301 17.5007 40.8043 17.1058 41.0867C16.7121 41.3691 16.6218 41.9176 16.9042 42.3113C17.0753 42.5504 17.3449 42.6769 17.6179 42.6769Z" fill="url(#paint5_linear_343_4821)"/>
<path d="M8.86514 56.754C8.38232 56.7212 7.96397 57.0891 7.93232 57.572C7.90068 58.0548 7.88428 58.547 7.88428 59.0321C7.88428 59.5173 8.27686 59.9099 8.76201 59.9099C9.24717 59.9099 9.63975 59.5173 9.63975 59.0321C9.63975 58.5845 9.65498 58.1321 9.68311 57.6868C9.71475 57.2028 9.34795 56.7856 8.86514 56.754Z" fill="url(#paint6_linear_343_4821)"/>
<path d="M38.2265 38.6552C37.7765 38.4735 37.3148 38.3036 36.8543 38.1525C35.741 37.8243 35.216 39.4239 36.3058 39.82C36.7289 39.9595 37.1543 40.1153 37.5679 40.2817C37.9863 40.4517 38.5394 40.2208 38.7105 39.7978C38.8921 39.3489 38.6753 38.8368 38.2265 38.6552Z" fill="url(#paint7_linear_343_4821)"/>
<path d="M49.5878 49.0325C49.3652 48.6012 49.1261 48.1712 48.8753 47.7551C48.6257 47.3403 48.0855 47.2055 47.6706 47.4563C47.2558 47.7059 47.1222 48.2462 47.3718 48.661C47.6027 49.0442 47.823 49.4391 48.0269 49.8364C48.3691 50.2969 48.7628 50.4235 49.2093 50.2149C49.6406 49.9934 49.8093 49.4637 49.5878 49.0325Z" fill="url(#paint8_linear_343_4821)"/>
<path d="M51.0433 56.8439C50.5593 56.8755 50.1937 57.2927 50.2253 57.7767C50.2546 58.222 50.2687 58.6744 50.2687 59.122C50.2687 59.6072 50.6612 59.9998 51.1464 59.9998C51.6315 59.9998 52.0241 59.6072 52.0241 59.122C52.0241 58.6369 52.0077 58.1458 51.9761 57.6619C51.9444 57.1779 51.5261 56.8111 51.0433 56.8427V56.8439Z" fill="url(#paint9_linear_343_4821)"/>
<path d="M50.7632 54.9911C51.2343 54.8774 51.5237 54.404 51.4101 53.9317C51.2964 53.4595 51.1651 52.986 51.0198 52.5231C50.8745 52.0603 50.3823 51.8024 49.9206 51.9478C49.4577 52.0931 49.1999 52.5853 49.3452 53.047C49.4788 53.4724 49.5995 53.9095 49.7038 54.3431C49.8081 54.7767 50.3308 55.0942 50.7632 54.9899V54.9911Z" fill="url(#paint10_linear_343_4821)"/>
<path d="M45.6704 43.6279C45.3294 43.2821 44.7739 43.2786 44.4294 43.6196C44.0849 43.9595 44.0802 44.5161 44.4212 44.8607C44.7353 45.1782 45.0423 45.5111 45.3341 45.8497C45.7337 46.2224 46.1474 46.2528 46.5716 45.94C46.9384 45.6236 46.9794 45.0693 46.6618 44.7025C46.3443 44.3357 46.0114 43.9736 45.6704 43.6279Z" fill="url(#paint11_linear_343_4821)"/>
<path d="M41.7809 42.604C42.2169 42.877 42.6247 42.8102 43.0056 42.4024C43.288 42.0087 43.1977 41.4602 42.804 41.1778C42.4102 40.8954 42.0013 40.6223 41.5888 40.3657C41.1774 40.1102 40.636 40.2356 40.3806 40.6481C40.1251 41.0594 40.2516 41.6009 40.663 41.8563C41.0427 42.0919 41.4188 42.3438 41.7809 42.604Z" fill="url(#paint12_linear_343_4821)"/>
<path d="M39.6105 51.2276C39.2132 51.5054 39.1159 52.0526 39.3937 52.4499C40.746 54.3858 41.4608 56.6616 41.4608 59.0323C41.4608 59.5175 41.8534 59.9101 42.3386 59.9101C42.8237 59.9101 43.2163 59.5175 43.2163 59.0323C43.2163 56.3007 42.3925 53.6769 40.8327 51.4444C40.555 51.0472 40.0077 50.9499 39.6105 51.2276Z" fill="url(#paint13_linear_343_4821)"/>
</g>
<defs>
<linearGradient id="paint0_linear_343_4821" x1="-0.000244364" y1="29.9545" x2="59.9078" y2="29.9545" gradientUnits="userSpaceOnUse">
<stop stop-color="#223962"/>
<stop offset="0.526042" stop-color="#3277BC"/>
<stop offset="0.973958" stop-color="#48ABDF"/>
</linearGradient>
<linearGradient id="paint1_linear_343_4821" x1="10.2244" y1="48.7311" x2="12.6635" y2="48.7311" gradientUnits="userSpaceOnUse">
<stop stop-color="#223962"/>
<stop offset="0.526042" stop-color="#3277BC"/>
<stop offset="0.973958" stop-color="#48ABDF"/>
</linearGradient>
<linearGradient id="paint2_linear_343_4821" x1="8.47363" y1="53.3693" x2="10.6033" y2="53.3693" gradientUnits="userSpaceOnUse">
<stop stop-color="#223962"/>
<stop offset="0.526042" stop-color="#3277BC"/>
<stop offset="0.973958" stop-color="#48ABDF"/>
</linearGradient>
<linearGradient id="paint3_linear_343_4821" x1="13.0347" y1="44.6698" x2="15.7413" y2="44.6698" gradientUnits="userSpaceOnUse">
<stop stop-color="#223962"/>
<stop offset="0.526042" stop-color="#3277BC"/>
<stop offset="0.973958" stop-color="#48ABDF"/>
</linearGradient>
<linearGradient id="paint4_linear_343_4821" x1="21.1362" y1="39.1372" x2="24.2087" y2="39.1372" gradientUnits="userSpaceOnUse">
<stop stop-color="#223962"/>
<stop offset="0.526042" stop-color="#3277BC"/>
<stop offset="0.973958" stop-color="#48ABDF"/>
</linearGradient>
<linearGradient id="paint5_linear_343_4821" x1="16.7397" y1="41.4098" x2="19.6613" y2="41.4098" gradientUnits="userSpaceOnUse">
<stop stop-color="#223962"/>
<stop offset="0.526042" stop-color="#3277BC"/>
<stop offset="0.973958" stop-color="#48ABDF"/>
</linearGradient>
<linearGradient id="paint6_linear_343_4821" x1="7.88428" y1="58.3309" x2="9.68501" y2="58.3309" gradientUnits="userSpaceOnUse">
<stop stop-color="#223962"/>
<stop offset="0.526042" stop-color="#3277BC"/>
<stop offset="0.973958" stop-color="#48ABDF"/>
</linearGradient>
<linearGradient id="paint7_linear_343_4821" x1="35.7065" y1="39.2232" x2="38.7747" y2="39.2232" gradientUnits="userSpaceOnUse">
<stop stop-color="#223962"/>
<stop offset="0.526042" stop-color="#3277BC"/>
<stop offset="0.973958" stop-color="#48ABDF"/>
</linearGradient>
<linearGradient id="paint8_linear_343_4821" x1="47.2461" y1="48.8212" x2="49.6852" y2="48.8212" gradientUnits="userSpaceOnUse">
<stop stop-color="#223962"/>
<stop offset="0.526042" stop-color="#3277BC"/>
<stop offset="0.973958" stop-color="#48ABDF"/>
</linearGradient>
<linearGradient id="paint9_linear_343_4821" x1="50.2234" y1="58.4203" x2="52.0241" y2="58.4203" gradientUnits="userSpaceOnUse">
<stop stop-color="#223962"/>
<stop offset="0.526042" stop-color="#3277BC"/>
<stop offset="0.973958" stop-color="#48ABDF"/>
</linearGradient>
<linearGradient id="paint10_linear_343_4821" x1="49.3047" y1="53.4586" x2="51.4348" y2="53.4586" gradientUnits="userSpaceOnUse">
<stop stop-color="#223962"/>
<stop offset="0.526042" stop-color="#3277BC"/>
<stop offset="0.973958" stop-color="#48ABDF"/>
</linearGradient>
<linearGradient id="paint11_linear_343_4821" x1="44.1682" y1="44.7601" x2="46.8757" y2="44.7601" gradientUnits="userSpaceOnUse">
<stop stop-color="#223962"/>
<stop offset="0.526042" stop-color="#3277BC"/>
<stop offset="0.973958" stop-color="#48ABDF"/>
</linearGradient>
<linearGradient id="paint12_linear_343_4821" x1="40.2485" y1="41.5009" x2="43.1701" y2="41.5009" gradientUnits="userSpaceOnUse">
<stop stop-color="#223962"/>
<stop offset="0.526042" stop-color="#3277BC"/>
<stop offset="0.973958" stop-color="#48ABDF"/>
</linearGradient>
<linearGradient id="paint13_linear_343_4821" x1="39.2354" y1="55.4897" x2="43.2163" y2="55.4897" gradientUnits="userSpaceOnUse">
<stop stop-color="#223962"/>
<stop offset="0.526042" stop-color="#3277BC"/>
<stop offset="0.973958" stop-color="#48ABDF"/>
</linearGradient>
<clipPath id="clip0_343_4821">
<rect width="59.9098" height="60" fill="white"/>
</clipPath>
</defs>
</svg>
