<svg width="62" height="60" viewBox="0 0 62 60" fill="none" xmlns="http://www.w3.org/2000/svg">
<g clip-path="url(#clip0_343_5271)">
<path d="M59.9515 26.1206H48.1075C47.5853 26.1206 47.116 26.4311 46.9123 26.912C46.7086 27.393 46.8109 27.9457 47.1743 28.3216L50.0752 31.3239C48.4619 33.1633 46.767 34.9139 44.9948 36.5775V22.9308C44.9948 22.4355 44.5929 22.0335 44.0976 22.0335C43.6023 22.0335 43.2003 22.4355 43.2003 22.9308V38.2078C43.1563 38.2464 43.1124 38.2868 43.0675 38.3254C43.028 38.3604 42.9876 38.3945 42.9482 38.4295C42.749 38.6026 42.5489 38.7749 42.3488 38.9463C42.3093 38.9795 42.2707 39.0136 42.2312 39.0468C42.0105 39.2343 41.788 39.421 41.5646 39.6058C41.4982 39.6614 41.4309 39.7162 41.3636 39.7709C41.2092 39.8983 41.054 40.0239 40.8988 40.1504C40.8073 40.224 40.7157 40.2985 40.6242 40.3721C40.4618 40.5022 40.2985 40.6314 40.1352 40.7606C39.9818 40.8817 39.8274 41.002 39.6731 41.1213C39.5753 41.1976 39.4775 41.2729 39.3797 41.3483C39.2442 41.4524 39.1096 41.5556 38.9732 41.6579C38.9014 41.7126 38.8297 41.7664 38.757 41.8203C38.4851 42.024 38.2123 42.2267 37.9387 42.4268C37.8839 42.4663 37.8301 42.5067 37.7754 42.5462C37.6219 42.6574 37.4676 42.7687 37.3133 42.8791C37.2486 42.9248 37.184 42.9706 37.1203 43.0163C36.826 43.2254 36.529 43.4327 36.232 43.6382C36.1872 43.6687 36.1432 43.7001 36.0983 43.7306C35.953 43.8302 35.8067 43.9289 35.6605 44.0276C35.5698 44.0886 35.4792 44.1496 35.3886 44.2106C35.2495 44.303 35.1113 44.3964 34.9723 44.4879C34.7758 44.6171 34.5793 44.7463 34.3819 44.8737V2.03323C34.3819 1.90133 34.4886 1.79455 34.6205 1.79455H42.9616C43.0935 1.79455 43.2003 1.90133 43.2003 2.03323V18.7423C43.2003 19.2376 43.6023 19.6396 44.0976 19.6396C44.5929 19.6396 44.9948 19.2376 44.9948 18.7423V2.03323C44.9948 0.911633 44.0823 0 42.9616 0H34.6205C33.4989 0 32.5873 0.91253 32.5873 2.03323V11.2734H24.0075C22.8868 11.2734 21.9743 12.185 21.9743 13.3066V22.5468H13.3945C12.273 22.5468 11.3613 23.4593 11.3613 24.58V33.8202H2.77976C1.65906 33.8202 0.746534 34.7327 0.746534 35.8534V57.266C0.298793 57.519 0 58.0018 0 58.5392C0 58.934 0.163304 59.3172 0.446844 59.5917C0.717821 59.8537 1.0857 60.0018 1.46166 60.0018C1.47871 60.0018 1.49576 60.0018 1.51281 60.0009C12.3654 59.6142 22.9488 57.2436 32.9668 52.9546C33.4227 52.7599 33.6335 52.2323 33.4388 51.7765C33.2441 51.3206 32.7165 51.1098 32.2607 51.3045C24.3602 54.6863 16.1016 56.8515 7.63493 57.764C12.7808 56.6487 17.7759 55.0838 22.5638 53.0892C22.5737 53.0847 22.5836 53.0811 22.5934 53.0766C23.0125 52.9016 23.4297 52.724 23.846 52.5427C23.8765 52.5293 23.9079 52.5158 23.9384 52.5024C24.1403 52.4144 24.3413 52.3247 24.5423 52.235C24.6177 52.2009 24.694 52.1668 24.7693 52.1327C24.9353 52.0582 25.1013 51.9846 25.2664 51.9093C27.3535 50.9528 29.3822 49.9155 31.3526 48.802C31.3679 48.7939 31.3823 48.7849 31.3966 48.7769C31.9951 48.4377 32.5882 48.0922 33.1759 47.7387C33.2414 47.6992 33.3078 47.6598 33.3733 47.6203C33.5393 47.5198 33.7044 47.4193 33.8686 47.3179C33.8973 47.2999 33.9269 47.2829 33.9556 47.265C34.0041 47.2353 34.0517 47.2048 34.0992 47.1752C34.2858 47.0595 34.4725 46.9437 34.6582 46.8262C34.6815 46.8118 34.7049 46.7966 34.7282 46.7813C35.3931 46.3605 36.0508 45.9298 36.7004 45.4901C36.7372 45.465 36.7749 45.4399 36.8117 45.4148C37.0189 45.2748 37.2244 45.133 37.4299 44.9904C37.4586 44.9706 37.4873 44.9509 37.5151 44.9311C38.4034 44.3138 39.2783 43.6785 40.1379 43.0253C40.1576 43.0101 40.1774 42.9957 40.1971 42.9805C40.39 42.8342 40.5811 42.6861 40.7723 42.5381C40.8243 42.4977 40.8763 42.4573 40.9275 42.417C41.106 42.2779 41.2837 42.1379 41.4605 41.9979C41.5224 41.9486 41.5843 41.8983 41.6462 41.849C41.9477 41.6085 42.2465 41.3654 42.5444 41.1195C42.6305 41.0486 42.7176 40.9777 42.8028 40.9068C42.9114 40.8162 43.019 40.7247 43.1276 40.6341C43.2658 40.5174 43.404 40.4017 43.5413 40.2841C43.6409 40.1989 43.7404 40.1137 43.8391 40.0275C43.9872 39.9001 44.1335 39.7727 44.2806 39.6444C44.3721 39.5645 44.4628 39.4847 44.5534 39.4039C44.5991 39.3635 44.6458 39.3232 44.6916 39.2828C44.6987 39.2765 44.705 39.2693 44.7113 39.263C47.1932 37.0557 49.5351 34.686 51.7271 32.1557C52.1713 31.6434 52.1506 30.8896 51.6796 30.4024L49.2748 27.9143H59.4536V38.6107L57.1978 36.5183C56.6908 36.0481 55.9066 36.0571 55.4113 36.538C54.1623 37.7502 47.3592 44.0769 36.0669 49.5647C35.621 49.7809 35.4353 50.3184 35.6524 50.7634C35.8686 51.2094 36.4061 51.3951 36.8512 51.178C47.6032 45.9531 54.4037 39.953 56.3203 38.1513L59.0668 40.7005C59.4455 41.0513 59.9955 41.1446 60.4693 40.9383C60.9421 40.7319 61.2481 40.2644 61.2481 39.7485V27.419C61.2481 26.703 60.6658 26.1206 59.9498 26.1206H59.9515ZM23.7671 13.3066C23.7671 13.1747 23.8738 13.0679 24.0057 13.0679H32.5855V45.9989C31.8883 46.4224 31.1822 46.8361 30.467 47.2398C30.4572 47.2452 30.4464 47.2515 30.4365 47.2569C28.6456 48.2672 26.8008 49.2147 24.9165 50.0914C24.9111 50.0941 24.9048 50.0968 24.8994 50.0994C24.5235 50.2744 24.1457 50.4467 23.7662 50.6154V13.3066H23.7671ZM13.1541 24.58C13.1541 24.4481 13.2609 24.3413 13.3928 24.3413H21.9725V51.3906C19.1219 52.5804 16.1635 53.6257 13.1541 54.5051V24.58ZM2.77976 35.6147H11.3595V55.0084C8.46222 55.7873 5.50569 56.4199 2.54737 56.8954C2.54557 56.8954 2.54288 56.8954 2.54109 56.8963V35.8534C2.54109 35.7215 2.64786 35.6147 2.77976 35.6147Z" fill="url(#paint0_linear_343_5271)"/>
</g>
<defs>
<linearGradient id="paint0_linear_343_5271" x1="-2.28167e-07" y1="30.0009" x2="61.2481" y2="30.0009" gradientUnits="userSpaceOnUse">
<stop stop-color="#223962"/>
<stop offset="0.526042" stop-color="#3277BC"/>
<stop offset="0.973958" stop-color="#48ABDF"/>
</linearGradient>
<clipPath id="clip0_343_5271">
<rect width="61.2508" height="60" fill="white"/>
</clipPath>
</defs>
</svg>
