<svg width="59" height="60" viewBox="0 0 59 60" fill="none" xmlns="http://www.w3.org/2000/svg">
<path fill-rule="evenodd" clip-rule="evenodd" d="M26.75 10.618C26.4869 10.6971 26.202 10.6486 25.9799 10.4871C25.7578 10.3255 25.6239 10.0694 25.6182 9.79473L25.5603 7.04085L23.9891 4.77948C23.8323 4.55394 23.7901 4.26812 23.8748 4.00688C23.9595 3.74563 24.1614 3.539 24.4207 3.44833L27.0205 2.53904L28.6899 0.346511C28.8562 0.128086 29.115 -8.29697e-05 29.3896 3.14713e-05C29.6641 0.000145912 29.9228 0.128531 30.0889 0.347095L31.755 2.53904L34.3575 3.44823C34.6169 3.53882 34.8189 3.74544 34.9037 4.00672C34.9884 4.26801 34.9462 4.5539 34.7894 4.77948L33.2182 7.04085L33.1603 9.79473C33.1546 10.0694 33.0207 10.3255 32.7986 10.4871C32.5765 10.6486 32.2916 10.6971 32.0285 10.618L29.3892 9.8243L26.75 10.618ZM29.6423 8.06484L31.4272 8.60157L31.4663 6.73873C31.4699 6.56577 31.5245 6.39773 31.6232 6.25566L32.6859 4.72625L30.9255 4.11125C30.7626 4.05434 30.62 3.95074 30.5156 3.81336L29.3886 2.33059L28.2592 3.81394C28.1549 3.95095 28.0126 4.0543 27.8501 4.11114L26.0923 4.7259L27.1553 6.25566C27.254 6.39773 27.3086 6.56577 27.3122 6.73873L27.3513 8.60155L29.1361 8.06484C29.3012 8.0152 29.4772 8.0152 29.6423 8.06484ZM13.4453 14.2664C13.1822 14.3459 12.8971 14.2976 12.6747 14.1361C12.4524 13.9745 12.3184 13.7183 12.3126 13.4435L12.2548 10.6893L10.6832 8.4245C10.5265 8.19876 10.4845 7.91277 10.5695 7.65149C10.6545 7.39021 10.8568 7.18373 11.1163 7.09339L13.718 6.1876L15.3837 3.99304C15.5498 3.77409 15.8089 3.64549 16.0838 3.6455C16.3586 3.6455 16.6177 3.7741 16.7839 3.99306L18.4494 6.18761L21.0511 7.09339C21.3106 7.18373 21.5129 7.39021 21.5979 7.65149C21.6829 7.91277 21.6408 8.19876 21.4842 8.4245L19.9126 10.6893L19.8549 13.4434C19.8491 13.7182 19.7152 13.9745 19.4928 14.1361C19.2704 14.2976 18.9853 14.3459 18.7222 14.2664L16.0838 13.4701L13.4453 14.2664ZM14.0066 10.3875L14.0457 12.2491L15.8298 11.7106C15.9954 11.6606 16.1721 11.6606 16.3377 11.7106L18.1217 12.2491L18.1607 10.3875C18.1644 10.2147 18.2188 10.0468 18.3174 9.90486L19.3803 8.37301L17.6208 7.76042C17.4573 7.70351 17.3143 7.5996 17.2097 7.46173L16.0837 5.97819L14.9577 7.46175C14.8531 7.59961 14.7101 7.70351 14.5466 7.76042L12.787 8.37301L13.85 9.90486C13.9485 10.0468 14.003 10.2147 14.0066 10.3875ZM39.2861 14.1363C39.5084 14.2977 39.7934 14.3458 40.0563 14.2664L42.6946 13.4701L45.3296 14.2664C45.5925 14.3458 45.8776 14.2978 46.0999 14.1364C46.3223 13.9751 46.4564 13.7191 46.4625 13.4444L46.5233 10.6897L48.0953 8.42452C48.252 8.19879 48.2941 7.91278 48.209 7.6515C48.124 7.39022 47.9217 7.18373 47.6622 7.09339L45.0606 6.1876L43.3949 3.99304C43.2288 3.77419 42.9699 3.64561 42.6952 3.6455C42.4204 3.64538 42.1614 3.77375 41.9951 3.99245L40.3261 6.1876L37.727 7.09349C37.4678 7.18385 37.2656 7.3902 37.1806 7.65127C37.0956 7.91235 37.1375 8.19816 37.2938 8.42388L38.8629 10.6893L38.9237 13.4444C38.9297 13.719 39.0638 13.975 39.2861 14.1363ZM40.6556 12.2494L40.6145 10.3866C40.6107 10.2144 40.5564 10.0471 40.4583 9.90548L39.3969 8.37301L41.1548 7.76032C41.3179 7.70347 41.4606 7.59983 41.5651 7.46233L42.6942 5.97736L43.8208 7.46175C43.9255 7.59961 44.0685 7.70351 44.2319 7.76042L45.9915 8.373L44.9284 9.90484C44.8301 10.0465 44.7756 10.2141 44.7718 10.3865L44.7307 12.2491L42.949 11.7107C42.7833 11.6606 42.6065 11.6606 42.4408 11.7106L40.6556 12.2494ZM38.0851 33.6301C33.2833 38.4321 25.496 38.4318 20.6911 33.6304L20.6907 33.6299C15.8894 28.8248 15.889 21.0375 20.6909 16.2355L20.6911 16.2352C25.4959 11.4339 33.283 11.4335 38.0849 16.2352L38.0851 16.2355C42.8904 21.0375 42.8899 28.8251 38.0851 33.6301ZM21.6222 32.0618C17.8212 27.9239 17.9255 21.4869 21.9339 17.4784C26.0526 13.3628 32.7271 13.3632 36.8422 17.4784L36.8424 17.4786C40.8534 21.4869 40.9581 27.9229 37.1551 32.0608C36.6791 30.0374 35.4276 28.3062 33.7369 27.2002C34.4739 26.2614 34.9133 25.0779 34.9133 23.7916C34.9133 20.7403 32.4406 18.2674 29.3892 18.2674C26.3379 18.2674 23.8652 20.7403 23.8652 23.7916C23.8652 25.0777 24.3045 26.261 25.0413 27.1997C23.35 28.3059 22.098 30.0378 21.6222 32.0618ZM26.3948 28.4347C27.2575 28.9922 28.2855 29.3157 29.3892 29.3157C30.4927 29.3157 31.5206 28.9923 32.3832 28.435C34.1874 29.4343 35.4466 31.3028 35.5932 33.4568C31.9084 36.1458 26.8716 36.1461 23.1842 33.4572C23.3307 31.3029 24.5903 29.434 26.3948 28.4347ZM31.7286 26.7438C31.0861 27.2535 30.2733 27.5579 29.3892 27.5579C27.3088 27.5579 25.623 25.8721 25.623 23.7916C25.623 21.7111 27.3088 20.0252 29.3892 20.0252C31.4697 20.0252 33.1555 21.7111 33.1555 23.7916C33.1555 24.9687 32.6159 26.0194 31.7705 26.71C31.7562 26.7208 31.7422 26.7321 31.7286 26.7438ZM35.9205 58.2422C35.8027 58.2422 35.7031 58.1426 35.7031 58.0248V52.5732C35.7031 52.4519 35.8062 52.3524 35.9205 52.3524H51.2554C51.3696 52.3524 51.4728 52.4519 51.4728 52.5732V58.0248C51.4728 58.1425 51.3731 58.2422 51.2554 58.2422H45.6239C45.1385 58.2422 44.745 58.6357 44.745 59.1211C44.745 59.6065 45.1385 60 45.6239 60H51.2554C52.3438 60 53.2306 59.1135 53.2306 58.0248V52.5732C53.2306 51.4881 52.3473 50.5946 51.2554 50.5946H50.7119C54.5456 46.6091 57.409 41.6587 57.8435 34.8545L57.8435 34.854L58.6798 21.6588L58.6799 21.6585L58.6799 21.6581C58.8006 19.7702 57.3593 18.1339 55.4698 18.0129C53.9055 17.9127 52.5149 18.8867 52.0143 20.2953C51.862 20.2642 51.7064 20.243 51.5485 20.2322L51.5451 20.232C49.6573 20.1107 48.0168 21.5553 47.8959 23.4421L47.8958 23.4439L47.3292 32.3995C47.0982 32.5205 46.8696 32.665 46.6456 32.8342C46.6342 32.8428 46.623 32.8517 46.6121 32.8609L40.4907 37.9727L40.4906 37.9728C39.1616 39.083 38.3891 40.1531 37.9392 41.4017C37.5049 42.607 37.3936 43.9294 37.2786 45.4454L37.2786 45.4457L36.8901 50.5946H35.9205C34.8284 50.5946 33.9453 51.4881 33.9453 52.5732V58.0248C33.9453 59.1134 34.8319 60 35.9205 60H41.5552C42.0406 60 42.4341 59.6065 42.4341 59.1211C42.4341 58.6357 42.0406 58.2422 41.5552 58.2422H35.9205ZM51.1128 32.4114C50.5298 32.0662 49.8425 31.8873 49.1213 31.9121L49.6502 23.5545L49.6502 23.5537C49.7094 22.6359 50.5137 21.9281 51.4307 21.9861C51.5492 21.9943 51.6633 22.0139 51.7718 22.0437L51.1128 32.4114ZM51.0049 35.3546C51.0093 35.2762 51.008 35.1992 51.0012 35.1241C50.9766 35.0478 50.9623 34.9672 50.9596 34.884C50.8939 34.6299 50.7629 34.4023 50.5819 34.213C50.0212 33.627 48.8909 33.3514 47.7214 34.2246L41.6175 39.3218L41.6174 39.3219C40.4773 40.2744 39.9169 41.0986 39.5929 41.9976C39.2533 42.94 39.1497 44.0186 39.0314 45.5783L38.6529 50.5946H48.2101C52.4573 46.6066 55.643 41.7289 56.0892 34.7429L56.0892 34.7424L56.9256 21.5463C56.9845 20.6286 56.2799 19.8262 55.3574 19.7671C54.4407 19.7084 53.6375 20.415 53.5782 21.3351L53.5782 21.3356L53.5673 21.5075C53.567 21.5394 53.565 21.5713 53.5612 21.6031L52.7254 34.7513C52.7611 34.9782 52.7735 35.2131 52.7599 35.4538C52.7058 36.4112 52.2475 37.3771 51.379 38.2456L51.3781 38.2465C50.9291 38.6943 50.1839 39.4684 49.3928 40.2904L49.3928 40.2904L49.392 40.2912C48.2776 41.4489 47.0722 42.7013 46.4749 43.2695C46.1233 43.6041 45.5669 43.5902 45.2324 43.2386C44.8978 42.8869 44.9117 42.3306 45.2633 41.996C45.8531 41.4349 46.9706 40.2727 48.0434 39.1571C48.8461 38.3223 49.6238 37.5135 50.1365 37.0022C50.7621 36.3764 50.9797 35.7996 51.0049 35.3546ZM22.9843 58.0248C22.9843 58.1426 22.8846 58.2422 22.7669 58.2422H17.1321C16.6467 58.2422 16.2532 58.6357 16.2532 59.1211C16.2532 59.6065 16.6467 60 17.1321 60H22.7669C23.8554 60 24.7421 59.1134 24.7421 58.0248V52.5732C24.7421 51.4881 23.859 50.5946 22.7669 50.5946H21.7971L21.4086 45.4457L21.4085 45.4454C21.2936 43.9294 21.1823 42.607 20.748 41.4017C20.298 40.1531 19.5256 39.083 18.1966 37.9728L18.1965 37.9727L12.0751 32.8609C12.0641 32.8517 12.053 32.8428 12.0416 32.8342C11.8176 32.665 11.589 32.5205 11.358 32.3995L10.7913 23.4439L10.7912 23.4421C10.6703 21.5553 9.02986 20.1107 7.14208 20.232L7.13863 20.2322C6.98073 20.243 6.8252 20.2642 6.6729 20.2953C6.1723 18.8867 4.78166 17.9127 3.21735 18.0129C1.32785 18.1339 -0.113443 19.7702 0.00730038 21.6581L0.00732136 21.6585L0.00734329 21.6588L0.843668 34.854L0.843695 34.8545C1.27815 41.6587 4.14162 46.6091 7.97531 50.5946H7.43195C6.34003 50.5946 5.45676 51.4881 5.45676 52.5732V58.0248C5.45676 59.1135 6.34356 60 7.43195 60H13.0634C13.5488 60 13.9423 59.6065 13.9423 59.1211C13.9423 58.6357 13.5488 58.2422 13.0634 58.2422H7.43195C7.31425 58.2422 7.21457 58.1425 7.21457 58.0248V52.5732C7.21457 52.4519 7.31779 52.3524 7.43195 52.3524H22.7669C22.8811 52.3524 22.9843 52.4519 22.9843 52.5732V58.0248ZM9.56586 31.9121L9.03702 23.5545L9.03697 23.5537C8.97773 22.6359 8.17345 21.9281 7.25649 21.9861C7.13795 21.9943 7.0239 22.0139 6.91535 22.0437L7.5744 32.4114C8.15738 32.0662 8.84471 31.8873 9.56586 31.9121ZM7.72755 34.884C7.79326 34.6299 7.92428 34.4023 8.10532 34.213C8.66595 33.627 9.79629 33.3514 10.9657 34.2246L17.0697 39.3218L17.0698 39.3219C18.2099 40.2744 18.7703 41.0986 19.0943 41.9976C19.4338 42.94 19.5375 44.0186 19.6558 45.5783L20.0343 50.5946H10.477C6.2299 46.6066 3.04414 41.7289 2.59796 34.7429L2.59793 34.7424L1.76155 21.5463C1.70268 20.6286 2.40724 19.8262 3.32974 19.7671C4.24644 19.7084 5.04965 20.415 5.10895 21.3351L5.10898 21.3356L5.11992 21.5076C5.1202 21.5394 5.12221 21.5713 5.12598 21.6031L5.96178 34.7513C5.92604 34.9782 5.91369 35.2131 5.92729 35.4538C5.98139 36.4112 6.43967 37.3771 7.30819 38.2456L7.30906 38.2465C7.75815 38.6943 8.50345 39.4687 9.2947 40.2907L9.29514 40.2912C10.4095 41.4489 11.615 42.7013 12.2122 43.2695C12.5639 43.6041 13.1202 43.5902 13.4548 43.2386C13.7894 42.8869 13.7755 42.3306 13.4238 41.996C12.8341 41.4349 11.7165 40.2727 10.6438 39.1571C9.84106 38.3223 9.06339 37.5135 8.55069 37.0022C7.92509 36.3764 7.70744 35.7996 7.6823 35.3546C7.67787 35.2762 7.67922 35.1992 7.68603 35.1241C7.71056 35.0478 7.7249 34.9672 7.72755 34.884Z" fill="url(#paint0_linear_343_4503)"/>
<defs>
<linearGradient id="paint0_linear_343_4503" x1="-2.18625e-07" y1="30" x2="58.6867" y2="30" gradientUnits="userSpaceOnUse">
<stop stop-color="#223962"/>
<stop offset="0.526042" stop-color="#3277BC"/>
<stop offset="0.973958" stop-color="#48ABDF"/>
</linearGradient>
</defs>
</svg>
