<svg width="60" height="60" viewBox="0 0 60 60" fill="none" xmlns="http://www.w3.org/2000/svg">
<g clip-path="url(#clip0_343_5362)">
<path d="M14.2383 23.8793H22.2727C23.1199 23.8793 23.809 23.1902 23.809 22.343V16.6113C23.809 16.1297 23.5898 15.6855 23.2078 15.3926C22.8246 15.0996 22.3383 15.0035 21.8719 15.1289C21.6023 15.2016 21.3234 15.2379 21.0422 15.2379C20.148 15.2379 19.3172 14.877 18.7043 14.2219C18.0879 13.5633 17.782 12.702 17.843 11.7949C17.9496 10.1848 19.2422 8.89805 20.8488 8.80313C21.1945 8.7832 21.5379 8.81719 21.8672 8.90508C22.3383 9.03047 22.8293 8.93437 23.2137 8.63906C23.5922 8.34844 23.8102 7.90664 23.8102 7.42852V1.53633C23.8102 0.689062 23.1211 0 22.2738 0H3.43008C1.53867 0 0 1.54219 0 3.43828V7.03477C0 7.51992 0.39375 7.91367 0.878906 7.91367C1.36406 7.91367 1.75781 7.51992 1.75781 7.03477V3.43828C1.75781 2.51133 2.50781 1.75781 3.43008 1.75781H22.0512V7.14492C21.6234 7.05586 21.1852 7.02422 20.7445 7.05C18.2555 7.19648 16.2539 9.1875 16.0887 11.6789C15.9961 13.0758 16.4684 14.4059 17.4211 15.423C18.3563 16.4227 19.6758 16.9957 21.0422 16.9957C21.382 16.9957 21.7207 16.9605 22.0512 16.8926V22.1215H12.8355C12.5074 22.1215 12.2063 22.3043 12.0551 22.5961C11.9039 22.8879 11.9273 23.2383 12.1172 23.5066C12.5016 24.0527 12.7055 24.6949 12.7055 25.3641C12.7055 26.2688 12.3422 27.1055 11.6824 27.7219C11.0273 28.3336 10.1719 28.6371 9.27305 28.5762C7.68984 28.4684 6.41133 27.1875 6.3 25.5973C6.24727 24.8426 6.44766 24.1195 6.88008 23.5066C7.06875 23.2383 7.09336 22.8867 6.94219 22.5961C6.79102 22.3043 6.48984 22.1215 6.16172 22.1215H1.75781V10.5434C1.75781 10.0582 1.36406 9.66445 0.878906 9.66445C0.39375 9.66445 0 10.0582 0 10.5434V22.343C0 23.1902 0.689062 23.8793 1.53633 23.8793H4.76133C4.57734 24.4699 4.50234 25.0945 4.54688 25.7191C4.71914 28.1801 6.69961 30.1617 9.15352 30.3293C9.2707 30.3375 9.38789 30.341 9.50391 30.341C10.7648 30.341 11.9531 29.8734 12.8824 29.0051C13.8867 28.0664 14.4633 26.7387 14.4633 25.3629C14.4633 24.8543 14.3871 24.3551 14.2383 23.8781V23.8793Z" fill="url(#paint0_linear_343_5362)"/>
<path d="M59.1211 50.7516C58.6359 50.7516 58.2422 51.1453 58.2422 51.6305V56.5629C58.2422 57.4898 57.4922 58.2434 56.5699 58.2434H37.9488V54.7676C37.9488 54.648 37.9242 54.5309 37.8785 54.4242C37.8023 54.2461 37.6687 54.0949 37.4941 53.9977C37.214 53.843 36.8707 53.8535 36.6 54.0246C36.2133 54.2695 35.7668 54.3984 35.3086 54.3984C34.8504 54.3984 34.3769 54.259 33.9867 54.0059C33.9808 54.0023 33.975 53.9977 33.9691 53.9941C33.9398 53.9742 33.9105 53.9555 33.8824 53.9344C33.8601 53.918 33.8379 53.9004 33.8156 53.8828C33.8039 53.8734 33.7922 53.8652 33.7816 53.857C33.682 53.7762 33.5894 53.6883 33.5027 53.5922C33.0328 53.0684 32.8172 52.3887 32.8945 51.6797C33.0176 50.5512 33.9246 49.6477 35.0519 49.5316C35.6039 49.4742 36.1394 49.5996 36.6011 49.8914C36.8718 50.0625 37.214 50.073 37.4953 49.9184C37.7754 49.7637 37.95 49.4684 37.95 49.1484V37.882H43.8199C44.1457 37.882 44.4457 37.7016 44.5969 37.4133C44.7492 37.125 44.7293 36.7758 44.5441 36.5062C44.0496 35.7844 43.7883 34.9383 43.7883 34.0594C43.7883 33.7641 43.8187 33.4758 43.875 33.1969C43.8761 33.1898 43.8785 33.1828 43.8797 33.177C43.8926 33.1148 43.9066 33.0527 43.9219 32.9918C43.9265 32.973 43.9324 32.9543 43.9371 32.9367C43.95 32.8875 43.9629 32.8395 43.9781 32.7914C43.9922 32.7469 44.0074 32.7023 44.0226 32.659C44.0297 32.6379 44.0367 32.6168 44.0437 32.5957C44.2593 32.0004 44.6086 31.4543 45.075 30.9914C45.5332 30.5367 46.0711 30.198 46.6547 29.9871C46.6617 29.9848 46.6687 29.9824 46.6758 29.9801C46.732 29.9602 46.7883 29.9414 46.8445 29.9238C46.8586 29.9191 46.8738 29.9156 46.889 29.9109C46.9394 29.8957 46.9898 29.8816 47.0402 29.8688C47.0613 29.8629 47.0812 29.8582 47.1023 29.8535C47.148 29.843 47.1937 29.8324 47.2394 29.823C47.2652 29.8184 47.291 29.8137 47.3168 29.809C47.359 29.8008 47.4011 29.7937 47.4445 29.7867C47.4738 29.782 47.5031 29.7785 47.5324 29.775C47.5722 29.7691 47.6121 29.7645 47.6519 29.7598C47.6847 29.7563 47.7176 29.7539 47.7504 29.7516C47.7879 29.748 47.8254 29.7457 47.8629 29.7434C47.8992 29.741 47.9355 29.741 47.9707 29.7398C48.0117 29.7387 48.0527 29.7363 48.0937 29.7363C48.1347 29.7363 48.1758 29.7387 48.2168 29.7398C48.2531 29.7398 48.2894 29.7422 48.3258 29.7434C48.3633 29.7457 48.4008 29.7492 48.4383 29.7516C48.4711 29.7539 48.5039 29.7563 48.5367 29.7598C48.5765 29.7645 48.6164 29.7691 48.6562 29.775C48.6855 29.7785 48.7148 29.782 48.7441 29.7867C48.7875 29.7937 48.8297 29.8008 48.8719 29.809C48.8976 29.8137 48.9234 29.8184 48.948 29.823C48.9949 29.8324 49.0406 29.843 49.0863 29.8547C49.1062 29.8594 49.1273 29.8641 49.1472 29.8699C49.1988 29.8828 49.2492 29.8969 49.2996 29.9121C49.3136 29.9168 49.3277 29.9203 49.3418 29.925C49.3992 29.9426 49.4566 29.9613 49.5129 29.9812C49.5187 29.9836 49.5258 29.9859 49.5316 29.9883C50.1152 30.1992 50.6531 30.5379 51.1113 30.9926C51.5777 31.4555 51.9269 32.0027 52.1437 32.5992C52.1449 32.6027 52.1461 32.6062 52.1472 32.6098C52.1695 32.6707 52.1906 32.7328 52.2094 32.7949C52.2199 32.8289 52.2293 32.8641 52.2386 32.898C52.248 32.9309 52.2574 32.9625 52.2656 32.9953C52.2773 33.0434 52.289 33.0926 52.2996 33.1406C52.3043 33.1605 52.309 33.1805 52.3136 33.2004C52.3254 33.2566 52.3347 33.3129 52.3441 33.3691C52.3465 33.3832 52.3488 33.3973 52.3512 33.4102C52.3605 33.4734 52.3687 33.5379 52.3758 33.6012C52.3758 33.6082 52.3781 33.6152 52.3781 33.6234C52.3922 33.7676 52.4004 33.9129 52.4004 34.0605C52.4004 34.9395 52.139 35.7844 51.6445 36.5074C51.4605 36.777 51.4394 37.125 51.5918 37.4145C51.7441 37.7039 52.0429 37.8832 52.3687 37.8832H58.2386V48.1277C58.2386 48.6129 58.6324 49.0066 59.1176 49.0066C59.6027 49.0066 59.9965 48.6129 59.9965 48.1277V17.4363C59.9965 15.5402 58.4578 13.998 56.5664 13.998H37.7238C37.3136 13.998 36.9281 14.1574 36.6375 14.448C36.3469 14.7387 36.1875 15.1242 36.1875 15.5344V21.143C35.7609 21.0539 35.3215 21.0211 34.8808 21.048C32.3918 21.1945 30.3902 23.1855 30.225 25.677C30.1324 27.0738 30.6058 28.4039 31.5574 29.4211C32.4926 30.4207 33.8121 30.9938 35.1785 30.9938C35.5183 30.9938 35.857 30.9586 36.1875 30.8895V36.1195H28.0629C27.559 36.1195 27.0879 36.3668 26.8019 36.7805C26.5125 37.2 26.4492 37.7367 26.6308 38.216C26.7972 38.6543 26.8652 39.1184 26.8324 39.5953C26.7211 41.1855 25.4437 42.4664 23.8594 42.5742C22.9605 42.6352 22.1051 42.3316 21.45 41.7199C20.7902 41.1035 20.4269 40.2656 20.4269 39.3621C20.4269 38.966 20.4984 38.5793 20.6379 38.2125C20.8195 37.7355 20.7562 37.2012 20.4679 36.7828C20.182 36.368 19.7109 36.1195 19.2058 36.1195H15.6715C14.8242 36.1195 14.1351 36.8086 14.1351 37.6559V56.5605C14.1351 58.4566 15.6738 59.9988 17.5652 59.9988H56.5664C58.4578 59.9988 59.9965 58.4566 59.9965 56.5605V51.6281C59.9965 51.143 59.6027 50.7492 59.1176 50.7492L59.1211 50.7516ZM35.1808 29.2371C34.2867 29.2371 33.4558 28.8762 32.8429 28.2211C32.2265 27.5625 31.9207 26.7012 31.9816 25.7941C32.0883 24.184 33.3808 22.8973 34.9875 22.8023C35.5687 22.7684 36.1488 22.8914 36.6621 23.1609C36.934 23.3039 37.2621 23.2934 37.5246 23.134C37.7883 22.9746 37.9488 22.6898 37.9488 22.3816V15.7559H56.5699C57.4922 15.7559 58.2422 16.5094 58.2422 17.4363V36.1207H53.8031C54.0398 35.4645 54.1617 34.7684 54.1617 34.057C54.1617 32.9344 53.857 31.8574 53.2851 30.9176C52.8164 30.143 52.1789 29.4809 51.4265 28.9816C51.4183 28.9758 51.409 28.9699 51.3996 28.9641C51.3304 28.9184 51.2601 28.875 51.1898 28.8316C51.1664 28.8176 51.1441 28.8047 51.1207 28.7906C51.0633 28.7566 51.0047 28.7238 50.9461 28.6922C50.9109 28.6734 50.8769 28.6559 50.8418 28.6371C50.7926 28.6125 50.7433 28.5867 50.6941 28.5633C50.6508 28.5422 50.6062 28.5223 50.5629 28.5023C50.5195 28.4836 50.4773 28.4637 50.434 28.4461C50.3836 28.425 50.3344 28.4051 50.284 28.3852C50.2441 28.3699 50.2043 28.3547 50.1644 28.3395C50.1105 28.3195 50.0566 28.3008 50.0027 28.2832C49.964 28.2703 49.9254 28.2574 49.8855 28.2457C49.8304 28.2281 49.7742 28.2117 49.7191 28.1965C49.6793 28.1859 49.6394 28.1742 49.5996 28.1637C49.5445 28.1496 49.4883 28.1367 49.4332 28.1238C49.391 28.1145 49.3488 28.1051 49.3066 28.0957C49.2527 28.0852 49.1976 28.0746 49.1437 28.0652C49.0992 28.057 49.0547 28.05 49.0101 28.043C48.9574 28.0348 48.9035 28.0277 48.8508 28.0207C48.8039 28.0148 48.757 28.009 48.709 28.0043C48.6562 27.9984 48.6035 27.9949 48.5508 27.9914C48.5027 27.9879 48.4535 27.9844 48.4054 27.982C48.3527 27.9797 48.3 27.9773 48.2472 27.9762C48.2156 27.9762 48.184 27.9727 48.1511 27.9727C48.1336 27.9727 48.116 27.9727 48.0984 27.9727C48.089 27.9727 48.0808 27.9727 48.0715 27.9727C48.0633 27.9727 48.0539 27.9727 48.0457 27.9727C48.0082 27.9727 47.9719 27.975 47.9355 27.9762C47.8793 27.9773 47.823 27.9785 47.7668 27.982C47.7211 27.9844 47.6765 27.9891 47.632 27.9914C47.5758 27.9961 47.5195 27.9996 47.4644 28.0055C47.4211 28.0102 47.3789 28.016 47.3367 28.0207C47.2793 28.0277 47.2219 28.0348 47.1644 28.0441C47.1246 28.05 47.0859 28.057 47.0472 28.0641C46.9875 28.0746 46.9277 28.0852 46.8691 28.098C46.8328 28.1051 46.7976 28.1145 46.7613 28.1227C46.7004 28.1367 46.6383 28.1508 46.5773 28.1672C46.5433 28.1754 46.5105 28.1859 46.4777 28.1953C46.4156 28.2129 46.3535 28.2305 46.2926 28.2492C46.2597 28.2598 46.2269 28.2703 46.1953 28.282C46.1355 28.302 46.0746 28.323 46.0148 28.3453C45.9808 28.3582 45.9468 28.3711 45.914 28.384C45.8578 28.4063 45.8015 28.4285 45.7465 28.452C45.709 28.4684 45.6715 28.4848 45.634 28.5023C45.5847 28.5246 45.5355 28.5469 45.4875 28.5703C45.4418 28.5926 45.3972 28.6148 45.3527 28.6383C45.314 28.6582 45.2754 28.6781 45.2367 28.6992C45.1804 28.7297 45.1254 28.7613 45.0715 28.793C45.0457 28.8082 45.0199 28.8223 44.9941 28.8375C44.925 28.8797 44.8558 28.923 44.789 28.9676C44.7797 28.9734 44.7691 28.9805 44.7597 28.9863C44.0226 29.4785 43.3969 30.1266 42.9316 30.8836C42.348 31.8305 42.0351 32.9191 42.0351 34.0547C42.0351 34.766 42.157 35.4621 42.3937 36.1184H37.9547V29.6496C37.9547 29.3426 37.7941 29.0566 37.5304 28.8973C37.2668 28.7379 36.9398 28.7285 36.6679 28.8703C36.2074 29.1117 35.7094 29.2336 35.1879 29.2336L35.1808 29.2371ZM17.5687 58.2422C16.6465 58.2422 15.8965 57.4887 15.8965 56.5617V37.8773H18.8976C18.7476 38.3566 18.6726 38.8547 18.6726 39.3621C18.6726 40.7379 19.2492 42.0656 20.2535 43.0043C21.2683 43.9523 22.5926 44.4223 23.9824 44.3273C26.4363 44.1598 28.4168 42.1781 28.589 39.7172C28.6336 39.0867 28.5621 38.4691 28.3769 37.8773H36.1898V47.8477C35.7621 47.7562 35.3191 47.7316 34.8703 47.7773C32.925 47.9777 31.3582 49.5363 31.1449 51.4828C31.0148 52.6781 31.3957 53.8723 32.1914 54.7594C32.489 55.091 32.8347 55.3699 33.2133 55.5891C33.8437 55.9535 34.5656 56.1516 35.3074 56.1516C35.6062 56.1516 35.9015 56.1199 36.1898 56.0578V58.2398H17.5687V58.2422Z" fill="url(#paint1_linear_343_5362)"/>
<path d="M32.0508 17.3053C32.0508 17.7904 32.4445 18.1842 32.9297 18.1842C33.4148 18.1842 33.8086 17.7904 33.8086 17.3053V13.6139L38.9156 8.50566H50.4047C50.7855 9.79707 51.9809 10.7428 53.3941 10.7428C55.1121 10.7428 56.5102 9.34473 56.5102 7.62676C56.5102 5.90879 55.1121 4.51074 53.3941 4.51074C51.9809 4.51074 50.7855 5.45645 50.4047 6.74785H38.5523C38.3191 6.74785 38.0953 6.84043 37.9312 7.00566L32.3086 12.6283C32.1434 12.7936 32.0508 13.0162 32.0508 13.2494V17.3041V17.3053ZM53.3941 6.26973C54.143 6.26973 54.7523 6.8791 54.7523 7.62793C54.7523 8.37676 54.143 8.98613 53.3941 8.98613C52.6453 8.98613 52.0359 8.37676 52.0359 7.62793C52.0359 6.8791 52.6453 6.26973 53.3941 6.26973Z" fill="url(#paint2_linear_343_5362)"/>
<path d="M28.0558 6.10547V18.7113C28.0558 19.1965 28.4496 19.5902 28.9347 19.5902C29.4199 19.5902 29.8136 19.1965 29.8136 18.7113V6.10547C31.1051 5.72461 32.0508 4.5293 32.0508 3.11602C32.0508 1.39805 30.6527 0 28.9347 0C27.2168 0 25.8187 1.39805 25.8187 3.11602C25.8187 4.5293 26.7644 5.72461 28.0558 6.10547ZM28.9347 1.75781C29.6836 1.75781 30.2929 2.36719 30.2929 3.11602C30.2929 3.86484 29.6941 4.4625 28.9547 4.47305C28.9476 4.47305 28.9418 4.47305 28.9347 4.47305C28.9277 4.47305 28.9219 4.47305 28.9148 4.47305C28.1754 4.4625 27.5765 3.85781 27.5765 3.11602C27.5765 2.37422 28.1859 1.75781 28.9347 1.75781Z" fill="url(#paint3_linear_343_5362)"/>
<path d="M22.159 29.2381C22.159 27.5201 20.761 26.1221 19.043 26.1221C17.325 26.1221 15.927 27.5201 15.927 29.2381C15.927 30.9561 17.325 32.3541 19.043 32.3541C19.5833 32.3541 20.0918 32.2158 20.5348 31.9732L22.6758 34.1143V38.4373C22.6758 38.9225 23.0696 39.3162 23.5547 39.3162C24.0399 39.3162 24.4336 38.9225 24.4336 38.4373V33.7498C24.4336 33.5166 24.3411 33.2928 24.1758 33.1287L21.7782 30.7311C22.0208 30.2881 22.159 29.7795 22.159 29.2393V29.2381ZM17.6848 29.2381C17.6848 28.4893 18.2942 27.8799 19.043 27.8799C19.7918 27.8799 20.4012 28.4893 20.4012 29.2381C20.4012 29.9869 19.7918 30.5963 19.043 30.5963C18.2942 30.5963 17.6848 29.9869 17.6848 29.2381Z" fill="url(#paint4_linear_343_5362)"/>
</g>
<defs>
<linearGradient id="paint0_linear_343_5362" x1="-8.86997e-08" y1="15.1705" x2="23.8102" y2="15.1705" gradientUnits="userSpaceOnUse">
<stop stop-color="#223962"/>
<stop offset="0.526042" stop-color="#3277BC"/>
<stop offset="0.973958" stop-color="#48ABDF"/>
</linearGradient>
<linearGradient id="paint1_linear_343_5362" x1="14.1351" y1="36.9984" x2="59.9965" y2="36.9984" gradientUnits="userSpaceOnUse">
<stop stop-color="#223962"/>
<stop offset="0.526042" stop-color="#3277BC"/>
<stop offset="0.973958" stop-color="#48ABDF"/>
</linearGradient>
<linearGradient id="paint2_linear_343_5362" x1="32.0508" y1="11.3475" x2="56.5102" y2="11.3475" gradientUnits="userSpaceOnUse">
<stop stop-color="#223962"/>
<stop offset="0.526042" stop-color="#3277BC"/>
<stop offset="0.973958" stop-color="#48ABDF"/>
</linearGradient>
<linearGradient id="paint3_linear_343_5362" x1="25.8187" y1="9.79512" x2="32.0508" y2="9.79512" gradientUnits="userSpaceOnUse">
<stop stop-color="#223962"/>
<stop offset="0.526042" stop-color="#3277BC"/>
<stop offset="0.973958" stop-color="#48ABDF"/>
</linearGradient>
<linearGradient id="paint4_linear_343_5362" x1="15.927" y1="32.7191" x2="24.4336" y2="32.7191" gradientUnits="userSpaceOnUse">
<stop stop-color="#223962"/>
<stop offset="0.526042" stop-color="#3277BC"/>
<stop offset="0.973958" stop-color="#48ABDF"/>
</linearGradient>
<clipPath id="clip0_343_5362">
<rect width="60" height="60" fill="white"/>
</clipPath>
</defs>
</svg>
