<svg width="60" height="58" viewBox="0 0 60 58" fill="none" xmlns="http://www.w3.org/2000/svg">
<g clip-path="url(#clip0_343_4655)">
<path d="M26.7651 20.9528C26.7651 18.0523 25.6274 15.3339 23.5604 13.2986C21.4944 11.2633 18.761 10.1678 15.8561 10.2091C13.0102 10.2513 10.348 11.3872 8.35845 13.4076C6.36973 15.4271 5.27515 18.1069 5.27515 20.9537C5.27515 23.4268 6.13499 25.8393 7.6973 27.7489C7.95227 28.061 8.33207 28.2395 8.73826 28.2395H11.9411C11.9473 28.2395 11.9534 28.2403 11.9596 28.2403C11.9657 28.2403 11.9719 28.2403 11.9781 28.2395H20.0613C20.0674 28.2395 20.0727 28.2395 20.078 28.2395C20.0833 28.2395 20.0894 28.2395 20.0947 28.2395H23.2993C23.7055 28.2395 24.0853 28.061 24.3412 27.748C25.9026 25.8384 26.7633 23.425 26.7633 20.9528H26.7651ZM16.0205 19.9549C15.0007 19.9549 14.1707 19.125 14.1707 18.1051C14.1707 17.0852 15.0007 16.2553 16.0205 16.2553C17.0404 16.2553 17.8704 17.0852 17.8704 18.1051C17.8704 19.125 17.0404 19.9549 16.0205 19.9549ZM15.1976 21.6174C15.4623 21.679 15.7375 21.7133 16.0205 21.7133C16.3036 21.7133 16.578 21.6799 16.8426 21.6174C17.3806 21.7608 17.8712 22.043 18.2704 22.4412C18.8709 23.0417 19.2014 23.84 19.2014 24.6893V26.4811H12.8405V24.6893C12.8405 23.2466 13.8208 21.9849 15.1976 21.6166V21.6174ZM23.105 26.4811H20.9589V24.6893C20.9589 23.3705 20.4455 22.1309 19.5127 21.1981C19.2595 20.9449 18.9825 20.7224 18.6871 20.5325C19.2718 19.8907 19.6287 19.0388 19.6287 18.1051C19.6287 16.1155 18.0101 14.4969 16.0205 14.4969C14.031 14.4969 12.4124 16.1155 12.4124 18.1051C12.4124 19.0397 12.7702 19.8925 13.3549 20.5343C11.9754 21.424 11.0813 22.9749 11.0813 24.6902V26.482H8.93519C7.70785 24.9109 7.03352 22.9556 7.03352 20.9537C7.03352 18.5719 7.94875 16.33 9.61129 14.642C11.2738 12.9531 13.5008 12.0036 15.8816 11.9684C18.3091 11.9306 20.5976 12.8493 22.3252 14.5523C24.0537 16.2553 25.0049 18.5289 25.0049 20.9545C25.0049 22.9573 24.3306 24.9126 23.1033 26.4829L23.105 26.4811Z" fill="url(#paint0_linear_343_4655)"/>
<path d="M57.7141 0H2.28588C1.02513 0 0 1.02513 0 2.28588V7.71925V10.6293C0 11.1147 0.393875 11.5085 0.879185 11.5085C1.3645 11.5085 1.75837 11.1147 1.75837 10.6293V8.59755H58.2416V44.2336C58.2416 44.5246 58.0051 44.7611 57.7141 44.7611H54.7249V42.622C54.7249 42.1367 54.331 41.7428 53.8457 41.7428C53.3604 41.7428 52.9665 42.1367 52.9665 42.622V53.7604C52.9665 53.7929 52.9401 53.8193 52.9076 53.8193H48.349V51.9801C48.349 51.2363 47.7442 50.6323 47.0012 50.6323H38.2665C37.5227 50.6323 36.9188 51.2372 36.9188 51.9801V53.8193H32.3602C32.3276 53.8193 32.3013 53.7929 32.3013 53.7604V28.2983C32.3013 28.2658 32.3276 28.2394 32.3602 28.2394H52.9085C52.941 28.2394 52.9674 28.2658 52.9674 28.2983V38.5189C52.9674 39.0042 53.3613 39.398 53.8466 39.398C54.3319 39.398 54.7258 39.0042 54.7258 38.5189V28.2983C54.7258 27.2961 53.9108 26.4811 52.9085 26.4811H32.3602C31.3579 26.4811 30.5429 27.2961 30.5429 28.2983V44.7611H26.0256C25.5992 43.423 24.9275 42.1569 24.0334 41.0263C23.6624 40.5577 22.9714 40.4689 22.4922 40.8276L21.7044 41.4184C20.7083 40.4249 19.5003 39.6557 18.1684 39.1765C15.7488 38.3052 13.1359 38.4274 10.8087 39.5211C8.54832 40.5841 6.8216 42.4392 5.92571 44.762H2.28588C1.99487 44.762 1.75837 44.5255 1.75837 44.2344V14.7343C1.75837 14.249 1.3645 13.8551 0.879185 13.8551C0.393875 13.8551 0 14.2481 0 14.7343V44.2353C0 45.4961 1.02513 46.5212 2.28588 46.5212H5.42897C5.07114 48.4783 5.32874 50.4934 6.1921 52.33C7.28581 54.6572 9.22089 56.4191 11.6395 57.2904C12.6972 57.6719 13.7935 57.8557 14.882 57.8557C17.3657 57.8557 19.8028 56.8965 21.6192 55.132L22.086 55.5645C22.2997 55.7623 22.5713 55.8599 22.843 55.8599C23.1384 55.8599 23.4329 55.7439 23.6501 55.5153C24.3473 54.7785 24.9346 53.9486 25.3944 53.0492C26.3562 51.1703 26.7343 49.0471 26.4881 46.9089C26.4731 46.7797 26.4556 46.6505 26.4362 46.5212H30.542V53.7622C30.542 54.7645 31.357 55.5795 32.3593 55.5795H37.3284C38.0722 55.5795 38.6762 54.9746 38.6762 54.2317V52.3924H46.5898V54.2317C46.5898 54.9755 47.1947 55.5795 47.9376 55.5795H52.9067C53.909 55.5795 54.724 54.7645 54.724 53.7622V46.5212H57.7132C58.974 46.5212 59.9991 45.4961 59.9991 44.2353V2.28588C59.9991 1.02513 58.974 0 57.7132 0H57.7141ZM12.2365 55.6357C10.2592 54.9236 8.67844 53.4835 7.78431 51.5818C6.89017 49.6801 6.78995 47.5437 7.50209 45.5664C8.21423 43.5891 9.65433 42.0084 11.556 41.1142C13.4577 40.2201 15.5941 40.1199 17.5714 40.8329C18.5798 41.196 19.5012 41.7622 20.2793 42.4893L14.5505 46.785C14.2859 46.9837 14.1232 47.2879 14.1065 47.6184C14.0889 47.949 14.2191 48.2682 14.4617 48.4923L20.3285 53.9354C18.1939 55.961 15.0446 56.6494 12.2365 55.6375V55.6357ZM23.8294 52.2482C23.5428 52.8091 23.1964 53.3375 22.7973 53.8255L16.2236 47.7275L23.0294 42.6238C25.0445 45.5251 25.3698 49.2379 23.8294 52.2482ZM1.75837 6.84094V2.28588C1.75837 1.99487 1.99487 1.75837 2.28588 1.75837H57.7141C58.0051 1.75837 58.2416 1.99487 58.2416 2.28588V6.84094H1.75837Z" fill="url(#paint1_linear_343_4655)"/>
<path d="M36.7333 3.41992H5.91874C5.43343 3.41992 5.03955 3.8138 5.03955 4.29911C5.03955 4.78442 5.43343 5.17829 5.91874 5.17829H36.7333C37.2186 5.17829 37.6125 4.78442 37.6125 4.29911C37.6125 3.8138 37.2186 3.41992 36.7333 3.41992Z" fill="url(#paint2_linear_343_4655)"/>
<path d="M54.0813 3.41992H53.6839C53.1986 3.41992 52.8047 3.8138 52.8047 4.29911C52.8047 4.78442 53.1986 5.17829 53.6839 5.17829H54.0813C54.5666 5.17829 54.9605 4.78442 54.9605 4.29911C54.9605 3.8138 54.5666 3.41992 54.0813 3.41992Z" fill="url(#paint3_linear_343_4655)"/>
<path d="M50.7536 3.41992H50.3562C49.8709 3.41992 49.4771 3.8138 49.4771 4.29911C49.4771 4.78442 49.8709 5.17829 50.3562 5.17829H50.7536C51.2389 5.17829 51.6328 4.78442 51.6328 4.29911C51.6328 3.8138 51.2389 3.41992 50.7536 3.41992Z" fill="url(#paint4_linear_343_4655)"/>
<path d="M47.425 3.41992H47.0276C46.5423 3.41992 46.1484 3.8138 46.1484 4.29911C46.1484 4.78442 46.5423 5.17829 47.0276 5.17829H47.425C47.9103 5.17829 48.3042 4.78442 48.3042 4.29911C48.3042 3.8138 47.9103 3.41992 47.425 3.41992Z" fill="url(#paint5_linear_343_4655)"/>
<path d="M22.9818 30.4121H9.05726C8.31435 30.4121 7.70947 31.017 7.70947 31.7599V35.6389C7.70947 36.3827 8.31435 36.9867 9.05726 36.9867H22.9818C23.7256 36.9867 24.3296 36.3818 24.3296 35.6389V31.7599C24.3296 31.0161 23.7247 30.4121 22.9818 30.4121ZM22.5712 35.2283H9.46784V32.1705H22.5712V35.2283Z" fill="url(#paint6_linear_343_4655)"/>
<path d="M49.4499 35.3798V31.8683C49.4499 31.1245 48.845 30.5205 48.1021 30.5205H37.1659C36.4221 30.5205 35.8181 31.1254 35.8181 31.8683V35.3798C35.8181 36.1236 36.423 36.7276 37.1659 36.7276H48.1021C48.8459 36.7276 49.4499 36.1227 49.4499 35.3798ZM47.6915 34.9692H37.5765V32.278H47.6915V34.9692Z" fill="url(#paint7_linear_343_4655)"/>
<path d="M38.3694 39.1426H36.698C36.2127 39.1426 35.8188 39.5365 35.8188 40.0218C35.8188 40.5071 36.2127 40.9009 36.698 40.9009H38.3694C38.8547 40.9009 39.2486 40.5071 39.2486 40.0218C39.2486 39.5365 38.8547 39.1426 38.3694 39.1426Z" fill="url(#paint8_linear_343_4655)"/>
<path d="M48.5706 39.1426H41.5784C41.0931 39.1426 40.6992 39.5365 40.6992 40.0218C40.6992 40.5071 41.0931 40.9009 41.5784 40.9009H48.5706C49.0559 40.9009 49.4497 40.5071 49.4497 40.0218C49.4497 39.5365 49.0559 39.1426 48.5706 39.1426Z" fill="url(#paint9_linear_343_4655)"/>
<path d="M38.3694 42.8936H36.698C36.2127 42.8936 35.8188 43.2874 35.8188 43.7727C35.8188 44.2581 36.2127 44.6519 36.698 44.6519H38.3694C38.8547 44.6519 39.2486 44.2581 39.2486 43.7727C39.2486 43.2874 38.8547 42.8936 38.3694 42.8936Z" fill="url(#paint10_linear_343_4655)"/>
<path d="M48.5706 42.8936H41.5784C41.0931 42.8936 40.6992 43.2874 40.6992 43.7727C40.6992 44.2581 41.0931 44.6519 41.5784 44.6519H48.5706C49.0559 44.6519 49.4497 44.2581 49.4497 43.7727C49.4497 43.2874 49.0559 42.8936 48.5706 42.8936Z" fill="url(#paint11_linear_343_4655)"/>
<path d="M38.3694 46.6445H36.698C36.2127 46.6445 35.8188 47.0384 35.8188 47.5237C35.8188 48.009 36.2127 48.4029 36.698 48.4029H38.3694C38.8547 48.4029 39.2486 48.009 39.2486 47.5237C39.2486 47.0384 38.8547 46.6445 38.3694 46.6445Z" fill="url(#paint12_linear_343_4655)"/>
<path d="M48.5706 46.6445H41.5784C41.0931 46.6445 40.6992 47.0384 40.6992 47.5237C40.6992 48.009 41.0931 48.4029 41.5784 48.4029H48.5706C49.0559 48.4029 49.4497 48.009 49.4497 47.5237C49.4497 47.0384 49.0559 46.6445 48.5706 46.6445Z" fill="url(#paint13_linear_343_4655)"/>
<path d="M33.3792 10.208C32.8939 10.208 32.5 10.6019 32.5 11.0872V23.0256C32.5 23.6393 32.9994 24.1396 33.6139 24.1396H50.3563C50.8416 24.1396 51.2354 23.7457 51.2354 23.2604C51.2354 22.7751 50.8416 22.3812 50.3563 22.3812H34.2593V18.6359L38.751 15.3671C39.1414 15.6194 39.6047 15.7671 40.1032 15.7671C40.4188 15.7671 40.7195 15.7073 40.9982 15.6009L42.3838 17.136C42.1957 17.4868 42.0884 17.8868 42.0884 18.3115C42.0884 19.6874 43.2076 20.8066 44.5835 20.8066C45.9594 20.8066 47.0786 19.6874 47.0786 18.3115C47.0786 18.0618 47.0417 17.82 46.9723 17.5923L49.2159 15.8348C49.5826 16.0467 50.0072 16.1689 50.4609 16.1689C51.8368 16.1689 52.956 15.0497 52.956 13.6738C52.956 12.2978 51.8368 11.1786 50.4609 11.1786C49.085 11.1786 47.9657 12.2978 47.9657 13.6738C47.9657 13.9542 48.0132 14.2241 48.0985 14.4765L45.9032 16.1961C45.5199 15.9561 45.0671 15.8163 44.5826 15.8163C44.274 15.8163 43.9778 15.8735 43.7043 15.9763L42.3108 14.4316C42.4937 14.0852 42.5974 13.6905 42.5974 13.272C42.5974 11.896 41.4782 10.7768 40.1023 10.7768C38.7264 10.7768 37.6072 11.896 37.6072 13.272C37.6072 13.5085 37.6415 13.7379 37.703 13.9551L34.2584 16.4617V11.0872C34.2584 10.6019 33.8645 10.208 33.3792 10.208ZM50.46 12.937C50.8662 12.937 51.1968 13.2676 51.1968 13.6738C51.1968 14.0799 50.8662 14.4105 50.46 14.4105C50.0538 14.4105 49.7232 14.0799 49.7232 13.6738C49.7232 13.2676 50.0538 12.937 50.46 12.937ZM45.3194 18.3115C45.3194 18.7176 44.9888 19.0482 44.5826 19.0482C44.1765 19.0482 43.8459 18.7176 43.8459 18.3115C43.8459 18.0864 43.9479 17.8851 44.107 17.7497C44.1096 17.747 44.1123 17.7453 44.1149 17.7435C44.1149 17.7435 44.1167 17.7417 44.1176 17.7409C44.2442 17.6371 44.4068 17.5747 44.5826 17.5747C44.9888 17.5747 45.3194 17.9053 45.3194 18.3115ZM40.1023 12.5352C40.5085 12.5352 40.8391 12.8658 40.8391 13.272C40.8391 13.4944 40.7397 13.6931 40.5832 13.8285C40.5832 13.8285 40.5832 13.8285 40.5823 13.8285C40.5823 13.8285 40.5823 13.8285 40.5815 13.8294C40.4522 13.9401 40.2852 14.0078 40.1023 14.0078C39.6961 14.0078 39.3656 13.6773 39.3656 13.2711C39.3656 12.8649 39.6961 12.5343 40.1023 12.5343V12.5352Z" fill="url(#paint14_linear_343_4655)"/>
</g>
<defs>
<linearGradient id="paint0_linear_343_4655" x1="5.27515" y1="19.2242" x2="26.7651" y2="19.2242" gradientUnits="userSpaceOnUse">
<stop stop-color="#223962"/>
<stop offset="0.526042" stop-color="#3277BC"/>
<stop offset="0.973958" stop-color="#48ABDF"/>
</linearGradient>
<linearGradient id="paint1_linear_343_4655" x1="-2.23514e-07" y1="28.9279" x2="59.9991" y2="28.9279" gradientUnits="userSpaceOnUse">
<stop stop-color="#223962"/>
<stop offset="0.526042" stop-color="#3277BC"/>
<stop offset="0.973958" stop-color="#48ABDF"/>
</linearGradient>
<linearGradient id="paint2_linear_343_4655" x1="5.03955" y1="4.29911" x2="37.6125" y2="4.29911" gradientUnits="userSpaceOnUse">
<stop stop-color="#223962"/>
<stop offset="0.526042" stop-color="#3277BC"/>
<stop offset="0.973958" stop-color="#48ABDF"/>
</linearGradient>
<linearGradient id="paint3_linear_343_4655" x1="52.8047" y1="4.29911" x2="54.9605" y2="4.29911" gradientUnits="userSpaceOnUse">
<stop stop-color="#223962"/>
<stop offset="0.526042" stop-color="#3277BC"/>
<stop offset="0.973958" stop-color="#48ABDF"/>
</linearGradient>
<linearGradient id="paint4_linear_343_4655" x1="49.4771" y1="4.29911" x2="51.6328" y2="4.29911" gradientUnits="userSpaceOnUse">
<stop stop-color="#223962"/>
<stop offset="0.526042" stop-color="#3277BC"/>
<stop offset="0.973958" stop-color="#48ABDF"/>
</linearGradient>
<linearGradient id="paint5_linear_343_4655" x1="46.1484" y1="4.29911" x2="48.3042" y2="4.29911" gradientUnits="userSpaceOnUse">
<stop stop-color="#223962"/>
<stop offset="0.526042" stop-color="#3277BC"/>
<stop offset="0.973958" stop-color="#48ABDF"/>
</linearGradient>
<linearGradient id="paint6_linear_343_4655" x1="7.70947" y1="33.6994" x2="24.3296" y2="33.6994" gradientUnits="userSpaceOnUse">
<stop stop-color="#223962"/>
<stop offset="0.526042" stop-color="#3277BC"/>
<stop offset="0.973958" stop-color="#48ABDF"/>
</linearGradient>
<linearGradient id="paint7_linear_343_4655" x1="35.8181" y1="33.624" x2="49.4499" y2="33.624" gradientUnits="userSpaceOnUse">
<stop stop-color="#223962"/>
<stop offset="0.526042" stop-color="#3277BC"/>
<stop offset="0.973958" stop-color="#48ABDF"/>
</linearGradient>
<linearGradient id="paint8_linear_343_4655" x1="35.8188" y1="40.0218" x2="39.2486" y2="40.0218" gradientUnits="userSpaceOnUse">
<stop stop-color="#223962"/>
<stop offset="0.526042" stop-color="#3277BC"/>
<stop offset="0.973958" stop-color="#48ABDF"/>
</linearGradient>
<linearGradient id="paint9_linear_343_4655" x1="40.6992" y1="40.0218" x2="49.4497" y2="40.0218" gradientUnits="userSpaceOnUse">
<stop stop-color="#223962"/>
<stop offset="0.526042" stop-color="#3277BC"/>
<stop offset="0.973958" stop-color="#48ABDF"/>
</linearGradient>
<linearGradient id="paint10_linear_343_4655" x1="35.8188" y1="43.7727" x2="39.2486" y2="43.7727" gradientUnits="userSpaceOnUse">
<stop stop-color="#223962"/>
<stop offset="0.526042" stop-color="#3277BC"/>
<stop offset="0.973958" stop-color="#48ABDF"/>
</linearGradient>
<linearGradient id="paint11_linear_343_4655" x1="40.6992" y1="43.7727" x2="49.4497" y2="43.7727" gradientUnits="userSpaceOnUse">
<stop stop-color="#223962"/>
<stop offset="0.526042" stop-color="#3277BC"/>
<stop offset="0.973958" stop-color="#48ABDF"/>
</linearGradient>
<linearGradient id="paint12_linear_343_4655" x1="35.8188" y1="47.5237" x2="39.2486" y2="47.5237" gradientUnits="userSpaceOnUse">
<stop stop-color="#223962"/>
<stop offset="0.526042" stop-color="#3277BC"/>
<stop offset="0.973958" stop-color="#48ABDF"/>
</linearGradient>
<linearGradient id="paint13_linear_343_4655" x1="40.6992" y1="47.5237" x2="49.4497" y2="47.5237" gradientUnits="userSpaceOnUse">
<stop stop-color="#223962"/>
<stop offset="0.526042" stop-color="#3277BC"/>
<stop offset="0.973958" stop-color="#48ABDF"/>
</linearGradient>
<linearGradient id="paint14_linear_343_4655" x1="32.5" y1="17.1738" x2="52.956" y2="17.1738" gradientUnits="userSpaceOnUse">
<stop stop-color="#223962"/>
<stop offset="0.526042" stop-color="#3277BC"/>
<stop offset="0.973958" stop-color="#48ABDF"/>
</linearGradient>
<clipPath id="clip0_343_4655">
<rect width="60" height="57.8548" fill="white"/>
</clipPath>
</defs>
</svg>
