<svg width="60" height="60" viewBox="0 0 60 60" fill="none" xmlns="http://www.w3.org/2000/svg">
<path d="M45.883 6.23406C42.2459 6.23406 38.8127 6.79152 36.2159 7.80414C33.3463 8.92293 31.7659 10.5184 31.7659 12.2971C31.7659 12.5796 31.8049 12.8573 31.8825 13.1293C31.2553 13.094 30.6259 13.0759 30 13.0759C29.3652 13.0759 28.7371 13.0939 28.118 13.1274C28.1952 12.856 28.234 12.5791 28.234 12.2971C28.234 9.88422 25.6245 8.50222 23.679 7.765C19.4815 6.17441 14.7166 5.94168 10.2899 6.44793C9.78715 6.50547 9.42621 6.95957 9.48363 7.46254C9.54117 7.96527 9.99445 8.32574 10.4982 8.26879C14.6457 7.79922 19.1918 7.98097 23.1184 9.51179C25.174 10.3132 26.4013 11.3546 26.4013 12.2973C26.4013 12.6263 26.253 12.9677 25.96 13.3148C25.9493 13.3159 25.939 13.3176 25.9283 13.3187C25.3485 13.3898 24.7709 13.4777 24.1961 13.5823C24.1678 13.5876 24.1398 13.5931 24.1117 13.5984C21.1279 14.1565 18.7315 15.127 17.3208 16.3677C17.213 16.3785 17.1052 16.3891 16.9966 16.3988C16.0391 16.4843 15.0783 16.5277 14.117 16.5277C10.72 16.5277 6.93188 16.1466 3.88324 14.5224C2.63191 13.8558 1.89387 13.0964 1.83645 12.3864C1.8341 12.3566 1.83281 12.3269 1.83281 12.2973C1.83281 11.0663 3.84645 9.73972 6.96281 8.91765C7.45207 8.78851 7.74422 8.28719 7.61508 7.79793C7.48594 7.30867 6.98449 7.01664 6.49535 7.14566C2.36742 8.23422 0 10.112 0 12.2971V21.8269V31.3567V40.8865C0 44.8245 7.27348 46.9496 14.117 46.9496C14.7059 46.9496 15.2964 46.9328 15.8829 46.9028V47.7285C15.8829 51.6665 23.1564 53.7916 29.9999 53.7916C33.637 53.7916 37.0702 53.2341 39.667 52.2215C42.5366 51.1027 44.117 49.5071 44.117 47.7285V46.9028C44.7035 46.9328 45.2941 46.9496 45.8829 46.9496C49.52 46.9496 52.9532 46.3921 55.55 45.3795C58.4196 44.2607 60 42.6651 60 40.8865V31.3567V21.8269V12.2971C60 8.35914 52.7265 6.23406 45.883 6.23406ZM15.883 45.0692C15.2972 45.1008 14.7061 45.1169 14.1171 45.1169C7.08621 45.1169 1.8327 42.8835 1.8327 40.8865V34.4612C1.8409 34.4673 1.84969 34.4732 1.85789 34.4792C2.54039 34.9848 3.2993 35.3747 4.08187 35.7005C6.4091 36.6694 8.92207 37.1083 11.4237 37.3107C12.8473 37.426 14.2789 37.4473 15.7057 37.3818C15.7646 37.3791 15.8241 37.378 15.883 37.3751V45.0692ZM15.883 28.6688V35.5386C15.8518 35.5403 15.8204 35.5416 15.7891 35.5432C15.567 35.5545 15.3444 35.5637 15.1219 35.5709C14.787 35.5816 14.452 35.5872 14.117 35.5872C7.08609 35.5872 1.83258 33.3538 1.83258 31.3568V24.9316C1.84078 24.9377 1.84957 24.9435 1.85777 24.9495C1.93008 25.0032 2.00379 25.0562 2.07973 25.1085C2.08559 25.1125 2.0918 25.1165 2.09766 25.1205C4.64414 26.8476 7.95234 27.4569 10.9611 27.7404C12.5502 27.8901 14.1478 27.9251 15.742 27.8502C15.7889 27.848 15.8363 27.8472 15.883 27.8448V28.6688ZM15.8831 19.139V26.0083C15.8358 26.0109 15.7886 26.0131 15.7412 26.0153C12.4064 26.1793 8.93859 25.9119 5.75813 24.8389C4.75102 24.4991 3.72832 24.0733 2.8793 23.4216C2.38535 23.0425 1.8327 22.4975 1.8327 21.8268V15.4015C1.8409 15.4076 1.84969 15.4135 1.85777 15.4195C1.93113 15.4737 2.00496 15.5267 2.07984 15.5785C4.64133 17.3536 8.05512 17.948 11.097 18.2228C12.7113 18.3687 14.3346 18.3966 15.9531 18.3113C15.969 18.3105 15.985 18.31 16.001 18.3089C15.923 18.5805 15.8831 18.8574 15.8831 19.139ZM42.2844 47.7284C42.2844 48.6711 41.0571 49.7124 39.0015 50.5139C36.6116 51.4457 33.4148 51.9587 30 51.9587C26.5852 51.9587 23.3884 51.4456 20.9985 50.5139C18.9429 49.7125 17.7156 48.6712 17.7156 47.7284V41.3031C17.7238 41.3092 17.7326 41.3151 17.7408 41.3211C21.1311 43.8352 25.9106 44.2615 30 44.2615C33.6371 44.2615 37.0703 43.7041 39.6671 42.6914C40.5734 42.3381 41.4657 41.8983 42.25 41.3116C42.2612 41.3031 42.2733 41.295 42.2844 41.2866V47.7284ZM17.7156 38.1986V31.7733C17.7238 31.7794 17.7325 31.7852 17.7408 31.7912C21.3885 34.4925 26.2991 34.8094 30.6795 34.7252C34.5164 34.6514 39.0762 34.1562 42.2498 31.7818C42.2611 31.7733 42.2732 31.7652 42.2843 31.7568V38.1985C42.2843 38.2574 42.2795 38.3167 42.27 38.3764C42.1277 39.2703 40.9286 40.2326 39.0014 40.984C36.1614 42.0913 33.0302 42.4288 30 42.4288C26.5852 42.4288 23.3884 41.9157 20.9985 40.984C18.9429 40.1826 17.7156 39.1412 17.7156 38.1986ZM36.9554 22.5699C36.4648 22.6941 36.1679 23.1925 36.292 23.683C36.4162 24.1738 36.915 24.4704 37.4052 24.3464C38.7307 24.0108 40.0458 23.5623 41.2458 22.8999C41.5777 22.7166 41.8995 22.5141 42.2051 22.2897C42.2313 22.2703 42.2586 22.2515 42.2844 22.232V28.6688C42.2844 28.7277 42.2796 28.787 42.2701 28.8467C42.1277 29.7408 40.9286 30.703 39.0014 31.4543C36.1603 32.562 33.0313 32.8993 30 32.8993C26.5852 32.8993 23.3884 32.3861 20.9985 31.4543C18.9429 30.6529 17.7156 29.6116 17.7156 28.6688V22.2435C17.7238 22.2496 17.7326 22.2555 17.7408 22.2614C21.1332 24.7743 25.9091 25.202 30 25.202C31.2104 25.202 32.4238 25.1404 33.6273 25.0105C34.654 24.8998 34.7024 23.3567 33.671 23.1951C33.5932 23.1829 33.5128 23.1795 33.4307 23.1883C32.3183 23.3084 31.164 23.3693 29.9999 23.3693C26.585 23.3693 23.3883 22.8562 20.9984 21.9244C18.9429 21.1231 17.7156 20.0818 17.7155 19.139C17.7154 17.5637 20.2781 16.4912 21.4854 16.0721C25.2176 14.7762 29.6089 14.6678 33.4995 15.0967C36.1617 15.3903 39.6427 15.93 41.6391 17.9017C41.6418 17.9044 41.6449 17.9063 41.6477 17.909C41.6528 17.9139 41.6579 17.9186 41.663 17.9233C42.0668 18.3291 42.2843 18.7428 42.2843 19.1389C42.2844 20.3839 40.1428 21.7628 36.9554 22.5699ZM54.8844 43.672C52.4945 44.6037 49.2977 45.1168 45.8829 45.1168C45.294 45.1168 44.7028 45.1007 44.117 45.0691V38.1985V37.375C44.1757 37.3779 44.2352 37.379 44.2942 37.3817C44.8233 37.4057 45.3532 37.4195 45.883 37.4195C47.5298 37.4195 49.1421 37.3052 50.6749 37.0798C51.1755 37.0061 51.5218 36.5406 51.448 36.0399C51.3743 35.5393 50.9094 35.193 50.4081 35.2668C48.9634 35.4793 47.4409 35.5871 45.883 35.5871C45.3254 35.5871 44.7677 35.5707 44.2107 35.5432C44.1795 35.5416 44.1482 35.5403 44.1169 35.5386V28.6688V27.8448C44.1637 27.8473 44.211 27.848 44.2579 27.8502C46.9318 27.976 49.6909 27.8358 52.3301 27.2721C54.3449 26.8418 56.4632 26.1878 58.1327 24.94C58.144 24.9316 58.1561 24.9235 58.1672 24.915V31.3567C58.1672 32.4537 56.5416 33.6501 53.9245 34.4793C53.4422 34.6321 53.175 35.1471 53.3278 35.6296C53.4805 36.112 53.9953 36.3796 54.4781 36.2263C55.7275 35.8306 56.9547 35.3208 58.0267 34.5566C58.074 34.5225 58.1214 34.4886 58.1672 34.4541V40.8864H58.1674C58.1673 41.8292 56.9401 42.8705 54.8844 43.672ZM58.1673 21.8269C58.1673 22.7697 56.94 23.8109 54.8844 24.6125C52.4945 25.5442 49.2977 26.0574 45.8829 26.0574C45.6183 26.0574 45.3532 26.0532 45.0884 26.0466C45.0116 26.0447 44.9348 26.042 44.8582 26.0398C44.6579 26.0336 44.4581 26.0255 44.2587 26.0157C44.2113 26.0133 44.1642 26.0111 44.117 26.0086V19.1393C44.117 18.853 44.0775 18.5768 44.0036 18.3099C44.018 18.3106 44.0325 18.3111 44.0469 18.3119C47.8839 18.5105 51.9422 18.1971 55.5502 16.7904C56.471 16.4312 57.377 15.9846 58.1673 15.3855V21.8269ZM54.8844 15.0827C52.4945 16.0144 49.2977 16.5275 45.8829 16.5275C44.8192 16.5275 43.7555 16.4747 42.697 16.3693C42.0592 15.808 41.2318 15.316 40.2688 14.8948C40.2203 14.8732 40.1711 14.852 40.1217 14.8309C40.1186 14.8296 40.1155 14.8282 40.1123 14.827C38.4671 14.1229 36.3911 13.5996 34.0399 13.3146C33.7468 12.9674 33.5986 12.6261 33.5986 12.2971C33.5986 11.3545 34.8259 10.3131 36.8815 9.51156C39.2714 8.5798 42.4682 8.06676 45.883 8.06676C49.2979 8.06676 52.4946 8.57992 54.8845 9.51156C56.9401 10.313 58.1674 11.3543 58.1674 12.2971C58.1674 13.2399 56.9401 14.2811 54.8844 15.0827Z" fill="url(#paint0_linear_1_351)"/>
<defs>
<linearGradient id="paint0_linear_1_351" x1="-2.23517e-07" y1="30" x2="60" y2="30" gradientUnits="userSpaceOnUse">
<stop stop-color="#223962"/>
<stop offset="0.526042" stop-color="#3277BC"/>
<stop offset="0.973958" stop-color="#48ABDF"/>
</linearGradient>
</defs>
</svg>
