<svg width="60" height="60" viewBox="0 0 60 60" fill="none" xmlns="http://www.w3.org/2000/svg">
<path d="M59.9953 27.3668C59.9953 26.4187 59.434 25.5551 58.5691 25.1672L53.6191 22.9477C53.4504 22.8715 53.3215 22.7273 53.2641 22.5504C52.8176 21.1605 52.2422 19.8035 51.5555 18.5168C51.4664 18.3504 51.4535 18.1535 51.5203 17.9789L53.4035 13.0312C53.741 12.1453 53.5254 11.1398 52.8539 10.4684L49.309 6.92461C48.6375 6.25312 47.6332 6.0375 46.7461 6.375L41.6836 8.30273C41.5125 8.36836 41.3203 8.35664 41.1551 8.27226C39.8578 7.6043 38.4914 7.04883 37.0945 6.62461C36.9129 6.56953 36.7641 6.43828 36.6867 6.26602L34.5187 1.43086C34.1309 0.564844 33.2672 0.0046875 32.3191 0.0046875L27.3105 0H27.3082C26.3613 0 25.4988 0.557813 25.1133 1.42266L22.902 6.37148C22.827 6.53789 22.6852 6.66562 22.5094 6.72187C21.1195 7.16602 19.7625 7.73789 18.477 8.42461C18.3117 8.5125 18.116 8.52539 17.9402 8.45859L13.4637 6.74648C12.5777 6.40781 11.5723 6.62109 10.902 7.29141L10.1742 8.01914C9.83086 8.3625 9.83086 8.91914 10.1742 9.2625C10.5176 9.60586 11.0742 9.60586 11.4176 9.2625L12.1453 8.53477C12.3258 8.3543 12.5965 8.29688 12.8355 8.38828L17.3121 10.1004C17.9625 10.3488 18.6891 10.3043 19.3043 9.97617C20.4973 9.33984 21.7559 8.80898 23.0449 8.39766C23.6953 8.19023 24.2285 7.71328 24.5074 7.08984L26.7188 2.14102C26.823 1.90898 27.0539 1.75898 27.3094 1.75898L32.318 1.76367C32.5758 1.76367 32.8102 1.91602 32.9156 2.15156L35.0836 6.98672C35.3684 7.62305 35.9156 8.10469 36.5836 8.30742C37.8797 8.70234 39.1465 9.2168 40.35 9.83672C40.957 10.1496 41.6707 10.1895 42.3082 9.94687L47.3707 8.01914C47.6098 7.92773 47.8828 7.98633 48.0645 8.16914L51.6094 11.7129C51.791 11.8957 51.8508 12.1676 51.7594 12.4066L49.8762 17.3543C49.6289 18.0047 49.6758 18.7312 50.0039 19.3465C50.6414 20.5395 51.1758 21.7992 51.5895 23.0883C51.798 23.7398 52.2762 24.273 52.8996 24.5531L57.8496 26.7727C58.0852 26.8781 58.2375 27.1125 58.2375 27.3703L58.2422 32.3789C58.2422 32.6344 58.0922 32.8664 57.8602 32.9695L53.0262 35.1305C52.391 35.4141 51.9094 35.9602 51.7078 36.6281C51.3164 37.923 50.8031 39.1898 50.1855 40.3934C49.8738 41.0004 49.8352 41.7141 50.0789 42.3516L52.016 47.4176C52.1074 47.6566 52.05 47.9285 51.8695 48.1078L48.3293 51.648C48.1488 51.8285 47.8781 51.8859 47.6391 51.7934L42.6879 49.9008C42.0375 49.6523 41.3109 49.6969 40.6957 50.025C39.5027 50.6613 38.2453 51.1922 36.9551 51.6035C36.3047 51.8109 35.7715 52.2879 35.4926 52.9113L33.2812 57.8602C33.1781 58.0922 32.9461 58.2422 32.6906 58.2422L27.682 58.2375C27.4242 58.2375 27.1898 58.0852 27.0844 57.8496L24.9164 53.0145C24.6316 52.3781 24.0844 51.8965 23.4164 51.6937C22.1203 51.2988 20.8535 50.7855 19.65 50.1645C19.043 49.8516 18.3293 49.8117 17.6918 50.0543L12.6293 51.982C12.3902 52.0734 12.1172 52.0148 11.9355 51.832L8.3918 48.2883C8.21016 48.1055 8.15039 47.8336 8.2418 47.5945L10.125 42.648C10.3723 41.9977 10.3254 41.2711 9.99726 40.6559C9.35859 39.4629 8.82539 38.2031 8.41172 36.9141C8.20312 36.2637 7.725 35.7293 7.10273 35.4492L2.15273 33.2297C1.91719 33.1242 1.76484 32.8898 1.76484 32.632L1.76016 27.6234C1.76016 27.368 1.91016 27.1359 2.14219 27.0328L6.97617 24.8719C7.6125 24.5883 8.09297 24.0422 8.29453 23.3742C8.68711 22.0781 9.19922 20.8113 9.8168 19.609C10.1285 19.002 10.1672 18.2883 9.92344 17.6508L8.16797 13.0582C8.07656 12.8191 8.13398 12.5484 8.31445 12.368L8.95195 11.7305C9.29531 11.3871 9.29531 10.8305 8.95195 10.4871C8.60859 10.1437 8.05195 10.1437 7.70859 10.4871L7.07109 11.1246C6.40078 11.7949 6.1875 12.8004 6.52617 13.6863L8.28164 18.2789C8.34727 18.4512 8.33672 18.6434 8.25352 18.8062C7.58672 20.1035 7.03477 21.4687 6.61172 22.8656C6.55781 23.0449 6.42891 23.1914 6.25898 23.2676L1.425 25.4285C0.557812 25.8129 0 26.6754 0 27.6246L0.0046875 32.6332C0.0046875 33.5812 0.566016 34.4449 1.43086 34.8328L6.38086 37.0523C6.54961 37.1285 6.67969 37.2727 6.73594 37.4496C7.18242 38.8395 7.75664 40.1965 8.44453 41.4832C8.53359 41.6496 8.54648 41.8465 8.47969 42.0211L6.59648 46.9676C6.25898 47.8535 6.47461 48.859 7.14609 49.5305L10.6898 53.0742C11.3613 53.7457 12.3668 53.9613 13.2527 53.6238L18.3152 51.6961C18.4863 51.6305 18.6785 51.6422 18.8438 51.7266C20.141 52.3957 21.5074 52.95 22.9043 53.3742C23.0859 53.4293 23.2348 53.5605 23.3121 53.7328L25.4801 58.568C25.868 59.434 26.7316 59.9941 27.6797 59.9941L32.6883 59.9988H32.6906C33.6375 59.9988 34.5 59.441 34.8855 58.5762L37.0969 53.6273C37.1719 53.4609 37.3148 53.3332 37.4895 53.277C38.8793 52.8328 40.2363 52.2609 41.5219 51.5742C41.6883 51.4863 41.8828 51.4734 42.0586 51.5402L47.0086 53.4328C47.8945 53.7715 48.9 53.5582 49.5703 52.8879L53.1105 49.3477C53.7809 48.6773 53.9941 47.6719 53.6555 46.7859L51.7184 41.7199C51.6527 41.5477 51.6633 41.3555 51.7465 41.1926C52.4133 39.8953 52.9652 38.5301 53.3883 37.1332C53.4422 36.9539 53.5711 36.8074 53.741 36.7312L58.575 34.5703C59.4398 34.1836 59.9988 33.3211 59.9977 32.373L59.993 27.3645L59.9953 27.3668Z" fill="url(#paint0_linear_390_6070)"/>
<path d="M30 11.7668C19.9465 11.7668 11.7668 19.9465 11.7668 30C11.7668 34.8821 13.67 39.4454 17.0567 42.8438L14.8325 42.8333H14.8278C14.3438 42.8333 13.9512 43.2235 13.9489 43.7075C13.9465 44.1926 14.3379 44.5887 14.8231 44.5911L19.2493 44.6122C19.3008 44.6215 19.3536 44.6274 19.4063 44.6274C19.6641 44.6274 19.9184 44.5137 20.0907 44.2981C20.093 44.2946 20.0965 44.2911 20.1 44.2875C20.1 44.2875 20.1024 44.2852 20.1024 44.284C20.1047 44.2805 20.1071 44.2782 20.1083 44.2747C20.2301 44.12 20.2969 43.9278 20.2958 43.7286L20.2747 39.1372C20.2723 38.6532 19.8797 38.2629 19.3958 38.2629H19.3911C18.9059 38.2653 18.5145 38.6602 18.5168 39.1465L18.5297 41.8313C15.327 38.7387 13.5223 34.52 13.5223 30C13.5223 20.9157 20.9133 13.5247 29.9977 13.5247C30.4829 13.5247 30.8766 13.1309 30.8766 12.6458C30.8766 12.1606 30.4829 11.7668 29.9977 11.7668H30Z" fill="url(#paint1_linear_390_6070)"/>
<path d="M45.62 17.4691C46.1028 17.4691 46.4965 17.0789 46.4989 16.5949C46.5012 16.1097 46.1098 15.7136 45.6247 15.7113L41.0333 15.6902C40.8012 15.6937 40.5739 15.7816 40.4075 15.948C40.384 15.9714 40.3629 15.996 40.343 16.0207C40.3407 16.0242 40.3383 16.0265 40.3348 16.0289C40.1625 16.2386 40.104 16.5046 40.1508 16.7519L40.1719 21.164C40.1743 21.648 40.5668 22.0382 41.0508 22.0382H41.0555C41.5407 22.0359 41.9321 21.641 41.9297 21.1546L41.918 18.6222C44.8348 21.6726 46.4766 25.7214 46.4766 29.9988C46.4766 39.0832 39.0856 46.4742 30.0012 46.4742C29.5161 46.4742 29.1223 46.8679 29.1223 47.3531C29.1223 47.8382 29.5161 48.232 30.0012 48.232C40.0547 48.232 48.2344 40.0523 48.2344 29.9988C48.2344 25.2867 46.4344 20.8277 43.2352 17.4574L45.6165 17.4691H45.6211H45.62Z" fill="url(#paint2_linear_390_6070)"/>
<path d="M30 26.3391C27.9809 26.3391 26.3391 27.9809 26.3391 30C26.3391 32.0192 27.9809 33.661 30 33.661C30.2168 33.661 30.4372 33.6411 30.6563 33.6012C31.1344 33.5145 31.4508 33.0575 31.3641 32.5793C31.2774 32.1012 30.8204 31.7848 30.3422 31.8715C29.1458 32.0883 28.0969 31.1614 28.0969 30C28.0969 28.95 28.9512 28.0969 30 28.0969C31.0489 28.0969 31.9032 28.9512 31.9032 30C31.9032 30.0821 31.8973 30.1688 31.8856 30.2579C31.82 30.7383 32.1575 31.1813 32.6379 31.2469C33.1184 31.3126 33.5614 30.975 33.627 30.4946C33.6493 30.3282 33.661 30.1618 33.661 30C33.661 27.9809 32.0192 26.3391 30 26.3391Z" fill="url(#paint3_linear_390_6070)"/>
<path d="M38.1269 22.9946L36.9304 21.7981C36.5414 21.4091 35.9589 21.2849 35.4468 21.4806L33.8871 22.0747C33.5109 21.8896 33.1207 21.7313 32.7222 21.6013L32.0566 20.1177C31.8316 19.6161 31.3324 19.2927 30.7828 19.2927H29.0917C29.0917 19.2927 29.0917 19.2915 29.0906 19.2915C28.541 19.2915 28.0417 19.6149 27.8179 20.1165L27.1371 21.6399C26.7421 21.7747 26.3542 21.9376 25.9828 22.1274L24.6246 21.6083C24.1113 21.4114 23.5289 21.5356 23.1398 21.9247L21.846 23.2185C21.4582 23.6063 21.3339 24.1899 21.5296 24.7032L22.0652 26.1036C21.8812 26.4786 21.7242 26.8677 21.5953 27.2649L20.1128 27.9271C19.6113 28.1509 19.2878 28.6513 19.2878 29.2009V30.8919C19.2902 31.4403 19.6136 31.9407 20.1152 32.1646L21.641 32.8489C21.7769 33.245 21.941 33.6329 22.1308 34.0056L21.5531 35.5231C21.3574 36.0364 21.4828 36.6188 21.8707 37.0067L23.0671 38.2032C23.455 38.5911 24.0375 38.7165 24.5507 38.5208L26.1105 37.9267C26.4867 38.1118 26.8769 38.27 27.2753 38.4001L27.941 39.8837C28.166 40.3853 28.6652 40.7087 29.2148 40.7087H30.9058C30.9058 40.7087 30.9058 40.7099 30.907 40.7099C31.4566 40.7099 31.9558 40.3864 32.1796 39.8849L32.8605 38.3614C33.2554 38.2267 33.6421 38.0638 34.0148 37.8739L35.5335 38.4552C36.0468 38.6509 36.6292 38.5267 37.0171 38.1388L38.2125 36.9435C38.6003 36.5556 38.7246 35.972 38.5289 35.4599L37.9324 33.8989C38.1164 33.5239 38.2734 33.1349 38.4023 32.7376L39.8835 32.0755C40.3851 31.8517 40.7085 31.3513 40.7085 30.8017L40.7062 29.1106C40.7062 28.5622 40.3816 28.0618 39.88 27.838L38.3542 27.1536C38.2183 26.7575 38.0542 26.3696 37.8644 25.9958L38.4421 24.4782C38.6378 23.9649 38.5124 23.3825 38.1246 22.9946H38.1269ZM38.9507 29.3462V30.5673L37.5363 31.2001C37.1671 31.3653 36.8894 31.6817 36.7722 32.0685C36.6503 32.4728 36.4898 32.8677 36.2976 33.2427C36.1171 33.5942 36.0949 34.0079 36.2355 34.3782L36.805 35.8688L35.9437 36.7302L34.4929 36.1747C34.1156 36.0306 33.6949 36.0563 33.3386 36.2462C32.9671 36.4442 32.5746 36.6106 32.1726 36.7384C31.7953 36.8591 31.4871 37.1345 31.3242 37.4966L30.6738 38.9521H29.4527L28.8164 37.5317C28.6511 37.1638 28.3347 36.8849 27.948 36.7677C27.5437 36.6446 27.1488 36.4841 26.7738 36.2907C26.4222 36.1091 26.0085 36.0868 25.6382 36.2274L24.1488 36.7946L23.2828 35.9286L23.8347 34.4778C23.9789 34.1005 23.9519 33.6798 23.7609 33.3235C23.5617 32.952 23.3953 32.5583 23.2664 32.1563C23.1457 31.779 22.8691 31.4708 22.5082 31.3091L21.0503 30.6552V29.4341L22.4648 28.8013C22.8339 28.636 23.1128 28.3196 23.23 27.9317C23.3519 27.5286 23.5113 27.1337 23.7046 26.7575C23.8851 26.406 23.9074 25.9923 23.7667 25.6231L23.2582 24.2919L24.2179 23.3321L25.5093 23.8255C25.8867 23.9696 26.3074 23.9438 26.6636 23.754C27.0351 23.556 27.4277 23.3907 27.8296 23.2618C28.207 23.1411 28.5164 22.8657 28.6781 22.5036L29.3285 21.0481H30.5496L31.1859 22.4696C31.3511 22.8376 31.6675 23.1165 32.0542 23.2337C32.4574 23.3567 32.8523 23.5173 33.2285 23.7106C33.58 23.8911 33.9937 23.9146 34.3628 23.7739L35.8523 23.2067L36.7183 24.0728L36.1664 25.5235C36.0222 25.9009 36.0503 26.3216 36.2402 26.6778C36.4394 27.0505 36.6058 27.4431 36.7347 27.845C36.8554 28.2224 37.132 28.5306 37.4929 28.6935L38.9507 29.3474V29.3462Z" fill="url(#paint4_linear_390_6070)"/>
<defs>
<linearGradient id="paint0_linear_390_6070" x1="-2.23509e-07" y1="29.9994" x2="59.9977" y2="29.9994" gradientUnits="userSpaceOnUse">
<stop stop-color="#223962"/>
<stop offset="0.526042" stop-color="#3277BC"/>
<stop offset="0.973958" stop-color="#48ABDF"/>
</linearGradient>
<linearGradient id="paint1_linear_390_6070" x1="11.7668" y1="28.1971" x2="30.8766" y2="28.1971" gradientUnits="userSpaceOnUse">
<stop stop-color="#223962"/>
<stop offset="0.526042" stop-color="#3277BC"/>
<stop offset="0.973958" stop-color="#48ABDF"/>
</linearGradient>
<linearGradient id="paint2_linear_390_6070" x1="29.1223" y1="31.9611" x2="48.2344" y2="31.9611" gradientUnits="userSpaceOnUse">
<stop stop-color="#223962"/>
<stop offset="0.526042" stop-color="#3277BC"/>
<stop offset="0.973958" stop-color="#48ABDF"/>
</linearGradient>
<linearGradient id="paint3_linear_390_6070" x1="26.3391" y1="30.0001" x2="33.661" y2="30.0001" gradientUnits="userSpaceOnUse">
<stop stop-color="#223962"/>
<stop offset="0.526042" stop-color="#3277BC"/>
<stop offset="0.973958" stop-color="#48ABDF"/>
</linearGradient>
<linearGradient id="paint4_linear_390_6070" x1="19.2878" y1="30.0007" x2="40.7085" y2="30.0007" gradientUnits="userSpaceOnUse">
<stop stop-color="#223962"/>
<stop offset="0.526042" stop-color="#3277BC"/>
<stop offset="0.973958" stop-color="#48ABDF"/>
</linearGradient>
</defs>
</svg>
