<svg width="60" height="46" viewBox="0 0 60 46" fill="none" xmlns="http://www.w3.org/2000/svg">
<g clip-path="url(#clip0_390_4972)">
<path d="M22.9852 31.9418C23.5043 31.9418 23.925 31.5211 23.925 31.002C23.925 30.4828 23.5043 30.0621 22.9852 30.0621H1.87852V2.94375C1.87852 2.35664 2.35664 1.87852 2.94375 1.87852H51.0434C51.6305 1.87852 52.1086 2.35664 52.1086 2.94375V22.9852C52.1086 23.5043 52.5293 23.925 53.0484 23.925C53.5676 23.925 53.9883 23.5043 53.9883 22.9852V2.94375C53.9883 1.3207 52.6676 0 51.0445 0H2.94375C1.3207 0 0 1.3207 0 2.94375V35.0109C0 36.634 1.3207 37.9547 2.94375 37.9547H19.9172L19.1496 44.093H17.9754C17.4562 44.093 17.0355 44.5137 17.0355 45.0328C17.0355 45.552 17.4562 45.9727 17.9754 45.9727H22.9863C23.5055 45.9727 23.9262 45.552 23.9262 45.0328C23.9262 44.5137 23.5055 44.093 22.9863 44.093H21.0445L21.8121 37.9547H22.9875C23.5066 37.9547 23.9273 37.534 23.9273 37.0148C23.9273 36.4957 23.5066 36.075 22.9875 36.075H2.94375C2.35664 36.075 1.87852 35.5969 1.87852 35.0098V31.9406H22.9852V31.9418Z" fill="url(#paint0_linear_390_4972)"/>
<path d="M43.0276 18.0371H28.9979C27.3749 18.0371 26.0542 19.3578 26.0542 20.9809V43.0262C26.0542 44.6492 27.3749 45.9699 28.9979 45.9699H43.0276C44.6507 45.9699 45.9714 44.6492 45.9714 43.0262V20.9809C45.9714 19.3578 44.6507 18.0371 43.0276 18.0371ZM27.9339 23.9246H44.0929V40.0836H27.9339V23.9246ZM43.0276 44.0914H28.9979C28.4108 44.0914 27.9327 43.6133 27.9327 43.0262V41.9609H44.0917V43.0262C44.0917 43.6133 43.6136 44.0914 43.0265 44.0914H43.0276ZM44.0929 22.0449H27.9339V20.9797C27.9339 20.3926 28.412 19.9145 28.9991 19.9145H43.0288C43.6159 19.9145 44.094 20.3926 44.094 20.9797V22.0449H44.0929Z" fill="url(#paint1_linear_390_4972)"/>
<path d="M57.0562 26.0547H51.0434C49.4203 26.0547 48.0996 27.3754 48.0996 28.9984V43.0281C48.0996 44.6512 49.4203 45.9719 51.0434 45.9719H57.0562C58.6793 45.9719 60 44.6512 60 43.0281V28.9984C60 27.3754 58.6793 26.0547 57.0562 26.0547ZM57.0562 44.0922H51.0434C50.4562 44.0922 49.9781 43.6141 49.9781 43.027V41.9617H58.1203V43.027C58.1203 43.6141 57.6422 44.0922 57.0551 44.0922H57.0562ZM58.1215 40.0832H49.9793V31.941H58.1215V40.0832ZM58.1215 30.0625H49.9793V28.9973C49.9793 28.4102 50.4574 27.932 51.0445 27.932H57.0574C57.6445 27.932 58.1227 28.4102 58.1227 28.9973V30.0625H58.1215Z" fill="url(#paint2_linear_390_4972)"/>
</g>
<defs>
<linearGradient id="paint0_linear_390_4972" x1="-2.01122e-07" y1="22.9863" x2="53.9883" y2="22.9863" gradientUnits="userSpaceOnUse">
<stop stop-color="#223962"/>
<stop offset="0.526042" stop-color="#3277BC"/>
<stop offset="0.973958" stop-color="#48ABDF"/>
</linearGradient>
<linearGradient id="paint1_linear_390_4972" x1="26.0542" y1="32.0035" x2="45.9714" y2="32.0035" gradientUnits="userSpaceOnUse">
<stop stop-color="#223962"/>
<stop offset="0.526042" stop-color="#3277BC"/>
<stop offset="0.973958" stop-color="#48ABDF"/>
</linearGradient>
<linearGradient id="paint2_linear_390_4972" x1="48.0996" y1="36.0133" x2="60" y2="36.0133" gradientUnits="userSpaceOnUse">
<stop stop-color="#223962"/>
<stop offset="0.526042" stop-color="#3277BC"/>
<stop offset="0.973958" stop-color="#48ABDF"/>
</linearGradient>
<clipPath id="clip0_390_4972">
<rect width="60" height="45.9703" fill="white"/>
</clipPath>
</defs>
</svg>
