<svg width="47" height="60" viewBox="0 0 47 60" fill="none" xmlns="http://www.w3.org/2000/svg">
<g clip-path="url(#clip0_390_5292)">
<path d="M32.2032 12.3877H28.3993C25.1966 12.3877 22.5903 14.9939 22.5903 18.1967V22.0006C22.5903 23.0002 23.4036 23.8135 24.4032 23.8135H28.2071C31.411 23.8135 34.0161 21.2072 34.0161 18.0045V14.2006C34.0161 13.201 33.2028 12.3877 32.2032 12.3877ZM32.2583 18.0045C32.2583 20.2393 30.4407 22.0557 28.2071 22.0557H25.5411L28.8997 18.6971C29.2431 18.3537 29.2431 17.7971 28.8997 17.4537C28.5563 17.1104 27.9997 17.1104 27.6563 17.4537L24.3481 20.7619V18.1967C24.3481 15.9631 26.1657 14.1455 28.3993 14.1455H32.2032C32.2337 14.1455 32.2583 14.1701 32.2583 14.2006V18.0045Z" fill="url(#paint0_linear_390_5292)"/>
<path d="M45.144 28.8975C44.6589 28.8975 44.2651 29.2912 44.2651 29.7764V42.1771C44.2651 42.6623 44.6589 43.0561 45.144 43.0561C45.6292 43.0561 46.0229 42.6623 46.0229 42.1771V29.7764C46.0229 29.2912 45.6292 28.8975 45.144 28.8975Z" fill="url(#paint1_linear_390_5292)"/>
<path d="M45.1441 45.3037C44.659 45.3037 44.2652 45.6975 44.2652 46.1826V49.7557H16.2492C16.3629 49.2236 16.425 48.6729 16.425 48.108V40.6232H17.6215V42.2264C17.6215 43.3572 18.5414 44.2771 19.6723 44.2771H36.934C38.0648 44.2771 38.9848 43.3572 38.9848 42.2264V39.34C38.9848 38.2092 38.0648 37.2893 36.934 37.2893H22.7883C22.9242 36.8791 23.0074 36.4455 23.0285 35.9967H38.291C39.4219 35.9967 40.3418 35.0768 40.3418 33.9459V31.0596C40.3418 29.9287 39.4219 29.0088 38.291 29.0088H18.3164C17.1855 29.0088 16.2656 29.9287 16.2656 31.0596V32.5373H13.3559C13.009 32.5373 12.6715 32.5701 12.3422 32.6311V16.5342C12.3422 16.049 11.9484 15.6553 11.4633 15.6553C10.9781 15.6553 10.5844 16.049 10.5844 16.5342V24.2768H7.91953C3.55195 24.2768 0 27.8287 0 32.1951V59.0627C0 59.5479 0.39375 59.9416 0.878906 59.9416C1.36406 59.9416 1.75781 59.5479 1.75781 59.0627V32.1951C1.75781 28.7979 4.52227 26.0346 7.91836 26.0346H10.5832V33.2732C8.88867 34.24 7.74141 36.0635 7.74141 38.1506V44.2467C7.74141 44.7318 8.13516 45.1256 8.62031 45.1256C9.10547 45.1256 9.49922 44.7318 9.49922 44.2467V38.1506C9.49922 36.0248 11.2289 34.2951 13.3547 34.2951H20.9824C21.1441 34.2951 21.2754 34.4264 21.2754 34.5881V35.7646C21.2754 37.4744 19.8844 38.8654 18.1746 38.8654H15.5449C15.0598 38.8654 14.666 39.2592 14.666 39.7443V48.108C14.666 51.4666 11.9531 54.1994 8.61914 54.1994C8.13398 54.1994 7.74023 54.5932 7.74023 55.0783V59.0627C7.74023 59.5479 8.13398 59.9416 8.61914 59.9416C9.1043 59.9416 9.49805 59.5479 9.49805 59.0627V55.9068C9.88945 55.8623 10.2703 55.7885 10.6418 55.6877C11.0191 58.1264 13.1332 59.999 15.6762 59.999H40.9277C43.7367 59.999 46.0219 57.7139 46.0219 54.9049V46.1814C46.0219 45.6963 45.6281 45.3025 45.143 45.3025L45.1441 45.3037ZM20.9824 32.5385H18.0223V31.0596C18.0223 30.8979 18.1535 30.7666 18.3152 30.7666H38.2898C38.4516 30.7666 38.5828 30.8979 38.5828 31.0596V33.9459C38.5828 34.1076 38.4516 34.2389 38.2898 34.2389H23.0016C22.8352 33.2744 21.9937 32.5373 20.9824 32.5373V32.5385ZM19.3781 40.4732C20.3051 40.2365 21.1254 39.7326 21.7535 39.0482H36.934C37.0957 39.0482 37.227 39.1795 37.227 39.3412V42.2275C37.227 42.3893 37.0957 42.5205 36.934 42.5205H19.6723C19.5105 42.5205 19.3793 42.3893 19.3793 42.2275V40.4732H19.3781ZM44.2641 54.9061C44.2641 56.7459 42.7676 58.2424 40.9277 58.2424H15.6762C13.8691 58.2424 12.3937 56.7986 12.3422 55.0033C13.7742 54.2182 14.9355 52.9947 15.648 51.5135H44.2629V54.9061H44.2641Z" fill="url(#paint2_linear_390_5292)"/>
<path d="M40.929 0H15.6774C12.8684 0 10.5833 2.28516 10.5833 5.09414V12.5285C10.5833 13.0137 10.977 13.4074 11.4622 13.4074C11.9473 13.4074 12.3411 13.0137 12.3411 12.5285V9.30703H44.2653V25.7707C44.2653 26.2559 44.659 26.6496 45.1442 26.6496C45.6293 26.6496 46.0231 26.2559 46.0231 25.7707V5.09414C46.0231 2.28516 43.7379 0 40.929 0ZM44.2653 7.54922H12.3411V5.09414C12.3411 3.2543 13.8375 1.75781 15.6774 1.75781H40.929C42.7688 1.75781 44.2653 3.2543 44.2653 5.09414V7.54922Z" fill="url(#paint3_linear_390_5292)"/>
<path d="M28.2376 57.6514C29.7856 57.6514 31.0442 56.3928 31.0442 54.8447C31.0442 53.2967 29.7844 52.0381 28.2376 52.0381C26.6907 52.0381 25.4309 53.2979 25.4309 54.8447C25.4309 56.3916 26.6907 57.6514 28.2376 57.6514ZM28.2376 53.7947C28.8165 53.7947 29.2864 54.2658 29.2864 54.8436C29.2864 55.4213 28.8153 55.8924 28.2376 55.8924C27.6598 55.8924 27.1887 55.4213 27.1887 54.8436C27.1887 54.2658 27.6598 53.7947 28.2376 53.7947Z" fill="url(#paint4_linear_390_5292)"/>
<path d="M29.8206 4.21875H26.394C25.9089 4.21875 25.5151 4.6125 25.5151 5.09766C25.5151 5.58281 25.9089 5.97656 26.394 5.97656H29.8206C30.3058 5.97656 30.6995 5.58281 30.6995 5.09766C30.6995 4.6125 30.3058 4.21875 29.8206 4.21875Z" fill="url(#paint5_linear_390_5292)"/>
<path d="M33.58 4.22441L32.5253 4.21387H32.5159C32.0343 4.21387 31.6429 4.60176 31.637 5.08457C31.6323 5.56973 32.0214 5.96699 32.5065 5.97168L33.5612 5.98223H33.5706C34.0522 5.98223 34.4448 5.59434 34.4495 5.1127C34.4542 4.62754 34.0651 4.2291 33.58 4.22441Z" fill="url(#paint6_linear_390_5292)"/>
<path d="M22.9607 4.21875C22.4755 4.22109 22.0841 4.62305 22.0864 5.1082C22.0888 5.59219 22.4825 5.98242 22.9653 5.98242H22.97C23.4552 5.98008 23.8466 5.58398 23.8442 5.09883V5.08828C23.8419 4.60312 23.447 4.21758 22.9607 4.21992V4.21875Z" fill="url(#paint7_linear_390_5292)"/>
<path d="M17.4949 27.8672H19.8644C20.3496 27.8672 20.7433 27.4734 20.7433 26.9883C20.7433 26.5031 20.3496 26.1094 19.8644 26.1094H17.4949C17.0097 26.1094 16.616 26.5031 16.616 26.9883C16.616 27.4734 17.0097 27.8672 17.4949 27.8672Z" fill="url(#paint8_linear_390_5292)"/>
<path d="M33.2825 26.9883C33.2825 27.4734 33.6762 27.8672 34.1614 27.8672H39.3563C39.8415 27.8672 40.2352 27.4734 40.2352 26.9883C40.2352 26.5031 39.8415 26.1094 39.3563 26.1094H34.1614C33.6762 26.1094 33.2825 26.5031 33.2825 26.9883Z" fill="url(#paint9_linear_390_5292)"/>
</g>
<defs>
<linearGradient id="paint0_linear_390_5292" x1="22.5903" y1="18.1006" x2="34.0161" y2="18.1006" gradientUnits="userSpaceOnUse">
<stop stop-color="#223962"/>
<stop offset="0.526042" stop-color="#3277BC"/>
<stop offset="0.973958" stop-color="#48ABDF"/>
</linearGradient>
<linearGradient id="paint1_linear_390_5292" x1="44.2651" y1="35.9768" x2="46.0229" y2="35.9768" gradientUnits="userSpaceOnUse">
<stop stop-color="#223962"/>
<stop offset="0.526042" stop-color="#3277BC"/>
<stop offset="0.973958" stop-color="#48ABDF"/>
</linearGradient>
<linearGradient id="paint2_linear_390_5292" x1="-1.71445e-07" y1="37.8272" x2="46.0219" y2="37.8272" gradientUnits="userSpaceOnUse">
<stop stop-color="#223962"/>
<stop offset="0.526042" stop-color="#3277BC"/>
<stop offset="0.973958" stop-color="#48ABDF"/>
</linearGradient>
<linearGradient id="paint3_linear_390_5292" x1="10.5833" y1="13.3248" x2="46.0231" y2="13.3248" gradientUnits="userSpaceOnUse">
<stop stop-color="#223962"/>
<stop offset="0.526042" stop-color="#3277BC"/>
<stop offset="0.973958" stop-color="#48ABDF"/>
</linearGradient>
<linearGradient id="paint4_linear_390_5292" x1="25.4309" y1="54.8447" x2="31.0442" y2="54.8447" gradientUnits="userSpaceOnUse">
<stop stop-color="#223962"/>
<stop offset="0.526042" stop-color="#3277BC"/>
<stop offset="0.973958" stop-color="#48ABDF"/>
</linearGradient>
<linearGradient id="paint5_linear_390_5292" x1="25.5151" y1="5.09766" x2="30.6995" y2="5.09766" gradientUnits="userSpaceOnUse">
<stop stop-color="#223962"/>
<stop offset="0.526042" stop-color="#3277BC"/>
<stop offset="0.973958" stop-color="#48ABDF"/>
</linearGradient>
<linearGradient id="paint6_linear_390_5292" x1="31.637" y1="5.09805" x2="34.4495" y2="5.09805" gradientUnits="userSpaceOnUse">
<stop stop-color="#223962"/>
<stop offset="0.526042" stop-color="#3277BC"/>
<stop offset="0.973958" stop-color="#48ABDF"/>
</linearGradient>
<linearGradient id="paint7_linear_390_5292" x1="22.0864" y1="5.10059" x2="23.8443" y2="5.10059" gradientUnits="userSpaceOnUse">
<stop stop-color="#223962"/>
<stop offset="0.526042" stop-color="#3277BC"/>
<stop offset="0.973958" stop-color="#48ABDF"/>
</linearGradient>
<linearGradient id="paint8_linear_390_5292" x1="16.616" y1="26.9883" x2="20.7433" y2="26.9883" gradientUnits="userSpaceOnUse">
<stop stop-color="#223962"/>
<stop offset="0.526042" stop-color="#3277BC"/>
<stop offset="0.973958" stop-color="#48ABDF"/>
</linearGradient>
<linearGradient id="paint9_linear_390_5292" x1="33.2825" y1="26.9883" x2="40.2352" y2="26.9883" gradientUnits="userSpaceOnUse">
<stop stop-color="#223962"/>
<stop offset="0.526042" stop-color="#3277BC"/>
<stop offset="0.973958" stop-color="#48ABDF"/>
</linearGradient>
<clipPath id="clip0_390_5292">
<rect width="46.023" height="60" fill="white"/>
</clipPath>
</defs>
</svg>
