<svg version="1.2" xmlns="http://www.w3.org/2000/svg" viewBox="0 0 114 31" width="114" height="31">
	<title>incortasvg,102-svg</title>
	<style>
		.s0 { fill: #231f20 } 
	</style>
	<g id="Layer 2">
		<g id="&lt;Group&gt;">
			<path id="&lt;Path&gt;" class="s0" d="m0.1 2.7l-0.1 16.6 14.8 0.1v-1.9l-12.5-0.2-0.1-14.5z"/>
			<path id="&lt;Path&gt;" class="s0" d="m99.3 2.7l-0.1 16.6 14.8 0.1v-1.9l-12.5-0.2-0.1-14.5z"/>
			<path id="&lt;Path&gt;" class="s0" d="m10.5 8.7l2.4-5.9h2.5l-3 5.9z"/>
			<path id="&lt;Compound Path&gt;" fill-rule="evenodd" class="s0" d="m59 19.3l-2.9 0.1-4.9-6.9h-6.8v6.8h-2.4v-16.5c0 0 10.2 0 11.2 0 2.8 0 5 2.7 5 5 0 2.3-2 4.4-4.2 4.6 1.3 1.9 5 6.9 5 6.9zm-6.4-8.9c1.8-0.1 3-1 3.1-2.6 0-1.5-0.7-3-3.2-3-2.5 0-8.1 0-8.1 0v5.6c0 0 6.4 0.1 8.2 0z"/>
			<path id="&lt;Compound Path&gt;" fill-rule="evenodd" class="s0" d="m63.1 30.3l-1.2 0.1-2.1-2.8h-2.8v2.7h-1v-6.6c0 0 4.3 0 4.7 0 1.2 0 2.1 1.1 2.1 2 0 0.9-0.9 1.8-1.8 1.8 0.6 0.8 2.1 2.8 2.1 2.8zm-2.7-3.5c0.8-0.1 1.3-0.5 1.3-1.1 0.1-0.6-0.3-1.2-1.3-1.2-1 0-3.4 0-3.4 0v2.2c0 0 2.7 0.1 3.4 0.1z"/>
			<path id="&lt;Compound Path&gt;" fill-rule="evenodd" class="s0" d="m41.4 27.6l-2.9-0.1v2.8h-1v-6.7c0 0 4.4 0 4.8 0 1.2 0 2.1 1.1 2.1 2.1 0 0.9-0.8 1.7-1.8 1.8-0.6 0.1-1.2 0.1-1.2 0.1zm0.6-0.9c0.8 0 1.3-0.4 1.4-1 0-0.6-0.3-1.2-1.4-1.2-1.1 0-3.5-0.1-3.5-0.1v2.3c0 0 2.8 0.1 3.5 0z"/>
			<path id="&lt;Path&gt;" class="s0" d="m62 2.8h14.7v1.9h-12.2v5.1l9.2 0.1v1.8l-9.2 0.1v5.7l12.2 0.1v1.8l-14.7-0.1z"/>
			<path id="&lt;Path&gt;" class="s0" d="m67.7 2.4l1.9-2.2h4.2z"/>
			<path id="&lt;Compound Path&gt;" fill-rule="evenodd" class="s0" d="m92.8 15l-9.8-0.1-2.2 4.4h-2.9l8.4-16.5h3.2l8.3 16.5h-2.8zm-1.1-2l-3.8-7.8-3.9 7.7z"/>
			<path id="&lt;Compound Path&gt;" fill-rule="evenodd" class="s0" d="m51.5 28.6l-4.4-0.1-1.1 1.8h-1.3l3.9-6.6h1.4l3.8 6.6h-1.3zm-0.5-0.8l-1.7-3.1-1.8 3.1z"/>
			<path id="&lt;Path&gt;" class="s0" d="m66 23.6h1.4v1.4h-1.4z"/>
			<path id="&lt;Path&gt;" class="s0" d="m66 25.6h1.4v4.7h-1.4z"/>
			<path id="&lt;Path&gt;" class="s0" d="m71.1 28.2c0.1 0.5 0.5 1.2 0.9 1.3 0.5 0.2 1.1 0.2 1.6 0.3 0.5 0 1.3-0.1 1.6-0.3 0.4-0.2 0.8-0.4 0.8-0.9 0-0.5-0.5-0.8-0.9-0.9-0.5-0.1-1.2-0.2-1.8-0.3-0.7-0.1-1.5-0.1-1.9-0.4-0.5-0.3-1-0.7-1-1.5 0-0.8 0.4-1.2 0.9-1.5 0.2-0.1 1.1-0.5 2.1-0.5 2.9 0 3.5 1.5 3.5 2.2-0.7 0-0.7 0-1.1 0-0.1-0.4-0.2-0.7-0.6-0.9-0.3-0.2-1-0.4-1.6-0.4-0.9 0-2.2 0.2-2.2 1 0 0.7 0.5 0.9 1.2 1 0.7 0 2.1 0.3 2.8 0.4 0.7 0.2 1.8 0.6 1.8 1.8 0 0.9-0.8 1.3-1 1.5-0.3 0.1-1.6 0.5-2.6 0.4-0.9 0-2-0.2-2.3-0.3-0.2-0.2-1.3-0.8-1.3-2z"/>
			<path id="&lt;Compound Path&gt;" fill-rule="evenodd" class="s0" d="m27.7 20.8c-6.3 0-11.3-4.6-11.3-10.4 0-5.7 5-10.4 11.3-10.4 6.2 0 11.3 4.7 11.3 10.4 0 5.8-5.1 10.4-11.3 10.4zm8.6-10.5c0-4.6-3.8-8.3-8.5-8.3-4.7 0-8.6 3.7-8.6 8.3 0 4.7 3.9 8.4 8.6 8.4 4.7 0 8.5-3.7 8.5-8.4z"/>
		</g>
	</g>
</svg>