<svg width="51" height="60" viewBox="0 0 51 60" fill="none" xmlns="http://www.w3.org/2000/svg">
<g clip-path="url(#clip0_390_5793)">
<path d="M47.4721 5.82448H44.468V2.8204C44.468 1.26562 43.2024 0 41.6476 0H4.76189C3.20623 0 1.94149 1.26562 1.94149 2.8204V4.00516C0.818258 4.3532 0 5.40085 0 6.63659V6.7693C0 8.00504 0.818258 9.05357 1.94149 9.40074V16.5937C1.94149 17.0788 2.33524 17.4726 2.8204 17.4726C3.30555 17.4726 3.6993 17.0788 3.6993 16.5937V9.5229H7.70709C8.70904 9.5229 9.52378 8.70816 9.52378 7.70621V5.6988C9.52378 4.69685 8.70904 3.88211 7.70709 3.88211H3.6993V2.81952C3.6993 2.23329 4.17566 1.75693 4.76189 1.75693H41.6485C42.2348 1.75693 42.7111 2.23329 42.7111 2.81952V51.3542C42.7111 51.9405 42.2348 52.4168 41.6485 52.4168H4.76189C4.17566 52.4168 3.6993 51.9405 3.6993 51.3542V20.1093C3.6993 19.6241 3.30555 19.2304 2.8204 19.2304C2.33524 19.2304 1.94149 19.6241 1.94149 20.1093V51.3551C1.94149 52.9099 3.20711 54.1755 4.76189 54.1755H7.76598V57.1796C7.76598 58.7344 9.0316 60 10.5864 60H36.209C36.6942 60 37.0879 59.6063 37.0879 59.1211C37.0879 58.6359 36.6942 58.2422 36.209 58.2422H10.5855C9.99927 58.2422 9.5229 57.7658 9.5229 57.1796V54.1755H41.6476C43.2024 54.1755 44.468 52.9099 44.468 51.3551V7.58229H47.4721C48.0584 7.58229 48.5347 8.05865 48.5347 8.64488V57.1796C48.5347 57.7658 48.0584 58.2422 47.4721 58.2422H39.7246C39.2395 58.2422 38.8457 58.6359 38.8457 59.1211C38.8457 59.6063 39.2395 60 39.7246 60H47.4721C49.0278 60 50.2925 58.7344 50.2925 57.1796V8.64488C50.2925 7.08922 49.0269 5.82448 47.4721 5.82448ZM7.7651 5.69968V7.70709C7.7651 7.73961 7.73873 7.76598 7.70621 7.76598H2.7536C2.20429 7.76598 1.7578 7.3195 1.7578 6.77018V6.63747C1.7578 6.08815 2.20429 5.64167 2.7536 5.64167H7.70621C7.73873 5.64167 7.7651 5.66804 7.7651 5.70056V5.69968Z" fill="url(#paint0_linear_390_5793)"/>
<path d="M14.4685 9.70703C9.70218 9.70703 5.82446 13.5847 5.82446 18.3519C5.82446 23.1191 9.70218 26.9968 14.4685 26.9968C16.8178 26.9968 18.9509 26.0546 20.5109 24.528C20.5355 24.5086 20.5593 24.4875 20.5812 24.4647C20.6032 24.4418 20.6252 24.4181 20.6445 24.3944C22.1703 22.8343 23.1133 20.7021 23.1133 18.3528C23.1133 13.5865 19.2356 9.70791 14.4685 9.70791V9.70703ZM21.3555 18.3519C21.3555 19.9339 20.8177 21.3929 19.9168 22.5566L16.9839 19.6237C17.1781 19.2414 17.2889 18.8089 17.2889 18.351C17.2889 17.103 16.4732 16.0422 15.3474 15.6713V11.522C18.7311 11.9553 21.3555 14.8512 21.3555 18.351V18.3519ZM14.4693 17.2893C15.0556 17.2893 15.5319 17.7657 15.5319 18.3519C15.5319 18.9381 15.0556 19.4145 14.4693 19.4145C13.8831 19.4145 13.4068 18.9381 13.4068 18.3519C13.4068 17.7657 13.8831 17.2893 14.4693 17.2893ZM7.58227 18.3519C7.58227 14.8521 10.2067 11.9561 13.5896 11.5228V15.6721C12.4637 16.0422 11.6481 17.103 11.6481 18.3519C11.6481 19.9067 12.9137 21.1723 14.4685 21.1723C14.9264 21.1723 15.3588 21.0616 15.7411 20.8673L18.674 23.8002C17.5095 24.7011 16.0514 25.239 14.4685 25.239C10.6716 25.239 7.58227 22.1496 7.58227 18.3519Z" fill="url(#paint1_linear_390_5793)"/>
<path d="M32.9448 9.70703H27.0544C26.0524 9.70703 25.2377 10.5218 25.2377 11.5237V13.5311C25.2377 14.5331 26.0524 15.3478 27.0544 15.3478H32.9448C33.9467 15.3478 34.7615 14.5331 34.7615 13.5311V11.5237C34.7615 10.5218 33.9467 9.70703 32.9448 9.70703ZM33.0036 13.5311C33.0036 13.5637 32.9773 13.59 32.9448 13.59H27.0544C27.0218 13.59 26.9955 13.5637 26.9955 13.5311V11.5237C26.9955 11.4912 27.0218 11.4648 27.0544 11.4648H32.9448C32.9773 11.4648 33.0036 11.4912 33.0036 11.5237V13.5311Z" fill="url(#paint2_linear_390_5793)"/>
<path d="M39.707 17.4727H26.1174C25.6323 17.4727 25.2385 17.8664 25.2385 18.3516C25.2385 18.8367 25.6323 19.2305 26.1174 19.2305H39.707C40.1922 19.2305 40.5859 18.8367 40.5859 18.3516C40.5859 17.8664 40.1922 17.4727 39.707 17.4727Z" fill="url(#paint3_linear_390_5793)"/>
<path d="M40.5859 22.2344C40.5859 21.7492 40.1922 21.3555 39.707 21.3555H26.1174C25.6323 21.3555 25.2385 21.7492 25.2385 22.2344C25.2385 22.7195 25.6323 23.1133 26.1174 23.1133H39.707C40.1922 23.1133 40.5859 22.7195 40.5859 22.2344Z" fill="url(#paint4_linear_390_5793)"/>
<path d="M26.1174 25.2383C25.6323 25.2383 25.2385 25.632 25.2385 26.1172C25.2385 26.6023 25.6323 26.9961 26.1174 26.9961H33.8834C34.3686 26.9961 34.7623 26.6023 34.7623 26.1172C34.7623 25.632 34.3686 25.2383 33.8834 25.2383H26.1174Z" fill="url(#paint5_linear_390_5793)"/>
<path d="M5.82446 36.8279C5.82446 37.8299 6.63921 38.6446 7.64115 38.6446H13.5316C14.5335 38.6446 15.3482 37.8299 15.3482 36.8279V34.8196C15.3482 33.8177 14.5335 33.0029 13.5316 33.0029H7.64115C6.63921 33.0029 5.82446 33.8177 5.82446 34.8196V36.8279ZM7.58227 34.8196C7.58227 34.7871 7.60863 34.7607 7.64115 34.7607H13.5316C13.5641 34.7607 13.5904 34.7871 13.5904 34.8196V36.8279C13.5904 36.8604 13.5641 36.8868 13.5316 36.8868H7.64115C7.60863 36.8868 7.58227 36.8604 7.58227 36.8279V34.8196Z" fill="url(#paint6_linear_390_5793)"/>
<path d="M20.2929 40.7695H6.70336C6.21821 40.7695 5.82446 41.1633 5.82446 41.6484C5.82446 42.1336 6.21821 42.5273 6.70336 42.5273H20.2929C20.7781 42.5273 21.1718 42.1336 21.1718 41.6484C21.1718 41.1633 20.7781 40.7695 20.2929 40.7695Z" fill="url(#paint7_linear_390_5793)"/>
<path d="M21.1718 45.5303C21.1718 45.0451 20.7781 44.6514 20.2929 44.6514H6.70336C6.21821 44.6514 5.82446 45.0451 5.82446 45.5303C5.82446 46.0154 6.21821 46.4092 6.70336 46.4092H20.2929C20.7781 46.4092 21.1718 46.0154 21.1718 45.5303Z" fill="url(#paint8_linear_390_5793)"/>
<path d="M6.70336 48.5352C6.21821 48.5352 5.82446 48.9289 5.82446 49.4141C5.82446 49.8992 6.21821 50.293 6.70336 50.293H14.4693C14.9545 50.293 15.3482 49.8992 15.3482 49.4141C15.3482 48.9289 14.9545 48.5352 14.4693 48.5352H6.70336Z" fill="url(#paint9_linear_390_5793)"/>
<path d="M37.7655 48.535H24.1759C23.6907 48.535 23.297 48.9287 23.297 49.4139C23.297 49.899 23.6907 50.2928 24.1759 50.2928H37.7655C39.3203 50.2928 40.5859 49.028 40.5859 47.4724V35.8243V33.8828C40.5859 33.3977 40.1921 33.0039 39.707 33.0039C39.2218 33.0039 38.8281 33.3977 38.8281 33.8828V35.4604L33.6452 40.6433L28.3366 38.8741C28.0211 38.7695 27.673 38.8512 27.4375 39.0868L23.5545 42.9698C23.2109 43.3134 23.2117 43.8698 23.5545 44.2125C23.7259 44.3839 23.9509 44.4701 24.1759 44.4701C24.4009 44.4701 24.6259 44.3839 24.7973 44.2125L28.2962 40.7136L33.6048 42.4829C33.9203 42.5883 34.2683 42.5057 34.5039 42.2702L38.8281 37.946V47.4724C38.8281 48.0586 38.3517 48.535 37.7655 48.535Z" fill="url(#paint10_linear_390_5793)"/>
</g>
<defs>
<linearGradient id="paint0_linear_390_5793" x1="-1.87354e-07" y1="30" x2="50.2925" y2="30" gradientUnits="userSpaceOnUse">
<stop stop-color="#223962"/>
<stop offset="0.526042" stop-color="#3277BC"/>
<stop offset="0.973958" stop-color="#48ABDF"/>
</linearGradient>
<linearGradient id="paint1_linear_390_5793" x1="5.82446" y1="18.3519" x2="23.1133" y2="18.3519" gradientUnits="userSpaceOnUse">
<stop stop-color="#223962"/>
<stop offset="0.526042" stop-color="#3277BC"/>
<stop offset="0.973958" stop-color="#48ABDF"/>
</linearGradient>
<linearGradient id="paint2_linear_390_5793" x1="25.2377" y1="12.5274" x2="34.7615" y2="12.5274" gradientUnits="userSpaceOnUse">
<stop stop-color="#223962"/>
<stop offset="0.526042" stop-color="#3277BC"/>
<stop offset="0.973958" stop-color="#48ABDF"/>
</linearGradient>
<linearGradient id="paint3_linear_390_5793" x1="25.2385" y1="18.3516" x2="40.5859" y2="18.3516" gradientUnits="userSpaceOnUse">
<stop stop-color="#223962"/>
<stop offset="0.526042" stop-color="#3277BC"/>
<stop offset="0.973958" stop-color="#48ABDF"/>
</linearGradient>
<linearGradient id="paint4_linear_390_5793" x1="25.2385" y1="22.2344" x2="40.5859" y2="22.2344" gradientUnits="userSpaceOnUse">
<stop stop-color="#223962"/>
<stop offset="0.526042" stop-color="#3277BC"/>
<stop offset="0.973958" stop-color="#48ABDF"/>
</linearGradient>
<linearGradient id="paint5_linear_390_5793" x1="25.2385" y1="26.1172" x2="34.7623" y2="26.1172" gradientUnits="userSpaceOnUse">
<stop stop-color="#223962"/>
<stop offset="0.526042" stop-color="#3277BC"/>
<stop offset="0.973958" stop-color="#48ABDF"/>
</linearGradient>
<linearGradient id="paint6_linear_390_5793" x1="5.82446" y1="35.8238" x2="15.3482" y2="35.8238" gradientUnits="userSpaceOnUse">
<stop stop-color="#223962"/>
<stop offset="0.526042" stop-color="#3277BC"/>
<stop offset="0.973958" stop-color="#48ABDF"/>
</linearGradient>
<linearGradient id="paint7_linear_390_5793" x1="5.82446" y1="41.6484" x2="21.1718" y2="41.6484" gradientUnits="userSpaceOnUse">
<stop stop-color="#223962"/>
<stop offset="0.526042" stop-color="#3277BC"/>
<stop offset="0.973958" stop-color="#48ABDF"/>
</linearGradient>
<linearGradient id="paint8_linear_390_5793" x1="5.82446" y1="45.5303" x2="21.1718" y2="45.5303" gradientUnits="userSpaceOnUse">
<stop stop-color="#223962"/>
<stop offset="0.526042" stop-color="#3277BC"/>
<stop offset="0.973958" stop-color="#48ABDF"/>
</linearGradient>
<linearGradient id="paint9_linear_390_5793" x1="5.82446" y1="49.4141" x2="15.3482" y2="49.4141" gradientUnits="userSpaceOnUse">
<stop stop-color="#223962"/>
<stop offset="0.526042" stop-color="#3277BC"/>
<stop offset="0.973958" stop-color="#48ABDF"/>
</linearGradient>
<linearGradient id="paint10_linear_390_5793" x1="23.297" y1="41.6484" x2="40.5859" y2="41.6484" gradientUnits="userSpaceOnUse">
<stop stop-color="#223962"/>
<stop offset="0.526042" stop-color="#3277BC"/>
<stop offset="0.973958" stop-color="#48ABDF"/>
</linearGradient>
<clipPath id="clip0_390_5793">
<rect width="50.2925" height="60" fill="white"/>
</clipPath>
</defs>
</svg>
