<svg width="60" height="60" viewBox="0 0 60 60" fill="none" xmlns="http://www.w3.org/2000/svg">
<g clip-path="url(#clip0_343_5557)">
<path d="M51.2133 8.78672C45.5473 3.1207 38.0133 0 30 0C27.2027 0 24.4324 0.385547 21.7664 1.14492C21.2484 1.29258 20.9473 1.83281 21.0949 2.35078C21.2426 2.86875 21.7816 3.16992 22.3008 3.02227C24.7933 2.31211 27.3832 1.95234 30 1.95234C37.4918 1.95234 44.5359 4.87031 49.8328 10.1672C55.1308 15.4652 58.0476 22.5082 58.0476 30C58.0476 40.3465 52.3793 49.8199 43.2551 54.723C42.7805 54.9785 42.6023 55.5703 42.8566 56.0449C43.0324 56.373 43.3699 56.5594 43.7168 56.5594C43.8726 56.5594 44.0308 56.5219 44.1773 56.4434C53.9355 51.2004 59.9976 41.0672 59.9976 30.0012C59.9976 21.9879 56.8769 14.4539 51.2109 8.78789L51.2133 8.78672Z" fill="url(#paint0_linear_343_5557)"/>
<path d="M42.3199 11.8082C38.6777 9.33672 34.4179 8.03125 30.0011 8.03125C17.8875 8.03125 8.03198 17.8867 8.03198 30.0004C8.03198 34.4172 9.33862 38.677 11.8089 42.3191C11.973 42.5605 12.2343 42.7152 12.525 42.7434C12.5554 42.7457 12.5871 42.748 12.6175 42.748C12.8753 42.748 13.1238 42.6461 13.3078 42.4621L42.464 13.3059C42.6703 13.0996 42.7734 12.8137 42.7453 12.523C42.7183 12.2336 42.5625 11.9711 42.321 11.8082H42.3199ZM12.7863 40.2215C10.9488 37.1359 9.98315 33.6262 9.98315 30.0004C9.98315 18.9625 18.9632 9.98359 30 9.98359C33.6257 9.98359 37.1355 10.9492 40.221 12.7867L12.7863 40.2215Z" fill="url(#paint1_linear_343_5557)"/>
<path d="M39.552 56.3785C36.4934 57.4859 33.2801 58.0484 30 58.0484C22.5082 58.0484 15.4652 55.1304 10.1672 49.8336C4.86914 44.5355 1.95234 37.4925 1.95234 30.0007C1.95234 24.5187 3.5332 19.2089 6.52617 14.6457C9.44297 10.1961 13.5352 6.68043 18.3609 4.47613C18.8508 4.2523 19.0676 3.6734 18.8438 3.18238C18.6199 2.69254 18.041 2.47574 17.55 2.69957C12.3891 5.05738 8.01211 8.81793 4.89258 13.5746C1.69219 18.4566 0 24.1367 0 29.9996C0 38.0129 3.1207 45.5468 8.78672 51.2128C14.4527 56.8789 21.9867 59.9996 30 59.9996C33.5074 59.9996 36.9457 59.3984 40.2176 58.2136C40.7238 58.0296 40.9863 57.4707 40.8023 56.9632C40.6184 56.4558 40.0594 56.1945 39.552 56.3785Z" fill="url(#paint2_linear_343_5557)"/>
<path d="M17.2571 47.4773C17.2852 47.7667 17.4399 48.0292 17.6813 48.1933C21.3235 50.6648 25.5832 51.9702 30 51.9702C42.1137 51.9702 51.9692 42.1148 51.9692 30.0011C51.9692 25.5843 50.6625 21.3234 48.1922 17.6823C48.0293 17.4409 47.7668 17.2863 47.4762 17.2581C47.1868 17.2312 46.8997 17.3343 46.6934 17.5394L17.5371 46.6956C17.3309 46.9019 17.2278 47.1878 17.2559 47.4784L17.2571 47.4773ZM47.2149 19.78C49.0512 22.8655 50.018 26.3753 50.018 30.0011C50.018 41.039 41.0379 50.0179 30.0012 50.0179C26.3754 50.0179 22.8657 49.0523 19.7801 47.2148L47.2161 19.78H47.2149Z" fill="url(#paint3_linear_343_5557)"/>
</g>
<defs>
<linearGradient id="paint0_linear_343_5557" x1="21.0574" y1="28.2797" x2="59.9976" y2="28.2797" gradientUnits="userSpaceOnUse">
<stop stop-color="#223962"/>
<stop offset="0.526042" stop-color="#3277BC"/>
<stop offset="0.973958" stop-color="#48ABDF"/>
</linearGradient>
<linearGradient id="paint1_linear_343_5557" x1="8.03198" y1="25.3897" x2="42.7498" y2="25.3897" gradientUnits="userSpaceOnUse">
<stop stop-color="#223962"/>
<stop offset="0.526042" stop-color="#3277BC"/>
<stop offset="0.973958" stop-color="#48ABDF"/>
</linearGradient>
<linearGradient id="paint2_linear_343_5557" x1="-1.52219e-07" y1="31.3055" x2="40.8611" y2="31.3055" gradientUnits="userSpaceOnUse">
<stop stop-color="#223962"/>
<stop offset="0.526042" stop-color="#3277BC"/>
<stop offset="0.973958" stop-color="#48ABDF"/>
</linearGradient>
<linearGradient id="paint3_linear_343_5557" x1="17.2513" y1="34.6121" x2="51.9692" y2="34.6121" gradientUnits="userSpaceOnUse">
<stop stop-color="#223962"/>
<stop offset="0.526042" stop-color="#3277BC"/>
<stop offset="0.973958" stop-color="#48ABDF"/>
</linearGradient>
<clipPath id="clip0_343_5557">
<rect width="60" height="60" fill="white"/>
</clipPath>
</defs>
</svg>
