<svg width="57" height="60" viewBox="0 0 57 60" fill="none" xmlns="http://www.w3.org/2000/svg">
<g clip-path="url(#clip0_343_5157)">
<path d="M55.9367 41.8937C55.6186 41.1247 54.8741 40.6281 54.0418 40.6281H51.6152V32.9843C51.6152 31.8532 50.695 30.9338 49.5647 30.9338H47.2892C47.7471 30.3458 47.8614 29.5557 47.5705 28.8543C47.2461 28.0712 46.4885 27.565 45.6413 27.565H43.1092V12.9708C43.1092 12.4857 42.7154 12.0919 42.2303 12.0919C41.7451 12.0919 41.3513 12.4857 41.3513 12.9708V28.4439C41.3513 28.9291 41.7451 29.3228 42.2303 29.3228H45.6413C45.8337 29.3228 45.9155 29.4502 45.9463 29.5267C45.9779 29.6032 46.0104 29.7508 45.8742 29.8871L36.3161 39.4451C36.1869 39.5743 35.9769 39.5743 35.8485 39.4451L26.2905 29.8871C26.1543 29.7508 26.1877 29.6032 26.2184 29.5267C26.2501 29.4502 26.3318 29.3228 26.5234 29.3228H29.9344C30.4196 29.3228 30.8133 28.9291 30.8133 28.4439V2.08827C30.8133 1.90634 30.9619 1.7578 31.1438 1.7578H41.02C41.2019 1.7578 41.3505 1.90634 41.3505 2.08827V8.86373C41.3505 9.34888 41.7442 9.74263 42.2294 9.74263C42.7145 9.74263 43.1083 9.34888 43.1083 8.86373V2.08827C43.1083 0.936909 42.1714 0 41.02 0H31.1438C29.9924 0 29.0555 0.936909 29.0555 2.08827V17.5359C28.9588 17.5218 28.8604 17.5148 28.7611 17.5148H26.3353V4.01219C26.3353 2.88104 25.4151 1.96171 24.2848 1.96171H14.7153C13.5842 1.96171 12.6649 2.88192 12.6649 4.01219V7.49528H6.52837C5.39723 7.49528 4.47789 8.41549 4.47789 9.54575V27.1256C4.47789 27.6107 4.87164 28.0045 5.3568 28.0045C5.84195 28.0045 6.2357 27.6107 6.2357 27.1256V9.54663C6.2357 9.38492 6.36753 9.25396 6.52837 9.25396H12.6649V17.5156H10.2391C9.40678 17.5156 8.66323 18.0122 8.34418 18.7813C8.02514 19.5503 8.19917 20.4274 8.78803 21.0163L15.9933 28.2207C11.9143 31.4955 9.29691 36.521 9.29691 42.1469C9.29691 45.6308 10.3006 48.8845 12.0338 51.6346L11.5205 52.1479C11.4458 52.2226 11.3588 52.2331 11.314 52.2331C11.2692 52.2331 11.1813 52.2217 11.1066 52.147L1.8447 42.8851C1.72429 42.7647 1.7533 42.6338 1.78142 42.5661C1.80955 42.4984 1.88162 42.385 2.05213 42.385H5.35768C5.84283 42.385 6.23658 41.9913 6.23658 41.5061V31.2327C6.23658 30.7475 5.84283 30.3538 5.35768 30.3538C4.87252 30.3538 4.47877 30.7475 4.47877 31.2327V40.6272H2.05213C1.21981 40.6272 0.476254 41.1238 0.157213 41.8929C-0.16095 42.6619 0.0130726 43.539 0.601937 44.1279L9.86381 53.3898C10.2514 53.7774 10.7664 53.9901 11.314 53.9901C11.8615 53.9901 12.3766 53.7765 12.7642 53.3898L13.0595 53.0953C16.329 57.2939 21.4302 59.9991 27.1509 59.9991C33.3322 59.9991 38.7894 56.8412 41.9947 52.0538L43.3306 53.3898C43.7182 53.7774 44.2333 53.9901 44.7808 53.9901C45.3284 53.9901 45.8434 53.7765 46.231 53.3898L55.4929 44.1279C56.0817 43.539 56.2558 42.6619 55.9376 41.8929L55.9367 41.8937ZM35.1314 41.0693C35.1788 41.4244 35.2043 41.7856 35.2043 42.1469C35.2043 46.588 31.5911 50.2011 27.1501 50.2011C22.709 50.2011 19.0958 46.588 19.0958 42.1469C19.0958 37.7058 22.709 34.0926 27.1501 34.0926C27.4243 34.0926 27.702 34.1067 27.9745 34.1339C28.0017 34.1366 28.029 34.1374 28.0562 34.1383L34.6058 40.6879C34.764 40.8461 34.9415 40.9726 35.1305 41.0693H35.1314ZM29.0564 24.3948C28.4253 24.328 27.7864 24.2937 27.1501 24.2937C27.0771 24.2937 27.005 24.2955 26.9321 24.2964L29.0573 22.1712V24.3948H29.0564ZM10.0317 19.7735C9.91127 19.6531 9.94027 19.5213 9.9684 19.4536C9.99652 19.3859 10.0686 19.2726 10.2391 19.2726H13.5438C14.0289 19.2726 14.4227 18.8788 14.4227 18.3937V4.01219C14.4227 3.85047 14.5545 3.71951 14.7153 3.71951H24.2848C24.4465 3.71951 24.5775 3.85135 24.5775 4.01219V18.3937C24.5775 18.8788 24.9713 19.2726 25.4564 19.2726H28.7611C28.9316 19.2726 29.0037 19.3859 29.0318 19.4536C29.0599 19.5213 29.0889 19.6522 28.9685 19.7727L24.2049 24.5381C21.7422 24.9485 19.4482 25.8643 17.4347 27.1756L10.0317 19.7727V19.7735ZM27.1501 58.2422C18.2749 58.2422 11.0547 51.022 11.0547 42.1469C11.0547 33.2717 18.2749 26.0515 27.1501 26.0515C27.7873 26.0515 28.4271 26.0911 29.0564 26.1658V27.565H26.5243C25.9961 27.565 25.503 27.7619 25.1277 28.0994C22.1148 28.5292 19.3735 29.8879 17.1921 32.0369C16.8458 32.3779 16.8423 32.9342 17.1824 33.2796C17.3547 33.4545 17.5814 33.5415 17.8082 33.5415C18.035 33.5415 18.2538 33.4572 18.4252 33.2884C20.1144 31.6246 22.186 30.5014 24.465 30.0031C24.5362 30.4206 24.7331 30.8152 25.0468 31.1298L26.2905 32.3735C21.2807 32.8103 17.3371 37.0264 17.3371 42.1469C17.3371 47.5574 21.7387 51.9589 27.1492 51.9589C32.5597 51.9589 36.9612 47.5574 36.9612 42.1469C36.9612 41.8067 36.9419 41.4657 36.9067 41.1282C37.1432 41.0271 37.3655 40.8812 37.5589 40.6879L39.1954 39.0514C39.4529 40.0577 39.5839 41.0948 39.5839 42.146C39.5839 49.0023 34.0064 54.5798 27.1501 54.5798C20.2937 54.5798 14.7162 49.0023 14.7162 42.146C14.7162 40.1289 15.211 38.1259 16.1462 36.3523C16.373 35.9234 16.2086 35.3916 15.7788 35.1649C15.3499 34.9381 14.8182 35.1025 14.5914 35.5322C13.5227 37.5572 12.9575 39.8441 12.9575 42.146C12.9575 49.9717 19.3243 56.3376 27.1492 56.3376C34.974 56.3376 41.3408 49.9708 41.3408 42.146C41.3408 40.6026 41.0938 39.0865 40.6087 37.6372L42.0923 36.1536C42.8569 38.0547 43.2445 40.0656 43.2445 42.146C43.2445 51.0211 36.0243 58.2413 27.1492 58.2413L27.1501 58.2422ZM54.2492 42.886L44.9874 52.1479C44.9127 52.2226 44.8256 52.234 44.7799 52.234C44.7342 52.234 44.6472 52.2226 44.5725 52.1479L42.9237 50.5C44.2491 48.0065 45.0023 45.1633 45.0023 42.1477C45.0023 39.5901 44.4732 37.1257 43.4308 34.8168L45.556 32.6916H49.5647C49.7264 32.6916 49.8574 32.8235 49.8574 32.9843V41.507C49.8574 41.9922 50.2511 42.3859 50.7363 42.3859H54.0418C54.2123 42.3859 54.2844 42.4993 54.3125 42.567C54.3406 42.6347 54.3696 42.7656 54.2492 42.886Z" fill="url(#paint0_linear_343_5157)"/>
<path d="M27.1502 38.4846C28.0282 38.4846 28.7981 38.9943 28.7981 39.5753C28.7981 40.0604 29.1919 40.4542 29.677 40.4542C30.1622 40.4542 30.5559 40.0604 30.5559 39.5753C30.5559 38.2587 29.4828 37.1486 28.0291 36.8234V36.1133C28.0291 35.6281 27.6353 35.2344 27.1502 35.2344C26.665 35.2344 26.2713 35.6281 26.2713 36.1133V36.8234C24.8184 37.1486 23.7444 38.2587 23.7444 39.5753C23.7444 41.5124 25.6446 42.0089 27.0324 42.3728C28.8201 42.8404 29.4151 43.141 29.4151 43.9961C29.4151 44.8513 28.378 45.5685 27.1502 45.5685C25.9223 45.5685 24.8852 44.8487 24.8852 43.9961C24.8852 43.511 24.4915 43.1172 24.0063 43.1172C23.5212 43.1172 23.1274 43.511 23.1274 43.9961C23.1274 45.5826 24.4748 46.9123 26.2713 47.2446V47.9398C26.2713 48.4249 26.665 48.8187 27.1502 48.8187C27.6353 48.8187 28.0291 48.4249 28.0291 47.9398V47.2446C29.8256 46.9115 31.1729 45.5817 31.1729 43.9961C31.1729 42.9327 30.7097 42.103 29.7974 41.5308C29.1092 41.0993 28.2796 40.8822 27.478 40.6721C25.8011 40.2336 25.5031 40.0033 25.5031 39.5753C25.5031 38.9943 26.273 38.4846 27.1511 38.4846H27.1502Z" fill="url(#paint1_linear_343_5157)"/>
</g>
<defs>
<linearGradient id="paint0_linear_343_5157" x1="0.000243932" y1="29.9996" x2="56.0946" y2="29.9996" gradientUnits="userSpaceOnUse">
<stop stop-color="#223962"/>
<stop offset="0.526042" stop-color="#3277BC"/>
<stop offset="0.973958" stop-color="#48ABDF"/>
</linearGradient>
<linearGradient id="paint1_linear_343_5157" x1="23.1274" y1="42.0265" x2="31.1729" y2="42.0265" gradientUnits="userSpaceOnUse">
<stop stop-color="#223962"/>
<stop offset="0.526042" stop-color="#3277BC"/>
<stop offset="0.973958" stop-color="#48ABDF"/>
</linearGradient>
<clipPath id="clip0_343_5157">
<rect width="56.0933" height="60" fill="white"/>
</clipPath>
</defs>
</svg>
