<svg width="60" height="60" viewBox="0 0 60 60" fill="none" xmlns="http://www.w3.org/2000/svg">
<g clip-path="url(#clip0_390_5966)">
<path d="M56.1908 24.6681H54.8944V12.4804C54.8944 11.0311 53.7185 9.85161 52.2709 9.8437L50.1361 7.70885C49.4171 6.98991 48.46 6.59352 47.4431 6.59352C46.4262 6.59352 45.4691 6.98991 44.7501 7.70885L42.2426 10.2164C40.1025 8.88834 37.7805 7.92594 35.3327 7.35201V3.80828C35.3327 1.70859 33.6241 0 31.5244 0H28.4773C26.3776 0 24.669 1.70859 24.669 3.80828V7.35201C23.849 7.54449 23.0334 7.78356 22.2406 8.06392C21.7827 8.22564 21.5427 8.72838 21.7053 9.1854C21.8671 9.64331 22.3698 9.88325 22.8268 9.72066C23.6547 9.42798 24.5082 9.18453 25.3651 8.99644C25.9909 8.85933 26.4277 8.31793 26.4277 7.67984V3.80828C26.4277 2.67714 27.3479 1.7578 28.4782 1.7578H31.5253C32.6565 1.7578 33.5758 2.67801 33.5758 3.80828V7.67984C33.5758 8.31793 34.0126 8.85933 34.6375 8.99644C37.1063 9.53872 39.4389 10.5055 41.572 11.8713C41.7988 12.0163 42.0528 12.0875 42.3042 12.0875C42.6505 12.0875 42.9923 11.9531 43.2543 11.6912L45.9938 8.95162C46.3814 8.56402 46.8964 8.35133 47.444 8.35133C47.9915 8.35133 48.5066 8.5649 48.8942 8.95162L50.4797 10.5363C49.9532 11.0188 49.6228 11.7114 49.6228 12.4795V13.2108C49.1324 13.768 47.6989 15.3008 45.2924 17.092C44.8372 17.4304 44.3309 17.7907 43.7737 18.1625C40.3143 14.1371 35.3248 11.8397 30.0013 11.8397C19.988 11.8397 11.8423 19.9862 11.8423 29.9987C11.8423 37.0703 15.9055 43.2095 21.8196 46.2074C21.8442 46.2232 21.8688 46.239 21.8961 46.2522C23.8516 47.2304 25.9355 47.8351 28.1046 48.0592C28.1275 48.0619 28.1503 48.0645 28.1732 48.0663C28.291 48.0777 28.4087 48.0882 28.5274 48.0979C28.5731 48.1014 28.6179 48.1049 28.6636 48.1085C28.7673 48.1164 28.8719 48.1225 28.9765 48.1287C29.0327 48.1322 29.0881 48.1348 29.1444 48.1375C29.1918 48.1401 29.2393 48.1427 29.2859 48.1445C29.2973 48.1445 29.3087 48.1445 29.3201 48.1445C29.3254 48.1445 29.3307 48.1445 29.336 48.1445C29.5566 48.1524 29.7781 48.1577 30.0013 48.1577C35.2703 48.1577 40.2273 45.898 43.6823 41.9394C44.2773 42.3306 44.8178 42.7067 45.2995 43.0574C47.6874 44.7985 49.1192 46.2557 49.6228 46.7998V47.5178C49.6228 48.286 49.9532 48.9786 50.4797 49.4611L48.8951 51.0457C48.0953 51.8455 46.7945 51.8455 45.9947 51.0457L43.2551 48.3062C42.8043 47.8553 42.1117 47.7806 41.5729 48.1269C39.4398 49.4918 37.1063 50.4595 34.6375 51.0018C34.0126 51.1398 33.5758 51.6812 33.5758 52.3184V56.19C33.5758 57.3211 32.6556 58.2404 31.5253 58.2404H28.4782C27.347 58.2404 26.4277 57.3202 26.4277 56.19V52.3184C26.4277 51.6812 25.9909 51.1398 25.366 51.0018C22.8971 50.4595 20.5636 49.4927 18.4314 48.1278C17.8927 47.7824 17.201 47.8562 16.7492 48.3071L14.0097 51.0466C13.2099 51.8464 11.9091 51.8464 11.1093 51.0466L8.95511 48.8924C8.56751 48.5048 8.35482 47.9898 8.35482 47.4422C8.35482 46.8947 8.56839 46.3797 8.95511 45.9921L11.6946 43.2525C12.1455 42.8016 12.2194 42.11 11.8748 41.5703C10.5099 39.4372 9.54222 37.1046 8.99993 34.6358C8.86282 34.0109 8.32142 33.5741 7.68334 33.5741H3.81177C2.68063 33.5741 1.7613 32.6538 1.7613 31.5236V28.4764C1.7613 27.3453 2.68151 26.4259 3.81177 26.4259H7.68334C8.32142 26.4259 8.86282 25.9891 8.99993 25.3642C9.54222 22.8954 10.509 20.5619 11.8748 18.4297C12.2202 17.89 12.1464 17.1984 11.6946 16.7475L8.95511 14.0079C8.56751 13.6203 8.35482 13.1053 8.35482 12.5578C8.35482 12.0102 8.56839 11.4952 8.95511 11.1076L11.1093 8.95337C11.9091 8.15357 13.2099 8.15357 14.0097 8.95337L16.7501 11.6938C17.2018 12.1447 17.8935 12.2185 18.4323 11.8731C18.7118 11.6947 18.9974 11.5206 19.2813 11.3572C19.7014 11.1146 19.8465 10.5776 19.6039 10.1566C19.3613 9.73647 18.8243 9.59146 18.4033 9.83403C18.1889 9.95708 17.9744 10.0863 17.7617 10.2181L15.2542 7.71061C13.7689 6.22614 11.3528 6.22526 9.86829 7.71061L7.7141 9.86479C6.99428 10.5837 6.59877 11.5409 6.59877 12.5578C6.59877 13.5746 6.99516 14.5318 7.7141 15.2507L10.2216 17.7582C8.89359 19.8983 7.93119 22.2204 7.35726 24.669H3.81353C1.71383 24.669 0.00524902 26.3776 0.00524902 28.4773V31.5245C0.00524902 33.6241 1.71383 35.3327 3.81353 35.3327H7.35726C7.93119 37.7814 8.89359 40.1025 10.2216 42.2427L7.7141 44.7502C6.99516 45.4691 6.59877 46.4262 6.59877 47.4431C6.59877 48.46 6.99516 49.4171 7.7141 50.1361L9.86829 52.2903C11.3536 53.7747 13.7697 53.7747 15.2542 52.2903L17.7617 49.7828C19.9018 51.1108 22.2239 52.0741 24.6725 52.6471V56.1908C24.6725 58.2905 26.3811 59.9991 28.4808 59.9991H31.5279C33.6276 59.9991 35.3362 58.2905 35.3362 56.1908V52.6471C37.7849 52.0732 40.106 51.1108 42.2462 49.7828L44.7537 52.2903C46.2381 53.7747 48.6551 53.7747 50.1396 52.2903L52.2744 50.1554C53.722 50.1484 54.898 48.9689 54.898 47.5187V45.6185C54.898 45.1334 54.5042 44.7396 54.0191 44.7396C53.5339 44.7396 53.1401 45.1334 53.1401 45.6185V47.5187C53.1401 48.003 52.7455 48.3976 52.2612 48.3976C51.777 48.3976 51.3823 48.003 51.3823 47.5187V12.4804C51.3823 11.9961 51.777 11.6015 52.2612 11.6015C52.7455 11.6015 53.1401 11.9961 53.1401 12.4804V41.4358C53.1401 41.921 53.5339 42.3147 54.0191 42.3147C54.5042 42.3147 54.898 41.921 54.898 41.4358V35.3319H56.1943C58.294 35.3319 60.0026 33.6233 60.0026 31.5236V28.4764C60.0026 26.3767 58.294 24.6681 56.1943 24.6681H56.1908ZM13.5983 30.0004C13.5983 20.9565 20.9556 13.5992 29.9995 13.5992C34.7219 13.5992 39.1533 15.6031 42.2708 19.1205C39.7096 20.6718 36.3426 22.3224 32.1854 23.5704C31.7855 22.6326 30.8547 21.9743 29.7728 21.9743H25.0707C20.6445 21.9743 17.0436 25.5752 17.0436 30.0013C17.0436 33.1091 18.819 35.81 21.4091 37.1433V43.9662C16.7264 41.0746 13.5992 35.897 13.5992 30.0004H13.5983ZM34.148 37.1459C34.1603 37.2514 34.1673 37.3577 34.1673 37.465C34.1673 38.9187 32.9843 40.1017 31.5306 40.1017C31.0569 40.1017 30.6007 39.9769 30.1982 39.7396V37.9932C31.0859 37.8482 31.825 37.2558 32.1757 36.4551C32.8542 36.6775 33.5125 36.9086 34.148 37.1459ZM23.167 44.9093V37.7998C23.7778 37.9492 24.415 38.0283 25.0707 38.0283H28.4404V46.3278C26.5745 46.1511 24.7991 45.6607 23.167 44.9093ZM30.6376 24.6796V35.4066C30.6376 35.8829 30.25 36.2705 29.7737 36.2705H25.0715C21.6148 36.2705 18.8023 33.458 18.8023 30.0013C18.8023 26.5446 21.6148 23.7321 25.0715 23.7321H29.7737C30.25 23.7321 30.6376 24.1197 30.6376 24.5961V24.6796ZM30.1982 46.3999V41.6547C30.6253 41.79 31.0727 41.8603 31.5306 41.8603C33.8272 41.8603 35.7159 40.0894 35.9075 37.842C38.3526 38.8606 40.4418 39.9566 42.1706 40.9937C39.1032 44.3907 34.7887 46.3454 30.1973 46.3999H30.1982ZM46.3937 41.6837C43.5777 39.6227 38.8923 36.7645 32.3945 34.678V25.3431C38.894 23.4386 43.5821 20.5663 46.4007 18.4596C47.7762 17.4313 48.8458 16.4891 49.621 15.7438V44.3265C48.845 43.6094 47.7736 42.6944 46.3937 41.6837ZM58.2422 31.5245C58.2422 32.6556 57.322 33.5749 56.1917 33.5749H54.8953V26.4268H56.1917C57.3228 26.4268 58.2422 27.347 58.2422 28.4773V31.5245Z" fill="url(#paint0_linear_390_5966)"/>
</g>
<defs>
<linearGradient id="paint0_linear_390_5966" x1="0.0052488" y1="29.9996" x2="60.0026" y2="29.9996" gradientUnits="userSpaceOnUse">
<stop stop-color="#223962"/>
<stop offset="0.526042" stop-color="#3277BC"/>
<stop offset="0.973958" stop-color="#48ABDF"/>
</linearGradient>
<clipPath id="clip0_390_5966">
<rect width="60" height="60" fill="white"/>
</clipPath>
</defs>
</svg>
