<svg version="1.2" xmlns="http://www.w3.org/2000/svg" viewBox="0 0 239 51" width="239" height="51">
	<title>microsoft,60 (1)-svg</title>
	<style>
		.s0 { fill: #737373 } 
		.s1 { fill: #f25022 } 
		.s2 { fill: #7fba00 } 
		.s3 { fill: #00a4ef } 
		.s4 { fill: #ffb900 } 
	</style>
	<path id="Layer" fill-rule="evenodd" class="s0" d="m92.2 10.2h7.2v30.6h-5.2v-19.4c0-1.3 0.1-3.3 0.2-5.5h-0.1c-0.2 0.8-0.4 1.9-0.6 2.4l-9.1 22.5h-3.5l-9.2-22.3c-0.2-0.6-0.5-1.4-0.7-2.6h-0.1c0 0.4 0.1 1.1 0.1 1.9 0.1 1.7 0.1 3 0.1 4.2v18.9h-5v-30.6h7.5l7.6 19.2c0.8 1.6 1.2 3 1.4 3.9h0.2l1.4-4zm12.2 8.6h5.1v22h-5.1zm4.8-8.4q0.9 0.9 0.9 2.1 0 1.3-0.9 2.1c-0.6 0.5-1.4 0.8-2.2 0.8q-1.3 0-2.2-0.8-0.9-0.8-0.9-2.1 0-1.3 0.9-2.1c0.6-0.6 1.3-0.9 2.2-0.9 0.9 0 1.6 0.3 2.2 0.9zm21 9v5l-0.1-0.1c-1.6-1.1-3.3-1.7-5-1.7q-2.9 0-4.8 2-1.8 1.9-1.8 5.3 0 3.3 1.8 5.2c1.1 1.3 2.7 1.9 4.8 1.9q1.1 0 2.5-0.5c0.8-0.2 1.7-0.7 2.5-1.3l0.1-0.1v4.7 0.1c-1.7 0.9-3.8 1.4-6.2 1.4q-3.2 0-5.7-1.4c-1.7-0.9-2.9-2.2-3.8-3.9-1-1.7-1.4-3.5-1.4-5.6q0-3.7 1.4-6.4c0.9-1.8 2.3-3.2 4.1-4.2 1.8-1 3.9-1.6 6.3-1.6 0.9 0 1.9 0.2 2.9 0.4 1 0.2 1.7 0.5 2.4 0.8zm16.5-0.6h0.1v5.1l-0.2-0.1q-0.4-0.3-1.2-0.5c-0.6-0.1-1.1-0.2-1.6-0.2q-2 0-3.3 1.8c-0.9 1.1-1.3 2.7-1.3 4.6v11.2h-5.1v-21.9h5.1v3.8h0.1c0.5-1.2 1.1-2.3 2-3 1-0.8 2.2-1.2 3.4-1.2 0.9 0 1.6 0.1 2 0.4zm20 2.5q2.9 3 2.9 8.3c0 3.5-1 6.3-3 8.5-2 2.1-4.8 3.2-8.4 3.2-3.3 0-6-1.1-8-3-2-2-3-4.8-3-8.2 0-3.7 1-6.6 3-8.7 2.1-2 4.9-3.1 8.5-3.1 3.4 0 6.2 1 8 3zm-2.3 8.4c0-2.4-0.6-4.1-1.6-5.4q-1.6-1.8-4.3-1.8-2.8 0-4.4 1.9c-1 1.3-1.6 3.1-1.6 5.4 0 2.3 0.5 4 1.6 5.3 1.1 1.3 2.6 1.9 4.4 1.9 1.9 0 3.4-0.6 4.4-1.9 0.9-1.2 1.4-3 1.5-5.4zm21.3 0.9c0.9 1 1.3 2.3 1.3 3.8 0 2-0.8 3.7-2.4 4.9-1.6 1.3-3.7 1.9-6.4 1.9-0.9 0-1.8-0.1-3-0.3-1.1-0.3-2-0.5-2.7-0.9h-0.1v-5.1l0.2 0.2c0.8 0.6 1.8 1.1 2.8 1.5 1.1 0.3 2 0.5 2.9 0.5q3.4 0 3.4-2.2-0.1-0.8-0.4-1.2c-0.2-0.3-0.6-0.7-1.1-1-0.6-0.3-1.5-0.7-2.7-1.2-1.4-0.6-2.5-1.2-3.2-1.8-0.7-0.6-1.2-1.3-1.5-2q-0.6-1.2-0.6-2.7c0-2 0.8-3.6 2.4-4.9 1.6-1.3 3.6-1.9 6-1.9 0.7 0 1.6 0.1 2.6 0.3q1.4 0.3 2.3 0.7h0.1v4.8l-0.2-0.1c-0.6-0.5-1.4-0.9-2.3-1.1-0.8-0.2-1.8-0.4-2.6-0.4-1 0-1.7 0.2-2.3 0.6-0.6 0.4-0.8 1-0.8 1.6q0 1 0.6 1.6c0.5 0.5 1.5 1 3.1 1.7 2.1 0.8 3.5 1.7 4.6 2.7zm22.9-9.3q2.9 3 2.9 8.3c0 3.5-1 6.3-3.1 8.5-2 2.1-4.8 3.2-8.3 3.2-3.4 0-6.1-1.1-8.1-3-2-2-3-4.8-3-8.2q0-5.5 3.1-8.7c2-2 4.9-3.1 8.5-3.1 3.4 0 6.1 1 8 3zm-2.4 8.4c0-2.4-0.6-4.1-1.6-5.4-1.1-1.2-2.5-1.8-4.3-1.8q-2.8 0-4.4 1.9c-1 1.3-1.6 3.1-1.6 5.4 0 2.3 0.5 4 1.6 5.3 1.1 1.3 2.5 1.9 4.4 1.9 1.9 0 3.4-0.6 4.4-1.9 0.9-1.2 1.5-3 1.5-5.4zm27.5-6.7v10.4c0 1.3 0.2 2.2 0.7 2.8 0.5 0.6 1.2 0.8 2.3 0.8q0.4 0 1-0.2c0.5-0.1 0.7-0.2 1.1-0.4l0.2-0.2v4.2l-0.1 0.1c-0.3 0.1-0.8 0.3-1.6 0.5-0.7 0.1-1.5 0.2-2.2 0.2q-6.5 0-6.5-6.9v-11.3h-7.8v17.7h-5.1v-17.7h-3.6v-4.2h3.6v-3.1q0-2.3 1-4.1c0.7-1.2 1.6-2.1 2.8-2.8 1.2-0.6 2.6-0.9 4.1-0.9 1.2 0 2.2 0.1 2.9 0.4h0.1v4.5l-0.2-0.1q-1.2-0.6-2.3-0.6c-1 0-1.8 0.4-2.4 1-0.5 0.6-0.9 1.6-0.9 2.9v2.8h7.8v-5h0.1l4.9-1.5h0.2v6.5h5.2v4.2z"/>
	<path id="Layer" class="s1" d="m0 0h24.3v24.3h-24.3z"/>
	<path id="Layer" class="s2" d="m26.8 0h24.3v24.3h-24.3z"/>
	<path id="Layer" class="s3" d="m0 26.8h24.3v24.3h-24.3z"/>
	<path id="Layer" class="s4" d="m26.8 26.8h24.3v24.3h-24.3z"/>
</svg>