<svg version="1.2" xmlns="http://www.w3.org/2000/svg" viewBox="0 0 114 21" width="114" height="21">
	<title>incortasvg,102-svg</title>
	<style>
		.s0 { fill: #ff6600 } 
	</style>
	<path id="Layer" fill-rule="evenodd" class="s0" d="m17.8 8.9l-5 11.6h-2.7l-4.9-11.6v11.6h-5.2v-20.1h6.9l4.7 11.4 5-11.4h6.4v20.1h-5.2zm9.1 11.7v-20.2h4.4c0.4 0 0.8 0.4 0.8 0.8v19.4zm26.1-11.6c0.5 0 0.8 0.4 0.8 0.9v10.4c-1.9 0.4-4.7 0.7-6.9 0.7-7.5 0-11.4-3.6-11.4-10.5 0-6.2 3.9-10.5 10.5-10.5 2.9 0 5.5 0.8 7.1 1.9l-2 3.5c-1.4-0.6-3.3-1.1-4.7-1.1-3.8 0-5.6 2.5-5.6 6.2 0 3.9 2.1 6.3 5.9 6.3 0.7 0 1.5 0 2.2-0.1v-3.6h-2.5v-4.1zm16.2 11.6l-2.4-5.6c-0.5-1.1-0.9-1.7-1.9-1.7h-2.1v7.3h-5.1v-19.4c0-0.4 0.5-0.8 0.8-0.8h7.2c3.8 0 7.2 0.8 7.2 5.9 0 2.2-1.2 4.5-3.6 5 1.2 0.4 2.4 1.9 3 3.5l2.3 5.8h-5.4zm-3.9-16.3h-2.5v5.1h2.5c1.6 0 2.7-0.8 2.7-2.7 0-2-1.1-2.4-2.7-2.4zm20.5 16.7c-6.6 0-10.1-4.7-10.1-10.5 0-5.8 3.5-10.4 10.1-10.4 6.2 0 9.7 4.6 9.7 10.4 0 5.8-3.5 10.5-9.7 10.5zm0-16.7c-2.7 0-4.7 2-4.7 6.2 0 4.3 2 6.2 4.7 6.2 2.3 0 4.2-1.9 4.2-6.2 0-4.2-1.9-6.2-4.2-6.2zm19.6 16.7c-3.4 0-6.6-1.2-8-2.2l2.3-4.1c1.3 0.8 3.8 2 6.1 2 1.3 0 2.9-0.2 2.9-1.7 0-1.3-1.8-1.8-4.2-2.5-2.9-0.8-6.3-1.9-6.3-5.9 0-4.2 3.8-6.5 8.6-6.5 3.2 0 5.8 1.1 7 2.3l-2.8 3.2c-1.4-0.8-2.8-1.5-4.4-1.5-1.9 0-3 0.8-3 1.8 0 1.1 1.4 1.6 3.2 2.1 3 1 7.3 1.9 7.3 6-0.1 4.1-3.4 7-8.7 7z"/>
</svg>