<svg width="35" height="60" viewBox="0 0 35 60" fill="none" xmlns="http://www.w3.org/2000/svg">
<path fill-rule="evenodd" clip-rule="evenodd" d="M4.39453 0H30.1758C32.5992 0 34.5703 1.97109 34.5703 4.39453V55.6055C34.5703 58.0289 32.5992 60 30.1758 60H4.39453C1.97109 60 0 58.0289 0 55.6055V4.39453C0 1.97109 1.97109 0 4.39453 0ZM7.91016 47.6953H32.8125V8.78906H1.75781V47.6953H4.39453C4.87969 47.6953 5.27344 48.0891 5.27344 48.5742C5.27344 49.0594 4.87969 49.4531 4.39453 49.4531H1.75781V55.6055C1.75781 57.0598 2.94023 58.2422 4.39453 58.2422H30.1758C31.6301 58.2422 32.8125 57.0598 32.8125 55.6055V49.4531H7.91016C7.425 49.4531 7.03125 49.0594 7.03125 48.5742C7.03125 48.0891 7.425 47.6953 7.91016 47.6953ZM1.75781 7.03125H32.8125V4.39453C32.8125 2.94023 31.6301 1.75781 30.1758 1.75781H4.39453C2.94023 1.75781 1.75781 2.94023 1.75781 4.39453V7.03125ZM17.2852 3.51562H20.8008C21.2859 3.51562 21.6797 3.90937 21.6797 4.39453C21.6797 4.87969 21.2859 5.27344 20.8008 5.27344H17.2852C16.8 5.27344 16.4062 4.87969 16.4062 4.39453C16.4062 3.90937 16.8 3.51562 17.2852 3.51562ZM17.2852 56.4844C18.7395 56.4844 19.9219 55.302 19.9219 53.8477C19.9219 52.3934 18.7395 51.2109 17.2852 51.2109C15.8309 51.2109 14.6484 52.3934 14.6484 53.8477C14.6484 55.302 15.8309 56.4844 17.2852 56.4844ZM17.2852 52.9688C17.7703 52.9688 18.1641 53.3625 18.1641 53.8477C18.1641 54.3328 17.7703 54.7266 17.2852 54.7266C16.8 54.7266 16.4062 54.3328 16.4062 53.8477C16.4062 53.3625 16.8 52.9688 17.2852 52.9688ZM14.6484 4.39453C14.6484 4.87994 14.2549 5.27344 13.7695 5.27344C13.2841 5.27344 12.8906 4.87994 12.8906 4.39453C12.8906 3.90912 13.2841 3.51562 13.7695 3.51562C14.2549 3.51562 14.6484 3.90912 14.6484 4.39453Z" fill="url(#paint0_linear_502_4551)"/>
<defs>
<linearGradient id="paint0_linear_502_4551" x1="-1.28784e-07" y1="30" x2="34.5703" y2="30" gradientUnits="userSpaceOnUse">
<stop stop-color="#223962"/>
<stop offset="0.526042" stop-color="#3277BC"/>
<stop offset="0.973958" stop-color="#48ABDF"/>
</linearGradient>
</defs>
</svg>
