<svg width="60" height="62" viewBox="0 0 60 62" fill="none" xmlns="http://www.w3.org/2000/svg">
<path fill-rule="evenodd" clip-rule="evenodd" d="M27.7498 10.6179C27.4867 10.697 27.2018 10.6486 26.9797 10.487C26.7575 10.3255 26.6237 10.0693 26.6179 9.7947L26.5601 7.04082L24.9888 4.77944C24.8321 4.55391 24.7898 4.26809 24.8745 4.00684C24.9593 3.7456 25.1612 3.53897 25.4204 3.4483L28.0203 2.53901L29.6897 0.346479C29.856 0.128055 30.1148 -0.000114588 30.3893 7.68715e-08C30.6639 0.000114071 30.9226 0.1285 31.0887 0.347063L32.7547 2.53901L35.3573 3.4482C35.6166 3.53879 35.8187 3.74541 35.9034 4.00669C35.9882 4.26798 35.9459 4.55386 35.7892 4.77944L34.2179 7.04082L34.1601 9.7947C34.1543 10.0693 34.0205 10.3255 33.7984 10.487C33.5762 10.6486 33.2913 10.697 33.0283 10.6179L30.389 9.82427L27.7498 10.6179ZM30.6421 8.06481L32.4269 8.60153L32.4661 6.7387C32.4697 6.56574 32.5243 6.3977 32.623 6.25563L33.6857 4.72622L31.9252 4.11122C31.7623 4.05431 31.6198 3.95071 31.5154 3.81333L30.3884 2.33056L29.2589 3.81391C29.1546 3.95092 29.0124 4.05426 28.8498 4.11111L27.0921 4.72587L28.155 6.25563C28.2537 6.3977 28.3083 6.56574 28.312 6.7387L28.3511 8.60152L30.1359 8.06481C30.3009 8.01517 30.477 8.01517 30.6421 8.06481ZM14.4451 14.2664C14.1819 14.3458 13.8968 14.2976 13.6745 14.136C13.4521 13.9745 13.3182 13.7182 13.3124 13.4435L13.2545 10.6893L11.683 8.42447C11.5263 8.19873 11.4842 7.91273 11.5693 7.65146C11.6543 7.39018 11.8566 7.18369 12.1161 7.09336L14.7178 6.18757L16.3834 3.99301C16.5496 3.77406 16.8087 3.64546 17.0835 3.64547C17.3584 3.64547 17.6174 3.77407 17.7836 3.99303L19.4492 6.18758L22.0509 7.09336C22.3103 7.18369 22.5126 7.39018 22.5977 7.65146C22.6827 7.91273 22.6406 8.19873 22.484 8.42447L20.9124 10.6893L20.8547 13.4434C20.8489 13.7182 20.7149 13.9745 20.4926 14.136C20.2702 14.2976 19.9851 14.3458 19.722 14.2664L17.0835 13.47L14.4451 14.2664ZM15.0064 10.3874L15.0455 12.249L16.8295 11.7105C16.9952 11.6605 17.1719 11.6605 17.3375 11.7105L19.1215 12.249L19.1605 10.3875C19.1641 10.2147 19.2186 10.0468 19.3171 9.90483L20.3801 8.37298L18.6206 7.76039C18.4571 7.70348 18.3141 7.59957 18.2094 7.46169L17.0835 5.97816L15.9575 7.46172C15.8528 7.59958 15.7098 7.70348 15.5464 7.76039L13.7868 8.37298L14.8498 9.90483C14.9483 10.0468 15.0028 10.2147 15.0064 10.3874ZM40.2859 14.1363C40.5082 14.2977 40.7931 14.3458 41.0561 14.2664L43.6944 13.4701L46.3293 14.2663C46.5923 14.3458 46.8773 14.2977 47.0997 14.1364C47.3221 13.9751 47.4562 13.7191 47.4623 13.4444L47.5231 10.6897L49.0951 8.42449C49.2517 8.19876 49.2938 7.91275 49.2088 7.65147C49.1238 7.39019 48.9215 7.1837 48.662 7.09336L46.0603 6.18757L44.3946 3.99301C44.2285 3.77416 43.9697 3.64558 43.6949 3.64547C43.4202 3.64535 43.1612 3.77372 42.9949 3.99242L41.3259 6.18757L38.7268 7.09345C38.4675 7.18382 38.2654 7.39016 38.1804 7.65124C38.0953 7.91232 38.1372 8.19813 38.2936 8.42384L39.8627 10.6893L39.9234 13.4444C39.9295 13.719 40.0636 13.975 40.2859 14.1363ZM41.6553 12.2494L41.6143 10.3865C41.6105 10.2143 41.5562 10.047 41.4581 9.90545L40.3966 8.37298L42.1545 7.76029C42.3176 7.70344 42.4604 7.5998 42.5649 7.4623L43.6939 5.97733L44.8206 7.46172C44.9252 7.59958 45.0682 7.70348 45.2317 7.76039L46.9912 8.37297L45.9282 9.90481C45.8298 10.0465 45.7754 10.214 45.7716 10.3865L45.7304 12.249L43.9488 11.7106C43.7831 11.6605 43.6063 11.6605 43.4406 11.7105L41.6553 12.2494ZM39.0849 33.6301C34.283 38.4321 26.4958 38.4318 21.6909 33.6303L21.6904 33.6299C16.8891 28.8248 16.8888 21.0374 21.6907 16.2354L21.6909 16.2352C26.4957 11.4338 34.2828 11.4334 39.0847 16.2352L39.0849 16.2354C43.8901 21.0375 43.8897 28.825 39.0849 33.6301ZM22.6219 32.0618C18.8209 27.9239 18.9252 21.4869 22.9337 17.4784C27.0524 13.3628 33.7268 13.3632 37.8419 17.4784L37.8422 17.4786C41.8532 21.4868 41.9578 27.9229 38.1549 32.0608C37.6789 30.0374 36.4273 28.3061 34.7367 27.2001C35.4736 26.2614 35.9131 25.0779 35.9131 23.7916C35.9131 20.7403 33.4403 18.2674 30.389 18.2674C27.3377 18.2674 24.865 20.7403 24.865 23.7916C24.865 25.0777 25.3043 26.261 26.041 27.1997C24.3497 28.3059 23.0978 30.0377 22.6219 32.0618ZM27.3946 28.4347C28.2573 28.9922 29.2853 29.3157 30.389 29.3157C31.4925 29.3157 32.5204 28.9923 33.3829 28.435C35.1871 29.4343 36.4464 31.3028 36.593 33.4568C32.9082 36.1458 27.8713 36.1461 24.184 33.4572C24.3305 31.3028 25.59 29.434 27.3946 28.4347ZM32.7283 26.7437C32.0859 27.2535 31.2731 27.5579 30.389 27.5579C28.3086 27.5579 26.6228 25.8721 26.6228 23.7916C26.6228 21.711 28.3086 20.0252 30.389 20.0252C32.4695 20.0252 34.1553 21.711 34.1553 23.7916C34.1553 24.9687 33.6156 26.0194 32.7702 26.71C32.7559 26.7208 32.742 26.732 32.7283 26.7437ZM36.9202 58.2422C36.8025 58.2422 36.7028 58.1426 36.7028 58.0248V52.5731C36.7028 52.4518 36.806 52.3523 36.9202 52.3523H52.2551C52.3693 52.3523 52.4725 52.4519 52.4725 52.5731V58.0248C52.4725 58.1425 52.3728 58.2422 52.2551 58.2422H46.6237C46.1383 58.2422 45.7448 58.6357 45.7448 59.1211C45.7448 59.6065 46.1383 60 46.6237 60H52.2551C53.3435 60 54.2303 59.1134 54.2303 58.0248V52.5731C54.2303 51.488 53.3471 50.5945 52.2551 50.5945H51.7116C55.5453 46.6091 58.4088 41.6586 58.8432 34.8544L58.8433 34.854L59.6796 21.6588L59.6796 21.6584L59.6796 21.6581C59.8004 19.7702 58.3591 18.1338 56.4696 18.0129C54.9053 17.9127 53.5146 18.8867 53.014 20.2953C52.8617 20.2641 52.7062 20.243 52.5483 20.2322L52.5449 20.232C50.6571 20.1107 49.0166 21.5552 48.8957 23.4421L48.8956 23.4439L48.3289 32.3994C48.0979 32.5205 47.8694 32.665 47.6454 32.8342C47.634 32.8428 47.6228 32.8517 47.6118 32.8608L41.4904 37.9727L41.4903 37.9728C40.1614 39.0829 39.3889 40.1531 38.939 41.4017C38.5046 42.607 38.3934 43.9293 38.2784 45.4453L38.2784 45.4456L37.8898 50.5945H36.9202C35.8281 50.5945 34.945 51.4881 34.945 52.5731V58.0248C34.945 59.1134 35.8317 60 36.9202 60H42.555C43.0404 60 43.4339 59.6065 43.4339 59.1211C43.4339 58.6357 43.0404 58.2422 42.555 58.2422H36.9202ZM52.1125 32.4114C51.5296 32.0662 50.8422 31.8872 50.1211 31.9121L50.6499 23.5545L50.65 23.5537C50.7092 22.6358 51.5135 21.9281 52.4305 21.9861C52.549 21.9943 52.663 22.0139 52.7716 22.0437L52.1125 32.4114ZM52.0046 35.3546C52.0091 35.2761 52.0077 35.1992 52.0009 35.1241C51.9764 35.0478 51.962 34.9672 51.9594 34.884C51.8937 34.6299 51.7627 34.4022 51.5816 34.213C51.021 33.627 49.8907 33.3514 48.7212 34.2245L42.6173 39.3218L42.6171 39.3219C41.477 40.2743 40.9166 41.0986 40.5927 41.9976C40.2531 42.9399 40.1494 44.0185 40.0312 45.5782L39.6526 50.5945H49.2099C53.457 46.6066 56.6428 41.7288 57.089 34.7428L57.089 34.7424L57.9254 21.5463C57.9843 20.6286 57.2797 19.8261 56.3572 19.7671C55.4405 19.7084 54.6373 20.415 54.578 21.3351L54.578 21.3356L54.567 21.5075C54.5667 21.5393 54.5647 21.5713 54.5609 21.6031L53.7252 34.7513C53.7609 34.9782 53.7733 35.2131 53.7597 35.4538C53.7055 36.4112 53.2473 37.377 52.3788 38.2456L52.3779 38.2465C51.9289 38.6942 51.1837 39.4684 50.3926 40.2903L50.3925 40.2904L50.3918 40.2911C49.2774 41.4489 48.072 42.7013 47.4747 43.2695C47.123 43.6041 46.5667 43.5902 46.2321 43.2385C45.8976 42.8868 45.9114 42.3305 46.2631 41.9959C46.8529 41.4349 47.9704 40.2727 49.0431 39.157C49.8459 38.3222 50.6236 37.5135 51.1362 37.0022C51.7619 36.3764 51.9795 35.7995 52.0046 35.3546ZM23.984 58.0248C23.984 58.1426 23.8844 58.2422 23.7666 58.2422H18.1319C17.6465 58.2422 17.253 58.6357 17.253 59.1211C17.253 59.6065 17.6465 60 18.1319 60H23.7666C24.8552 60 25.7418 59.1134 25.7418 58.0248V52.5731C25.7418 51.4881 24.8587 50.5945 23.7666 50.5945H22.7969L22.4083 45.4456L22.4083 45.4453C22.2934 43.9293 22.1821 42.607 21.7477 41.4017C21.2978 40.1531 20.5254 39.0829 19.1964 37.9728L19.1963 37.9727L13.0749 32.8608C13.0639 32.8517 13.0527 32.8428 13.0413 32.8342C12.8174 32.665 12.5888 32.5205 12.3578 32.3994L11.7911 23.4439L11.791 23.4421C11.6701 21.5552 10.0296 20.1107 8.14185 20.232L8.1384 20.2322C7.9805 20.243 7.82496 20.2641 7.67266 20.2953C7.17206 18.8867 5.78143 17.9127 4.21712 18.0129C2.32761 18.1338 0.886321 19.7702 1.00707 21.6581L1.00709 21.6584L1.00711 21.6588L1.84343 34.854L1.84346 34.8544C2.27791 41.6586 5.14138 46.6091 8.97508 50.5945H8.43172C7.33979 50.5945 6.45652 51.488 6.45652 52.5731V58.0248C6.45652 59.1134 7.34333 60 8.43172 60H14.0632C14.5486 60 14.9421 59.6065 14.9421 59.1211C14.9421 58.6357 14.5486 58.2422 14.0632 58.2422H8.43172C8.31402 58.2422 8.21434 58.1425 8.21434 58.0248V52.5731C8.21434 52.4519 8.31755 52.3523 8.43172 52.3523H23.7666C23.8809 52.3523 23.984 52.4518 23.984 52.5731V58.0248ZM10.5656 31.9121L10.0368 23.5545L10.0367 23.5537C9.9775 22.6358 9.17321 21.9281 8.25626 21.9861C8.13771 21.9943 8.02366 22.0139 7.91512 22.0437L8.57417 32.4114C9.15714 32.0662 9.84447 31.8872 10.5656 31.9121ZM8.72731 34.884C8.79303 34.6299 8.92404 34.4022 9.10508 34.213C9.66572 33.627 10.7961 33.3514 11.9655 34.2245L18.0695 39.3218L18.0696 39.3219C19.2097 40.2743 19.7701 41.0986 20.094 41.9976C20.4336 42.9399 20.5373 44.0185 20.6555 45.5782L21.0341 50.5945H11.4768C7.22967 46.6066 4.0439 41.7288 3.59773 34.7428L3.5977 34.7424L2.76132 21.5463C2.70245 20.6286 3.407 19.8261 4.32951 19.7671C5.2462 19.7084 6.04942 20.415 6.10872 21.3351L6.10875 21.3356L6.11968 21.5075C6.11997 21.5394 6.12198 21.5712 6.12575 21.603L6.96155 34.7513C6.9258 34.9782 6.91345 35.2131 6.92705 35.4538C6.98116 36.4112 7.43943 37.377 8.30795 38.2456L8.30883 38.2465C8.75796 38.6944 9.50337 39.4688 10.2947 40.2909L10.2949 40.2911C11.4093 41.4489 12.6147 42.7013 13.212 43.2695C13.5637 43.6041 14.12 43.5902 14.4546 43.2385C14.7892 42.8868 14.7753 42.3305 14.4236 41.9959C13.8338 41.4349 12.7164 40.2727 11.6436 39.1571L11.6436 39.157C10.8408 38.3222 10.0632 37.5135 9.55046 37.0022C8.92485 36.3764 8.70721 35.7995 8.68207 35.3546C8.67763 35.2761 8.67899 35.1992 8.68579 35.124C8.71032 35.0478 8.72466 34.9672 8.72731 34.884Z" fill="url(#paint0_linear_390_4584)"/>
<defs>
<linearGradient id="paint0_linear_390_4584" x1="1" y1="30" x2="59.6867" y2="30" gradientUnits="userSpaceOnUse">
<stop stop-color="#223962"/>
<stop offset="0.526042" stop-color="#3277BC"/>
<stop offset="0.973958" stop-color="#48ABDF"/>
</linearGradient>
</defs>
</svg>
