<svg width="60" height="55" viewBox="0 0 60 55" fill="none" xmlns="http://www.w3.org/2000/svg">
<g clip-path="url(#clip0_343_5385)">
<path d="M33.9106 12.3273C33.7173 12.4937 33.511 12.6484 33.2989 12.7891C33.0446 12.9566 32.8946 13.2437 32.904 13.5484C32.9134 13.8531 33.0786 14.132 33.3434 14.2844L34.104 14.7238C34.2423 14.8035 34.3934 14.8422 34.5423 14.8422C34.8458 14.8422 35.1411 14.684 35.304 14.4027C35.4856 14.0875 35.4505 13.7066 35.2454 13.4336C35.4259 13.1195 35.4001 12.7129 35.1505 12.4223C34.8341 12.0543 34.2798 12.0121 33.9106 12.3285V12.3273Z" fill="url(#paint0_linear_343_5385)"/>
<path d="M35.7703 11.6289C35.8969 11.6922 36.0304 11.7215 36.1629 11.7215C36.4851 11.7215 36.7957 11.5434 36.9492 11.2363C37.2269 10.682 37.4367 10.0938 37.5738 9.49024C37.6816 9.0168 37.384 8.54571 36.9105 8.43907C36.4371 8.33126 35.966 8.62891 35.8594 9.10118C35.7539 9.56758 35.591 10.0211 35.3765 10.4488C35.1597 10.8824 35.3355 11.4109 35.7691 11.6277L35.7703 11.6289Z" fill="url(#paint1_linear_343_5385)"/>
<path d="M25.2716 3.63738C25.4884 3.63738 25.7051 3.5577 25.8751 3.39715C26.2243 3.06785 26.6122 2.77957 27.027 2.54285C27.4489 2.30262 27.5954 1.7659 27.3551 1.34403C27.1149 0.92215 26.5782 0.775666 26.1563 1.0159C25.6196 1.32176 25.1192 1.69324 24.668 2.11863C24.3153 2.45145 24.2989 3.00809 24.6329 3.36082C24.8063 3.54363 25.0384 3.63621 25.2716 3.63621V3.63738Z" fill="url(#paint2_linear_343_5385)"/>
<path d="M24.1382 9.09138C24.0316 8.61794 23.5616 8.32029 23.0882 8.42693C22.6148 8.53357 22.3171 9.00349 22.4238 9.47693C22.5597 10.0816 22.7695 10.6699 23.046 11.2242C23.1995 11.5324 23.5101 11.7117 23.8335 11.7117C23.9648 11.7117 24.0995 11.6824 24.2249 11.6191C24.6597 11.4023 24.8355 10.875 24.6198 10.4402C24.4066 10.0113 24.2448 9.55778 24.1394 9.09138H24.1382Z" fill="url(#paint3_linear_343_5385)"/>
<path d="M32.9742 2.55031C33.3891 2.7882 33.777 3.07765 34.125 3.40812C34.2949 3.56867 34.5117 3.64953 34.7297 3.64953C34.9629 3.64953 35.1949 3.55695 35.3684 3.37531C35.7024 3.02258 35.6871 2.46711 35.3344 2.13312C34.8844 1.70656 34.3852 1.33508 33.8496 1.02804C33.4289 0.786639 32.891 0.930779 32.6496 1.35265C32.4082 1.77336 32.5524 2.31125 32.9742 2.55265V2.55031Z" fill="url(#paint4_linear_343_5385)"/>
<path d="M23.065 7.42265C23.1165 7.43203 23.1681 7.43672 23.2196 7.43672C23.638 7.43672 24.0083 7.13672 24.0845 6.71133C24.1677 6.24023 24.3083 5.77969 24.5017 5.3414C24.6974 4.89726 24.497 4.37812 24.0528 4.18242C23.6087 3.98672 23.0896 4.18711 22.8939 4.63125C22.6431 5.19844 22.4614 5.79492 22.3536 6.40547C22.2693 6.88359 22.588 7.33945 23.0661 7.42383L23.065 7.42265Z" fill="url(#paint5_linear_343_5385)"/>
<path d="M29.2852 1.80026C29.6157 1.76159 29.9508 1.7487 30.2895 1.76511C30.4325 1.77214 30.5778 1.78386 30.7208 1.80144C30.7559 1.80612 30.7911 1.80729 30.8262 1.80729C31.2645 1.80729 31.6442 1.47917 31.6981 1.03269C31.7555 0.551045 31.4122 0.112764 30.9305 0.0553418C30.7454 0.0330762 30.5579 0.0178418 30.3727 0.0084668C29.9379 -0.0114551 29.5044 0.0037793 29.0801 0.0541699C28.5985 0.111592 28.254 0.548701 28.3102 1.03034C28.3676 1.51198 28.8036 1.85651 29.2864 1.80026H29.2852Z" fill="url(#paint6_linear_343_5385)"/>
<path d="M35.5007 5.35284C35.6953 5.79113 35.8347 6.25167 35.9179 6.72277C35.9929 7.14933 36.3644 7.44933 36.7828 7.44933C36.8332 7.44933 36.8847 7.44464 36.9363 7.43527C37.4144 7.35089 37.7332 6.89503 37.6488 6.41691C37.541 5.80753 37.3593 5.20988 37.1074 4.64152C36.9105 4.19738 36.3914 3.99699 35.9484 4.19386C35.5043 4.39074 35.3039 4.90988 35.5007 5.35284Z" fill="url(#paint7_linear_343_5385)"/>
<path d="M24.6961 14.4009C24.859 14.6833 25.1543 14.8403 25.4578 14.8403C25.6067 14.8403 25.7578 14.8028 25.8961 14.722L26.6578 14.2825C26.9215 14.1302 27.0879 13.8512 27.0973 13.5466C27.1067 13.2419 26.9567 12.9548 26.7024 12.7872C26.4903 12.6477 26.284 12.4919 26.0906 12.3255C25.7227 12.0091 25.1672 12.0512 24.8508 12.4204C24.6012 12.711 24.5754 13.1177 24.7559 13.4317C24.5496 13.7048 24.5145 14.0856 24.6961 14.4009Z" fill="url(#paint8_linear_343_5385)"/>
<path d="M36.2836 14.8758C35.9719 15.2473 36.02 15.8016 36.3926 16.1145C36.7501 16.4145 37.0512 16.7708 37.2856 17.1751C37.4485 17.4551 37.7438 17.6122 38.0461 17.6122C38.1961 17.6122 38.3485 17.5735 38.4868 17.4926C38.9063 17.2489 39.0481 16.711 38.8043 16.2915C38.4668 15.7114 38.0356 15.1993 37.5211 14.768C37.1485 14.4563 36.5954 14.5043 36.2825 14.877L36.2836 14.8758Z" fill="url(#paint9_linear_343_5385)"/>
<path d="M32.7983 25.3145C32.7983 25.7996 33.1921 26.1934 33.6772 26.1934H35.3753C35.8604 26.1934 36.2542 25.7996 36.2542 25.3145C36.2542 24.8293 35.8604 24.4355 35.3753 24.4355H33.6772C33.1921 24.4355 32.7983 24.8293 32.7983 25.3145Z" fill="url(#paint10_linear_343_5385)"/>
<path d="M21.6399 26.1941H21.7911C22.2762 26.1941 22.67 25.8004 22.67 25.3152C22.67 24.9648 22.4649 24.6625 22.1672 24.5207V23.9687C22.1672 23.4836 21.7735 23.0898 21.2883 23.0898C20.8032 23.0898 20.4094 23.4836 20.4094 23.9687V24.9637C20.4094 25.6422 20.9614 26.1941 21.6399 26.1941Z" fill="url(#paint11_linear_343_5385)"/>
<path d="M38.7106 23.093C38.2254 23.093 37.8317 23.4867 37.8317 23.9719V24.518C37.5329 24.6586 37.3254 24.9621 37.3254 25.3137C37.3254 25.7988 37.7192 26.1926 38.2043 26.1926H38.359C39.0375 26.1926 39.5895 25.6406 39.5895 24.9621V23.9707C39.5895 23.4855 39.1957 23.0918 38.7106 23.0918V23.093Z" fill="url(#paint12_linear_343_5385)"/>
<path d="M21.5132 17.488C21.6526 17.5689 21.805 17.6076 21.955 17.6076C22.2573 17.6076 22.5514 17.4517 22.7155 17.1716C22.9511 16.7673 23.2522 16.4111 23.6097 16.1123C23.9823 15.8005 24.0315 15.2462 23.7198 14.8748C23.4081 14.5021 22.8538 14.4529 22.4823 14.7646C21.9679 15.1947 21.5354 15.7068 21.1979 16.2869C20.953 16.7064 21.0948 17.2443 21.5143 17.4892L21.5132 17.488Z" fill="url(#paint13_linear_343_5385)"/>
<path d="M24.6211 26.1934H26.3191C26.8043 26.1934 27.198 25.7996 27.198 25.3145C27.198 24.8293 26.8043 24.4355 26.3191 24.4355H24.6211C24.1359 24.4355 23.7422 24.8293 23.7422 25.3145C23.7422 25.7996 24.1359 26.1934 24.6211 26.1934Z" fill="url(#paint14_linear_343_5385)"/>
<path d="M21.2883 22.0174C21.7735 22.0174 22.1672 21.6236 22.1672 21.1385V19.4404C22.1672 18.9553 21.7735 18.5615 21.2883 18.5615C20.8032 18.5615 20.4094 18.9553 20.4094 19.4404V21.1385C20.4094 21.6236 20.8032 22.0174 21.2883 22.0174Z" fill="url(#paint15_linear_343_5385)"/>
<path d="M29.1492 24.4355C28.664 24.4355 28.2703 24.8293 28.2703 25.3145C28.2703 25.7996 28.664 26.1934 29.1492 26.1934H30.8472C31.3324 26.1934 31.7261 25.7996 31.7261 25.3145C31.7261 24.8293 31.3324 24.4355 30.8472 24.4355H29.1492Z" fill="url(#paint16_linear_343_5385)"/>
<path d="M37.8315 19.4434V21.1414C37.8315 21.6266 38.2253 22.0203 38.7104 22.0203C39.1956 22.0203 39.5894 21.6266 39.5894 21.1414V19.4434C39.5894 18.9582 39.1956 18.5645 38.7104 18.5645C38.2253 18.5645 37.8315 18.9582 37.8315 19.4434Z" fill="url(#paint17_linear_343_5385)"/>
<path d="M26.8103 17.2104C26.4669 17.5537 26.4669 18.1104 26.8103 18.4537L29.379 21.0225C29.5501 21.1936 29.7751 21.2803 30.0001 21.2803C30.2251 21.2803 30.4501 21.1947 30.6212 21.0225L33.1899 18.4537C33.5333 18.1104 33.5333 17.5537 33.1899 17.2104C32.8466 16.867 32.2899 16.867 31.9466 17.2104L30.8778 18.2791V8.56543C30.8778 8.08027 30.4841 7.68652 29.9989 7.68652C29.5138 7.68652 29.12 8.08027 29.12 8.56543V18.2791L28.0513 17.2104C27.7079 16.867 27.1513 16.867 26.8079 17.2104H26.8103Z" fill="url(#paint18_linear_343_5385)"/>
<path d="M16.2867 14.1902L14.9238 13.4039C16.4203 11.9871 17.3555 9.98555 17.3555 7.76719C17.3566 3.48398 13.8727 0 9.58945 0C5.30625 0 1.82344 3.48398 1.82344 7.76602C1.82344 9.98438 2.75977 11.9859 4.25508 13.4027L2.89219 14.1891C1.10859 15.2203 0 17.1398 0 19.2V24.9621C0 25.6406 0.551953 26.1926 1.23047 26.1926H10.5469C11.032 26.1926 11.4258 25.7988 11.4258 25.3137C11.4258 24.8285 11.032 24.4348 10.5469 24.4348H1.75781V19.2C1.75781 17.7656 2.52891 16.4285 3.77227 15.7125L5.80078 14.5418C6.92227 15.1723 8.21484 15.5332 9.59062 15.5332C10.9664 15.5332 12.259 15.1723 13.3805 14.5418L15.409 15.7125C16.6512 16.4297 17.4223 17.7656 17.4223 19.2012V24.4359H14.6484C14.1633 24.4359 13.7695 24.8297 13.7695 25.3148C13.7695 25.8 14.1633 26.1938 14.6484 26.1938H17.9496C18.6281 26.1938 19.1801 25.6418 19.1801 24.9633V19.2012C19.1801 17.141 18.0715 15.2203 16.2867 14.1902ZM3.58125 7.76602C3.58125 4.45312 6.27656 1.75781 9.58945 1.75781C12.9023 1.75781 15.5977 4.45312 15.5977 7.76602C15.5977 11.0789 12.9023 13.7742 9.58945 13.7742C6.27656 13.7742 3.58125 11.0789 3.58125 7.76602Z" fill="url(#paint19_linear_343_5385)"/>
<path d="M8.2887 7.1207V5.69922C8.2887 5.21406 7.89495 4.82031 7.40979 4.82031C6.92463 4.82031 6.53088 5.21406 6.53088 5.69922V7.1207C6.53088 7.60586 6.92463 7.99961 7.40979 7.99961C7.89495 7.99961 8.2887 7.60586 8.2887 7.1207Z" fill="url(#paint20_linear_343_5385)"/>
<path d="M11.7703 4.82031C11.2851 4.82031 10.8914 5.21406 10.8914 5.69922V7.1207C10.8914 7.60586 11.2851 7.99961 11.7703 7.99961C12.2554 7.99961 12.6492 7.60586 12.6492 7.1207V5.69922C12.6492 5.21406 12.2554 4.82031 11.7703 4.82031Z" fill="url(#paint21_linear_343_5385)"/>
<path d="M11.7574 9.52416C11.3273 9.29916 10.7964 9.46322 10.5703 9.8933C10.3781 10.2589 10.0031 10.4863 9.58939 10.4863C9.17572 10.4863 8.80072 10.2589 8.60971 9.8933C8.38353 9.46322 7.85268 9.29799 7.4226 9.52416C6.99252 9.75033 6.82728 10.2812 7.05346 10.7113C7.55033 11.657 8.52182 12.2441 9.59057 12.2441C10.6593 12.2441 11.6308 11.657 12.1265 10.7113C12.3527 10.2812 12.1874 9.75033 11.7574 9.52416Z" fill="url(#paint22_linear_343_5385)"/>
<path d="M57.1078 14.1902L55.7449 13.4027C57.2414 11.9859 58.1765 9.98438 58.1765 7.76602C58.1765 3.48398 54.6925 0 50.4105 0C46.1285 0 42.6445 3.48398 42.6445 7.76602C42.6445 9.98438 43.5808 11.9859 45.0761 13.4027L43.7132 14.1902C41.9285 15.2203 40.821 17.1398 40.821 19.2012V24.9633C40.821 25.6418 41.373 26.1938 42.0515 26.1938H58.7707C59.4492 26.1938 60.0011 25.6418 60.0011 24.9633V19.2012C60.0011 17.141 58.8925 15.2215 57.1089 14.1902H57.1078ZM44.4023 7.76719C44.4023 4.4543 47.0976 1.75898 50.4105 1.75898C53.7234 1.75898 56.4187 4.4543 56.4187 7.76719C56.4187 11.0801 53.7234 13.7754 50.4105 13.7754C47.0976 13.7754 44.4023 11.0801 44.4023 7.76719ZM58.2433 24.4359H42.5789V19.2012C42.5789 17.7668 43.35 16.4297 44.5921 15.7125L46.6207 14.5418C47.7421 15.1723 49.0347 15.5332 50.4105 15.5332C51.7863 15.5332 53.0789 15.1723 54.2003 14.5418L56.2289 15.7125C57.471 16.4297 58.2421 17.7668 58.2421 19.2012V24.4359H58.2433Z" fill="url(#paint23_linear_343_5385)"/>
<path d="M48.2297 7.99961C48.7149 7.99961 49.1086 7.60586 49.1086 7.1207V5.69922C49.1086 5.21406 48.7149 4.82031 48.2297 4.82031C47.7446 4.82031 47.3508 5.21406 47.3508 5.69922V7.1207C47.3508 7.60586 47.7446 7.99961 48.2297 7.99961Z" fill="url(#paint24_linear_343_5385)"/>
<path d="M52.5903 7.99961C53.0755 7.99961 53.4692 7.60586 53.4692 7.1207V5.69922C53.4692 5.21406 53.0755 4.82031 52.5903 4.82031C52.1052 4.82031 51.7114 5.21406 51.7114 5.69922V7.1207C51.7114 7.60586 52.1052 7.99961 52.5903 7.99961Z" fill="url(#paint25_linear_343_5385)"/>
<path d="M48.2427 9.52416C47.8126 9.75033 47.6474 10.2812 47.8735 10.7113C48.3704 11.657 49.3419 12.2441 50.4095 12.2441C51.477 12.2441 52.4497 11.657 52.9454 10.7113C53.1716 10.2812 53.0063 9.75033 52.5763 9.52416C52.1462 9.29799 51.6153 9.46439 51.3891 9.8933C51.197 10.2589 50.822 10.4863 50.4083 10.4863C49.9946 10.4863 49.6196 10.2589 49.4274 9.8933C49.2024 9.46322 48.6704 9.29799 48.2403 9.52416H48.2427Z" fill="url(#paint26_linear_343_5385)"/>
<path d="M57.1078 42.859L55.7484 42.0738C56.6378 41.2324 57.3351 40.1766 57.7523 38.9672C57.9105 38.5078 57.6667 38.0074 57.2085 37.8492C56.7492 37.691 56.2488 37.9348 56.0906 38.3941C55.255 40.8164 52.9722 42.4441 50.4105 42.4441C47.0976 42.4441 44.4023 39.7488 44.4023 36.4359C44.4023 33.123 47.0976 30.4277 50.4105 30.4277C53.0953 30.4277 55.4742 32.2324 56.196 34.8164C56.3261 35.284 56.8113 35.557 57.2789 35.427C57.7464 35.2969 58.0195 34.8117 57.8894 34.3441C56.9566 31.0031 53.8804 28.6699 50.4105 28.6699C46.1285 28.6699 42.6445 32.1539 42.6445 36.4359C42.6445 38.6543 43.5808 40.6559 45.0761 42.0727L43.7132 42.8602C41.9285 43.8902 40.821 45.8098 40.821 47.8699V53.632C40.821 54.3105 41.373 54.8625 42.0515 54.8625H58.7707C59.4492 54.8625 60.0011 54.3105 60.0011 53.632V47.8699C60.0011 45.8098 58.8925 43.8902 57.1089 42.8602L57.1078 42.859ZM58.2421 53.1047H42.5777V47.8699C42.5777 46.4355 43.3488 45.0984 44.591 44.3824L46.6195 43.2117C47.741 43.8422 49.0335 44.2031 50.4093 44.2031C51.7851 44.2031 53.0683 43.848 54.2015 43.2129L56.2277 44.3824C57.4699 45.0996 58.241 46.4355 58.241 47.8699V53.1047H58.2421Z" fill="url(#paint27_linear_343_5385)"/>
<path d="M49.1086 35.7906V34.3691C49.1086 33.884 48.7149 33.4902 48.2297 33.4902C47.7446 33.4902 47.3508 33.884 47.3508 34.3691V35.7906C47.3508 36.2758 47.7446 36.6695 48.2297 36.6695C48.7149 36.6695 49.1086 36.2758 49.1086 35.7906Z" fill="url(#paint28_linear_343_5385)"/>
<path d="M53.4692 35.7906V34.3691C53.4692 33.884 53.0755 33.4902 52.5903 33.4902C52.1052 33.4902 51.7114 33.884 51.7114 34.3691V35.7906C51.7114 36.2758 52.1052 36.6695 52.5903 36.6695C53.0755 36.6695 53.4692 36.2758 53.4692 35.7906Z" fill="url(#paint29_linear_343_5385)"/>
<path d="M50.4106 40.914C51.4782 40.914 52.4508 40.3269 52.9465 39.3812C53.1727 38.9511 53.0063 38.4203 52.5774 38.1941C52.1473 37.9679 51.6164 38.1343 51.3903 38.5632C51.1981 38.9288 50.8231 39.1562 50.4094 39.1562C49.9957 39.1562 49.6207 38.9288 49.4286 38.5632C49.2036 38.1331 48.6715 37.9679 48.2414 38.1941C47.8114 38.4203 47.6461 38.9511 47.8723 39.3812C48.3692 40.3269 49.3407 40.914 50.4082 40.914H50.4106Z" fill="url(#paint30_linear_343_5385)"/>
<path d="M36.6973 42.8602L35.3344 42.0727C36.8309 40.6559 37.7661 38.6543 37.7661 36.4359C37.7661 32.1539 34.2821 28.6699 30 28.6699C25.718 28.6699 22.234 32.1539 22.234 36.4359C22.234 38.6543 23.1704 40.6559 24.6657 42.0727L23.3028 42.8602C21.518 43.8902 20.4094 45.8098 20.4094 47.8699V53.632C20.4094 54.3105 20.9614 54.8625 21.6399 54.8625H30.9375C31.4227 54.8625 31.8165 54.4688 31.8165 53.9836C31.8165 53.4984 31.4227 53.1047 30.9375 53.1047H22.1672V47.8699C22.1672 46.4355 22.9383 45.0996 24.1817 44.3824L26.2102 43.2117C27.3317 43.8422 28.6243 44.2031 30 44.2031C31.3758 44.2031 32.6684 43.8422 33.7899 43.2117L35.8184 44.3824C37.0606 45.0996 37.8317 46.4355 37.8317 47.8699V53.1047H35.0391C34.554 53.1047 34.1602 53.4984 34.1602 53.9836C34.1602 54.4688 34.554 54.8625 35.0391 54.8625H38.359C39.0375 54.8625 39.5895 54.3105 39.5895 53.632V47.8699C39.5895 45.8098 38.4809 43.8891 36.6973 42.8602ZM23.9918 36.4359C23.9918 33.123 26.6872 30.4277 30 30.4277C33.3129 30.4277 36.0083 33.123 36.0083 36.4359C36.0083 39.7488 33.3129 42.4441 30 42.4441C26.6872 42.4441 23.9918 39.7488 23.9918 36.4359Z" fill="url(#paint31_linear_343_5385)"/>
<path d="M28.6992 35.7906V34.3691C28.6992 33.884 28.3055 33.4902 27.8203 33.4902C27.3352 33.4902 26.9414 33.884 26.9414 34.3691V35.7906C26.9414 36.2758 27.3352 36.6695 27.8203 36.6695C28.3055 36.6695 28.6992 36.2758 28.6992 35.7906Z" fill="url(#paint32_linear_343_5385)"/>
<path d="M32.1797 33.4902C31.6945 33.4902 31.3008 33.884 31.3008 34.3691V35.7906C31.3008 36.2758 31.6945 36.6695 32.1797 36.6695C32.6648 36.6695 33.0586 36.2758 33.0586 35.7906V34.3691C33.0586 33.884 32.6648 33.4902 32.1797 33.4902Z" fill="url(#paint33_linear_343_5385)"/>
<path d="M32.1668 38.1941C31.7367 37.9679 31.2058 38.1343 30.9797 38.5632C30.7875 38.9288 30.4125 39.1562 29.9988 39.1562C29.5851 39.1562 29.2101 38.9288 29.0191 38.5632C28.793 38.1331 28.2621 37.9679 27.832 38.1941C27.4019 38.4203 27.2367 38.9511 27.4629 39.3812C27.9598 40.3269 28.9312 40.914 30 40.914C31.0687 40.914 32.0402 40.3269 32.5359 39.3812C32.7621 38.9511 32.5957 38.4203 32.1668 38.1941Z" fill="url(#paint34_linear_343_5385)"/>
<path d="M14.7398 41.0902C14.4234 40.7223 13.8691 40.6801 13.5 40.9965C13.3066 41.1629 13.1004 41.3176 12.8883 41.4582C12.634 41.6258 12.484 41.9129 12.4933 42.2176C12.5027 42.5223 12.6679 42.8012 12.9328 42.9535L13.6945 43.393C13.8328 43.4726 13.984 43.5113 14.1328 43.5113C14.4363 43.5113 14.7316 43.3543 14.8945 43.0719C15.0761 42.7566 15.041 42.3769 14.8359 42.1027C15.0164 41.7887 14.9906 41.382 14.741 41.0914L14.7398 41.0902Z" fill="url(#paint35_linear_343_5385)"/>
<path d="M4.20815 39.1088C3.99487 38.6799 3.83315 38.2264 3.72768 37.76C3.62104 37.2865 3.15112 36.99 2.67768 37.0955C2.20424 37.2022 1.90659 37.6721 2.01323 38.1455C2.14917 38.7502 2.35893 39.3373 2.63549 39.8928C2.78901 40.201 3.09956 40.3803 3.42299 40.3803C3.55424 40.3803 3.68901 40.351 3.8144 40.2877C4.24917 40.0709 4.42495 39.5436 4.20932 39.1088H4.20815Z" fill="url(#paint36_linear_343_5385)"/>
<path d="M8.87461 30.4704C9.20508 30.4317 9.54141 30.4188 9.87891 30.4352C10.023 30.4423 10.1684 30.454 10.3102 30.4704C10.3453 30.4751 10.3805 30.4762 10.4156 30.4762C10.8539 30.4762 11.2336 30.1481 11.2875 29.7016C11.3449 29.22 11.0016 28.7817 10.5199 28.7243C10.3359 28.702 10.1484 28.6868 9.96211 28.6774C9.53321 28.6575 9.09492 28.6727 8.66953 28.7231C8.18789 28.7805 7.84336 29.2176 7.90078 29.6993C7.95821 30.1809 8.39414 30.5243 8.87696 30.4692L8.87461 30.4704Z" fill="url(#paint37_linear_343_5385)"/>
<path d="M3.6422 32.8514C3.19806 32.6557 2.67892 32.8561 2.48322 33.3002C2.23243 33.8662 2.05079 34.4639 1.94298 35.0732C1.85861 35.5514 2.17736 36.0072 2.65548 36.0916C2.70704 36.101 2.75861 36.1057 2.81017 36.1057C3.22853 36.1057 3.59884 35.8057 3.67501 35.3803C3.75822 34.9092 3.89884 34.4475 4.0922 34.0104C4.2879 33.5662 4.08751 33.0471 3.64337 32.8514H3.6422Z" fill="url(#paint38_linear_343_5385)"/>
<path d="M13.4402 29.695C13.0195 29.4536 12.4828 29.5978 12.2402 30.0196C11.9988 30.4404 12.1429 30.9782 12.5648 31.2196C12.9797 31.4587 13.3675 31.747 13.7156 32.0775C13.8855 32.238 14.1035 32.3189 14.3203 32.3189C14.5535 32.3189 14.7855 32.2263 14.959 32.0446C15.2929 31.6919 15.2777 31.1364 14.925 30.8025C14.475 30.3771 13.9758 30.0044 13.4402 29.6974V29.695Z" fill="url(#paint39_linear_343_5385)"/>
<path d="M5.74571 29.6858C5.20899 29.9929 4.70743 30.3632 4.25743 30.7897C3.90469 31.1225 3.88946 31.6792 4.22227 32.0319C4.39571 32.2147 4.62774 32.3073 4.86094 32.3073C5.07774 32.3073 5.29454 32.2276 5.46446 32.0671C5.81368 31.7378 6.2004 31.4507 6.61641 31.2128C7.03829 30.9725 7.18477 30.4358 6.94454 30.0139C6.7043 29.5921 6.16758 29.4456 5.74571 29.6858Z" fill="url(#paint40_linear_343_5385)"/>
<path d="M17.2395 35.0859C17.1317 34.4753 16.95 33.8788 16.6981 33.3105C16.5012 32.8663 15.9821 32.6659 15.5391 32.8628C15.095 33.0597 14.8946 33.5788 15.0914 34.0218C15.286 34.4601 15.4254 34.9206 15.5086 35.3905C15.5836 35.8171 15.9551 36.1171 16.3735 36.1171C16.4239 36.1171 16.4754 36.1124 16.527 36.103C17.0051 36.0187 17.3239 35.5628 17.2395 35.0847V35.0859Z" fill="url(#paint41_linear_343_5385)"/>
<path d="M15.3598 40.2981C15.4864 40.3614 15.62 40.3907 15.7524 40.3907C16.0747 40.3907 16.3852 40.2126 16.5387 39.9044C16.8165 39.3501 17.0262 38.7618 17.1633 38.1583C17.2711 37.6848 16.9747 37.2137 16.5012 37.1071C16.0278 36.9993 15.5567 37.2958 15.4501 37.7692C15.3446 38.2356 15.1817 38.6891 14.9672 39.118C14.7504 39.5516 14.9262 40.0801 15.3598 40.2969V40.2981Z" fill="url(#paint42_linear_343_5385)"/>
<path d="M4.28551 43.0697C4.4484 43.3521 4.74371 43.5092 5.04722 43.5092C5.19605 43.5092 5.34722 43.4717 5.48551 43.3908L6.24722 42.9514C6.5109 42.799 6.6773 42.5213 6.68668 42.2166C6.69605 41.9119 6.54605 41.6248 6.29176 41.4572C6.07847 41.3166 5.87222 41.1619 5.68004 40.9955C5.31207 40.6791 4.7566 40.7213 4.44019 41.0892C4.19058 41.3799 4.1648 41.7865 4.34527 42.1006C4.13902 42.3736 4.10387 42.7545 4.28668 43.0697H4.28551Z" fill="url(#paint43_linear_343_5385)"/>
<path d="M1.75781 53.1887V52.6367C1.75781 52.1516 1.36406 51.7578 0.878906 51.7578C0.39375 51.7578 0 52.1516 0 52.6367V53.6316C0 54.3102 0.551953 54.8621 1.23047 54.8621H1.38164C1.8668 54.8621 2.26055 54.4684 2.26055 53.9832C2.26055 53.6328 2.05547 53.3293 1.75781 53.1887Z" fill="url(#paint44_linear_343_5385)"/>
<path d="M14.9649 53.1045H13.2668C12.7817 53.1045 12.3879 53.4982 12.3879 53.9834C12.3879 54.4686 12.7817 54.8623 13.2668 54.8623H14.9649C15.45 54.8623 15.8438 54.4686 15.8438 53.9834C15.8438 53.4982 15.45 53.1045 14.9649 53.1045Z" fill="url(#paint45_linear_343_5385)"/>
<path d="M18.3012 51.7629C17.816 51.7629 17.4223 52.1566 17.4223 52.6418V53.1879C17.1234 53.3285 16.916 53.632 16.916 53.9836C16.916 54.4687 17.3098 54.8625 17.7949 54.8625H17.9496C18.6281 54.8625 19.1801 54.3105 19.1801 53.632V52.6406C19.1801 52.1555 18.7863 51.7617 18.3012 51.7617V51.7629Z" fill="url(#paint46_linear_343_5385)"/>
<path d="M17.6367 46.2811C17.7867 46.2811 17.9391 46.2424 18.0785 46.1616C18.498 45.9178 18.6398 45.3799 18.3961 44.9604C18.0586 44.3803 17.6273 43.8682 17.1129 43.437C16.7414 43.1252 16.1871 43.1733 15.8742 43.5459C15.5625 43.9174 15.6105 44.4717 15.9832 44.7846C16.3406 45.0846 16.6418 45.4409 16.8762 45.8452C17.0391 46.1252 17.3344 46.2823 17.6367 46.2823V46.2811Z" fill="url(#paint47_linear_343_5385)"/>
<path d="M18.3011 47.2344C17.816 47.2344 17.4222 47.6281 17.4222 48.1133V49.8113C17.4222 50.2965 17.816 50.6902 18.3011 50.6902C18.7863 50.6902 19.1801 50.2965 19.1801 49.8113V48.1133C19.1801 47.6281 18.7863 47.2344 18.3011 47.2344Z" fill="url(#paint48_linear_343_5385)"/>
<path d="M3.31051 43.5437C2.99879 43.1711 2.44449 43.1218 2.07301 43.4336C1.55855 43.8636 1.12613 44.3757 0.788632 44.9558C0.543711 45.3753 0.685508 45.9132 1.10504 46.1582C1.24449 46.239 1.39684 46.2777 1.54684 46.2777C1.84918 46.2777 2.14332 46.1218 2.30738 45.8418C2.54293 45.4386 2.8441 45.0812 3.20152 44.7824C3.57418 44.4707 3.6234 43.9164 3.31168 43.5437H3.31051Z" fill="url(#paint49_linear_343_5385)"/>
<path d="M0.878906 50.6863C1.36406 50.6863 1.75781 50.2926 1.75781 49.8074V48.1094C1.75781 47.6242 1.36406 47.2305 0.878906 47.2305C0.39375 47.2305 0 47.6242 0 48.1094V49.8074C0 50.2926 0.39375 50.6863 0.878906 50.6863Z" fill="url(#paint50_linear_343_5385)"/>
<path d="M5.90862 53.1045H4.21057C3.72542 53.1045 3.33167 53.4982 3.33167 53.9834C3.33167 54.4686 3.72542 54.8623 4.21057 54.8623H5.90862C6.39377 54.8623 6.78752 54.4686 6.78752 53.9834C6.78752 53.4982 6.39377 53.1045 5.90862 53.1045Z" fill="url(#paint51_linear_343_5385)"/>
<path d="M10.4367 53.1045H8.73865C8.25349 53.1045 7.85974 53.4982 7.85974 53.9834C7.85974 54.4686 8.25349 54.8623 8.73865 54.8623H10.4367C10.9219 54.8623 11.3156 54.4686 11.3156 53.9834C11.3156 53.4982 10.9219 53.1045 10.4367 53.1045Z" fill="url(#paint52_linear_343_5385)"/>
<path d="M6.39961 45.8793C6.05625 46.2227 6.05625 46.7793 6.39961 47.1227L8.96836 49.6914C9.13359 49.8566 9.35625 49.9492 9.58945 49.9492C9.82266 49.9492 10.0465 49.8566 10.2105 49.6914L12.7793 47.1227C13.1227 46.7793 13.1227 46.2227 12.7793 45.8793C12.4359 45.5359 11.8793 45.5359 11.5359 45.8793L10.4672 46.948V37.2344C10.4672 36.7492 10.0734 36.3555 9.58828 36.3555C9.10312 36.3555 8.70937 36.7492 8.70937 37.2344V46.948L7.64062 45.8793C7.29727 45.5359 6.74062 45.5359 6.39727 45.8793H6.39961Z" fill="url(#paint53_linear_343_5385)"/>
</g>
<defs>
<linearGradient id="paint0_linear_343_5385" x1="32.9036" y1="13.4792" x2="35.4218" y2="13.4792" gradientUnits="userSpaceOnUse">
<stop stop-color="#223962"/>
<stop offset="0.526042" stop-color="#3277BC"/>
<stop offset="0.973958" stop-color="#48ABDF"/>
</linearGradient>
<linearGradient id="paint1_linear_343_5385" x1="35.2837" y1="10.0692" x2="37.5959" y2="10.0692" gradientUnits="userSpaceOnUse">
<stop stop-color="#223962"/>
<stop offset="0.526042" stop-color="#3277BC"/>
<stop offset="0.973958" stop-color="#48ABDF"/>
</linearGradient>
<linearGradient id="paint2_linear_343_5385" x1="24.3926" y1="2.26889" x2="27.4707" y2="2.26889" gradientUnits="userSpaceOnUse">
<stop stop-color="#223962"/>
<stop offset="0.526042" stop-color="#3277BC"/>
<stop offset="0.973958" stop-color="#48ABDF"/>
</linearGradient>
<linearGradient id="paint3_linear_343_5385" x1="22.4021" y1="10.0585" x2="24.7119" y2="10.0585" gradientUnits="userSpaceOnUse">
<stop stop-color="#223962"/>
<stop offset="0.526042" stop-color="#3277BC"/>
<stop offset="0.973958" stop-color="#48ABDF"/>
</linearGradient>
<linearGradient id="paint4_linear_343_5385" x1="32.5327" y1="2.28033" x2="35.6092" y2="2.28033" gradientUnits="userSpaceOnUse">
<stop stop-color="#223962"/>
<stop offset="0.526042" stop-color="#3277BC"/>
<stop offset="0.973958" stop-color="#48ABDF"/>
</linearGradient>
<linearGradient id="paint5_linear_343_5385" x1="22.3401" y1="5.77207" x2="24.5767" y2="5.77207" gradientUnits="userSpaceOnUse">
<stop stop-color="#223962"/>
<stop offset="0.526042" stop-color="#3277BC"/>
<stop offset="0.973958" stop-color="#48ABDF"/>
</linearGradient>
<linearGradient id="paint6_linear_343_5385" x1="28.3042" y1="0.903648" x2="31.7044" y2="0.903648" gradientUnits="userSpaceOnUse">
<stop stop-color="#223962"/>
<stop offset="0.526042" stop-color="#3277BC"/>
<stop offset="0.973958" stop-color="#48ABDF"/>
</linearGradient>
<linearGradient id="paint7_linear_343_5385" x1="35.425" y1="5.78375" x2="37.6623" y2="5.78375" gradientUnits="userSpaceOnUse">
<stop stop-color="#223962"/>
<stop offset="0.526042" stop-color="#3277BC"/>
<stop offset="0.973958" stop-color="#48ABDF"/>
</linearGradient>
<linearGradient id="paint8_linear_343_5385" x1="24.5784" y1="13.4768" x2="27.0977" y2="13.4768" gradientUnits="userSpaceOnUse">
<stop stop-color="#223962"/>
<stop offset="0.526042" stop-color="#3277BC"/>
<stop offset="0.973958" stop-color="#48ABDF"/>
</linearGradient>
<linearGradient id="paint9_linear_343_5385" x1="36.0781" y1="16.0873" x2="38.9236" y2="16.0873" gradientUnits="userSpaceOnUse">
<stop stop-color="#223962"/>
<stop offset="0.526042" stop-color="#3277BC"/>
<stop offset="0.973958" stop-color="#48ABDF"/>
</linearGradient>
<linearGradient id="paint10_linear_343_5385" x1="32.7983" y1="25.3145" x2="36.2542" y2="25.3145" gradientUnits="userSpaceOnUse">
<stop stop-color="#223962"/>
<stop offset="0.526042" stop-color="#3277BC"/>
<stop offset="0.973958" stop-color="#48ABDF"/>
</linearGradient>
<linearGradient id="paint11_linear_343_5385" x1="20.4094" y1="24.642" x2="22.67" y2="24.642" gradientUnits="userSpaceOnUse">
<stop stop-color="#223962"/>
<stop offset="0.526042" stop-color="#3277BC"/>
<stop offset="0.973958" stop-color="#48ABDF"/>
</linearGradient>
<linearGradient id="paint12_linear_343_5385" x1="37.3254" y1="24.6422" x2="39.5895" y2="24.6422" gradientUnits="userSpaceOnUse">
<stop stop-color="#223962"/>
<stop offset="0.526042" stop-color="#3277BC"/>
<stop offset="0.973958" stop-color="#48ABDF"/>
</linearGradient>
<linearGradient id="paint13_linear_343_5385" x1="21.0779" y1="16.0836" x2="23.9248" y2="16.0836" gradientUnits="userSpaceOnUse">
<stop stop-color="#223962"/>
<stop offset="0.526042" stop-color="#3277BC"/>
<stop offset="0.973958" stop-color="#48ABDF"/>
</linearGradient>
<linearGradient id="paint14_linear_343_5385" x1="23.7422" y1="25.3145" x2="27.198" y2="25.3145" gradientUnits="userSpaceOnUse">
<stop stop-color="#223962"/>
<stop offset="0.526042" stop-color="#3277BC"/>
<stop offset="0.973958" stop-color="#48ABDF"/>
</linearGradient>
<linearGradient id="paint15_linear_343_5385" x1="20.4094" y1="20.2895" x2="22.1672" y2="20.2895" gradientUnits="userSpaceOnUse">
<stop stop-color="#223962"/>
<stop offset="0.526042" stop-color="#3277BC"/>
<stop offset="0.973958" stop-color="#48ABDF"/>
</linearGradient>
<linearGradient id="paint16_linear_343_5385" x1="28.2703" y1="25.3145" x2="31.7261" y2="25.3145" gradientUnits="userSpaceOnUse">
<stop stop-color="#223962"/>
<stop offset="0.526042" stop-color="#3277BC"/>
<stop offset="0.973958" stop-color="#48ABDF"/>
</linearGradient>
<linearGradient id="paint17_linear_343_5385" x1="37.8315" y1="20.2924" x2="39.5894" y2="20.2924" gradientUnits="userSpaceOnUse">
<stop stop-color="#223962"/>
<stop offset="0.526042" stop-color="#3277BC"/>
<stop offset="0.973958" stop-color="#48ABDF"/>
</linearGradient>
<linearGradient id="paint18_linear_343_5385" x1="26.5527" y1="14.4834" x2="33.4475" y2="14.4834" gradientUnits="userSpaceOnUse">
<stop stop-color="#223962"/>
<stop offset="0.526042" stop-color="#3277BC"/>
<stop offset="0.973958" stop-color="#48ABDF"/>
</linearGradient>
<linearGradient id="paint19_linear_343_5385" x1="-7.14513e-08" y1="13.0969" x2="19.1801" y2="13.0969" gradientUnits="userSpaceOnUse">
<stop stop-color="#223962"/>
<stop offset="0.526042" stop-color="#3277BC"/>
<stop offset="0.973958" stop-color="#48ABDF"/>
</linearGradient>
<linearGradient id="paint20_linear_343_5385" x1="6.53088" y1="6.40996" x2="8.2887" y2="6.40996" gradientUnits="userSpaceOnUse">
<stop stop-color="#223962"/>
<stop offset="0.526042" stop-color="#3277BC"/>
<stop offset="0.973958" stop-color="#48ABDF"/>
</linearGradient>
<linearGradient id="paint21_linear_343_5385" x1="10.8914" y1="6.40996" x2="12.6492" y2="6.40996" gradientUnits="userSpaceOnUse">
<stop stop-color="#223962"/>
<stop offset="0.526042" stop-color="#3277BC"/>
<stop offset="0.973958" stop-color="#48ABDF"/>
</linearGradient>
<linearGradient id="paint22_linear_343_5385" x1="6.95215" y1="10.8335" x2="12.2278" y2="10.8335" gradientUnits="userSpaceOnUse">
<stop stop-color="#223962"/>
<stop offset="0.526042" stop-color="#3277BC"/>
<stop offset="0.973958" stop-color="#48ABDF"/>
</linearGradient>
<linearGradient id="paint23_linear_343_5385" x1="40.821" y1="13.0969" x2="60.0011" y2="13.0969" gradientUnits="userSpaceOnUse">
<stop stop-color="#223962"/>
<stop offset="0.526042" stop-color="#3277BC"/>
<stop offset="0.973958" stop-color="#48ABDF"/>
</linearGradient>
<linearGradient id="paint24_linear_343_5385" x1="47.3508" y1="6.40996" x2="49.1086" y2="6.40996" gradientUnits="userSpaceOnUse">
<stop stop-color="#223962"/>
<stop offset="0.526042" stop-color="#3277BC"/>
<stop offset="0.973958" stop-color="#48ABDF"/>
</linearGradient>
<linearGradient id="paint25_linear_343_5385" x1="51.7114" y1="6.40996" x2="53.4692" y2="6.40996" gradientUnits="userSpaceOnUse">
<stop stop-color="#223962"/>
<stop offset="0.526042" stop-color="#3277BC"/>
<stop offset="0.973958" stop-color="#48ABDF"/>
</linearGradient>
<linearGradient id="paint26_linear_343_5385" x1="47.7722" y1="10.8335" x2="53.0467" y2="10.8335" gradientUnits="userSpaceOnUse">
<stop stop-color="#223962"/>
<stop offset="0.526042" stop-color="#3277BC"/>
<stop offset="0.973958" stop-color="#48ABDF"/>
</linearGradient>
<linearGradient id="paint27_linear_343_5385" x1="40.821" y1="41.7662" x2="60.0011" y2="41.7662" gradientUnits="userSpaceOnUse">
<stop stop-color="#223962"/>
<stop offset="0.526042" stop-color="#3277BC"/>
<stop offset="0.973958" stop-color="#48ABDF"/>
</linearGradient>
<linearGradient id="paint28_linear_343_5385" x1="47.3508" y1="35.0799" x2="49.1086" y2="35.0799" gradientUnits="userSpaceOnUse">
<stop stop-color="#223962"/>
<stop offset="0.526042" stop-color="#3277BC"/>
<stop offset="0.973958" stop-color="#48ABDF"/>
</linearGradient>
<linearGradient id="paint29_linear_343_5385" x1="51.7114" y1="35.0799" x2="53.4692" y2="35.0799" gradientUnits="userSpaceOnUse">
<stop stop-color="#223962"/>
<stop offset="0.526042" stop-color="#3277BC"/>
<stop offset="0.973958" stop-color="#48ABDF"/>
</linearGradient>
<linearGradient id="paint30_linear_343_5385" x1="47.771" y1="39.5034" x2="53.0476" y2="39.5034" gradientUnits="userSpaceOnUse">
<stop stop-color="#223962"/>
<stop offset="0.526042" stop-color="#3277BC"/>
<stop offset="0.973958" stop-color="#48ABDF"/>
</linearGradient>
<linearGradient id="paint31_linear_343_5385" x1="20.4094" y1="41.7662" x2="39.5895" y2="41.7662" gradientUnits="userSpaceOnUse">
<stop stop-color="#223962"/>
<stop offset="0.526042" stop-color="#3277BC"/>
<stop offset="0.973958" stop-color="#48ABDF"/>
</linearGradient>
<linearGradient id="paint32_linear_343_5385" x1="26.9414" y1="35.0799" x2="28.6992" y2="35.0799" gradientUnits="userSpaceOnUse">
<stop stop-color="#223962"/>
<stop offset="0.526042" stop-color="#3277BC"/>
<stop offset="0.973958" stop-color="#48ABDF"/>
</linearGradient>
<linearGradient id="paint33_linear_343_5385" x1="31.3008" y1="35.0799" x2="33.0586" y2="35.0799" gradientUnits="userSpaceOnUse">
<stop stop-color="#223962"/>
<stop offset="0.526042" stop-color="#3277BC"/>
<stop offset="0.973958" stop-color="#48ABDF"/>
</linearGradient>
<linearGradient id="paint34_linear_343_5385" x1="27.3616" y1="39.5034" x2="32.637" y2="39.5034" gradientUnits="userSpaceOnUse">
<stop stop-color="#223962"/>
<stop offset="0.526042" stop-color="#3277BC"/>
<stop offset="0.973958" stop-color="#48ABDF"/>
</linearGradient>
<linearGradient id="paint35_linear_343_5385" x1="12.4929" y1="42.1477" x2="15.0123" y2="42.1477" gradientUnits="userSpaceOnUse">
<stop stop-color="#223962"/>
<stop offset="0.526042" stop-color="#3277BC"/>
<stop offset="0.973958" stop-color="#48ABDF"/>
</linearGradient>
<linearGradient id="paint36_linear_343_5385" x1="1.99158" y1="38.7272" x2="4.30139" y2="38.7272" gradientUnits="userSpaceOnUse">
<stop stop-color="#223962"/>
<stop offset="0.526042" stop-color="#3277BC"/>
<stop offset="0.973958" stop-color="#48ABDF"/>
</linearGradient>
<linearGradient id="paint37_linear_343_5385" x1="7.89453" y1="29.5726" x2="11.2938" y2="29.5726" gradientUnits="userSpaceOnUse">
<stop stop-color="#223962"/>
<stop offset="0.526042" stop-color="#3277BC"/>
<stop offset="0.973958" stop-color="#48ABDF"/>
</linearGradient>
<linearGradient id="paint38_linear_343_5385" x1="1.92944" y1="34.441" x2="4.1672" y2="34.441" gradientUnits="userSpaceOnUse">
<stop stop-color="#223962"/>
<stop offset="0.526042" stop-color="#3277BC"/>
<stop offset="0.973958" stop-color="#48ABDF"/>
</linearGradient>
<linearGradient id="paint39_linear_343_5385" x1="12.1233" y1="30.9485" x2="15.1998" y2="30.9485" gradientUnits="userSpaceOnUse">
<stop stop-color="#223962"/>
<stop offset="0.526042" stop-color="#3277BC"/>
<stop offset="0.973958" stop-color="#48ABDF"/>
</linearGradient>
<linearGradient id="paint40_linear_343_5385" x1="3.98242" y1="30.9388" x2="7.06005" y2="30.9388" gradientUnits="userSpaceOnUse">
<stop stop-color="#223962"/>
<stop offset="0.526042" stop-color="#3277BC"/>
<stop offset="0.973958" stop-color="#48ABDF"/>
</linearGradient>
<linearGradient id="paint41_linear_343_5385" x1="15.0157" y1="34.4521" x2="17.253" y2="34.4521" gradientUnits="userSpaceOnUse">
<stop stop-color="#223962"/>
<stop offset="0.526042" stop-color="#3277BC"/>
<stop offset="0.973958" stop-color="#48ABDF"/>
</linearGradient>
<linearGradient id="paint42_linear_343_5385" x1="14.8744" y1="38.7378" x2="17.1855" y2="38.7378" gradientUnits="userSpaceOnUse">
<stop stop-color="#223962"/>
<stop offset="0.526042" stop-color="#3277BC"/>
<stop offset="0.973958" stop-color="#48ABDF"/>
</linearGradient>
<linearGradient id="paint43_linear_343_5385" x1="4.16797" y1="42.1462" x2="6.68709" y2="42.1462" gradientUnits="userSpaceOnUse">
<stop stop-color="#223962"/>
<stop offset="0.526042" stop-color="#3277BC"/>
<stop offset="0.973958" stop-color="#48ABDF"/>
</linearGradient>
<linearGradient id="paint44_linear_343_5385" x1="-8.42119e-09" y1="53.31" x2="2.26055" y2="53.31" gradientUnits="userSpaceOnUse">
<stop stop-color="#223962"/>
<stop offset="0.526042" stop-color="#3277BC"/>
<stop offset="0.973958" stop-color="#48ABDF"/>
</linearGradient>
<linearGradient id="paint45_linear_343_5385" x1="12.3879" y1="53.9834" x2="15.8438" y2="53.9834" gradientUnits="userSpaceOnUse">
<stop stop-color="#223962"/>
<stop offset="0.526042" stop-color="#3277BC"/>
<stop offset="0.973958" stop-color="#48ABDF"/>
</linearGradient>
<linearGradient id="paint46_linear_343_5385" x1="16.916" y1="53.3121" x2="19.1801" y2="53.3121" gradientUnits="userSpaceOnUse">
<stop stop-color="#223962"/>
<stop offset="0.526042" stop-color="#3277BC"/>
<stop offset="0.973958" stop-color="#48ABDF"/>
</linearGradient>
<linearGradient id="paint47_linear_343_5385" x1="15.6687" y1="44.7569" x2="18.5153" y2="44.7569" gradientUnits="userSpaceOnUse">
<stop stop-color="#223962"/>
<stop offset="0.526042" stop-color="#3277BC"/>
<stop offset="0.973958" stop-color="#48ABDF"/>
</linearGradient>
<linearGradient id="paint48_linear_343_5385" x1="17.4222" y1="48.9623" x2="19.1801" y2="48.9623" gradientUnits="userSpaceOnUse">
<stop stop-color="#223962"/>
<stop offset="0.526042" stop-color="#3277BC"/>
<stop offset="0.973958" stop-color="#48ABDF"/>
</linearGradient>
<linearGradient id="paint49_linear_343_5385" x1="0.668579" y1="44.7531" x2="3.51671" y2="44.7531" gradientUnits="userSpaceOnUse">
<stop stop-color="#223962"/>
<stop offset="0.526042" stop-color="#3277BC"/>
<stop offset="0.973958" stop-color="#48ABDF"/>
</linearGradient>
<linearGradient id="paint50_linear_343_5385" x1="-6.54836e-09" y1="48.9584" x2="1.75781" y2="48.9584" gradientUnits="userSpaceOnUse">
<stop stop-color="#223962"/>
<stop offset="0.526042" stop-color="#3277BC"/>
<stop offset="0.973958" stop-color="#48ABDF"/>
</linearGradient>
<linearGradient id="paint51_linear_343_5385" x1="3.33167" y1="53.9834" x2="6.78752" y2="53.9834" gradientUnits="userSpaceOnUse">
<stop stop-color="#223962"/>
<stop offset="0.526042" stop-color="#3277BC"/>
<stop offset="0.973958" stop-color="#48ABDF"/>
</linearGradient>
<linearGradient id="paint52_linear_343_5385" x1="7.85974" y1="53.9834" x2="11.3156" y2="53.9834" gradientUnits="userSpaceOnUse">
<stop stop-color="#223962"/>
<stop offset="0.526042" stop-color="#3277BC"/>
<stop offset="0.973958" stop-color="#48ABDF"/>
</linearGradient>
<linearGradient id="paint53_linear_343_5385" x1="6.14209" y1="43.1523" x2="13.0368" y2="43.1523" gradientUnits="userSpaceOnUse">
<stop stop-color="#223962"/>
<stop offset="0.526042" stop-color="#3277BC"/>
<stop offset="0.973958" stop-color="#48ABDF"/>
</linearGradient>
<clipPath id="clip0_343_5385">
<rect width="60" height="54.8625" fill="white"/>
</clipPath>
</defs>
</svg>
