<svg width="60" height="60" viewBox="0 0 60 60" fill="none" xmlns="http://www.w3.org/2000/svg">
<g clip-path="url(#clip0_343_4611)">
<path d="M3.41014 58.2422H0.878902C0.393748 58.2422 0 58.6359 0 59.1211C0 59.6062 0.393748 60 0.878902 60H3.41014C3.89529 60 4.28904 59.6062 4.28904 59.1211C4.28904 58.6359 3.89529 58.2422 3.41014 58.2422Z" fill="url(#paint0_linear_343_4611)"/>
<path d="M7.52519 58.2422H6.53906C6.0539 58.2422 5.66016 58.6359 5.66016 59.1211C5.66016 59.6062 6.0539 60 6.53906 60H7.52519C8.01034 60 8.40409 59.6062 8.40409 59.1211C8.40409 58.6359 8.01034 58.2422 7.52519 58.2422Z" fill="url(#paint1_linear_343_4611)"/>
<path d="M12.1271 54.9805H0.878902C0.393748 54.9805 0 55.3733 0 55.8594C0 56.3454 0.393748 56.7383 0.878902 56.7383H12.1271C12.6122 56.7383 13.006 56.3445 13.006 55.8594C13.006 55.3742 12.6122 54.9805 12.1271 54.9805Z" fill="url(#paint2_linear_343_4611)"/>
<path d="M5.98706 1.7578H8.51829C9.00345 1.7578 9.3972 1.36406 9.3972 0.878902C9.3972 0.393748 9.00345 0 8.51829 0H5.98706C5.5019 0 5.10815 0.393748 5.10815 0.878902C5.10815 1.36406 5.5019 1.7578 5.98706 1.7578Z" fill="url(#paint3_linear_343_4611)"/>
<path d="M11.6472 1.7578H12.6333C13.1185 1.7578 13.5122 1.36406 13.5122 0.878902C13.5122 0.393748 13.1185 0 12.6333 0H11.6472C11.1621 0 10.7683 0.393748 10.7683 0.878902C10.7683 1.36406 11.1621 1.7578 11.6472 1.7578Z" fill="url(#paint4_linear_343_4611)"/>
<path d="M5.10815 4.14062C5.10815 4.62577 5.5019 5.01952 5.98706 5.01952H17.2352C17.7204 5.01952 18.1141 4.62577 18.1141 4.14062C18.1141 3.65547 17.7204 3.26172 17.2352 3.26172H5.98706C5.5019 3.26172 5.10815 3.65547 5.10815 4.14062Z" fill="url(#paint5_linear_343_4611)"/>
<path d="M30.3669 21.7682H38.0582C38.2911 21.7682 38.5152 21.6759 38.6796 21.5106L43.278 16.9122C45.1052 19.1499 46.1696 21.907 46.3032 24.8091C46.3427 25.6564 47.0344 26.32 47.8791 26.32H49.6492C50.1343 26.32 50.5281 25.9262 50.5281 25.4411C50.5281 24.9559 50.1343 24.5622 49.6492 24.5622H48.0504C47.8632 21.2821 46.6257 18.1743 44.5269 15.6633L45.7996 14.3906C46.1432 14.047 46.1432 13.4907 45.7996 13.1479C45.4559 12.8051 44.8996 12.8042 44.5568 13.1479L43.3246 14.3801C40.6976 11.8796 37.2944 10.4004 33.683 10.1939V2.93943C45.4076 3.39119 54.854 12.8376 55.3058 24.5622H53.555C53.0699 24.5622 52.6761 24.9559 52.6761 25.4411C52.6761 25.9262 53.0699 26.32 53.555 26.32H55.4904C55.921 26.32 56.3236 26.1495 56.6241 25.8401C56.9238 25.5307 57.082 25.1238 57.0689 24.6931C56.6795 11.8946 46.3498 1.56483 33.5512 1.17548C33.1214 1.16317 32.7136 1.32049 32.4051 1.6202C32.0957 1.92078 31.9252 2.32332 31.9252 2.75398V10.3653C31.9252 11.2099 32.5888 11.9025 33.4361 11.9411C36.6704 12.0906 39.7246 13.3948 42.0809 15.6237L37.6943 20.0103H30.3669C29.8818 20.0103 29.488 20.4041 29.488 20.8892C29.488 21.3744 29.8818 21.7682 30.3669 21.7682Z" fill="url(#paint6_linear_343_4611)"/>
<path d="M33.7771 27.6406C33.7771 27.1555 33.3833 26.7617 32.8982 26.7617H30.3669C29.8818 26.7617 29.488 27.1555 29.488 27.6406C29.488 28.1258 29.8818 28.5195 30.3669 28.5195H32.8982C33.3833 28.5195 33.7771 28.1258 33.7771 27.6406Z" fill="url(#paint7_linear_343_4611)"/>
<path d="M36.0271 26.7617C35.5419 26.7617 35.1482 27.1555 35.1482 27.6406C35.1482 28.1258 35.5419 28.5195 36.0271 28.5195H37.0132C37.4984 28.5195 37.8921 28.1258 37.8921 27.6406C37.8921 27.1555 37.4984 26.7617 37.0132 26.7617H36.0271Z" fill="url(#paint8_linear_343_4611)"/>
<path d="M30.3669 25.2578H40.5938C41.079 25.2578 41.4727 24.8641 41.4727 24.3789C41.4727 23.8937 41.079 23.5 40.5938 23.5H30.3669C29.8818 23.5 29.488 23.8937 29.488 24.3789C29.488 24.8641 29.8818 25.2578 30.3669 25.2578Z" fill="url(#paint9_linear_343_4611)"/>
<path d="M50.0992 47.5855C50.2644 47.7508 50.4876 47.8431 50.7206 47.8431H58.4118C58.897 47.8431 59.2907 47.4493 59.2907 46.9642C59.2907 46.479 58.897 46.0853 58.4118 46.0853H51.0844L47.952 42.9529C49.5692 39.7958 50.4797 36.2996 50.5905 32.6671C50.6037 32.2364 50.4455 31.8295 50.1458 31.5201C49.8452 31.2107 49.4426 31.0402 49.012 31.0402H41.4016C40.5569 31.0402 39.8644 31.7047 39.8257 32.5519C39.6851 35.5956 38.5328 38.4581 36.5527 40.7442C36.5483 40.7486 36.543 40.7521 36.5386 40.7574C36.5078 40.7881 36.4806 40.8215 36.456 40.8549C36.1844 41.1616 35.8988 41.4578 35.5982 41.7417C34.7465 42.5459 33.8078 43.2271 32.8059 43.7773L29.4924 40.4638C29.3272 40.2986 29.104 40.2063 28.8711 40.2063H21.4558C20.9706 40.2063 20.5769 40.6 20.5769 41.0852C20.5769 41.5703 20.9706 41.9641 21.4558 41.9641H28.5072L31.1052 44.5621C29.5329 45.158 27.848 45.4577 26.1236 45.4314C23.0176 45.3857 19.9933 44.2448 17.607 42.2198C17.237 41.9061 16.6824 41.9509 16.3678 42.3209C16.054 42.6909 16.0988 43.2455 16.4689 43.5593C18.9992 45.7065 22.165 46.9738 25.4477 47.1646V54.4181C20.7148 54.2353 16.2237 52.5795 12.5103 49.6721L15.2498 46.9325C15.5935 46.5889 15.5935 46.0325 15.2498 45.6898C14.9062 45.347 14.3498 45.347 14.0071 45.6898L11.1656 48.5312C10.9204 48.3071 10.6787 48.0777 10.4422 47.8413C6.37907 43.7887 4.04559 38.4669 3.82674 32.7963H11.0803C11.2376 35.5428 12.1368 38.1866 13.6959 40.4761C13.8664 40.7257 14.1424 40.8602 14.4228 40.8602C14.5933 40.8602 14.7656 40.811 14.9167 40.7073C15.3175 40.4339 15.4221 39.8872 15.1488 39.4865C13.6713 37.3165 12.8636 34.7879 12.8153 32.174C12.7494 28.6602 14.0325 25.3054 16.4267 22.7276C18.8085 20.1638 22.0332 18.6363 25.5075 18.428C26.3433 18.3779 26.9972 17.6853 26.9972 16.853V15.0723C26.9972 14.5872 26.6035 14.1934 26.1183 14.1934C25.6332 14.1934 25.2394 14.5872 25.2394 15.0723V16.6842C21.3749 16.9576 17.7925 18.6749 15.1391 21.5314C12.7001 24.1567 11.2825 27.4965 11.0803 31.0376H3.8241C4.03504 25.5524 6.21911 20.3835 10.0406 16.3801C11.9197 14.4123 14.0967 12.8258 16.4733 11.6657L19.1135 14.3059C19.2849 14.4773 19.5099 14.5634 19.7349 14.5634C19.9599 14.5634 20.1849 14.4773 20.3562 14.3059C20.6999 13.9623 20.699 13.4059 20.3562 13.0632L18.2047 10.9116C20.431 10.0494 22.7996 9.54227 25.2386 9.42626V11.1682C25.2386 11.6534 25.6323 12.0471 26.1175 12.0471C26.6026 12.0471 26.9964 11.6534 26.9964 11.1682V9.23993C26.9964 8.81278 26.8197 8.39706 26.5112 8.10087C26.2036 7.80468 25.7808 7.64472 25.3554 7.66142C22.3909 7.77831 19.5195 8.4287 16.8538 9.56073L14.3006 7.00752C14.1354 6.84228 13.9121 6.75 13.6792 6.75H5.98796C5.50281 6.75 5.10906 7.14375 5.10906 7.6289C5.10906 8.11406 5.50281 8.5078 5.98796 8.5078H13.3154L15.1655 10.3579C12.8126 11.5804 10.6523 13.1959 8.76968 15.1672C4.43846 19.7041 2.06015 25.6297 2.05136 31.8804C2.05136 31.8927 2.0496 31.9051 2.0496 31.9174C2.0496 31.9288 2.05048 31.9402 2.05136 31.9516C2.05136 32.0246 2.05048 32.0967 2.05136 32.1687C2.1164 38.5434 4.65466 44.5516 9.20035 49.0849C9.43677 49.3205 9.67759 49.549 9.92105 49.774L8.20719 51.4879H0.878902C0.393748 51.4896 0 51.8834 0 52.3685C0 52.8537 0.393748 53.2474 0.878902 53.2474H8.57017C8.80308 53.2474 9.0272 53.1551 9.19156 52.9899L11.2579 50.9236C15.4898 54.2968 20.6788 56.1522 26.1324 56.1944C26.1966 56.1944 26.2598 56.1944 26.3249 56.1944C32.6371 56.1944 38.6137 53.78 43.1699 49.3829C44.6851 47.9213 45.985 46.2944 47.0573 44.5437L50.0983 47.5847L50.0992 47.5855ZM27.2047 54.419V47.1663C29.0328 47.0626 30.8046 46.6346 32.4526 45.9104L34.9135 48.3713C35.0849 48.5427 35.3099 48.6288 35.5349 48.6288C35.7599 48.6288 35.9849 48.5427 36.1563 48.3713C36.4999 48.0276 36.4999 47.4713 36.1563 47.1285L34.0944 45.0666C35.0603 44.4927 35.9691 43.8089 36.8049 43.0196C36.935 42.8966 37.0624 42.7709 37.1872 42.6444C38.8431 44.2949 40.5613 46.0114 42.3112 47.7631C42.1926 47.8826 42.073 48.0013 41.9518 48.1182C37.9369 51.9924 32.7347 54.2054 27.2055 54.4181L27.2047 54.419ZM43.5013 46.4676C41.7426 44.7063 40.0155 42.9819 38.3526 41.3242C40.2687 38.8844 41.3945 35.9304 41.5729 32.798H48.8274C48.7079 35.9058 47.9564 38.9029 46.6416 41.6415L45.2863 40.2863C44.9427 39.9435 44.3863 39.9435 44.0435 40.2863C43.6999 40.6299 43.6999 41.1863 44.0435 41.529L45.7776 43.2631C45.1184 44.3881 44.3582 45.4604 43.5021 46.4676H43.5013Z" fill="url(#paint10_linear_343_4611)"/>
<path d="M58.4118 52.8369H55.8806C55.3955 52.8369 55.0017 53.2307 55.0017 53.7158C55.0017 54.201 55.3955 54.5947 55.8806 54.5947H58.4118C58.897 54.5947 59.2907 54.201 59.2907 53.7158C59.2907 53.2307 58.897 52.8369 58.4118 52.8369Z" fill="url(#paint11_linear_343_4611)"/>
<path d="M52.7525 52.8369H51.7664C51.2812 52.8369 50.8875 53.2307 50.8875 53.7158C50.8875 54.201 51.2812 54.5947 51.7664 54.5947H52.7525C53.2376 54.5947 53.6314 54.201 53.6314 53.7158C53.6314 53.2307 53.2376 52.8369 52.7525 52.8369Z" fill="url(#paint12_linear_343_4611)"/>
<path d="M59.2906 50.4541C59.2906 49.9689 58.8969 49.5752 58.4117 49.5752H48.1848C47.6997 49.5752 47.3059 49.9689 47.3059 50.4541C47.3059 50.9393 47.6997 51.333 48.1848 51.333H58.4117C58.8969 51.333 59.2906 50.9393 59.2906 50.4541Z" fill="url(#paint13_linear_343_4611)"/>
<path d="M23.9861 34.7715C24.4712 34.7715 24.865 34.3777 24.865 33.8926C24.865 33.4074 24.4712 33.0137 23.9861 33.0137H21.4548C20.9697 33.0137 20.5759 33.4074 20.5759 33.8926C20.5759 34.3777 20.9697 34.7715 21.4548 34.7715H23.9861Z" fill="url(#paint14_linear_343_4611)"/>
<path d="M26.2361 33.8926C26.2361 34.3777 26.6298 34.7715 27.115 34.7715H28.1011C28.5863 34.7715 28.98 34.3777 28.98 33.8926C28.98 33.4074 28.5863 33.0137 28.1011 33.0137H27.115C26.6298 33.0137 26.2361 33.4074 26.2361 33.8926Z" fill="url(#paint15_linear_343_4611)"/>
<path d="M21.4548 38.0332H32.1924C32.6775 38.0332 33.0713 37.6394 33.0713 37.1543C33.0713 36.6691 32.6775 36.2754 32.1924 36.2754H21.4548C20.9697 36.2754 20.5759 36.6691 20.5759 37.1543C20.5759 37.6394 20.9697 38.0332 21.4548 38.0332Z" fill="url(#paint16_linear_343_4611)"/>
</g>
<defs>
<linearGradient id="paint0_linear_343_4611" x1="-1.59779e-08" y1="59.1211" x2="4.28904" y2="59.1211" gradientUnits="userSpaceOnUse">
<stop stop-color="#223962"/>
<stop offset="0.526042" stop-color="#3277BC"/>
<stop offset="0.973958" stop-color="#48ABDF"/>
</linearGradient>
<linearGradient id="paint1_linear_343_4611" x1="5.66016" y1="59.1211" x2="8.40409" y2="59.1211" gradientUnits="userSpaceOnUse">
<stop stop-color="#223962"/>
<stop offset="0.526042" stop-color="#3277BC"/>
<stop offset="0.973958" stop-color="#48ABDF"/>
</linearGradient>
<linearGradient id="paint2_linear_343_4611" x1="-4.84511e-08" y1="55.8594" x2="13.006" y2="55.8594" gradientUnits="userSpaceOnUse">
<stop stop-color="#223962"/>
<stop offset="0.526042" stop-color="#3277BC"/>
<stop offset="0.973958" stop-color="#48ABDF"/>
</linearGradient>
<linearGradient id="paint3_linear_343_4611" x1="5.10815" y1="0.878902" x2="9.3972" y2="0.878902" gradientUnits="userSpaceOnUse">
<stop stop-color="#223962"/>
<stop offset="0.526042" stop-color="#3277BC"/>
<stop offset="0.973958" stop-color="#48ABDF"/>
</linearGradient>
<linearGradient id="paint4_linear_343_4611" x1="10.7683" y1="0.878902" x2="13.5122" y2="0.878902" gradientUnits="userSpaceOnUse">
<stop stop-color="#223962"/>
<stop offset="0.526042" stop-color="#3277BC"/>
<stop offset="0.973958" stop-color="#48ABDF"/>
</linearGradient>
<linearGradient id="paint5_linear_343_4611" x1="5.10815" y1="4.14062" x2="18.1141" y2="4.14062" gradientUnits="userSpaceOnUse">
<stop stop-color="#223962"/>
<stop offset="0.526042" stop-color="#3277BC"/>
<stop offset="0.973958" stop-color="#48ABDF"/>
</linearGradient>
<linearGradient id="paint6_linear_343_4611" x1="29.488" y1="13.7474" x2="57.0696" y2="13.7474" gradientUnits="userSpaceOnUse">
<stop stop-color="#223962"/>
<stop offset="0.526042" stop-color="#3277BC"/>
<stop offset="0.973958" stop-color="#48ABDF"/>
</linearGradient>
<linearGradient id="paint7_linear_343_4611" x1="29.488" y1="27.6406" x2="33.7771" y2="27.6406" gradientUnits="userSpaceOnUse">
<stop stop-color="#223962"/>
<stop offset="0.526042" stop-color="#3277BC"/>
<stop offset="0.973958" stop-color="#48ABDF"/>
</linearGradient>
<linearGradient id="paint8_linear_343_4611" x1="35.1482" y1="27.6406" x2="37.8921" y2="27.6406" gradientUnits="userSpaceOnUse">
<stop stop-color="#223962"/>
<stop offset="0.526042" stop-color="#3277BC"/>
<stop offset="0.973958" stop-color="#48ABDF"/>
</linearGradient>
<linearGradient id="paint9_linear_343_4611" x1="29.488" y1="24.3789" x2="41.4727" y2="24.3789" gradientUnits="userSpaceOnUse">
<stop stop-color="#223962"/>
<stop offset="0.526042" stop-color="#3277BC"/>
<stop offset="0.973958" stop-color="#48ABDF"/>
</linearGradient>
<linearGradient id="paint10_linear_343_4611" x1="-2.20875e-07" y1="31.4722" x2="59.2907" y2="31.4722" gradientUnits="userSpaceOnUse">
<stop stop-color="#223962"/>
<stop offset="0.526042" stop-color="#3277BC"/>
<stop offset="0.973958" stop-color="#48ABDF"/>
</linearGradient>
<linearGradient id="paint11_linear_343_4611" x1="55.0017" y1="53.7158" x2="59.2907" y2="53.7158" gradientUnits="userSpaceOnUse">
<stop stop-color="#223962"/>
<stop offset="0.526042" stop-color="#3277BC"/>
<stop offset="0.973958" stop-color="#48ABDF"/>
</linearGradient>
<linearGradient id="paint12_linear_343_4611" x1="50.8875" y1="53.7158" x2="53.6314" y2="53.7158" gradientUnits="userSpaceOnUse">
<stop stop-color="#223962"/>
<stop offset="0.526042" stop-color="#3277BC"/>
<stop offset="0.973958" stop-color="#48ABDF"/>
</linearGradient>
<linearGradient id="paint13_linear_343_4611" x1="47.3059" y1="50.4541" x2="59.2906" y2="50.4541" gradientUnits="userSpaceOnUse">
<stop stop-color="#223962"/>
<stop offset="0.526042" stop-color="#3277BC"/>
<stop offset="0.973958" stop-color="#48ABDF"/>
</linearGradient>
<linearGradient id="paint14_linear_343_4611" x1="20.5759" y1="33.8926" x2="24.865" y2="33.8926" gradientUnits="userSpaceOnUse">
<stop stop-color="#223962"/>
<stop offset="0.526042" stop-color="#3277BC"/>
<stop offset="0.973958" stop-color="#48ABDF"/>
</linearGradient>
<linearGradient id="paint15_linear_343_4611" x1="26.2361" y1="33.8926" x2="28.98" y2="33.8926" gradientUnits="userSpaceOnUse">
<stop stop-color="#223962"/>
<stop offset="0.526042" stop-color="#3277BC"/>
<stop offset="0.973958" stop-color="#48ABDF"/>
</linearGradient>
<linearGradient id="paint16_linear_343_4611" x1="20.5759" y1="37.1543" x2="33.0713" y2="37.1543" gradientUnits="userSpaceOnUse">
<stop stop-color="#223962"/>
<stop offset="0.526042" stop-color="#3277BC"/>
<stop offset="0.973958" stop-color="#48ABDF"/>
</linearGradient>
<clipPath id="clip0_343_4611">
<rect width="59.2907" height="60" fill="white"/>
</clipPath>
</defs>
</svg>
