<svg width="60" height="60" viewBox="0 0 60 60" fill="none" xmlns="http://www.w3.org/2000/svg">
<g clip-path="url(#clip0_343_5660)">
<path d="M43.8166 27.5183H41.5823C41.4553 27.5183 41.3423 27.4334 41.3014 27.3069C41.0917 26.6591 40.8287 26.0237 40.5197 25.4182C40.4588 25.299 40.4783 25.1587 40.5683 25.0688L42.1479 23.4892C42.9475 22.6896 42.9475 21.3886 42.1479 20.5889L39.6844 18.1253C38.8847 17.3257 37.5837 17.3257 36.784 18.1253L35.2045 19.7049C35.1145 19.795 34.9739 19.8142 34.8551 19.7535C34.2495 19.4445 33.6139 19.1815 32.9665 18.9717C32.84 18.9308 32.755 18.818 32.755 18.691V16.4565C32.755 15.3258 31.8349 14.4058 30.7042 14.4058H27.2202C26.0895 14.4058 25.1694 15.3258 25.1694 16.4565V18.691C25.1694 18.818 25.0843 18.9308 24.958 18.9717C24.3104 19.1815 23.6749 19.4445 23.0693 19.7535C22.9501 19.8142 22.8097 19.7949 22.7198 19.705L21.1403 18.1254C20.3407 17.3258 19.0396 17.3257 18.24 18.1254L15.7764 20.589C14.9768 21.3886 14.9768 22.6896 15.7765 23.4893L17.3561 25.0689C17.4459 25.1588 17.4655 25.2992 17.4046 25.4182C17.0955 26.0237 16.8326 26.6591 16.6228 27.3068C16.5818 27.4333 16.4689 27.5182 16.3419 27.5182H14.1076C12.9769 27.5182 12.0568 28.4383 12.0568 29.569V33.0531C12.0568 34.1838 12.9769 35.1039 14.1076 35.1039H16.3419C16.4689 35.1039 16.5819 35.1888 16.6228 35.3153C16.8326 35.9631 17.0957 36.5986 17.4046 37.2039C17.4655 37.3231 17.4459 37.4635 17.3561 37.5533L15.8657 39.0435C14.3948 38.3114 12.7383 37.8987 10.9868 37.8987C9.2693 37.8987 7.64273 38.2953 6.19324 39.001C5.6093 37.2761 5.21895 35.4819 5.04094 33.6526C4.56715 28.7813 5.59863 23.8641 7.95504 19.6253L9.01723 22.5641C9.1466 22.922 9.4841 23.1446 9.84387 23.1446C9.94312 23.1446 10.044 23.1276 10.1427 23.0919C10.5993 22.9269 10.8354 22.4231 10.6705 21.9666L8.92887 17.1478C8.76387 16.6913 8.25937 16.4553 7.80352 16.62L2.98477 18.3617C2.5282 18.5267 2.29195 19.0304 2.45684 19.487C2.58621 19.8449 2.92371 20.0674 3.28348 20.0674C3.38273 20.0674 3.48363 20.0504 3.58219 20.0148L6.26813 19.044C3.84574 23.5307 2.79352 28.7011 3.29156 33.8228C3.49465 35.9112 3.95449 37.9572 4.64906 39.916C1.83809 41.9081 0 45.1862 0 48.8856C0 51.0401 0.625547 53.1279 1.80902 54.9233C2.07621 55.3287 2.6216 55.4406 3.02648 55.1735C3.43184 54.9063 3.54387 54.3613 3.27668 53.956C2.28293 52.4486 1.75781 50.6952 1.75781 48.8856C1.75781 43.7969 5.89781 39.6567 10.9867 39.6567C16.0755 39.6567 20.2155 43.7969 20.2155 48.8856C20.2155 53.9744 16.0755 58.1145 10.9867 58.1145C9.18234 58.1145 7.43297 57.5918 5.92793 56.6031C5.52211 56.3365 4.9773 56.4494 4.7107 56.8551C4.44422 57.2608 4.55695 57.8057 4.96266 58.0722C6.75516 59.2498 8.83816 59.8723 10.9866 59.8723C14.5973 59.8723 17.8066 58.121 19.8105 55.4236C21.9341 56.2307 24.1668 56.7598 26.45 56.9817C27.2808 57.0625 28.1126 57.1026 28.9427 57.1026C33.953 57.1026 38.8963 55.645 43.085 52.8988C43.491 52.6327 43.6043 52.0879 43.3382 51.6819C43.0719 51.2759 42.527 51.1627 42.1212 51.4288C37.5723 54.4112 32.0674 55.7621 26.6203 55.2322C24.6094 55.0367 22.6409 54.5849 20.7602 53.9008C21.5353 52.3964 21.9734 50.6912 21.9734 48.8856C21.9734 47.3474 21.6551 45.8822 21.0817 44.5518C21.1012 44.5337 21.1209 44.5159 21.14 44.4969L22.7196 42.9174C22.8097 42.8274 22.9505 42.8081 23.0691 42.8687C23.6747 43.1778 24.3102 43.4407 24.9578 43.6505C25.0842 43.6914 25.1692 43.8042 25.1692 43.9313V46.1657C25.1692 47.2964 26.0892 48.2165 27.22 48.2165H30.7039C31.8347 48.2165 32.7547 47.2964 32.7547 46.1657V43.9313C32.7547 43.8042 32.8397 43.6914 32.9661 43.6505C33.6137 43.4407 34.2492 43.1778 34.8548 42.8687C34.9739 42.8078 35.1143 42.8272 35.2042 42.9172L36.7837 44.4968C37.5834 45.2964 38.8845 45.2964 39.6841 44.4968L42.1477 42.0332C42.9472 41.2336 42.9472 39.9326 42.1477 39.1329L40.5681 37.5533C40.4781 37.4635 40.4585 37.323 40.5193 37.2039C40.8284 36.5985 41.0914 35.9631 41.3012 35.3153C41.3422 35.1887 41.4551 35.1038 41.5821 35.1038H43.8164C44.9471 35.1038 45.8672 34.1837 45.8672 33.053V29.5689C45.8674 28.4384 44.9475 27.5183 43.8166 27.5183ZM44.1096 33.0532C44.1096 33.2147 43.9782 33.3462 43.8166 33.3462H41.5823C40.6907 33.3462 39.9056 33.9199 39.6292 34.7739C39.4479 35.3335 39.2208 35.8822 38.9538 36.405C38.5457 37.2051 38.6948 38.1661 39.3252 38.7965L40.9048 40.376C40.9795 40.4507 40.9905 40.5379 40.9905 40.5832C40.9905 40.6286 40.9794 40.7158 40.9048 40.7904L38.4412 43.254C38.3666 43.3287 38.2794 43.3398 38.2341 43.3398C38.1887 43.3398 38.1015 43.3287 38.0269 43.254L36.4473 41.6745C35.8171 41.0442 34.856 40.8948 34.056 41.3032C33.533 41.5701 32.9842 41.7973 32.4247 41.9785C31.5708 42.2549 30.997 43.0399 30.997 43.9316V46.166C30.997 46.3275 30.8657 46.459 30.7041 46.459H27.2201C27.0585 46.459 26.9271 46.3275 26.9271 46.166V43.9316C26.9271 43.0399 26.3534 42.2549 25.4994 41.9785C24.94 41.7973 24.3912 41.5702 23.8682 41.3032C23.5676 41.1498 23.2441 41.0752 22.924 41.0752C22.3925 41.0752 21.8702 41.2812 21.4767 41.6746L20.2173 42.9339C19.4736 41.7845 18.5211 40.7824 17.4141 39.9811L18.5986 38.7967C19.2291 38.1663 19.3782 37.2053 18.97 36.4051C18.7032 35.8825 18.476 35.3336 18.2947 34.774C18.0183 33.9201 17.2332 33.3463 16.3416 33.3463H14.1073C13.9457 33.3463 13.8143 33.2148 13.8143 33.0533V29.5692C13.8143 29.4078 13.9457 29.2763 14.1073 29.2763H16.3416C17.2332 29.2763 18.0182 28.7025 18.2947 27.8486C18.476 27.2891 18.7031 26.7402 18.9701 26.2174C19.3784 25.4174 19.2291 24.4563 18.5987 23.826L17.0191 22.2464C16.9048 22.1322 16.9048 21.9463 17.0191 21.8321L19.4828 19.3684C19.5574 19.2938 19.6446 19.2826 19.69 19.2826C19.7352 19.2826 19.8224 19.2938 19.8971 19.3684L21.4767 20.948C22.1071 21.5782 23.0679 21.7275 23.868 21.3192C24.3911 21.0524 24.9398 20.8252 25.4994 20.644C26.3532 20.3674 26.927 19.5825 26.927 18.6908V16.4564C26.927 16.2949 27.0584 16.1635 27.22 16.1635H30.7039C30.8655 16.1635 30.9969 16.2949 30.9969 16.4564V18.6908C30.9969 19.5825 31.5707 20.3674 32.4246 20.644C32.9841 20.8252 33.5328 21.0523 34.0559 21.3192C34.8555 21.7273 35.8166 21.5782 36.4473 20.9479L38.0269 19.3683C38.1015 19.2937 38.1887 19.2825 38.2341 19.2825C38.2794 19.2825 38.3666 19.2937 38.4412 19.3683L40.9048 21.8319C40.9795 21.9066 40.9905 21.9938 40.9905 22.0391C40.9905 22.0844 40.9794 22.1715 40.9048 22.2463L39.3253 23.8259C38.6948 24.4562 38.5455 25.4173 38.9538 26.2174C39.2207 26.7402 39.4479 27.2891 39.6292 27.8486C39.9057 28.7025 40.6907 29.2762 41.5823 29.2762H43.8166C43.9782 29.2762 44.1096 29.4076 44.1096 29.5691V33.0532Z" fill="url(#paint0_linear_343_5660)"/>
<path d="M32.8152 23.8251C32.4722 23.482 32.0161 23.293 31.5307 23.293H26.3932C25.9078 23.293 25.4517 23.482 25.1087 23.825L21.4761 27.4576C21.1329 27.8006 20.944 28.2568 20.944 28.7422V29.1794C20.944 29.6648 21.3374 30.0583 21.8229 30.0583C22.3084 30.0583 22.7018 29.6648 22.7018 29.1794V28.7422C22.7018 28.7265 22.7078 28.7118 22.7189 28.7007L26.3517 25.0678C26.3626 25.057 26.3777 25.0507 26.3932 25.0507H31.5307C31.5462 25.0507 31.5613 25.0569 31.5722 25.0678L35.205 28.7006C35.2159 28.7115 35.2221 28.7266 35.2221 28.7421V33.8797C35.2221 33.8954 35.216 33.9102 35.205 33.9212L31.5722 37.5541C31.5613 37.5649 31.5462 37.5712 31.5307 37.5712H26.3932C26.3777 37.5712 26.3626 37.565 26.3517 37.5541L22.7188 33.9212C22.7078 33.9102 22.7017 33.8955 22.7017 33.8798V33.281C22.7017 32.7956 22.3083 32.4021 21.8228 32.4021C21.3372 32.4021 20.9438 32.7956 20.9438 33.281V33.8798C20.9438 34.3651 21.1328 34.8213 21.4758 35.1642L25.1086 38.7969C25.4516 39.14 25.9077 39.329 26.3931 39.329H31.5306C32.016 39.329 32.4721 39.14 32.8151 38.797L36.4479 35.1641C36.7909 34.8209 36.9798 34.365 36.9798 33.8798V28.7422C36.9798 28.257 36.7909 27.8008 36.4479 27.4578L32.8152 23.8251Z" fill="url(#paint1_linear_343_5660)"/>
<path d="M10.9867 41.7632C10.5012 41.7632 10.1078 42.1567 10.1078 42.6421V48.8854C10.1078 49.3708 10.5012 49.7643 10.9867 49.7643H15.9619C16.4474 49.7643 16.8408 49.3708 16.8408 48.8854C16.8408 48.4 16.4474 48.0065 15.9619 48.0065H11.8656V42.6421C11.8656 42.1567 11.4722 41.7632 10.9867 41.7632Z" fill="url(#paint2_linear_343_5660)"/>
<path d="M48.3096 11.226C48.7951 11.226 49.1885 10.8325 49.1885 10.3471V9.75684C49.1885 9.27145 48.7951 8.87793 48.3096 8.87793C47.8241 8.87793 47.4307 9.27145 47.4307 9.75684V10.3471C47.4307 10.8325 47.8242 11.226 48.3096 11.226Z" fill="url(#paint3_linear_343_5660)"/>
<path d="M50.9921 11.226C51.4776 11.226 51.871 10.8325 51.871 10.3471V9.75684C51.871 9.27145 51.4776 8.87793 50.9921 8.87793C50.5066 8.87793 50.1132 9.27145 50.1132 9.75684V10.3471C50.1132 10.8325 50.5066 11.226 50.9921 11.226Z" fill="url(#paint4_linear_343_5660)"/>
<path d="M26.7209 35.2581C26.9976 35.5345 27.3654 35.6868 27.7565 35.6868H30.1678C30.5591 35.6868 30.927 35.5344 31.2037 35.2577L32.9087 33.5527C33.1853 33.276 33.3378 32.9081 33.3378 32.5168V30.1054C33.3378 29.7142 33.1853 29.3463 32.9087 29.0696L31.2038 27.3648C30.9272 27.088 30.5592 26.9355 30.1678 26.9355H27.7565C27.3653 26.9355 26.9974 27.0879 26.7205 27.3646L25.0154 29.0696C24.7389 29.3463 24.5864 29.7142 24.5864 30.1055V32.5167C24.5864 32.908 24.7389 33.2759 25.0154 33.5525L26.7205 35.2576C26.7206 35.2579 26.7208 35.258 26.7209 35.2581ZM26.3442 30.2269L27.8778 28.6934H30.0464L31.5799 30.2268V32.3954L30.0464 33.9288H27.8778L26.3442 32.3953V30.2269Z" fill="url(#paint5_linear_343_5660)"/>
<path d="M60 10.4766C60 4.77006 55.3574 0.127441 49.6509 0.127441C47.5027 0.127441 45.4403 0.782285 43.6868 2.02107C43.2904 2.30115 43.196 2.84959 43.4762 3.24604C43.7562 3.64236 44.3046 3.73682 44.7012 3.45674C46.1562 2.42865 47.8677 1.88525 49.6508 1.88525C54.3881 1.88525 58.2421 5.73932 58.2421 10.4766C58.2421 12.4731 57.5556 14.3113 56.4088 15.7717C55.8863 14.9029 55.109 14.2169 54.1836 13.806C54.8708 12.873 55.2779 11.7216 55.2779 10.4766C55.2779 7.37373 52.7536 4.84939 49.6507 4.84939C46.5478 4.84939 44.0235 7.37373 44.0235 10.4766C44.0235 11.7216 44.4306 12.873 45.1177 13.8059C44.1925 14.2167 43.4152 14.9028 42.8925 15.7716C41.7457 14.3112 41.0592 12.4731 41.0592 10.4766C41.0592 8.98178 41.4513 7.50744 42.193 6.21322C42.4344 5.79205 42.2886 5.25498 41.8676 5.01357C41.4463 4.77228 40.9093 4.91807 40.6681 5.33912C40.2174 6.12545 39.8741 6.96709 39.6442 7.83896C37.0739 6.66838 34.3132 5.91662 31.4736 5.64053C25.6301 5.0724 19.7217 6.52225 14.8388 9.72357C14.4328 9.98971 14.3195 10.5345 14.5856 10.9404C14.8519 11.3464 15.3969 11.4597 15.8026 11.1936C20.3515 8.21115 25.8566 6.86021 31.3035 7.39014C34.105 7.6626 36.8241 8.43205 39.3373 9.63557C39.3144 9.91494 39.3015 10.1954 39.3015 10.4766C39.3015 16.1832 43.9441 20.8257 49.6506 20.8257C49.9582 20.8257 50.2625 20.8114 50.5635 20.7849C51.8093 23.3401 52.6049 26.1117 52.8829 28.9694C53.3509 33.7818 52.3501 38.639 50.054 42.8426L49.0883 39.9194C48.9361 39.4585 48.4393 39.2082 47.9781 39.3605C47.5172 39.5128 47.267 40.0099 47.4192 40.4708L49.0263 45.336C49.1483 45.7054 49.4918 45.9394 49.8607 45.9394C49.952 45.9394 50.0449 45.925 50.1366 45.8949L55.002 44.2878C55.4629 44.1356 55.7131 43.6385 55.5608 43.1776C55.4086 42.7167 54.9118 42.4662 54.4506 42.6187L51.6795 43.534C54.0851 39.0576 55.1289 33.9043 54.6324 28.7992C54.3503 25.8994 53.5716 23.082 52.3579 20.4657C56.7558 19.2725 60 15.2466 60 10.4766ZM49.6509 6.60721C51.7845 6.60721 53.5204 8.34299 53.5204 10.4766C53.5204 12.6103 51.7846 14.346 49.6509 14.346C47.5173 14.346 45.7815 12.6103 45.7815 10.4766C45.7815 8.34299 47.5173 6.60721 49.6509 6.60721ZM44.1856 17.1005C44.5999 16.0995 45.4964 15.3742 46.5741 15.1846C47.4591 15.7649 48.5159 16.1038 49.6508 16.1038C50.7858 16.1038 51.8427 15.7649 52.7276 15.1846C53.8052 15.3744 54.7017 16.0995 55.1161 17.1006C53.6299 18.329 51.725 19.068 49.6508 19.068C47.5766 19.0679 45.6717 18.3289 44.1856 17.1005Z" fill="url(#paint6_linear_343_5660)"/>
</g>
<defs>
<linearGradient id="paint0_linear_343_5660" x1="-1.70869e-07" y1="37.139" x2="45.8672" y2="37.139" gradientUnits="userSpaceOnUse">
<stop stop-color="#223962"/>
<stop offset="0.526042" stop-color="#3277BC"/>
<stop offset="0.973958" stop-color="#48ABDF"/>
</linearGradient>
<linearGradient id="paint1_linear_343_5660" x1="20.9438" y1="31.311" x2="36.9798" y2="31.311" gradientUnits="userSpaceOnUse">
<stop stop-color="#223962"/>
<stop offset="0.526042" stop-color="#3277BC"/>
<stop offset="0.973958" stop-color="#48ABDF"/>
</linearGradient>
<linearGradient id="paint2_linear_343_5660" x1="10.1078" y1="45.7637" x2="16.8408" y2="45.7637" gradientUnits="userSpaceOnUse">
<stop stop-color="#223962"/>
<stop offset="0.526042" stop-color="#3277BC"/>
<stop offset="0.973958" stop-color="#48ABDF"/>
</linearGradient>
<linearGradient id="paint3_linear_343_5660" x1="47.4307" y1="10.052" x2="49.1885" y2="10.052" gradientUnits="userSpaceOnUse">
<stop stop-color="#223962"/>
<stop offset="0.526042" stop-color="#3277BC"/>
<stop offset="0.973958" stop-color="#48ABDF"/>
</linearGradient>
<linearGradient id="paint4_linear_343_5660" x1="50.1132" y1="10.052" x2="51.871" y2="10.052" gradientUnits="userSpaceOnUse">
<stop stop-color="#223962"/>
<stop offset="0.526042" stop-color="#3277BC"/>
<stop offset="0.973958" stop-color="#48ABDF"/>
</linearGradient>
<linearGradient id="paint5_linear_343_5660" x1="24.5864" y1="31.3112" x2="33.3378" y2="31.3112" gradientUnits="userSpaceOnUse">
<stop stop-color="#223962"/>
<stop offset="0.526042" stop-color="#3277BC"/>
<stop offset="0.973958" stop-color="#48ABDF"/>
</linearGradient>
<linearGradient id="paint6_linear_343_5660" x1="14.4417" y1="23.0335" x2="60" y2="23.0335" gradientUnits="userSpaceOnUse">
<stop stop-color="#223962"/>
<stop offset="0.526042" stop-color="#3277BC"/>
<stop offset="0.973958" stop-color="#48ABDF"/>
</linearGradient>
<clipPath id="clip0_343_5660">
<rect width="60" height="60" fill="white"/>
</clipPath>
</defs>
</svg>
