<svg width="60" height="60" viewBox="0 0 60 60" fill="none" xmlns="http://www.w3.org/2000/svg">
<g clip-path="url(#clip0_343_4549)">
<path d="M43.8166 27.5188H41.5823C41.4553 27.5188 41.3423 27.4339 41.3014 27.3074C41.0917 26.6596 40.8287 26.0242 40.5197 25.4187C40.4588 25.2995 40.4783 25.1591 40.5683 25.0693L42.1479 23.4897C42.9475 22.6901 42.9475 21.3891 42.1479 20.5894L39.6844 18.1258C38.8847 17.3262 37.5837 17.3262 36.784 18.1258L35.2045 19.7054C35.1145 19.7955 34.9739 19.8147 34.8551 19.754C34.2495 19.445 33.6139 19.182 32.9665 18.9722C32.84 18.9313 32.755 18.8185 32.755 18.6914V16.457C32.755 15.3263 31.8349 14.4062 30.7042 14.4062H27.2202C26.0895 14.4062 25.1694 15.3263 25.1694 16.457V18.6914C25.1694 18.8185 25.0843 18.9313 24.958 18.9722C24.3104 19.182 23.6749 19.445 23.0693 19.754C22.9501 19.8147 22.8097 19.7954 22.7198 19.7055L21.1403 18.1259C20.3407 17.3263 19.0396 17.3262 18.24 18.1259L15.7764 20.5895C14.9768 21.3891 14.9768 22.6901 15.7765 23.4898L17.3561 25.0694C17.4459 25.1593 17.4655 25.2996 17.4046 25.4187C17.0955 26.0242 16.8326 26.6596 16.6228 27.3073C16.5818 27.4337 16.4689 27.5187 16.3419 27.5187H14.1076C12.9769 27.5187 12.0568 28.4388 12.0568 29.5695V33.0536C12.0568 34.1843 12.9769 35.1044 14.1076 35.1044H16.3419C16.4689 35.1044 16.5819 35.1893 16.6228 35.3158C16.8326 35.9636 17.0957 36.5991 17.4046 37.2044C17.4655 37.3236 17.4459 37.4639 17.3561 37.5538L15.8657 39.044C14.3948 38.3119 12.7383 37.8992 10.9868 37.8992C9.2693 37.8992 7.64273 38.2957 6.19324 39.0014C5.6093 37.2766 5.21895 35.4824 5.04094 33.6531C4.56715 28.7818 5.59863 23.8646 7.95504 19.6258L9.01723 22.5646C9.1466 22.9225 9.4841 23.145 9.84387 23.145C9.94312 23.145 10.044 23.128 10.1427 23.0924C10.5993 22.9274 10.8354 22.4236 10.6705 21.9671L8.92887 17.1483C8.76387 16.6918 8.25937 16.4557 7.80352 16.6205L2.98477 18.3621C2.5282 18.5271 2.29195 19.0309 2.45684 19.4875C2.58621 19.8454 2.92371 20.0679 3.28348 20.0679C3.38273 20.0679 3.48363 20.0509 3.58219 20.0153L6.26813 19.0445C3.84574 23.5312 2.79352 28.7016 3.29156 33.8233C3.49465 35.9117 3.95449 37.9577 4.64906 39.9164C1.83809 41.9086 0 45.1867 0 48.8861C0 51.0406 0.625547 53.1284 1.80902 54.9238C2.07621 55.3292 2.6216 55.4411 3.02648 55.174C3.43184 54.9068 3.54387 54.3618 3.27668 53.9564C2.28293 52.4491 1.75781 50.6957 1.75781 48.8861C1.75781 43.7973 5.89781 39.6572 10.9867 39.6572C16.0755 39.6572 20.2155 43.7973 20.2155 48.8861C20.2155 53.9748 16.0755 58.115 10.9867 58.115C9.18234 58.115 7.43297 57.5923 5.92793 56.6036C5.52211 56.337 4.9773 56.4498 4.7107 56.8555C4.44422 57.2612 4.55695 57.8062 4.96266 58.0727C6.75516 59.2503 8.83816 59.8728 10.9866 59.8728C14.5973 59.8728 17.8066 58.1215 19.8105 55.4241C21.9341 56.2312 24.1668 56.7603 26.45 56.9822C27.2808 57.063 28.1126 57.103 28.9427 57.103C33.953 57.103 38.8963 55.6455 43.085 52.8993C43.491 52.6332 43.6043 52.0884 43.3382 51.6824C43.0719 51.2764 42.527 51.1632 42.1212 51.4293C37.5723 54.4117 32.0674 55.7625 26.6203 55.2327C24.6094 55.0372 22.6409 54.5854 20.7602 53.9013C21.5353 52.3969 21.9734 50.6917 21.9734 48.8861C21.9734 47.3479 21.6551 45.8827 21.0817 44.5523C21.1012 44.5342 21.1209 44.5164 21.14 44.4974L22.7196 42.9179C22.8097 42.8279 22.9505 42.8086 23.0691 42.8692C23.6747 43.1782 24.3102 43.4412 24.9578 43.651C25.0842 43.6919 25.1692 43.8047 25.1692 43.9318V46.1662C25.1692 47.2969 26.0892 48.217 27.22 48.217H30.7039C31.8347 48.217 32.7547 47.2969 32.7547 46.1662V43.9318C32.7547 43.8047 32.8397 43.6919 32.9661 43.651C33.6137 43.4412 34.2492 43.1782 34.8548 42.8692C34.9739 42.8083 35.1143 42.8277 35.2042 42.9177L36.7837 44.4973C37.5834 45.2969 38.8845 45.2969 39.6841 44.4973L42.1477 42.0337C42.9472 41.2341 42.9472 39.9331 42.1477 39.1334L40.5681 37.5538C40.4781 37.4639 40.4585 37.3234 40.5193 37.2044C40.8284 36.599 41.0914 35.9636 41.3012 35.3158C41.3422 35.1892 41.4551 35.1043 41.5821 35.1043H43.8164C44.9471 35.1043 45.8672 34.1842 45.8672 33.0535V29.5694C45.8674 28.4389 44.9475 27.5188 43.8166 27.5188ZM44.1096 33.0537C44.1096 33.2152 43.9782 33.3467 43.8166 33.3467H41.5823C40.6907 33.3467 39.9056 33.9204 39.6292 34.7744C39.4479 35.3339 39.2208 35.8827 38.9538 36.4055C38.5457 37.2055 38.6948 38.1666 39.3252 38.797L40.9048 40.3765C40.9795 40.4512 40.9905 40.5384 40.9905 40.5837C40.9905 40.6291 40.9794 40.7163 40.9048 40.7909L38.4412 43.2545C38.3666 43.3292 38.2794 43.3403 38.2341 43.3403C38.1887 43.3403 38.1015 43.3292 38.0269 43.2545L36.4473 41.675C35.8171 41.0447 34.856 40.8953 34.056 41.3037C33.533 41.5705 32.9842 41.7978 32.4247 41.9789C31.5708 42.2554 30.997 43.0404 30.997 43.9321V46.1665C30.997 46.328 30.8657 46.4595 30.7041 46.4595H27.2201C27.0585 46.4595 26.9271 46.328 26.9271 46.1665V43.9321C26.9271 43.0404 26.3534 42.2554 25.4994 41.9789C24.94 41.7978 24.3912 41.5707 23.8682 41.3037C23.5676 41.1503 23.2441 41.0757 22.924 41.0757C22.3925 41.0757 21.8702 41.2817 21.4767 41.6751L20.2173 42.9344C19.4736 41.785 18.5211 40.7829 17.4141 39.9816L18.5986 38.7972C19.2291 38.1668 19.3782 37.2058 18.97 36.4056C18.7032 35.883 18.476 35.3341 18.2947 34.7745C18.0183 33.9205 17.2332 33.3468 16.3416 33.3468H14.1073C13.9457 33.3468 13.8143 33.2153 13.8143 33.0538V29.5697C13.8143 29.4082 13.9457 29.2768 14.1073 29.2768H16.3416C17.2332 29.2768 18.0182 28.703 18.2947 27.8491C18.476 27.2896 18.7031 26.7407 18.9701 26.2179C19.3784 25.4179 19.2291 24.4568 18.5987 23.8265L17.0191 22.2469C16.9048 22.1327 16.9048 21.9468 17.0191 21.8325L19.4828 19.3689C19.5574 19.2943 19.6446 19.2831 19.69 19.2831C19.7352 19.2831 19.8224 19.2943 19.8971 19.3689L21.4767 20.9485C22.1071 21.5787 23.0679 21.728 23.868 21.3197C24.3911 21.0529 24.9398 20.8257 25.4994 20.6445C26.3532 20.3679 26.927 19.583 26.927 18.6913V16.4569C26.927 16.2954 27.0584 16.1639 27.22 16.1639H30.7039C30.8655 16.1639 30.9969 16.2954 30.9969 16.4569V18.6913C30.9969 19.583 31.5707 20.3679 32.4246 20.6445C32.9841 20.8257 33.5328 21.0528 34.0559 21.3197C34.8555 21.7278 35.8166 21.5787 36.4473 20.9484L38.0269 19.3688C38.1015 19.2941 38.1887 19.283 38.2341 19.283C38.2794 19.283 38.3666 19.2941 38.4412 19.3688L40.9048 21.8324C40.9795 21.9071 40.9905 21.9943 40.9905 22.0396C40.9905 22.0848 40.9794 22.172 40.9048 22.2468L39.3253 23.8264C38.6948 24.4567 38.5455 25.4178 38.9538 26.2179C39.2207 26.7407 39.4479 27.2896 39.6292 27.8491C39.9057 28.703 40.6907 29.2766 41.5823 29.2766H43.8166C43.9782 29.2766 44.1096 29.4081 44.1096 29.5696V33.0537Z" fill="url(#paint0_linear_343_4549)"/>
<path d="M32.8152 23.8261C32.4722 23.483 32.0161 23.2939 31.5307 23.2939H26.3932C25.9078 23.2939 25.4517 23.483 25.1087 23.826L21.4761 27.4586C21.1329 27.8016 20.944 28.2578 20.944 28.7432V29.1804C20.944 29.6658 21.3374 30.0593 21.8229 30.0593C22.3084 30.0593 22.7018 29.6658 22.7018 29.1804V28.7432C22.7018 28.7275 22.7078 28.7128 22.7189 28.7017L26.3517 25.0688C26.3626 25.058 26.3777 25.0516 26.3932 25.0516H31.5307C31.5462 25.0516 31.5613 25.0579 31.5722 25.0688L35.205 28.7016C35.2159 28.7125 35.2221 28.7276 35.2221 28.743V33.8807C35.2221 33.8964 35.216 33.9111 35.205 33.9221L31.5722 37.5551C31.5613 37.5659 31.5462 37.5722 31.5307 37.5722H26.3932C26.3777 37.5722 26.3626 37.566 26.3517 37.5551L22.7188 33.9221C22.7078 33.9111 22.7017 33.8965 22.7017 33.8808V33.282C22.7017 32.7966 22.3083 32.403 21.8228 32.403C21.3372 32.403 20.9438 32.7966 20.9438 33.282V33.8808C20.9438 34.3661 21.1328 34.8223 21.4758 35.1652L25.1086 38.7979C25.4516 39.141 25.9077 39.33 26.3931 39.33H31.5306C32.016 39.33 32.4721 39.141 32.8151 38.798L36.4479 35.165C36.7909 34.8219 36.9798 34.3659 36.9798 33.8808V28.7432C36.9798 28.258 36.7909 27.8018 36.4479 27.4588L32.8152 23.8261Z" fill="url(#paint1_linear_343_4549)"/>
<path d="M10.9867 41.7637C10.5012 41.7637 10.1078 42.1572 10.1078 42.6426V48.8859C10.1078 49.3713 10.5012 49.7648 10.9867 49.7648H15.9619C16.4474 49.7648 16.8408 49.3713 16.8408 48.8859C16.8408 48.4005 16.4474 48.007 15.9619 48.007H11.8656V42.6426C11.8656 42.1572 11.4722 41.7637 10.9867 41.7637Z" fill="url(#paint2_linear_343_4549)"/>
<path d="M48.3096 11.226C48.7951 11.226 49.1885 10.8325 49.1885 10.3471V9.75684C49.1885 9.27145 48.7951 8.87793 48.3096 8.87793C47.8241 8.87793 47.4307 9.27145 47.4307 9.75684V10.3471C47.4307 10.8325 47.8242 11.226 48.3096 11.226Z" fill="url(#paint3_linear_343_4549)"/>
<path d="M50.9919 11.226C51.4775 11.226 51.8708 10.8325 51.8708 10.3471V9.75684C51.8708 9.27145 51.4775 8.87793 50.9919 8.87793C50.5064 8.87793 50.113 9.27145 50.113 9.75684V10.3471C50.113 10.8325 50.5064 11.226 50.9919 11.226Z" fill="url(#paint4_linear_343_4549)"/>
<path d="M26.7209 35.2581C26.9976 35.5345 27.3654 35.6868 27.7565 35.6868H30.1678C30.5591 35.6868 30.927 35.5344 31.2037 35.2577L32.9087 33.5527C33.1853 33.276 33.3378 32.9081 33.3378 32.5168V30.1054C33.3378 29.7142 33.1853 29.3463 32.9087 29.0696L31.2038 27.3648C30.9272 27.088 30.5592 26.9355 30.1678 26.9355H27.7565C27.3653 26.9355 26.9974 27.0879 26.7205 27.3646L25.0154 29.0696C24.7389 29.3463 24.5864 29.7142 24.5864 30.1055V32.5167C24.5864 32.908 24.7389 33.2759 25.0154 33.5525L26.7205 35.2576C26.7206 35.2579 26.7208 35.258 26.7209 35.2581ZM26.3442 30.2269L27.8778 28.6934H30.0464L31.5799 30.2268V32.3954L30.0464 33.9288H27.8778L26.3442 32.3953V30.2269Z" fill="url(#paint5_linear_343_4549)"/>
<path d="M60 10.4771C60 4.77055 55.3574 0.12793 49.6509 0.12793C47.5027 0.12793 45.4403 0.782773 43.6868 2.02156C43.2904 2.30164 43.196 2.85008 43.4762 3.24652C43.7562 3.64285 44.3046 3.7373 44.7012 3.45723C46.1562 2.42914 47.8677 1.88574 49.6508 1.88574C54.3881 1.88574 58.2421 5.73981 58.2421 10.4771C58.2421 12.4736 57.5556 14.3118 56.4088 15.7722C55.8863 14.9034 55.109 14.2174 54.1836 13.8065C54.8708 12.8735 55.2779 11.7221 55.2779 10.4771C55.2779 7.37422 52.7536 4.84988 49.6507 4.84988C46.5478 4.84988 44.0235 7.37422 44.0235 10.4771C44.0235 11.7221 44.4306 12.8735 45.1177 13.8064C44.1925 14.2171 43.4152 14.9033 42.8925 15.7721C41.7457 14.3117 41.0592 12.4736 41.0592 10.4771C41.0592 8.98227 41.4513 7.50793 42.193 6.21371C42.4344 5.79254 42.2886 5.25547 41.8676 5.01406C41.4463 4.77277 40.9093 4.91855 40.6681 5.33961C40.2174 6.12594 39.8741 6.96758 39.6442 7.83945C37.0739 6.66887 34.3132 5.91711 31.4736 5.64102C25.6301 5.07289 19.7217 6.52273 14.8388 9.72406C14.4328 9.9902 14.3195 10.535 14.5856 10.9409C14.8519 11.3469 15.3969 11.4602 15.8026 11.1941C20.3515 8.21164 25.8566 6.8607 31.3035 7.39062C34.105 7.66309 36.8241 8.43254 39.3373 9.63605C39.3144 9.91543 39.3015 10.1959 39.3015 10.4771C39.3015 16.1837 43.9441 20.8262 49.6506 20.8262C49.9582 20.8262 50.2625 20.8119 50.5635 20.7854C51.8093 23.3405 52.6049 26.1121 52.8829 28.9699C53.3509 33.7823 52.3501 38.6395 50.054 42.8431L49.0883 39.9199C48.9361 39.459 48.4393 39.2087 47.9781 39.361C47.5172 39.5132 47.267 40.0104 47.4192 40.4712L49.0263 45.3365C49.1483 45.7059 49.4918 45.9399 49.8607 45.9399C49.952 45.9399 50.0449 45.9255 50.1366 45.8954L55.002 44.2883C55.4629 44.1361 55.7131 43.6389 55.5608 43.1781C55.4086 42.7172 54.9118 42.4667 54.4506 42.6192L51.6795 43.5345C54.0851 39.0581 55.1289 33.9048 54.6324 28.7997C54.3503 25.8999 53.5716 23.0825 52.3579 20.4662C56.7558 19.273 60 15.2471 60 10.4771ZM49.6509 6.6077C51.7845 6.6077 53.5204 8.34348 53.5204 10.4771C53.5204 12.6107 51.7846 14.3465 49.6509 14.3465C47.5173 14.3465 45.7815 12.6107 45.7815 10.4771C45.7815 8.34348 47.5173 6.6077 49.6509 6.6077ZM44.1856 17.101C44.5999 16.1 45.4964 15.3747 46.5741 15.1851C47.4591 15.7654 48.5159 16.1043 49.6508 16.1043C50.7858 16.1043 51.8427 15.7654 52.7276 15.1851C53.8052 15.3748 54.7017 16.1 55.1161 17.1011C53.6299 18.3295 51.725 19.0685 49.6508 19.0685C47.5766 19.0684 45.6717 18.3294 44.1856 17.101Z" fill="url(#paint6_linear_343_4549)"/>
</g>
<defs>
<linearGradient id="paint0_linear_343_4549" x1="-1.70869e-07" y1="37.1395" x2="45.8672" y2="37.1395" gradientUnits="userSpaceOnUse">
<stop stop-color="#223962"/>
<stop offset="0.526042" stop-color="#3277BC"/>
<stop offset="0.973958" stop-color="#48ABDF"/>
</linearGradient>
<linearGradient id="paint1_linear_343_4549" x1="20.9438" y1="31.312" x2="36.9798" y2="31.312" gradientUnits="userSpaceOnUse">
<stop stop-color="#223962"/>
<stop offset="0.526042" stop-color="#3277BC"/>
<stop offset="0.973958" stop-color="#48ABDF"/>
</linearGradient>
<linearGradient id="paint2_linear_343_4549" x1="10.1078" y1="45.7642" x2="16.8408" y2="45.7642" gradientUnits="userSpaceOnUse">
<stop stop-color="#223962"/>
<stop offset="0.526042" stop-color="#3277BC"/>
<stop offset="0.973958" stop-color="#48ABDF"/>
</linearGradient>
<linearGradient id="paint3_linear_343_4549" x1="47.4307" y1="10.052" x2="49.1885" y2="10.052" gradientUnits="userSpaceOnUse">
<stop stop-color="#223962"/>
<stop offset="0.526042" stop-color="#3277BC"/>
<stop offset="0.973958" stop-color="#48ABDF"/>
</linearGradient>
<linearGradient id="paint4_linear_343_4549" x1="50.113" y1="10.052" x2="51.8708" y2="10.052" gradientUnits="userSpaceOnUse">
<stop stop-color="#223962"/>
<stop offset="0.526042" stop-color="#3277BC"/>
<stop offset="0.973958" stop-color="#48ABDF"/>
</linearGradient>
<linearGradient id="paint5_linear_343_4549" x1="24.5864" y1="31.3112" x2="33.3378" y2="31.3112" gradientUnits="userSpaceOnUse">
<stop stop-color="#223962"/>
<stop offset="0.526042" stop-color="#3277BC"/>
<stop offset="0.973958" stop-color="#48ABDF"/>
</linearGradient>
<linearGradient id="paint6_linear_343_4549" x1="14.4417" y1="23.0339" x2="60" y2="23.0339" gradientUnits="userSpaceOnUse">
<stop stop-color="#223962"/>
<stop offset="0.526042" stop-color="#3277BC"/>
<stop offset="0.973958" stop-color="#48ABDF"/>
</linearGradient>
<clipPath id="clip0_343_4549">
<rect width="60" height="60" fill="white"/>
</clipPath>
</defs>
</svg>
