<svg width="61" height="60" viewBox="0 0 61 60" fill="none" xmlns="http://www.w3.org/2000/svg">
<g clip-path="url(#clip0_343_5790)">
<path d="M59.1306 54.4532H57.4051V42.3083C57.4051 41.8231 57.0112 41.4293 56.526 41.4293H48.9487C48.4634 41.4293 48.0696 41.8231 48.0696 42.3083V54.4532H46.0381V36.3889C46.0381 35.9036 45.6443 35.5098 45.1591 35.5098H37.5817C37.0965 35.5098 36.7027 35.9036 36.7027 36.3889V54.4532H34.673V42.9008C34.673 42.4156 34.2792 42.0218 33.7939 42.0218C33.3087 42.0218 32.9149 42.4156 32.9149 42.9008V54.4532H27.0948V31.3475H32.9149V38.7983C32.9149 39.2835 33.3087 39.6774 33.7939 39.6774C34.2792 39.6774 34.673 39.2835 34.673 38.7983V30.4685C34.673 29.9833 34.2792 29.5894 33.7939 29.5894H26.2157C25.7305 29.5894 25.3367 29.9833 25.3367 30.4685V54.4532H23.307V24.549C23.307 24.0638 22.9131 23.67 22.4279 23.67H14.8506C14.3653 23.67 13.9715 24.0638 13.9715 24.549V54.4532H11.94V30.0395C11.94 29.5543 11.5462 29.1605 11.061 29.1605C10.5758 29.1605 10.182 29.5543 10.182 30.0395V54.4532H4.36269V19.5086H10.182V25.937C10.182 26.4223 10.5758 26.8161 11.061 26.8161C11.5462 26.8161 11.94 26.4223 11.94 25.937V18.6295C11.94 18.1443 11.5462 17.7505 11.061 17.7505H3.48365C2.99842 17.7505 2.60461 18.1443 2.60461 18.6295V54.4532H0.879044C0.393812 54.4532 0 54.847 0 55.3322V59.1209C0 59.6062 0.393812 60 0.879044 60H59.1306C59.6159 60 60.0097 59.6062 60.0097 59.1209V55.3322C60.0097 54.847 59.6159 54.4532 59.1306 54.4532ZM49.8277 43.1874H55.647V54.4532H49.8277V43.1874ZM38.4608 37.2679H44.2801V54.4532H38.4608V37.2679ZM15.7287 25.4281H21.548V54.4532H15.7287V25.4281ZM58.2507 58.2419H1.75809V56.2113H3.47662C3.47662 56.2113 3.48101 56.2113 3.48365 56.2113H11.061C11.061 56.2113 11.0654 56.2113 11.068 56.2113H26.2096C26.2096 56.2113 26.214 56.2113 26.2166 56.2113H33.7948C33.7948 56.2113 33.7992 56.2113 33.8019 56.2113H48.9425C48.9425 56.2113 48.9469 56.2113 48.9495 56.2113H56.5269C56.5269 56.2113 56.5313 56.2113 56.5339 56.2113H58.2525V58.2419H58.2507Z" fill="url(#paint0_linear_343_5790)"/>
<path d="M7.52993 5.20488L43.939 25.24L43.3193 25.4194C41.8513 25.8439 41.003 27.3858 41.4276 28.8555C41.6342 29.5676 42.1054 30.1557 42.755 30.5134C43.1699 30.742 43.6261 30.858 44.0876 30.858C44.3469 30.858 44.6089 30.8211 44.8647 30.7464L51.9146 28.7017C52.6257 28.496 53.2147 28.0249 53.5725 27.3761C53.9302 26.7265 54.0129 25.9776 53.8063 25.2664L51.7608 18.2165C51.5542 17.5053 51.083 16.9173 50.4352 16.5595C49.7864 16.2017 49.0366 16.1191 48.3255 16.3257C47.6134 16.5322 47.0254 17.0034 46.6685 17.6521C46.3116 18.3009 46.2281 19.0507 46.4346 19.761L46.6148 20.3816L36.4091 14.7654C35.9837 14.5315 35.4492 14.6862 35.2154 15.1117C34.9816 15.5372 35.1363 16.0716 35.5618 16.3054L47.6257 22.944C47.9369 23.1154 48.3211 23.082 48.5988 22.8605C48.8766 22.639 48.9927 22.2706 48.8942 21.9296L48.1242 19.2705C48.0486 19.0103 48.0785 18.736 48.2094 18.4995C48.3404 18.2622 48.5558 18.0899 48.8169 18.0134C49.3539 17.8578 49.9174 18.1681 50.0739 18.7061L52.1194 25.756C52.195 26.0162 52.1642 26.2905 52.0341 26.5278C51.9032 26.7652 51.6878 26.9375 51.4276 27.0131L44.3777 29.0586C44.1175 29.1342 43.8432 29.1043 43.6059 28.9733C43.3685 28.8424 43.1954 28.627 43.1198 28.3668C42.9642 27.8288 43.2745 27.2645 43.8116 27.1089L46.4698 26.338C46.8109 26.2386 47.0596 25.9442 47.0983 25.5908C47.1379 25.2374 46.9594 24.8955 46.6482 24.724L8.37821 3.6648C7.8877 3.39405 7.70838 2.77608 7.97649 2.28734C8.10834 2.04912 8.32371 1.87594 8.58566 1.80035C8.84498 1.72475 9.11836 1.75551 9.35658 1.88649L31.9665 14.3294C32.3919 14.5632 32.9264 14.4085 33.1602 13.983C33.394 13.5576 33.2393 13.0231 32.8139 12.7893L10.2049 0.345529C9.55437 -0.0122418 8.80366 -0.095751 8.09516 0.111703C7.38489 0.3174 6.79681 0.788567 6.43728 1.43818C5.70064 2.77696 6.19115 4.46649 7.52993 5.20488Z" fill="url(#paint1_linear_343_5790)"/>
</g>
<defs>
<linearGradient id="paint0_linear_343_5790" x1="-2.23553e-07" y1="38.8752" x2="60.0097" y2="38.8752" gradientUnits="userSpaceOnUse">
<stop stop-color="#223962"/>
<stop offset="0.526042" stop-color="#3277BC"/>
<stop offset="0.973958" stop-color="#48ABDF"/>
</linearGradient>
<linearGradient id="paint1_linear_343_5790" x1="6.0946" y1="15.429" x2="53.9176" y2="15.429" gradientUnits="userSpaceOnUse">
<stop stop-color="#223962"/>
<stop offset="0.526042" stop-color="#3277BC"/>
<stop offset="0.973958" stop-color="#48ABDF"/>
</linearGradient>
<clipPath id="clip0_343_5790">
<rect width="60.0097" height="60" fill="white"/>
</clipPath>
</defs>
</svg>
