<svg version="1.2" xmlns="http://www.w3.org/2000/svg" viewBox="0 0 239 31" width="239" height="31">
	<title>microsoft,60 (1)-svg</title>
	<style>
		.s0 { fill: #ea1b22 } 
	</style>
	<path id="Layer" fill-rule="evenodd" class="s0" d="m103.2 20.2h15.8l-8.4-13.4-15.3 24.3h-7l18.7-29.2c0.8-1.2 2.1-1.9 3.6-1.9 1.5 0 2.8 0.7 3.6 1.8l18.7 29.3h-7l-3.2-5.5h-16c0 0-3.5-5.4-3.5-5.4zm100 5.4l-3.5 5.5h-27c-0.8 0-1.6-0.3-2.1-0.9-0.6-0.6-0.9-1.3-0.9-2.1v-27.8h5.9v25.3c0 0 27.6 0 27.6 0zm-128.2-4.5l11.9 10h-8.6l-17.7-15.4h16.7c2.8 0 5-2.2 5-5 0-2.7-2.2-5-5-5h-19.6v25.4h-5.9v-30.8h25.9c5.8 0 10.4 4.7 10.4 10.4 0 5.8-4.6 10.4-10.4 10.4 0 0-2.7 0-2.7 0zm-59.6 10c-8.5 0-15.4-6.9-15.4-15.4 0-8.5 6.9-15.4 15.4-15.4h17.9c8.5 0 15.4 6.9 15.4 15.4 0 8.5-6.9 15.4-15.4 15.4zm17.5-5.5c5.5 0 9.9-4.4 9.9-9.9 0-5.5-4.4-10-9.9-10h-17.1c-5.5 0-10 4.5-10 10 0 5.5 4.5 9.9 10 9.9 0 0 17.1 0 17.1 0zm112.4 5.5c-8.5 0-15.4-6.9-15.4-15.4 0-8.5 6.9-15.4 15.4-15.4h21.2l-3.5 5.4h-17.3c-5.5 0-10 4.5-10 10 0 5.5 4.5 9.9 10 9.9h21.3l-3.5 5.5zm93.7-5.5l-3.5 5.5h-18.2c-8.5 0-15.4-6.9-15.4-15.4 0-8.5 6.9-15.4 15.4-15.4h21.3l-3.5 5.4h-17.4c-4.6 0-8.4 3.1-9.6 7.3h28.8l-3.5 5.4h-25.3c1.2 4.2 5 7.2 9.6 7.2 0 0 21.3 0 21.3 0z"/>
</svg>