<svg width="60" height="60" viewBox="0 0 60 60" fill="none" xmlns="http://www.w3.org/2000/svg">
<g clip-path="url(#clip0_343_4717)">
<path d="M52.9688 10.5469C54.907 10.5469 56.4844 8.96953 56.4844 7.03125C56.4844 5.09297 54.907 3.51562 52.9688 3.51562C51.0305 3.51562 49.4531 5.09297 49.4531 7.03125C49.4531 8.96953 51.0305 10.5469 52.9688 10.5469ZM52.9688 5.27344C53.9379 5.27344 54.7266 6.06211 54.7266 7.03125C54.7266 8.00039 53.9379 8.78906 52.9688 8.78906C51.9996 8.78906 51.2109 8.00039 51.2109 7.03125C51.2109 6.06211 51.9996 5.27344 52.9688 5.27344Z" fill="url(#paint0_linear_343_4717)"/>
<path d="M10.5469 7.03125C10.5469 5.09297 8.96953 3.51562 7.03125 3.51562C5.09297 3.51562 3.51562 5.09297 3.51562 7.03125C3.51562 8.96953 5.09297 10.5469 7.03125 10.5469C8.96953 10.5469 10.5469 8.96953 10.5469 7.03125ZM5.27344 7.03125C5.27344 6.06211 6.06211 5.27344 7.03125 5.27344C8.00039 5.27344 8.78906 6.06211 8.78906 7.03125C8.78906 8.00039 8.00039 8.78906 7.03125 8.78906C6.06211 8.78906 5.27344 8.00039 5.27344 7.03125Z" fill="url(#paint1_linear_343_4717)"/>
<path d="M7.03125 49.4531C5.09297 49.4531 3.51562 51.0305 3.51562 52.9688C3.51562 54.907 5.09297 56.4844 7.03125 56.4844C8.96953 56.4844 10.5469 54.907 10.5469 52.9688C10.5469 51.0305 8.96953 49.4531 7.03125 49.4531ZM7.03125 54.7266C6.06211 54.7266 5.27344 53.9379 5.27344 52.9688C5.27344 51.9996 6.06211 51.2109 7.03125 51.2109C8.00039 51.2109 8.78906 51.9996 8.78906 52.9688C8.78906 53.9379 8.00039 54.7266 7.03125 54.7266Z" fill="url(#paint2_linear_343_4717)"/>
<path d="M49.4531 52.9688C49.4531 54.907 51.0305 56.4844 52.9688 56.4844C54.907 56.4844 56.4844 54.907 56.4844 52.9688C56.4844 51.0305 54.907 49.4531 52.9688 49.4531C51.0305 49.4531 49.4531 51.0305 49.4531 52.9688ZM54.7266 52.9688C54.7266 53.9379 53.9379 54.7266 52.9688 54.7266C51.9996 54.7266 51.2109 53.9379 51.2109 52.9688C51.2109 51.9996 51.9996 51.2109 52.9688 51.2109C53.9379 51.2109 54.7266 51.9996 54.7266 52.9688Z" fill="url(#paint3_linear_343_4717)"/>
<path d="M57.4815 47.577C57.1101 47.2652 56.5546 47.3145 56.2429 47.6859C55.9312 48.0574 55.9804 48.6117 56.3519 48.9246C57.553 49.9301 58.2409 51.4043 58.2409 52.9699C58.2409 55.8773 55.8749 58.2434 52.9675 58.2434C50.0601 58.2434 47.694 55.8773 47.694 52.9699C47.6823 50.0789 50.1538 47.598 53.1175 47.6988C53.5933 47.6988 53.9847 47.3191 53.9952 46.841C54.0069 46.3559 53.6226 45.9527 53.1374 45.941C51.6491 45.8883 49.9077 46.4426 48.7241 47.3672L45.2202 43.8633L47.4022 41.6812C47.8722 41.2102 47.8722 40.4449 47.4022 39.9738L45.3597 37.9312C45.8038 37.0723 46.1765 36.1746 46.4694 35.2535H49.3581C50.0237 35.2535 50.5651 34.7121 50.5651 34.0465V25.9523C50.5651 25.2867 50.0237 24.7453 49.3581 24.7453H46.4694C46.1765 23.8242 45.8038 22.9277 45.3597 22.0676L47.4034 20.025C47.8733 19.5539 47.8733 18.7887 47.4034 18.3176L45.1628 16.077L48.6597 12.5801C49.8503 13.507 51.3456 14.0602 52.9675 14.0602C56.844 14.0602 59.9987 10.9055 59.9987 7.02891C59.9987 3.15234 56.8452 0 52.9687 0C49.0921 0 45.9374 3.15469 45.9374 7.03125C45.9374 8.65313 46.4917 10.1484 47.4175 11.3391L43.9206 14.8359L41.68 12.5953C41.2101 12.1254 40.4437 12.1254 39.9726 12.5953L37.93 14.6379C37.071 14.1938 36.1733 13.8211 35.2534 13.5281V10.6395C35.2534 9.97383 34.712 9.43242 34.0464 9.43242H25.9522C25.2866 9.43242 24.7452 9.97383 24.7452 10.6395V13.5281C23.8241 13.8211 22.9265 14.1938 22.0675 14.6379L20.0237 12.5941C19.5526 12.1242 18.7874 12.1242 18.3163 12.5941L16.1355 14.775L12.6315 11.2711C13.5269 10.091 14.0601 8.62148 14.0601 7.02891C14.0624 3.15469 10.9077 0 7.03115 0C3.15459 0 -9.76563e-05 3.15469 -9.76563e-05 7.03125C-9.76563e-05 9 0.833106 10.8914 2.28623 12.2203C2.64482 12.5473 3.20029 12.5227 3.52842 12.1652C3.85654 11.8066 3.83076 11.2512 3.47334 10.923C2.3835 9.92578 1.75771 8.50781 1.75771 7.03125C1.75771 4.12383 4.12373 1.75781 7.03115 1.75781C9.93857 1.75781 12.3046 4.12383 12.3046 7.03125C12.3046 9.93867 9.93857 12.3047 7.03115 12.3047C6.91396 12.3047 6.79561 12.3012 6.67842 12.293C6.19678 12.2613 5.77607 12.6281 5.74326 13.1121C5.71162 13.5961 6.07842 14.0156 6.5624 14.0473C6.71709 14.0578 6.87412 14.0625 7.02998 14.0625C8.68232 14.0625 10.2022 13.4883 11.4034 12.5309L14.8933 16.0207L12.594 18.3199C12.1241 18.791 12.1241 19.5562 12.594 20.0273L14.6366 22.0699C14.1925 22.9289 13.8198 23.8266 13.5269 24.7477H10.6382C9.97256 24.7477 9.43115 25.2891 9.43115 25.9547V34.0488C9.43115 34.7145 9.97256 35.2559 10.6382 35.2559H13.5269C13.8198 36.177 14.1925 37.0734 14.6366 37.9336L12.5929 39.9762C12.1229 40.4473 12.1229 41.2125 12.5929 41.6836L14.8335 43.9242L11.3366 47.4211C10.146 46.4941 8.65068 45.941 7.02881 45.941C3.15225 45.941 -0.00244141 49.0957 -0.00244141 52.9723C-0.00244141 56.8488 3.15225 60.0035 7.02881 60.0035C10.9054 60.0035 14.0601 56.8488 14.0601 52.9723C14.0601 51.3504 13.5058 49.8551 12.58 48.6645L16.0769 45.1676L18.3175 47.4082C18.7874 47.8781 19.5538 47.8781 20.0249 47.4082L22.0675 45.3656C22.9265 45.8098 23.8241 46.1824 24.7452 46.4754V49.3641C24.7452 50.0297 25.2866 50.5711 25.9522 50.5711H34.0464C34.712 50.5711 35.2534 50.0297 35.2534 49.3641V46.4754C36.1745 46.1824 37.0722 45.8098 37.93 45.3656L39.9737 47.4094C40.4448 47.8793 41.2101 47.8793 41.6812 47.4094L43.9792 45.1113L47.469 48.6012C46.5116 49.8023 45.9374 51.3223 45.9374 52.9746C45.9374 56.8512 49.0921 60.0059 52.9687 60.0059C56.8452 60.0059 59.9999 56.8512 59.9999 52.9746C59.9999 50.8887 59.0823 48.9234 57.4815 47.5828V47.577ZM52.9687 1.75781C55.8761 1.75781 58.2421 4.12383 58.2421 7.03125C58.2421 9.93867 55.8761 12.3047 52.9687 12.3047C50.0612 12.3047 47.6952 9.93867 47.6952 7.03125C47.6952 4.12383 50.0612 1.75781 52.9687 1.75781ZM7.03115 58.2422C4.12373 58.2422 1.75771 55.8762 1.75771 52.9688C1.75771 50.0613 4.12373 47.6953 7.03115 47.6953C9.93857 47.6953 12.3046 50.0613 12.3046 52.9688C12.3046 55.8762 9.93857 58.2422 7.03115 58.2422ZM40.828 45.7723L38.8851 43.8293C38.5089 43.4531 37.9183 43.3699 37.4507 43.6254C36.4733 44.1609 35.4351 44.591 34.3663 44.9039C33.8542 45.0539 33.4968 45.5297 33.4968 46.0617V48.8074H26.5042V46.0617C26.5042 45.5297 26.1468 45.0539 25.6347 44.9027C24.5659 44.5898 23.5276 44.1598 22.5503 43.6242C22.0827 43.3676 21.4921 43.4508 21.1159 43.8281L19.1729 45.7711L14.2288 40.827L16.1718 38.884C16.5479 38.5078 16.6312 37.9172 16.3745 37.4496C15.839 36.4723 15.4089 35.434 15.096 34.3652C14.946 33.8531 14.4702 33.4957 13.9382 33.4957H11.1925V26.5031H13.9382C14.4702 26.5031 14.946 26.1457 15.096 25.6336C15.4089 24.5648 15.839 23.5266 16.3745 22.5492C16.6312 22.0816 16.548 21.491 16.1706 21.1148L14.2276 19.1719L19.1718 14.2277L21.1147 16.1707C21.4909 16.5469 22.0815 16.6312 22.5491 16.3746C23.5265 15.8391 24.5647 15.409 25.6335 15.0961C26.1456 14.9461 26.503 14.4703 26.503 13.9383V11.1926H33.4956V13.9383C33.4956 14.4703 33.853 14.9461 34.3651 15.0973C35.4339 15.4102 36.4722 15.8402 37.4495 16.3758C37.9171 16.6324 38.5077 16.5492 38.8839 16.1719L40.8269 14.2289L45.771 19.173L43.828 21.116C43.4519 21.4922 43.3686 22.0828 43.6253 22.5504C44.1608 23.5277 44.5909 24.566 44.9038 25.6348C45.0538 26.1469 45.5296 26.5043 46.0616 26.5043H48.8073V33.4969H46.0616C45.5296 33.4969 45.0526 33.8543 44.9038 34.3664C44.5909 35.4352 44.1608 36.4734 43.6253 37.4508C43.3686 37.9184 43.4519 38.509 43.8292 38.8852L45.7722 40.8281L40.828 45.7723Z" fill="url(#paint4_linear_343_4717)"/>
<path d="M33.6292 21.5113C35.9554 22.4968 37.787 24.4199 38.6542 26.7894C38.7843 27.1457 39.1206 27.366 39.4792 27.366C39.5788 27.366 39.6819 27.3484 39.7815 27.3121C40.2374 27.1457 40.4718 26.6406 40.3054 26.1847C39.2706 23.3594 37.0874 21.066 34.3147 19.8918C33.8682 19.7031 33.3514 19.9117 33.1628 20.3582C32.9729 20.8058 33.1827 21.3215 33.6292 21.5101V21.5113Z" fill="url(#paint5_linear_343_4717)"/>
<path d="M25.943 38.094C23.8523 37.0346 22.2621 35.2416 21.4676 33.042C21.3023 32.585 20.7984 32.3495 20.3426 32.5147C19.8855 32.6799 19.65 33.1838 19.8152 33.6397C20.7633 36.2612 22.6582 38.3999 25.1496 39.662C25.2773 39.7264 25.4121 39.7569 25.5457 39.7569C25.8668 39.7569 26.1762 39.5811 26.3309 39.2752C26.55 38.8417 26.3766 38.3131 25.9441 38.094H25.943Z" fill="url(#paint6_linear_343_4717)"/>
<path d="M34.8716 29.9336C34.8716 27.284 32.7165 25.1289 30.0669 25.1289C27.4173 25.1289 25.2622 27.284 25.2622 29.9336C25.2622 32.5832 27.4173 34.7383 30.0669 34.7383C32.7165 34.7383 34.8716 32.5832 34.8716 29.9336ZM27.02 29.9336C27.02 28.2531 28.3864 26.8867 30.0669 26.8867C31.7474 26.8867 33.1138 28.2531 33.1138 29.9336C33.1138 31.6141 31.7474 32.9805 30.0669 32.9805C28.3864 32.9805 27.02 31.6141 27.02 29.9336Z" fill="url(#paint7_linear_343_4717)"/>
<path d="M20.0472 30.8116C20.2582 30.8116 20.4644 30.7355 20.6261 30.5937L23.8629 27.7613C24.2285 27.4413 24.2648 26.8859 23.9449 26.5214C23.625 26.1558 23.0695 26.1195 22.7051 26.4394L21.1922 27.7624C22.1707 23.8144 25.7508 20.8355 29.9695 20.7921C30.4547 20.7874 30.8437 20.389 30.839 19.9038C30.8343 19.4187 30.4383 19.0261 29.9508 19.0343C27.0879 19.0648 24.3949 20.1945 22.3687 22.2171C21.0129 23.5695 20.0578 25.2218 19.5621 27.023L18.8918 25.6964C18.6726 25.2628 18.1441 25.0894 17.7105 25.3085C17.2769 25.5277 17.1035 26.0562 17.3226 26.4898L19.2621 30.3288C19.3851 30.5714 19.6125 30.7437 19.8785 30.7952C19.9336 30.8058 19.9898 30.8116 20.0461 30.8116H20.0472Z" fill="url(#paint8_linear_343_4717)"/>
<path d="M40.8727 29.545C40.7497 29.3024 40.5223 29.1301 40.2563 29.0786C39.9903 29.027 39.7137 29.1008 39.5098 29.2801L36.2731 32.1126C35.9075 32.4325 35.8712 32.988 36.1911 33.3524C36.511 33.718 37.0665 33.7544 37.4309 33.4344L38.9415 32.1126C37.9559 36.0969 34.336 39.0735 30.0669 39.0735C29.8958 39.0735 29.7223 39.0688 29.5524 39.0594C29.0649 39.0325 28.6536 39.404 28.6266 39.8891C28.5997 40.3743 28.9712 40.788 29.4551 40.8149C29.6579 40.8255 29.863 40.8313 30.0669 40.8313C32.9544 40.8313 35.6754 39.7133 37.7297 37.6837C39.1044 36.3255 40.0712 34.6626 40.5715 32.8462L41.243 34.1762C41.3977 34.4821 41.7071 34.659 42.0282 34.659C42.1618 34.659 42.2965 34.6286 42.4243 34.5641C42.8579 34.345 43.0313 33.8165 42.8122 33.3829L40.8727 29.5438V29.545Z" fill="url(#paint9_linear_343_4717)"/>
</g>
<defs>
<linearGradient id="paint0_linear_343_4717" x1="49.4531" y1="7.03125" x2="56.4844" y2="7.03125" gradientUnits="userSpaceOnUse">
<stop stop-color="#223962"/>
<stop offset="0.526042" stop-color="#3277BC"/>
<stop offset="0.973958" stop-color="#48ABDF"/>
</linearGradient>
<linearGradient id="paint1_linear_343_4717" x1="3.51562" y1="7.03125" x2="10.5469" y2="7.03125" gradientUnits="userSpaceOnUse">
<stop stop-color="#223962"/>
<stop offset="0.526042" stop-color="#3277BC"/>
<stop offset="0.973958" stop-color="#48ABDF"/>
</linearGradient>
<linearGradient id="paint2_linear_343_4717" x1="3.51562" y1="52.9688" x2="10.5469" y2="52.9688" gradientUnits="userSpaceOnUse">
<stop stop-color="#223962"/>
<stop offset="0.526042" stop-color="#3277BC"/>
<stop offset="0.973958" stop-color="#48ABDF"/>
</linearGradient>
<linearGradient id="paint3_linear_343_4717" x1="49.4531" y1="52.9688" x2="56.4844" y2="52.9688" gradientUnits="userSpaceOnUse">
<stop stop-color="#223962"/>
<stop offset="0.526042" stop-color="#3277BC"/>
<stop offset="0.973958" stop-color="#48ABDF"/>
</linearGradient>
<linearGradient id="paint4_linear_343_4717" x1="-0.00244163" y1="30.0029" x2="59.9999" y2="30.0029" gradientUnits="userSpaceOnUse">
<stop stop-color="#223962"/>
<stop offset="0.526042" stop-color="#3277BC"/>
<stop offset="0.973958" stop-color="#48ABDF"/>
</linearGradient>
<linearGradient id="paint5_linear_343_4717" x1="33.0928" y1="23.5941" x2="40.3589" y2="23.5941" gradientUnits="userSpaceOnUse">
<stop stop-color="#223962"/>
<stop offset="0.526042" stop-color="#3277BC"/>
<stop offset="0.973958" stop-color="#48ABDF"/>
</linearGradient>
<linearGradient id="paint6_linear_343_4717" x1="19.7625" y1="36.1094" x2="26.4257" y2="36.1094" gradientUnits="userSpaceOnUse">
<stop stop-color="#223962"/>
<stop offset="0.526042" stop-color="#3277BC"/>
<stop offset="0.973958" stop-color="#48ABDF"/>
</linearGradient>
<linearGradient id="paint7_linear_343_4717" x1="25.2622" y1="29.9336" x2="34.8716" y2="29.9336" gradientUnits="userSpaceOnUse">
<stop stop-color="#223962"/>
<stop offset="0.526042" stop-color="#3277BC"/>
<stop offset="0.973958" stop-color="#48ABDF"/>
</linearGradient>
<linearGradient id="paint8_linear_343_4717" x1="17.2278" y1="24.9229" x2="30.8391" y2="24.9229" gradientUnits="userSpaceOnUse">
<stop stop-color="#223962"/>
<stop offset="0.526042" stop-color="#3277BC"/>
<stop offset="0.973958" stop-color="#48ABDF"/>
</linearGradient>
<linearGradient id="paint9_linear_343_4717" x1="28.6252" y1="34.9469" x2="42.907" y2="34.9469" gradientUnits="userSpaceOnUse">
<stop stop-color="#223962"/>
<stop offset="0.526042" stop-color="#3277BC"/>
<stop offset="0.973958" stop-color="#48ABDF"/>
</linearGradient>
<clipPath id="clip0_343_4717">
<rect width="60" height="60" fill="white"/>
</clipPath>
</defs>
</svg>
