<svg width="60" height="52" viewBox="0 0 60 52" fill="none" xmlns="http://www.w3.org/2000/svg">
<g clip-path="url(#clip0_343_5442)">
<path d="M57.2098 0H51.9844C51.4992 0 51.1055 0.39375 51.1055 0.878906C51.1055 1.36406 51.4992 1.75781 51.9844 1.75781H57.2098C57.7793 1.75781 58.2422 2.2207 58.2422 2.79023V7.45781H1.75781V2.79023C1.75781 2.2207 2.2207 1.75781 2.79023 1.75781H47.8828C48.368 1.75781 48.7617 1.36406 48.7617 0.878906C48.7617 0.39375 48.368 0 47.8828 0H2.79023C1.25156 0 0 1.25156 0 2.79023V48.6246C0 50.1633 1.25156 51.4148 2.79023 51.4148H57.2098C58.7484 51.4148 60 50.1633 60 48.6246V2.79023C60 1.25156 58.7484 0 57.2098 0ZM57.2098 49.657H2.79023C2.2207 49.657 1.75781 49.1941 1.75781 48.6246V9.2168H58.2422V48.6246C58.2422 49.1941 57.7793 49.657 57.2098 49.657Z" fill="url(#paint0_linear_343_5442)"/>
<path d="M13.6571 4.11992C13.6254 4.07188 13.5891 4.02617 13.5481 3.98633C13.5083 3.94531 13.4625 3.90898 13.4145 3.87734C13.3676 3.8457 13.3161 3.81758 13.2633 3.79648C13.2106 3.77422 13.1543 3.75781 13.0993 3.74609C12.9856 3.72266 12.8684 3.72266 12.7547 3.74609C12.6997 3.75781 12.6434 3.77422 12.5907 3.79648C12.5379 3.81758 12.4864 3.8457 12.4395 3.87734C12.3915 3.90898 12.3458 3.94531 12.3059 3.98633C12.2649 4.02617 12.2286 4.07188 12.1958 4.11992C12.1641 4.16797 12.1372 4.21836 12.1149 4.27109C12.0938 4.325 12.0762 4.38008 12.0657 4.43633C12.054 4.49258 12.0481 4.55 12.0481 4.60742C12.0481 4.66484 12.054 4.72227 12.0657 4.77969C12.0762 4.83594 12.0938 4.89102 12.1149 4.94375C12.1372 4.99648 12.1641 5.04805 12.1958 5.09609C12.2286 5.14414 12.2649 5.18867 12.3059 5.22969C12.3469 5.2707 12.3915 5.30703 12.4395 5.33867C12.4864 5.37031 12.5379 5.39727 12.5907 5.41953C12.6434 5.4418 12.6997 5.4582 12.7547 5.46992C12.8122 5.48047 12.8696 5.48633 12.927 5.48633C12.9844 5.48633 13.0418 5.48047 13.0993 5.46992C13.1543 5.4582 13.2106 5.4418 13.2633 5.41953C13.3161 5.39727 13.3676 5.37031 13.4145 5.33867C13.4625 5.30703 13.5083 5.26953 13.5481 5.22969C13.7122 5.06563 13.8059 4.83945 13.8059 4.60742C13.8059 4.55 13.8 4.49258 13.7883 4.43633C13.7778 4.38008 13.7602 4.325 13.7379 4.27109C13.7168 4.21836 13.6899 4.16797 13.6571 4.11992Z" fill="url(#paint1_linear_343_5442)"/>
<path d="M9.65972 4.11992C9.6269 4.07188 9.59058 4.02617 9.54956 3.98633C9.50972 3.94531 9.46401 3.90898 9.41597 3.87734C9.36909 3.8457 9.31753 3.81758 9.26479 3.79648C9.21206 3.77422 9.15581 3.75781 9.10073 3.74609C8.98706 3.72266 8.86987 3.72266 8.7562 3.74609C8.70112 3.75781 8.64487 3.77422 8.59214 3.79648C8.5394 3.81758 8.48784 3.8457 8.44097 3.87734C8.39292 3.90898 8.34722 3.94531 8.30737 3.98633C8.26636 4.02617 8.23003 4.07188 8.19722 4.11992C8.16558 4.1668 8.13862 4.21836 8.11636 4.27109C8.09526 4.325 8.07768 4.38008 8.06714 4.43633C8.05542 4.49258 8.04956 4.55 8.04956 4.60742C8.04956 4.83945 8.14331 5.06563 8.30737 5.22969C8.34722 5.26953 8.39292 5.30703 8.44097 5.33867C8.48784 5.37031 8.5394 5.39727 8.59214 5.41953C8.64487 5.44062 8.70112 5.4582 8.7562 5.46992C8.81362 5.48047 8.87104 5.48633 8.92847 5.48633C8.98589 5.48633 9.04331 5.48047 9.10073 5.46992C9.15581 5.4582 9.21206 5.44062 9.26479 5.41953C9.31753 5.39727 9.36909 5.37031 9.41597 5.33867C9.46401 5.30703 9.50972 5.26953 9.54956 5.22969C9.5894 5.18984 9.6269 5.14414 9.65972 5.09609C9.69136 5.04805 9.71831 4.99648 9.74058 4.94375C9.76167 4.89102 9.77925 4.83594 9.78979 4.77969C9.80151 4.72227 9.80737 4.66484 9.80737 4.60742C9.80737 4.55 9.80151 4.49258 9.78979 4.43633C9.77925 4.38008 9.76167 4.325 9.74058 4.27109C9.71831 4.21836 9.69136 4.1668 9.65972 4.11992Z" fill="url(#paint2_linear_343_5442)"/>
<path d="M5.6613 4.11992C5.62849 4.07188 5.59216 4.02617 5.55115 3.98633C5.5113 3.94531 5.4656 3.90898 5.41755 3.87734C5.37068 3.8457 5.31912 3.81758 5.26638 3.79648C5.21365 3.77422 5.1574 3.75781 5.10232 3.74609C4.98865 3.72266 4.87146 3.72266 4.75779 3.74609C4.70271 3.75781 4.64646 3.77422 4.59373 3.79648C4.54099 3.81758 4.48943 3.8457 4.44255 3.87734C4.39451 3.90898 4.3488 3.94531 4.30896 3.98633C4.26794 4.02617 4.23162 4.07188 4.1988 4.11992C4.16716 4.1668 4.14021 4.21836 4.11794 4.27109C4.09685 4.325 4.07927 4.38008 4.06873 4.43633C4.05701 4.49258 4.05115 4.55 4.05115 4.60742C4.05115 4.66484 4.05701 4.72227 4.06873 4.77969C4.07927 4.83594 4.09685 4.89102 4.11794 4.94375C4.14021 4.99648 4.16716 5.04805 4.1988 5.09609C4.23162 5.14414 4.26794 5.18867 4.30896 5.22969C4.34998 5.2707 4.39451 5.30703 4.44255 5.33867C4.48943 5.37031 4.54099 5.39727 4.59373 5.41953C4.64646 5.44062 4.70271 5.4582 4.75779 5.46992C4.81521 5.48047 4.87263 5.48633 4.93005 5.48633C4.98748 5.48633 5.0449 5.48047 5.10232 5.46992C5.1574 5.4582 5.21365 5.44062 5.26638 5.41953C5.31912 5.39727 5.37068 5.37031 5.41755 5.33867C5.4656 5.30703 5.5113 5.26953 5.55115 5.22969C5.59099 5.18984 5.62849 5.14414 5.6613 5.09609C5.69294 5.04805 5.7199 4.99648 5.74216 4.94375C5.76326 4.89102 5.78083 4.83594 5.79138 4.77969C5.8031 4.72227 5.80896 4.66484 5.80896 4.60742C5.80896 4.55 5.8031 4.49258 5.79138 4.43633C5.78083 4.38008 5.76326 4.325 5.74216 4.27109C5.7199 4.21836 5.69294 4.1668 5.6613 4.11992Z" fill="url(#paint3_linear_343_5442)"/>
<path d="M39.0598 25.3627V24.3303C39.0598 22.0311 37.3243 20.1314 35.0954 19.8678V13.9158C35.0954 13.2045 34.8188 12.5354 34.3149 12.0326C33.811 11.5287 33.1418 11.251 32.4317 11.251C31.0887 11.251 29.9754 12.2494 29.7938 13.5432L15.7899 17.6459H10.9758C9.58247 17.6459 8.40474 18.5799 8.03208 19.8537C5.74458 20.06 3.94458 21.9877 3.94458 24.3291V25.3615C3.94458 27.7029 5.74341 29.6307 8.03208 29.8369C8.32271 30.8318 9.10552 31.6193 10.0969 31.9158V34.9814C10.0969 35.715 10.6489 36.3197 11.359 36.4064V44.7162C11.359 45.8318 12.2672 46.74 13.3829 46.74H18.0961C18.7981 46.74 19.4391 46.385 19.8106 45.7908C20.1833 45.1967 20.2219 44.4643 19.9161 43.8326L19.7918 43.576C18.7114 41.3506 18.0844 38.885 17.9637 36.4111C18.6985 36.3478 19.2774 35.7314 19.2774 34.9803V33.0654L29.7938 36.1463C29.9754 37.4389 31.0887 38.4373 32.4317 38.4373C33.9 38.4373 35.0954 37.242 35.0954 35.7736V29.8217C37.3243 29.558 39.0598 27.6584 39.0598 25.3592V25.3627ZM5.70239 25.3627V24.3303C5.70239 23.0025 6.65278 21.8939 7.90786 21.6455V28.0475C6.65161 27.799 5.70239 26.6904 5.70239 25.3627ZM18.3352 44.6014C18.3915 44.7162 18.3504 44.8123 18.3211 44.858C18.2918 44.9049 18.2239 44.9822 18.0961 44.9822H13.3829C13.2364 44.9822 13.1168 44.8627 13.1168 44.7162V36.4182H16.2036C16.3254 39.1533 17.0157 41.8826 18.2098 44.3436L18.334 44.6002L18.3352 44.6014ZM17.5196 34.6615H11.8547V32.0459H15.7887L17.5184 32.5521V34.6615H17.5196ZM33.3375 35.776C33.3375 36.2752 32.9309 36.6818 32.4317 36.6818C31.9325 36.6818 31.5247 36.2752 31.5247 35.776V21.0303C31.5247 20.5451 31.1309 20.1514 30.6458 20.1514C30.1606 20.1514 29.7668 20.5451 29.7668 21.0303V34.3088L16.7942 30.5084V28.4037C16.7942 27.9186 16.4004 27.5248 15.9153 27.5248C15.4301 27.5248 15.0364 27.9186 15.0364 28.4037V30.2869H10.9758C10.254 30.2869 9.66567 29.6998 9.66567 28.9768V20.7127C9.66567 19.9908 10.2528 19.4025 10.9758 19.4025H15.0364V24.301C15.0364 24.7861 15.4301 25.1799 15.9153 25.1799C16.4004 25.1799 16.7942 24.7861 16.7942 24.301V19.1822L29.7668 15.3818V16.9275C29.7668 17.4127 30.1606 17.8064 30.6458 17.8064C31.1309 17.8064 31.5247 17.4127 31.5247 16.9275V13.9146C31.5247 13.4143 31.9313 13.0076 32.4317 13.0076C32.6731 13.0076 32.9004 13.1025 33.0727 13.2736C33.2438 13.4447 33.3375 13.6721 33.3375 13.9146V35.7748V35.776ZM37.302 25.3615C37.302 26.6893 36.3516 27.799 35.0954 28.0463V21.6443C36.3516 21.8916 37.302 23.0014 37.302 24.3291V25.3615Z" fill="url(#paint4_linear_343_5442)"/>
<path d="M54.9024 23.0225H43.7321C43.2469 23.0225 42.8531 23.4162 42.8531 23.9014C42.8531 24.3865 43.2469 24.7803 43.7321 24.7803H54.9024C55.3875 24.7803 55.7813 24.3865 55.7813 23.9014C55.7813 23.4162 55.3875 23.0225 54.9024 23.0225Z" fill="url(#paint5_linear_343_5442)"/>
<path d="M42.5602 20.0645C42.6621 20.0645 42.7653 20.0469 42.866 20.0094L51.6926 16.7281C52.1473 16.5594 52.3793 16.0531 52.2106 15.5984C52.0418 15.1438 51.5356 14.9117 51.0809 15.0805L42.2543 18.3617C41.7996 18.5305 41.5676 19.0367 41.7364 19.4914C41.8676 19.8453 42.2039 20.0645 42.5602 20.0645Z" fill="url(#paint6_linear_343_5442)"/>
<path d="M42.2543 29.4421L51.0809 32.7234C51.1817 32.7609 51.2848 32.7785 51.3868 32.7785C51.743 32.7785 52.0793 32.5593 52.2106 32.2054C52.3793 31.7507 52.1485 31.2445 51.6926 31.0757L42.8661 27.7945C42.4114 27.6257 41.9051 27.8566 41.7364 28.3124C41.5676 28.7671 41.7985 29.2734 42.2543 29.4421Z" fill="url(#paint7_linear_343_5442)"/>
<path d="M53.7364 36.6836H39.9762C38.8489 36.6836 37.9313 37.6012 37.9313 38.7297V44.6969C37.9313 45.8242 38.8489 46.7418 39.9762 46.7418H44.9227C45.4078 46.7418 45.8016 46.348 45.8016 45.8629C45.8016 45.3777 45.4078 44.984 44.9227 44.984H39.9762C39.818 44.984 39.6891 44.8551 39.6891 44.6969V38.7297C39.6891 38.5703 39.818 38.4414 39.9762 38.4414H53.7364C53.8946 38.4414 54.0235 38.5703 54.0235 38.7297V44.6969C54.0235 44.8551 53.8946 44.984 53.7364 44.984H49.0242C48.5391 44.984 48.1453 45.3777 48.1453 45.8629C48.1453 46.348 48.5391 46.7418 49.0242 46.7418H53.7364C54.8637 46.7418 55.7813 45.8242 55.7813 44.6969V38.7297C55.7813 37.6012 54.8637 36.6836 53.7364 36.6836Z" fill="url(#paint8_linear_343_5442)"/>
</g>
<defs>
<linearGradient id="paint0_linear_343_5442" x1="-2.23517e-07" y1="25.7074" x2="60" y2="25.7074" gradientUnits="userSpaceOnUse">
<stop stop-color="#223962"/>
<stop offset="0.526042" stop-color="#3277BC"/>
<stop offset="0.973958" stop-color="#48ABDF"/>
</linearGradient>
<linearGradient id="paint1_linear_343_5442" x1="12.0481" y1="4.60742" x2="13.8059" y2="4.60742" gradientUnits="userSpaceOnUse">
<stop stop-color="#223962"/>
<stop offset="0.526042" stop-color="#3277BC"/>
<stop offset="0.973958" stop-color="#48ABDF"/>
</linearGradient>
<linearGradient id="paint2_linear_343_5442" x1="8.04956" y1="4.60742" x2="9.80737" y2="4.60742" gradientUnits="userSpaceOnUse">
<stop stop-color="#223962"/>
<stop offset="0.526042" stop-color="#3277BC"/>
<stop offset="0.973958" stop-color="#48ABDF"/>
</linearGradient>
<linearGradient id="paint3_linear_343_5442" x1="4.05115" y1="4.60742" x2="5.80896" y2="4.60742" gradientUnits="userSpaceOnUse">
<stop stop-color="#223962"/>
<stop offset="0.526042" stop-color="#3277BC"/>
<stop offset="0.973958" stop-color="#48ABDF"/>
</linearGradient>
<linearGradient id="paint4_linear_343_5442" x1="3.94458" y1="28.9955" x2="39.0598" y2="28.9955" gradientUnits="userSpaceOnUse">
<stop stop-color="#223962"/>
<stop offset="0.526042" stop-color="#3277BC"/>
<stop offset="0.973958" stop-color="#48ABDF"/>
</linearGradient>
<linearGradient id="paint5_linear_343_5442" x1="42.8531" y1="23.9014" x2="55.7813" y2="23.9014" gradientUnits="userSpaceOnUse">
<stop stop-color="#223962"/>
<stop offset="0.526042" stop-color="#3277BC"/>
<stop offset="0.973958" stop-color="#48ABDF"/>
</linearGradient>
<linearGradient id="paint6_linear_343_5442" x1="41.6813" y1="17.5449" x2="52.2657" y2="17.5449" gradientUnits="userSpaceOnUse">
<stop stop-color="#223962"/>
<stop offset="0.526042" stop-color="#3277BC"/>
<stop offset="0.973958" stop-color="#48ABDF"/>
</linearGradient>
<linearGradient id="paint7_linear_343_5442" x1="41.6812" y1="30.2589" x2="52.2658" y2="30.2589" gradientUnits="userSpaceOnUse">
<stop stop-color="#223962"/>
<stop offset="0.526042" stop-color="#3277BC"/>
<stop offset="0.973958" stop-color="#48ABDF"/>
</linearGradient>
<linearGradient id="paint8_linear_343_5442" x1="37.9313" y1="41.7127" x2="55.7813" y2="41.7127" gradientUnits="userSpaceOnUse">
<stop stop-color="#223962"/>
<stop offset="0.526042" stop-color="#3277BC"/>
<stop offset="0.973958" stop-color="#48ABDF"/>
</linearGradient>
<clipPath id="clip0_343_5442">
<rect width="60" height="51.4148" fill="white"/>
</clipPath>
</defs>
</svg>
