<svg width="60" height="59" viewBox="0 0 60 59" fill="none" xmlns="http://www.w3.org/2000/svg">
<g clip-path="url(#clip0_343_4634)">
<path d="M18.3679 14.1367C17.6894 14.1367 17.1375 14.6887 17.1375 15.3672V19.5109C17.1375 20.1895 17.6894 20.7414 18.3679 20.7414H22.5117C23.1902 20.7414 23.7421 20.1895 23.7421 19.5109V15.3672C23.7421 14.6887 23.1902 14.1367 22.5117 14.1367H18.3679ZM21.9843 18.9836H18.8953V15.8945H21.9843V18.9836Z" fill="url(#paint0_linear_343_4634)"/>
<path d="M26.304 14.1367C25.6254 14.1367 25.0735 14.6887 25.0735 15.3672V19.5109C25.0735 20.1895 25.6254 20.7414 26.304 20.7414H30.4465C31.125 20.7414 31.677 20.1895 31.677 19.5109V15.3672C31.677 14.6887 31.125 14.1367 30.4465 14.1367H26.304ZM29.9192 18.9836H26.8313V15.8945H29.9192V18.9836Z" fill="url(#paint1_linear_343_4634)"/>
<path d="M34.2399 20.7414H38.3824C39.061 20.7414 39.6129 20.1895 39.6129 19.5109V15.3672C39.6129 14.6887 39.061 14.1367 38.3824 14.1367H34.2399C33.5614 14.1367 33.0094 14.6887 33.0094 15.3672V19.5109C33.0094 20.1895 33.5614 20.7414 34.2399 20.7414ZM34.7672 15.8945H37.8551V18.9836H34.7672V15.8945Z" fill="url(#paint2_linear_343_4634)"/>
<path d="M42.177 14.1367C41.4985 14.1367 40.9465 14.6887 40.9465 15.3672V19.5109C40.9465 20.1895 41.4985 20.7414 42.177 20.7414H46.3208C46.9993 20.7414 47.5512 20.1895 47.5512 19.5109V15.3672C47.5512 14.6887 46.9993 14.1367 46.3208 14.1367H42.177ZM45.7934 18.9836H42.7043V15.8945H45.7934V18.9836Z" fill="url(#paint3_linear_343_4634)"/>
<path d="M38.7761 10.8301V8.7207C38.7761 7.91328 38.1187 7.25586 37.3113 7.25586H27.3773C26.5699 7.25586 25.9125 7.91328 25.9125 8.7207V10.8301C25.9125 11.6375 26.5699 12.2949 27.3773 12.2949H37.3113C38.1187 12.2949 38.7761 11.6375 38.7761 10.8301ZM37.0183 10.5371H27.6703V9.01367H37.0183V10.5371Z" fill="url(#paint4_linear_343_4634)"/>
<path d="M23.5863 32.1719H38.3965C38.8816 32.1719 39.2754 31.7781 39.2754 31.293C39.2754 30.8078 38.8816 30.4141 38.3965 30.4141H23.5863C23.1011 30.4141 22.7074 30.8078 22.7074 31.293C22.7074 31.7781 23.1011 32.1719 23.5863 32.1719Z" fill="url(#paint5_linear_343_4634)"/>
<path d="M41.2289 32.1719C41.7143 32.1719 42.1078 31.7784 42.1078 31.293C42.1078 30.8076 41.7143 30.4141 41.2289 30.4141C40.7435 30.4141 40.35 30.8076 40.35 31.293C40.35 31.7784 40.7435 32.1719 41.2289 32.1719Z" fill="url(#paint6_linear_343_4634)"/>
<path d="M23.5863 38.6758H38.3965C38.8816 38.6758 39.2754 38.282 39.2754 37.7969C39.2754 37.3117 38.8816 36.918 38.3965 36.918H23.5863C23.1011 36.918 22.7074 37.3117 22.7074 37.7969C22.7074 38.282 23.1011 38.6758 23.5863 38.6758Z" fill="url(#paint7_linear_343_4634)"/>
<path d="M23.5863 45.1797H38.3965C38.8816 45.1797 39.2754 44.7859 39.2754 44.3008C39.2754 43.8156 38.8816 43.4219 38.3965 43.4219H23.5863C23.1011 43.4219 22.7074 43.8156 22.7074 44.3008C22.7074 44.7859 23.1011 45.1797 23.5863 45.1797Z" fill="url(#paint8_linear_343_4634)"/>
<path d="M41.2289 45.1797C41.7143 45.1797 42.1078 44.7862 42.1078 44.3008C42.1078 43.8154 41.7143 43.4219 41.2289 43.4219C40.7435 43.4219 40.35 43.8154 40.35 44.3008C40.35 44.7862 40.7435 45.1797 41.2289 45.1797Z" fill="url(#paint9_linear_343_4634)"/>
<path d="M38.3965 49.9268H23.5863C23.1011 49.9268 22.7074 50.3205 22.7074 50.8057C22.7074 51.2908 23.1011 51.6846 23.5863 51.6846H38.3965C38.8816 51.6846 39.2754 51.2908 39.2754 50.8057C39.2754 50.3205 38.8816 49.9268 38.3965 49.9268Z" fill="url(#paint10_linear_343_4634)"/>
<path d="M41.2289 51.6846C41.7143 51.6846 42.1078 51.2911 42.1078 50.8057C42.1078 50.3203 41.7143 49.9268 41.2289 49.9268C40.7435 49.9268 40.35 50.3203 40.35 50.8057C40.35 51.2911 40.7435 51.6846 41.2289 51.6846Z" fill="url(#paint11_linear_343_4634)"/>
<path d="M5.30396 42.2344H13.2809C13.7661 42.2344 14.1598 41.8406 14.1598 41.3555C14.1598 40.8703 13.7661 40.4766 13.2809 40.4766H5.30396C4.8188 40.4766 4.42505 40.8703 4.42505 41.3555C4.42505 41.8406 4.8188 42.2344 5.30396 42.2344Z" fill="url(#paint12_linear_343_4634)"/>
<path d="M5.30396 45.2803H13.2809C13.7661 45.2803 14.1598 44.8865 14.1598 44.4014C14.1598 43.9162 13.7661 43.5225 13.2809 43.5225H5.30396C4.8188 43.5225 4.42505 43.9162 4.42505 44.4014C4.42505 44.8865 4.8188 45.2803 5.30396 45.2803Z" fill="url(#paint13_linear_343_4634)"/>
<path d="M5.30396 48.3125H13.2809C13.7661 48.3125 14.1598 47.9187 14.1598 47.4336C14.1598 46.9484 13.7661 46.5547 13.2809 46.5547H5.30396C4.8188 46.5547 4.42505 46.9484 4.42505 47.4336C4.42505 47.9187 4.8188 48.3125 5.30396 48.3125Z" fill="url(#paint14_linear_343_4634)"/>
<path d="M14.1598 50.4951C14.1598 50.01 13.7661 49.6162 13.2809 49.6162H5.30396C4.8188 49.6162 4.42505 50.01 4.42505 50.4951C4.42505 50.9803 4.8188 51.374 5.30396 51.374H13.2809C13.7661 51.374 14.1598 50.9803 14.1598 50.4951Z" fill="url(#paint15_linear_343_4634)"/>
<path d="M5.30396 52.6631C4.8188 52.6631 4.42505 53.0568 4.42505 53.542C4.42505 54.0271 4.8188 54.4209 5.30396 54.4209H8.87935C9.3645 54.4209 9.75825 54.0271 9.75825 53.542C9.75825 53.0568 9.3645 52.6631 8.87935 52.6631H5.30396Z" fill="url(#paint16_linear_343_4634)"/>
<path d="M59.591 16.8878L33.4417 0.316309C32.775 -0.106738 31.9136 -0.106738 31.2468 0.316309L5.09644 16.8878C4.68628 17.1479 4.5644 17.6905 4.82456 18.1007C5.08472 18.5108 5.62729 18.6327 6.03745 18.3726L9.50034 16.1776V35.6144H4.53628C4.14487 35.6144 3.7769 35.7667 3.50034 36.0433L0.427686 39.1159C0.151123 39.3925 -0.0012207 39.7605 -0.0012207 40.1519V56.9823C-0.0012207 57.7897 0.656201 58.4472 1.46362 58.4472H10.0183C10.5035 58.4472 10.8972 58.0534 10.8972 57.5683C10.8972 57.0831 10.5035 56.6894 10.0183 56.6894H1.75776V40.2726L4.65815 37.3722H16.8257V56.6894H14.121C13.6359 56.6894 13.2421 57.0831 13.2421 57.5683C13.2421 58.0534 13.6359 58.4472 14.121 58.4472H17.1187C17.9261 58.4472 18.5835 57.7897 18.5835 56.9823V54.9351H53.7222C54.5296 54.9351 55.1871 54.2776 55.1871 53.4702V40.1601H56.08C56.7585 40.1601 57.3105 39.6081 57.3105 38.9296V35.5792C57.3105 34.9007 56.7585 34.3487 56.08 34.3487H55.1871V24.3011C55.1871 23.8159 54.7933 23.4222 54.3082 23.4222C53.823 23.4222 53.4292 23.8159 53.4292 24.3011V34.3487H52.7296C52.0511 34.3487 51.4992 34.9007 51.4992 35.5792V38.9296C51.4992 39.6081 52.0511 40.1601 52.7296 40.1601H53.4292V53.1772H49.3242V45.8624C49.3242 45.3772 48.9304 44.9835 48.4453 44.9835C47.9601 44.9835 47.5664 45.3772 47.5664 45.8624V53.1772H44.8558V48.7241C44.8558 48.2882 44.7187 47.8851 44.4855 47.5522C44.7175 47.2194 44.8558 46.8163 44.8558 46.3804V42.6187H44.898C45.5765 42.6187 46.1285 42.0667 46.1285 41.3882V37.6663C46.1285 36.9878 45.5765 36.4358 44.898 36.4358H44.8558V35.7151C44.8558 35.2792 44.7187 34.8761 44.4855 34.5433C44.7175 34.2104 44.8558 33.8073 44.8558 33.3714V29.2112C44.8558 28.0804 43.9359 27.1604 42.805 27.1604H21.8824C20.7515 27.1604 19.8316 28.0804 19.8316 29.2112V33.3714C19.8316 33.8073 19.9687 34.2104 20.2019 34.5433C19.9699 34.8761 19.8316 35.2792 19.8316 35.7151V39.8753C19.8316 40.3112 19.9687 40.7144 20.2019 41.0472C19.9699 41.38 19.8316 41.7831 19.8316 42.219V46.3792C19.8316 46.8151 19.9687 47.2183 20.2019 47.5511C19.9699 47.8839 19.8316 48.287 19.8316 48.7229V53.1761H18.5835V37.078C18.5835 36.2706 17.9273 35.6144 17.121 35.6132V24.7944H47.5664V26.3554H47.1597C46.4812 26.3554 45.9292 26.9073 45.9292 27.5858V31.4026C45.9292 32.0812 46.4812 32.6331 47.1597 32.6331H47.5664V41.7597C47.5664 42.2448 47.9601 42.6386 48.4453 42.6386C48.9304 42.6386 49.3242 42.2448 49.3242 41.7597V32.6331H50.9765C51.655 32.6331 52.207 32.0812 52.207 31.4026V27.5858C52.207 26.9073 51.655 26.3554 50.9765 26.3554H49.3242V24.5015C49.3242 23.694 48.6667 23.0366 47.8593 23.0366H16.8281C16.0207 23.0366 15.3632 23.694 15.3632 24.5015V35.6132H11.2582V15.062L32.1867 1.80107C32.2816 1.74014 32.4046 1.74014 32.5007 1.80107L53.4292 15.0632V20.1983C53.4292 20.6835 53.823 21.0772 54.3082 21.0772C54.7933 21.0772 55.1871 20.6835 55.1871 20.1983V16.1765L58.65 18.3714C58.7953 18.464 58.9593 18.5085 59.1199 18.5085C59.4105 18.5085 59.6953 18.3644 59.8628 18.0995C60.123 17.6894 60.0011 17.1468 59.591 16.8866V16.8878ZM53.257 38.4022V36.1065H55.5527V38.4022H53.257ZM43.098 53.1772H21.5906V48.7241C21.5906 48.5624 21.7218 48.4312 21.8835 48.4312H42.805C42.9667 48.4312 43.098 48.5624 43.098 48.7241V53.1772ZM44.3707 38.1937V40.8608H41.7035V38.1937H44.3707ZM21.5894 29.2112C21.5894 29.0495 21.7207 28.9183 21.8824 28.9183H42.8039C42.9656 28.9183 43.0968 29.0495 43.0968 29.2112V33.3714C43.0968 33.5331 42.9656 33.6644 42.8039 33.6644H21.8824C21.7207 33.6644 21.5894 33.5331 21.5894 33.3714V29.2112ZM21.5894 35.7151C21.5894 35.5534 21.7207 35.4222 21.8824 35.4222H42.8039C42.9656 35.4222 43.0968 35.5534 43.0968 35.7151V36.4358H41.1749C40.4964 36.4358 39.9445 36.9878 39.9445 37.6663V40.1694H21.8812C21.7195 40.1694 21.5882 40.0382 21.5882 39.8765V35.7163L21.5894 35.7151ZM21.5894 42.219C21.5894 42.0573 21.7207 41.9261 21.8824 41.9261H40.071C40.2714 42.3351 40.691 42.6175 41.1749 42.6175H43.0968V46.3792C43.0968 46.5409 42.9656 46.6722 42.8039 46.6722H21.8812C21.7195 46.6722 21.5882 46.5409 21.5882 46.3792V42.219H21.5894ZM47.6871 28.1144H50.4492V30.8765H47.6871V28.1144Z" fill="url(#paint17_linear_343_4634)"/>
</g>
<defs>
<linearGradient id="paint0_linear_343_4634" x1="17.1375" y1="17.4391" x2="23.7421" y2="17.4391" gradientUnits="userSpaceOnUse">
<stop stop-color="#223962"/>
<stop offset="0.526042" stop-color="#3277BC"/>
<stop offset="0.973958" stop-color="#48ABDF"/>
</linearGradient>
<linearGradient id="paint1_linear_343_4634" x1="25.0735" y1="17.4391" x2="31.677" y2="17.4391" gradientUnits="userSpaceOnUse">
<stop stop-color="#223962"/>
<stop offset="0.526042" stop-color="#3277BC"/>
<stop offset="0.973958" stop-color="#48ABDF"/>
</linearGradient>
<linearGradient id="paint2_linear_343_4634" x1="33.0094" y1="17.4391" x2="39.6129" y2="17.4391" gradientUnits="userSpaceOnUse">
<stop stop-color="#223962"/>
<stop offset="0.526042" stop-color="#3277BC"/>
<stop offset="0.973958" stop-color="#48ABDF"/>
</linearGradient>
<linearGradient id="paint3_linear_343_4634" x1="40.9465" y1="17.4391" x2="47.5512" y2="17.4391" gradientUnits="userSpaceOnUse">
<stop stop-color="#223962"/>
<stop offset="0.526042" stop-color="#3277BC"/>
<stop offset="0.973958" stop-color="#48ABDF"/>
</linearGradient>
<linearGradient id="paint4_linear_343_4634" x1="25.9125" y1="9.77539" x2="38.7761" y2="9.77539" gradientUnits="userSpaceOnUse">
<stop stop-color="#223962"/>
<stop offset="0.526042" stop-color="#3277BC"/>
<stop offset="0.973958" stop-color="#48ABDF"/>
</linearGradient>
<linearGradient id="paint5_linear_343_4634" x1="22.7074" y1="31.293" x2="39.2754" y2="31.293" gradientUnits="userSpaceOnUse">
<stop stop-color="#223962"/>
<stop offset="0.526042" stop-color="#3277BC"/>
<stop offset="0.973958" stop-color="#48ABDF"/>
</linearGradient>
<linearGradient id="paint6_linear_343_4634" x1="40.35" y1="31.293" x2="42.1078" y2="31.293" gradientUnits="userSpaceOnUse">
<stop stop-color="#223962"/>
<stop offset="0.526042" stop-color="#3277BC"/>
<stop offset="0.973958" stop-color="#48ABDF"/>
</linearGradient>
<linearGradient id="paint7_linear_343_4634" x1="22.7074" y1="37.7969" x2="39.2754" y2="37.7969" gradientUnits="userSpaceOnUse">
<stop stop-color="#223962"/>
<stop offset="0.526042" stop-color="#3277BC"/>
<stop offset="0.973958" stop-color="#48ABDF"/>
</linearGradient>
<linearGradient id="paint8_linear_343_4634" x1="22.7074" y1="44.3008" x2="39.2754" y2="44.3008" gradientUnits="userSpaceOnUse">
<stop stop-color="#223962"/>
<stop offset="0.526042" stop-color="#3277BC"/>
<stop offset="0.973958" stop-color="#48ABDF"/>
</linearGradient>
<linearGradient id="paint9_linear_343_4634" x1="40.35" y1="44.3008" x2="42.1078" y2="44.3008" gradientUnits="userSpaceOnUse">
<stop stop-color="#223962"/>
<stop offset="0.526042" stop-color="#3277BC"/>
<stop offset="0.973958" stop-color="#48ABDF"/>
</linearGradient>
<linearGradient id="paint10_linear_343_4634" x1="22.7074" y1="50.8057" x2="39.2754" y2="50.8057" gradientUnits="userSpaceOnUse">
<stop stop-color="#223962"/>
<stop offset="0.526042" stop-color="#3277BC"/>
<stop offset="0.973958" stop-color="#48ABDF"/>
</linearGradient>
<linearGradient id="paint11_linear_343_4634" x1="40.35" y1="50.8057" x2="42.1078" y2="50.8057" gradientUnits="userSpaceOnUse">
<stop stop-color="#223962"/>
<stop offset="0.526042" stop-color="#3277BC"/>
<stop offset="0.973958" stop-color="#48ABDF"/>
</linearGradient>
<linearGradient id="paint12_linear_343_4634" x1="4.42505" y1="41.3555" x2="14.1598" y2="41.3555" gradientUnits="userSpaceOnUse">
<stop stop-color="#223962"/>
<stop offset="0.526042" stop-color="#3277BC"/>
<stop offset="0.973958" stop-color="#48ABDF"/>
</linearGradient>
<linearGradient id="paint13_linear_343_4634" x1="4.42505" y1="44.4014" x2="14.1598" y2="44.4014" gradientUnits="userSpaceOnUse">
<stop stop-color="#223962"/>
<stop offset="0.526042" stop-color="#3277BC"/>
<stop offset="0.973958" stop-color="#48ABDF"/>
</linearGradient>
<linearGradient id="paint14_linear_343_4634" x1="4.42505" y1="47.4336" x2="14.1598" y2="47.4336" gradientUnits="userSpaceOnUse">
<stop stop-color="#223962"/>
<stop offset="0.526042" stop-color="#3277BC"/>
<stop offset="0.973958" stop-color="#48ABDF"/>
</linearGradient>
<linearGradient id="paint15_linear_343_4634" x1="4.42505" y1="50.4951" x2="14.1598" y2="50.4951" gradientUnits="userSpaceOnUse">
<stop stop-color="#223962"/>
<stop offset="0.526042" stop-color="#3277BC"/>
<stop offset="0.973958" stop-color="#48ABDF"/>
</linearGradient>
<linearGradient id="paint16_linear_343_4634" x1="4.42505" y1="53.542" x2="9.75825" y2="53.542" gradientUnits="userSpaceOnUse">
<stop stop-color="#223962"/>
<stop offset="0.526042" stop-color="#3277BC"/>
<stop offset="0.973958" stop-color="#48ABDF"/>
</linearGradient>
<linearGradient id="paint17_linear_343_4634" x1="-0.00122093" y1="29.2231" x2="59.9997" y2="29.2231" gradientUnits="userSpaceOnUse">
<stop stop-color="#223962"/>
<stop offset="0.526042" stop-color="#3277BC"/>
<stop offset="0.973958" stop-color="#48ABDF"/>
</linearGradient>
<clipPath id="clip0_343_4634">
<rect width="60" height="58.4473" fill="white"/>
</clipPath>
</defs>
</svg>
