<svg width="60" height="49" viewBox="0 0 60 49" fill="none" xmlns="http://www.w3.org/2000/svg">
<g clip-path="url(#clip0_343_4584)">
<path d="M51.8403 34.5083H59.1211C59.6063 34.5083 60 34.1146 60 33.6294C60 26.3468 57.2446 19.1258 52.4186 13.6977L56.1847 8.67652C56.4475 8.32672 56.4123 7.83717 56.103 7.5278C55.7936 7.21842 55.304 7.18414 54.9542 7.44694L52.9943 8.9191C46.6952 3.16229 38.5601 0 29.9996 0C29.5144 0 29.1207 0.393748 29.1207 0.878902C29.1207 1.36406 29.5144 1.7578 29.9996 1.7578C38.0072 1.7578 45.6212 4.67576 51.5599 9.99399L49.9348 11.2139C44.439 6.32018 37.392 3.6325 30.0066 3.63074C30.004 3.63074 30.0013 3.63074 29.9987 3.63074C29.996 3.63074 29.9934 3.63074 29.9908 3.63074C26.5138 3.63074 23.1055 4.22224 19.8623 5.38767C19.4053 5.55202 19.168 6.05476 19.3323 6.51178C19.4967 6.96881 19.9994 7.20612 20.4564 7.04176C23.2373 6.04333 26.1482 5.49402 29.1198 5.40349V10.9291C23.6723 11.1348 18.5642 13.2512 14.5687 16.9575L10.6611 13.0499C12.5745 11.2508 14.7199 9.73032 17.0516 8.52535C17.4831 8.30211 17.6519 7.77213 17.4286 7.34059C17.2054 6.90905 16.6754 6.7403 16.2439 6.96354C13.5035 8.38033 11.0039 10.2058 8.81363 12.3899C8.80396 12.3987 8.79429 12.4075 8.7855 12.4171C3.1201 18.0843 0 25.6174 0 33.6294C0 34.1146 0.393748 34.5083 0.878902 34.5083H8.15973C8.64488 34.5083 9.03863 34.1146 9.03863 33.6294C9.03863 28.0308 11.2183 22.768 15.1769 18.8094C15.1795 18.8067 15.1822 18.8041 15.1848 18.8015C19.1416 14.8464 24.4018 12.6694 29.9978 12.6685C29.9978 12.6685 29.9987 12.6685 29.9996 12.6685C30.0004 12.6685 30.0004 12.6685 30.0013 12.6685C34.5057 12.6685 38.8993 14.1292 42.4958 16.8002L37.8112 20.3176C35.5182 18.9667 32.8481 18.1906 30.0004 18.1906C21.4874 18.1906 14.5608 25.1164 14.5608 33.6285C14.5608 37.3982 15.9345 41.028 18.4279 43.8493C18.7259 44.1868 19.0379 44.5093 19.3622 44.8178C21.7221 47.0617 24.7332 48.5101 27.9719 48.9346C28.4536 48.997 28.8948 48.6586 28.9581 48.1779C29.0213 47.6962 28.6821 47.255 28.2013 47.1918C25.3844 46.8226 22.8567 45.5974 20.8634 43.8018V41.9755C20.8634 41.253 21.323 40.6097 22.0068 40.375L26.3732 38.8809C27.2679 39.6042 28.4052 40.0384 29.6427 40.0384H30.3573C31.5948 40.0384 32.7321 39.6042 33.6268 38.8809L37.9932 40.3741C38.677 40.6088 39.1366 41.2513 39.1366 41.9746V43.801C37.1442 45.5966 34.6164 46.8209 31.8013 47.1909C31.3197 47.2542 30.9813 47.6954 31.0446 48.177C31.1026 48.6191 31.4805 48.9417 31.9147 48.9417C31.9525 48.9417 31.9912 48.939 32.0307 48.9337C35.7124 48.4503 39.1015 46.6433 41.5729 43.8475C44.0664 41.0263 45.4401 37.3964 45.4401 33.6268C45.4401 30.7827 44.6667 28.117 43.3193 25.8265L46.8358 21.1376C47.8694 22.5271 48.7254 24.0353 49.3846 25.6358C49.5244 25.9751 49.8522 26.1799 50.1976 26.1799C50.3092 26.1799 50.4226 26.1588 50.5325 26.1131C50.9816 25.9276 51.1952 25.4143 51.0097 24.9652C50.2284 23.0712 49.1939 21.2949 47.9318 19.6769L51.3402 15.1329C55.5457 19.9897 58.0207 26.3126 58.2281 32.7479H52.7025C52.6515 31.4049 52.4828 30.0708 52.1989 28.77C52.0952 28.2954 51.6267 27.9957 51.153 28.0985C50.6784 28.2022 50.3778 28.6698 50.4815 29.1444C50.8005 30.6051 50.9614 32.1133 50.9614 33.6268C50.9614 34.1119 51.3551 34.5057 51.8403 34.5057V34.5083ZM7.29752 32.7505H1.77099C1.98105 25.8292 4.67224 19.3358 9.41831 14.2918L13.3259 18.1994C9.61958 22.1958 7.50231 27.304 7.29664 32.7505H7.29752ZM30.8785 10.9283V5.40349C37.3938 5.60388 43.583 8.02525 48.4978 12.2932L43.9556 15.7033C40.2133 12.788 35.6237 11.1128 30.8776 10.9283H30.8785ZM29.6418 38.2823C27.739 38.2823 26.1904 36.7346 26.1904 34.8326V31.5051H27.1906C28.298 31.5051 29.3914 30.7581 30.1894 29.9846C30.7062 30.7457 31.4814 31.5051 32.4464 31.5051H33.8061V34.8326C33.8061 36.7355 32.2575 38.2823 30.3546 38.2823H29.6401H29.6418ZM26.1904 29.7464V27.7004C26.1904 26.4128 27.2381 25.3651 28.5256 25.3651H31.4717C32.7593 25.3651 33.807 26.4128 33.807 27.7004V29.7464H32.4473C32.1942 29.7464 31.4946 28.973 31.1957 28.1495C31.085 27.8436 30.8143 27.6239 30.4917 27.5782C30.4504 27.572 30.41 27.5694 30.3696 27.5694C30.0901 27.5694 29.8247 27.703 29.6577 27.9324C29.0231 28.8078 27.8805 29.7456 27.1906 29.7456H26.1904V29.7464ZM40.8918 41.892C40.8566 40.4523 39.9294 39.1814 38.5609 38.713L34.8581 37.4465C35.3064 36.6775 35.5648 35.7845 35.5648 34.8326V30.6253C35.5648 30.6253 35.5648 30.6227 35.5648 30.6218V27.7004C35.5648 25.4433 33.7287 23.6073 31.4717 23.6073H28.5256C26.2686 23.6073 24.4326 25.4433 24.4326 27.7004V30.6227C24.4326 30.6227 24.4326 30.6245 24.4326 30.6253V34.8326C24.4326 35.7854 24.691 36.6775 25.1392 37.4465L21.4364 38.713C20.068 39.1814 19.1407 40.4523 19.1065 41.892C17.3522 39.5805 16.3186 36.7073 16.3186 33.6285C16.3186 26.0849 22.4559 19.9484 30.0004 19.9484C37.5449 19.9484 43.6823 26.0858 43.6823 33.6285C43.6823 36.7073 42.6478 39.5805 40.8936 41.892H40.8918ZM39.3537 21.3564L50.3822 13.0763C50.3822 13.0763 50.3839 13.0745 50.3848 13.0745L51.0774 12.5542L42.2796 24.2841C41.4394 23.1828 40.455 22.1975 39.3537 21.3564Z" fill="url(#paint0_linear_343_4584)"/>
<path d="M8.15973 40.0312H0.878902C0.393748 40.0312 0 40.425 0 40.9102C0 41.3953 0.393748 41.7891 0.878902 41.7891H8.15885C8.644 41.7891 9.03775 41.3953 9.03775 40.9102C9.03775 40.425 8.644 40.0312 8.15885 40.0312H8.15973Z" fill="url(#paint1_linear_343_4584)"/>
<path d="M59.1211 40.031H56.3596V37.2695C56.3596 36.7844 55.9659 36.3906 55.4807 36.3906C54.9956 36.3906 54.6018 36.7844 54.6018 37.2695V40.031H51.8403C51.3552 40.031 50.9614 40.4248 50.9614 40.9099C50.9614 41.3951 51.3552 41.7888 51.8403 41.7888H54.6018V44.5504C54.6018 45.0355 54.9956 45.4293 55.4807 45.4293C55.9659 45.4293 56.3596 45.0355 56.3596 44.5504V41.7888H59.1211C59.6063 41.7888 60.0001 41.3951 60.0001 40.9099C60.0001 40.4248 59.6063 40.031 59.1211 40.031Z" fill="url(#paint2_linear_343_4584)"/>
</g>
<defs>
<linearGradient id="paint0_linear_343_4584" x1="-2.23517e-07" y1="24.471" x2="60" y2="24.471" gradientUnits="userSpaceOnUse">
<stop stop-color="#223962"/>
<stop offset="0.526042" stop-color="#3277BC"/>
<stop offset="0.973958" stop-color="#48ABDF"/>
</linearGradient>
<linearGradient id="paint1_linear_343_4584" x1="-3.36682e-08" y1="40.9102" x2="9.03775" y2="40.9102" gradientUnits="userSpaceOnUse">
<stop stop-color="#223962"/>
<stop offset="0.526042" stop-color="#3277BC"/>
<stop offset="0.973958" stop-color="#48ABDF"/>
</linearGradient>
<linearGradient id="paint2_linear_343_4584" x1="50.9614" y1="40.9099" x2="60.0001" y2="40.9099" gradientUnits="userSpaceOnUse">
<stop stop-color="#223962"/>
<stop offset="0.526042" stop-color="#3277BC"/>
<stop offset="0.973958" stop-color="#48ABDF"/>
</linearGradient>
<clipPath id="clip0_343_4584">
<rect width="60" height="48.9434" fill="white"/>
</clipPath>
</defs>
</svg>
