<svg width="52" height="60" viewBox="0 0 52 60" fill="none" xmlns="http://www.w3.org/2000/svg">
<g clip-path="url(#clip0_390_5382)">
<path d="M10.0313 19.3921C7.254 19.3921 4.99463 21.6515 4.99463 24.4288C4.99463 27.2062 7.254 29.4655 10.0313 29.4655C12.8087 29.4655 15.0681 27.2062 15.0681 24.4288C15.0681 21.6515 12.8087 19.3921 10.0313 19.3921ZM10.0313 27.7089C8.22314 27.7089 6.75244 26.2382 6.75244 24.43C6.75244 22.6218 8.22314 21.1511 10.0313 21.1511C11.8396 21.1511 13.3103 22.6218 13.3103 24.43C13.3103 26.2382 11.8396 27.7089 10.0313 27.7089Z" fill="url(#paint0_linear_390_5382)"/>
<path d="M10.9993 23.0087L9.70674 24.3013L9.09267 23.6872C8.74932 23.3438 8.19268 23.3438 7.84932 23.6872C7.50596 24.0306 7.50596 24.5872 7.84932 24.9306L9.08447 26.1657C9.25557 26.3368 9.48057 26.4235 9.70557 26.4235C9.93057 26.4235 10.1556 26.338 10.3267 26.1657L12.2415 24.2509C12.5849 23.9075 12.5849 23.3509 12.2415 23.0075C11.8981 22.6642 11.3415 22.6642 10.9981 23.0075L10.9993 23.0087Z" fill="url(#paint1_linear_390_5382)"/>
<path d="M17.325 23.4282H36.7593C37.2445 23.4282 37.6382 23.0345 37.6382 22.5493C37.6382 22.0642 37.2445 21.6704 36.7593 21.6704H17.325C16.8398 21.6704 16.446 22.0642 16.446 22.5493C16.446 23.0345 16.8398 23.4282 17.325 23.4282Z" fill="url(#paint2_linear_390_5382)"/>
<path d="M17.325 27.1899H30.2753C30.7605 27.1899 31.1542 26.7962 31.1542 26.311C31.1542 25.8259 30.7605 25.4321 30.2753 25.4321H17.325C16.8398 25.4321 16.446 25.8259 16.446 26.311C16.446 26.7962 16.8398 27.1899 17.325 27.1899Z" fill="url(#paint3_linear_390_5382)"/>
<path d="M36.7594 25.4321H33.3223C32.8371 25.4321 32.4434 25.8259 32.4434 26.311C32.4434 26.7962 32.8371 27.1899 33.3223 27.1899H36.7594C37.2445 27.1899 37.6383 26.7962 37.6383 26.311C37.6383 25.8259 37.2445 25.4321 36.7594 25.4321Z" fill="url(#paint4_linear_390_5382)"/>
<path d="M10.0313 31.2468C7.254 31.2468 4.99463 33.5062 4.99463 36.2835C4.99463 39.0609 7.254 41.3203 10.0313 41.3203C12.8087 41.3203 15.0681 39.0609 15.0681 36.2835C15.0681 33.5062 12.8087 31.2468 10.0313 31.2468ZM10.0313 39.5636C8.22314 39.5636 6.75244 38.0929 6.75244 36.2847C6.75244 34.4765 8.22314 33.0058 10.0313 33.0058C11.8396 33.0058 13.3103 34.4765 13.3103 36.2847C13.3103 38.0929 11.8396 39.5636 10.0313 39.5636Z" fill="url(#paint5_linear_390_5382)"/>
<path d="M10.9993 34.8632L9.70674 36.1558L9.09267 35.5417C8.74932 35.1983 8.19268 35.1983 7.84932 35.5417C7.50596 35.8851 7.50596 36.4417 7.84932 36.7851L9.08447 38.0202C9.25557 38.1913 9.48057 38.278 9.70557 38.278C9.93057 38.278 10.1556 38.1925 10.3267 38.0202L12.2415 36.1054C12.5849 35.762 12.5849 35.2054 12.2415 34.862C11.8981 34.5187 11.3415 34.5187 10.9981 34.862L10.9993 34.8632Z" fill="url(#paint6_linear_390_5382)"/>
<path d="M11.2864 50.6555C11.2864 50.1704 10.8927 49.7766 10.4075 49.7766H5.87354C5.38838 49.7766 4.99463 50.1704 4.99463 50.6555C4.99463 51.1407 5.38838 51.5344 5.87354 51.5344H10.4075C10.8927 51.5344 11.2864 51.1407 11.2864 50.6555Z" fill="url(#paint7_linear_390_5382)"/>
<path d="M50.877 34.8902L46.3184 30.3316C45.975 29.9883 45.5191 29.7996 45.034 29.7996H42.6328V6.94102C42.6328 5.81016 41.7129 4.89023 40.582 4.89023H32.3086C32.0707 4.62773 31.8234 4.37227 31.5656 4.12383C28.7965 1.46484 25.1566 0 21.3164 0C17.4762 0 13.8363 1.46484 11.0684 4.12383C10.8105 4.37109 10.5633 4.62656 10.3254 4.89023H2.05078C0.919922 4.89023 0 5.81016 0 6.94102V55.0008C0 56.1316 0.919922 57.0516 2.05078 57.0516H5.54883C6.03398 57.0516 6.42773 56.6578 6.42773 56.1727C6.42773 55.6875 6.03398 55.2938 5.54883 55.2938H2.05078C1.88906 55.2938 1.75781 55.1625 1.75781 55.0008V46.5199H27.8344V49.7777H13.3992C12.9141 49.7777 12.5203 50.1715 12.5203 50.6566C12.5203 51.1418 12.9141 51.5355 13.3992 51.5355H27.8344V55.2949H9.65039C9.16523 55.2949 8.77148 55.6887 8.77148 56.1738C8.77148 56.659 9.16523 57.0527 9.65039 57.0527H27.8355V58.1848C27.8355 59.1867 28.65 60.0012 29.652 60.0012H49.5938C50.5957 60.0012 51.4102 59.1867 51.4102 58.1848V36.1758C51.4102 35.6906 51.2215 35.2348 50.8781 34.8914L50.877 34.8902ZM49.6512 58.1836C49.6512 58.2164 49.6254 58.2422 49.5926 58.2422H29.6508C29.618 58.2422 29.5922 58.2164 29.5922 58.1836V43.9453C29.5922 43.4602 29.1984 43.0664 28.7133 43.0664C28.2281 43.0664 27.8344 43.4602 27.8344 43.9453V44.7609H1.75781V6.94102C1.75781 6.7793 1.88906 6.64805 2.05078 6.64805H8.9625C7.49531 8.86523 6.64922 11.4457 6.5332 14.1527C6.5168 14.5465 6.66328 14.9367 6.9375 15.2227C7.21289 15.5098 7.59961 15.675 7.99688 15.675H11.2898C11.775 15.675 12.1688 15.2812 12.1688 14.7961C12.1688 14.3109 11.775 13.9172 11.2898 13.9172H8.30625C8.49258 11.1082 9.57305 8.46914 11.3895 6.34102C11.3965 6.33398 11.4023 6.32578 11.4082 6.31875C11.6836 5.99766 11.9754 5.68828 12.2848 5.3918C14.7246 3.04805 17.932 1.75781 21.3152 1.75781C24.6984 1.75781 27.9059 3.04805 30.3457 5.3918C30.6539 5.68828 30.9457 5.99766 31.2211 6.31875C31.2281 6.32695 31.2352 6.33516 31.241 6.34336C33.0574 8.47031 34.1367 11.1094 34.3231 13.9184H24.7148C24.6504 13.6676 24.5578 13.4285 24.4418 13.2023L28.3207 9.72891C28.568 10.0711 28.793 10.4332 28.9922 10.8152C29.1492 11.1164 29.4551 11.2887 29.7727 11.2887C29.9098 11.2887 30.048 11.257 30.1781 11.1891C30.6082 10.9652 30.7758 10.4344 30.552 10.0031C30.2836 9.48867 29.9777 9.00469 29.6379 8.55117L30.0516 8.18086C30.4137 7.85742 30.4441 7.30195 30.1195 6.93984C29.7961 6.57773 29.2406 6.54727 28.8785 6.87187L28.4684 7.23867C26.5664 5.43516 24.027 4.38984 21.3152 4.38984C17.4211 4.38984 13.882 6.54023 12.0785 10.0031C11.8547 10.4332 12.0211 10.9641 12.4523 11.1891C12.8824 11.4129 13.4133 11.2465 13.6383 10.8152C15.1383 7.93594 18.0797 6.14766 21.3164 6.14766C23.5195 6.14766 25.5867 6.97734 27.1547 8.41641L23.2793 11.8875C22.7191 11.509 22.043 11.2863 21.3176 11.2863C19.684 11.2863 18.3082 12.4066 17.9168 13.9195H15.3926C14.9074 13.9195 14.5137 14.3133 14.5137 14.7984C14.5137 15.2836 14.9074 15.6773 15.3926 15.6773H17.9168C18.3082 17.1902 19.684 18.3105 21.3176 18.3105C22.9512 18.3105 24.327 17.1902 24.7184 15.6773H34.6359C35.0344 15.6773 35.4199 15.5121 35.6953 15.225C35.9695 14.9391 36.116 14.5488 36.0996 14.1551C35.9836 11.4469 35.1387 8.86758 33.6715 6.65039H40.5832C40.7449 6.65039 40.8762 6.78164 40.8762 6.94336V29.802H29.6531C28.6512 29.802 27.8367 30.6164 27.8367 31.6184V33.5273H17.3262C16.841 33.5273 16.4473 33.9211 16.4473 34.4062C16.4473 34.8914 16.841 35.2852 17.3262 35.2852H27.8367V37.2891H17.3262C16.841 37.2891 16.4473 37.6828 16.4473 38.168C16.4473 38.6531 16.841 39.0469 17.3262 39.0469H27.8367V39.8473C27.8367 40.3324 28.2305 40.7262 28.7156 40.7262C29.2008 40.7262 29.5945 40.3324 29.5945 39.8473V31.6195C29.5945 31.5867 29.6203 31.5609 29.6531 31.5609H45.0352C45.0504 31.5609 45.0656 31.5668 45.0762 31.5785L49.6348 36.1371C49.6453 36.1477 49.6523 36.1629 49.6523 36.1781V58.1871L49.6512 58.1836ZM19.6008 14.434C19.7684 13.6406 20.4738 13.043 21.3164 13.043C21.8402 13.043 22.3102 13.275 22.6324 13.6406C22.6324 13.6406 22.6324 13.6418 22.6336 13.643C22.6336 13.643 22.6348 13.6441 22.6359 13.6453C22.8293 13.8668 22.9688 14.1363 23.032 14.434C22.9816 14.5441 22.9535 14.6672 22.9535 14.7973C22.9535 14.9273 22.9828 15.0492 23.032 15.1605C22.8645 15.9539 22.159 16.5516 21.3164 16.5516C20.4738 16.5516 19.7684 15.9539 19.6008 15.1605C19.6512 15.0504 19.6793 14.9273 19.6793 14.7984C19.6793 14.6695 19.6512 14.5465 19.6008 14.4363V14.434Z" fill="url(#paint8_linear_390_5382)"/>
<path d="M34.2974 45.7161H41.0567C41.5419 45.7161 41.9356 45.3223 41.9356 44.8372C41.9356 44.352 41.5419 43.9583 41.0567 43.9583H34.2974C33.8122 43.9583 33.4185 44.352 33.4185 44.8372C33.4185 45.3223 33.8122 45.7161 34.2974 45.7161Z" fill="url(#paint9_linear_390_5382)"/>
<path d="M34.2974 37.8306H35.7833C36.2685 37.8306 36.6622 37.4368 36.6622 36.9517C36.6622 36.4665 36.2685 36.0728 35.7833 36.0728H34.2974C33.8122 36.0728 33.4185 36.4665 33.4185 36.9517C33.4185 37.4368 33.8122 37.8306 34.2974 37.8306Z" fill="url(#paint10_linear_390_5382)"/>
<path d="M44.9473 36.0728H38.4785C37.9934 36.0728 37.5996 36.4665 37.5996 36.9517C37.5996 37.4368 37.9934 37.8306 38.4785 37.8306H44.9473C45.4324 37.8306 45.8262 37.4368 45.8262 36.9517C45.8262 36.4665 45.4324 36.0728 44.9473 36.0728Z" fill="url(#paint11_linear_390_5382)"/>
<path d="M44.9474 40.0161H34.2974C33.8122 40.0161 33.4185 40.4099 33.4185 40.895C33.4185 41.3802 33.8122 41.7739 34.2974 41.7739H44.9474C45.4325 41.7739 45.8263 41.3802 45.8263 40.895C45.8263 40.4099 45.4325 40.0161 44.9474 40.0161Z" fill="url(#paint12_linear_390_5382)"/>
<path d="M44.9473 43.9583H43.6348C43.1496 43.9583 42.7559 44.352 42.7559 44.8372C42.7559 45.3223 43.1496 45.7161 43.6348 45.7161H44.9473C45.4324 45.7161 45.8262 45.3223 45.8262 44.8372C45.8262 44.352 45.4324 43.9583 44.9473 43.9583Z" fill="url(#paint13_linear_390_5382)"/>
<path d="M44.9474 47.9016H34.2974C33.8122 47.9016 33.4185 48.2954 33.4185 48.7805C33.4185 49.2657 33.8122 49.6594 34.2974 49.6594H44.9474C45.4325 49.6594 45.8263 49.2657 45.8263 48.7805C45.8263 48.2954 45.4325 47.9016 44.9474 47.9016Z" fill="url(#paint14_linear_390_5382)"/>
<path d="M39.3927 51.8438H34.2974C33.8122 51.8438 33.4185 52.2375 33.4185 52.7227C33.4185 53.2078 33.8122 53.6016 34.2974 53.6016H39.3927C39.8778 53.6016 40.2716 53.2078 40.2716 52.7227C40.2716 52.2375 39.8778 51.8438 39.3927 51.8438Z" fill="url(#paint15_linear_390_5382)"/>
</g>
<defs>
<linearGradient id="paint0_linear_390_5382" x1="4.99463" y1="24.4288" x2="15.0681" y2="24.4288" gradientUnits="userSpaceOnUse">
<stop stop-color="#223962"/>
<stop offset="0.526042" stop-color="#3277BC"/>
<stop offset="0.973958" stop-color="#48ABDF"/>
</linearGradient>
<linearGradient id="paint1_linear_390_5382" x1="7.5918" y1="24.5868" x2="12.499" y2="24.5868" gradientUnits="userSpaceOnUse">
<stop stop-color="#223962"/>
<stop offset="0.526042" stop-color="#3277BC"/>
<stop offset="0.973958" stop-color="#48ABDF"/>
</linearGradient>
<linearGradient id="paint2_linear_390_5382" x1="16.446" y1="22.5493" x2="37.6382" y2="22.5493" gradientUnits="userSpaceOnUse">
<stop stop-color="#223962"/>
<stop offset="0.526042" stop-color="#3277BC"/>
<stop offset="0.973958" stop-color="#48ABDF"/>
</linearGradient>
<linearGradient id="paint3_linear_390_5382" x1="16.446" y1="26.311" x2="31.1542" y2="26.311" gradientUnits="userSpaceOnUse">
<stop stop-color="#223962"/>
<stop offset="0.526042" stop-color="#3277BC"/>
<stop offset="0.973958" stop-color="#48ABDF"/>
</linearGradient>
<linearGradient id="paint4_linear_390_5382" x1="32.4434" y1="26.311" x2="37.6383" y2="26.311" gradientUnits="userSpaceOnUse">
<stop stop-color="#223962"/>
<stop offset="0.526042" stop-color="#3277BC"/>
<stop offset="0.973958" stop-color="#48ABDF"/>
</linearGradient>
<linearGradient id="paint5_linear_390_5382" x1="4.99463" y1="36.2835" x2="15.0681" y2="36.2835" gradientUnits="userSpaceOnUse">
<stop stop-color="#223962"/>
<stop offset="0.526042" stop-color="#3277BC"/>
<stop offset="0.973958" stop-color="#48ABDF"/>
</linearGradient>
<linearGradient id="paint6_linear_390_5382" x1="7.5918" y1="36.4413" x2="12.499" y2="36.4413" gradientUnits="userSpaceOnUse">
<stop stop-color="#223962"/>
<stop offset="0.526042" stop-color="#3277BC"/>
<stop offset="0.973958" stop-color="#48ABDF"/>
</linearGradient>
<linearGradient id="paint7_linear_390_5382" x1="4.99463" y1="50.6555" x2="11.2864" y2="50.6555" gradientUnits="userSpaceOnUse">
<stop stop-color="#223962"/>
<stop offset="0.526042" stop-color="#3277BC"/>
<stop offset="0.973958" stop-color="#48ABDF"/>
</linearGradient>
<linearGradient id="paint8_linear_390_5382" x1="-1.91518e-07" y1="30.0006" x2="51.4102" y2="30.0006" gradientUnits="userSpaceOnUse">
<stop stop-color="#223962"/>
<stop offset="0.526042" stop-color="#3277BC"/>
<stop offset="0.973958" stop-color="#48ABDF"/>
</linearGradient>
<linearGradient id="paint9_linear_390_5382" x1="33.4185" y1="44.8372" x2="41.9356" y2="44.8372" gradientUnits="userSpaceOnUse">
<stop stop-color="#223962"/>
<stop offset="0.526042" stop-color="#3277BC"/>
<stop offset="0.973958" stop-color="#48ABDF"/>
</linearGradient>
<linearGradient id="paint10_linear_390_5382" x1="33.4185" y1="36.9517" x2="36.6622" y2="36.9517" gradientUnits="userSpaceOnUse">
<stop stop-color="#223962"/>
<stop offset="0.526042" stop-color="#3277BC"/>
<stop offset="0.973958" stop-color="#48ABDF"/>
</linearGradient>
<linearGradient id="paint11_linear_390_5382" x1="37.5996" y1="36.9517" x2="45.8262" y2="36.9517" gradientUnits="userSpaceOnUse">
<stop stop-color="#223962"/>
<stop offset="0.526042" stop-color="#3277BC"/>
<stop offset="0.973958" stop-color="#48ABDF"/>
</linearGradient>
<linearGradient id="paint12_linear_390_5382" x1="33.4185" y1="40.895" x2="45.8263" y2="40.895" gradientUnits="userSpaceOnUse">
<stop stop-color="#223962"/>
<stop offset="0.526042" stop-color="#3277BC"/>
<stop offset="0.973958" stop-color="#48ABDF"/>
</linearGradient>
<linearGradient id="paint13_linear_390_5382" x1="42.7559" y1="44.8372" x2="45.8262" y2="44.8372" gradientUnits="userSpaceOnUse">
<stop stop-color="#223962"/>
<stop offset="0.526042" stop-color="#3277BC"/>
<stop offset="0.973958" stop-color="#48ABDF"/>
</linearGradient>
<linearGradient id="paint14_linear_390_5382" x1="33.4185" y1="48.7805" x2="45.8263" y2="48.7805" gradientUnits="userSpaceOnUse">
<stop stop-color="#223962"/>
<stop offset="0.526042" stop-color="#3277BC"/>
<stop offset="0.973958" stop-color="#48ABDF"/>
</linearGradient>
<linearGradient id="paint15_linear_390_5382" x1="33.4185" y1="52.7227" x2="40.2716" y2="52.7227" gradientUnits="userSpaceOnUse">
<stop stop-color="#223962"/>
<stop offset="0.526042" stop-color="#3277BC"/>
<stop offset="0.973958" stop-color="#48ABDF"/>
</linearGradient>
<clipPath id="clip0_390_5382">
<rect width="51.409" height="60" fill="white"/>
</clipPath>
</defs>
</svg>
