<svg width="49" height="60" viewBox="0 0 49 60" fill="none" xmlns="http://www.w3.org/2000/svg">
<g clip-path="url(#clip0_343_4941)">
<path d="M23.4364 15.5273C23.9216 15.5273 24.3153 15.1336 24.3153 14.6484C24.3153 14.1633 23.9216 13.7695 23.4364 13.7695H11.8384C11.3532 13.7695 10.9595 14.1633 10.9595 14.6484C10.9595 15.1336 11.3532 15.5273 11.8384 15.5273H23.4364Z" fill="url(#paint0_linear_343_4941)"/>
<path d="M6.9751 20.625C6.9751 21.1102 7.36885 21.5039 7.854 21.5039H27.4208C27.906 21.5039 28.2997 21.1102 28.2997 20.625C28.2997 20.1398 27.906 19.7461 27.4208 19.7461H7.854C7.36885 19.7461 6.9751 20.1398 6.9751 20.625Z" fill="url(#paint1_linear_343_4941)"/>
<path d="M7.854 25.6055H27.4208C27.906 25.6055 28.2997 25.2117 28.2997 24.7266C28.2997 24.2414 27.906 23.8477 27.4208 23.8477H7.854C7.36885 23.8477 6.9751 24.2414 6.9751 24.7266C6.9751 25.2117 7.36885 25.6055 7.854 25.6055Z" fill="url(#paint2_linear_343_4941)"/>
<path d="M7.854 33.8086H14.5302C15.0153 33.8086 15.4091 33.4148 15.4091 32.9297C15.4091 32.4445 15.0153 32.0508 14.5302 32.0508H7.854C7.36885 32.0508 6.9751 32.4445 6.9751 32.9297C6.9751 33.4148 7.36885 33.8086 7.854 33.8086Z" fill="url(#paint3_linear_343_4941)"/>
<path d="M47.4 39.1969C47.8852 39.1969 48.2789 38.8031 48.2789 38.318V34.3688C48.2789 33.8285 48.0047 33.3363 47.5453 33.0516L43.3184 30.4336V1.23047C43.3184 0.551953 42.7664 0 42.0879 0H9.27422C8.5957 0 8.04375 0.551953 8.04375 1.23047V4.02187H5.25234C4.57383 4.02187 4.02187 4.57383 4.02187 5.25234V8.04375H1.23047C0.551953 8.04375 0 8.5957 0 9.27422V54.1535C0 54.832 0.551953 55.384 1.23047 55.384H7.7332C8.21836 55.384 8.61211 54.9902 8.61211 54.5051C8.61211 54.0199 8.21836 53.6262 7.7332 53.6262H1.75781V9.80156H33.5168V25.9699L28.1742 29.2793C28.2539 29.1469 28.2996 28.9934 28.2996 28.8281C28.2996 28.343 27.9059 27.9492 27.4207 27.9492H7.85391C7.36875 27.9492 6.975 28.343 6.975 28.8281C6.975 29.3133 7.36875 29.707 7.85391 29.707H27.4207C27.4441 29.707 27.4664 29.7047 27.4887 29.7035L23.6988 32.0508H17.3426C16.8574 32.0508 16.4637 32.4445 16.4637 32.9297C16.4637 33.4148 16.8574 33.8086 17.3426 33.8086H21.4547C21.3867 33.9844 21.3504 34.173 21.3504 34.3688V36.1523H7.85391C7.36875 36.1523 6.975 36.5461 6.975 37.0312C6.975 37.5164 7.36875 37.9102 7.85391 37.9102H21.3504V40.2539H7.85391C7.36875 40.2539 6.975 40.6477 6.975 41.1328C6.975 41.618 7.36875 42.0117 7.85391 42.0117H21.3504V44.0836C21.3504 44.1738 21.3516 44.2652 21.3539 44.3555H7.85391C7.36875 44.3555 6.975 44.7492 6.975 45.2344C6.975 45.7195 7.36875 46.1133 7.85391 46.1133H21.5449C21.9996 48.4699 23.2406 50.6203 25.1004 52.2047L26.768 53.625H11.8359C11.3508 53.625 10.957 54.0187 10.957 54.5039C10.957 54.9891 11.3508 55.3828 11.8359 55.3828H28.8305L33.8098 59.6262C34.1004 59.8746 34.4578 59.9977 34.8141 59.9977C35.1703 59.9977 35.5277 59.8734 35.8184 59.6262L44.5289 52.2035C46.9113 50.1727 48.2789 47.2125 48.2789 44.0824V42.4184C48.2789 41.9332 47.8852 41.5395 47.4 41.5395C46.9148 41.5395 46.5211 41.9332 46.5211 42.4184V44.0824C46.5211 46.698 45.3797 49.1707 43.3887 50.8664L34.8141 58.1742L26.2395 50.8664C24.2496 49.1707 23.1082 46.698 23.1082 44.0824V34.4836L34.8141 27.2332L46.5211 34.4836V38.3168C46.5211 38.802 46.9148 39.1957 47.4 39.1957V39.1969ZM41.5605 29.3449L39.2965 27.9422V16.0547C39.2965 15.5695 38.9027 15.1758 38.4176 15.1758C37.9324 15.1758 37.5387 15.5695 37.5387 16.0547V26.8535L35.6297 25.6711C35.516 25.6008 35.3965 25.548 35.2746 25.5094V9.27422C35.2746 8.5957 34.7227 8.04375 34.0441 8.04375H5.77969V5.77969H37.5387V11.9531C37.5387 12.4383 37.9324 12.832 38.4176 12.832C38.9027 12.832 39.2965 12.4383 39.2965 11.9531V5.25234C39.2965 4.57383 38.7445 4.02187 38.066 4.02187H9.80156V1.75781H41.5605V29.3449Z" fill="url(#paint4_linear_343_4941)"/>
<path d="M26.7632 41.1016C26.7632 45.5406 30.3749 49.1523 34.814 49.1523C39.253 49.1523 42.8647 45.5406 42.8647 41.1016C42.8647 36.6625 39.253 33.0508 34.814 33.0508C30.3749 33.0508 26.7632 36.6625 26.7632 41.1016ZM41.1069 41.1016C41.1069 44.5715 38.2839 47.3945 34.814 47.3945C31.344 47.3945 28.521 44.5715 28.521 41.1016C28.521 37.6316 31.344 34.8086 34.814 34.8086C38.2839 34.8086 41.1069 37.6316 41.1069 41.1016Z" fill="url(#paint5_linear_343_4941)"/>
<path d="M33.0094 40.2341C32.6661 39.8907 32.1094 39.8907 31.7661 40.2341C31.4227 40.5774 31.4227 41.1341 31.7661 41.4774L33.8872 43.5985C34.0594 43.7696 34.2844 43.8563 34.5083 43.8563C34.7321 43.8563 34.9582 43.7708 35.1293 43.5985L38.4165 40.3114C38.7598 39.9681 38.7598 39.4114 38.4165 39.0681C38.0731 38.7247 37.5165 38.7247 37.1731 39.0681L34.5071 41.7341L33.0071 40.2353L33.0094 40.2341Z" fill="url(#paint6_linear_343_4941)"/>
</g>
<defs>
<linearGradient id="paint0_linear_343_4941" x1="10.9595" y1="14.6484" x2="24.3153" y2="14.6484" gradientUnits="userSpaceOnUse">
<stop stop-color="#223962"/>
<stop offset="0.526042" stop-color="#3277BC"/>
<stop offset="0.973958" stop-color="#48ABDF"/>
</linearGradient>
<linearGradient id="paint1_linear_343_4941" x1="6.9751" y1="20.625" x2="28.2997" y2="20.625" gradientUnits="userSpaceOnUse">
<stop stop-color="#223962"/>
<stop offset="0.526042" stop-color="#3277BC"/>
<stop offset="0.973958" stop-color="#48ABDF"/>
</linearGradient>
<linearGradient id="paint2_linear_343_4941" x1="6.9751" y1="24.7266" x2="28.2997" y2="24.7266" gradientUnits="userSpaceOnUse">
<stop stop-color="#223962"/>
<stop offset="0.526042" stop-color="#3277BC"/>
<stop offset="0.973958" stop-color="#48ABDF"/>
</linearGradient>
<linearGradient id="paint3_linear_343_4941" x1="6.9751" y1="32.9297" x2="15.4091" y2="32.9297" gradientUnits="userSpaceOnUse">
<stop stop-color="#223962"/>
<stop offset="0.526042" stop-color="#3277BC"/>
<stop offset="0.973958" stop-color="#48ABDF"/>
</linearGradient>
<linearGradient id="paint4_linear_343_4941" x1="-1.79853e-07" y1="29.9988" x2="48.2789" y2="29.9988" gradientUnits="userSpaceOnUse">
<stop stop-color="#223962"/>
<stop offset="0.526042" stop-color="#3277BC"/>
<stop offset="0.973958" stop-color="#48ABDF"/>
</linearGradient>
<linearGradient id="paint5_linear_343_4941" x1="26.7632" y1="41.1016" x2="42.8647" y2="41.1016" gradientUnits="userSpaceOnUse">
<stop stop-color="#223962"/>
<stop offset="0.526042" stop-color="#3277BC"/>
<stop offset="0.973958" stop-color="#48ABDF"/>
</linearGradient>
<linearGradient id="paint6_linear_343_4941" x1="31.5085" y1="41.3334" x2="38.674" y2="41.3334" gradientUnits="userSpaceOnUse">
<stop stop-color="#223962"/>
<stop offset="0.526042" stop-color="#3277BC"/>
<stop offset="0.973958" stop-color="#48ABDF"/>
</linearGradient>
<clipPath id="clip0_343_4941">
<rect width="48.2789" height="60" fill="white"/>
</clipPath>
</defs>
</svg>
