<svg width="80" height="80" viewBox="0 0 80 80" fill="none" xmlns="http://www.w3.org/2000/svg">
<g clip-path="url(#clip0_1_1616)">
<path d="M50.9051 16.1663C50.3669 16.5259 50.2222 17.2536 50.5819 17.7917C51.9787 19.8819 52.7171 22.3214 52.7171 24.8467C52.7171 27.4788 51.9135 29.9264 50.539 31.9577C49.7115 29.7081 47.7357 28.0108 45.3263 27.575C46.6602 26.2227 47.4854 24.3672 47.4854 22.322C47.4854 18.1945 44.1276 14.8366 40.0001 14.8366C35.8726 14.8366 32.5147 18.1945 32.5147 22.322C32.5147 24.3672 33.3399 26.2227 34.6738 27.575C32.2644 28.0108 30.2887 29.7083 29.4612 31.9577C28.0866 29.9264 27.283 27.4788 27.283 24.8467C27.283 17.8345 32.988 12.1295 40.0002 12.1295C42.5255 12.1295 44.9651 12.868 47.0554 14.2649C47.5933 14.6244 48.3213 14.4797 48.6807 13.9417C49.0404 13.4036 48.8957 12.6758 48.3576 12.3163C45.8804 10.6609 42.9905 9.78595 39.9999 9.78595C31.6954 9.78595 24.939 16.5422 24.939 24.8469C24.939 33.1524 31.6952 39.9094 39.9999 39.9094C48.3046 39.9094 55.0608 33.1524 55.0608 24.8469C55.0608 21.8564 54.1858 18.9664 52.5305 16.4895C52.1712 15.9513 51.4426 15.8069 50.9051 16.1663ZM39.9999 17.1805C42.8351 17.1805 45.1415 19.487 45.1415 22.3222C45.1415 25.1574 42.8349 27.4638 39.9999 27.4638C37.1649 27.4638 34.8583 25.1572 34.8583 22.3222C34.8583 19.487 37.1647 17.1805 39.9999 17.1805ZM31.389 34.1959C31.4541 31.7652 33.4501 29.8075 35.896 29.8075H44.1037C46.5496 29.8075 48.5457 31.7652 48.6107 34.1959C46.3437 36.2861 43.3188 37.5656 39.9997 37.5656C36.6807 37.5656 33.6558 36.2861 31.389 34.1959Z" fill="url(#paint0_linear_1_1616)"/>
<path d="M64.9385 62.9534H68.7266C69.3739 62.9534 69.8985 62.4287 69.8985 61.7816C69.8985 61.1344 69.3739 60.6097 68.7266 60.6097H64.9385C64.2911 60.6097 63.7666 61.1344 63.7666 61.7816C63.7666 62.4287 64.2913 62.9534 64.9385 62.9534Z" fill="url(#paint1_linear_1_1616)"/>
<path d="M64.9385 68.0044H73.7774C74.4247 68.0044 74.9493 67.4797 74.9493 66.8325C74.9493 66.1853 74.4247 65.6606 73.7774 65.6606H64.9385C64.2911 65.6606 63.7666 66.1853 63.7666 66.8325C63.7666 67.4797 64.2913 68.0044 64.9385 68.0044Z" fill="url(#paint2_linear_1_1616)"/>
<path d="M64.9385 73.0552H73.7774C74.4247 73.0552 74.9493 72.5305 74.9493 71.8833C74.9493 71.2361 74.4247 70.7114 73.7774 70.7114H64.9385C64.2911 70.7114 63.7666 71.2361 63.7666 71.8833C63.7666 72.5305 64.2913 73.0552 64.9385 73.0552Z" fill="url(#paint3_linear_1_1616)"/>
<path d="M79.1942 60.49L75.0698 56.3673C74.5517 55.8464 73.8605 55.5594 73.1234 55.5594H70.5297V24.8475C70.5297 24.2003 70.0052 23.6756 69.3578 23.6756H64.8475V22.6378C64.8475 22.0827 64.4581 21.6037 63.9145 21.4906L59.6628 20.6048C59.5238 19.9575 59.3528 19.3172 59.1514 18.6892L62.3892 15.7975C62.8031 15.4278 62.9009 14.8183 62.6234 14.3375L60.4136 10.5102C60.1361 10.0295 59.5597 9.80953 59.032 9.98297L54.9028 11.3431C54.46 10.8548 53.9925 10.3875 53.5042 9.94453L54.8644 5.81531C55.0381 5.28797 54.818 4.71141 54.3373 4.43375L50.51 2.22406C50.0294 1.94656 49.4195 2.04422 49.05 2.45828L46.1583 5.69609C45.5303 5.49469 44.89 5.32375 44.2425 5.18469L43.3569 0.932969C43.2439 0.389531 42.7648 0 42.2098 0H37.7903C37.2352 0 36.7562 0.389531 36.643 0.932969L35.7573 5.18469C35.1098 5.32375 34.4695 5.49469 33.8416 5.69609L30.9498 2.45828C30.58 2.04437 29.9706 1.94641 29.4898 2.22406L25.6625 4.43375C25.1819 4.71125 24.9617 5.28797 25.1355 5.81531L26.4956 9.94453C26.0073 10.3873 25.5398 10.8548 25.097 11.3431L20.9678 9.98297C20.4402 9.80937 19.8638 10.0294 19.5863 10.5102L17.3766 14.3375C17.0991 14.8183 17.1969 15.4278 17.6108 15.7975L20.8486 18.6892C20.6472 19.3172 20.4761 19.9575 20.3372 20.6048L16.0855 21.4906C15.5419 21.6039 15.1525 22.0828 15.1525 22.6378V23.6756H10.642C9.99469 23.6756 9.47016 24.2003 9.47016 24.8475V55.5594H2.75C1.23375 55.5594 0 56.7931 0 58.3094V77.25C0 78.7664 1.23375 80 2.75 80H18.5344C20.0506 80 21.2844 78.7663 21.2844 77.25V72.3016C21.2844 71.6544 20.7598 71.1297 20.1125 71.1297C19.4652 71.1297 18.9406 71.6544 18.9406 72.3016V77.25C18.9406 77.4741 18.7584 77.6562 18.5344 77.6562H2.75C2.52594 77.6562 2.34375 77.4739 2.34375 77.25V58.3094C2.34375 58.0853 2.52594 57.9031 2.75 57.9031H13.8898V60.2033C13.8898 61.7198 15.1236 62.9536 16.6402 62.9536H18.9408V66.833C18.9408 67.4802 19.4653 68.0048 20.1127 68.0048C20.76 68.0048 21.2845 67.4802 21.2845 66.833V62.4361C21.2845 61.7008 20.9983 61.0097 20.4787 60.4902L16.3544 56.3675C15.8363 55.8466 15.145 55.5595 14.408 55.5595H11.8139V26.0194H15.1523V27.0572C15.1523 27.6123 15.5417 28.0912 16.0853 28.2044L20.337 29.0902C20.4761 29.7375 20.647 30.3778 20.8484 31.0058L17.6106 33.8975C17.1967 34.2672 17.0989 34.8767 17.3764 35.3575L19.5863 39.1848C19.8638 39.6655 20.4403 39.8858 20.9678 39.712L25.097 38.3519C25.5398 38.8402 26.0073 39.3075 26.4956 39.7505L25.1355 43.8797C24.9617 44.407 25.1819 44.9836 25.6625 45.2612L29.4898 47.4709C29.9703 47.7483 30.58 47.6508 30.9498 47.2367L33.8416 43.9989C34.4695 44.2005 35.1098 44.3713 35.7573 44.5103L36.643 48.762C36.7562 49.3055 37.2352 49.695 37.7903 49.695H38.8283V55.5587H32.1083C30.5919 55.5587 29.358 56.7925 29.358 58.3091V77.2497C29.358 78.7663 30.5917 80 32.1083 80H47.892C49.4084 80 50.6423 78.7663 50.6423 77.2497V62.4353C50.6423 61.7006 50.3563 61.01 49.837 60.4906L45.7108 56.3644C45.1912 55.8448 44.5006 55.5587 43.7661 55.5587H41.1719V49.695H42.2098C42.765 49.695 43.2439 49.3055 43.3572 48.762L44.2428 44.5103C44.8903 44.3713 45.5306 44.2003 46.1586 43.9989L49.0503 47.2367C49.4202 47.6506 50.0297 47.7486 50.5103 47.4709L54.3377 45.2612C54.8183 44.9837 55.0384 44.407 54.8647 43.8797L53.5045 39.7505C53.9928 39.3077 54.4603 38.8402 54.9031 38.3519L59.0323 39.712C59.5595 39.8855 60.1362 39.6656 60.4139 39.1848L62.6237 35.3575C62.9012 34.8767 62.8034 34.2672 62.3895 33.8975L59.1517 31.0058C59.3531 30.3778 59.5242 29.7375 59.6631 29.0902L63.9148 28.2044C64.4584 28.0911 64.8478 27.6122 64.8478 27.0572V26.0194H68.1862V55.5594H61.4656C59.9494 55.5594 58.7156 56.7931 58.7156 58.3094V63.2812C58.7156 63.9284 59.2402 64.4531 59.8875 64.4531C60.5348 64.4531 61.0594 63.9284 61.0594 63.2812V58.3094C61.0594 58.0853 61.2416 57.9031 61.4656 57.9031H72.6055V60.2033C72.6055 61.7198 73.8392 62.9536 75.3558 62.9536H77.6562V77.25C77.6562 77.4741 77.4741 77.6562 77.25 77.6562H61.4656C61.2416 77.6562 61.0594 77.4739 61.0594 77.25V68.75C61.0594 68.1028 60.5348 67.5781 59.8875 67.5781C59.2402 67.5781 58.7156 68.1028 58.7156 68.75V77.25C58.7156 78.7664 59.9494 80 61.4656 80H77.25C78.7663 80 80 78.7663 80 77.25V62.4359C80 61.7006 79.7137 61.0095 79.1942 60.49ZM47.8919 77.6562H32.1081C31.8839 77.6562 31.7016 77.4739 31.7016 77.2497V58.3091C31.7016 58.0848 31.8839 57.9025 32.1081 57.9025H43.2475V60.2031C43.2475 61.7197 44.4812 62.9534 45.9978 62.9534H48.2984V77.2497C48.2983 77.4739 48.1159 77.6562 47.8919 77.6562ZM62.5037 26.1044L58.422 26.9548C57.9513 27.0528 57.5883 27.4284 57.5064 27.902C57.3258 28.9447 57.0512 29.973 56.6902 30.9586C56.5248 31.4095 56.6516 31.9156 57.0098 32.2356L60.1172 35.0108L58.8603 37.1877L54.8975 35.8823C54.4412 35.7325 53.9403 35.8753 53.632 36.2434C52.9561 37.0511 52.2038 37.8036 51.3958 38.4797C51.0278 38.7878 50.8847 39.2891 51.0348 39.745L52.3402 43.708L50.1631 44.9647L47.388 41.8573C47.068 41.4992 46.562 41.372 46.1109 41.5377C45.1252 41.8986 44.0966 42.1733 43.0541 42.3539C42.5805 42.4359 42.2048 42.7991 42.1069 43.2697L41.2567 47.3514H38.743L37.8928 43.2697C37.7947 42.7991 37.4192 42.4361 36.9456 42.3539C35.903 42.1733 34.8744 41.8986 33.8887 41.5377C33.4373 41.372 32.9316 41.4992 32.6117 41.8573L29.8366 44.9647L27.6595 43.708L28.9648 39.745C29.1152 39.2891 28.972 38.7878 28.6039 38.4797C27.7959 37.8036 27.0438 37.0511 26.3677 36.2434C26.0595 35.8753 25.558 35.7323 25.1022 35.8823L21.1394 37.1877L19.8825 35.0108L22.9898 32.2356C23.3481 31.9156 23.4748 31.4095 23.3095 30.9586C22.9484 29.973 22.6741 28.9445 22.4933 27.902C22.4114 27.4283 22.0483 27.0528 21.5777 26.9548L17.4959 26.1044V23.5908L21.5777 22.7403C22.0484 22.6423 22.4114 22.2667 22.4933 21.7931C22.6739 20.7505 22.9484 19.722 23.3095 18.7366C23.4748 18.2855 23.3481 17.7794 22.9898 17.4594L19.8828 14.6842L21.1397 12.5073L25.1025 13.8127C25.5591 13.963 26.0598 13.8198 26.368 13.4516C27.0439 12.6439 27.7962 11.8914 28.6042 11.2153C28.9722 10.9072 29.1153 10.4059 28.9652 9.95L27.6598 5.98703L29.8369 4.73031L32.612 7.83766C32.9322 8.19578 33.4384 8.32266 33.8891 8.15734C34.8745 7.79641 35.903 7.52188 36.9459 7.34109C37.4195 7.25906 37.7952 6.89594 37.8931 6.42531L38.7431 2.34375H41.2569L42.107 6.42547C42.2052 6.89609 42.5806 7.25906 43.0542 7.34125C44.0973 7.52188 45.1258 7.79656 46.1111 8.1575C46.5619 8.32281 47.0681 8.19594 47.3881 7.83781L50.1633 4.73047L52.3403 5.98719L51.035 9.95016C50.8847 10.4061 51.0278 10.9073 51.3959 11.2155C52.2039 11.8916 52.9561 12.6441 53.6322 13.4517C53.9405 13.8198 54.4419 13.9628 54.8977 13.8128L58.8605 12.5075L60.1173 14.6844L57.01 17.4595C56.6517 17.7795 56.525 18.2856 56.6903 18.7367C57.0514 19.7222 57.3258 20.7506 57.5066 21.7933C57.5884 22.267 57.9516 22.6425 58.4222 22.7405L62.5039 23.5909V26.1044H62.5037Z" fill="url(#paint4_linear_1_1616)"/>
<path d="M35.5806 62.9534H39.3685C40.0159 62.9534 40.5404 62.4287 40.5404 61.7816C40.5404 61.1344 40.0159 60.6097 39.3685 60.6097H35.5806C34.9332 60.6097 34.4087 61.1344 34.4087 61.7816C34.4087 62.4287 34.9332 62.9534 35.5806 62.9534Z" fill="url(#paint5_linear_1_1616)"/>
<path d="M44.4193 65.6606H35.5806C34.9332 65.6606 34.4087 66.1853 34.4087 66.8325C34.4087 67.4797 34.9332 68.0044 35.5806 68.0044H44.4193C45.0667 68.0044 45.5912 67.4797 45.5912 66.8325C45.5912 66.1853 45.0667 65.6606 44.4193 65.6606Z" fill="url(#paint6_linear_1_1616)"/>
<path d="M44.4193 70.7114H35.5806C34.9332 70.7114 34.4087 71.2361 34.4087 71.8833C34.4087 72.5305 34.9332 73.0552 35.5806 73.0552H44.4193C45.0667 73.0552 45.5912 72.5305 45.5912 71.8833C45.5912 71.2361 45.0667 70.7114 44.4193 70.7114Z" fill="url(#paint7_linear_1_1616)"/>
<path d="M6.22266 62.9534H10.0108C10.6581 62.9534 11.1827 62.4287 11.1827 61.7816C11.1827 61.1344 10.6581 60.6097 10.0108 60.6097H6.22266C5.57531 60.6097 5.05078 61.1344 5.05078 61.7816C5.05078 62.4287 5.57547 62.9534 6.22266 62.9534Z" fill="url(#paint8_linear_1_1616)"/>
<path d="M15.0617 65.6606H6.22266C5.57531 65.6606 5.05078 66.1853 5.05078 66.8325C5.05078 67.4797 5.57531 68.0044 6.22266 68.0044H15.0616C15.7089 68.0044 16.2334 67.4797 16.2334 66.8325C16.2334 66.1853 15.7089 65.6606 15.0617 65.6606Z" fill="url(#paint9_linear_1_1616)"/>
<path d="M15.0617 70.7114H6.22266C5.57531 70.7114 5.05078 71.2361 5.05078 71.8833C5.05078 72.5305 5.57531 73.0552 6.22266 73.0552H15.0616C15.7089 73.0552 16.2334 72.5305 16.2334 71.8833C16.2334 71.2361 15.7089 70.7114 15.0617 70.7114Z" fill="url(#paint10_linear_1_1616)"/>
</g>
<defs>
<linearGradient id="paint0_linear_1_1616" x1="24.939" y1="24.8477" x2="55.0608" y2="24.8477" gradientUnits="userSpaceOnUse">
<stop stop-color="#223962"/>
<stop offset="0.526042" stop-color="#3277BC"/>
<stop offset="0.973958" stop-color="#48ABDF"/>
</linearGradient>
<linearGradient id="paint1_linear_1_1616" x1="63.7666" y1="61.7816" x2="69.8985" y2="61.7816" gradientUnits="userSpaceOnUse">
<stop stop-color="#223962"/>
<stop offset="0.526042" stop-color="#3277BC"/>
<stop offset="0.973958" stop-color="#48ABDF"/>
</linearGradient>
<linearGradient id="paint2_linear_1_1616" x1="63.7666" y1="66.8325" x2="74.9493" y2="66.8325" gradientUnits="userSpaceOnUse">
<stop stop-color="#223962"/>
<stop offset="0.526042" stop-color="#3277BC"/>
<stop offset="0.973958" stop-color="#48ABDF"/>
</linearGradient>
<linearGradient id="paint3_linear_1_1616" x1="63.7666" y1="71.8833" x2="74.9493" y2="71.8833" gradientUnits="userSpaceOnUse">
<stop stop-color="#223962"/>
<stop offset="0.526042" stop-color="#3277BC"/>
<stop offset="0.973958" stop-color="#48ABDF"/>
</linearGradient>
<linearGradient id="paint4_linear_1_1616" x1="-2.98023e-07" y1="40" x2="80" y2="40" gradientUnits="userSpaceOnUse">
<stop stop-color="#223962"/>
<stop offset="0.526042" stop-color="#3277BC"/>
<stop offset="0.973958" stop-color="#48ABDF"/>
</linearGradient>
<linearGradient id="paint5_linear_1_1616" x1="34.4087" y1="61.7816" x2="40.5404" y2="61.7816" gradientUnits="userSpaceOnUse">
<stop stop-color="#223962"/>
<stop offset="0.526042" stop-color="#3277BC"/>
<stop offset="0.973958" stop-color="#48ABDF"/>
</linearGradient>
<linearGradient id="paint6_linear_1_1616" x1="34.4087" y1="66.8325" x2="45.5912" y2="66.8325" gradientUnits="userSpaceOnUse">
<stop stop-color="#223962"/>
<stop offset="0.526042" stop-color="#3277BC"/>
<stop offset="0.973958" stop-color="#48ABDF"/>
</linearGradient>
<linearGradient id="paint7_linear_1_1616" x1="34.4087" y1="71.8833" x2="45.5912" y2="71.8833" gradientUnits="userSpaceOnUse">
<stop stop-color="#223962"/>
<stop offset="0.526042" stop-color="#3277BC"/>
<stop offset="0.973958" stop-color="#48ABDF"/>
</linearGradient>
<linearGradient id="paint8_linear_1_1616" x1="5.05078" y1="61.7816" x2="11.1827" y2="61.7816" gradientUnits="userSpaceOnUse">
<stop stop-color="#223962"/>
<stop offset="0.526042" stop-color="#3277BC"/>
<stop offset="0.973958" stop-color="#48ABDF"/>
</linearGradient>
<linearGradient id="paint9_linear_1_1616" x1="5.05078" y1="66.8325" x2="16.2334" y2="66.8325" gradientUnits="userSpaceOnUse">
<stop stop-color="#223962"/>
<stop offset="0.526042" stop-color="#3277BC"/>
<stop offset="0.973958" stop-color="#48ABDF"/>
</linearGradient>
<linearGradient id="paint10_linear_1_1616" x1="5.05078" y1="71.8833" x2="16.2334" y2="71.8833" gradientUnits="userSpaceOnUse">
<stop stop-color="#223962"/>
<stop offset="0.526042" stop-color="#3277BC"/>
<stop offset="0.973958" stop-color="#48ABDF"/>
</linearGradient>
<clipPath id="clip0_1_1616">
<rect width="80" height="80" fill="white"/>
</clipPath>
</defs>
</svg>
