<svg width="59" height="60" viewBox="0 0 59 60" fill="none" xmlns="http://www.w3.org/2000/svg">
<g clip-path="url(#clip0_343_4854)">
<path d="M37.643 38.5117H34.1379C33.6528 38.5117 33.259 38.9055 33.259 39.3906C33.259 39.8758 33.6528 40.2695 34.1379 40.2695H37.643C38.1282 40.2695 38.5219 39.8758 38.5219 39.3906C38.5219 38.9055 38.1282 38.5117 37.643 38.5117Z" fill="url(#paint0_linear_343_4854)"/>
<path d="M10.5703 45.3586V42.0762C10.5703 41.591 10.1766 41.1973 9.69141 41.1973C9.20625 41.1973 8.8125 41.591 8.8125 42.0762V45.3586C8.8125 45.8438 9.20625 46.2375 9.69141 46.2375C10.1766 46.2375 10.5703 45.8438 10.5703 45.3586Z" fill="url(#paint1_linear_343_4854)"/>
<path d="M40.0278 7.46973H45.9071C46.3923 7.46973 46.786 7.07598 46.786 6.59082C46.786 6.10566 46.3923 5.71191 45.9071 5.71191H40.0278C39.5427 5.71191 39.1489 6.10566 39.1489 6.59082C39.1489 7.07598 39.5427 7.46973 40.0278 7.46973Z" fill="url(#paint2_linear_343_4854)"/>
<path d="M40.0278 11.0605H45.9071C46.3923 11.0605 46.786 10.6668 46.786 10.1816C46.786 9.69648 46.3923 9.30273 45.9071 9.30273H40.0278C39.5427 9.30273 39.1489 9.69648 39.1489 10.1816C39.1489 10.6668 39.5427 11.0605 40.0278 11.0605Z" fill="url(#paint3_linear_343_4854)"/>
<path d="M40.0278 14.6504H42.8415C43.3267 14.6504 43.7204 14.2566 43.7204 13.7715C43.7204 13.2863 43.3267 12.8926 42.8415 12.8926H40.0278C39.5427 12.8926 39.1489 13.2863 39.1489 13.7715C39.1489 14.2566 39.5427 14.6504 40.0278 14.6504Z" fill="url(#paint4_linear_343_4854)"/>
<path d="M55.7883 37.7707C55.3805 37.7707 54.9926 37.8609 54.6446 38.0215C54.2578 36.9832 53.2559 36.2414 52.084 36.2414C51.7489 36.2414 51.4278 36.3035 51.1301 36.4137C52.5844 34.8059 53.4047 32.7023 53.4047 30.518C53.4047 25.7426 49.575 21.8461 44.8242 21.7359V19.7051H48.9129C49.9149 19.7051 50.7293 18.8906 50.7293 17.8887V4.49062C50.7293 4.00547 50.5406 3.54961 50.1973 3.20625L47.5231 0.532031C47.1797 0.188672 46.7239 0 46.2387 0H37.0219C36.0199 0 35.2055 0.814453 35.2055 1.81641V5.42109H24.2789C23.7938 5.42109 23.4 5.81484 23.4 6.3C23.4 6.78516 23.7938 7.17891 24.2789 7.17891H35.2055V11.5617H19.2715V7.17891H20.1762C20.6614 7.17891 21.0551 6.78516 21.0551 6.3C21.0551 5.81484 20.6614 5.42109 20.1762 5.42109H13.261C12.1301 5.42109 11.2102 6.34102 11.2102 7.47187V26.0215C10.7227 25.9031 10.2129 25.8387 9.68909 25.8387C6.1219 25.8387 3.22034 28.7402 3.22034 32.3074V37.0887H2.04846C0.917603 37.0887 -0.00231934 38.0086 -0.00231934 39.1395V42.8941C-0.00231934 43.3793 0.391431 43.773 0.876587 43.773C1.36174 43.773 1.75549 43.3793 1.75549 42.8941V39.1395C1.75549 38.9777 1.88674 38.8465 2.04846 38.8465H17.3297C17.4914 38.8465 17.6227 38.9777 17.6227 39.1395V51.1629C17.6227 51.3246 17.4914 51.4559 17.3297 51.4559H2.05081C1.88909 51.4559 1.75784 51.3246 1.75784 51.1629V46.9969C1.75784 46.5117 1.36409 46.118 0.878931 46.118C0.393774 46.118 2.44139e-05 46.5117 2.44139e-05 46.9969V51.1629C2.44139e-05 52.2938 0.919946 53.2137 2.05081 53.2137H17.3321C18.4629 53.2137 19.3828 52.2938 19.3828 51.1629V47.9977H36.518L37.6981 49.302C38.0239 49.6617 38.5793 49.6898 38.9391 49.3641C39.2989 49.0383 39.327 48.4828 39.0012 48.123L36.3082 45.1465C36.2989 45.1359 36.2883 45.1254 36.2778 45.1148C36.2074 45.0445 36.2028 44.9309 36.2672 44.8652C36.6 44.5277 37.043 44.3402 37.5176 44.3391H37.5246C37.9957 44.3391 38.4375 44.5219 38.7715 44.8559L40.3582 46.4426C40.6969 46.7812 41.1328 46.9887 41.5863 47.0285C42.1289 47.0754 42.6703 46.8914 43.0699 46.5246C43.4707 46.1578 43.7004 45.6352 43.7004 45.0926V38.2488C43.7004 38.243 43.7004 38.2359 43.7004 38.2301V33.9773C43.7004 33.968 43.7004 33.9574 43.7004 33.948V31.8691C43.7004 31.3324 44.1375 30.8953 44.6742 30.8953C45.211 30.8953 45.6481 31.3324 45.6481 31.8691V37.3934C45.6481 37.3934 45.6481 37.3969 45.6481 37.398V38.9742C45.6481 39.4594 46.0418 39.8531 46.527 39.8531C47.0121 39.8531 47.4059 39.4594 47.4059 38.9742V37.3934C47.4059 37.3934 47.4059 37.3922 47.4059 37.391C47.4071 36.8555 47.843 36.4195 48.3797 36.4195C48.9164 36.4195 49.3535 36.8566 49.3535 37.3934V38.9742C49.3535 39.4594 49.7473 39.8531 50.2324 39.8531C50.7176 39.8531 51.1114 39.4594 51.1114 38.9742C51.1114 38.4375 51.5485 38.0004 52.0852 38.0004C52.6219 38.0004 53.059 38.4375 53.059 38.9742V40.5035C53.059 40.9887 53.4528 41.3824 53.9379 41.3824C54.4231 41.3824 54.8168 40.9887 54.8168 40.5035C54.8168 39.9668 55.2539 39.5297 55.7906 39.5297C56.3274 39.5297 56.7645 39.9668 56.7645 40.5035V49.9641C56.7645 51.6609 55.9266 53.2477 54.525 54.2086C53.7024 54.7734 53.2102 55.7203 53.2102 56.7422V57.9504C53.2102 58.1121 53.0789 58.2434 52.9172 58.2434H45.6985C45.5367 58.2434 45.4055 58.1121 45.4055 57.9504V57.2496C45.4055 55.9277 44.9168 54.6598 44.0297 53.6789L41.7598 51.1688C41.434 50.809 40.8785 50.7809 40.5188 51.1066C40.159 51.4324 40.1309 51.9879 40.4567 52.3477L42.7266 54.8578C43.3207 55.5141 43.6477 56.3637 43.6477 57.2484V57.9504C43.6477 59.0812 44.5676 60.0012 45.6985 60.0012H52.9172C54.0481 60.0012 54.968 59.0812 54.968 57.9504V56.7422C54.968 56.3004 55.1742 55.8949 55.5188 55.6582C57.3996 54.3691 58.5223 52.2398 58.5223 49.9641V40.5035C58.5223 38.9977 57.2965 37.7719 55.7906 37.7719L55.7883 37.7707ZM37.0231 1.75781H46.2399C46.2551 1.75781 46.2703 1.76367 46.2809 1.77539L48.9551 4.44961C48.9656 4.46016 48.9727 4.47539 48.9727 4.49062V17.8887C48.9727 17.9215 48.9469 17.9473 48.9141 17.9473H37.0231C36.9903 17.9473 36.9645 17.9215 36.9645 17.8887V12.443C36.9645 12.443 36.9645 12.4418 36.9645 12.4406V6.3C36.9645 6.3 36.9645 6.29883 36.9645 6.29766V1.81641C36.9645 1.78359 36.9903 1.75781 37.0231 1.75781ZM17.5149 7.17891V11.5617H12.9703V7.49766C12.9703 7.32188 13.1133 7.17891 13.2891 7.17891H17.516H17.5149ZM4.98049 32.3086C4.98049 29.7105 7.09338 27.5977 9.69143 27.5977C10.2235 27.5977 10.7344 27.6879 11.2125 27.8508V37.0887H4.98166V32.3074L4.98049 32.3086ZM41.8817 45.2285C41.8547 45.2531 41.8067 45.2812 41.7375 45.2766C41.6977 45.273 41.6461 45.2438 41.6016 45.1992L40.0149 43.6125C39.3492 42.9469 38.4656 42.5812 37.5258 42.5812H37.5117C36.566 42.5848 35.6801 42.9586 35.0156 43.6324C34.3125 44.3473 34.2867 45.4852 34.9301 46.241H19.3828V40.2703H31.1754C31.6606 40.2703 32.0543 39.8766 32.0543 39.3914C32.0543 38.9062 31.6606 38.5125 31.1754 38.5125H19.2832C19.0172 37.6887 18.2438 37.091 17.3321 37.091H12.9703V28.9324C13.8528 29.7891 14.4024 30.9867 14.4024 32.3109C14.4024 32.7961 14.7961 33.1898 15.2813 33.1898C15.7664 33.1898 16.1602 32.7961 16.1602 32.3109C16.1602 29.9402 14.877 27.8648 12.9703 26.7375V13.3219H35.2067V17.891C35.2067 18.893 36.0211 19.7074 37.0231 19.7074H43.0676V21.873C39.5801 22.4965 36.8004 25.1824 36.0387 28.6207H35.816V24.5531C35.816 24.068 35.4223 23.6742 34.9371 23.6742C34.452 23.6742 34.0582 24.068 34.0582 24.5531V28.6207H31.2047V17.7305C31.2047 17.2453 30.811 16.8516 30.3258 16.8516C29.8406 16.8516 29.4469 17.2453 29.4469 17.7305V28.6207H26.5934V22.8469C26.5934 22.3617 26.1996 21.968 25.7145 21.968C25.2293 21.968 24.8356 22.3617 24.8356 22.8469V28.6207H21.9821V21.1418C21.9821 20.6566 21.5883 20.2629 21.1031 20.2629C20.618 20.2629 20.2242 20.6566 20.2242 21.1418V28.6207H18.3961C17.911 28.6207 17.5172 29.0145 17.5172 29.4996C17.5172 29.9848 17.911 30.3785 18.3961 30.3785H35.8348C35.8348 30.4266 35.8313 30.4734 35.8313 30.5215C35.8313 31.5938 36.0317 32.6531 36.409 33.6457H18.3961C17.911 33.6457 17.5172 34.0395 17.5172 34.5246C17.5172 35.0098 17.911 35.4035 18.3961 35.4035H37.3137C37.4567 35.6168 37.6078 35.8242 37.7696 36.0246C38.8512 37.3688 40.3149 38.3684 41.9461 38.891V45.0938C41.9461 45.1652 41.9086 45.2098 41.8863 45.2309L41.8817 45.2285ZM44.6731 29.1375C43.1672 29.1375 41.9414 30.3633 41.9414 31.8691V31.9078C41.7235 31.4871 41.6039 31.0137 41.6039 30.5191C41.6039 28.8586 42.9551 27.5074 44.6156 27.5074C46.2762 27.5074 47.6274 28.8586 47.6274 30.5191C47.6274 30.9211 47.5465 31.3125 47.3965 31.6723C47.2957 30.2578 46.1133 29.1363 44.6731 29.1363V29.1375ZM47.4047 34.841V34.3852C48.6375 33.4945 49.3863 32.0578 49.3863 30.5191C49.3863 27.8895 47.2465 25.7496 44.6168 25.7496C41.9871 25.7496 39.8473 27.8895 39.8473 30.5191C39.8473 32.1176 40.6395 33.5836 41.9426 34.466V37.0219C39.3305 35.9578 37.5867 33.423 37.5867 30.5191C37.5867 26.6426 40.7403 23.4891 44.6168 23.4891C48.4934 23.4891 51.6469 26.6426 51.6469 30.5191C51.6469 32.2219 51.0223 33.8637 49.9137 35.1363C49.4754 34.8375 48.9481 34.6605 48.3785 34.6605C48.0364 34.6605 47.7071 34.7238 47.4047 34.8398V34.841Z" fill="url(#paint5_linear_343_4854)"/>
</g>
<defs>
<linearGradient id="paint0_linear_343_4854" x1="33.259" y1="39.3906" x2="38.5219" y2="39.3906" gradientUnits="userSpaceOnUse">
<stop stop-color="#223962"/>
<stop offset="0.526042" stop-color="#3277BC"/>
<stop offset="0.973958" stop-color="#48ABDF"/>
</linearGradient>
<linearGradient id="paint1_linear_343_4854" x1="8.8125" y1="43.7174" x2="10.5703" y2="43.7174" gradientUnits="userSpaceOnUse">
<stop stop-color="#223962"/>
<stop offset="0.526042" stop-color="#3277BC"/>
<stop offset="0.973958" stop-color="#48ABDF"/>
</linearGradient>
<linearGradient id="paint2_linear_343_4854" x1="39.1489" y1="6.59082" x2="46.786" y2="6.59082" gradientUnits="userSpaceOnUse">
<stop stop-color="#223962"/>
<stop offset="0.526042" stop-color="#3277BC"/>
<stop offset="0.973958" stop-color="#48ABDF"/>
</linearGradient>
<linearGradient id="paint3_linear_343_4854" x1="39.1489" y1="10.1816" x2="46.786" y2="10.1816" gradientUnits="userSpaceOnUse">
<stop stop-color="#223962"/>
<stop offset="0.526042" stop-color="#3277BC"/>
<stop offset="0.973958" stop-color="#48ABDF"/>
</linearGradient>
<linearGradient id="paint4_linear_343_4854" x1="39.1489" y1="13.7715" x2="43.7204" y2="13.7715" gradientUnits="userSpaceOnUse">
<stop stop-color="#223962"/>
<stop offset="0.526042" stop-color="#3277BC"/>
<stop offset="0.973958" stop-color="#48ABDF"/>
</linearGradient>
<linearGradient id="paint5_linear_343_4854" x1="-0.00231955" y1="30.0006" x2="58.5223" y2="30.0006" gradientUnits="userSpaceOnUse">
<stop stop-color="#223962"/>
<stop offset="0.526042" stop-color="#3277BC"/>
<stop offset="0.973958" stop-color="#48ABDF"/>
</linearGradient>
<clipPath id="clip0_343_4854">
<rect width="58.5199" height="60" fill="white"/>
</clipPath>
</defs>
</svg>
