<svg width="60" height="60" viewBox="0 0 60 60" fill="none" xmlns="http://www.w3.org/2000/svg">
<g clip-path="url(#clip0_343_4568)">
<path d="M25.6781 10.6535H25.2644C22.1695 10.6535 19.6511 13.1719 19.6511 16.268V21.0035C19.6511 21.4887 20.0449 21.8824 20.53 21.8824H29.7C30.1851 21.8824 30.5789 21.4887 30.5789 21.0035C30.5789 20.5184 30.1851 20.1246 29.7 20.1246H25.1964V17.4516C25.1964 16.9664 24.8027 16.5727 24.3175 16.5727C23.8324 16.5727 23.4386 16.9664 23.4386 17.4516V20.1246H21.4089V16.268C21.4089 14.141 23.1386 12.4113 25.2644 12.4113H29.9824C29.9882 12.4113 29.9941 12.4113 30 12.4113C30.0058 12.4113 30.0117 12.4113 30.0175 12.4113H34.7355C36.8613 12.4113 38.591 14.141 38.591 16.268V20.1246H36.5613V17.4516C36.5613 16.9664 36.1675 16.5727 35.6824 16.5727C35.1972 16.5727 34.8035 16.9664 34.8035 17.4516V20.1246H33.8015C33.3164 20.1246 32.9226 20.5184 32.9226 21.0035C32.9226 21.4887 33.3164 21.8824 33.8015 21.8824H39.4699C39.955 21.8824 40.3488 21.4887 40.3488 21.0035V16.268C40.3488 13.1719 37.8304 10.6535 34.7355 10.6535H34.3218C35.4832 9.525 36.2062 7.94883 36.2062 6.20625C36.2062 2.78437 33.4218 0 30 0C26.5781 0 23.7937 2.78437 23.7937 6.20625C23.7937 7.94883 24.5167 9.525 25.6781 10.6535ZM30 1.75781C32.4527 1.75781 34.4484 3.75352 34.4484 6.20625C34.4484 8.65898 32.4632 10.6441 30.0187 10.6535H29.9824C27.5378 10.6441 25.5527 8.65195 25.5527 6.20625C25.5527 3.76055 27.5484 1.75781 30.0011 1.75781H30Z" fill="url(#paint0_linear_343_4568)"/>
<path d="M54.3856 48.7709H53.9719C55.1333 47.6424 55.8563 46.0662 55.8563 44.3225C55.8563 40.9006 53.0719 38.1162 49.65 38.1162C46.2282 38.1162 43.4438 40.9006 43.4438 44.3225C43.4438 46.065 44.1668 47.6424 45.3282 48.7709H44.9145C41.8184 48.7709 39.3 51.2893 39.3 54.3853V59.1209C39.3 59.6061 39.6938 59.9998 40.179 59.9998H46.1461C46.6313 59.9998 47.025 59.6061 47.025 59.1209C47.025 58.6357 46.6313 58.242 46.1461 58.242H44.8465V55.5689C44.8465 55.0838 44.4528 54.69 43.9676 54.69C43.4825 54.69 43.0887 55.0838 43.0887 55.5689V58.242H41.0579V54.3853C41.0579 52.2584 42.7875 50.5287 44.9145 50.5287H49.6407C49.6407 50.5287 49.6465 50.5287 49.65 50.5287C49.6536 50.5287 49.6559 50.5287 49.6594 50.5287H54.3856C56.5125 50.5287 58.2422 52.2584 58.2422 54.3853V58.242H56.2114V55.5689C56.2114 55.0838 55.8176 54.69 55.3325 54.69C54.8473 54.69 54.4536 55.0838 54.4536 55.5689V58.242H50.2489C49.7637 58.242 49.37 58.6357 49.37 59.1209C49.37 59.6061 49.7637 59.9998 50.2489 59.9998H59.1211C59.6063 59.9998 60 59.6061 60 59.1209V54.3853C60 51.2893 57.4817 48.7709 54.3856 48.7709ZM45.2028 44.3225C45.2028 41.8697 47.1985 39.874 49.6512 39.874C52.104 39.874 54.0997 41.8697 54.0997 44.3225C54.0997 46.7752 52.1086 48.765 49.6606 48.7709H49.643C47.195 48.7662 45.204 46.7729 45.204 44.3225H45.2028Z" fill="url(#paint1_linear_343_4568)"/>
<path d="M15.0843 48.7709H14.6707C15.832 47.6424 16.555 46.0662 16.555 44.3225C16.555 40.9006 13.7707 38.1162 10.3488 38.1162C6.9269 38.1162 4.14253 40.9006 4.14253 44.3225C4.14253 46.065 4.86558 47.6424 6.0269 48.7709H5.61323C2.51714 48.7709 -0.0012207 51.2893 -0.0012207 54.3853V59.1209C-0.0012207 59.6061 0.392529 59.9998 0.877686 59.9998H8.29683C8.78198 59.9998 9.17573 59.6061 9.17573 59.1209C9.17573 58.6357 8.78198 58.242 8.29683 58.242H5.54526V55.5689C5.54526 55.0838 5.15151 54.69 4.66636 54.69C4.1812 54.69 3.78745 55.0838 3.78745 55.5689V58.242H1.75776V54.3853C1.75776 52.2584 3.48745 50.5287 5.6144 50.5287H10.3406C10.3406 50.5287 10.3464 50.5287 10.35 50.5287C10.3535 50.5287 10.3558 50.5287 10.3593 50.5287H15.0855C17.2125 50.5287 18.9421 52.2584 18.9421 54.3853V58.242H16.9113V55.5689C16.9113 55.0838 16.5175 54.69 16.0324 54.69C15.5472 54.69 15.1535 55.0838 15.1535 55.5689V58.242H12.4007C11.9156 58.242 11.5218 58.6357 11.5218 59.1209C11.5218 59.6061 11.9156 59.9998 12.4007 59.9998H19.821C20.3062 59.9998 20.7 59.6061 20.7 59.1209V54.3853C20.7 51.2893 18.1816 48.7709 15.0855 48.7709H15.0843ZM5.90151 44.3225C5.90151 41.8697 7.89722 39.874 10.35 39.874C12.8027 39.874 14.7984 41.8697 14.7984 44.3225C14.7984 46.7752 12.8074 48.765 10.3593 48.7709H10.3417C7.8937 48.7662 5.90269 46.7729 5.90269 44.3225H5.90151Z" fill="url(#paint2_linear_343_4568)"/>
<path d="M46.9968 15.7949C46.9968 16.2801 47.3906 16.6738 47.8757 16.6738H51.4265C51.9117 16.6738 52.3054 16.2801 52.3054 15.7949C52.3054 15.3098 51.9117 14.916 51.4265 14.916H47.8757C47.3906 14.916 46.9968 15.3098 46.9968 15.7949Z" fill="url(#paint3_linear_343_4568)"/>
<path d="M51.4265 18.4668H47.8757C47.3906 18.4668 46.9968 18.8605 46.9968 19.3457C46.9968 19.8309 47.3906 20.2246 47.8757 20.2246H51.4265C51.9117 20.2246 52.3054 19.8309 52.3054 19.3457C52.3054 18.8605 51.9117 18.4668 51.4265 18.4668Z" fill="url(#paint4_linear_343_4568)"/>
<path d="M49.6511 22.0186H47.8757C47.3906 22.0186 46.9968 22.4123 46.9968 22.8975C46.9968 23.3826 47.3906 23.7764 47.8757 23.7764H49.6511C50.1363 23.7764 50.53 23.3826 50.53 22.8975C50.53 22.4123 50.1363 22.0186 49.6511 22.0186Z" fill="url(#paint5_linear_343_4568)"/>
<path d="M39.47 7.08516H48.7723V11.3648H45.034C44.1575 11.3648 43.445 12.0773 43.445 12.9539V25.7391C43.445 26.6156 44.1575 27.3281 45.034 27.3281H48.7723V33.3234L47.9051 32.4562C47.5618 32.1129 47.0051 32.1129 46.6618 32.4562C46.3184 32.7996 46.3184 33.3563 46.6618 33.6996L49.029 36.0668C49.029 36.0668 49.0383 36.075 49.043 36.0797C49.0594 36.0949 49.0747 36.1102 49.0922 36.1242C49.0981 36.1289 49.1051 36.1336 49.111 36.1383C49.1274 36.1512 49.1438 36.1641 49.1614 36.1758C49.1661 36.1793 49.1719 36.1816 49.1766 36.1852C49.1954 36.1969 49.2153 36.2098 49.2352 36.2203C49.2387 36.2227 49.2422 36.2238 49.2458 36.2262C49.268 36.2379 49.2891 36.2484 49.3125 36.2578C49.3149 36.2578 49.3172 36.2602 49.3208 36.2602C49.3442 36.2695 49.3688 36.2789 49.3934 36.2859C49.3958 36.2859 49.3981 36.2871 49.4016 36.2883C49.4262 36.2953 49.4508 36.3023 49.4766 36.307C49.4836 36.3082 49.4895 36.3094 49.4965 36.3105C49.5176 36.3141 49.5399 36.3176 49.5622 36.3199C49.5915 36.3223 49.6208 36.3246 49.65 36.3246C49.6793 36.3246 49.7086 36.3234 49.7379 36.3199C49.7602 36.3176 49.7813 36.3141 49.8036 36.3105C49.8106 36.3105 49.8165 36.3094 49.8235 36.307C49.8493 36.3023 49.8739 36.2953 49.8985 36.2883C49.9008 36.2883 49.9032 36.2871 49.9067 36.2859C49.9325 36.2777 49.9571 36.2695 49.9817 36.259C49.984 36.259 49.9852 36.2578 49.9875 36.2566C50.011 36.2473 50.0344 36.2355 50.0579 36.2238C50.0602 36.2227 50.0625 36.2215 50.0661 36.2203C50.0872 36.2086 50.1083 36.1957 50.1293 36.1828C50.1329 36.1805 50.1364 36.1781 50.1399 36.1758C50.161 36.1617 50.1809 36.1465 50.2008 36.1312C50.2032 36.1289 50.2067 36.1266 50.209 36.1242C50.2313 36.1055 50.2536 36.0867 50.2735 36.0656L52.6407 33.6984C52.984 33.3551 52.984 32.7984 52.6407 32.4551C52.2973 32.1117 51.7407 32.1117 51.3973 32.4551L50.5301 33.3223V27.327H54.2684C55.145 27.327 55.8575 26.6145 55.8575 25.7379V12.9527C55.8575 12.0762 55.145 11.3637 54.2684 11.3637H50.5301V6.20508C50.5301 5.71992 50.1364 5.32617 49.6512 5.32617H39.47C38.9848 5.32617 38.5911 5.71992 38.5911 6.20508C38.5911 6.69023 38.9848 7.08398 39.47 7.08398V7.08516ZM54.0985 25.5703H45.2016V13.1227H54.0985V25.5703Z" fill="url(#paint6_linear_343_4568)"/>
<path d="M5.73281 27.327H9.47109V33.3223L8.60391 32.4551C8.26055 32.1117 7.70391 32.1117 7.36055 32.4551C7.01719 32.7984 7.01719 33.3551 7.36055 33.6984L9.72773 36.0656C9.72773 36.0656 9.73008 36.068 9.73242 36.0691C9.75117 36.0879 9.77227 36.1066 9.79219 36.123C9.80273 36.1312 9.81328 36.1383 9.82383 36.1465C9.83672 36.1559 9.84844 36.1652 9.86133 36.1746C9.87422 36.1828 9.88594 36.1898 9.89883 36.198C9.91055 36.2051 9.92227 36.2133 9.93516 36.2191C9.94805 36.2262 9.96094 36.232 9.975 36.2379C9.98789 36.2437 10.0008 36.2508 10.0137 36.2555C10.0266 36.2613 10.0395 36.2648 10.0523 36.2695C10.0664 36.2742 10.0805 36.2801 10.0945 36.2848C10.1074 36.2883 10.1203 36.2918 10.1332 36.2953C10.1484 36.2988 10.1625 36.3035 10.1777 36.3059C10.193 36.3094 10.2082 36.3105 10.2234 36.3129C10.2363 36.3152 10.2492 36.3176 10.2621 36.3188C10.2914 36.3211 10.3195 36.3234 10.3488 36.3234C10.3781 36.3234 10.4063 36.3223 10.4355 36.3188C10.4484 36.3176 10.4613 36.3152 10.4742 36.3129C10.4895 36.3105 10.5047 36.3094 10.5199 36.3059C10.5352 36.3023 10.5492 36.2988 10.5645 36.2953C10.5773 36.2918 10.5902 36.2895 10.6043 36.2848C10.6184 36.2801 10.6324 36.2754 10.6465 36.2695C10.6594 36.2648 10.6723 36.2602 10.6852 36.2555C10.698 36.2496 10.7109 36.2437 10.7238 36.2379C10.7367 36.232 10.7508 36.2262 10.7637 36.2191C10.7754 36.2121 10.7871 36.2051 10.8 36.198C10.8129 36.191 10.8258 36.1828 10.8375 36.1746C10.8504 36.1664 10.8621 36.1559 10.875 36.1465C10.8855 36.1383 10.8961 36.1312 10.9066 36.123C10.9277 36.1055 10.9477 36.0879 10.9664 36.0691C10.9676 36.068 10.9688 36.0668 10.9711 36.0656L13.3383 33.6984C13.6816 33.3551 13.6816 32.7984 13.3383 32.4551C12.9949 32.1117 12.4383 32.1117 12.0949 32.4551L11.2277 33.3223V27.327H14.966C15.8426 27.327 16.5551 26.6145 16.5551 25.7379V12.9527C16.5551 12.0762 15.8426 11.3637 14.966 11.3637H11.2277V7.08398H20.5289C21.0141 7.08398 21.4078 6.69023 21.4078 6.20508C21.4078 5.71992 21.0141 5.32617 20.5289 5.32617H10.3488C9.86367 5.32617 9.46992 5.71992 9.46992 6.20508V11.3637H5.73164C4.85508 11.3637 4.14258 12.0762 4.14258 12.9527V25.7379C4.14258 26.6145 4.85508 27.327 5.73164 27.327H5.73281ZM5.90156 13.1215H14.7984V25.5691H5.90156V13.1215Z" fill="url(#paint7_linear_343_4568)"/>
<path d="M8.57349 16.6738H12.1243C12.6094 16.6738 13.0032 16.2801 13.0032 15.7949C13.0032 15.3098 12.6094 14.916 12.1243 14.916H8.57349C8.08833 14.916 7.69458 15.3098 7.69458 15.7949C7.69458 16.2801 8.08833 16.6738 8.57349 16.6738Z" fill="url(#paint8_linear_343_4568)"/>
<path d="M8.57349 20.2246H12.1243C12.6094 20.2246 13.0032 19.8309 13.0032 19.3457C13.0032 18.8605 12.6094 18.4668 12.1243 18.4668H8.57349C8.08833 18.4668 7.69458 18.8605 7.69458 19.3457C7.69458 19.8309 8.08833 20.2246 8.57349 20.2246Z" fill="url(#paint9_linear_343_4568)"/>
<path d="M11.2278 22.8975C11.2278 22.4123 10.834 22.0186 10.3489 22.0186H8.57349C8.08833 22.0186 7.69458 22.4123 7.69458 22.8975C7.69458 23.3826 8.08833 23.7764 8.57349 23.7764H10.3489C10.834 23.7764 11.2278 23.3826 11.2278 22.8975Z" fill="url(#paint10_linear_343_4568)"/>
<path d="M36.3668 32.0838C35.8653 31.5822 35.1985 31.3057 34.4895 31.3057C33.7805 31.3057 33.1137 31.5822 32.6122 32.0826L28.8282 35.8666L27.6282 34.6666C26.5934 33.6318 24.9094 33.6318 23.8735 34.6666C22.8387 35.7014 22.8387 37.3853 23.8735 38.4213L26.9508 41.4986C27.4688 42.0166 28.1485 42.2744 28.8282 42.2744C29.5079 42.2744 30.1875 42.0154 30.7055 41.4986L36.3657 35.8385C37.4004 34.8037 37.4004 33.1197 36.3657 32.085L36.3668 32.0838ZM35.1235 34.5951L29.4633 40.2553C29.1141 40.6057 28.5446 40.6057 28.1954 40.2553L25.118 37.1779C24.7688 36.8287 24.7688 36.2592 25.118 35.91C25.2926 35.7353 25.5223 35.6475 25.752 35.6475C25.9817 35.6475 26.2114 35.7353 26.386 35.91L28.2071 37.7311C28.5504 38.0744 29.1071 38.0744 29.4504 37.7311L33.8555 33.326C34.0254 33.1561 34.2504 33.0635 34.4895 33.0635C34.7286 33.0635 34.9547 33.1572 35.1235 33.326C35.4727 33.6752 35.4727 34.2447 35.1235 34.5939V34.5951Z" fill="url(#paint11_linear_343_4568)"/>
<path d="M30 24.8594C23.7012 24.8594 18.5778 29.984 18.5778 36.2816C18.5778 42.5793 23.7024 47.7039 30 47.7039C36.2977 47.7039 41.4223 42.5793 41.4223 36.2816C41.4223 29.984 36.2977 24.8594 30 24.8594ZM30 45.9461C24.6715 45.9461 20.3356 41.6102 20.3356 36.2816C20.3356 30.9531 24.6715 26.6172 30 26.6172C35.3285 26.6172 39.6645 30.9531 39.6645 36.2816C39.6645 41.6102 35.3285 45.9461 30 45.9461Z" fill="url(#paint12_linear_343_4568)"/>
</g>
<defs>
<linearGradient id="paint0_linear_343_4568" x1="19.6511" y1="10.9412" x2="40.3488" y2="10.9412" gradientUnits="userSpaceOnUse">
<stop stop-color="#223962"/>
<stop offset="0.526042" stop-color="#3277BC"/>
<stop offset="0.973958" stop-color="#48ABDF"/>
</linearGradient>
<linearGradient id="paint1_linear_343_4568" x1="39.3" y1="49.058" x2="60" y2="49.058" gradientUnits="userSpaceOnUse">
<stop stop-color="#223962"/>
<stop offset="0.526042" stop-color="#3277BC"/>
<stop offset="0.973958" stop-color="#48ABDF"/>
</linearGradient>
<linearGradient id="paint2_linear_343_4568" x1="-0.00122078" y1="49.058" x2="20.7" y2="49.058" gradientUnits="userSpaceOnUse">
<stop stop-color="#223962"/>
<stop offset="0.526042" stop-color="#3277BC"/>
<stop offset="0.973958" stop-color="#48ABDF"/>
</linearGradient>
<linearGradient id="paint3_linear_343_4568" x1="46.9968" y1="15.7949" x2="52.3054" y2="15.7949" gradientUnits="userSpaceOnUse">
<stop stop-color="#223962"/>
<stop offset="0.526042" stop-color="#3277BC"/>
<stop offset="0.973958" stop-color="#48ABDF"/>
</linearGradient>
<linearGradient id="paint4_linear_343_4568" x1="46.9968" y1="19.3457" x2="52.3054" y2="19.3457" gradientUnits="userSpaceOnUse">
<stop stop-color="#223962"/>
<stop offset="0.526042" stop-color="#3277BC"/>
<stop offset="0.973958" stop-color="#48ABDF"/>
</linearGradient>
<linearGradient id="paint5_linear_343_4568" x1="46.9968" y1="22.8975" x2="50.53" y2="22.8975" gradientUnits="userSpaceOnUse">
<stop stop-color="#223962"/>
<stop offset="0.526042" stop-color="#3277BC"/>
<stop offset="0.973958" stop-color="#48ABDF"/>
</linearGradient>
<linearGradient id="paint6_linear_343_4568" x1="38.5911" y1="20.8254" x2="55.8575" y2="20.8254" gradientUnits="userSpaceOnUse">
<stop stop-color="#223962"/>
<stop offset="0.526042" stop-color="#3277BC"/>
<stop offset="0.973958" stop-color="#48ABDF"/>
</linearGradient>
<linearGradient id="paint7_linear_343_4568" x1="4.14258" y1="20.8248" x2="21.4078" y2="20.8248" gradientUnits="userSpaceOnUse">
<stop stop-color="#223962"/>
<stop offset="0.526042" stop-color="#3277BC"/>
<stop offset="0.973958" stop-color="#48ABDF"/>
</linearGradient>
<linearGradient id="paint8_linear_343_4568" x1="7.69458" y1="15.7949" x2="13.0032" y2="15.7949" gradientUnits="userSpaceOnUse">
<stop stop-color="#223962"/>
<stop offset="0.526042" stop-color="#3277BC"/>
<stop offset="0.973958" stop-color="#48ABDF"/>
</linearGradient>
<linearGradient id="paint9_linear_343_4568" x1="7.69458" y1="19.3457" x2="13.0032" y2="19.3457" gradientUnits="userSpaceOnUse">
<stop stop-color="#223962"/>
<stop offset="0.526042" stop-color="#3277BC"/>
<stop offset="0.973958" stop-color="#48ABDF"/>
</linearGradient>
<linearGradient id="paint10_linear_343_4568" x1="7.69458" y1="22.8975" x2="11.2278" y2="22.8975" gradientUnits="userSpaceOnUse">
<stop stop-color="#223962"/>
<stop offset="0.526042" stop-color="#3277BC"/>
<stop offset="0.973958" stop-color="#48ABDF"/>
</linearGradient>
<linearGradient id="paint11_linear_343_4568" x1="23.0974" y1="36.79" x2="37.1417" y2="36.79" gradientUnits="userSpaceOnUse">
<stop stop-color="#223962"/>
<stop offset="0.526042" stop-color="#3277BC"/>
<stop offset="0.973958" stop-color="#48ABDF"/>
</linearGradient>
<linearGradient id="paint12_linear_343_4568" x1="18.5778" y1="36.2816" x2="41.4223" y2="36.2816" gradientUnits="userSpaceOnUse">
<stop stop-color="#223962"/>
<stop offset="0.526042" stop-color="#3277BC"/>
<stop offset="0.973958" stop-color="#48ABDF"/>
</linearGradient>
<clipPath id="clip0_343_4568">
<rect width="60" height="60" fill="white"/>
</clipPath>
</defs>
</svg>
