<svg width="60" height="60" viewBox="0 0 60 60" fill="none" xmlns="http://www.w3.org/2000/svg">
<g clip-path="url(#clip0_1_4528)">
<path d="M58.287 27.7054C59.2316 27.7054 60 26.9368 60 25.9923V23.5144C60 22.5697 59.2315 21.8012 58.287 21.8012H55.8148V1.85191C55.8148 0.830742 54.9839 0 53.9627 0H51.7625C50.7414 0 49.9106 0.830742 49.9106 1.85191V21.8012H46.7869V14.396C46.7869 13.0267 45.6729 11.9127 44.3036 11.9127H30.8509V10.042C30.8509 8.6727 29.7369 7.55859 28.3676 7.55859H15.6407C14.2713 7.55859 13.1573 8.6727 13.1573 10.042V13.4187C13.1573 13.9041 13.5509 14.2976 14.0363 14.2976C14.5216 14.2976 14.9152 13.9041 14.9152 13.4187V10.042C14.9152 9.64195 15.2406 9.31641 15.6407 9.31641H18.5903V14.0545C18.5903 14.3663 18.7554 14.6546 19.0242 14.8125C19.2929 14.9704 19.6253 14.9739 19.8976 14.822L22.0042 13.646L24.1106 14.822C24.2439 14.8964 24.3914 14.9334 24.5391 14.9334C24.6929 14.9334 24.8468 14.893 24.984 14.8125C25.2529 14.6546 25.418 14.3663 25.418 14.0545V9.31641H28.3676C28.7677 9.31641 29.0931 9.64195 29.0931 10.042V12.7916V21.8013H14.915V16.9343C14.915 16.4489 14.5215 16.0554 14.0361 16.0554C13.5507 16.0554 13.1572 16.4489 13.1572 16.9343V21.8013H10.0895V1.85191C10.0895 0.830742 9.25863 0 8.23746 0H6.03727C5.01609 0 4.18535 0.830742 4.18535 1.85191V21.8012H1.71316C0.768516 21.8013 0 22.5698 0 23.5144V25.9923C0 26.937 0.768516 27.7054 1.71316 27.7054H4.18535V44.2008H1.71316C0.768516 44.2008 0 44.9693 0 45.9139V48.3919C0 49.3365 0.768516 50.105 1.71316 50.105H4.18535V58.1482C4.18535 59.1694 5.01609 60.0001 6.03727 60.0001H8.23746C9.25863 60.0001 10.0895 59.1694 10.0895 58.1482V50.105H33.4205C33.9059 50.105 34.2994 49.7115 34.2994 49.2261C34.2994 48.7407 33.9059 48.3472 33.4205 48.3472H10.0895V45.9586H49.9106V48.3471H36.936C36.4506 48.3471 36.0571 48.7406 36.0571 49.226C36.0571 49.7114 36.4506 50.1049 36.936 50.1049H49.9105V58.1481C49.9105 59.1693 50.7412 60 51.7624 60H53.9626C54.9838 60 55.8145 59.1693 55.8145 58.1481V50.1049H58.2867C59.2314 50.1049 59.9998 49.3364 59.9998 48.3918V45.9138C59.9998 44.9693 59.2313 44.2007 58.2867 44.2007H55.8145V27.7054H58.287ZM23.6602 12.5572L22.4325 11.8719C22.1663 11.7232 21.842 11.7232 21.5756 11.8719L20.348 12.5572V9.31641H23.6602V12.5572ZM58.2422 23.5591V25.9477H55.8148V23.5591H58.2422ZM36.2839 13.6705H39.596V16.9113L38.3684 16.226C38.102 16.0774 37.7779 16.0774 37.5115 16.226L36.2839 16.9113V13.6705ZM30.8509 13.6705H34.5261V18.4085C34.5261 18.7202 34.6912 19.0086 34.9601 19.1665C35.0973 19.2471 35.2512 19.2874 35.405 19.2874C35.5526 19.2874 35.7002 19.2504 35.8335 19.176L37.94 18L40.0466 19.176C40.3188 19.3279 40.6511 19.3243 40.92 19.1665C41.1888 19.0086 41.3539 18.7202 41.3539 18.4085V13.6705H44.3036C44.7036 13.6705 45.0291 13.9959 45.0291 14.396V21.8012H30.8509V13.6705ZM49.9106 23.5591V25.9477H10.0895V23.5591H49.9106ZM1.75781 25.9475V23.559H4.18535V25.9475H1.75781ZM1.75781 48.3471V45.9586H4.18535V48.3471H1.75781ZM8.33168 58.1481C8.33168 58.2 8.28949 58.2422 8.23746 58.2422H6.03727C5.98535 58.2422 5.94316 58.2 5.94316 58.1481V1.85191C5.94316 1.8 5.98535 1.75781 6.03727 1.75781H8.23746C8.28938 1.75781 8.33168 1.8 8.33168 1.85191V58.1481ZM20.3481 31.6768H23.6602V34.9177L22.4325 34.2323C22.1663 34.0836 21.842 34.0837 21.5756 34.2323L20.348 34.9177V31.6768H20.3481ZM19.0242 37.1728C19.2929 37.3307 19.6253 37.3342 19.8976 37.1823L22.0042 36.0063L24.1106 37.1823C24.2439 37.2567 24.3914 37.2937 24.5391 37.2937C24.6929 37.2937 24.8468 37.2533 24.984 37.1728C25.2529 37.015 25.418 36.7266 25.418 36.4148V31.6767H28.3676C28.7677 31.6767 29.0931 32.0023 29.0931 32.4023V34.9493C29.0931 34.9836 29.0955 35.0174 29.0994 35.0505C29.0955 35.0838 29.0931 35.1176 29.0931 35.1519V44.2007H14.915V32.4025C14.915 32.0024 15.2405 31.6768 15.6405 31.6768H18.5902V36.415C18.5903 36.7267 18.7554 37.0151 19.0242 37.1728ZM36.2839 36.0309H39.596V39.2718L38.3684 38.5864C38.2352 38.5121 38.0876 38.475 37.9399 38.475C37.7923 38.475 37.6446 38.5121 37.5115 38.5864L36.2839 39.2718V36.0309ZM34.9601 41.5269C35.2289 41.6847 35.5612 41.6883 35.8335 41.5364L37.94 40.3604L40.0466 41.5364C40.1798 41.6108 40.3275 41.6479 40.475 41.6479C40.6289 41.6479 40.7828 41.6074 40.92 41.5269C41.1888 41.3691 41.3539 41.0807 41.3539 40.7689V36.0309H44.3036C44.7036 36.0309 45.0291 36.3564 45.0291 36.7564V44.2008H30.8509V36.0309H34.5261V40.7689C34.5261 41.0807 34.6912 41.3691 34.9601 41.5269ZM46.7869 44.2008V36.7564C46.7869 35.3871 45.6729 34.2731 44.3036 34.2731H30.8509V32.4025C30.8509 31.0331 29.7369 29.919 28.3676 29.919H15.6407C14.2713 29.919 13.1573 31.0331 13.1573 32.4025V44.2008H10.0895V27.7054H49.9106V44.2008H46.7869ZM54.057 58.1481C54.057 58.2 54.0148 58.2422 53.9629 58.2422H51.7627C51.7107 58.2422 51.6686 58.2 51.6686 58.1481V1.85191C51.6686 1.8 51.7107 1.75781 51.7627 1.75781H53.9629C54.0148 1.75781 54.057 1.8 54.057 1.85191V58.1481ZM58.2422 45.9586V48.3471H55.8148V45.9586H58.2422Z" fill="url(#paint0_linear_1_4528)"/>
</g>
<defs>
<linearGradient id="paint0_linear_1_4528" x1="-2.23517e-07" y1="30.0001" x2="60" y2="30.0001" gradientUnits="userSpaceOnUse">
<stop stop-color="#223962"/>
<stop offset="0.526042" stop-color="#3277BC"/>
<stop offset="0.973958" stop-color="#48ABDF"/>
</linearGradient>
<clipPath id="clip0_1_4528">
<rect width="60" height="60" fill="white"/>
</clipPath>
</defs>
</svg>
