<svg width="60" height="60" viewBox="0 0 60 60" fill="none" xmlns="http://www.w3.org/2000/svg">
<g clip-path="url(#clip0_1_4506)">
<path d="M59.9245 28.543C59.805 27.9372 59.5331 27.3643 59.137 26.885C52.6474 19.0463 54.1574 20.8703 51.7113 17.9148C50.9988 17.0536 49.9489 16.5603 48.8311 16.5603H47.016C46.5308 16.5603 46.1372 16.954 46.1372 17.4391C46.1372 17.9242 46.5309 18.3179 47.016 18.3179H48.8311C49.4229 18.3179 49.9794 18.5792 50.3568 19.035L51.0575 19.8811H46.8074C45.5571 19.8811 44.5399 20.9439 44.5399 22.2517V27.2213C44.5399 28.529 45.557 29.5919 46.8074 29.5919H58.2382V42.6282C58.2382 43.3078 57.6851 43.8609 57.0055 43.8609H56.3704C56.0576 41.8758 54.8157 40.1741 53.087 39.2522C49.2381 37.2 44.4988 39.5703 43.8263 43.8609C42.6919 43.8609 42.5384 43.8609 41.1921 43.8609V33.8877V33.8807V18.796C41.1921 18.5323 41.4066 18.3179 41.6702 18.3179H43.5006C43.9869 18.3179 44.3795 17.9241 44.3795 17.4391C44.3795 16.9539 43.9869 16.5603 43.5006 16.5603H41.6702C41.5062 16.5603 41.3456 16.5779 41.1921 16.6118V10.8466C41.1921 9.71582 40.2722 8.7959 39.1414 8.7959H10.4923C10.0059 8.7959 9.61348 9.18848 9.61348 9.67469C9.61348 10.1598 10.0061 10.5535 10.4923 10.5535H39.1416C39.3033 10.5535 39.4345 10.6847 39.4345 10.8464V33.0016H1.7577V10.8466C1.7577 10.6848 1.88895 10.5536 2.05066 10.5536H6.97687C7.46203 10.5536 7.85566 10.1598 7.85566 9.6748C7.85566 9.18848 7.46191 8.79602 6.97687 8.79602H2.05066C0.919805 8.7959 0 9.71582 0 10.8466V41.25C0 43.6593 1.95926 45.6186 4.36852 45.6186H8.78613C9.17508 48.8372 11.9108 51.2045 15.0786 51.2045C18.3169 51.2045 21.0103 48.7896 21.3946 45.6186H28.2472C28.7336 45.6186 29.126 45.226 29.126 44.7396C29.126 44.2545 28.7334 43.8609 28.2472 43.8609H21.3606C20.2459 36.7878 9.93434 36.7308 8.81648 43.8609H4.36852C2.92957 43.8609 1.7577 42.6903 1.7577 41.25V41.175H3.94195C4.58766 41.175 5.19457 40.9231 5.6516 40.4672C7.16613 38.9488 6.08988 36.3401 3.94195 36.3401H1.7577V34.7664H39.4344V43.8607H31.7626C31.2775 43.8607 30.8837 44.2545 30.8837 44.7395C30.8837 45.2259 31.2775 45.6184 31.7626 45.6184H43.7958C44.043 47.6644 45.2664 49.4748 47.1108 50.4579C48.06 50.9642 49.0818 51.2044 50.0883 51.2044C53.3324 51.2044 56.0213 48.7831 56.4042 45.6184H57.0054C58.6541 45.6184 59.9958 44.2768 59.9958 42.628C59.996 28.0677 60.0255 29.0536 59.9245 28.543ZM46.8074 27.8341C46.5261 27.8341 46.2976 27.5598 46.2976 27.2212V22.2516C46.2976 21.9129 46.5261 21.6387 46.8074 21.6387H52.5117L57.6407 27.8339H46.8074V27.8341ZM19.5714 43.8607C19.6961 44.4081 19.6839 44.8555 19.6839 44.8555C19.6839 46.8454 18.3921 48.65 16.4275 49.2486C13.4757 50.1441 10.497 47.9369 10.497 44.8532C10.4774 39.274 18.5099 38.6516 19.5714 43.8607ZM3.94195 38.0978C4.52766 38.0978 4.82227 38.8101 4.40836 39.2239C4.1557 39.4765 4.11809 39.4172 1.75781 39.4172V38.0978H3.94195ZM54.6936 44.8555C54.6936 46.7908 53.4513 48.635 51.4372 49.2486C47.5099 50.44 44.1373 46.2719 46.047 42.6947C48.2694 38.5212 54.6936 40.0582 54.6936 44.8544V44.8555Z" fill="url(#paint0_linear_1_4506)"/>
<path d="M15.0892 48.3786C17.4682 48.3786 19.1284 46.0746 18.4698 43.8602C17.4803 40.4979 12.6989 40.4989 11.7097 43.8602C11.0463 46.091 12.7266 48.3786 15.0892 48.3786ZM13.6303 43.8602C14.3309 42.8313 15.8457 42.8309 16.5492 43.8602C17.3537 45.0401 16.4936 46.6209 15.0892 46.6209C13.6786 46.6209 12.8311 45.0325 13.6303 43.8602Z" fill="url(#paint1_linear_1_4506)"/>
<path d="M46.7195 43.8609C46.0609 46.0755 47.7212 48.3793 50.1001 48.3793C52.0504 48.3793 53.6237 46.7896 53.6237 44.8557C53.6237 40.7686 47.8527 40.0106 46.7195 43.8609ZM51.6914 45.6186C51.4066 46.2116 50.8009 46.6216 50.1001 46.6216C48.6881 46.6216 47.8408 45.0329 48.64 43.8609C48.9588 43.3945 49.4942 43.0887 50.1001 43.0887C51.4065 43.0887 52.254 44.4642 51.6914 45.6186Z" fill="url(#paint2_linear_1_4506)"/>
<path d="M48.4306 32.8163C48.916 32.8163 49.3094 32.4228 49.3094 31.9374C49.3094 31.452 48.9158 31.0586 48.4306 31.0586H45.5175C45.0321 31.0586 44.6387 31.4521 44.6387 31.9374C44.6387 32.4228 45.0322 32.8163 45.5175 32.8163H48.4306Z" fill="url(#paint3_linear_1_4506)"/>
</g>
<defs>
<linearGradient id="paint0_linear_1_4506" x1="-2.23517e-07" y1="30.0002" x2="60" y2="30.0002" gradientUnits="userSpaceOnUse">
<stop stop-color="#223962"/>
<stop offset="0.526042" stop-color="#3277BC"/>
<stop offset="0.973958" stop-color="#48ABDF"/>
</linearGradient>
<linearGradient id="paint1_linear_1_4506" x1="11.5638" y1="44.8588" x2="18.6151" y2="44.8588" gradientUnits="userSpaceOnUse">
<stop stop-color="#223962"/>
<stop offset="0.526042" stop-color="#3277BC"/>
<stop offset="0.973958" stop-color="#48ABDF"/>
</linearGradient>
<linearGradient id="paint2_linear_1_4506" x1="46.5742" y1="44.8625" x2="53.6237" y2="44.8625" gradientUnits="userSpaceOnUse">
<stop stop-color="#223962"/>
<stop offset="0.526042" stop-color="#3277BC"/>
<stop offset="0.973958" stop-color="#48ABDF"/>
</linearGradient>
<linearGradient id="paint3_linear_1_4506" x1="44.6387" y1="31.9374" x2="49.3094" y2="31.9374" gradientUnits="userSpaceOnUse">
<stop stop-color="#223962"/>
<stop offset="0.526042" stop-color="#3277BC"/>
<stop offset="0.973958" stop-color="#48ABDF"/>
</linearGradient>
<clipPath id="clip0_1_4506">
<rect width="60" height="60" fill="white"/>
</clipPath>
</defs>
</svg>
