<svg width="60" height="60" viewBox="0 0 60 60" fill="none" xmlns="http://www.w3.org/2000/svg">
<g clip-path="url(#clip0_343_5508)">
<path d="M51.2133 8.78672C45.5473 3.1207 38.0133 0 30 0C23.1422 0 16.6863 2.25234 11.332 6.51445C10.9523 6.8168 10.8902 7.36875 11.1914 7.74727C11.4937 8.12695 12.0457 8.18906 12.4242 7.88789C17.4656 3.87539 23.543 1.75547 30 1.75547C37.5445 1.75547 44.6379 4.69336 49.9723 10.0277C55.3066 15.3621 58.2445 22.4555 58.2445 30C58.2445 37.5445 55.3066 44.6379 49.9723 49.9723C44.6379 55.3066 37.5445 58.2445 30 58.2445C22.4555 58.2445 15.3621 55.3066 10.0277 49.9723C4.69336 44.6379 1.75547 37.5445 1.75547 30C1.75547 22.4555 4.50117 15.8508 9.48516 10.5855C9.81797 10.234 9.80273 9.67852 9.45117 9.34453C9.09961 9.01172 8.54414 9.02695 8.21016 9.37852C2.91562 14.9719 0 22.2949 0 30C0 37.7051 3.1207 45.5473 8.78672 51.2133C14.4527 56.8793 21.9867 60 30 60C38.0133 60 45.5473 56.8793 51.2133 51.2133C56.8793 45.5473 60 38.0133 60 30C60 21.9867 56.8793 14.4527 51.2133 8.78672Z" fill="url(#paint0_linear_343_5508)"/>
<path d="M38.6016 50.2875C38.1563 50.4774 37.9489 50.993 38.1387 51.4395C38.2805 51.7735 38.6052 51.9727 38.9462 51.9727C39.061 51.9727 39.1782 51.9504 39.2895 51.9024C43.5305 50.0942 47.1423 47.1094 49.7333 43.2727C52.3899 39.3375 53.795 34.7485 53.7938 30C53.7938 25.4602 52.5094 21.0446 50.079 17.2301C49.8212 16.8258 49.3981 16.5633 48.92 16.5106C48.4384 16.4578 47.9661 16.6242 47.6239 16.9664L44.2009 20.3895C43.8587 20.7317 43.8587 21.2883 44.2009 21.6305C44.543 21.9727 45.0997 21.9727 45.4419 21.6305L48.7149 18.3574C50.8899 21.8461 52.0384 25.8668 52.0384 29.9989C52.0384 34.3957 50.7376 38.6449 48.2778 42.2895C45.8766 45.8461 42.5298 48.6117 38.6005 50.2875H38.6016Z" fill="url(#paint1_linear_343_5508)"/>
<path d="M20.4128 45.4207C20.0707 45.0785 19.514 45.0785 19.1718 45.4207L16.9675 47.625C16.6253 47.9672 16.4589 48.4395 16.5117 48.9211C16.5644 49.3992 16.8257 49.8223 17.2312 50.0801C21.0445 52.5105 25.4613 53.7949 30.0011 53.7949C31.8046 53.7949 33.6035 53.591 35.3472 53.1879C35.8195 53.0789 36.1136 52.6078 36.0046 52.1355C35.8957 51.6633 35.4246 51.368 34.9523 51.4781C33.3375 51.8508 31.6722 52.0406 30.0011 52.0406C25.8691 52.0406 21.8484 50.8922 18.3597 48.7172L20.414 46.6629C20.7574 46.3207 20.7574 45.7641 20.414 45.4219L20.4128 45.4207Z" fill="url(#paint2_linear_343_5508)"/>
<path d="M30 6.20508C23.6602 6.20508 17.6895 8.68477 13.1871 13.1871C8.68477 17.6895 6.20508 23.6602 6.20508 30C6.20508 34.5398 7.48945 38.9555 9.91992 42.7699C10.1777 43.1742 10.5996 43.4367 11.0789 43.4894C11.1375 43.4953 11.1961 43.4988 11.2547 43.4988C11.6742 43.4988 12.075 43.3336 12.375 43.0336L16.5879 38.8207C16.9301 38.4785 16.9301 37.9219 16.5879 37.5797C16.2457 37.2375 15.6891 37.2375 15.3469 37.5797L11.284 41.6426C9.10898 38.1539 7.96055 34.1332 7.96055 30.0012C7.96055 24.1301 10.2574 18.6 14.4281 14.4293C18.5988 10.2586 24.1289 7.96172 30 7.96172C34.132 7.96172 38.1527 9.11016 41.6414 11.2852L38.8852 14.0414C38.543 14.3836 38.543 14.9402 38.8852 15.2824C39.2273 15.6246 39.784 15.6246 40.1262 15.2824L43.0324 12.3762C43.3746 12.034 43.541 11.5617 43.4883 11.0801C43.4355 10.602 43.1742 10.1801 42.7687 9.92227C38.9555 7.4918 34.5398 6.20742 29.9988 6.20742L30 6.20508Z" fill="url(#paint3_linear_343_5508)"/>
<path d="M40.3933 22.0289C39.8273 22.0289 39.2929 22.1719 38.8265 22.4227V17.9719C38.8265 16.1402 37.3359 14.6496 35.5043 14.6496C34.9242 14.6496 34.3793 14.7996 33.9035 15.0621C33.6761 13.4496 32.2886 12.2051 30.614 12.2051C28.7824 12.2051 27.2918 13.6957 27.2918 15.5273V17.1105C26.8242 16.8598 26.291 16.7168 25.725 16.7168C23.8933 16.7168 22.4027 18.2074 22.4027 20.0391V26.8043C21.5379 25.7484 20.0988 25.2738 18.7101 25.7016C17.8347 25.9711 17.1152 26.577 16.6851 27.4078C16.2527 28.2434 16.1672 29.2301 16.4484 30.1207L18.3691 37.6652C18.3715 37.6758 18.375 37.6852 18.3773 37.6957C18.9304 39.5824 19.8843 41.4527 21.0644 42.9621C23.025 45.4723 26.3062 47.1855 30.0679 47.6625C30.7664 47.7516 31.4601 47.7949 32.148 47.7949C33.205 47.7949 34.2457 47.6906 35.257 47.4809C36.1148 47.3039 36.934 47.0531 37.6933 46.7379C41.4632 45.1676 43.7132 41.4914 43.7132 36.9023V25.3512C43.7132 23.5195 42.2238 22.0289 40.391 22.0289H40.3933ZM41.9613 36.9023C41.9613 40.8152 40.1601 43.8094 37.0207 45.1172C36.3644 45.3902 35.6519 45.607 34.9031 45.7617C33.423 46.0676 31.8703 46.1215 30.2894 45.9199C26.9847 45.5004 24.1265 44.0285 22.4484 41.8805C21.4054 40.5445 20.5593 38.8887 20.066 37.2152C20.0355 37.0945 19.8105 36.2098 18.1429 29.6602C18.1382 29.6414 18.1324 29.6227 18.1265 29.6039C17.9777 29.1504 18.0211 28.6441 18.2437 28.2141C18.4558 27.8051 18.805 27.5074 19.2269 27.3773C20.1058 27.1066 21.0257 27.5672 21.3363 28.4285L22.7519 34.2105C22.8597 34.6512 23.2851 34.9371 23.734 34.8703C26.407 34.4695 29.2183 36.2941 29.8734 38.8523C29.9941 39.3223 30.4711 39.6047 30.941 39.4852C31.4109 39.3645 31.6933 38.8863 31.5738 38.4176C31.1472 36.7512 30.055 35.2816 28.5 34.2785C27.2027 33.4418 25.7273 33.0223 24.2777 33.0645L24.1582 20.0391C24.1582 19.1754 24.8613 18.4723 25.725 18.4723C26.5886 18.4723 27.2918 19.1754 27.2918 20.0391V29.3238C27.2918 29.809 27.6843 30.2016 28.1695 30.2016C28.6547 30.2016 29.0472 29.809 29.0472 29.3238V15.5273C29.0472 14.6637 29.7504 13.9605 30.614 13.9605C31.4777 13.9605 32.1808 14.6637 32.1808 15.5273V29.3238C32.1808 29.809 32.5734 30.2016 33.0586 30.2016C33.5437 30.2016 33.9363 29.809 33.9363 29.3238V17.9719C33.9363 17.1082 34.6394 16.4051 35.5031 16.4051C36.3668 16.4051 37.0699 17.1082 37.0699 17.9719V29.3238C37.0699 29.809 37.4625 30.2016 37.9476 30.2016C38.4328 30.2016 38.8254 29.809 38.8254 29.3238V25.3512C38.8254 24.4875 39.5285 23.7844 40.3922 23.7844C41.2558 23.7844 41.959 24.4875 41.959 25.3512V36.9023H41.9613Z" fill="url(#paint4_linear_343_5508)"/>
</g>
<defs>
<linearGradient id="paint0_linear_343_5508" x1="-2.23517e-07" y1="30" x2="60" y2="30" gradientUnits="userSpaceOnUse">
<stop stop-color="#223962"/>
<stop offset="0.526042" stop-color="#3277BC"/>
<stop offset="0.973958" stop-color="#48ABDF"/>
</linearGradient>
<linearGradient id="paint1_linear_343_5508" x1="38.0684" y1="34.2368" x2="53.7938" y2="34.2368" gradientUnits="userSpaceOnUse">
<stop stop-color="#223962"/>
<stop offset="0.526042" stop-color="#3277BC"/>
<stop offset="0.973958" stop-color="#48ABDF"/>
</linearGradient>
<linearGradient id="paint2_linear_343_5508" x1="16.5021" y1="49.4795" x2="36.0273" y2="49.4795" gradientUnits="userSpaceOnUse">
<stop stop-color="#223962"/>
<stop offset="0.526042" stop-color="#3277BC"/>
<stop offset="0.973958" stop-color="#48ABDF"/>
</linearGradient>
<linearGradient id="paint3_linear_343_5508" x1="6.20508" y1="24.852" x2="43.4979" y2="24.852" gradientUnits="userSpaceOnUse">
<stop stop-color="#223962"/>
<stop offset="0.526042" stop-color="#3277BC"/>
<stop offset="0.973958" stop-color="#48ABDF"/>
</linearGradient>
<linearGradient id="paint4_linear_343_5508" x1="16.2855" y1="30" x2="43.7132" y2="30" gradientUnits="userSpaceOnUse">
<stop stop-color="#223962"/>
<stop offset="0.526042" stop-color="#3277BC"/>
<stop offset="0.973958" stop-color="#48ABDF"/>
</linearGradient>
<clipPath id="clip0_343_5508">
<rect width="60" height="60" fill="white"/>
</clipPath>
</defs>
</svg>
