<svg width="60" height="43" viewBox="0 0 60 43" fill="none" xmlns="http://www.w3.org/2000/svg">
<g clip-path="url(#clip0_390_4771)">
<path d="M16.3564 0H1.26738C0.56865 0 0 0.56865 0 1.26738V15.982C0 16.6807 0.56865 17.2493 1.26738 17.2493H5.87897V18.3233C5.87897 18.8085 6.27272 19.2023 6.75788 19.2023C7.24303 19.2023 7.63678 18.8085 7.63678 18.3233V17.2493H9.98696V23.457H7.63678V22.4252C7.63678 21.94 7.24303 21.5463 6.75788 21.5463C6.27272 21.5463 5.87897 21.94 5.87897 22.4252V23.457H5.67946C2.75448 23.457 0.374412 25.8371 0.374412 28.7621V34.3783C0.374412 37.3032 2.75448 39.6824 5.67946 39.6824H5.87897V41.1651C5.87897 41.9684 6.53288 42.6224 7.33619 42.6224H10.2867C11.09 42.6224 11.7439 41.9684 11.7439 41.1651V39.6815C14.6531 39.6631 17.0138 37.2918 17.0138 34.3783V26.2695C17.0138 24.7191 15.7526 23.457 14.2013 23.457H11.7439V17.2493H16.3555C17.0542 17.2493 17.6229 16.6807 17.6229 15.982V1.26738C17.6237 0.56865 17.0551 0 16.3564 0ZM2.13222 34.3791V28.7629C2.13222 26.8074 3.72303 25.2157 5.67946 25.2157H6.75612C6.75612 25.2157 6.757 25.2157 6.75788 25.2157C6.75876 25.2157 6.75876 25.2157 6.75963 25.2157H10.8623C10.8623 25.2157 10.865 25.2157 10.8659 25.2157C10.8667 25.2157 10.8685 25.2157 10.8694 25.2157H11.3871C11.3871 25.2157 11.3879 25.2157 11.3888 25.2157C11.9003 25.2166 12.3169 25.6332 12.3169 26.1456C12.3169 26.658 11.9003 27.0755 11.3871 27.0755C11.3871 27.0755 11.3862 27.0755 11.3853 27.0755H6.27536C5.79021 27.0755 5.39646 27.4692 5.39646 27.9544C5.39646 28.4395 5.79021 28.8333 6.27536 28.8333H11.3871C11.8995 28.8333 12.3161 29.2507 12.3161 29.7631C12.3161 30.2755 11.8995 30.693 11.3862 30.693H6.27448C5.78933 30.693 5.39558 31.0868 5.39558 31.5719C5.39558 32.0571 5.78933 32.4508 6.27448 32.4508H11.3862C11.6428 32.4508 11.8819 32.5528 12.0594 32.7391C12.2361 32.9245 12.3275 33.1689 12.3152 33.4264C12.2923 33.9133 11.8529 34.3097 11.3352 34.3097H6.27448C5.78933 34.3097 5.39558 34.7034 5.39558 35.1886C5.39558 35.6738 5.78933 36.0675 6.27448 36.0675H10.916C11.1726 36.0675 11.4117 36.1695 11.5892 36.3558C11.7659 36.5412 11.8573 36.7856 11.845 37.0431C11.8221 37.53 11.3827 37.9264 10.865 37.9264H5.67859C3.72303 37.9264 2.13134 36.3356 2.13134 34.38L2.13222 34.3791ZM7.63678 40.8654V39.6833H9.98696V40.8654H7.63678ZM13.5746 37.3946C13.5878 37.3059 13.5966 37.2162 13.601 37.1248C13.63 36.5105 13.4551 35.9225 13.1044 35.4347C13.6669 34.9689 14.0352 34.2842 14.0712 33.5081C14.0888 33.1408 14.0325 32.783 13.9104 32.4499H14.2022C14.5748 32.4499 14.9308 32.3761 15.2569 32.2443V34.38C15.2569 35.6518 14.5836 36.7689 13.5746 37.3946ZM15.2569 26.2704V29.6375C15.2569 30.2193 14.784 30.6921 14.2022 30.6921H13.9077C14.015 30.4021 14.0739 30.0892 14.0739 29.7623C14.0739 29.0662 13.8084 28.4316 13.3725 27.9535C13.8075 27.4754 14.0739 26.8408 14.0739 26.1447C14.0739 25.8177 14.015 25.5049 13.9077 25.2148H14.2013C14.7831 25.2148 15.256 25.6877 15.256 26.2695L15.2569 26.2704ZM15.8668 15.4924H1.7578V1.7578H15.8659V15.4915L15.8668 15.4924Z" fill="url(#paint0_linear_390_4771)"/>
<path d="M30.0189 12.015C29.3263 12.015 28.7629 11.4516 28.7629 10.759C28.7629 10.2739 28.3692 9.88014 27.884 9.88014C27.3989 9.88014 27.0051 10.2739 27.0051 10.759C27.0051 12.4211 28.3569 13.7728 30.0189 13.7728C31.6809 13.7728 33.0326 12.4211 33.0326 10.759V6.48934C33.0326 4.82734 31.6809 3.47559 30.0189 3.47559C28.3569 3.47559 27.0051 4.82734 27.0051 6.48934C27.0051 8.15134 28.3569 9.5031 30.0189 9.5031C30.4671 9.5031 30.8925 9.40378 31.2748 9.228V10.759C31.2748 11.4516 30.7115 12.015 30.0189 12.015ZM30.0189 7.74529C29.3263 7.74529 28.7629 7.18192 28.7629 6.48934C28.7629 5.79677 29.3263 5.23339 30.0189 5.23339C30.7115 5.23339 31.2748 5.79677 31.2748 6.48934C31.2748 7.18192 30.7115 7.74529 30.0189 7.74529Z" fill="url(#paint1_linear_390_4771)"/>
<path d="M48.213 10.759C48.213 12.4211 49.5648 13.7728 51.2268 13.7728C52.8888 13.7728 54.2405 12.4211 54.2405 10.759C54.2405 9.92585 53.9004 9.16999 53.352 8.62419C53.9004 8.0784 54.2405 7.32254 54.2405 6.48934C54.2405 4.82734 52.8888 3.47559 51.2268 3.47559C49.5648 3.47559 48.213 4.82734 48.213 6.48934C48.213 7.32254 48.5531 8.0784 49.1016 8.62419C48.5531 9.16999 48.213 9.92585 48.213 10.759ZM49.9708 6.48934C49.9708 5.79677 50.5342 5.23339 51.2268 5.23339C51.9193 5.23339 52.4827 5.79677 52.4827 6.48934C52.4827 7.18192 51.9193 7.74529 51.2268 7.74529C50.5342 7.74529 49.9708 7.18192 49.9708 6.48934ZM52.4827 10.759C52.4827 11.4516 51.9193 12.015 51.2268 12.015C50.5342 12.015 49.9708 11.4516 49.9708 10.759C49.9708 10.0665 50.5342 9.5031 51.2268 9.5031C51.9193 9.5031 52.4827 10.0665 52.4827 10.759Z" fill="url(#paint2_linear_390_4771)"/>
<path d="M6.677 5.23339H9.82083L7.95932 12.6812C7.84154 13.1523 8.12806 13.6295 8.59916 13.7473C8.67035 13.7649 8.74242 13.7737 8.81273 13.7737C9.20648 13.7737 9.56507 13.5074 9.66439 13.1075L11.7992 4.56806C11.8652 4.30527 11.8063 4.02754 11.6393 3.81396C11.4723 3.60039 11.2174 3.47559 10.9467 3.47559H6.677C6.19184 3.47559 5.7981 3.86933 5.7981 4.35449C5.7981 4.83964 6.19184 5.23339 6.677 5.23339Z" fill="url(#paint3_linear_390_4771)"/>
<path d="M37.545 0H22.456C21.7572 0 21.1886 0.56865 21.1886 1.26738V15.982C21.1886 16.6807 21.7572 17.2493 22.456 17.2493H27.0676V23.457H26.8681C23.9431 23.457 21.563 25.8371 21.563 28.7621V29.3738C21.563 29.8589 21.9568 30.2527 22.4419 30.2527C22.9271 30.2527 23.3208 29.8589 23.3208 29.3738V28.7621C23.3208 26.8065 24.9125 25.2148 26.8681 25.2148H32.5757C33.0881 25.2148 33.5055 25.6314 33.5055 26.1447C33.5055 26.658 33.0889 27.0746 32.5757 27.0746H27.464C26.9788 27.0746 26.5851 27.4683 26.5851 27.9535C26.5851 28.4386 26.9788 28.8324 27.464 28.8324H32.5757C33.0881 28.8324 33.5055 29.249 33.5055 29.7623C33.5055 30.2755 33.0889 30.6921 32.5757 30.6921H27.464C26.9788 30.6921 26.5851 31.0859 26.5851 31.571C26.5851 32.0562 26.9788 32.4499 27.464 32.4499H32.5757C32.8323 32.4499 33.0714 32.5519 33.248 32.7382C33.4247 32.9237 33.5161 33.168 33.5038 33.4255C33.4809 33.9124 33.0415 34.3088 32.5247 34.3088H27.464C26.9788 34.3088 26.5851 34.7026 26.5851 35.1877C26.5851 35.6729 26.9788 36.0666 27.464 36.0666H32.1054C32.3621 36.0666 32.6011 36.1686 32.7778 36.3549C32.9545 36.5404 33.0459 36.7847 33.0336 37.0422C33.0107 37.5291 32.5721 37.9246 32.0562 37.9255H32.0545C32.0545 37.9255 32.0536 37.9255 32.0527 37.9255H26.8681C24.9125 37.9255 23.3208 36.3347 23.3208 34.3791V33.4765C23.3208 32.9913 22.9271 32.5976 22.4419 32.5976C21.9568 32.5976 21.563 32.9913 21.563 33.4765V34.3791C21.563 37.3041 23.9431 39.6833 26.8681 39.6833H27.0685V41.166C27.0685 41.9693 27.7224 42.6232 28.5257 42.6232H31.4761C32.2795 42.6232 32.9334 41.9693 32.9334 41.166V39.6824C35.8425 39.664 38.2033 37.2927 38.2033 34.3791V26.2704C38.2033 24.72 36.942 23.4579 35.3908 23.4579H32.9334V17.2502H37.545C38.2437 17.2502 38.8123 16.6816 38.8123 15.9828V1.26738C38.8123 0.56865 38.2437 0 37.545 0ZM28.8254 40.8654V39.6833H31.1747V40.8654H28.8254ZM34.7632 37.3946C34.7764 37.3059 34.7852 37.2162 34.7896 37.1248C34.8186 36.5105 34.6437 35.9225 34.293 35.4338C34.8555 34.968 35.2238 34.2833 35.2598 33.5073C35.2774 33.1399 35.2211 32.7822 35.099 32.4491H35.3908C35.7634 32.4491 36.1194 32.3752 36.4455 32.2434V34.3791C36.4455 35.6509 35.7722 36.768 34.7632 37.3938V37.3946ZM36.4455 26.2704V29.6375C36.4455 30.2193 35.9726 30.6921 35.3908 30.6921H35.0963C35.2036 30.4021 35.2625 30.0892 35.2625 29.7623C35.2625 29.0662 34.997 28.4316 34.5611 27.9535C34.9962 27.4754 35.2625 26.8408 35.2625 26.1447C35.2625 25.8177 35.2036 25.5049 35.0963 25.2148H35.3899C35.9717 25.2148 36.4446 25.6877 36.4446 26.2695L36.4455 26.2704ZM31.1756 23.4579H28.8254V17.2502H31.1756V23.4579ZM37.0545 15.4924H27.9474H22.9482V1.7578H37.0563V15.4915L37.0545 15.4924Z" fill="url(#paint4_linear_390_4771)"/>
<path d="M58.7326 0H43.6436C42.9449 0 42.3762 0.56865 42.3762 1.26738V7.50319C42.3762 7.98834 42.77 8.38209 43.2551 8.38209C43.7403 8.38209 44.134 7.98834 44.134 7.50319V1.7578H58.2422V15.4915H44.134V11.6041C44.134 11.119 43.7403 10.7252 43.2551 10.7252C42.77 10.7252 42.3762 11.119 42.3762 11.6041V15.982C42.3762 16.6807 42.9449 17.2493 43.6436 17.2493H48.2552V23.457H48.0557C45.1307 23.457 42.7506 25.8371 42.7506 28.7621V34.3783C42.7506 37.3032 45.1307 39.6824 48.0557 39.6824H48.2552V41.1651C48.2552 41.9684 48.9091 42.6224 49.7124 42.6224H52.6629C53.4662 42.6224 54.1201 41.9684 54.1201 41.1651V39.6815C57.0293 39.6631 59.39 37.2918 59.39 34.3783V26.2686C59.39 24.7182 58.1288 23.4561 56.5775 23.4561H54.1201V17.2485H58.7317C59.4304 17.2485 59.9991 16.6798 59.9991 15.9811V1.26738C59.9991 0.56865 59.4304 0 58.7317 0H58.7326ZM44.5084 34.3783V28.7621C44.5084 26.8065 46.1001 25.2148 48.0557 25.2148H49.1332C49.1332 25.2148 49.1341 25.2148 49.135 25.2148C49.1359 25.2148 49.1359 25.2148 49.1367 25.2148H53.2412C53.2412 25.2148 53.2421 25.2148 53.243 25.2148C53.2438 25.2148 53.2438 25.2148 53.2447 25.2148H53.7642C53.7642 25.2148 53.765 25.2148 53.7659 25.2148C54.2774 25.2157 54.694 25.6323 54.694 26.1447C54.694 26.6571 54.2774 27.0746 53.7642 27.0746C53.7642 27.0746 53.7633 27.0746 53.7624 27.0746H48.6525C48.1673 27.0746 47.7736 27.4683 47.7736 27.9535C47.7736 28.4386 48.1673 28.8324 48.6525 28.8324H53.7642C54.2766 28.8324 54.6932 29.2499 54.6932 29.7623C54.6932 30.2747 54.2766 30.6921 53.7633 30.6921H48.6516C48.1664 30.6921 47.7727 31.0859 47.7727 31.571C47.7727 32.0562 48.1664 32.4499 48.6516 32.4499H53.7633C54.0199 32.4499 54.259 32.5519 54.4365 32.7382C54.6132 32.9237 54.7046 33.168 54.6923 33.4255C54.6694 33.9124 54.23 34.3088 53.7123 34.3088H53.2931C53.2931 34.3088 53.2922 34.3088 53.2913 34.3088H48.6516C48.1664 34.3088 47.7727 34.7026 47.7727 35.1877C47.7727 35.6729 48.1664 36.0666 48.6516 36.0666H53.2948C53.5506 36.0666 53.7888 36.1695 53.9663 36.3549C54.143 36.5404 54.2344 36.7847 54.2221 37.0422C54.1992 37.5291 53.7598 37.9255 53.2421 37.9255H48.0557C46.1001 37.9255 44.5084 36.3347 44.5084 34.3791V34.3783ZM50.013 40.8646V39.6824H52.3632V40.8646H50.013ZM55.9509 37.3938C55.964 37.305 55.9728 37.2153 55.9772 37.1239C56.0062 36.5096 55.8313 35.9216 55.4806 35.4329C56.0431 34.9671 56.4114 34.2825 56.4474 33.5064C56.465 33.139 56.4088 32.7813 56.2857 32.4482H56.5775C56.9502 32.4482 57.3061 32.3744 57.6322 32.2425V34.3783C57.6322 35.65 56.959 36.7671 55.95 37.3929L55.9509 37.3938ZM57.6331 26.2695V29.6366C57.6331 30.2184 57.1602 30.6913 56.5784 30.6913H56.284C56.3912 30.4012 56.4501 30.0883 56.4501 29.7614C56.4501 29.0653 56.1846 28.4307 55.7487 27.9526C56.1838 27.4745 56.4501 26.8399 56.4501 26.1438C56.4501 25.8169 56.3912 25.504 56.284 25.2139H56.5775C57.1594 25.2139 57.6322 25.6868 57.6322 26.2686L57.6331 26.2695ZM52.3632 23.457H50.013V17.2493H52.3632V23.457Z" fill="url(#paint5_linear_390_4771)"/>
</g>
<defs>
<linearGradient id="paint0_linear_390_4771" x1="-6.56503e-08" y1="21.3112" x2="17.6229" y2="21.3112" gradientUnits="userSpaceOnUse">
<stop stop-color="#223962"/>
<stop offset="0.526042" stop-color="#3277BC"/>
<stop offset="0.973958" stop-color="#48ABDF"/>
</linearGradient>
<linearGradient id="paint1_linear_390_4771" x1="27.0051" y1="8.6242" x2="33.0326" y2="8.6242" gradientUnits="userSpaceOnUse">
<stop stop-color="#223962"/>
<stop offset="0.526042" stop-color="#3277BC"/>
<stop offset="0.973958" stop-color="#48ABDF"/>
</linearGradient>
<linearGradient id="paint2_linear_390_4771" x1="48.213" y1="8.6242" x2="54.2405" y2="8.6242" gradientUnits="userSpaceOnUse">
<stop stop-color="#223962"/>
<stop offset="0.526042" stop-color="#3277BC"/>
<stop offset="0.973958" stop-color="#48ABDF"/>
</linearGradient>
<linearGradient id="paint3_linear_390_4771" x1="5.7981" y1="8.62464" x2="11.8257" y2="8.62464" gradientUnits="userSpaceOnUse">
<stop stop-color="#223962"/>
<stop offset="0.526042" stop-color="#3277BC"/>
<stop offset="0.973958" stop-color="#48ABDF"/>
</linearGradient>
<linearGradient id="paint4_linear_390_4771" x1="21.1886" y1="21.3116" x2="38.8123" y2="21.3116" gradientUnits="userSpaceOnUse">
<stop stop-color="#223962"/>
<stop offset="0.526042" stop-color="#3277BC"/>
<stop offset="0.973958" stop-color="#48ABDF"/>
</linearGradient>
<linearGradient id="paint5_linear_390_4771" x1="42.3762" y1="21.3112" x2="59.9991" y2="21.3112" gradientUnits="userSpaceOnUse">
<stop stop-color="#223962"/>
<stop offset="0.526042" stop-color="#3277BC"/>
<stop offset="0.973958" stop-color="#48ABDF"/>
</linearGradient>
<clipPath id="clip0_390_4771">
<rect width="60" height="42.6232" fill="white"/>
</clipPath>
</defs>
</svg>
