<svg width="60" height="60" viewBox="0 0 60 60" fill="none" xmlns="http://www.w3.org/2000/svg">
<g clip-path="url(#clip0_390_4896)">
<path d="M33.8351 45.9082C32.704 45.9082 32.7022 47.666 33.8351 47.666C34.968 47.666 34.968 45.9082 33.8351 45.9082Z" fill="url(#paint0_linear_390_4896)"/>
<path d="M59.7425 0.257409C59.3988 -0.0853633 58.8425 -0.0862422 58.4997 0.257409L49.6632 9.09213L46 5.42975C45.2784 4.70817 44.2439 4.36452 43.2332 4.51042L29.06 6.56353C28.3701 6.66372 27.7188 6.9898 27.2266 7.48286L23.7462 10.9624C23.4025 11.3052 23.4025 11.8624 23.7462 12.2052C24.0889 12.548 24.6462 12.5489 24.9889 12.2052L28.4694 8.72563C28.6961 8.49887 28.995 8.34946 29.3123 8.30288L43.4846 6.24976C43.9486 6.18209 44.425 6.34029 44.7572 6.67251L48.4205 10.3349L46.1986 12.5559C44.6684 11.5935 42.6188 11.7763 41.2882 13.107C40.5402 13.8549 40.128 14.8498 40.128 15.908C40.128 16.9662 40.5402 17.9611 41.2882 18.7091C42.0607 19.4816 43.075 19.8675 44.0892 19.8675C45.1035 19.8675 46.1177 19.4816 46.8903 18.7091C47.6382 17.9611 48.0504 16.9662 48.0504 15.908C48.0504 15.1495 47.8377 14.4244 47.4422 13.7987L49.6632 11.5785L53.3265 15.2409C53.6587 15.5723 53.816 16.0478 53.7492 16.5118L51.6953 30.6806C51.6496 30.9979 51.4993 31.2967 51.2725 31.5235L47.9195 34.8756V34.045C47.9195 32.8067 47.096 31.7581 45.869 31.4373C44.6368 31.1148 43.3984 31.6272 42.7867 32.7126C42.7779 32.7276 42.77 32.7434 42.7621 32.7592L38.1004 42.3243C37.6706 41.978 37.1248 41.7697 36.5316 41.7697H31.1351C29.7552 41.7697 28.632 42.8929 28.632 44.2728V54.1578L24.9969 57.7921C24.4141 58.3748 23.4649 58.3748 22.8822 57.7921L2.1955 37.1063C1.91337 36.8241 1.7578 36.4488 1.7578 36.0489C1.7578 35.649 1.91337 35.2746 2.1955 34.9916L21.708 15.4835C22.0516 15.1407 22.0516 14.5835 21.708 14.2407C21.3652 13.8971 20.808 13.8971 20.4652 14.2407L0.95273 33.7488C0.338377 34.3632 0 35.1806 0 36.0489C0 36.9173 0.338377 37.7347 0.95273 38.349L21.6412 59.0322C22.2758 59.6659 23.109 59.9832 23.9413 59.9832C24.7736 59.9832 25.6077 59.6659 26.2414 59.0322L28.937 56.3366C29.3615 57.1153 30.1885 57.6453 31.136 57.6453H36.5324C37.3507 57.6453 38.0784 57.2507 38.5355 56.6425L39.0602 57.1285C40.4523 58.4003 42.2611 59.1008 44.1525 59.1008C45.172 59.1008 46.1582 59.0999 47.1091 59.0981C47.5943 59.0981 47.9872 58.7035 47.9863 58.2175C47.9863 57.7323 47.5925 57.3403 47.1074 57.3403H47.1056C46.1555 57.3421 45.1703 57.343 44.1516 57.343C42.6997 57.343 41.3128 56.806 40.2493 55.8348L39.0356 54.7098V44.417L44.3301 33.5537C44.5955 33.1046 45.0666 33.0422 45.4234 33.1354C45.7802 33.2285 46.1617 33.5168 46.1617 34.0433V41.4269C46.1617 41.9121 46.5554 42.3058 47.0406 42.3058C48.6182 42.3058 52.2727 42.3032 54.5851 42.3006C55.1265 42.3006 55.6705 42.2988 56.1812 42.2962C56.5573 42.2918 56.9107 42.4649 57.1436 42.7637C57.3765 43.0626 57.4556 43.444 57.3624 43.8088L56.5661 46.9166C55.6872 50.3504 54.3698 55.492 54.1377 56.3982L54.1307 56.4254C53.9927 56.9633 53.5102 57.3377 52.9547 57.3377H52.9503C52.5724 57.3368 52.183 57.3359 51.7849 57.3351H51.784C51.2989 57.3351 50.906 57.7279 50.9051 58.2131C50.9051 58.6982 51.2971 59.0929 51.7831 59.0929C52.1795 59.0929 52.568 59.0938 52.9451 59.0955H52.9556C54.3144 59.0955 55.4974 58.1779 55.834 56.864L55.841 56.8367C56.0739 55.9279 57.3905 50.7864 58.2703 47.3525L59.0561 44.2851L59.0657 44.2465C59.296 43.3482 59.1009 42.4139 58.5314 41.6836C57.9636 40.9558 57.1102 40.5384 56.1873 40.5384H56.175C55.6661 40.5401 55.1247 40.5419 54.5842 40.5428C52.6339 40.5445 49.7283 40.5472 47.9204 40.5472V37.3594L52.5162 32.7645C53.0092 32.2714 53.3353 31.621 53.4355 30.9311L55.4895 16.7614C55.6362 15.7507 55.2917 14.7162 54.5701 13.9946L50.9069 10.3323L59.7434 1.49842C60.087 1.15565 60.087 0.598423 59.7434 0.255651L59.7425 0.257409ZM46.2926 15.9071C46.2926 16.4951 46.0633 17.0488 45.6475 17.4646C44.788 18.3241 43.3896 18.3241 42.5309 17.4646C42.1143 17.0488 41.8858 16.4951 41.8858 15.9071C41.8858 15.3192 42.1152 14.7654 42.5309 14.3497C42.9607 13.9199 43.525 13.7055 44.0892 13.7055C44.3635 13.7055 44.6377 13.7565 44.8961 13.8584L44.2351 14.5194C43.8915 14.8621 43.8915 15.4193 44.2351 15.7621C44.4065 15.9335 44.6315 16.0196 44.8565 16.0196C45.0815 16.0196 45.3065 15.9335 45.4779 15.7621L46.1397 15.1003C46.2399 15.3543 46.2926 15.6268 46.2926 15.908V15.9071ZM37.2786 55.1431C37.2786 55.5535 36.9446 55.8884 36.5333 55.8884H31.1369C30.7264 55.8884 30.3916 55.5544 30.3916 55.1431V44.2702C30.3916 43.8597 30.7255 43.5249 31.1369 43.5249H36.5333C36.9438 43.5249 37.2786 43.8589 37.2786 44.2702V55.1431Z" fill="url(#paint1_linear_390_4896)"/>
<path d="M33.0793 18.8661C32.7365 18.5225 32.1793 18.5225 31.8365 18.8661L13.6045 37.0946C13.2609 37.4382 13.2609 37.9946 13.6045 38.3373C13.7759 38.5087 14.0009 38.5948 14.2259 38.5948C14.4509 38.5948 14.6759 38.5087 14.8473 38.3373L33.0793 20.1089C33.4229 19.7661 33.4229 19.2089 33.0793 18.8661Z" fill="url(#paint2_linear_390_4896)"/>
<path d="M31.5728 28.6831L18.3049 41.9475C17.9612 42.2911 17.9612 42.8475 18.3049 43.1902C18.4762 43.3616 18.7012 43.4478 18.9262 43.4478C19.1512 43.4478 19.3762 43.3616 19.5476 43.1902L32.8155 29.925C33.1592 29.5822 33.1592 29.025 32.8155 28.6822C32.4728 28.3394 31.9155 28.3386 31.5728 28.6822V28.6831Z" fill="url(#paint3_linear_390_4896)"/>
</g>
<defs>
<linearGradient id="paint0_linear_390_4896" x1="32.9861" y1="46.7871" x2="34.6848" y2="46.7871" gradientUnits="userSpaceOnUse">
<stop stop-color="#223962"/>
<stop offset="0.526042" stop-color="#3277BC"/>
<stop offset="0.973958" stop-color="#48ABDF"/>
</linearGradient>
<linearGradient id="paint1_linear_390_4896" x1="-2.23521e-07" y1="29.9916" x2="60.0011" y2="29.9916" gradientUnits="userSpaceOnUse">
<stop stop-color="#223962"/>
<stop offset="0.526042" stop-color="#3277BC"/>
<stop offset="0.973958" stop-color="#48ABDF"/>
</linearGradient>
<linearGradient id="paint2_linear_390_4896" x1="13.3468" y1="28.6016" x2="33.337" y2="28.6016" gradientUnits="userSpaceOnUse">
<stop stop-color="#223962"/>
<stop offset="0.526042" stop-color="#3277BC"/>
<stop offset="0.973958" stop-color="#48ABDF"/>
</linearGradient>
<linearGradient id="paint3_linear_390_4896" x1="18.0471" y1="35.9363" x2="33.0733" y2="35.9363" gradientUnits="userSpaceOnUse">
<stop stop-color="#223962"/>
<stop offset="0.526042" stop-color="#3277BC"/>
<stop offset="0.973958" stop-color="#48ABDF"/>
</linearGradient>
<clipPath id="clip0_390_4896">
<rect width="60" height="59.9842" fill="white"/>
</clipPath>
</defs>
</svg>
