<svg width="53" height="60" viewBox="0 0 53 60" fill="none" xmlns="http://www.w3.org/2000/svg">
<g clip-path="url(#clip0_390_4828)">
<path d="M19.0801 5.39843C19.5655 5.39843 19.959 5.00493 19.959 4.51953C19.959 4.03412 19.5655 3.64062 19.0801 3.64062C18.5947 3.64062 18.2012 4.03412 18.2012 4.51953C18.2012 5.00493 18.5947 5.39843 19.0801 5.39843Z" fill="url(#paint0_linear_390_4828)"/>
<path d="M22.7196 56.3594C23.2048 56.3594 23.5985 55.9656 23.5985 55.4805C23.5985 54.9953 23.2048 54.6016 22.7196 54.6016H15.4397C14.9545 54.6016 14.5608 54.9953 14.5608 55.4805C14.5608 55.9656 14.9545 56.3594 15.4397 56.3594H22.7196Z" fill="url(#paint1_linear_390_4828)"/>
<path d="M19.959 29.7044V24.5399C19.959 24.2464 19.8122 23.9713 19.5679 23.8087L16.838 21.9885C16.6939 21.8918 16.5243 21.8408 16.3502 21.8408H10.8905C10.7174 21.8408 10.5477 21.8918 10.4027 21.9885L7.67285 23.8087C7.42852 23.9713 7.28174 24.2464 7.28174 24.5399V29.7044C7.28174 33.5258 9.71718 36.9052 13.3426 38.1137C13.4332 38.1436 13.5263 38.1585 13.6204 38.1585C13.7144 38.1585 13.8085 38.1436 13.8981 38.1137C17.5236 36.9052 19.959 33.5258 19.959 29.7044ZM13.6204 36.3471C10.8685 35.3021 9.03954 32.6689 9.03954 29.7044V25.0101L11.1568 23.5986H16.0848L18.2021 25.0101V29.7044C18.2021 32.6689 16.3731 35.3021 13.6213 36.3471H13.6204Z" fill="url(#paint2_linear_390_4828)"/>
<path d="M16.4653 27.2791C16.0804 26.9829 15.5284 27.055 15.2331 27.44L13.0446 30.2867L11.9328 29.1749C11.5892 28.8313 11.0328 28.8313 10.6901 29.1749C10.3473 29.5186 10.3473 30.0749 10.6901 30.4177L12.5103 32.2379C12.6755 32.4031 12.8996 32.4954 13.1317 32.4954C13.151 32.4954 13.1694 32.4954 13.1888 32.4936C13.441 32.4769 13.6739 32.353 13.8286 32.1526L16.6279 28.5122C16.9241 28.1273 16.852 27.5753 16.4671 27.28L16.4653 27.2791Z" fill="url(#paint3_linear_390_4828)"/>
<path d="M51.8412 30.7835C52.3263 30.7835 52.7201 30.3898 52.7201 29.9046V20.4854C52.7201 19.2251 51.6953 18.2003 50.4349 18.2003H38.1593V3.9867C38.1593 1.82548 36.3338 0 34.1726 0H20.9952C20.5101 0 20.1163 0.393748 20.1163 0.878902C20.1163 1.36406 20.5101 1.7578 20.9952 1.7578H34.1726C35.36 1.7578 36.4015 2.7993 36.4015 3.9867V18.2003H34.518V4.51844C34.518 4.03328 34.1242 3.63953 33.6391 3.63953H24.5398C24.5126 3.63953 24.4845 3.64041 24.4572 3.64305C22.9165 3.78807 21.9884 4.71619 21.8442 6.2569C21.8416 6.28415 21.8407 6.3114 21.8407 6.33864C21.8407 6.85719 21.4188 7.27995 20.8994 7.27995H17.3021C16.6569 7.20963 16.3854 6.93805 16.3168 6.29118C16.2913 4.82429 15.0907 3.63953 13.6186 3.63953H4.52019C4.03504 3.63953 3.64129 4.03328 3.64129 4.51844V51.8394C3.64129 52.3246 4.03504 52.7183 4.52019 52.7183H11.7052C12.1904 52.7183 12.5841 52.3246 12.5841 51.8394C12.5841 51.3542 12.1904 50.9605 11.7052 50.9605H5.3991V5.39734H13.6195C14.138 5.39734 14.5608 5.82009 14.5608 6.33952C14.5608 6.36677 14.5616 6.39401 14.5643 6.42214C14.7093 7.96197 15.6365 8.89009 17.1773 9.03511C17.2045 9.03775 17.2318 9.03863 17.2599 9.03863H20.9012C22.3733 9.03863 23.5739 7.85387 23.5994 6.38786C23.668 5.74011 23.9395 5.46765 24.5846 5.39822H32.7611V18.2012H23.5994V15.4405C23.5994 14.9554 23.2057 14.5616 22.7205 14.5616C22.2353 14.5616 21.8416 14.9554 21.8416 15.4405V44.5612C21.8416 45.0464 22.2353 45.4401 22.7205 45.4401C23.2057 45.4401 23.5994 45.0464 23.5994 44.5612V41.8006H32.7611V50.9623H15.5346C15.0494 50.9623 14.6557 51.356 14.6557 51.8412C14.6557 52.3263 15.0494 52.7201 15.5346 52.7201H33.64C34.1251 52.7201 34.5189 52.3263 34.5189 51.8412V41.8006H36.4024V56.0142C36.4024 57.2016 35.3609 58.2431 34.1735 58.2431H3.9867C2.7993 58.2431 1.7578 57.2016 1.7578 56.0142V3.9867C1.7578 2.7993 2.7993 1.7578 3.9867 1.7578H17.1641C17.6492 1.7578 18.043 1.36406 18.043 0.878902C18.043 0.393748 17.6492 0 17.1641 0H3.9867C1.82548 0 0 1.82548 0 3.9867V56.0133C0 58.1745 1.82548 60 3.9867 60H34.1726C36.3338 60 38.1593 58.1745 38.1593 56.0133V41.7997H50.4349C51.6953 41.7997 52.7201 40.7749 52.7201 39.5146V33.7349C52.7201 33.2497 52.3263 32.856 51.8412 32.856C51.356 32.856 50.9623 33.2497 50.9623 33.7349V39.5146C50.9623 39.8055 50.7258 40.0419 50.4349 40.0419H23.5994V27.2389H50.9623V29.9055C50.9623 30.3907 51.356 30.7844 51.8412 30.7844V30.7835ZM50.4349 19.9581C50.7258 19.9581 50.9623 20.1945 50.9623 20.4854V21.8407H23.5994V19.9581H50.4349ZM23.5994 25.4811V23.5985H50.9623V25.4811H23.5994Z" fill="url(#paint4_linear_390_4828)"/>
<path d="M40.9208 29.1211C40.4356 29.1211 40.0419 29.5148 40.0419 30V33.6404C40.0419 34.1256 40.4356 34.5193 40.9208 34.5193H48.2007C48.6859 34.5193 49.0796 34.1256 49.0796 33.6404V30C49.0796 29.5148 48.6859 29.1211 48.2007 29.1211H40.9208ZM47.3218 32.7615H41.7997V30.8789H47.3218V32.7615Z" fill="url(#paint5_linear_390_4828)"/>
</g>
<defs>
<linearGradient id="paint0_linear_390_4828" x1="18.2012" y1="4.51953" x2="19.959" y2="4.51953" gradientUnits="userSpaceOnUse">
<stop stop-color="#223962"/>
<stop offset="0.526042" stop-color="#3277BC"/>
<stop offset="0.973958" stop-color="#48ABDF"/>
</linearGradient>
<linearGradient id="paint1_linear_390_4828" x1="14.5608" y1="55.4805" x2="23.5985" y2="55.4805" gradientUnits="userSpaceOnUse">
<stop stop-color="#223962"/>
<stop offset="0.526042" stop-color="#3277BC"/>
<stop offset="0.973958" stop-color="#48ABDF"/>
</linearGradient>
<linearGradient id="paint2_linear_390_4828" x1="7.28174" y1="29.9997" x2="19.959" y2="29.9997" gradientUnits="userSpaceOnUse">
<stop stop-color="#223962"/>
<stop offset="0.526042" stop-color="#3277BC"/>
<stop offset="0.973958" stop-color="#48ABDF"/>
</linearGradient>
<linearGradient id="paint3_linear_390_4828" x1="10.433" y1="29.796" x2="16.8104" y2="29.796" gradientUnits="userSpaceOnUse">
<stop stop-color="#223962"/>
<stop offset="0.526042" stop-color="#3277BC"/>
<stop offset="0.973958" stop-color="#48ABDF"/>
</linearGradient>
<linearGradient id="paint4_linear_390_4828" x1="-1.96397e-07" y1="30" x2="52.7201" y2="30" gradientUnits="userSpaceOnUse">
<stop stop-color="#223962"/>
<stop offset="0.526042" stop-color="#3277BC"/>
<stop offset="0.973958" stop-color="#48ABDF"/>
</linearGradient>
<linearGradient id="paint5_linear_390_4828" x1="40.0419" y1="31.8202" x2="49.0796" y2="31.8202" gradientUnits="userSpaceOnUse">
<stop stop-color="#223962"/>
<stop offset="0.526042" stop-color="#3277BC"/>
<stop offset="0.973958" stop-color="#48ABDF"/>
</linearGradient>
<clipPath id="clip0_390_4828">
<rect width="52.7201" height="60" fill="white"/>
</clipPath>
</defs>
</svg>
