<svg width="60" height="60" viewBox="0 0 60 60" fill="none" xmlns="http://www.w3.org/2000/svg">
<g clip-path="url(#clip0_502_4619)">
<path fill-rule="evenodd" clip-rule="evenodd" d="M12.1504 8.82066C12.1504 9.30581 11.7566 9.69956 11.2715 9.69956C10.7863 9.69956 10.3926 9.30581 10.3926 8.82066V6.26921C10.3926 2.81249 13.2033 0 16.6583 0H43.3584C46.8134 0 49.6241 2.81249 49.6241 6.26921V18.522C49.6241 19.0071 49.2304 19.4009 48.7452 19.4009C48.2601 19.4009 47.8663 19.0071 47.8663 18.522V6.26921C47.8663 3.78192 45.844 1.7578 43.3584 1.7578H16.6583C14.1727 1.7578 12.1504 3.78192 12.1504 6.26921V8.82066ZM11.2715 46.9877C11.7566 46.9877 12.1504 46.5939 12.1504 46.1088V28.3242C12.1504 27.8391 11.7566 27.4453 11.2715 27.4453C10.7863 27.4453 10.3926 27.8391 10.3926 28.3242V46.1088C10.3926 46.5939 10.7863 46.9877 11.2715 46.9877ZM48.7452 40.4629C48.2601 40.4629 47.8663 40.8566 47.8663 41.3418V53.729C47.8663 56.2163 45.844 58.2404 43.3584 58.2404H16.6583C14.1727 58.2404 12.1504 56.2163 12.1504 53.729V50.2565C12.1504 49.7713 11.7566 49.3776 11.2715 49.3776C10.7863 49.3776 10.3926 49.7713 10.3926 50.2565V53.729C10.3926 57.1858 13.2033 59.9982 16.6583 59.9982H43.3584C46.8134 59.9982 49.6241 57.1858 49.6241 53.729V41.3418C49.6241 40.8566 49.2304 40.4629 48.7452 40.4629ZM45.2308 19.9862C45.716 19.9862 46.1097 19.5925 46.1097 19.1073V6.12333C46.1097 4.58788 44.8617 3.33984 43.3271 3.33984H40.5463C40.1648 3.33984 39.8264 3.58594 39.7095 3.94892L39.0205 6.08553C38.8491 6.61639 38.3604 6.97235 37.8032 6.97235H22.2088C21.6516 6.97235 21.163 6.61551 20.9916 6.08553L20.3025 3.94892C20.1856 3.58594 19.8472 3.33984 19.4658 3.33984H16.6849C15.1504 3.33984 13.9023 4.58876 13.9023 6.12333V8.82068C13.9023 9.30583 14.2961 9.69958 14.7812 9.69958C15.2664 9.69958 15.6601 9.30583 15.6601 8.82068V6.12333C15.6601 5.55731 16.1198 5.09765 16.6849 5.09765H18.8251L19.3173 6.62518C19.7233 7.88465 20.8843 8.73103 22.2071 8.73103H37.8014C39.1242 8.73103 40.2852 7.88465 40.6913 6.62518L41.1835 5.09765H43.3236C43.8887 5.09765 44.3484 5.55819 44.3484 6.12333V19.1073C44.3484 19.5925 44.7421 19.9862 45.2273 19.9862H45.2308ZM13.9053 28.3359C13.9053 27.8508 14.299 27.457 14.7842 27.457C15.2693 27.457 15.6631 27.8508 15.6631 28.3359V53.8759C15.6631 54.4411 16.1227 54.9016 16.6879 54.9016H43.3283C43.8934 54.9016 44.3531 54.442 44.3531 53.8759V47.9108C44.3531 47.4257 44.7468 47.0319 45.232 47.0319C45.7171 47.0319 46.1109 47.4257 46.1109 47.9108V53.8759C46.1109 55.4105 44.8628 56.6594 43.3283 56.6594H16.6879C15.1533 56.6594 13.9053 55.4114 13.9053 53.8759V28.3359ZM34.7715 5.27148C35.2567 5.27148 35.6504 4.87773 35.6504 4.39257C35.6504 3.90742 35.2567 3.51367 34.7715 3.51367H25.2451C24.76 3.51367 24.3662 3.90742 24.3662 4.39257C24.3662 4.87773 24.76 5.27148 25.2451 5.27148H34.7715ZM25.2451 50.8262H34.7715C35.2567 50.8262 35.6504 51.2199 35.6504 51.7051C35.6504 52.1902 35.2567 52.584 34.7715 52.584H25.2451C24.76 52.584 24.3662 52.1902 24.3662 51.7051C24.3662 51.2199 24.76 50.8262 25.2451 50.8262ZM20.1409 23.0069V14.1458C20.1409 12.664 18.9359 11.459 17.455 11.459H8.62994C8.14478 11.459 7.75104 11.8527 7.75104 12.3379C7.75104 12.823 8.14478 13.2168 8.62994 13.2168H17.455C17.9665 13.2168 18.3831 13.6334 18.3831 14.1458V23.0069C18.3831 23.5193 17.9665 23.9359 17.455 23.9359H5.75241C5.55993 23.9359 5.37361 23.9992 5.22068 24.1152L1.7578 26.7475V14.1458C1.7578 13.6334 2.1744 13.2168 2.68592 13.2168H4.58787C5.07302 13.2168 5.46677 12.823 5.46677 12.3379C5.46677 11.8527 5.07302 11.459 4.58787 11.459H2.68592C1.20497 11.459 0 12.664 0 14.1458V28.5202C0 28.8542 0.188964 29.1592 0.488669 29.3077C0.612595 29.3693 0.746188 29.3991 0.878902 29.3991C1.06787 29.3991 1.25507 29.3385 1.41064 29.2198L6.0486 25.6946H17.4559C18.9368 25.6946 20.1418 24.4896 20.1418 23.0078L20.1409 23.0069ZM14.7548 15.6387C15.24 15.6387 15.6337 16.0324 15.6337 16.5176H15.6329C15.6329 17.0027 15.2391 17.3965 14.754 17.3965H5.38574C4.90058 17.3965 4.50684 17.0027 4.50684 16.5176C4.50684 16.0324 4.90058 15.6387 5.38574 15.6387H14.7548ZM5.38574 19.623C4.90058 19.623 4.50684 20.0168 4.50684 20.5019C4.50684 20.9871 4.90058 21.3808 5.38574 21.3808H13.5833C14.0684 21.3808 14.4622 20.9871 14.4622 20.5019C14.4622 20.0168 14.0684 19.623 13.5833 19.623H5.38574ZM52.4119 21.5818C53.5369 22.7068 53.5369 24.5385 52.4119 25.6635L52.4092 25.6617L51.5444 26.5274C52.1201 27.7113 52.4242 29.0191 52.4242 30.3744C52.4242 32.7289 51.5084 34.9411 49.8446 36.604L45.6188 40.8307L44.275 44.8015C44.0324 45.517 43.4488 46.0469 42.7132 46.2183C42.5471 46.257 42.3801 46.2763 42.2148 46.2763C41.6471 46.2763 41.1004 46.0531 40.6873 45.64L37.3642 42.316C36.7076 42.7388 35.9439 42.9664 35.1441 42.9664C34.0446 42.9664 33.0119 42.5384 32.2349 41.7614C30.8445 40.3701 30.6608 38.2238 31.6812 36.6313L28.3581 33.3073C27.8237 32.7729 27.6075 32.0144 27.7798 31.2788C27.952 30.544 28.482 29.9604 29.1966 29.7187L33.1665 28.374L37.3923 24.1473C39.0561 22.4836 41.2674 21.5669 43.6193 21.5669C44.9746 21.5669 46.2824 21.871 47.4654 22.4467L48.3302 21.5818C48.876 21.0369 49.6003 20.7363 50.3711 20.7363C51.1419 20.7363 51.867 21.0369 52.4119 21.5818ZM50.3711 22.4941C50.0705 22.4941 49.7866 22.6119 49.5739 22.8246L49.573 22.8255L48.9982 23.4003C49.2944 23.6297 49.5774 23.8784 49.8464 24.1473C50.1153 24.4163 50.364 24.6993 50.5934 24.9955L51.1682 24.4207C51.6086 23.9804 51.6086 23.2649 51.1682 22.8246C50.9555 22.611 50.6716 22.4941 50.3711 22.4941ZM33.4803 40.5195C33.925 40.9643 34.5165 41.2095 35.1458 41.2095C35.4693 41.2095 35.783 41.1444 36.0713 41.0214L32.9793 37.9285C32.6146 38.7872 32.7816 39.8199 33.4803 40.5195ZM44.8551 39.1115L48.6036 35.3621H48.6018C49.9334 34.0315 50.6664 32.2596 50.6664 30.3761C50.6664 28.4926 49.9334 26.7217 48.6018 25.3901C47.2712 24.0577 45.5011 23.3247 43.6185 23.3247C41.7358 23.3247 39.9666 24.0586 38.6351 25.3901L34.8857 29.1404L37.0645 31.3201C37.4081 31.6628 37.4081 32.2192 37.0645 32.5628C36.8931 32.7342 36.6681 32.8204 36.4431 32.8204C36.2181 32.8204 35.9931 32.7342 35.8217 32.5628L33.4074 30.1485L29.7599 31.3842C29.5718 31.4475 29.5112 31.5969 29.4919 31.6795C29.4725 31.7622 29.4602 31.923 29.6017 32.0645L41.9318 44.3981C42.0716 44.5379 42.2324 44.5264 42.315 44.5071C42.3985 44.4878 42.548 44.4271 42.6121 44.2382L43.847 40.5898L38.7107 35.4518C38.367 35.109 38.367 34.5518 38.7107 34.209C39.0543 33.8654 39.6107 33.8654 39.9534 34.209L44.8551 39.1115ZM36.7081 17.9023C35.2544 17.9023 34.0723 19.0853 34.0723 20.539C34.0723 21.0242 34.466 21.418 34.9512 21.418C35.4363 21.418 35.8301 21.0242 35.8301 20.539C35.8301 20.0539 36.2238 19.6601 36.7081 19.6601C37.1924 19.6601 37.587 19.2664 37.587 18.7812C37.587 18.2961 37.1932 17.9023 36.7081 17.9023ZM30.3691 20.5377C30.3691 17.0414 33.2124 14.1973 36.7078 14.1973C37.1929 14.1973 37.5867 14.591 37.5867 15.0762C37.5867 15.5613 37.1929 15.9551 36.7078 15.9551C34.1818 15.9551 32.1269 18.0108 32.1269 20.5377C32.1269 21.0228 31.7332 21.4166 31.248 21.4166C30.7629 21.4166 30.3691 21.0228 30.3691 20.5377ZM52.7812 39.2539C52.7812 39.739 53.175 40.1328 53.6602 40.1328C55.1139 40.1328 56.296 38.9498 56.296 37.4961C56.296 37.0109 55.9022 36.6172 55.4171 36.6172C54.9319 36.6172 54.5382 37.0109 54.5382 37.4961C54.5382 37.9812 54.1444 38.375 53.6602 38.375C53.1759 38.375 52.7812 38.7687 52.7812 39.2539ZM58.2419 37.4961C58.2419 37.0109 58.6356 36.6172 59.1208 36.6172C59.6059 36.6172 59.9997 37.0109 59.9997 37.4961C59.9997 40.9932 57.1555 43.8374 53.6602 43.8374C53.175 43.8374 52.7812 43.4436 52.7812 42.9585C52.7812 42.4733 53.175 42.0796 53.6602 42.0796C56.187 42.0796 58.2419 40.0229 58.2419 37.4961ZM20.0332 43.2891H23.8002C24.2853 43.2891 24.6791 42.8953 24.6791 42.4102C24.6791 41.925 24.2853 41.5312 23.8002 41.5312H20.0332C19.548 41.5312 19.1543 41.925 19.1543 42.4102C19.1543 42.8953 19.548 43.2891 20.0332 43.2891ZM20.0332 45.6328H26.1398C26.625 45.6328 27.0187 46.0266 27.0187 46.5117C27.0187 46.9969 26.625 47.3906 26.1398 47.3906H20.0332C19.548 47.3906 19.1543 46.9969 19.1543 46.5117C19.1543 46.0266 19.548 45.6328 20.0332 45.6328Z" fill="url(#paint0_linear_502_4619)"/>
</g>
<defs>
<linearGradient id="paint0_linear_502_4619" x1="-2.23516e-07" y1="29.9991" x2="59.9997" y2="29.9991" gradientUnits="userSpaceOnUse">
<stop stop-color="#223962"/>
<stop offset="0.526042" stop-color="#3277BC"/>
<stop offset="0.973958" stop-color="#48ABDF"/>
</linearGradient>
<clipPath id="clip0_502_4619">
<rect width="60" height="60" fill="white"/>
</clipPath>
</defs>
</svg>
