<svg width="50" height="60" viewBox="0 0 50 60" fill="none" xmlns="http://www.w3.org/2000/svg">
<g clip-path="url(#clip0_390_5223)">
<path d="M46.7893 58.2421H46.0932V42.3453C46.0932 41.8601 45.6994 41.4664 45.2142 41.4664C44.7291 41.4664 44.3353 41.8601 44.3353 42.3453V58.2421H37.541V20.3653H44.3353V38.2432C44.3353 38.7284 44.7291 39.1222 45.2142 39.1222C45.6994 39.1222 46.0932 38.7284 46.0932 38.2432V20.1113C46.0932 19.2816 45.4182 18.6074 44.5893 18.6074H37.2878C36.4581 18.6074 35.784 19.2825 35.784 20.1113V29.0468H28.7365C27.9068 29.0468 27.2326 29.7218 27.2326 30.5506V37.3986H20.1852C19.3554 37.3986 18.6813 38.0736 18.6813 38.9025V43.662H11.6338C10.8041 43.662 10.1299 44.337 10.1299 45.1659V47.8379H3.07897C2.24924 47.8379 1.57508 48.5129 1.57508 49.3418V58.2403H0.878953C0.393771 58.2403 0 58.6341 0 59.1193C0 59.6044 0.393771 59.9982 0.878953 59.9982H36.6603C36.6603 59.9982 36.6611 59.9982 36.662 59.9982H45.2142C45.2142 59.9982 45.2151 59.9982 45.216 59.9982H46.7893C47.2745 59.9982 47.6683 59.6044 47.6683 59.1193C47.6683 58.6341 47.2745 58.2403 46.7893 58.2403V58.2421ZM27.2309 39.1582V58.2421H20.4365V45.1676V39.1582H27.2309ZM18.6786 45.4225V58.2429H11.8843V49.3444V45.4234H18.6786V45.4225ZM3.33299 49.5984H10.1273V58.2429H3.33299V49.5984ZM28.9888 38.9042V30.8064H35.7831V58.2429H28.9888V38.9051V38.9042Z" fill="url(#paint0_linear_390_5223)"/>
<path d="M40.7632 11.8696C40.8326 11.9205 40.9188 11.946 41.0199 11.946C41.1086 11.946 41.1913 11.9188 41.2668 11.8652C41.3433 11.8115 41.3811 11.7527 41.3811 11.6894V11.4134C41.9515 11.3185 42.406 11.0934 42.7452 10.7383C43.0845 10.3832 43.2542 9.91828 43.2542 9.34081C43.2542 9.09382 43.2146 8.86881 43.1355 8.66577C43.0564 8.46273 42.9615 8.29485 42.8507 8.16213C42.74 8.02941 42.5923 7.90196 42.4086 7.78154C42.2249 7.66113 42.0605 7.56972 41.9146 7.50555C41.7687 7.44227 41.5912 7.36931 41.3829 7.28669V5.89882C41.6105 5.91816 41.8311 5.98145 42.043 6.08868C42.2557 6.19679 42.406 6.25041 42.4947 6.25041C42.6784 6.25041 42.8226 6.15987 42.9272 5.97969C43.0318 5.7995 43.0836 5.62547 43.0836 5.45759C43.0836 5.30114 43.0248 5.16402 42.9078 5.04624C42.7909 4.92846 42.6371 4.84056 42.4473 4.78167C42.2574 4.72279 42.0764 4.6806 41.9058 4.65423C41.7353 4.62786 41.5604 4.61204 41.3829 4.60501V4.38527C41.3829 4.32638 41.3451 4.27276 41.2686 4.22266C41.1921 4.17344 41.1104 4.14795 41.0216 4.14795C40.9205 4.14795 40.8344 4.17168 40.765 4.21827C40.6955 4.26573 40.6604 4.3211 40.6604 4.38527V4.63225C40.1093 4.7096 39.654 4.91352 39.2962 5.24313C38.9385 5.57273 38.7592 6.02451 38.7592 6.60023C38.7592 6.83491 38.8005 7.0485 38.8831 7.24187C38.9657 7.43524 39.0607 7.59345 39.1679 7.71738C39.2751 7.84131 39.4281 7.96173 39.6241 8.07863C39.8201 8.19553 39.9853 8.28255 40.118 8.33968C40.2508 8.39681 40.4318 8.46976 40.6595 8.55854V10.0985C40.4125 10.0545 40.1427 9.92883 39.8517 9.72315C39.5599 9.51748 39.3542 9.41464 39.2338 9.41464C39.0624 9.41464 38.9121 9.50341 38.782 9.68096C38.652 9.85851 38.5869 10.0361 38.5869 10.2136C38.5869 10.5239 38.7917 10.8025 39.1995 11.0504C39.6083 11.2974 40.0943 11.431 40.6586 11.4494V11.6867C40.6586 11.7562 40.6938 11.8168 40.7632 11.8669V11.8696ZM41.2862 8.81871C41.6729 9.00241 41.8663 9.22742 41.8663 9.49374C41.8663 9.80402 41.6729 10.0035 41.2862 10.0923V8.81871ZM40.1453 6.46136C40.1453 6.18888 40.3483 6.01133 40.7535 5.92871V7.05992C40.3483 6.88853 40.1453 6.689 40.1453 6.46136Z" fill="url(#paint1_linear_390_5223)"/>
<path d="M23.2923 7.62126H25.5794V14.5834C25.5794 15.0686 25.9732 15.4624 26.4583 15.4624C26.9435 15.4624 27.3373 15.0686 27.3373 14.5834V7.62126H29.6234C30.0471 7.62126 30.4303 7.38746 30.6246 7.01126C30.8188 6.63507 30.7872 6.18681 30.542 5.84138L27.376 1.38684C27.165 1.08976 26.8213 0.913086 26.4575 0.913086C26.0936 0.913086 25.7499 1.08976 25.5389 1.38684L22.373 5.84138C22.1277 6.18681 22.0961 6.63507 22.2903 7.01126C22.4846 7.38746 22.8687 7.62126 23.2915 7.62126H23.2923ZM26.4583 3.12893L28.4017 5.86335H24.515L26.4583 3.12893Z" fill="url(#paint2_linear_390_5223)"/>
<path d="M38.6406 16.047C39.1064 16.1832 39.5943 15.9151 39.7305 15.4493C39.8667 14.9834 39.5987 14.4956 39.1328 14.3594C36.4098 13.5648 34.5078 11.0264 34.5078 8.18823C34.5078 4.64254 37.3925 1.75781 40.9382 1.75781C44.4839 1.75781 47.3686 4.64254 47.3686 8.18823C47.3686 11.0273 45.4666 13.5648 42.7436 14.3594C42.2777 14.4956 42.0105 14.9834 42.1459 15.4493C42.2575 15.8334 42.6082 16.0821 42.9888 16.0821C43.0705 16.0821 43.1531 16.0707 43.2358 16.047C44.9014 15.5609 46.4009 14.529 47.4574 13.142C48.5499 11.7076 49.1274 9.99448 49.1274 8.18735C49.1274 3.67217 45.4542 -0.000976562 40.9391 -0.000976562C36.4239 -0.000976562 32.7507 3.67217 32.7507 8.18735C32.7507 9.99448 33.3282 11.7076 34.4199 13.142C35.4764 14.529 36.975 15.5609 38.6415 16.047H38.6406Z" fill="url(#paint3_linear_390_5223)"/>
</g>
<defs>
<linearGradient id="paint0_linear_390_5223" x1="-1.77578e-07" y1="39.3028" x2="47.6683" y2="39.3028" gradientUnits="userSpaceOnUse">
<stop stop-color="#223962"/>
<stop offset="0.526042" stop-color="#3277BC"/>
<stop offset="0.973958" stop-color="#48ABDF"/>
</linearGradient>
<linearGradient id="paint1_linear_390_5223" x1="38.5869" y1="8.04699" x2="43.2542" y2="8.04699" gradientUnits="userSpaceOnUse">
<stop stop-color="#223962"/>
<stop offset="0.526042" stop-color="#3277BC"/>
<stop offset="0.973958" stop-color="#48ABDF"/>
</linearGradient>
<linearGradient id="paint2_linear_390_5223" x1="22.1641" y1="8.18775" x2="30.7508" y2="8.18775" gradientUnits="userSpaceOnUse">
<stop stop-color="#223962"/>
<stop offset="0.526042" stop-color="#3277BC"/>
<stop offset="0.973958" stop-color="#48ABDF"/>
</linearGradient>
<linearGradient id="paint3_linear_390_5223" x1="32.7507" y1="8.04074" x2="49.1274" y2="8.04074" gradientUnits="userSpaceOnUse">
<stop stop-color="#223962"/>
<stop offset="0.526042" stop-color="#3277BC"/>
<stop offset="0.973958" stop-color="#48ABDF"/>
</linearGradient>
<clipPath id="clip0_390_5223">
<rect width="49.1256" height="60" fill="white"/>
</clipPath>
</defs>
</svg>
