<svg width="54" height="60" viewBox="0 0 54 60" fill="none" xmlns="http://www.w3.org/2000/svg">
<g clip-path="url(#clip0_343_4755)">
<path d="M40.9762 21.7152C40.8154 21.4366 40.6009 21.1922 40.3478 20.9962C40.3461 20.9945 40.3443 20.9927 40.3417 20.9918C40.3083 20.9663 40.2731 20.9417 40.238 20.9171C40.2283 20.9101 40.2186 20.9031 40.2081 20.896C40.1624 20.8653 40.1167 20.8371 40.0692 20.8099L27.863 13.7629C27.6784 13.6565 27.4842 13.5765 27.2829 13.5212C26.7872 13.3849 26.2581 13.406 25.7721 13.5836C25.6403 13.6319 25.5111 13.6908 25.3871 13.762L18.7892 17.5711L17.5825 18.2681L13.181 20.809C13.1581 20.8222 13.1361 20.8371 13.1133 20.8512C13.0895 20.8661 13.0658 20.8802 13.0421 20.8952C13.0289 20.9039 13.0175 20.9136 13.0043 20.9224C12.9718 20.9452 12.9393 20.9672 12.9085 20.9918C12.9059 20.9936 12.9032 20.9962 12.9006 20.9989C12.6483 21.1949 12.4348 21.4383 12.2748 21.716C12.2748 21.716 12.2748 21.716 12.2748 21.7169C12.0867 22.0439 11.9751 22.4095 11.9496 22.7848C11.9496 22.7865 11.9496 22.7883 11.9496 22.7892C11.9461 22.8437 11.9443 22.899 11.9443 22.9535V37.0476C11.9443 37.5987 12.1298 38.126 12.455 38.5523C12.6501 38.8081 12.8962 39.0269 13.1818 39.1921L19.9195 43.0822L25.388 46.2392C25.4355 46.2664 25.4838 46.2928 25.533 46.3165C25.5357 46.3183 25.5392 46.3191 25.5418 46.32C25.8784 46.4844 26.2502 46.5705 26.6255 46.5705C26.6449 46.5705 26.6633 46.5688 26.6826 46.5679C27.0913 46.5582 27.4991 46.4501 27.8639 46.2392L40.0701 39.1921C40.8338 38.7509 41.3076 37.93 41.3076 37.0485V33.2068C41.3076 32.7217 40.9138 32.3279 40.4287 32.3279C39.9435 32.3279 39.5498 32.7217 39.5498 33.2068V37.0485C39.5498 37.3043 39.4127 37.5424 39.1912 37.6699L27.5053 44.4172V30.4699C27.6292 30.4233 27.7505 30.3671 27.8674 30.2994L30.9286 28.5319V32.8983C30.9286 33.3597 31.1773 33.7904 31.5764 34.0207C31.7759 34.1358 32 34.1938 32.2241 34.1938C32.4482 34.1938 32.6724 34.1358 32.8719 34.0207L35.6764 32.4017C36.1915 32.1047 36.5114 31.5501 36.5114 30.9551V25.3081L39.5498 23.5538V29.1041C39.5498 29.5893 39.9435 29.983 40.4287 29.983C40.9138 29.983 41.3076 29.5893 41.3076 29.1041V22.9535C41.3076 22.5317 41.1977 22.1247 41.0008 21.7653C40.9929 21.7486 40.985 21.7327 40.9762 21.716V21.7152ZM21.846 17.8366L33.8756 24.7992L32.8481 25.3925L31.8084 25.9928L19.7789 19.0301L20.6182 18.545L21.8452 17.8366H21.846ZM25.548 30.3838C25.5664 30.3926 25.5849 30.4005 25.6034 30.4084C25.6411 30.4251 25.6789 30.4418 25.7167 30.4567C25.7264 30.4602 25.7361 30.4655 25.7466 30.469V44.4146L14.0607 37.6672C13.95 37.6031 13.8603 37.5117 13.7988 37.4044C13.7364 37.2972 13.7021 37.1733 13.7021 37.0459V23.5521L25.3845 30.2968C25.3845 30.2968 25.3863 30.2968 25.3871 30.2976C25.4399 30.3284 25.4935 30.3556 25.548 30.382V30.3838ZM26.9876 28.7754C26.7978 28.8852 26.5693 28.9002 26.368 28.8237C26.3618 28.8211 26.3548 28.8202 26.3487 28.8176C26.3197 28.8053 26.2907 28.7912 26.2625 28.7754L14.5802 22.0307L17.1439 20.5506L18.0219 20.0435L30.0515 27.0062L26.9876 28.7754ZM34.7527 30.9032L32.6847 32.0968V27.515L33.1136 27.2672L34.7527 26.3206V30.9023V30.9032ZM35.6307 23.785L23.6012 16.8223L26.266 15.2842C26.4875 15.1568 26.7626 15.1568 26.9832 15.2842L38.213 21.7679L38.6691 22.0316L35.6307 23.7859V23.785Z" fill="url(#paint0_linear_343_4755)"/>
<path d="M50.848 38.4361C50.3681 38.1593 49.8539 37.9703 49.3248 37.871V22.1272C49.8539 22.0288 50.3681 21.8398 50.848 21.563C51.9598 20.9214 52.7543 19.8852 53.0865 18.6459C53.4188 17.4067 53.2483 16.1112 52.6067 15.0002C51.9651 13.8884 50.9288 13.0939 49.6896 12.7617C48.4503 12.4294 47.1548 12.5999 46.0439 13.2415C45.564 13.5184 45.143 13.87 44.7932 14.2786L31.1562 6.40544C31.3337 5.90446 31.4313 5.3657 31.4313 4.80496C31.4313 2.15595 29.2762 0 26.6263 0C23.9764 0 21.8214 2.15507 21.8214 4.80496C21.8214 5.3657 21.9189 5.90446 22.0965 6.40544L8.45942 14.2786C8.10961 13.87 7.68862 13.5184 7.20874 13.2415C4.9148 11.917 1.97048 12.7063 0.645099 15.0002C0.00437896 16.1112 -0.166128 17.4058 0.166097 18.6459C0.498322 19.8852 1.29373 20.9214 2.40466 21.563C2.88454 21.8398 3.3987 22.0288 3.9278 22.1272V37.871C3.3987 37.9694 2.88454 38.1584 2.40466 38.4361C1.29285 39.0777 0.498322 40.114 0.166097 41.3532C-0.166128 42.5925 0.00437891 43.888 0.645977 44.9989C1.53455 46.5387 3.15348 47.4001 4.81461 47.4001C5.62935 47.4001 6.45464 47.1926 7.20874 46.7576C7.68862 46.4807 8.10961 46.1292 8.45942 45.7205L22.0965 53.5937C21.9189 54.0947 21.8214 54.6334 21.8214 55.1942C21.8214 57.8432 23.9764 59.9991 26.6263 59.9991C29.2762 59.9991 31.4313 57.8441 31.4313 55.1942C31.4313 54.6334 31.3337 54.0947 31.1562 53.5937L44.795 45.7187C45.1184 46.0958 45.5016 46.4254 45.9358 46.6917C46.3498 46.9448 46.8912 46.8147 47.1443 46.4007C47.3974 45.9868 47.2673 45.4454 46.8534 45.1923C46.4245 44.9295 46.0843 44.5814 45.84 44.1833C45.8295 44.1613 45.8189 44.1402 45.8075 44.1191C45.7943 44.0963 45.7794 44.0743 45.7644 44.0523C45.2722 43.1532 45.2538 42.0317 45.8075 41.0728C46.2144 40.368 46.8718 39.8635 47.6576 39.6534C47.9116 39.5857 48.1682 39.5515 48.424 39.5488C48.431 39.5488 48.4389 39.5497 48.4459 39.5497C48.4512 39.5497 48.4565 39.5497 48.4618 39.5497C48.9856 39.5515 49.5033 39.6895 49.9691 39.9584C50.674 40.3653 51.1785 41.0227 51.3885 41.8085C51.5994 42.5942 51.4913 43.416 51.0844 44.12C50.8304 44.5603 50.4683 44.9321 50.0385 45.1949C49.6246 45.448 49.4936 45.9894 49.7467 46.4034C49.912 46.6741 50.2011 46.8244 50.4973 46.8244C50.6537 46.8244 50.812 46.7831 50.9552 46.6952C51.6355 46.2795 52.2068 45.6932 52.6067 44.9998C53.2483 43.888 53.4188 42.5933 53.0865 41.3541C52.7543 40.1148 51.9589 39.0786 50.848 38.437V38.4361ZM46.9219 14.7629C47.3913 14.4922 47.9125 14.3533 48.4407 14.3533C48.7052 14.3533 48.9715 14.3885 49.2343 14.4588C50.0201 14.6698 50.6775 15.1734 51.0844 15.8782C51.4913 16.5831 51.5994 17.404 51.3885 18.1906C51.1776 18.9764 50.674 19.6338 49.9691 20.0407C49.5033 20.3097 48.9865 20.4468 48.4635 20.4494C48.4574 20.4494 48.4521 20.4485 48.4459 20.4485C48.438 20.4485 48.4301 20.4494 48.4222 20.4494C48.1673 20.4468 47.9107 20.4125 47.6576 20.3448C46.871 20.1339 46.2144 19.6303 45.8075 18.9254C45.4005 18.2205 45.2924 17.3996 45.5034 16.613C45.5719 16.3581 45.6713 16.1173 45.7987 15.8932C45.8022 15.8879 45.8057 15.8835 45.8084 15.8782C45.8119 15.873 45.8136 15.8677 45.8171 15.8615C46.0808 15.4098 46.4579 15.031 46.9237 14.762L46.9219 14.7629ZM26.6263 1.7578C28.3059 1.7578 29.6735 3.1245 29.6735 4.80496C29.6735 6.48542 28.3068 7.85211 26.6263 7.85211C24.9459 7.85211 23.5792 6.48542 23.5792 4.80496C23.5792 3.1245 24.9459 1.7578 26.6263 1.7578ZM1.86326 18.1906C1.65232 17.4049 1.76043 16.5831 2.16736 15.8782C2.57429 15.1734 3.23171 14.6689 4.01745 14.4588C4.28024 14.3885 4.54654 14.3533 4.81109 14.3533C5.33931 14.3533 5.8605 14.4922 6.32984 14.7629C6.79565 15.0319 7.17358 15.4107 7.43725 15.8633C7.43989 15.8686 7.44253 15.8738 7.44516 15.8782C7.4478 15.8835 7.45132 15.887 7.45483 15.8923C7.58227 16.1164 7.68159 16.3581 7.75014 16.613C7.96108 17.3987 7.85297 18.2205 7.44604 18.9254C7.03911 19.6303 6.38169 20.1339 5.59595 20.3448C5.34195 20.4125 5.08531 20.4468 4.82955 20.4494C4.82252 20.4494 4.81461 20.4485 4.80758 20.4485C4.8023 20.4485 4.79703 20.4485 4.79176 20.4485C4.26793 20.4468 3.75026 20.3088 3.28444 20.0398C2.57956 19.6329 2.07507 18.9764 1.86501 18.1898L1.86326 18.1906ZM6.32984 45.2362C4.87525 46.0764 3.00759 45.5755 2.16736 44.1209C1.76043 43.416 1.65232 42.5951 1.86326 41.8085C2.07419 41.0227 2.5778 40.3653 3.28268 39.9584C3.74674 39.6903 4.2609 39.5523 4.78209 39.5497C4.79 39.5497 4.79791 39.5506 4.80582 39.5506C4.81285 39.5506 4.819 39.5506 4.82516 39.5497C5.0818 39.5515 5.33931 39.5857 5.5942 39.6543C6.37993 39.8652 7.03735 40.3688 7.44428 41.0737C7.85122 41.7786 7.95932 42.5995 7.74838 43.3861C7.68071 43.6392 7.58227 43.8783 7.45659 44.1007C7.45219 44.1077 7.4478 44.1138 7.44341 44.1209C7.44077 44.1262 7.43813 44.1314 7.4355 44.1358C7.17182 44.5885 6.79478 44.9673 6.32896 45.2362H6.32984ZM26.6263 58.2422C24.9459 58.2422 23.5792 56.8755 23.5792 55.195C23.5792 53.5146 24.9459 52.1479 26.6263 52.1479C28.3068 52.1479 29.6735 53.5146 29.6735 55.195C29.6735 56.8755 28.3068 58.2422 26.6263 58.2422ZM44.2852 40.1957C43.6542 41.2882 43.4793 42.5626 43.7913 43.7843C43.8273 43.9249 43.8695 44.0629 43.917 44.1982L30.2746 52.0741C29.3931 51.0449 28.0853 50.391 26.6263 50.391C25.1673 50.391 23.8595 51.0449 22.978 52.0741L9.33568 44.1982C9.37699 44.0813 9.41478 43.9627 9.4473 43.8414C9.77953 42.6021 9.60902 41.3066 8.96742 40.1957C8.32582 39.0839 7.2896 38.2894 6.05035 37.9571C5.92906 37.9246 5.80777 37.8983 5.6856 37.8754V22.1264C5.80777 22.1035 5.92906 22.0763 6.05035 22.0437C7.2896 21.7115 8.32582 20.917 8.96742 19.8052C9.60902 18.6934 9.77953 17.3987 9.4473 16.1595C9.41478 16.0382 9.37699 15.9196 9.33568 15.8027L22.978 7.92682C23.8595 8.95601 25.1673 9.60991 26.6263 9.60991C28.0853 9.60991 29.3931 8.95601 30.2746 7.92682L43.917 15.8027C43.8756 15.9196 43.8379 16.0382 43.8053 16.1595C43.4731 17.3987 43.6436 18.6942 44.2852 19.8052C44.9268 20.9161 45.963 21.7115 47.2023 22.0437C47.3236 22.0763 47.4449 22.1035 47.567 22.1264V37.8754C47.4449 37.8983 47.3236 37.9246 47.2023 37.9571C45.963 38.2894 44.9268 39.0848 44.2852 40.1957Z" fill="url(#paint1_linear_343_4755)"/>
</g>
<defs>
<linearGradient id="paint0_linear_343_4755" x1="11.9443" y1="30.0016" x2="41.3076" y2="30.0016" gradientUnits="userSpaceOnUse">
<stop stop-color="#223962"/>
<stop offset="0.526042" stop-color="#3277BC"/>
<stop offset="0.973958" stop-color="#48ABDF"/>
</linearGradient>
<linearGradient id="paint1_linear_343_4755" x1="0.000243942" y1="29.9996" x2="53.2524" y2="29.9996" gradientUnits="userSpaceOnUse">
<stop stop-color="#223962"/>
<stop offset="0.526042" stop-color="#3277BC"/>
<stop offset="0.973958" stop-color="#48ABDF"/>
</linearGradient>
<clipPath id="clip0_343_4755">
<rect width="53.2527" height="60" fill="white"/>
</clipPath>
</defs>
</svg>
