<svg width="44" height="60" viewBox="0 0 44 60" fill="none" xmlns="http://www.w3.org/2000/svg">
<path fill-rule="evenodd" clip-rule="evenodd" d="M11.6377 14.8684L11.0119 14.8215L11.0107 14.8238C10.1037 14.7559 9.39355 13.9918 9.39355 13.0824V11.2191C9.39355 10.3156 10.099 9.55039 11.0002 9.47891L11.6377 9.42852C11.8639 8.60586 12.192 7.81719 12.6197 7.0707L12.2072 6.59258C11.6131 5.90469 11.6518 4.86172 12.2951 4.21836L13.6123 2.90117C14.2521 2.26133 15.2916 2.22031 15.9795 2.80625L16.4705 3.22461C17.217 2.79805 18.0068 2.46992 18.8283 2.24492L18.8752 1.61914C18.942 0.712109 19.7072 0.00195312 20.6166 0.00195312H22.4799C23.3834 0.00195312 24.1486 0.707422 24.2201 1.60859L24.2705 2.24609C25.0932 2.47227 25.8818 2.80039 26.6283 3.22812L27.1064 2.81562C27.7943 2.22148 28.8373 2.26016 29.4807 2.90352L30.7979 4.2207C31.4377 4.86055 31.4787 5.9 30.8928 6.58789L30.4744 7.07891C30.901 7.82539 31.2291 8.61523 31.4541 9.43672L32.0799 9.48359C32.9869 9.55156 33.6971 10.3156 33.6971 11.225V13.0871C33.6971 13.9906 32.9916 14.7559 32.0904 14.8273L31.4529 14.8777C31.2268 15.7004 30.8986 16.4891 30.4709 17.2355L30.8834 17.7137C31.4775 18.4016 31.4389 19.4445 30.7955 20.0879L29.4783 21.4051C28.8385 22.0437 27.799 22.0848 27.1111 21.4988L26.6201 21.0805C25.8736 21.507 25.0838 21.8352 24.2623 22.0602L24.2154 22.6859C24.1486 23.593 23.3834 24.3031 22.474 24.3031H20.6107C19.7072 24.3031 18.942 23.5977 18.8705 22.6965L18.8201 22.059C17.9975 21.8328 17.2088 21.5047 16.4623 21.077L15.9842 21.4895C15.2963 22.0824 14.2521 22.0437 13.61 21.4016L12.2928 20.0844C11.6541 19.4445 11.6131 18.4051 12.199 17.7172L12.6174 17.2262C12.1908 16.4797 11.8627 15.6898 11.6377 14.8684ZM13.2057 10.4281C13.1271 10.8113 12.8049 11.0961 12.4146 11.1277H12.4135L11.1514 11.2285V13.0695L12.4064 13.1621C12.7979 13.1914 13.1236 13.4773 13.2021 13.8629C13.4166 14.9164 13.8314 15.9137 14.4326 16.8266C14.6482 17.1523 14.6213 17.5824 14.3682 17.8801L13.5432 18.848L14.8451 20.15L15.8025 19.325C16.1002 19.0684 16.5326 19.0402 16.8607 19.257C17.7725 19.8594 18.7697 20.2742 19.8232 20.491C20.2064 20.5695 20.4912 20.8918 20.5229 21.282L20.6236 22.5441H22.4646L22.5572 21.2891C22.5865 20.8977 22.8725 20.5719 23.258 20.4934C24.3115 20.2789 25.3088 19.8641 26.2217 19.2629C26.5475 19.0473 26.9775 19.0742 27.2752 19.3273L28.2432 20.1523L29.5451 18.8504L28.7201 17.893C28.4635 17.5953 28.4354 17.1629 28.6521 16.8348C29.2545 15.923 29.6693 14.9258 29.8861 13.8723C29.9646 13.4891 30.2869 13.2043 30.6771 13.1727L31.9393 13.0719V11.2309L30.6842 11.1383C30.2928 11.109 29.967 10.823 29.8885 10.4375C29.6729 9.38398 29.2592 8.38672 28.658 7.47383C28.4424 7.14687 28.4693 6.71797 28.7225 6.42031L29.5475 5.45234L28.2455 4.15039L27.2893 4.97539C26.9916 5.23203 26.5592 5.26016 26.2311 5.04336C25.3193 4.44102 24.3221 4.02617 23.2686 3.80937C22.8854 3.73086 22.6006 3.40859 22.5689 3.01836L22.4682 1.75625H20.6271L20.5346 3.01133C20.5053 3.40273 20.2193 3.72852 19.8338 3.80703C18.7803 4.02148 17.783 4.43633 16.8701 5.0375C16.5432 5.25312 16.1143 5.22617 15.8166 4.97305L14.8486 4.14805L13.5467 5.45L14.3717 6.40742C14.6283 6.70508 14.6564 7.1375 14.4396 7.46562C13.8373 8.37734 13.4225 9.37461 13.2057 10.4281ZM20.5461 37.0338V43.6092H20.5449C20.5449 43.942 20.3563 44.2467 20.0586 44.3955L14.4219 47.2139C14.2988 47.276 14.1641 47.3064 14.0293 47.3064C13.8945 47.3064 13.7609 47.276 13.6367 47.2139L8 44.3955C7.70234 44.2467 7.51367 43.942 7.51367 43.6092V37.0338C7.51367 36.701 7.70234 36.3963 8 36.2475L13.6367 33.4291C13.884 33.3049 14.1758 33.3049 14.423 33.4291L20.0598 36.2475C20.3586 36.3963 20.5461 36.701 20.5461 37.0338ZM17.702 37.0326L14.0305 35.1975L10.359 37.0326L14.0305 38.8678L17.702 37.0326ZM14.0305 45.4443L18.7883 43.0654V38.4553L14.9094 40.3947V41.7072C14.9094 42.1924 14.5156 42.5861 14.0305 42.5861C13.5453 42.5861 13.1516 42.1924 13.1516 41.7072V40.3947L9.27266 38.4553V43.0654L14.0305 45.4443ZM12.5461 48.9408L6.90938 46.1225C6.66211 45.9982 6.37031 45.9982 6.12305 46.1225L0.486328 48.9408C0.188672 49.0896 0 49.3943 0 49.7271V56.3025C0 56.6354 0.1875 56.94 0.486328 57.0889L6.12305 59.9072C6.24727 59.9693 6.38203 59.9998 6.51562 59.9998C6.64922 59.9998 6.78516 59.9693 6.9082 59.9072L12.5449 57.0889C12.8426 56.94 13.0313 56.6354 13.0313 56.3025V49.7271C13.0313 49.3943 12.8438 49.0896 12.5449 48.9408H12.5461ZM5.63789 57.6982L1.75898 55.7588V51.1486L5.63789 53.0881V57.6982ZM6.5168 51.5623L2.84531 49.7271L6.5168 47.892L10.1883 49.7271L6.5168 51.5623ZM11.2746 55.76L7.3957 57.6994V53.0893L11.2746 51.1498V55.76ZM21.9396 46.1225L27.5764 48.9408H27.5752C27.874 49.0896 28.0615 49.3943 28.0615 49.7271V56.3025C28.0615 56.6354 27.8729 56.94 27.5752 57.0889L21.9385 59.9072C21.8154 59.9693 21.6795 59.9998 21.5459 59.9998C21.4123 59.9998 21.2775 59.9693 21.1533 59.9072L15.5166 57.0889C15.2178 56.94 15.0303 56.6354 15.0303 56.3025V49.7271C15.0303 49.3943 15.2189 49.0896 15.5166 48.9408L21.1533 46.1225C21.4006 45.9982 21.6924 45.9982 21.9396 46.1225ZM16.7893 55.7588L20.6682 57.6982V53.0881L16.7893 51.1486V55.7588ZM17.8756 49.7271L21.5471 51.5623L25.2186 49.7271L21.5471 47.892L17.8756 49.7271ZM22.426 57.6994L26.3049 55.76V51.1498L22.426 53.0893V57.6994ZM36.9689 46.1225L42.6057 48.9408H42.6045C42.9033 49.0896 43.0908 49.3943 43.0908 49.7271V56.3025C43.0908 56.6354 42.9021 56.94 42.6045 57.0889L36.9678 59.9072C36.8447 59.9693 36.7088 59.9998 36.5752 59.9998C36.4416 59.9998 36.3068 59.9693 36.1826 59.9072L30.5459 57.0889C30.2482 56.94 30.0596 56.6354 30.0596 56.3025V49.7271C30.0596 49.3943 30.2482 49.0896 30.5459 48.9408L36.1826 46.1225C36.4299 45.9982 36.7217 45.9982 36.9689 46.1225ZM31.8186 55.7588L35.6975 57.6982V53.0881L31.8186 51.1486V55.7588ZM32.9049 49.7271L36.5764 51.5623L40.2479 49.7271L36.5764 47.892L32.9049 49.7271ZM37.4553 57.6982L41.3342 55.7588V51.1486L37.4553 53.0881V57.6982ZM35.5764 43.6092V37.0338C35.5764 36.701 35.3889 36.3963 35.09 36.2475L29.4533 33.4291C29.2061 33.3049 28.9143 33.3049 28.667 33.4291L23.0303 36.2475C22.7326 36.3963 22.5439 36.701 22.5439 37.0338V43.6092C22.5439 43.942 22.7326 44.2467 23.0303 44.3955L28.667 47.2139C28.7912 47.276 28.926 47.3064 29.0596 47.3064C29.1932 47.3064 29.3291 47.276 29.4522 47.2139L35.0889 44.3955C35.3865 44.2467 35.5752 43.942 35.5752 43.6092H35.5764ZM28.1818 45.0049L24.3029 43.0654V38.4553L28.1818 40.3947V45.0049ZM29.0607 38.8689L25.3893 37.0338L29.0607 35.1986L32.7322 37.0338L29.0607 38.8689ZM33.8186 43.0666L29.9396 45.0061V40.3959L33.8186 38.4564V43.0666ZM21.5461 26.302C21.0609 26.302 20.6672 26.6957 20.6672 27.1809V31.1195L19.4308 29.4707C19.139 29.0828 18.5882 29.0043 18.2004 29.2949C17.8125 29.5855 17.7328 30.1375 18.0246 30.5254L20.8429 34.2824C21.0093 34.5039 21.2695 34.634 21.5461 34.634C21.8226 34.634 22.0828 34.5039 22.2492 34.2824L25.0675 30.5254C25.3582 30.1375 25.2797 29.5855 24.8918 29.2949C24.5039 29.0043 23.9519 29.0828 23.6613 29.4707L22.425 31.1184V27.1797C22.425 26.6945 22.0312 26.3008 21.5461 26.3008V26.302ZM27.1213 12.152C27.1213 15.227 24.6205 17.7277 21.5455 17.7277C18.4717 17.7277 15.9697 15.227 15.9697 12.152C15.9697 9.07812 18.4705 6.57617 21.5455 6.57617C22.2264 6.57617 22.9096 6.70859 23.574 6.96875C24.0264 7.1457 24.249 7.65547 24.0721 8.10781C23.8951 8.56016 23.3842 8.78281 22.933 8.60586C22.4736 8.42539 22.0072 8.33398 21.5455 8.33398C19.4408 8.33398 17.7275 10.0473 17.7275 12.152C17.7275 14.2566 19.4408 15.9699 21.5455 15.9699C23.6502 15.9699 25.3635 14.2578 25.3635 12.152C25.3635 11.6902 25.2721 11.2238 25.0916 10.7645C24.9146 10.3121 25.1373 9.80234 25.5896 9.62539C26.042 9.44844 26.5518 9.67109 26.7287 10.1234C26.9889 10.7879 27.1213 11.4699 27.1213 12.152Z" fill="url(#paint0_linear_390_5435)"/>
<defs>
<linearGradient id="paint0_linear_390_5435" x1="-1.60526e-07" y1="30.0009" x2="43.0908" y2="30.0009" gradientUnits="userSpaceOnUse">
<stop stop-color="#223962"/>
<stop offset="0.526042" stop-color="#3277BC"/>
<stop offset="0.973958" stop-color="#48ABDF"/>
</linearGradient>
</defs>
</svg>
