<svg width="60" height="53" viewBox="0 0 60 53" fill="none" xmlns="http://www.w3.org/2000/svg">
<g clip-path="url(#clip0_1_1606)">
<path d="M49.9301 0H15.3059C13.548 0 12.1184 1.42969 12.1184 3.1875V17.2008H11.6004C10.4695 17.2008 9.54961 18.1207 9.54961 19.2516V21.2461C9.54961 22.2152 10.227 23.0273 11.1316 23.2406V24.7781C9.39844 25.159 7.78242 25.8574 6.35039 26.8102L5.35781 25.8176C4.55859 25.0184 3.25664 25.0184 2.45742 25.8176L1.52109 26.7539C0.721875 27.5531 0.721875 28.8551 1.52109 29.6543L2.48438 30.6176C0.91875 32.8969 0 35.6555 0 38.6238C0 46.4414 6.36094 52.8023 14.1785 52.8023C18.218 52.8023 21.8684 51.1043 24.4535 48.3844H49.9289C51.6867 48.3844 53.1164 46.9547 53.1164 45.1969V3.1875C53.1176 1.42969 51.6867 0 49.9301 0ZM11.3074 19.2504C11.3074 19.0887 11.4387 18.9574 11.6004 18.9574H16.7566C16.9184 18.9574 17.0496 19.0887 17.0496 19.2504V21.2449C17.0496 21.4066 16.9184 21.5379 16.7566 21.5379H11.6004C11.4387 21.5379 11.3074 21.4066 11.3074 21.2449V19.2504ZM15.4676 23.2957V24.5062C15.0434 24.4676 14.6133 24.4453 14.1785 24.4453C13.7438 24.4453 13.3137 24.4676 12.8895 24.5062V23.2957H15.4676ZM2.76328 27.9961L3.69961 27.0598C3.77461 26.9848 3.86133 26.9742 3.90703 26.9742C3.95273 26.9742 4.03945 26.9848 4.11445 27.0598L4.93594 27.8813C4.45312 28.2973 3.99844 28.7461 3.57539 29.223L2.76328 28.4109C2.68828 28.3359 2.67773 28.2492 2.67773 28.2035C2.67773 28.1578 2.68828 28.0711 2.76328 27.9961ZM14.1785 51.0457C7.33008 51.0457 1.75781 45.4734 1.75781 38.625C1.75781 31.7766 7.33008 26.2043 14.1785 26.2043C21.027 26.2043 26.5992 31.7766 26.5992 38.625C26.5992 45.4734 21.027 51.0457 14.1785 51.0457ZM23.4211 27.8813L24.2426 27.0598C24.3176 26.9848 24.4043 26.9742 24.45 26.9742C24.4957 26.9742 24.5824 26.9848 24.6574 27.0598L25.5938 27.9961C25.7086 28.1098 25.7086 28.2961 25.5938 28.4098L24.7816 29.2219C24.3586 28.7449 23.9039 28.2973 23.4211 27.8813ZM49.9301 46.6266H25.8773C26.1492 46.2293 26.4023 45.8191 26.6344 45.3949H48.8977C49.5762 45.3949 50.1281 44.843 50.1281 44.1645V14.9168C50.1281 14.4316 49.7344 14.0379 49.2492 14.0379C48.7641 14.0379 48.3703 14.4316 48.3703 14.9168V43.6371H27.443C28.0348 42.0773 28.3594 40.3887 28.3594 38.625C28.3594 35.6555 27.4418 32.8969 25.875 30.6176L26.8383 29.6543C27.6375 28.8551 27.6375 27.5543 26.8383 26.7539L25.902 25.8176C25.1027 25.0184 23.8008 25.0184 23.0016 25.8176L22.009 26.8102C20.5758 25.8574 18.9598 25.1602 17.2277 24.7781V23.2406C18.1324 23.0273 18.8098 22.2152 18.8098 21.2461V19.2516C18.8098 18.1582 17.9484 17.2641 16.8691 17.2066V4.74727H48.3715V10.8152C48.3715 11.3004 48.7652 11.6941 49.2504 11.6941C49.7355 11.6941 50.1293 11.3004 50.1293 10.8152V4.21992C50.1293 3.54141 49.5773 2.98945 48.8988 2.98945H16.3395C15.6609 2.98945 15.109 3.54141 15.109 4.21992V17.1996H13.8773V3.1875C13.8773 2.39883 14.5184 1.75781 15.307 1.75781H49.9313C50.7199 1.75781 51.3609 2.39883 51.3609 3.1875V45.198C51.3609 45.9867 50.7199 46.6277 49.9313 46.6277L49.9301 46.6266Z" fill="url(#paint0_linear_1_1606)"/>
<path d="M59.1211 32.7878C59.6063 32.7878 60 32.394 60 31.9089V11.2569C60 9.71709 58.7473 8.46436 57.2074 8.46436C55.6676 8.46436 54.4149 9.71709 54.4149 11.2569V42.3726C54.4149 42.6198 54.4535 42.8647 54.5297 43.0991L55.9512 47.4726C56.1281 48.0187 56.6332 48.3843 57.2074 48.3843C57.7817 48.3843 58.2856 48.0175 58.4637 47.4726L59.8852 43.0991C59.9613 42.8636 60 42.6198 60 42.3726V36.0104C60 35.5253 59.6063 35.1315 59.1211 35.1315C58.636 35.1315 58.2422 35.5253 58.2422 36.0104V42.3714C58.2422 42.4335 58.2328 42.4956 58.2129 42.5542L57.2074 45.6479L56.202 42.5542C56.1832 42.4944 56.1727 42.4335 56.1727 42.3714V11.2569C56.1727 10.6862 56.6367 10.2222 57.2074 10.2222C57.7781 10.2222 58.2422 10.6862 58.2422 11.2569V31.9089C58.2422 32.394 58.636 32.7878 59.1211 32.7878Z" fill="url(#paint1_linear_1_1606)"/>
<path d="M44.414 15.4348H43.3078V9.91294C43.3078 9.42778 42.914 9.03403 42.4289 9.03403C41.9437 9.03403 41.55 9.42778 41.55 9.91294V15.4348H40.0371V12.443C40.0371 11.9579 39.6433 11.5641 39.1582 11.5641C38.673 11.5641 38.2793 11.9579 38.2793 12.443V15.4348H36.7664V9.91294C36.7664 9.42778 36.3726 9.03403 35.8875 9.03403C35.4023 9.03403 35.0086 9.42778 35.0086 9.91294V15.4348H33.4957V7.53052C33.4957 7.04536 33.1019 6.65161 32.6168 6.65161C32.1316 6.65161 31.7379 7.04536 31.7379 7.53052V15.4348H30.225V9.91294C30.225 9.42778 29.8312 9.03403 29.3461 9.03403C28.8609 9.03403 28.4672 9.42778 28.4672 9.91294V15.4348H26.9543V12.443C26.9543 11.9579 26.5605 11.5641 26.0754 11.5641C25.5902 11.5641 25.1965 11.9579 25.1965 12.443V15.4348H23.6836V9.91294C23.6836 9.42778 23.2898 9.03403 22.8047 9.03403C22.3195 9.03403 21.9258 9.42778 21.9258 9.91294V15.4348H20.8195C20.3344 15.4348 19.9406 15.8286 19.9406 16.3137C19.9406 16.7989 20.3344 17.1926 20.8195 17.1926H44.4117C44.8969 17.1926 45.2906 16.7989 45.2906 16.3137C45.2906 15.8286 44.8969 15.4348 44.4117 15.4348H44.414Z" fill="url(#paint2_linear_1_1606)"/>
<path d="M44.0625 19.3594H33.2754C32.5969 19.3594 32.0449 19.9113 32.0449 20.5898V23.0602C32.0449 23.7387 32.5969 24.2906 33.2754 24.2906H44.0625C44.741 24.2906 45.293 23.7387 45.293 23.0602V20.5898C45.293 19.9113 44.741 19.3594 44.0625 19.3594ZM43.5352 22.5328H33.8027V21.1172H43.5352V22.5328Z" fill="url(#paint3_linear_1_1606)"/>
<path d="M20.8219 21.1172H29.6508C30.136 21.1172 30.5297 20.7234 30.5297 20.2383C30.5297 19.7531 30.136 19.3594 29.6508 19.3594H20.8219C20.3367 19.3594 19.943 19.7531 19.943 20.2383C19.943 20.7234 20.3367 21.1172 20.8219 21.1172Z" fill="url(#paint4_linear_1_1606)"/>
<path d="M30.5297 23.4116C30.5297 22.9265 30.136 22.5327 29.6508 22.5327H20.8219C20.3367 22.5327 19.943 22.9265 19.943 23.4116C19.943 23.8968 20.3367 24.2905 20.8219 24.2905H29.6508C30.136 24.2905 30.5297 23.8968 30.5297 23.4116Z" fill="url(#paint5_linear_1_1606)"/>
<path d="M30.3668 32.9753C30.5379 33.1464 30.7629 33.2331 30.9879 33.2331C31.2129 33.2331 31.4379 33.1476 31.609 32.9753L34.8914 29.6929L37.2047 32.0062C37.548 32.3495 38.1047 32.3495 38.448 32.0062L42.3703 28.0839C42.7137 27.7405 42.7137 27.1839 42.3703 26.8405C42.0269 26.4972 41.4703 26.4972 41.1269 26.8405L37.8258 30.1417L35.5125 27.8284C35.1691 27.4851 34.6125 27.4851 34.2691 27.8284L30.3656 31.7319C30.0223 32.0753 30.0223 32.6319 30.3656 32.9753H30.3668Z" fill="url(#paint6_linear_1_1606)"/>
<path d="M44.4141 38.3508H30.2344C29.7492 38.3508 29.3555 38.7446 29.3555 39.2297C29.3555 39.7149 29.7492 40.1086 30.2344 40.1086H44.4141C44.8992 40.1086 45.293 39.7149 45.293 39.2297C45.293 38.7446 44.8992 38.3508 44.4141 38.3508Z" fill="url(#paint7_linear_1_1606)"/>
<path d="M44.4141 25.7332C43.9289 25.7332 43.5352 26.1269 43.5352 26.6121V29.1316H43.125C42.6398 29.1316 42.2461 29.5253 42.2461 30.0105C42.2461 30.4957 42.6398 30.8894 43.125 30.8894H43.5352V31.9441H43.125C42.6398 31.9441 42.2461 32.3378 42.2461 32.823C42.2461 33.3082 42.6398 33.7019 43.125 33.7019H43.5352V34.991H30.2344C29.7492 34.991 29.3555 35.3847 29.3555 35.8699C29.3555 36.355 29.7492 36.7488 30.2344 36.7488H44.4141C44.8992 36.7488 45.293 36.355 45.293 35.8699V26.6121C45.293 26.1269 44.8992 25.7332 44.4141 25.7332Z" fill="url(#paint8_linear_1_1606)"/>
<path d="M24.4101 39.7184C23.9332 39.6258 23.4726 39.9375 23.3801 40.4145C22.5305 44.8079 18.6609 47.9977 14.1785 47.9977C9.01053 47.9977 4.80585 43.793 4.80585 38.625C4.80585 33.4571 9.01053 29.2524 14.1785 29.2524C18.5754 29.2524 22.4308 32.3696 23.3449 36.6633C23.4457 37.1379 23.9121 37.4403 24.3879 37.3395C24.8625 37.2387 25.166 36.7711 25.0641 36.2965C24.5414 33.8415 23.1785 31.6079 21.2262 30.0094C19.2457 28.3875 16.7426 27.4934 14.1785 27.4934C8.04139 27.4934 3.04803 32.4868 3.04803 38.6239C3.04803 44.761 8.04139 49.7543 14.1785 49.7543C19.5012 49.7543 24.0973 45.9668 25.1051 40.7473C25.1976 40.2704 24.8859 39.8098 24.409 39.7172L24.4101 39.7184Z" fill="url(#paint9_linear_1_1606)"/>
<path d="M11.0918 45.9105C11.2383 45.9105 11.3859 45.8859 11.5266 45.8367C11.8664 45.7172 12.1441 45.4594 12.2894 45.1301L12.2918 45.1242C12.8906 45.3 13.5234 45.3973 14.1785 45.3973C17.5957 45.3973 20.4258 42.8391 20.857 39.5379H20.8629C21.2226 39.5379 21.5707 39.3867 21.818 39.1242C22.0652 38.8605 22.1941 38.502 22.1695 38.1398C21.8953 33.941 18.3855 30.6504 14.1785 30.6504C12.3703 30.6504 10.6992 31.2539 9.35741 32.2687L9.30819 32.2172C8.97421 31.8645 8.41757 31.8504 8.066 32.1844C7.71444 32.5184 7.69921 33.075 8.03319 33.4266L8.08007 33.4758C6.89061 34.8738 6.17108 36.682 6.17108 38.6578C6.17108 41.6555 7.82343 44.3777 10.4836 45.7617C10.6723 45.8602 10.882 45.9105 11.0918 45.9105ZM14.1797 43.6383C13.7765 43.6383 13.3851 43.5879 13.009 43.4965L13.9922 41.2629C14.0543 41.2676 14.1164 41.2699 14.1785 41.2699C15.3176 41.2699 16.2914 40.5469 16.664 39.5355H19.0805C18.6644 41.8641 16.6254 43.6371 14.1797 43.6371V43.6383ZM13.2891 38.6238C13.2891 38.1328 13.6887 37.7344 14.1785 37.7344C14.6683 37.7344 15.068 38.1328 15.068 38.6238C15.068 39.1148 14.6695 39.5133 14.1785 39.5133C13.6875 39.5133 13.2891 39.1137 13.2891 38.6238ZM14.1797 32.4082C17.3027 32.4082 19.9336 34.732 20.3672 37.7789H16.6875C16.3336 36.7324 15.3433 35.9766 14.1797 35.9766C13.7941 35.9766 13.4285 36.0598 13.0992 36.2086L10.5797 33.5543C11.598 32.8336 12.8402 32.4082 14.1808 32.4082H14.1797ZM7.93007 38.6578C7.93007 37.1848 8.44335 35.8289 9.29999 34.7602L11.823 37.4191C11.6367 37.7813 11.5312 38.1902 11.5312 38.625C11.5312 39.3902 11.8582 40.0805 12.3797 40.5645L10.8808 43.9676C9.04921 42.832 7.92889 40.8387 7.92889 38.659L7.93007 38.6578Z" fill="url(#paint10_linear_1_1606)"/>
</g>
<defs>
<linearGradient id="paint0_linear_1_1606" x1="-1.97874e-07" y1="26.4012" x2="53.1164" y2="26.4012" gradientUnits="userSpaceOnUse">
<stop stop-color="#223962"/>
<stop offset="0.526042" stop-color="#3277BC"/>
<stop offset="0.973958" stop-color="#48ABDF"/>
</linearGradient>
<linearGradient id="paint1_linear_1_1606" x1="54.4149" y1="28.4243" x2="60" y2="28.4243" gradientUnits="userSpaceOnUse">
<stop stop-color="#223962"/>
<stop offset="0.526042" stop-color="#3277BC"/>
<stop offset="0.973958" stop-color="#48ABDF"/>
</linearGradient>
<linearGradient id="paint2_linear_1_1606" x1="19.9406" y1="11.9221" x2="45.2906" y2="11.9221" gradientUnits="userSpaceOnUse">
<stop stop-color="#223962"/>
<stop offset="0.526042" stop-color="#3277BC"/>
<stop offset="0.973958" stop-color="#48ABDF"/>
</linearGradient>
<linearGradient id="paint3_linear_1_1606" x1="32.0449" y1="21.825" x2="45.293" y2="21.825" gradientUnits="userSpaceOnUse">
<stop stop-color="#223962"/>
<stop offset="0.526042" stop-color="#3277BC"/>
<stop offset="0.973958" stop-color="#48ABDF"/>
</linearGradient>
<linearGradient id="paint4_linear_1_1606" x1="19.943" y1="20.2383" x2="30.5297" y2="20.2383" gradientUnits="userSpaceOnUse">
<stop stop-color="#223962"/>
<stop offset="0.526042" stop-color="#3277BC"/>
<stop offset="0.973958" stop-color="#48ABDF"/>
</linearGradient>
<linearGradient id="paint5_linear_1_1606" x1="19.943" y1="23.4116" x2="30.5297" y2="23.4116" gradientUnits="userSpaceOnUse">
<stop stop-color="#223962"/>
<stop offset="0.526042" stop-color="#3277BC"/>
<stop offset="0.973958" stop-color="#48ABDF"/>
</linearGradient>
<linearGradient id="paint6_linear_1_1606" x1="30.1081" y1="29.9081" x2="42.6278" y2="29.9081" gradientUnits="userSpaceOnUse">
<stop stop-color="#223962"/>
<stop offset="0.526042" stop-color="#3277BC"/>
<stop offset="0.973958" stop-color="#48ABDF"/>
</linearGradient>
<linearGradient id="paint7_linear_1_1606" x1="29.3555" y1="39.2297" x2="45.293" y2="39.2297" gradientUnits="userSpaceOnUse">
<stop stop-color="#223962"/>
<stop offset="0.526042" stop-color="#3277BC"/>
<stop offset="0.973958" stop-color="#48ABDF"/>
</linearGradient>
<linearGradient id="paint8_linear_1_1606" x1="29.3555" y1="31.241" x2="45.293" y2="31.241" gradientUnits="userSpaceOnUse">
<stop stop-color="#223962"/>
<stop offset="0.526042" stop-color="#3277BC"/>
<stop offset="0.973958" stop-color="#48ABDF"/>
</linearGradient>
<linearGradient id="paint9_linear_1_1606" x1="3.04803" y1="38.6239" x2="25.1213" y2="38.6239" gradientUnits="userSpaceOnUse">
<stop stop-color="#223962"/>
<stop offset="0.526042" stop-color="#3277BC"/>
<stop offset="0.973958" stop-color="#48ABDF"/>
</linearGradient>
<linearGradient id="paint10_linear_1_1606" x1="6.17108" y1="38.2805" x2="22.1725" y2="38.2805" gradientUnits="userSpaceOnUse">
<stop stop-color="#223962"/>
<stop offset="0.526042" stop-color="#3277BC"/>
<stop offset="0.973958" stop-color="#48ABDF"/>
</linearGradient>
<clipPath id="clip0_1_1606">
<rect width="60" height="52.8035" fill="white"/>
</clipPath>
</defs>
</svg>
