<svg width="54" height="60" viewBox="0 0 54 60" fill="none" xmlns="http://www.w3.org/2000/svg">
<g clip-path="url(#clip0_343_4760)">
<path d="M37.2273 47.2437C36.8195 47.5065 36.7017 48.0505 36.9654 48.4583C37.1332 48.7194 37.4162 48.8609 37.7045 48.8609C37.868 48.8609 38.0324 48.8152 38.18 48.7203C43.3691 45.3733 46.7776 39.7026 47.2961 33.5528L48.2234 22.5638C48.2234 22.5638 48.2243 22.5567 48.2251 22.5532L48.9221 14.2923C48.9221 14.2861 48.9221 14.2809 48.9221 14.2747L49.3343 9.38706C49.3563 9.1269 49.2614 8.87026 49.0759 8.68744C48.8896 8.50463 48.6329 8.41322 48.3728 8.43871C46.7899 8.59428 45.2043 8.67338 43.6583 8.67338C37.2158 8.67338 31.7138 7.35237 27.307 4.74815C27.3034 4.74639 27.3008 4.74463 27.2973 4.74287C27.2358 4.70772 27.1698 4.67959 27.0995 4.65938C27.0907 4.65674 27.0828 4.65498 27.074 4.65322C27.0477 4.64619 27.0204 4.64092 26.9932 4.6374C26.9835 4.63564 26.9747 4.63389 26.9651 4.63301C26.9308 4.62861 26.8965 4.62598 26.8605 4.62598H26.8578C26.8227 4.62598 26.7875 4.62861 26.7532 4.63301C26.7436 4.63389 26.7348 4.63564 26.7251 4.6374C26.6979 4.6418 26.6706 4.64707 26.6443 4.65322C26.6355 4.65498 26.6276 4.65762 26.6188 4.65938C26.5485 4.67959 26.4825 4.70772 26.4201 4.74287C26.4175 4.74463 26.414 4.74551 26.4113 4.74727C22.0045 7.35149 16.5025 8.6725 10.06 8.6725C8.51488 8.6725 6.92844 8.5934 5.34551 8.43783C5.08535 8.41234 4.82783 8.50375 4.64238 8.68656C4.45693 8.86938 4.36201 9.12602 4.38398 9.38618L5.08184 17.6541C5.12227 18.1375 5.54766 18.497 6.03194 18.4557C6.51535 18.4153 6.87482 17.9899 6.83352 17.5056L6.22355 10.2783C7.51292 10.3785 8.79965 10.4286 10.06 10.4286C16.1966 10.4286 21.5439 9.2728 25.9798 6.99114V9.63931C25.9798 10.1245 26.3736 10.5182 26.8587 10.5182C27.3439 10.5182 27.7376 10.1245 27.7376 9.63931V6.99026C32.1735 9.27192 37.5208 10.4286 43.6574 10.4286C44.9187 10.4286 46.2045 10.3776 47.4939 10.2783L47.195 13.8238L27.7376 33.2812V28.0438C27.7376 27.5586 27.3439 27.1649 26.8587 27.1649C26.3736 27.1649 25.9798 27.5586 25.9798 28.0438V33.2883L21.9034 29.2127C21.0974 28.4068 19.7861 28.4068 18.9801 29.2127L16.8786 31.3142C16.4884 31.7045 16.2731 32.2239 16.2731 32.7759C16.2731 33.3278 16.4884 33.8473 16.8786 34.2375L25.3927 42.7515C25.5658 42.9247 25.7645 43.0636 25.9798 43.1638V52.99L16.9358 47.5197C11.94 44.4979 8.66517 39.2209 8.17386 33.4034L7.16135 21.4009C7.12092 20.9175 6.69465 20.5581 6.21124 20.5994C5.72784 20.6398 5.36836 21.0652 5.40967 21.5495L6.42218 33.5519C6.96008 39.9285 10.5504 45.7126 16.0252 49.0244L26.4026 55.3016C26.4026 55.3016 26.4105 55.3051 26.4149 55.3077C26.4447 55.3253 26.4755 55.3411 26.5071 55.3552C26.5089 55.3552 26.5098 55.3569 26.5115 55.3569C26.5449 55.371 26.5792 55.3833 26.6144 55.393C26.6232 55.3956 26.6311 55.3974 26.6399 55.3991C26.6662 55.4062 26.6935 55.4114 26.7216 55.4158C26.7313 55.4176 26.7409 55.4193 26.7515 55.4202C26.7849 55.4246 26.8183 55.4273 26.8534 55.4273C26.8552 55.4273 26.857 55.4273 26.8587 55.4273C26.8605 55.4273 26.8622 55.4273 26.864 55.4273C26.8983 55.4273 26.9317 55.4246 26.9651 55.4202C26.9747 55.4193 26.9853 55.4176 26.9949 55.4158C27.0222 55.4114 27.0494 55.4062 27.0758 55.3991C27.0846 55.3965 27.0934 55.3947 27.1022 55.3921C27.1373 55.3824 27.1716 55.3701 27.205 55.3561C27.2068 55.3561 27.2085 55.3543 27.2112 55.3534C27.2428 55.3394 27.2727 55.3235 27.3017 55.3068C27.3061 55.3042 27.3105 55.3025 27.314 55.3007L34.8164 50.7629C35.2321 50.5115 35.3649 49.971 35.1135 49.5561C34.8621 49.1404 34.3216 49.0077 33.9067 49.259L27.7385 52.99V43.1602C27.9512 43.06 28.1472 42.9221 28.3177 42.7515L46.2695 24.7997L45.5436 33.4034C45.0698 39.0144 41.9611 44.1877 37.2264 47.2419L37.2273 47.2437ZM27.0758 41.5105C26.9967 41.5896 26.9044 41.601 26.857 41.601C26.8095 41.601 26.7163 41.5896 26.6372 41.5105L18.1232 32.9965C18.0441 32.9174 18.0326 32.826 18.0326 32.7776C18.0326 32.7293 18.0441 32.6379 18.1232 32.5588L20.2247 30.4573C20.2853 30.3966 20.3644 30.3668 20.4435 30.3668C20.5226 30.3668 20.6017 30.3966 20.6624 30.4573L26.2356 36.0296C26.5792 36.3733 27.1356 36.3724 27.4783 36.0296L46.9674 16.5405L46.4998 22.0856L27.0758 41.5096V41.5105Z" fill="url(#paint0_linear_343_4760)"/>
<path d="M53.0074 4.47895C52.5002 4.014 51.82 3.81449 51.1414 3.93139C48.8413 4.32866 44.2402 4.90698 39.2673 4.32338C38.7848 4.26713 38.3488 4.61167 38.2917 5.09419C38.2355 5.57584 38.58 6.01266 39.0616 6.06979C44.2551 6.67975 49.0461 6.0777 51.4394 5.66461C51.6284 5.63209 51.7584 5.71998 51.8191 5.77535C51.8788 5.83072 51.9773 5.95113 51.9615 6.14098L49.6315 33.7512C49.0303 40.8731 45.0207 47.3331 38.9052 51.0316L27.0908 58.178C26.9484 58.2641 26.7718 58.2641 26.6294 58.178L14.815 51.0316C8.69952 47.3331 4.68991 40.8731 4.08873 33.7512L1.75961 6.1401C1.74379 5.95025 1.84222 5.82984 1.90199 5.77447C1.96263 5.7191 2.09271 5.63121 2.28168 5.66373C4.29791 6.01178 8.35762 6.54879 12.8981 6.23326C18.3834 5.85269 22.9959 4.37348 26.6074 1.83605C26.7586 1.7297 26.9616 1.7297 27.1137 1.83605C29.3769 3.42601 32.0672 4.61167 35.11 5.36138C35.5811 5.4774 36.0575 5.18911 36.1735 4.71802C36.2895 4.24692 36.0013 3.77055 35.5302 3.65453C32.7 2.95755 30.2083 1.86242 28.1235 0.398148C27.3677 -0.132716 26.3525 -0.132716 25.5967 0.398148C17.8534 5.83687 6.92147 4.6811 2.58051 3.93139C1.90199 3.81361 1.22171 4.014 0.714576 4.47895C0.207442 4.9439 -0.0500801 5.60308 0.00792825 6.28776L2.33793 33.898C2.98569 41.5788 7.31083 48.546 13.9062 52.5345L25.7206 59.681C26.0722 59.8937 26.4668 60 26.8614 60C27.256 60 27.6498 59.8937 28.0022 59.681L39.8166 52.5345C46.412 48.5451 50.7363 41.5779 51.3849 33.898L53.7149 6.28776C53.7729 5.6022 53.5154 4.94302 53.0083 4.47895H53.0074Z" fill="url(#paint1_linear_343_4760)"/>
<path d="M32.1147 20.1668V17.1468C32.1147 14.2499 29.7583 11.8936 26.8614 11.8936C23.9645 11.8936 21.6082 14.2499 21.6082 17.1468V20.1668C21.6082 22.8624 23.627 25.108 26.3033 25.3911C26.335 25.3946 26.3657 25.3963 26.3965 25.3963C26.8403 25.3963 27.2218 25.0615 27.2692 24.6097C27.3202 24.1272 26.9704 23.6939 26.4879 23.6429C24.7081 23.4548 23.3651 21.9598 23.3651 20.1668V17.1468C23.3651 15.2194 24.9331 13.6514 26.8605 13.6514C28.788 13.6514 30.356 15.2194 30.356 17.1468V20.1668C30.356 20.6519 30.7497 21.0457 31.2349 21.0457C31.7201 21.0457 32.1138 20.6519 32.1138 20.1668H32.1147Z" fill="url(#paint2_linear_343_4760)"/>
<path d="M28.8601 23.2404L29.492 23.6939C29.6467 23.8056 29.826 23.8592 30.0036 23.8592C30.2769 23.8592 30.5467 23.7317 30.7181 23.4927C31.0011 23.098 30.9106 22.5487 30.516 22.2666L29.884 21.8131C29.4727 21.5177 29.2266 21.0387 29.2266 20.5325V17.1592C29.2266 15.8795 28.186 14.8389 26.9063 14.8389C25.6266 14.8389 24.5859 15.8795 24.5859 17.1592V20.95C24.5859 21.4351 24.9797 21.8289 25.4649 21.8289C25.95 21.8289 26.3438 21.4351 26.3438 20.95V17.1592C26.3438 16.8489 26.596 16.5967 26.9063 16.5967C27.2165 16.5967 27.4688 16.8489 27.4688 17.1592V20.5325C27.4688 21.6039 27.9891 22.6164 28.8601 23.2413V23.2404Z" fill="url(#paint3_linear_343_4760)"/>
</g>
<defs>
<linearGradient id="paint0_linear_343_4760" x1="4.38086" y1="30.0266" x2="49.3374" y2="30.0266" gradientUnits="userSpaceOnUse">
<stop stop-color="#223962"/>
<stop offset="0.526042" stop-color="#3277BC"/>
<stop offset="0.973958" stop-color="#48ABDF"/>
</linearGradient>
<linearGradient id="paint1_linear_343_4760" x1="-0.00012227" y1="30" x2="53.723" y2="30" gradientUnits="userSpaceOnUse">
<stop stop-color="#223962"/>
<stop offset="0.526042" stop-color="#3277BC"/>
<stop offset="0.973958" stop-color="#48ABDF"/>
</linearGradient>
<linearGradient id="paint2_linear_343_4760" x1="21.6082" y1="18.6449" x2="32.1147" y2="18.6449" gradientUnits="userSpaceOnUse">
<stop stop-color="#223962"/>
<stop offset="0.526042" stop-color="#3277BC"/>
<stop offset="0.973958" stop-color="#48ABDF"/>
</linearGradient>
<linearGradient id="paint3_linear_343_4760" x1="24.5859" y1="19.349" x2="30.8829" y2="19.349" gradientUnits="userSpaceOnUse">
<stop stop-color="#223962"/>
<stop offset="0.526042" stop-color="#3277BC"/>
<stop offset="0.973958" stop-color="#48ABDF"/>
</linearGradient>
<clipPath id="clip0_343_4760">
<rect width="53.7219" height="60" fill="white"/>
</clipPath>
</defs>
</svg>
