<svg width="60" height="46" viewBox="0 0 60 46" fill="none" xmlns="http://www.w3.org/2000/svg">
<g clip-path="url(#clip0_343_4919)">
<path d="M0.878906 7.36523C1.36406 7.36523 1.75781 6.97148 1.75781 6.48633V2.05078C1.75781 1.88906 1.88906 1.75781 2.05078 1.75781H47.8195C48.3047 1.75781 48.6984 1.36406 48.6984 0.878906C48.6984 0.39375 48.3047 0 47.8195 0H2.05078C0.919922 0 0 0.919922 0 2.05078V6.48633C0 6.97148 0.39375 7.36523 0.878906 7.36523Z" fill="url(#paint0_linear_343_4919)"/>
<path d="M57.9492 0H51.9211C51.4359 0 51.0422 0.39375 51.0422 0.878906C51.0422 1.36406 51.4359 1.75781 51.9211 1.75781H57.9492C58.1109 1.75781 58.2422 1.88906 58.2422 2.05078V34.8633C58.2422 35.025 58.1109 35.1562 57.9492 35.1562H2.05078C1.88906 35.1562 1.75781 35.025 1.75781 34.8633V10.5879C1.75781 10.1027 1.36406 9.70898 0.878906 9.70898C0.39375 9.70898 0 10.1027 0 10.5879V34.8633C0 35.9941 0.919922 36.9141 2.05078 36.9141H23.8477V40.7227H17.6367C16.1824 40.7227 15 41.9051 15 43.3594V44.7656C15 45.2508 15.3938 45.6445 15.8789 45.6445H44.1211C44.6063 45.6445 45 45.2508 45 44.7656V43.3594C45 41.9051 43.8176 40.7227 42.3633 40.7227H36.1523V36.9141H57.9492C59.0801 36.9141 60 35.9941 60 34.8633V2.05078C60 0.919922 59.0801 0 57.9492 0ZM43.2422 43.3594V43.8867H16.7578V43.3594C16.7578 42.8742 17.1516 42.4805 17.6367 42.4805H42.3633C42.8484 42.4805 43.2422 42.8742 43.2422 43.3594ZM34.3945 40.7227H25.6055V36.9141H34.3945V40.7227Z" fill="url(#paint1_linear_343_4919)"/>
<path d="M22.6758 6.70898C22.6758 6.22383 22.282 5.83008 21.7969 5.83008H6.5625C6.07734 5.83008 5.68359 6.22383 5.68359 6.70898V16.084C5.68359 16.5691 6.07734 16.9629 6.5625 16.9629H21.7969C22.282 16.9629 22.6758 16.5691 22.6758 16.084V6.70898ZM12.7148 7.58789H15.6445V10.0055L14.557 9.48867C14.318 9.375 14.0414 9.375 13.8023 9.48867L12.7148 10.0055V7.58789ZM20.918 15.2051H7.44141V7.58789H10.957V11.3965C10.957 11.6977 11.1117 11.9789 11.366 12.1395C11.6215 12.3 11.9402 12.3199 12.2133 12.1898L14.1797 11.2559L16.1461 12.1898C16.2656 12.2473 16.3945 12.2754 16.5234 12.2754C16.6875 12.2754 16.8504 12.2297 16.9934 12.1395C17.2477 11.9789 17.4023 11.6977 17.4023 11.3965V7.58789H20.918V15.2051Z" fill="url(#paint2_linear_343_4919)"/>
<path d="M16.7777 29.3262C16.2926 29.3262 15.8988 29.7199 15.8988 30.2051C15.8988 30.6902 16.2926 31.084 16.7777 31.084H21.7969C22.282 31.084 22.6758 30.6902 22.6758 30.2051V20.8301C22.6758 20.3449 22.282 19.9512 21.7969 19.9512H6.5625C6.07734 19.9512 5.68359 20.3449 5.68359 20.8301V30.2051C5.68359 30.6902 6.07734 31.084 6.5625 31.084H12.6762C13.1613 31.084 13.5551 30.6902 13.5551 30.2051C13.5551 29.7199 13.1613 29.3262 12.6762 29.3262H7.44141V21.709H10.957V25.5176C10.957 25.8187 11.1117 26.0988 11.366 26.2605C11.6215 26.4223 11.9402 26.441 12.2133 26.3109L14.1797 25.377L16.1461 26.3109C16.2656 26.3684 16.3945 26.3965 16.5234 26.3965C16.6875 26.3965 16.8504 26.3508 16.9934 26.2605C17.2477 26.0988 17.4023 25.8187 17.4023 25.5176V21.709H20.918V29.3262H16.7777ZM15.6445 24.1266L14.557 23.6098C14.318 23.4961 14.0414 23.4961 13.8023 23.6098L12.7148 24.1266V21.709H15.6445V24.1266Z" fill="url(#paint3_linear_343_4919)"/>
<path d="M54.3165 8.46797C54.3165 8.43867 54.3153 8.40938 54.3118 8.38008C54.3118 8.36836 54.3083 8.35664 54.3071 8.34492C54.3047 8.32852 54.3024 8.31094 54.2989 8.29453C54.2965 8.28047 54.2918 8.26758 54.2883 8.25352C54.2848 8.23945 54.2813 8.22539 54.2778 8.21133C54.2743 8.19727 54.2684 8.18438 54.2637 8.17148C54.259 8.15742 54.2543 8.14336 54.2485 8.13047C54.2438 8.11758 54.2368 8.10586 54.2321 8.09414C54.225 8.08008 54.2192 8.06602 54.2122 8.05313C54.2063 8.04141 54.1993 8.03086 54.1922 8.01914C54.184 8.00625 54.177 7.99219 54.1676 7.9793C54.1594 7.96758 54.15 7.95586 54.1418 7.94414C54.1336 7.93242 54.1254 7.92188 54.1172 7.91016C54.0997 7.88906 54.0821 7.86914 54.0633 7.85039C54.0622 7.84922 54.061 7.84687 54.0598 7.8457C54.0598 7.8457 54.0575 7.84336 54.0563 7.84219C54.0364 7.82344 54.0165 7.80469 53.9954 7.78711C53.986 7.77891 53.9754 7.77188 53.9649 7.76484C53.952 7.75547 53.9391 7.74492 53.9262 7.73672C53.9145 7.72852 53.9016 7.72148 53.8887 7.71445C53.877 7.70742 53.8641 7.69922 53.8524 7.69219C53.8395 7.68516 53.8266 7.6793 53.8137 7.67344C53.8008 7.66758 53.7879 7.66055 53.7739 7.65469C53.761 7.65 53.7493 7.64531 53.7364 7.64062C53.7223 7.63594 53.7071 7.63008 53.693 7.62539C53.6801 7.62187 53.6684 7.61836 53.6555 7.61602C53.6403 7.6125 53.625 7.60781 53.6098 7.6043C53.5958 7.60195 53.5817 7.59961 53.5676 7.59727C53.5536 7.59492 53.5395 7.59258 53.5254 7.59141C53.4997 7.58906 53.475 7.58789 53.4493 7.58789C53.4458 7.58789 53.4422 7.58789 53.4387 7.58789H47.5793C47.0942 7.58789 46.7004 7.98164 46.7004 8.4668V14.325C46.7004 14.3543 46.7016 14.3836 46.7051 14.4129C46.7051 14.4246 46.7086 14.4363 46.7098 14.448C46.7122 14.4645 46.7145 14.482 46.718 14.4984C46.7204 14.5125 46.725 14.5254 46.7286 14.5395C46.7321 14.5535 46.7356 14.5676 46.7391 14.5816C46.7426 14.5945 46.7485 14.6086 46.7532 14.6215C46.7579 14.6355 46.7625 14.6496 46.7684 14.6637C46.7731 14.6766 46.779 14.6883 46.7848 14.7C46.7918 14.7141 46.7977 14.7281 46.8047 14.7422C46.8106 14.7539 46.8176 14.7645 46.8247 14.7762C46.8329 14.7891 46.8399 14.8031 46.8493 14.816C46.8575 14.8277 46.8668 14.8395 46.875 14.8512C46.8833 14.8617 46.8915 14.8734 46.8997 14.884C46.9172 14.9051 46.9348 14.925 46.9536 14.9437C46.9547 14.9449 46.9559 14.9473 46.9571 14.9484C46.9571 14.9484 46.9594 14.9508 46.9606 14.952C46.9805 14.9707 47.0004 14.9895 47.0215 15.007C47.0309 15.0152 47.0415 15.0223 47.052 15.0293C47.0649 15.0387 47.0778 15.0492 47.0907 15.0574C47.1024 15.0656 47.1153 15.0727 47.127 15.0797C47.1399 15.0867 47.1516 15.0949 47.1645 15.102C47.1774 15.109 47.1903 15.1148 47.2032 15.1207C47.2161 15.1266 47.229 15.1336 47.243 15.1395C47.2559 15.1441 47.2688 15.1488 47.2817 15.1535C47.2958 15.1582 47.3098 15.1641 47.325 15.1688C47.3379 15.1723 47.3508 15.1758 47.3637 15.1793C47.379 15.1828 47.393 15.1875 47.4082 15.1898C47.4235 15.1934 47.4387 15.1945 47.454 15.1969C47.4668 15.1992 47.4797 15.2016 47.4938 15.2027C47.5231 15.2051 47.5512 15.2074 47.5805 15.2074H53.4399C53.925 15.2074 54.3188 14.8137 54.3188 14.3285V8.47031L54.3165 8.46797ZM51.3153 9.3457L48.4571 12.2039V9.3457H51.3153ZM49.6993 13.4473L52.5575 10.5891V13.4473H49.6993Z" fill="url(#paint4_linear_343_4919)"/>
<path d="M53.4375 21.709H47.5781C47.093 21.709 46.6992 22.1027 46.6992 22.5879V28.4473C46.6992 28.9324 47.093 29.3262 47.5781 29.3262H53.4375C53.9227 29.3262 54.3164 28.9324 54.3164 28.4473V22.5879C54.3164 22.1027 53.9227 21.709 53.4375 21.709ZM52.5586 27.5684H48.457V23.4668H52.5586V27.5684Z" fill="url(#paint5_linear_343_4919)"/>
<path d="M35.332 5.83008H26.4258C25.9406 5.83008 25.5469 6.22383 25.5469 6.70898C25.5469 7.19414 25.9406 7.58789 26.4258 7.58789H35.332C35.8172 7.58789 36.2109 7.19414 36.2109 6.70898C36.2109 6.22383 35.8172 5.83008 35.332 5.83008Z" fill="url(#paint6_linear_343_4919)"/>
<path d="M33.9622 11.3965C33.9622 11.8816 34.3559 12.2754 34.8411 12.2754H42.8321C43.3172 12.2754 43.711 11.8816 43.711 11.3965C43.711 10.9113 43.3172 10.5176 42.8321 10.5176H34.8411C34.3559 10.5176 33.9622 10.9113 33.9622 11.3965Z" fill="url(#paint7_linear_343_4919)"/>
<path d="M26.4258 12.2754H31.3254C31.8105 12.2754 32.2043 11.8816 32.2043 11.3965C32.2043 10.9113 31.8105 10.5176 31.3254 10.5176H26.4258C25.9406 10.5176 25.5469 10.9113 25.5469 11.3965C25.5469 11.8816 25.9406 12.2754 26.4258 12.2754Z" fill="url(#paint8_linear_343_4919)"/>
<path d="M26.4258 16.9629H42.832C43.3172 16.9629 43.7109 16.5691 43.7109 16.084C43.7109 15.5988 43.3172 15.2051 42.832 15.2051H26.4258C25.9406 15.2051 25.5469 15.5988 25.5469 16.084C25.5469 16.5691 25.9406 16.9629 26.4258 16.9629Z" fill="url(#paint9_linear_343_4919)"/>
<path d="M26.4844 19.9512C25.9992 19.9512 25.6055 20.3449 25.6055 20.8301C25.6055 21.3152 25.9992 21.709 26.4844 21.709H31.8164C32.3016 21.709 32.6953 21.3152 32.6953 20.8301C32.6953 20.3449 32.3016 19.9512 31.8164 19.9512H26.4844Z" fill="url(#paint10_linear_343_4919)"/>
<path d="M43.7695 25.5176C43.7695 25.0324 43.3758 24.6387 42.8906 24.6387H26.4844C25.9992 24.6387 25.6055 25.0324 25.6055 25.5176C25.6055 26.0027 25.9992 26.3965 26.4844 26.3965H42.8906C43.3758 26.3965 43.7695 26.0027 43.7695 25.5176Z" fill="url(#paint11_linear_343_4919)"/>
<path d="M26.4844 29.3262C25.9992 29.3262 25.6055 29.7199 25.6055 30.2051C25.6055 30.6902 25.9992 31.084 26.4844 31.084H36.4816C36.9668 31.084 37.3605 30.6902 37.3605 30.2051C37.3605 29.7199 36.9668 29.3262 36.4816 29.3262H26.4844Z" fill="url(#paint12_linear_343_4919)"/>
</g>
<defs>
<linearGradient id="paint0_linear_343_4919" x1="-1.81416e-07" y1="3.68262" x2="48.6984" y2="3.68262" gradientUnits="userSpaceOnUse">
<stop stop-color="#223962"/>
<stop offset="0.526042" stop-color="#3277BC"/>
<stop offset="0.973958" stop-color="#48ABDF"/>
</linearGradient>
<linearGradient id="paint1_linear_343_4919" x1="-2.23517e-07" y1="22.8223" x2="60" y2="22.8223" gradientUnits="userSpaceOnUse">
<stop stop-color="#223962"/>
<stop offset="0.526042" stop-color="#3277BC"/>
<stop offset="0.973958" stop-color="#48ABDF"/>
</linearGradient>
<linearGradient id="paint2_linear_343_4919" x1="5.68359" y1="11.3965" x2="22.6758" y2="11.3965" gradientUnits="userSpaceOnUse">
<stop stop-color="#223962"/>
<stop offset="0.526042" stop-color="#3277BC"/>
<stop offset="0.973958" stop-color="#48ABDF"/>
</linearGradient>
<linearGradient id="paint3_linear_343_4919" x1="5.68359" y1="25.5176" x2="22.6758" y2="25.5176" gradientUnits="userSpaceOnUse">
<stop stop-color="#223962"/>
<stop offset="0.526042" stop-color="#3277BC"/>
<stop offset="0.973958" stop-color="#48ABDF"/>
</linearGradient>
<linearGradient id="paint4_linear_343_4919" x1="46.7004" y1="11.3977" x2="54.3188" y2="11.3977" gradientUnits="userSpaceOnUse">
<stop stop-color="#223962"/>
<stop offset="0.526042" stop-color="#3277BC"/>
<stop offset="0.973958" stop-color="#48ABDF"/>
</linearGradient>
<linearGradient id="paint5_linear_343_4919" x1="46.6992" y1="25.5176" x2="54.3164" y2="25.5176" gradientUnits="userSpaceOnUse">
<stop stop-color="#223962"/>
<stop offset="0.526042" stop-color="#3277BC"/>
<stop offset="0.973958" stop-color="#48ABDF"/>
</linearGradient>
<linearGradient id="paint6_linear_343_4919" x1="25.5469" y1="6.70898" x2="36.2109" y2="6.70898" gradientUnits="userSpaceOnUse">
<stop stop-color="#223962"/>
<stop offset="0.526042" stop-color="#3277BC"/>
<stop offset="0.973958" stop-color="#48ABDF"/>
</linearGradient>
<linearGradient id="paint7_linear_343_4919" x1="33.9622" y1="11.3965" x2="43.711" y2="11.3965" gradientUnits="userSpaceOnUse">
<stop stop-color="#223962"/>
<stop offset="0.526042" stop-color="#3277BC"/>
<stop offset="0.973958" stop-color="#48ABDF"/>
</linearGradient>
<linearGradient id="paint8_linear_343_4919" x1="25.5469" y1="11.3965" x2="32.2043" y2="11.3965" gradientUnits="userSpaceOnUse">
<stop stop-color="#223962"/>
<stop offset="0.526042" stop-color="#3277BC"/>
<stop offset="0.973958" stop-color="#48ABDF"/>
</linearGradient>
<linearGradient id="paint9_linear_343_4919" x1="25.5469" y1="16.084" x2="43.7109" y2="16.084" gradientUnits="userSpaceOnUse">
<stop stop-color="#223962"/>
<stop offset="0.526042" stop-color="#3277BC"/>
<stop offset="0.973958" stop-color="#48ABDF"/>
</linearGradient>
<linearGradient id="paint10_linear_343_4919" x1="25.6055" y1="20.8301" x2="32.6953" y2="20.8301" gradientUnits="userSpaceOnUse">
<stop stop-color="#223962"/>
<stop offset="0.526042" stop-color="#3277BC"/>
<stop offset="0.973958" stop-color="#48ABDF"/>
</linearGradient>
<linearGradient id="paint11_linear_343_4919" x1="25.6055" y1="25.5176" x2="43.7695" y2="25.5176" gradientUnits="userSpaceOnUse">
<stop stop-color="#223962"/>
<stop offset="0.526042" stop-color="#3277BC"/>
<stop offset="0.973958" stop-color="#48ABDF"/>
</linearGradient>
<linearGradient id="paint12_linear_343_4919" x1="25.6055" y1="30.2051" x2="37.3605" y2="30.2051" gradientUnits="userSpaceOnUse">
<stop stop-color="#223962"/>
<stop offset="0.526042" stop-color="#3277BC"/>
<stop offset="0.973958" stop-color="#48ABDF"/>
</linearGradient>
<clipPath id="clip0_343_4919">
<rect width="60" height="45.6445" fill="white"/>
</clipPath>
</defs>
</svg>
