<svg width="60" height="55" viewBox="0 0 60 55" fill="none" xmlns="http://www.w3.org/2000/svg">
<g clip-path="url(#clip0_343_4873)">
<path d="M42.5479 29.191C42.4248 29.1787 42.3009 29.1717 42.1752 29.1717H38.3661C37.3571 25.4258 33.9295 22.7637 30 22.7637C26.0704 22.7637 22.6428 25.4258 21.6338 29.1717H17.8247C16.4413 29.1717 15.2355 29.9442 14.615 31.0806C14.615 31.0824 14.6132 31.0832 14.6124 31.085C14.6009 31.1061 14.5904 31.1281 14.579 31.1492C14.4313 31.4339 14.3197 31.7398 14.2511 32.0614C14.2283 32.1669 14.2116 32.2741 14.1984 32.3822C14.1808 32.5273 14.1703 32.6749 14.1703 32.8252V51.2678C14.1703 53.2822 15.8094 54.9222 17.8247 54.9222H35.5712C35.5712 54.9222 35.5721 54.9222 35.573 54.9222H39.7811C39.7811 54.9222 39.782 54.9222 39.7829 54.9222H42.1761C44.1914 54.9222 45.8305 53.2831 45.8305 51.2678V32.8252C45.8305 30.9365 44.39 29.3773 42.5496 29.1901L42.5479 29.191ZM29.9991 24.5223C32.9697 24.5223 35.5818 26.4295 36.5292 29.1725H23.4689C24.4173 26.4295 27.0284 24.5223 29.9991 24.5223ZM42.1743 30.9303C43.2202 30.9303 44.071 31.7811 44.071 32.827V39.2727C44.071 40.3186 43.2202 41.1694 42.1743 41.1694H39.7811C39.7811 41.1694 39.7802 41.1694 39.7794 41.1694H35.5712C35.5712 41.1694 35.5704 41.1694 35.5695 41.1694H17.823C16.7771 41.1694 15.9263 40.3186 15.9263 39.2727V32.827C15.9263 32.7619 15.9298 32.6969 15.936 32.6336C16.0335 31.6782 16.8421 30.9303 17.823 30.9303H42.1735H42.1743ZM34.6932 42.9271V53.1662H25.3049V42.9271H34.6932ZM15.9272 51.2696V42.3954C16.48 42.7329 17.1295 42.9271 17.8238 42.9271H19.3399V53.1662H17.8238C16.778 53.1662 15.9272 52.3154 15.9272 51.2696ZM21.0977 53.1662V42.9271H23.548V53.1662H21.0977ZM42.1752 53.1662H40.6591V50.098C40.6591 49.6129 40.2654 49.2191 39.7802 49.2191C39.2951 49.2191 38.9014 49.6129 38.9014 50.098V53.1662H36.451V42.9271H38.9014V45.9962C38.9014 46.4814 39.2951 46.8751 39.7802 46.8751C40.2654 46.8751 40.6591 46.4814 40.6591 45.9962V42.9271H42.1752C42.8695 42.9271 43.5182 42.7329 44.0719 42.3954V51.2696C44.0719 52.3154 43.2211 53.1662 42.1752 53.1662Z" fill="url(#paint0_linear_343_4873)"/>
<path d="M28.6061 38.3379H31.3921C31.8773 38.3379 32.271 37.9441 32.271 37.459C32.271 36.9738 31.8773 36.5801 31.3921 36.5801H28.6061C28.1209 36.5801 27.7272 36.9738 27.7272 37.459C27.7272 37.9441 28.1209 38.3379 28.6061 38.3379Z" fill="url(#paint1_linear_343_4873)"/>
<path d="M59.7117 11.9917C59.3707 11.5268 58.8082 11.3097 58.244 11.4249C55.7866 11.9267 53.2642 11.17 51.4941 9.40078C49.7249 7.63157 48.9673 5.10828 49.4691 2.65179C49.5843 2.08666 49.3663 1.52329 48.9005 1.18053C48.4329 0.836881 47.8274 0.79821 47.3211 1.07858C46.495 1.53648 45.7453 2.11918 45.0914 2.81087C41.7999 6.29566 41.7577 11.7914 44.9956 15.3227C46.7103 17.1921 49.0473 18.2521 51.5767 18.3066C51.6453 18.3083 51.7138 18.3092 51.7824 18.3092C54.2353 18.3092 56.5345 17.3582 58.2747 15.6172C58.8803 15.0116 59.3979 14.3269 59.811 13.5817C60.094 13.071 60.0562 12.4619 59.7108 11.9917H59.7117ZM57.032 14.3735C55.5853 15.8202 53.6641 16.5918 51.6145 16.5488C49.5693 16.5048 47.6788 15.647 46.2911 14.1336C43.6737 11.279 43.708 6.8353 46.3693 4.0167C46.7542 3.60978 47.1787 3.24943 47.6393 2.94094C47.2649 5.77008 48.2176 8.6089 50.2513 10.6426C52.2851 12.6764 55.123 13.6282 57.953 13.2547C57.6841 13.6555 57.3765 14.0299 57.0328 14.3735H57.032Z" fill="url(#paint2_linear_343_4873)"/>
<path d="M54.0473 3.28089H54.6916V3.92512C54.6916 4.41027 55.0853 4.80401 55.5705 4.80401C56.0556 4.80401 56.4494 4.41027 56.4494 3.92512V3.28089H57.0936C57.5787 3.28089 57.9725 2.88715 57.9725 2.402C57.9725 1.91686 57.5787 1.52311 57.0936 1.52311H56.4494V0.878889C56.4494 0.393742 56.0556 0 55.5705 0C55.0853 0 54.6916 0.393742 54.6916 0.878889V1.52311H54.0473C53.5622 1.52311 53.1685 1.91686 53.1685 2.402C53.1685 2.88715 53.5622 3.28089 54.0473 3.28089Z" fill="url(#paint3_linear_343_4873)"/>
<path d="M9.72667 3.38988C10.2118 3.38988 10.6056 2.99613 10.6056 2.51099V0.878889C10.6056 0.393742 10.2118 0 9.72667 0C9.24152 0 8.84778 0.393742 8.84778 0.878889V2.51099C8.84778 2.99613 9.24152 3.38988 9.72667 3.38988Z" fill="url(#paint4_linear_343_4873)"/>
<path d="M9.72667 16.0635C9.24152 16.0635 8.84778 16.4572 8.84778 16.9424V18.5745C8.84778 19.0596 9.24152 19.4534 9.72667 19.4534C10.2118 19.4534 10.6056 19.0596 10.6056 18.5745V16.9424C10.6056 16.4572 10.2118 16.0635 9.72667 16.0635Z" fill="url(#paint5_linear_343_4873)"/>
<path d="M4.00245 5.24529C4.17383 5.41667 4.39883 5.5028 4.62383 5.5028C4.84882 5.5028 5.07382 5.41667 5.2452 5.24529C5.58885 4.90164 5.58885 4.3453 5.2452 4.00254L4.09122 2.84855C3.74757 2.50491 3.19124 2.50491 2.84847 2.84855C2.5057 3.1922 2.50482 3.74854 2.84847 4.0913L4.00245 5.24529Z" fill="url(#paint6_linear_343_4873)"/>
<path d="M15.3613 16.6043C15.5326 16.7757 15.7576 16.8618 15.9826 16.8618C16.2076 16.8618 16.4326 16.7757 16.604 16.6043C16.9476 16.2607 16.9468 15.7043 16.604 15.3616L15.45 14.2076C15.1064 13.864 14.55 13.8648 14.2073 14.2076C13.8645 14.5504 13.8645 15.1076 14.2073 15.4503L15.3613 16.6043Z" fill="url(#paint7_linear_343_4873)"/>
<path d="M3.38988 9.72655C3.38988 9.2414 2.99613 8.84766 2.51099 8.84766H0.878889C0.393742 8.84766 0 9.2414 0 9.72655C0 10.2117 0.393742 10.6054 0.878889 10.6054H2.51099C2.99613 10.6054 3.38988 10.2117 3.38988 9.72655Z" fill="url(#paint8_linear_343_4873)"/>
<path d="M16.0635 9.72655C16.0635 10.2117 16.4572 10.6054 16.9424 10.6054H18.5745C19.0596 10.6054 19.4534 10.2117 19.4534 9.72655C19.4534 9.2414 19.0596 8.84766 18.5745 8.84766H16.9424C16.4572 8.84766 16.0635 9.2414 16.0635 9.72655Z" fill="url(#paint9_linear_343_4873)"/>
<path d="M23.5912 10.6068H32.3212V12.2996C32.3212 12.8779 32.6358 13.4105 33.1421 13.69C33.3811 13.8218 33.6457 13.8877 33.9093 13.8877C34.2038 13.8877 34.4982 13.806 34.7557 13.6434L38.8399 11.07C39.3039 10.7773 39.5808 10.2755 39.5808 9.72708C39.5808 9.17865 39.3039 8.67592 38.8399 8.38325L34.7557 5.80987C34.2662 5.50138 33.6483 5.4838 33.1421 5.76329C32.6358 6.04277 32.3212 6.57538 32.3212 7.15369V8.84995H23.5912C23.106 8.84995 22.7123 9.24369 22.7123 9.72883C22.7123 10.214 23.106 10.6077 23.5912 10.6077V10.6068ZM34.079 7.4613L37.6745 9.72708L34.079 11.9929V7.4613Z" fill="url(#paint10_linear_343_4873)"/>
<path d="M4.00241 14.2076L2.84843 15.3616C2.50479 15.7052 2.50479 16.2616 2.84843 16.6043C3.01982 16.7757 3.24481 16.8618 3.46981 16.8618C3.6948 16.8618 3.9198 16.7757 4.09118 16.6043L5.24516 15.4503C5.58881 15.1067 5.58881 14.5504 5.24516 14.2076C4.90152 13.8648 4.34518 13.864 4.00241 14.2076Z" fill="url(#paint11_linear_343_4873)"/>
<path d="M14.8286 5.50312C15.0536 5.50312 15.2786 5.41699 15.4499 5.2456L16.6039 4.09162C16.9476 3.74798 16.9476 3.19164 16.6039 2.84887C16.2603 2.50611 15.7039 2.50611 15.3612 2.84887L14.2072 4.00285C13.8636 4.3465 13.8636 4.90284 14.2072 5.2456C14.3786 5.41699 14.6036 5.50312 14.8286 5.50312Z" fill="url(#paint12_linear_343_4873)"/>
<path d="M9.72668 4.55078C6.87293 4.55078 4.5509 6.87281 4.5509 9.72656C4.5509 11.6241 5.58711 13.3669 7.25612 14.2757C7.68239 14.5077 8.21587 14.3504 8.4479 13.9241C8.67992 13.4979 8.5226 12.9644 8.09634 12.7324C6.99422 12.1321 6.30868 10.9807 6.30868 9.72744C6.30868 7.8431 7.84234 6.30944 9.72668 6.30944C11.611 6.30944 13.1447 7.8431 13.1447 9.72744C13.1447 10.9807 12.46 12.1321 11.357 12.7324C10.9308 12.9644 10.7734 13.4979 11.0055 13.9241C11.1645 14.2168 11.4669 14.3829 11.778 14.3829C11.9195 14.3829 12.0636 14.3486 12.1972 14.2757C13.8654 13.3678 14.9025 11.625 14.9025 9.72656C14.9025 6.87281 12.5804 4.55078 9.72668 4.55078Z" fill="url(#paint13_linear_343_4873)"/>
</g>
<defs>
<linearGradient id="paint0_linear_343_4873" x1="14.1703" y1="38.843" x2="45.8305" y2="38.843" gradientUnits="userSpaceOnUse">
<stop stop-color="#223962"/>
<stop offset="0.526042" stop-color="#3277BC"/>
<stop offset="0.973958" stop-color="#48ABDF"/>
</linearGradient>
<linearGradient id="paint1_linear_343_4873" x1="27.7272" y1="37.459" x2="32.271" y2="37.459" gradientUnits="userSpaceOnUse">
<stop stop-color="#223962"/>
<stop offset="0.526042" stop-color="#3277BC"/>
<stop offset="0.973958" stop-color="#48ABDF"/>
</linearGradient>
<linearGradient id="paint2_linear_343_4873" x1="42.5947" y1="9.60089" x2="59.9994" y2="9.60089" gradientUnits="userSpaceOnUse">
<stop stop-color="#223962"/>
<stop offset="0.526042" stop-color="#3277BC"/>
<stop offset="0.973958" stop-color="#48ABDF"/>
</linearGradient>
<linearGradient id="paint3_linear_343_4873" x1="53.1685" y1="2.40201" x2="57.9725" y2="2.40201" gradientUnits="userSpaceOnUse">
<stop stop-color="#223962"/>
<stop offset="0.526042" stop-color="#3277BC"/>
<stop offset="0.973958" stop-color="#48ABDF"/>
</linearGradient>
<linearGradient id="paint4_linear_343_4873" x1="8.84778" y1="1.69494" x2="10.6056" y2="1.69494" gradientUnits="userSpaceOnUse">
<stop stop-color="#223962"/>
<stop offset="0.526042" stop-color="#3277BC"/>
<stop offset="0.973958" stop-color="#48ABDF"/>
</linearGradient>
<linearGradient id="paint5_linear_343_4873" x1="8.84778" y1="17.7584" x2="10.6056" y2="17.7584" gradientUnits="userSpaceOnUse">
<stop stop-color="#223962"/>
<stop offset="0.526042" stop-color="#3277BC"/>
<stop offset="0.973958" stop-color="#48ABDF"/>
</linearGradient>
<linearGradient id="paint6_linear_343_4873" x1="2.59106" y1="4.04681" x2="5.50293" y2="4.04681" gradientUnits="userSpaceOnUse">
<stop stop-color="#223962"/>
<stop offset="0.526042" stop-color="#3277BC"/>
<stop offset="0.973958" stop-color="#48ABDF"/>
</linearGradient>
<linearGradient id="paint7_linear_343_4873" x1="13.9502" y1="15.406" x2="16.8614" y2="15.406" gradientUnits="userSpaceOnUse">
<stop stop-color="#223962"/>
<stop offset="0.526042" stop-color="#3277BC"/>
<stop offset="0.973958" stop-color="#48ABDF"/>
</linearGradient>
<linearGradient id="paint8_linear_343_4873" x1="-1.26283e-08" y1="9.72655" x2="3.38988" y2="9.72655" gradientUnits="userSpaceOnUse">
<stop stop-color="#223962"/>
<stop offset="0.526042" stop-color="#3277BC"/>
<stop offset="0.973958" stop-color="#48ABDF"/>
</linearGradient>
<linearGradient id="paint9_linear_343_4873" x1="16.0635" y1="9.72655" x2="19.4534" y2="9.72655" gradientUnits="userSpaceOnUse">
<stop stop-color="#223962"/>
<stop offset="0.526042" stop-color="#3277BC"/>
<stop offset="0.973958" stop-color="#48ABDF"/>
</linearGradient>
<linearGradient id="paint10_linear_343_4873" x1="22.7123" y1="9.72659" x2="39.5808" y2="9.72659" gradientUnits="userSpaceOnUse">
<stop stop-color="#223962"/>
<stop offset="0.526042" stop-color="#3277BC"/>
<stop offset="0.973958" stop-color="#48ABDF"/>
</linearGradient>
<linearGradient id="paint11_linear_343_4873" x1="2.5907" y1="15.406" x2="5.5029" y2="15.406" gradientUnits="userSpaceOnUse">
<stop stop-color="#223962"/>
<stop offset="0.526042" stop-color="#3277BC"/>
<stop offset="0.973958" stop-color="#48ABDF"/>
</linearGradient>
<linearGradient id="paint12_linear_343_4873" x1="13.9495" y1="4.04746" x2="16.8617" y2="4.04746" gradientUnits="userSpaceOnUse">
<stop stop-color="#223962"/>
<stop offset="0.526042" stop-color="#3277BC"/>
<stop offset="0.973958" stop-color="#48ABDF"/>
</linearGradient>
<linearGradient id="paint13_linear_343_4873" x1="4.5509" y1="9.46685" x2="14.9025" y2="9.46685" gradientUnits="userSpaceOnUse">
<stop stop-color="#223962"/>
<stop offset="0.526042" stop-color="#3277BC"/>
<stop offset="0.973958" stop-color="#48ABDF"/>
</linearGradient>
<clipPath id="clip0_343_4873">
<rect width="60" height="54.9227" fill="white"/>
</clipPath>
</defs>
</svg>
