<svg width="74" height="74" viewBox="0 0 74 74" fill="none" xmlns="http://www.w3.org/2000/svg">
<path d="M36.9984 28.9646C32.5677 28.9646 28.9629 32.5692 28.9629 37.0001C28.9629 41.431 32.5675 45.0356 36.9984 45.0356C41.4293 45.0356 45.0339 41.431 45.0339 37.0001C45.0339 32.5692 41.4292 28.9646 36.9984 28.9646ZM36.9984 42.8677C33.7631 42.8677 31.1309 40.2355 31.1309 37.0001C31.1309 33.7648 33.7629 31.1326 36.9984 31.1326C40.2339 31.1326 42.866 33.7648 42.866 37.0001C42.866 40.2355 40.2337 42.8677 36.9984 42.8677Z" fill="url(#paint0_linear_1_1677)"/>
<path d="M60.3112 36.997C60.8509 36.4881 61.3721 35.9794 61.8731 35.4712C62.4899 35.7831 63.186 35.96 63.9231 35.96C66.4374 35.96 68.4828 33.9146 68.4828 31.4003C68.4828 30.3166 68.1021 29.3205 67.4683 28.5373C69.949 24.4808 70.4949 21.0185 69.0411 18.5002C67.0921 15.1245 61.8533 14.0347 54.2895 15.4318C52.4909 15.7639 50.6049 16.2258 48.6564 16.8077C48.1859 14.8292 47.6431 12.9649 47.0314 11.2412C44.4592 3.99211 40.8959 0 36.9982 0C33.1004 0 29.537 3.99211 26.9649 11.2411C26.3528 12.9662 25.8094 14.8321 25.3388 16.8125C24.5145 16.5656 23.7029 16.3397 22.9072 16.1377C22.8078 13.7107 20.8033 11.7669 18.3523 11.7669C16.3596 11.7669 14.6627 13.0522 14.0438 14.8367C9.50248 14.7938 6.36774 16.0537 4.95523 18.5C3.00637 21.8756 4.68207 26.9576 9.67361 32.8097C10.8605 34.2011 12.2035 35.6035 13.6818 37.0001C12.2035 38.3967 10.8605 39.7991 9.67361 41.1905C4.68192 47.0426 3.00623 52.1246 4.95509 55.5001C6.35025 57.9167 9.43123 59.1617 13.8445 59.1617C15.5961 59.1617 17.5577 58.9655 19.7067 58.5685C21.5058 58.2362 23.3925 57.7742 25.3418 57.192C25.5059 57.8804 25.6806 58.5536 25.8623 59.2163C24.566 60.0212 23.7005 61.4573 23.7005 63.0922C23.7005 65.6065 25.746 67.6519 28.2602 67.6519C28.5366 67.6519 28.8068 67.6259 29.0697 67.5785C31.3473 71.782 34.0796 74 36.9979 74C40.8957 74 44.459 70.0079 47.0311 62.7589C47.6433 61.0335 48.1868 59.167 48.6575 57.1862C51.5813 58.0611 54.343 58.6629 56.8341 58.956C58.0772 59.1023 59.2008 59.1688 60.2174 59.1688C65.6643 59.1686 68.0242 57.2611 69.0409 55.5C70.9898 52.1244 69.3141 47.0424 64.3226 41.1903C63.1348 39.7979 61.7907 38.3945 60.3112 36.997ZM63.9231 33.792C62.6042 33.792 61.5314 32.719 61.5314 31.4003C61.5314 30.0816 62.6042 29.0086 63.9231 29.0086C65.2419 29.0086 66.3148 30.0816 66.3148 31.4003C66.3148 32.719 65.2419 33.792 63.9231 33.792ZM29.008 11.9661C31.2175 5.7392 34.1298 2.16797 36.9982 2.16797C39.8665 2.16797 42.7787 5.7392 44.9883 11.9661C45.5907 13.6637 46.1237 15.5059 46.5845 17.4642C43.4879 18.4989 40.2608 19.8159 36.9957 21.3781C33.7452 19.8245 30.5064 18.5052 27.4108 17.4694C27.8716 15.5091 28.405 13.6652 29.008 11.9661ZM26.9473 19.5993C29.398 20.4285 31.9429 21.4407 34.5125 22.6102C33.0363 23.3686 31.5573 24.1736 30.0839 25.0243C28.6094 25.8756 27.1718 26.7545 25.776 27.6544C26.0464 24.838 26.4393 22.1356 26.9473 19.5993ZM18.3521 13.9349C19.671 13.9349 20.7439 15.0077 20.7439 16.3266C20.7439 17.6454 19.671 18.7184 18.3521 18.7184C17.0333 18.7184 15.9604 17.6454 15.9604 16.3266C15.9603 15.0077 17.0333 13.9349 18.3521 13.9349ZM11.323 31.4027C7.03519 26.3757 5.39851 22.0679 6.83255 19.584C8.04214 17.4889 11.161 16.9978 13.8428 17.0025C14.1704 19.1974 16.0675 20.8864 18.3521 20.8864C20.1735 20.8864 21.7482 19.8125 22.4782 18.265C23.2607 18.4653 24.06 18.6902 24.8717 18.9355C24.2201 22.1323 23.7477 25.5828 23.4681 29.1886C20.4834 31.2346 17.7301 33.3705 15.2865 35.5341C13.8208 34.156 12.492 32.7732 11.323 31.4027ZM23.2935 42.046C20.9881 40.4022 18.8424 38.7096 16.8987 37.0001C18.8424 35.2906 20.988 33.5978 23.2935 31.9542C23.212 33.613 23.1698 35.2975 23.1698 37.0001C23.1697 38.7055 23.2127 40.3889 23.2935 42.046ZM19.313 56.4367C12.8157 57.6364 8.26674 56.9 6.83255 54.4161C5.39851 51.9321 7.03504 47.6244 11.323 42.5975C12.492 41.227 13.8208 39.8443 15.2863 38.4662C17.7295 40.6294 20.482 42.7647 23.4658 44.8103C23.744 48.4136 24.2178 51.8579 24.8746 55.0694C22.9477 55.6498 21.0851 56.1095 19.313 56.4367ZM28.2604 65.4841C26.9415 65.4841 25.8687 64.4112 25.8687 63.0924C25.8687 61.7735 26.9415 60.7006 28.2604 60.7006C29.5792 60.7006 30.6521 61.7736 30.6521 63.0924C30.6521 64.4112 29.5792 65.4841 28.2604 65.4841ZM44.9882 62.0341C42.7787 68.2609 39.8664 71.8322 36.9982 71.8322C34.9812 71.8322 32.8868 70.0138 31.0549 66.6916C32.1279 65.8567 32.8202 64.5541 32.8202 63.0924C32.8202 60.5781 30.7748 58.5327 28.2605 58.5327C28.1472 58.5327 28.0352 58.5383 27.9239 58.5464C27.7461 57.8921 27.5772 57.2206 27.4166 56.5345C30.5114 55.5003 33.7367 54.1839 36.9998 52.6226C40.2624 54.1821 43.4972 55.4975 46.5858 56.5299C46.1248 58.4903 45.5913 60.3347 44.9882 62.0341ZM47.0493 54.3996C44.6046 53.5729 42.0623 52.5635 39.484 51.3899C40.9601 50.6316 42.4391 49.8265 43.9126 48.9758C45.3801 48.1284 46.8191 47.2476 48.2206 46.3423C47.9502 49.1594 47.5574 51.8627 47.0493 54.3996ZM48.4419 43.6017C46.6374 44.812 44.7586 45.9839 42.8283 47.0983C37.4565 50.1997 32.0217 52.692 26.9555 54.4043C26.4495 51.8667 26.0564 49.1591 25.7843 46.3511C27.1774 47.2491 28.6123 48.1263 30.0838 48.9758C30.5331 49.2352 30.99 49.4944 31.4414 49.7462C31.6084 49.8394 31.7895 49.8836 31.9682 49.8836C32.3484 49.8836 32.7176 49.683 32.916 49.3273C33.2075 48.8044 33.0199 48.1442 32.497 47.8527C32.055 47.6062 31.6079 47.3526 31.1679 47.0985C29.2276 45.9782 27.353 44.8107 25.5592 43.6104C25.4131 41.4411 25.3377 39.2277 25.3377 37.0002C25.3377 34.7578 25.4116 32.5486 25.5544 30.3932C27.3497 29.1918 29.2258 28.0232 31.1678 26.9019C36.542 23.7991 41.9794 21.3058 47.0477 19.5936C47.5563 22.1315 47.9495 24.836 48.2202 27.6545C46.8244 26.7547 45.3868 25.8758 43.9124 25.0245C43.4337 24.748 42.9452 24.4711 42.46 24.2014C41.9367 23.9104 41.2767 24.0986 40.9858 24.6218C40.6947 25.145 40.883 25.8051 41.4062 26.096C41.8813 26.3602 42.3597 26.6314 42.8283 26.9019C44.7702 28.0232 46.6464 29.1918 48.4416 30.3932C48.5845 32.5486 48.6584 34.7578 48.6584 37.0002C48.6584 39.2407 48.5845 41.448 48.4419 43.6017ZM54.6832 17.5635C61.1805 16.3636 65.7294 17.1001 67.1636 19.584C68.1626 21.3145 67.6532 24.0073 65.7342 27.2166C65.1786 26.9752 64.5664 26.8405 63.9231 26.8405C61.4088 26.8405 59.3634 28.8859 59.3634 31.4002C59.3634 32.3914 59.6822 33.309 60.2215 34.0578C59.7351 34.5484 59.23 35.0396 58.7064 35.5309C56.2635 33.3681 53.5115 31.2334 50.5282 29.1884C50.2487 25.5806 49.7756 22.1284 49.1236 18.9302C51.0498 18.35 52.9118 17.8905 54.6832 17.5635ZM50.7026 31.9542C53.006 33.5964 55.1499 35.2875 57.0921 36.9954C55.1474 38.7028 52.9991 40.397 50.7031 42.0366C50.7843 40.3808 50.8264 38.6993 50.8264 36.9999C50.8265 35.2975 50.7842 33.613 50.7026 31.9542ZM67.1636 54.4161C65.9182 56.5731 62.3399 57.4208 57.0876 56.8031C54.6713 56.5188 51.9812 55.9278 49.1245 55.0651C49.7763 51.8664 50.2491 48.4136 50.5285 44.8054C53.4989 42.7651 56.2592 40.6242 58.7054 38.4622C60.1726 39.8416 61.5029 41.2257 62.673 42.5975C66.9611 47.6244 68.5977 51.9321 67.1636 54.4161Z" fill="url(#paint1_linear_1_1677)"/>
<defs>
<linearGradient id="paint0_linear_1_1677" x1="28.9629" y1="37.0001" x2="45.0339" y2="37.0001" gradientUnits="userSpaceOnUse">
<stop stop-color="#223962"/>
<stop offset="0.526042" stop-color="#3277BC"/>
<stop offset="0.973958" stop-color="#48ABDF"/>
</linearGradient>
<linearGradient id="paint1_linear_1_1677" x1="4.16309" y1="37" x2="69.837" y2="37" gradientUnits="userSpaceOnUse">
<stop stop-color="#223962"/>
<stop offset="0.526042" stop-color="#3277BC"/>
<stop offset="0.973958" stop-color="#48ABDF"/>
</linearGradient>
</defs>
</svg>
