<svg width="74" height="74" viewBox="0 0 74 74" fill="none" xmlns="http://www.w3.org/2000/svg">
<g clip-path="url(#clip0_1_1710)">
<path d="M45.6841 28.4932L45.6 28.4091C43.6768 26.4861 40.5476 26.486 38.6246 28.4091C37.6929 29.3406 37.1797 30.5792 37.1797 31.8968C37.1797 33.2143 37.6928 34.4529 38.6245 35.3845L38.7086 35.4686C40.4001 37.1599 41.3316 39.4088 41.3316 41.8008C41.3316 44.1928 40.4002 46.4416 38.7086 48.1329L30.2696 56.5719C29.8432 56.9985 29.8432 57.6897 30.2696 58.1161C30.696 58.5422 31.3872 58.5425 31.8137 58.1161L40.2528 49.6771C42.3565 47.5732 43.5152 44.776 43.5152 41.8007C43.5152 38.8253 42.3565 36.0282 40.2528 33.9243L40.1685 33.8402C39.6495 33.3212 39.3634 32.6308 39.3634 31.8967C39.3634 31.1624 39.6495 30.4722 40.1686 29.9531C41.2402 28.8812 42.9841 28.8812 44.0557 29.9531L44.1399 30.0372C50.6264 36.5236 50.6264 47.0777 44.1399 53.564L30.7516 66.9524C24.2653 73.4389 13.7107 73.4388 7.22465 66.9523C4.08248 63.8102 2.35199 59.6326 2.35199 55.1888C2.35199 50.745 4.08248 46.5674 7.22465 43.4253L20.6921 29.9579C21.1185 29.5313 21.1185 28.8401 20.6921 28.4137C20.2656 27.9875 19.5744 27.9875 19.148 28.4137L5.68049 41.8812C2.12591 45.4359 0.168457 50.162 0.168457 55.1891C0.168457 60.2162 2.12591 64.9421 5.68049 68.4969C9.34951 72.1656 14.1689 74.0002 18.9881 74.0002C23.8075 74.0002 28.6269 72.1656 32.2959 68.4969L45.6841 55.1084C53.022 47.7706 53.022 35.8311 45.6841 28.4932Z" fill="url(#paint0_linear_1_1710)"/>
<path d="M19.7948 38.6299L11.1118 47.3129C8.98825 49.4366 7.83134 52.2643 7.85434 55.2749C7.8772 58.2847 9.07778 61.0945 11.2348 63.1866C13.3633 65.2513 16.1449 66.2787 18.9394 66.2787C21.8437 66.2787 24.7621 65.1679 26.9726 62.9578L28.5237 61.4065C28.9501 60.9801 28.9501 60.2887 28.5236 59.8625C28.0973 59.4362 27.406 59.4361 26.9796 59.8626L25.4286 61.4137C21.93 64.9121 16.2449 65.0044 12.7552 61.6192C11.0215 59.9374 10.0565 57.6786 10.038 55.2584C10.0195 52.8371 10.9493 50.5638 12.6561 48.857L21.3391 40.1741C21.7655 39.7476 21.7655 39.0564 21.3391 38.63C20.9127 38.2037 20.2215 38.2035 19.7948 38.6299Z" fill="url(#paint1_linear_1_1710)"/>
<path d="M68.3284 5.51218C64.7739 1.95759 60.0478 0 55.0208 0C49.9939 0 45.2678 1.95759 41.7134 5.51218L40.9649 6.26045C40.5384 6.68685 40.5384 7.37821 40.9648 7.80446C41.3912 8.23071 42.0823 8.231 42.5088 7.8046L43.2574 7.05633C46.3994 3.91431 50.5772 2.18368 55.0208 2.18368C59.4645 2.18368 63.6423 3.91431 66.7844 7.05648C73.2708 13.5429 73.2708 24.097 66.7844 30.5833L53.317 44.0507C52.8906 44.4773 52.8906 45.1685 53.317 45.5949C53.5303 45.808 53.8098 45.9146 54.0891 45.9146C54.3685 45.9146 54.648 45.808 54.8613 45.5949L68.3287 32.1274C75.6662 24.7895 75.6662 12.8501 68.3284 5.51218Z" fill="url(#paint2_linear_1_1710)"/>
<path d="M54.2141 35.379L62.897 26.696C65.0205 24.5724 66.1775 21.745 66.1546 18.7343C66.1317 15.7245 64.9312 12.9145 62.7741 10.8223C58.4334 6.61198 51.3737 6.71403 47.0364 11.0511L33.7558 24.3316C29.4128 28.6747 29.4128 35.7415 33.7566 40.0851L33.8401 40.1685C34.9117 41.2403 34.9117 42.9842 33.8401 44.0556C33.3211 44.5748 32.6307 44.8607 31.8965 44.8607C31.1624 44.8607 30.472 44.5748 29.9529 44.0556L29.8687 43.9715C23.3822 37.4851 23.3822 26.9308 29.8687 20.4446L39.2185 11.0948C39.6449 10.6682 39.6449 9.97703 39.2185 9.55063C38.792 9.12438 38.1008 9.12438 37.6744 9.55063L28.3246 18.9004C20.9869 26.2383 20.9869 38.1779 28.3246 45.5158L28.4087 45.5999C29.3703 46.5613 30.6335 47.0422 31.8965 47.0422C33.1595 47.0422 34.4227 46.5613 35.3843 45.5999C37.3072 43.6768 37.3072 40.5478 35.3835 38.624L35.3 38.5404C31.8083 35.0488 31.8083 29.3675 35.3 25.8759L48.5804 12.5954C52.0791 9.09715 57.7643 9.005 61.2537 12.39C62.9874 14.0717 63.9524 16.3308 63.9708 18.751C63.9893 21.1722 63.0595 23.4454 61.3528 25.152L52.6698 33.835C52.2434 34.2616 52.2434 34.9528 52.6698 35.3792C53.0964 35.8053 53.7876 35.8053 54.2141 35.379Z" fill="url(#paint3_linear_1_1710)"/>
<path d="M56.5078 55.1175C56.0816 54.6912 55.3902 54.6911 54.9638 55.1176C54.5374 55.544 54.5374 56.2354 54.964 56.6616L58.5538 60.2513C58.7669 60.4644 59.0464 60.571 59.3258 60.571C59.6052 60.571 59.8847 60.4644 60.0979 60.2511C60.5243 59.8247 60.5243 59.1334 60.0978 58.7071L56.5078 55.1175Z" fill="url(#paint4_linear_1_1710)"/>
<path d="M64.5598 49.7962L59.6505 48.5034C59.067 48.3503 58.4701 48.6979 58.3165 49.2812C58.163 49.8644 58.5113 50.4616 59.0944 50.6152L64.0037 51.9079C64.097 51.9324 64.1903 51.9442 64.2825 51.9442C64.7664 51.9442 65.2085 51.62 65.3376 51.1301C65.4912 50.5469 65.1429 49.9496 64.5598 49.7962Z" fill="url(#paint5_linear_1_1710)"/>
<path d="M50.4615 59.2481C50.3077 58.6651 49.7111 58.3169 49.1275 58.4703C48.5445 58.6239 48.1963 59.221 48.3497 59.8042L49.6424 64.7136C49.7716 65.2034 50.2137 65.5276 50.6976 65.5276C50.7896 65.5276 50.883 65.5159 50.9764 65.4914C51.5594 65.3378 51.9076 64.7407 51.7542 64.1575L50.4615 59.2481Z" fill="url(#paint6_linear_1_1710)"/>
<path d="M17.1788 18.8768C17.3921 19.09 17.6715 19.1966 17.951 19.1966C18.2304 19.1966 18.5099 19.09 18.723 18.8769C19.1495 18.4505 19.1495 17.7592 18.7231 17.3329L15.1335 13.7431C14.7071 13.3165 14.0157 13.3167 13.5895 13.7429C13.1629 14.1693 13.1629 14.8607 13.5893 15.2869L17.1788 18.8768Z" fill="url(#paint7_linear_1_1710)"/>
<path d="M23.2254 14.7462C23.3546 15.2361 23.7967 15.5603 24.2806 15.5603C24.3726 15.5603 24.4661 15.5485 24.5594 15.524C25.1424 15.3705 25.4906 14.7733 25.3372 14.1901L24.0445 9.28062C23.8907 8.69758 23.294 8.34964 22.7105 8.50279C22.1275 8.65638 21.7793 9.25354 21.9327 9.83673L23.2254 14.7462Z" fill="url(#paint8_linear_1_1710)"/>
<path d="M9.12703 24.1982L14.0364 25.4909C14.1297 25.5154 14.223 25.5272 14.3152 25.5272C14.7991 25.5272 15.2412 25.203 15.3703 24.7131C15.5239 24.1299 15.1755 23.5328 14.5925 23.3792L9.68314 22.0864C9.09981 21.9333 8.50294 22.2809 8.3492 22.8643C8.19577 23.4473 8.54399 24.0446 9.12703 24.1982Z" fill="url(#paint9_linear_1_1710)"/>
</g>
<defs>
<linearGradient id="paint0_linear_1_1710" x1="0.168457" y1="50.4835" x2="51.1876" y2="50.4835" gradientUnits="userSpaceOnUse">
<stop stop-color="#223962"/>
<stop offset="0.526042" stop-color="#3277BC"/>
<stop offset="0.973958" stop-color="#48ABDF"/>
</linearGradient>
<linearGradient id="paint1_linear_1_1710" x1="7.854" y1="52.2944" x2="28.8435" y2="52.2944" gradientUnits="userSpaceOnUse">
<stop stop-color="#223962"/>
<stop offset="0.526042" stop-color="#3277BC"/>
<stop offset="0.973958" stop-color="#48ABDF"/>
</linearGradient>
<linearGradient id="paint2_linear_1_1710" x1="40.645" y1="22.9573" x2="73.8318" y2="22.9573" gradientUnits="userSpaceOnUse">
<stop stop-color="#223962"/>
<stop offset="0.526042" stop-color="#3277BC"/>
<stop offset="0.973958" stop-color="#48ABDF"/>
</linearGradient>
<linearGradient id="paint3_linear_1_1710" x1="22.8213" y1="27.3862" x2="66.1549" y2="27.3862" gradientUnits="userSpaceOnUse">
<stop stop-color="#223962"/>
<stop offset="0.526042" stop-color="#3277BC"/>
<stop offset="0.973958" stop-color="#48ABDF"/>
</linearGradient>
<linearGradient id="paint4_linear_1_1710" x1="54.644" y1="57.6844" x2="60.4177" y2="57.6844" gradientUnits="userSpaceOnUse">
<stop stop-color="#223962"/>
<stop offset="0.526042" stop-color="#3277BC"/>
<stop offset="0.973958" stop-color="#48ABDF"/>
</linearGradient>
<linearGradient id="paint5_linear_1_1710" x1="58.2803" y1="50.2057" x2="65.3739" y2="50.2057" gradientUnits="userSpaceOnUse">
<stop stop-color="#223962"/>
<stop offset="0.526042" stop-color="#3277BC"/>
<stop offset="0.973958" stop-color="#48ABDF"/>
</linearGradient>
<linearGradient id="paint6_linear_1_1710" x1="48.3135" y1="61.9809" x2="51.7904" y2="61.9809" gradientUnits="userSpaceOnUse">
<stop stop-color="#223962"/>
<stop offset="0.526042" stop-color="#3277BC"/>
<stop offset="0.973958" stop-color="#48ABDF"/>
</linearGradient>
<linearGradient id="paint7_linear_1_1710" x1="13.2695" y1="16.3099" x2="19.0429" y2="16.3099" gradientUnits="userSpaceOnUse">
<stop stop-color="#223962"/>
<stop offset="0.526042" stop-color="#3277BC"/>
<stop offset="0.973958" stop-color="#48ABDF"/>
</linearGradient>
<linearGradient id="paint8_linear_1_1710" x1="21.8965" y1="12.0135" x2="25.3734" y2="12.0135" gradientUnits="userSpaceOnUse">
<stop stop-color="#223962"/>
<stop offset="0.526042" stop-color="#3277BC"/>
<stop offset="0.973958" stop-color="#48ABDF"/>
</linearGradient>
<linearGradient id="paint9_linear_1_1710" x1="8.31299" y1="23.7887" x2="15.4066" y2="23.7887" gradientUnits="userSpaceOnUse">
<stop stop-color="#223962"/>
<stop offset="0.526042" stop-color="#3277BC"/>
<stop offset="0.973958" stop-color="#48ABDF"/>
</linearGradient>
<clipPath id="clip0_1_1710">
<rect width="74" height="74" fill="white"/>
</clipPath>
</defs>
</svg>
