<svg width="60" height="60" viewBox="0 0 60 60" fill="none" xmlns="http://www.w3.org/2000/svg">
<g clip-path="url(#clip0_343_4561)">
<path d="M43.0672 34.0537C38.0973 34.0537 34.054 38.097 34.054 43.067C34.054 48.0369 38.0973 52.0802 43.0672 52.0802C44.2071 52.0802 45.3186 51.87 46.3711 51.4552C46.8235 51.277 47.0457 50.7657 46.8675 50.313C46.6892 49.8605 46.1781 49.6385 45.7254 49.8166C44.8796 50.1499 43.9854 50.3189 43.0673 50.3189C39.0686 50.3189 35.8153 47.0656 35.8153 43.0668C35.8153 39.068 39.0685 35.8148 43.0673 35.8148C47.0661 35.8148 50.3193 39.068 50.3193 43.0668C50.3193 44.9313 49.6134 46.7028 48.3313 48.055C47.9967 48.408 48.0116 48.9654 48.3645 49.3C48.7176 49.6346 49.275 49.6198 49.6095 49.2668C51.2031 47.5859 52.0806 45.384 52.0806 43.0667C52.0804 38.097 48.0371 34.0537 43.0672 34.0537Z" fill="url(#paint0_linear_343_4561)"/>
<path d="M58.4237 40.2429L56.3141 39.9258C55.9798 38.5064 55.4235 37.1641 54.6548 35.922L55.9228 34.2054C56.4717 33.4624 56.396 32.4492 55.7428 31.7959L54.3383 30.3914C54.1941 30.2471 54.0315 30.1328 53.8589 30.0454C53.9719 29.037 54.0298 28.0211 54.0298 27.0149C54.0298 19.7989 51.2197 13.0148 46.1173 7.91238C41.0148 2.81004 34.2308 0 27.0149 0C20.6476 0 14.4647 2.25773 9.60516 6.3573C9.23344 6.6709 9.18633 7.22648 9.49992 7.5982C9.8134 7.96992 10.3691 8.01703 10.7408 7.70344C15.2831 3.87152 21.0627 1.76133 27.0149 1.76133C33.7604 1.76133 40.1021 4.3882 44.8719 9.15797C49.6417 13.9277 52.2684 20.2695 52.2684 27.015C52.2684 28.0432 52.2042 29.0828 52.0781 30.112C52.0274 30.1426 51.9775 30.1755 51.9288 30.2115L50.2121 31.4796C49.8768 31.2721 49.5334 31.0813 49.1839 30.9049C49.4068 29.6253 49.5209 28.3201 49.5209 27.015C49.5209 22.5578 48.2201 18.2488 45.759 14.554C45.4894 14.1491 44.9426 14.0396 44.5379 14.3092C44.133 14.5787 44.0236 15.1255 44.2931 15.5303C46.5608 18.935 47.7595 22.9063 47.7595 27.015C47.7595 28.0827 47.6776 29.1504 47.5158 30.2013C47.0877 30.0537 46.6522 29.9248 46.2083 29.8202L45.8912 27.7106C45.7539 26.7973 44.9838 26.1345 44.0603 26.1345H42.0739C41.1503 26.1345 40.3802 26.7974 40.2429 27.7107L39.9258 29.8202C38.5064 30.1546 37.1643 30.7109 35.922 31.4796L34.2053 30.2114C33.4621 29.6627 32.449 29.7386 31.7959 30.3915L30.3914 31.796C29.7383 32.4491 29.6626 33.4624 30.2114 34.2054L31.4795 35.9221C30.7106 37.1645 30.1545 38.5065 29.8201 39.9259L27.7105 40.243C26.7971 40.3804 26.1342 41.1505 26.1342 42.0741V44.0604C26.1342 44.9841 26.7971 45.754 27.7105 45.8913L29.8201 46.2084C29.9246 46.6523 30.0536 47.0878 30.2012 47.5159C29.1503 47.6777 28.0826 47.7597 27.0149 47.7597C21.6117 47.7597 16.685 45.6825 12.9895 42.2856L25.086 30.1888C25.6486 30.5319 26.3091 30.7298 27.0149 30.7298C29.0633 30.7298 30.73 29.0633 30.73 27.0148C30.73 25.2697 29.5202 23.8025 27.8955 23.406V6.29004C30.5132 6.3982 33.0451 6.98742 35.4335 8.04926C37.9993 9.19008 40.2751 10.8149 42.1975 12.8786C42.529 13.2345 43.0861 13.254 43.4421 12.9227C43.7979 12.5911 43.8177 12.034 43.4863 11.6781C41.4012 9.43981 38.9327 7.67754 36.1489 6.43992C33.2668 5.15871 30.1937 4.50902 27.0148 4.50902C14.605 4.50902 4.50879 14.6052 4.50879 27.015C4.50879 39.4248 14.605 49.521 27.0148 49.521C28.32 49.521 29.6251 49.407 30.9047 49.1841C31.0811 49.5336 31.2718 49.8769 31.4794 50.2123L30.2112 51.9291C30.1753 51.9777 30.1424 52.0275 30.1118 52.0782C29.0824 52.2043 28.0429 52.2686 27.0146 52.2686C20.2691 52.2686 13.9274 49.6417 9.15762 44.872C4.38785 40.1021 1.76098 33.7605 1.76098 27.015C1.76098 20.7379 4.07918 14.7205 8.28844 10.0714C8.61492 9.71086 8.58727 9.15399 8.22668 8.8275C7.86609 8.5009 7.30922 8.52879 6.98285 8.88914C2.47992 13.8629 0 20.3 0 27.0149C0 34.2308 2.81004 41.0149 7.9125 46.1173C13.015 51.2197 19.7991 54.0298 27.0149 54.0298C28.0211 54.0298 29.0371 53.9719 30.0455 53.8589C30.1329 54.0315 30.2473 54.1939 30.3914 54.3381L31.7959 55.7428C32.4489 56.3957 33.4623 56.4717 34.2053 55.9228L35.922 54.6547C37.1641 55.4235 38.5065 55.9796 39.9258 56.314L40.2429 58.4236C40.3802 59.337 41.1504 59.9999 42.0739 59.9999H44.0603C44.9839 59.9999 45.7539 59.3368 45.8912 58.4236L46.2083 56.314C47.6278 55.9796 48.9698 55.4235 50.212 54.6547L51.9287 55.9227C52.6717 56.4717 53.6849 56.3957 54.3381 55.7428L55.7427 54.3382C56.3957 53.6851 56.4714 52.6718 55.9227 51.9288L54.6546 50.2121C55.4235 48.9698 55.9795 47.6277 56.3139 46.2084L58.4235 45.8913C59.3368 45.754 59.9998 44.9839 59.9998 44.0604V42.0741C60 41.1504 59.337 40.3802 58.4237 40.2429ZM28.9688 27.0149C28.9688 28.0922 28.0923 28.9686 27.0149 28.9686C25.9376 28.9686 25.061 28.0922 25.061 27.0149C25.061 25.9375 25.9376 25.061 27.0149 25.061C28.0922 25.061 28.9688 25.9376 28.9688 27.0149ZM6.29016 27.8955H9.47976C9.96609 27.8955 10.3604 27.5013 10.3604 27.0149C10.3604 26.5284 9.96621 26.1342 9.47976 26.1342H6.29016C6.5025 21.0775 8.53289 16.4831 11.7442 12.9895L13.993 15.2382C14.337 15.5821 14.8945 15.5821 15.2384 15.2382C15.5823 14.8943 15.5823 14.3367 15.2384 13.9928L12.9896 11.7441C16.4832 8.53277 21.0775 6.50238 26.1342 6.29004V23.406C24.5095 23.8025 23.2998 25.2697 23.2998 27.0148C23.2998 27.7204 23.4976 28.3807 23.8406 28.9432L11.7441 41.0401C8.53289 37.5465 6.5025 32.9523 6.29016 27.8955ZM58.2388 44.0603C58.2388 44.1053 58.2064 44.1428 58.1618 44.1495L55.4481 44.5574C55.0774 44.613 54.7826 44.8975 54.7136 45.2659C54.4109 46.8802 53.786 48.3877 52.8566 49.7469C52.6451 50.0563 52.6525 50.4657 52.8752 50.7672L54.5062 52.9751C54.533 53.0113 54.5293 53.0607 54.4975 53.0925L53.0928 54.4971C53.0612 54.529 53.0116 54.5327 52.9754 54.5058L50.7675 52.8749C50.466 52.6522 50.0565 52.645 49.7473 52.8563C48.388 53.7858 46.8805 54.4105 45.2663 54.7132C44.8978 54.7822 44.6134 55.0771 44.5577 55.4477L44.1498 58.1614C44.1431 58.2061 44.1056 58.2384 44.0606 58.2384H42.0743C42.0292 58.2384 41.9916 58.2061 41.985 58.1616L41.5772 55.4479C41.5215 55.0771 41.2371 54.7822 40.8687 54.7132C39.2544 54.4104 37.7467 53.7857 36.3875 52.8563C36.0784 52.645 35.6689 52.652 35.3673 52.8749L33.1593 54.5059C33.1238 54.5319 33.0732 54.5284 33.042 54.4972L31.6375 53.0925C31.6056 53.0607 31.602 53.0112 31.6286 52.9751L33.2596 50.7672C33.4823 50.4657 33.4898 50.0562 33.2782 49.7469C32.3487 48.3875 31.7238 46.8799 31.4211 45.2659C31.3521 44.8975 31.0573 44.613 30.6866 44.5574L27.9729 44.1495C27.9291 44.1429 27.896 44.1045 27.896 44.0603V42.0739C27.896 42.0288 27.9284 41.9912 27.9729 41.9846L30.6865 41.5768C31.0573 41.5212 31.3521 41.2368 31.4211 40.8683C31.7238 39.2542 32.3487 37.7466 33.2782 36.3872C33.4897 36.0778 33.4823 35.6684 33.2596 35.367L31.6287 33.159C31.6023 33.1234 31.6061 33.0729 31.6375 33.0416L33.042 31.6371C33.0732 31.6057 33.124 31.602 33.1594 31.6282L35.3673 33.2592C35.6688 33.4821 36.0783 33.4893 36.3875 33.2779C37.7469 32.3483 39.2545 31.7235 40.8687 31.4208C41.2371 31.3518 41.5214 31.0569 41.5772 30.6861L41.985 27.9725C41.9917 27.928 42.0293 27.8957 42.0743 27.8957H44.0606C44.1056 27.8957 44.1431 27.928 44.1498 27.9725L44.5577 30.6861C44.6134 31.0568 44.8978 31.3516 45.2663 31.4207C46.8803 31.7234 48.3879 32.3482 49.7473 33.2777C50.0566 33.4893 50.466 33.482 50.7675 33.2591L52.9754 31.6282C53.0115 31.6015 53.0611 31.6051 53.0931 31.637L54.4976 33.0415C54.529 33.0728 54.5327 33.1233 54.5062 33.1589L52.8754 35.3668C52.6527 35.6682 52.6452 36.0778 52.8567 36.3871C53.7863 37.7462 54.4109 39.2539 54.7137 40.8682C54.7827 41.2366 55.0775 41.5209 55.4483 41.5767L58.162 41.9845C58.2066 41.9912 58.2389 42.0288 58.2389 42.0738L58.2388 44.0603Z" fill="url(#paint1_linear_343_4561)"/>
<path d="M45.4176 40.4505L42.1279 43.824L40.7001 42.4355C40.3514 42.0965 39.7939 42.1043 39.4548 42.453C39.1158 42.8017 39.1235 43.3592 39.4723 43.6982L41.5306 45.6997C41.8786 46.0382 42.4356 46.0312 42.7749 45.6831L46.6785 41.6801C47.0181 41.3318 47.0112 40.7744 46.6629 40.4349C46.3143 40.0951 45.7571 40.1022 45.4176 40.4505Z" fill="url(#paint2_linear_343_4561)"/>
</g>
<defs>
<linearGradient id="paint0_linear_343_4561" x1="34.054" y1="43.067" x2="52.0806" y2="43.067" gradientUnits="userSpaceOnUse">
<stop stop-color="#223962"/>
<stop offset="0.526042" stop-color="#3277BC"/>
<stop offset="0.973958" stop-color="#48ABDF"/>
</linearGradient>
<linearGradient id="paint1_linear_343_4561" x1="-2.23516e-07" y1="30" x2="59.9998" y2="30" gradientUnits="userSpaceOnUse">
<stop stop-color="#223962"/>
<stop offset="0.526042" stop-color="#3277BC"/>
<stop offset="0.973958" stop-color="#48ABDF"/>
</linearGradient>
<linearGradient id="paint2_linear_343_4561" x1="39.2056" y1="43.0668" x2="46.9287" y2="43.0668" gradientUnits="userSpaceOnUse">
<stop stop-color="#223962"/>
<stop offset="0.526042" stop-color="#3277BC"/>
<stop offset="0.973958" stop-color="#48ABDF"/>
</linearGradient>
<clipPath id="clip0_343_4561">
<rect width="60" height="60" fill="white"/>
</clipPath>
</defs>
</svg>
