<svg width="60" height="60" viewBox="0 0 60 60" fill="none" xmlns="http://www.w3.org/2000/svg">
<g clip-path="url(#clip0_390_6093)">
<path d="M59.097 14.7154C59.5824 14.7154 59.9763 14.3215 59.9763 13.8361V10.5576C59.9763 8.90905 58.6355 7.56825 56.9869 7.56825H48.6969V2.28595C48.6969 1.02516 47.6717 0 46.4109 0H13.5653C12.3046 0 11.2794 1.02516 11.2794 2.28595V4.65191V7.56649H2.98932C1.3408 7.56825 0 8.90905 0 10.5576V43.6467C0 45.2952 1.3408 46.636 2.98932 46.636H23.8354L23.1145 52.1073H20.0671C18.4186 52.1073 17.0778 53.4481 17.0778 55.0966V58.6522C17.0778 59.396 17.6827 60 18.4256 60H20.8426C21.3279 60 21.7218 59.6061 21.7218 59.1208C21.7218 58.6355 21.3279 58.2416 20.8426 58.2416H18.8353V55.0966C18.8353 54.4179 19.3875 53.8657 20.0662 53.8657H23.8838C23.8838 53.8657 23.8838 53.8657 23.8846 53.8657C23.8846 53.8657 23.8855 53.8657 23.8864 53.8657H36.0863C36.0863 53.8657 36.0872 53.8657 36.0881 53.8657C36.0881 53.8657 36.0881 53.8657 36.089 53.8657H39.9074C40.5861 53.8657 41.1383 54.4179 41.1383 55.0966V58.2416H24.9441C24.4588 58.2416 24.0649 58.6355 24.0649 59.1208C24.0649 59.6061 24.4588 60 24.9441 60H41.548C42.2918 60 42.8958 59.3951 42.8958 58.6522V55.0966C42.8958 53.4481 41.555 52.1073 39.9065 52.1073H36.8592L36.1382 46.636H56.9843C58.6328 46.636 59.9736 45.2952 59.9736 43.6467V17.9394C59.9736 17.4541 59.5797 17.0602 59.0944 17.0602C58.6091 17.0602 58.2152 17.4541 58.2152 17.9394V37.0587H1.75842V10.5576C1.75842 9.87882 2.31057 9.32667 2.98932 9.32667H11.2794V30.8867H10.3545C9.86914 30.8867 9.47526 31.2806 9.47526 31.7659C9.47526 32.2512 9.86914 32.6451 10.3545 32.6451H12.1428C12.1481 32.6451 12.1533 32.6451 12.1577 32.6451C12.1621 32.6451 12.1683 32.6451 12.1727 32.6451H47.8009C47.8062 32.6451 47.8115 32.6451 47.8159 32.6451C47.8203 32.6451 47.8264 32.6451 47.8308 32.6451H49.6192C50.1045 32.6451 50.4984 32.2512 50.4984 31.7659C50.4984 31.2806 50.1045 30.8867 49.6192 30.8867H48.6942V25.0056C49.9911 24.7111 51.1991 24.0517 52.1645 23.0731L52.5109 23.3439C52.7149 23.5031 52.9566 23.5796 53.1967 23.5796C53.5272 23.5796 53.8534 23.4336 54.0724 23.154C54.5155 22.5861 54.8777 21.9618 55.1494 21.298C56.324 18.423 55.6602 15.0266 53.4578 12.6431C53.049 12.2017 52.3509 12.1683 51.9007 12.5701L51.7574 12.6976C51.1033 12.1331 50.3436 11.6882 49.5251 11.3928C49.2516 11.2943 48.9738 11.2152 48.6951 11.151V9.32579H56.9852C57.6639 9.32579 58.2161 9.87794 58.2161 10.5567V13.8353C58.2161 14.3206 58.61 14.7145 59.0953 14.7145L59.097 14.7154ZM35.0884 52.1064H24.8878L25.6088 46.6351H34.3666L35.0876 52.1064H35.0884ZM58.2178 38.8172V43.6467C58.2178 44.3254 57.6657 44.8776 56.9869 44.8776H2.98932C2.31057 44.8776 1.75842 44.3254 1.75842 43.6467V38.8172H58.2178ZM13.5653 1.75842H46.41C46.7011 1.75842 46.9376 1.99493 46.9376 2.28595V3.77357H13.0378V2.28595C13.0378 1.99493 13.2743 1.75842 13.5653 1.75842ZM13.0378 30.8867V8.44834V5.53375H46.9376V10.9761C45.9669 11.0007 45.0024 11.2249 44.0968 11.6504C42.3806 12.4575 41.0811 13.8845 40.4376 15.6693C39.1099 19.3532 41.0266 23.4301 44.7096 24.7577C45.4411 25.0215 46.1929 25.1586 46.9376 25.1788V30.8884H13.0378V30.8867ZM53.5237 20.6333C53.3954 20.9481 53.2406 21.2514 53.0604 21.5398L48.4894 17.9711L52.5777 14.3232C53.9871 16.1617 54.3634 18.5742 53.5229 20.6324L53.5237 20.6333ZM50.4307 13.8836L46.7433 17.1736C46.4962 17.3943 46.3608 17.7099 46.3713 18.0414C46.3819 18.372 46.5384 18.6788 46.7995 18.8828L50.7692 21.982C49.9339 22.7663 48.8815 23.2481 47.7719 23.3835C47.7368 23.3853 47.7025 23.3888 47.6682 23.3949C46.8883 23.4741 46.083 23.3826 45.3075 23.103C42.5362 22.1042 41.0943 19.0367 42.0931 16.2654C42.5767 14.9228 43.5552 13.8485 44.8459 13.2418C46.1375 12.6343 47.5882 12.5666 48.9307 13.0501C49.4741 13.2462 49.9814 13.5311 50.4307 13.8854V13.8836Z" fill="url(#paint0_linear_390_6093)"/>
<path d="M27.3734 42.7271H32.6029C33.0882 42.7271 33.4821 42.3332 33.4821 41.8478C33.4821 41.3625 33.0882 40.9686 32.6029 40.9686H27.3734C26.888 40.9686 26.4941 41.3625 26.4941 41.8478C26.4941 42.3332 26.888 42.7271 27.3734 42.7271Z" fill="url(#paint1_linear_390_6093)"/>
<path d="M40.4165 25.5675H38.0584V14.3566C38.0584 13.7429 37.5591 13.2427 36.9445 13.2427H33.7371C33.1234 13.2427 32.6232 13.7421 32.6232 14.3566V25.5675H31.0995V16.5573C31.0995 15.9436 30.6001 15.4433 29.9855 15.4433H26.7782C26.1645 15.4433 25.6642 15.9427 25.6642 16.5573V25.5675H24.1405V19.4622C24.1405 18.8485 23.6411 18.3483 23.0266 18.3483H19.8201C19.2064 18.3483 18.7061 18.8476 18.7061 19.4622V25.5675H16.3481C15.8628 25.5675 15.4689 25.9613 15.4689 26.4467C15.4689 26.932 15.8628 27.3259 16.3481 27.3259H40.4156C40.9009 27.3259 41.2948 26.932 41.2948 26.4467C41.2948 25.9613 40.9009 25.5675 40.4156 25.5675H40.4165ZM34.3825 15.002H36.3V25.5675H34.3825V15.002ZM27.4235 17.2026H29.3411V25.5683H27.4235V17.2026ZM20.4663 20.1076H22.383V25.5683H20.4663V20.1076Z" fill="url(#paint2_linear_390_6093)"/>
</g>
<defs>
<linearGradient id="paint0_linear_390_6093" x1="-2.23429e-07" y1="30" x2="59.9763" y2="30" gradientUnits="userSpaceOnUse">
<stop stop-color="#223962"/>
<stop offset="0.526042" stop-color="#3277BC"/>
<stop offset="0.973958" stop-color="#48ABDF"/>
</linearGradient>
<linearGradient id="paint1_linear_390_6093" x1="26.4941" y1="41.8478" x2="33.4821" y2="41.8478" gradientUnits="userSpaceOnUse">
<stop stop-color="#223962"/>
<stop offset="0.526042" stop-color="#3277BC"/>
<stop offset="0.973958" stop-color="#48ABDF"/>
</linearGradient>
<linearGradient id="paint2_linear_390_6093" x1="15.4689" y1="20.2843" x2="41.2948" y2="20.2843" gradientUnits="userSpaceOnUse">
<stop stop-color="#223962"/>
<stop offset="0.526042" stop-color="#3277BC"/>
<stop offset="0.973958" stop-color="#48ABDF"/>
</linearGradient>
<clipPath id="clip0_390_6093">
<rect width="59.9763" height="60" fill="white"/>
</clipPath>
</defs>
</svg>
