<svg width="56" height="60" viewBox="0 0 56 60" fill="none" xmlns="http://www.w3.org/2000/svg">
<g clip-path="url(#clip0_343_5831)">
<path d="M30.6258 35.0858C31.1051 35.0073 31.4297 34.555 31.3512 34.0769C30.9411 31.5679 29.6473 29.271 27.7079 27.6081C25.7473 25.9265 23.243 24.9995 20.6555 24.9995C14.6778 24.9995 9.81567 29.8616 9.81567 35.8394C9.81567 41.8171 14.6778 46.6792 20.6555 46.6792C25.609 46.6792 29.9274 43.3312 31.1567 38.5394C31.2774 38.0694 30.9938 37.5901 30.5239 37.4694C30.054 37.3487 29.5747 37.6323 29.454 38.1022C28.425 42.1171 24.8063 44.9214 20.6555 44.9214C15.6481 44.9214 11.5735 40.8468 11.5735 35.8394C11.5735 30.8319 15.6481 26.7573 20.6555 26.7573C22.8223 26.7573 24.9211 27.5331 26.5629 28.9417C28.1883 30.3351 29.2723 32.2604 29.6157 34.3604C29.6942 34.8397 30.1454 35.1644 30.6247 35.0858H30.6258Z" fill="url(#paint0_linear_343_5831)"/>
<path d="M20.6566 28.9126C16.8375 28.9126 13.7308 32.0192 13.7308 35.8384C13.7308 39.6575 16.8375 42.7642 20.6566 42.7642C24.4758 42.7642 27.5836 39.6575 27.5836 35.8384C27.5836 32.0192 24.4769 28.9126 20.6566 28.9126ZM20.6566 41.0075C17.8066 41.0075 15.4886 38.6884 15.4886 35.8395C15.4886 32.9907 17.8078 30.6704 20.6566 30.6704C23.5054 30.6704 25.8258 32.9895 25.8258 35.8395C25.8258 38.6895 23.5066 41.0075 20.6566 41.0075Z" fill="url(#paint1_linear_343_5831)"/>
<path d="M20.6566 32.4165C18.7699 32.4165 17.2347 33.9517 17.2347 35.8384C17.2347 37.7251 18.7699 39.2614 20.6566 39.2614C22.5433 39.2614 24.0797 37.7263 24.0797 35.8384C24.0797 33.9505 22.5445 32.4165 20.6566 32.4165ZM20.6566 37.5036C19.739 37.5036 18.9926 36.7571 18.9926 35.8395C18.9926 34.922 19.739 34.1743 20.6566 34.1743C21.5742 34.1743 22.3218 34.9208 22.3218 35.8395C22.3218 36.7583 21.5754 37.5036 20.6566 37.5036Z" fill="url(#paint2_linear_343_5831)"/>
<path d="M49.9359 37.0852V31.5234C49.9359 31.0383 49.5422 30.6445 49.057 30.6445C48.5719 30.6445 48.1781 31.0383 48.1781 31.5234V35.9859C47.0367 35.3953 45.7957 34.9723 44.4867 34.7508V21.3398C44.4867 20.6613 43.9348 20.1094 43.2562 20.1094H41.2383L46.3266 13.193L51.3281 20.1094H49.4086C48.7301 20.1094 48.1781 20.6613 48.1781 21.3398V27.4219C48.1781 27.907 48.5719 28.3008 49.057 28.3008C49.5422 28.3008 49.9359 27.907 49.9359 27.4219V21.8672H52.3594C52.8234 21.8672 53.2441 21.6105 53.4551 21.1969C53.666 20.7832 53.6285 20.2922 53.3566 19.916L47.3262 11.577C47.0965 11.2594 46.7262 11.0695 46.3336 11.0672H46.3289C45.9387 11.0672 45.5684 11.2547 45.3375 11.5688L39.2027 19.9078C38.9262 20.284 38.8852 20.7762 39.0961 21.1922C39.307 21.6082 39.7277 21.8672 40.1941 21.8672H42.7277V34.5762C42.6023 34.5727 42.4781 34.5703 42.3516 34.5703C41.9883 34.5703 41.6273 34.5867 41.2723 34.6172C41.2441 34.1227 41.2008 33.6293 41.1363 33.1406C41.0191 32.2488 40.2504 31.5762 39.348 31.5762H35.0039C34.984 31.5762 34.9676 31.5621 34.9605 31.5398C34.6723 30.5801 34.2867 29.6461 33.8121 28.7648C33.8016 28.7449 33.8027 28.7227 33.8168 28.7086L36.8871 25.6383C37.5258 24.9996 37.5938 23.9801 37.0453 23.2676C36.7441 22.8762 36.4289 22.4965 36.1008 22.1285V10.8012H38.5242C38.9883 10.8012 39.409 10.5445 39.6199 10.1309C39.8309 9.71719 39.7934 9.22617 39.5215 8.85L33.4934 0.509766C33.2637 0.192187 32.8934 0.00234375 32.5008 0H32.4961C32.1059 0 31.7367 0.1875 31.5047 0.501563L25.3699 8.84063C25.0934 9.2168 25.0523 9.70898 25.2633 10.125C25.4742 10.541 25.8949 10.8 26.3613 10.8H28.8949V21.5707L27.7875 22.6781C27.7734 22.6922 27.7512 22.6934 27.7313 22.6828C26.85 22.2082 25.9172 21.8215 24.9563 21.5344C24.934 21.5273 24.9199 21.5109 24.9199 21.491V17.1469C24.9199 16.2445 24.2473 15.4746 23.3555 15.3586C21.573 15.1254 19.7391 15.1254 17.9566 15.3586C17.0648 15.4758 16.3922 16.2445 16.3922 17.1469V21.491C16.3922 21.5109 16.3781 21.5273 16.3559 21.5344C15.3961 21.8227 14.4621 22.2082 13.5809 22.6828C13.5609 22.6934 13.5387 22.6922 13.5246 22.6781L10.4543 19.6078C9.81563 18.9691 8.79609 18.9012 8.08359 19.4496C6.65156 20.55 5.36719 21.8344 4.2668 23.2664C3.71836 23.9801 3.78633 24.9996 4.425 25.6371L7.49531 28.7074C7.50938 28.7215 7.51055 28.7437 7.5 28.7637C7.02539 29.6449 6.63984 30.5777 6.35156 31.5387C6.34453 31.5609 6.32812 31.575 6.3082 31.575H1.96406C1.06172 31.575 0.291797 32.2477 0.175781 33.1395C0.0585938 34.0301 0 34.9383 0 35.8383C0 36.7383 0.0597656 37.6465 0.175781 38.5371C0.292969 39.4289 1.06172 40.1016 1.96406 40.1016H6.3082C6.32812 40.1016 6.34453 40.1156 6.35156 40.1379C6.63984 41.0977 7.02539 42.0316 7.5 42.9129C7.51055 42.9328 7.50938 42.9551 7.49531 42.9691L4.42383 46.0395C3.78516 46.6781 3.71719 47.6977 4.26562 48.4113C5.36602 49.8434 6.65039 51.1277 8.08242 52.2281C8.79609 52.7766 9.81563 52.7086 10.4543 52.0699L13.5246 48.9996C13.5387 48.9855 13.5609 48.9844 13.5809 48.9949C14.4621 49.4695 15.3949 49.8563 16.3559 50.1434C16.3781 50.1504 16.3922 50.1668 16.3922 50.1867V54.5309C16.3922 55.4332 17.0648 56.2031 17.9566 56.3191C18.8473 56.4363 19.7555 56.4949 20.6555 56.4949C21.5555 56.4949 22.4637 56.4363 23.3543 56.3191C24.2461 56.202 24.9188 55.4332 24.9188 54.5309V50.1867C24.9188 50.1668 24.9328 50.1504 24.9551 50.1434C25.9148 49.8551 26.8488 49.4695 27.7301 48.9949C27.75 48.9844 27.7723 48.9855 27.7863 48.9996L30.3937 51.607C32.1668 56.4973 36.8578 60 42.3516 60C49.3629 60 55.0664 54.2965 55.0664 47.2852C55.0664 43.1133 53.0473 39.4055 49.9348 37.0852H49.9359ZM27.4031 9.04219L32.4914 2.12578L37.493 9.04219H35.5734C34.8949 9.04219 34.343 9.59414 34.343 10.2727V20.3719C33.982 20.052 33.6105 19.7437 33.2285 19.4496C32.5148 18.9012 31.4953 18.9691 30.8578 19.6078L30.6527 19.8129V10.2727C30.6527 9.59414 30.1008 9.04219 29.4223 9.04219H27.4031ZM29.6379 47.2852C29.6379 47.666 29.6555 48.0422 29.6883 48.4148L29.0297 47.7562C28.4637 47.1891 27.6059 47.0648 26.8969 47.4469C26.1199 47.8652 25.2973 48.2051 24.4512 48.4594C23.6801 48.6902 23.1621 49.384 23.1621 50.1855V54.5297C23.1621 54.552 23.1469 54.573 23.127 54.5754C21.4945 54.7887 19.8164 54.7887 18.1852 54.5754C18.1664 54.573 18.15 54.552 18.15 54.5297V50.1855C18.15 49.384 17.632 48.6902 16.8609 48.4594C16.0148 48.2051 15.1922 47.8652 14.4152 47.4469C14.141 47.2992 13.8457 47.2277 13.5527 47.2277C13.0875 47.2277 12.6305 47.4094 12.2836 47.7562L9.21328 50.8266C9.19688 50.843 9.17109 50.8453 9.15586 50.8336C7.84453 49.827 6.66914 48.6516 5.6625 47.3402C5.65078 47.325 5.65313 47.2992 5.66953 47.2828L8.73984 44.2125C9.30703 43.6453 9.43125 42.7887 9.04922 42.0797C8.63086 41.3027 8.29102 40.4801 8.03672 39.634C7.80586 38.8629 7.11211 38.3449 6.31055 38.3449H1.96406C1.9418 38.3449 1.9207 38.3297 1.91836 38.3098C1.81172 37.4941 1.75781 36.6633 1.75781 35.8383C1.75781 35.0133 1.81172 34.1836 1.91836 33.3668C1.9207 33.3469 1.9418 33.3316 1.96406 33.3316H6.3082C7.10977 33.3316 7.80352 32.8137 8.03437 32.0426C8.28867 31.1965 8.62852 30.3727 9.04688 29.5969C9.42891 28.8879 9.30469 28.0312 8.7375 27.4641L5.66719 24.3938C5.65078 24.3773 5.64844 24.3516 5.66016 24.3363C6.66797 23.025 7.84336 21.8496 9.15352 20.843C9.16875 20.8312 9.19453 20.8336 9.21094 20.85L12.2812 23.9203C12.8484 24.4875 13.7051 24.6117 14.4141 24.2297C15.191 23.8113 16.0137 23.4715 16.8598 23.2172C17.6309 22.9863 18.1488 22.2926 18.1488 21.491V17.1469C18.1488 17.1246 18.1641 17.1035 18.184 17.1012C19.8152 16.8879 21.4945 16.8879 23.1258 17.1012C23.1445 17.1035 23.1609 17.1246 23.1609 17.1469V21.491C23.1609 22.2926 23.6789 22.9863 24.45 23.2172C25.2973 23.4715 26.1199 23.8113 26.8957 24.2297C27.6047 24.6117 28.4613 24.4875 29.0285 23.9203L32.0988 20.85C32.1152 20.8336 32.141 20.8312 32.1562 20.843C33.4676 21.8496 34.643 23.025 35.6496 24.3363C35.6613 24.3516 35.659 24.3773 35.6426 24.3938L32.5723 27.4641C32.0051 28.0312 31.8809 28.8879 32.2629 29.5969C32.6813 30.3738 33.0223 31.1965 33.2754 32.0426C33.5063 32.8137 34.2 33.3316 35.0016 33.3316H39.3457C39.368 33.3316 39.3891 33.3469 39.3914 33.3668C39.457 33.8695 39.5004 34.377 39.525 34.8855C33.8684 36.1734 29.6344 41.243 29.6344 47.284L29.6379 47.2852ZM42.3527 58.2422C36.3105 58.2422 31.3957 53.3273 31.3957 47.2852C31.3957 41.243 36.3105 36.3281 42.3527 36.3281C48.3949 36.3281 53.3098 41.243 53.3098 47.2852C53.3098 53.3273 48.3949 58.2422 42.3527 58.2422Z" fill="url(#paint3_linear_343_5831)"/>
<path d="M51.2801 46.6875C51.7594 46.6078 52.0829 46.1555 52.0032 45.6762C51.6282 43.418 50.4575 41.3496 48.7079 39.8508C46.9383 38.3344 44.6813 37.5 42.3528 37.5C36.9575 37.5 32.5676 41.8898 32.5676 47.2852C32.5676 52.6805 36.9575 57.0703 42.3528 57.0703C44.4809 57.0703 46.5059 56.3965 48.2086 55.1203C49.854 53.8875 51.0938 52.1344 51.6997 50.182C51.8438 49.718 51.5848 49.2258 51.1208 49.0816C50.6567 48.9375 50.1645 49.1965 50.0204 49.6605C49.5235 51.2613 48.5051 52.7004 47.154 53.7129C45.7571 54.7582 44.0965 55.3113 42.3516 55.3113C37.9254 55.3113 34.3243 51.7102 34.3243 47.284C34.3243 42.8578 37.9254 39.2566 42.3516 39.2566C44.2606 39.2566 46.111 39.941 47.5629 41.1855C48.9997 42.416 49.9606 44.1129 50.2676 45.9633C50.3473 46.4426 50.7997 46.766 51.279 46.6863L51.2801 46.6875Z" fill="url(#paint4_linear_343_5831)"/>
<path d="M42.3528 40.1367C41.8676 40.1367 41.4739 40.5304 41.4739 41.0156V47.2851C41.4739 47.6074 41.6497 47.9039 41.9332 48.0574C42.0645 48.1289 42.2086 48.164 42.3528 48.164C42.5192 48.164 42.6868 48.116 42.8309 48.0222L46.8258 45.4289C47.2325 45.164 47.3485 44.6203 47.0848 44.2125C46.82 43.8058 46.2762 43.6898 45.8684 43.9535L43.2305 45.6656V41.0144C43.2305 40.5292 42.8368 40.1355 42.3516 40.1355L42.3528 40.1367Z" fill="url(#paint5_linear_343_5831)"/>
</g>
<defs>
<linearGradient id="paint0_linear_343_5831" x1="9.81567" y1="35.8394" x2="31.3629" y2="35.8394" gradientUnits="userSpaceOnUse">
<stop stop-color="#223962"/>
<stop offset="0.526042" stop-color="#3277BC"/>
<stop offset="0.973958" stop-color="#48ABDF"/>
</linearGradient>
<linearGradient id="paint1_linear_343_5831" x1="13.7308" y1="35.8384" x2="27.5836" y2="35.8384" gradientUnits="userSpaceOnUse">
<stop stop-color="#223962"/>
<stop offset="0.526042" stop-color="#3277BC"/>
<stop offset="0.973958" stop-color="#48ABDF"/>
</linearGradient>
<linearGradient id="paint2_linear_343_5831" x1="17.2347" y1="35.839" x2="24.0797" y2="35.839" gradientUnits="userSpaceOnUse">
<stop stop-color="#223962"/>
<stop offset="0.526042" stop-color="#3277BC"/>
<stop offset="0.973958" stop-color="#48ABDF"/>
</linearGradient>
<linearGradient id="paint3_linear_343_5831" x1="-2.05138e-07" y1="30" x2="55.0664" y2="30" gradientUnits="userSpaceOnUse">
<stop stop-color="#223962"/>
<stop offset="0.526042" stop-color="#3277BC"/>
<stop offset="0.973958" stop-color="#48ABDF"/>
</linearGradient>
<linearGradient id="paint4_linear_343_5831" x1="32.5676" y1="47.2852" x2="52.0152" y2="47.2852" gradientUnits="userSpaceOnUse">
<stop stop-color="#223962"/>
<stop offset="0.526042" stop-color="#3277BC"/>
<stop offset="0.973958" stop-color="#48ABDF"/>
</linearGradient>
<linearGradient id="paint5_linear_343_5831" x1="41.4739" y1="44.1498" x2="47.2261" y2="44.1498" gradientUnits="userSpaceOnUse">
<stop stop-color="#223962"/>
<stop offset="0.526042" stop-color="#3277BC"/>
<stop offset="0.973958" stop-color="#48ABDF"/>
</linearGradient>
<clipPath id="clip0_343_5831">
<rect width="55.0676" height="60" fill="white"/>
</clipPath>
</defs>
</svg>
