<svg width="80" height="80" viewBox="0 0 80 80" fill="none" xmlns="http://www.w3.org/2000/svg">
<g clip-path="url(#clip0_1_1689)">
<path d="M13.4597 5.7655H10.3398C9.6925 5.7655 9.16797 6.29003 9.16797 6.93738C9.16797 7.58472 9.6925 8.10925 10.3398 8.10925H13.4597C14.107 8.10925 14.6316 7.58472 14.6316 6.93738C14.6316 6.29003 14.1069 5.7655 13.4597 5.7655Z" fill="url(#paint0_linear_1_1689)"/>
<path d="M13.4597 10.209H10.3398C9.6925 10.209 9.16797 10.7335 9.16797 11.3809C9.16797 12.0282 9.6925 12.5527 10.3398 12.5527H13.4597C14.107 12.5527 14.6316 12.0282 14.6316 11.3809C14.6316 10.7335 14.1069 10.209 13.4597 10.209Z" fill="url(#paint1_linear_1_1689)"/>
<path d="M20.5127 9.1593C20.5127 9.80665 21.0372 10.3312 21.6846 10.3312H52.9777C53.625 10.3312 54.1496 9.80665 54.1496 9.1593C54.1496 8.51196 53.625 7.98743 52.9777 7.98743H21.6846C21.0374 7.98743 20.5127 8.51196 20.5127 9.1593Z" fill="url(#paint2_linear_1_1689)"/>
<path d="M10.3398 24.0819H13.4597C14.107 24.0819 14.6316 23.5574 14.6316 22.91C14.6316 22.2627 14.107 21.7382 13.4597 21.7382H10.3398C9.6925 21.7382 9.16797 22.2627 9.16797 22.91C9.16797 23.5574 9.6925 24.0819 10.3398 24.0819Z" fill="url(#paint3_linear_1_1689)"/>
<path d="M10.3398 28.5254H13.4597C14.107 28.5254 14.6316 28.0009 14.6316 27.3535C14.6316 26.7062 14.107 26.1816 13.4597 26.1816H10.3398C9.6925 26.1816 9.16797 26.7062 9.16797 27.3535C9.16797 28.0009 9.6925 28.5254 10.3398 28.5254Z" fill="url(#paint4_linear_1_1689)"/>
<path d="M21.6846 26.3035H52.9777C53.625 26.3035 54.1496 25.7789 54.1496 25.1316C54.1496 24.4842 53.625 23.9597 52.9777 23.9597H21.6846C21.0372 23.9597 20.5127 24.4842 20.5127 25.1316C20.5127 25.7789 21.0374 26.3035 21.6846 26.3035Z" fill="url(#paint5_linear_1_1689)"/>
<path d="M13.4597 37.7107H10.3398C9.6925 37.7107 9.16797 38.2352 9.16797 38.8826C9.16797 39.5299 9.6925 40.0544 10.3398 40.0544H13.4597C14.107 40.0544 14.6316 39.5299 14.6316 38.8826C14.6316 38.2352 14.1069 37.7107 13.4597 37.7107Z" fill="url(#paint6_linear_1_1689)"/>
<path d="M13.4597 42.1541H10.3398C9.6925 42.1541 9.16797 42.6786 9.16797 43.3259C9.16797 43.9733 9.6925 44.4978 10.3398 44.4978H13.4597C14.107 44.4978 14.6316 43.9733 14.6316 43.3259C14.6316 42.6786 14.1069 42.1541 13.4597 42.1541Z" fill="url(#paint7_linear_1_1689)"/>
<path d="M52.9779 39.9324H21.6846C21.0372 39.9324 20.5127 40.4569 20.5127 41.1042C20.5127 41.7516 21.0372 42.2761 21.6846 42.2761H52.9777C53.625 42.2761 54.1496 41.7516 54.1496 41.1042C54.1496 40.4569 53.625 39.9324 52.9779 39.9324Z" fill="url(#paint8_linear_1_1689)"/>
<path d="M10.3398 56.0271H13.4597C14.107 56.0271 14.6316 55.5026 14.6316 54.8552C14.6316 54.2079 14.107 53.6833 13.4597 53.6833H10.3398C9.6925 53.6833 9.16797 54.2079 9.16797 54.8552C9.16797 55.5026 9.6925 56.0271 10.3398 56.0271Z" fill="url(#paint9_linear_1_1689)"/>
<path d="M13.4597 58.1266H10.3398C9.6925 58.1266 9.16797 58.6511 9.16797 59.2985C9.16797 59.9458 9.6925 60.4703 10.3398 60.4703H13.4597C14.107 60.4703 14.6316 59.9458 14.6316 59.2985C14.6316 58.6511 14.1069 58.1266 13.4597 58.1266Z" fill="url(#paint10_linear_1_1689)"/>
<path d="M52.9779 58.2488C53.6252 58.2488 54.1497 57.7242 54.1497 57.0769C54.1497 56.4296 53.6252 55.905 52.9779 55.905H21.6846C21.0372 55.905 20.5127 56.4296 20.5127 57.0769C20.5127 57.7242 21.0372 58.2488 21.6846 58.2488H52.9779Z" fill="url(#paint11_linear_1_1689)"/>
<path d="M78.7644 62.3932L77.5923 61.6886C77.5627 61.6707 77.5377 61.6455 77.5203 61.6154L74.9236 57.1175C74.9064 57.0878 74.897 57.0538 74.8964 57.0191L74.8723 55.6514C74.8566 54.7627 74.3684 53.9343 73.5984 53.4893L71.2925 52.158C70.5222 51.7135 69.5608 51.7052 68.783 52.1358L67.5869 52.7985C67.5566 52.8153 67.5222 52.8243 67.4873 52.8243H64.7625C64.7348 52.5127 64.5847 52.223 64.3409 52.0224L60.7766 49.0902L64.3409 46.158C64.6114 45.9354 64.7683 45.6033 64.7683 45.253V36.9549C64.7683 36.6046 64.6114 36.2725 64.3409 36.0499L60.7764 33.1175L64.3409 30.1854C64.6114 29.9627 64.7683 29.6307 64.7683 29.2804V20.9822C64.7683 20.6319 64.6114 20.2999 64.3409 20.0772L60.7764 17.145L64.3409 14.2127C64.6114 13.99 64.7683 13.658 64.7683 13.3077V5.01004C64.7683 4.65973 64.6114 4.32769 64.3409 4.10504L59.6763 0.267852C59.4664 0.0953516 59.2034 0.000976562 58.9317 0.000976562H50.6352C49.9878 0.000976562 49.4633 0.525508 49.4633 1.17285C49.4633 1.8202 49.9878 2.34473 50.6352 2.34473H58.5116L62.4244 5.56348V12.7547L58.5116 15.9736H6.25672L2.34375 12.7547V5.56348L6.25672 2.34473H45.9498C46.5972 2.34473 47.1217 1.8202 47.1217 1.17285C47.1217 0.525508 46.5972 0.000976562 45.9498 0.000976562H5.83656C5.565 0.000976562 5.30188 0.0953516 5.09203 0.267852L0.427344 4.10504C0.156875 4.32769 0 4.65973 0 5.01004V13.3082C0 13.6585 0.156875 13.9905 0.427344 14.2132L3.99188 17.1455L0.427344 20.0777C0.156875 20.3002 0 20.6322 0 20.9827V29.2808C0 29.6311 0.156875 29.9632 0.427344 30.1858L3.99188 33.118L0.427344 36.0502C0.156875 36.2729 0 36.6049 0 36.9552V45.2533C0 45.6036 0.156875 45.9357 0.427344 46.1583L3.99188 49.0905L0.427344 52.0227C0.156875 52.2453 0 52.5774 0 52.9277V61.2258C0 61.5761 0.156875 61.9082 0.427344 62.1308L5.09203 65.9682C5.30188 66.1407 5.56484 66.235 5.83656 66.235H11.1169C11.7642 66.235 12.2888 65.7105 12.2888 65.0632C12.2888 64.4158 11.7642 63.8913 11.1169 63.8913H6.25672L2.34375 60.6724V53.4811L6.25672 50.2624H58.5117L60.5566 51.9444C59.8759 51.7232 59.1187 51.7947 58.4891 52.1582L56.1831 53.4894C55.4131 53.9341 54.925 54.7625 54.9094 55.6518L54.8853 57.0191C54.8847 57.0538 54.8753 57.0877 54.8578 57.118L52.2612 61.6155C52.2439 61.6455 52.2189 61.6708 52.1894 61.6888L51.0172 62.3933C50.4559 62.7307 50.0522 63.2736 49.8778 63.8914H15.8023C15.155 63.8914 14.6305 64.416 14.6305 65.0633C14.6305 65.7107 15.155 66.2352 15.8023 66.2352H49.7814V67.2403C49.7814 68.1296 50.2548 68.9668 51.017 69.4246L52.1892 70.1293C52.2187 70.1471 52.2438 70.1724 52.2611 70.2025L54.8577 74.6999C54.875 74.7299 54.8845 74.7643 54.8852 74.7988L54.9092 76.1664C54.925 77.0555 55.4133 77.8841 56.1831 78.3285L58.4891 79.6599C59.2592 80.1043 60.2206 80.1127 60.9984 79.6819L62.1947 79.0191C62.225 79.0024 62.2594 78.9935 62.2942 78.9935H67.4873C67.5222 78.9935 67.5564 79.0024 67.5867 79.0191L68.7828 79.6819C69.165 79.8935 69.5916 79.9993 70.0178 79.9993C70.4592 79.9993 70.9006 79.8858 71.2923 79.6597L73.5983 78.3283C74.3684 77.8838 74.8566 77.0554 74.8722 76.1661L74.8962 74.7986C74.8969 74.7638 74.9062 74.7297 74.9236 74.6997L77.5202 70.2024C77.5375 70.1724 77.5625 70.1471 77.5922 70.1291L78.7642 69.4246C79.5264 68.9664 79.9998 68.1294 79.9998 67.2402V64.5777C80 63.6883 79.5266 62.8513 78.7644 62.3932ZM2.34375 21.5361L6.25672 18.3174H58.5117L62.4245 21.5361V28.7274L58.5117 31.9461H6.25672L2.34375 28.7274V21.5361ZM6.25672 47.9186L2.34375 44.7V37.5088L6.25672 34.2899H58.5117L62.4245 37.5088V44.7L58.5117 47.9188H6.25672V47.9186ZM77.6562 67.24C77.6562 67.3116 77.6183 67.3788 77.5569 67.4157L76.3848 68.1203C76.0153 68.3424 75.7059 68.6572 75.4905 69.0303L72.8939 73.5277C72.6784 73.901 72.5605 74.326 72.5528 74.7572L72.5287 76.1246C72.5275 76.196 72.4883 76.2627 72.4264 76.2983L70.1205 77.6297C70.0586 77.6655 69.9813 77.6661 69.9188 77.6314L68.7223 76.9686C68.3453 76.7597 67.9183 76.6494 67.4873 76.6494H62.2942C61.8633 76.6494 61.4363 76.7597 61.0591 76.9686L59.8625 77.6314C59.8003 77.6663 59.7228 77.6655 59.6609 77.6297L57.355 76.2983C57.2931 76.2627 57.2541 76.1961 57.2528 76.1249L57.2288 74.7572C57.2211 74.3263 57.1031 73.9011 56.8875 73.5278L54.2909 69.0305C54.0753 68.6571 53.7663 68.3424 53.3967 68.1205L52.2244 67.4157C52.1631 67.3789 52.1252 67.3118 52.1252 67.2402V64.5777C52.1252 64.5061 52.1631 64.4389 52.2245 64.4021L53.3967 63.6974C53.7661 63.4755 54.0753 63.1607 54.2909 62.7874L56.8873 58.2902C57.103 57.9169 57.2211 57.4918 57.2288 57.0605L57.2528 55.6932C57.2541 55.6216 57.2933 55.5549 57.3552 55.5193L59.6608 54.1882C59.7227 54.1522 59.8002 54.1516 59.8627 54.1863L61.0592 54.8493C61.4362 55.058 61.8633 55.1683 62.2942 55.1683H67.4873C67.9183 55.1683 68.3453 55.058 68.7225 54.8491L69.9189 54.1863C69.9811 54.1514 70.0586 54.1522 70.1205 54.188L72.4261 55.5191C72.4881 55.5549 72.5275 55.6216 72.5287 55.693L72.5528 57.0605C72.5605 57.4919 72.6784 57.9171 72.8939 58.2899L75.4905 62.7874C75.7059 63.1607 76.0152 63.4753 76.3847 63.6974L77.5569 64.4021L77.557 64.4022C77.6183 64.4389 77.6562 64.5061 77.6562 64.5777V67.24Z" fill="url(#paint12_linear_1_1689)"/>
<path d="M64.8907 57.9683C60.5124 57.9683 56.9502 61.5304 56.9502 65.9089C56.9502 67.3134 57.3239 68.6958 58.0308 69.9065C58.3572 70.4653 59.0746 70.6539 59.6338 70.3275C60.1925 70.0011 60.3811 69.2834 60.0547 68.7245C59.5569 67.8722 59.2939 66.8984 59.2939 65.9087C59.2939 62.8226 61.8046 60.3119 64.8907 60.3119C67.9768 60.3119 70.4874 62.8226 70.4874 65.9087C70.4874 68.9948 67.9768 71.5054 64.8907 71.5054C64.2671 71.5054 63.6516 71.402 63.0616 71.1981C62.4499 70.9862 61.7825 71.3112 61.5713 71.9228C61.3597 72.5344 61.6843 73.2019 62.296 73.4131C63.1327 73.7026 64.0057 73.8492 64.8907 73.8492C69.2689 73.8492 72.8311 70.287 72.8311 65.9087C72.8311 61.5303 69.2689 57.9683 64.8907 57.9683Z" fill="url(#paint13_linear_1_1689)"/>
</g>
<defs>
<linearGradient id="paint0_linear_1_1689" x1="9.16797" y1="6.93738" x2="14.6316" y2="6.93738" gradientUnits="userSpaceOnUse">
<stop stop-color="#223962"/>
<stop offset="0.526042" stop-color="#3277BC"/>
<stop offset="0.973958" stop-color="#48ABDF"/>
</linearGradient>
<linearGradient id="paint1_linear_1_1689" x1="9.16797" y1="11.3809" x2="14.6316" y2="11.3809" gradientUnits="userSpaceOnUse">
<stop stop-color="#223962"/>
<stop offset="0.526042" stop-color="#3277BC"/>
<stop offset="0.973958" stop-color="#48ABDF"/>
</linearGradient>
<linearGradient id="paint2_linear_1_1689" x1="20.5127" y1="9.1593" x2="54.1496" y2="9.1593" gradientUnits="userSpaceOnUse">
<stop stop-color="#223962"/>
<stop offset="0.526042" stop-color="#3277BC"/>
<stop offset="0.973958" stop-color="#48ABDF"/>
</linearGradient>
<linearGradient id="paint3_linear_1_1689" x1="9.16797" y1="22.91" x2="14.6316" y2="22.91" gradientUnits="userSpaceOnUse">
<stop stop-color="#223962"/>
<stop offset="0.526042" stop-color="#3277BC"/>
<stop offset="0.973958" stop-color="#48ABDF"/>
</linearGradient>
<linearGradient id="paint4_linear_1_1689" x1="9.16797" y1="27.3535" x2="14.6316" y2="27.3535" gradientUnits="userSpaceOnUse">
<stop stop-color="#223962"/>
<stop offset="0.526042" stop-color="#3277BC"/>
<stop offset="0.973958" stop-color="#48ABDF"/>
</linearGradient>
<linearGradient id="paint5_linear_1_1689" x1="20.5127" y1="25.1316" x2="54.1496" y2="25.1316" gradientUnits="userSpaceOnUse">
<stop stop-color="#223962"/>
<stop offset="0.526042" stop-color="#3277BC"/>
<stop offset="0.973958" stop-color="#48ABDF"/>
</linearGradient>
<linearGradient id="paint6_linear_1_1689" x1="9.16797" y1="38.8826" x2="14.6316" y2="38.8826" gradientUnits="userSpaceOnUse">
<stop stop-color="#223962"/>
<stop offset="0.526042" stop-color="#3277BC"/>
<stop offset="0.973958" stop-color="#48ABDF"/>
</linearGradient>
<linearGradient id="paint7_linear_1_1689" x1="9.16797" y1="43.3259" x2="14.6316" y2="43.3259" gradientUnits="userSpaceOnUse">
<stop stop-color="#223962"/>
<stop offset="0.526042" stop-color="#3277BC"/>
<stop offset="0.973958" stop-color="#48ABDF"/>
</linearGradient>
<linearGradient id="paint8_linear_1_1689" x1="20.5127" y1="41.1042" x2="54.1496" y2="41.1042" gradientUnits="userSpaceOnUse">
<stop stop-color="#223962"/>
<stop offset="0.526042" stop-color="#3277BC"/>
<stop offset="0.973958" stop-color="#48ABDF"/>
</linearGradient>
<linearGradient id="paint9_linear_1_1689" x1="9.16797" y1="54.8552" x2="14.6316" y2="54.8552" gradientUnits="userSpaceOnUse">
<stop stop-color="#223962"/>
<stop offset="0.526042" stop-color="#3277BC"/>
<stop offset="0.973958" stop-color="#48ABDF"/>
</linearGradient>
<linearGradient id="paint10_linear_1_1689" x1="9.16797" y1="59.2985" x2="14.6316" y2="59.2985" gradientUnits="userSpaceOnUse">
<stop stop-color="#223962"/>
<stop offset="0.526042" stop-color="#3277BC"/>
<stop offset="0.973958" stop-color="#48ABDF"/>
</linearGradient>
<linearGradient id="paint11_linear_1_1689" x1="20.5127" y1="57.0769" x2="54.1497" y2="57.0769" gradientUnits="userSpaceOnUse">
<stop stop-color="#223962"/>
<stop offset="0.526042" stop-color="#3277BC"/>
<stop offset="0.973958" stop-color="#48ABDF"/>
</linearGradient>
<linearGradient id="paint12_linear_1_1689" x1="-2.98023e-07" y1="40.0001" x2="79.9998" y2="40.0001" gradientUnits="userSpaceOnUse">
<stop stop-color="#223962"/>
<stop offset="0.526042" stop-color="#3277BC"/>
<stop offset="0.973958" stop-color="#48ABDF"/>
</linearGradient>
<linearGradient id="paint13_linear_1_1689" x1="56.9502" y1="65.9087" x2="72.8311" y2="65.9087" gradientUnits="userSpaceOnUse">
<stop stop-color="#223962"/>
<stop offset="0.526042" stop-color="#3277BC"/>
<stop offset="0.973958" stop-color="#48ABDF"/>
</linearGradient>
<clipPath id="clip0_1_1689">
<rect width="80" height="80" fill="white"/>
</clipPath>
</defs>
</svg>
