<svg width="60" height="44" viewBox="0 0 60 44" fill="none" xmlns="http://www.w3.org/2000/svg">
<g clip-path="url(#clip0_502_4537)">
<path fill-rule="evenodd" clip-rule="evenodd" d="M55.9676 35.4633H59.1094C59.6004 35.4633 60 35.8617 60 36.3539V38.3215C60 41.1715 57.6891 43.4824 54.8391 43.4824H42.8906C42.3984 43.4824 42 43.084 42 42.5918C42 42.0996 42.3984 41.7012 42.8906 41.7012H54.8391C56.7047 41.7012 58.2176 40.1883 58.2176 38.3227V37.2457H37.2152C37.1836 38.9707 35.7715 40.3641 34.0395 40.3641H25.9594C24.2273 40.3641 22.8152 38.9707 22.7836 37.2457H1.78242V38.3227C1.78242 40.1883 3.29531 41.7012 5.16094 41.7012H38.7328C39.2238 41.7012 39.6234 42.1008 39.6234 42.5918C39.6234 43.0828 39.225 43.4824 38.7328 43.4824H5.16094C2.31094 43.4824 0 41.1715 0 38.3215V36.3539C0 35.8629 0.398438 35.4633 0.890625 35.4633H3.75117V3.59766C3.75117 1.61016 5.3625 0 7.34883 0H52.3699C54.3574 0 55.9676 1.61016 55.9676 3.59766V35.4633ZM25.9605 38.5816H34.0395C34.7895 38.5816 35.4035 37.9875 35.434 37.2457H24.566C24.5977 37.9875 25.2105 38.5816 25.9605 38.5816ZM5.53359 35.4633H54.184V3.59766C54.184 2.59688 53.3695 1.78242 52.3688 1.78242H7.34883C6.34805 1.78242 5.53359 2.59688 5.53359 3.59766V35.4633ZM17.2287 3.32617H51.7486H51.7498C52.242 3.32617 52.6404 3.72461 52.6404 4.2168V33.0285C52.6404 33.5195 52.242 33.9191 51.7498 33.9191H7.96973C7.47754 33.9191 7.0791 33.5207 7.0791 33.0285V4.21797C7.0791 3.72695 7.47754 3.32734 7.96973 3.32734H13.0697C13.5607 3.32734 13.9604 3.72578 13.9604 4.21797C13.9604 4.71016 13.5619 5.10859 13.0697 5.10859H8.86035V32.1355H50.858V5.10742H17.2287C16.7365 5.10742 16.3381 4.70898 16.3381 4.2168C16.3381 3.72461 16.7365 3.32617 17.2287 3.32617Z" fill="url(#paint0_linear_502_4537)"/>
</g>
<defs>
<linearGradient id="paint0_linear_502_4537" x1="-2.23517e-07" y1="21.7412" x2="60" y2="21.7412" gradientUnits="userSpaceOnUse">
<stop stop-color="#223962"/>
<stop offset="0.526042" stop-color="#3277BC"/>
<stop offset="0.973958" stop-color="#48ABDF"/>
</linearGradient>
<clipPath id="clip0_502_4537">
<rect width="60" height="43.4836" fill="white"/>
</clipPath>
</defs>
</svg>
