<svg width="80" height="80" viewBox="0 0 80 80" fill="none" xmlns="http://www.w3.org/2000/svg">
<g clip-path="url(#clip0_1_1592)">
<path d="M62.4534 17.0416C60.5792 12.1644 57.3423 7.98516 53.067 4.93094C48.5514 1.70516 43.2231 0 37.6579 0C29.9209 0 22.5843 3.36891 17.5293 9.24281C17.1071 9.73328 17.1624 10.4733 17.6531 10.8955C18.1437 11.3177 18.8834 11.2622 19.3057 10.7717C23.9153 5.41563 30.6042 2.34375 37.6579 2.34375C47.8156 2.34375 56.9674 8.76641 60.431 18.3253C60.659 18.9552 61.2642 19.378 61.9389 19.378H61.9409C70.6063 19.3781 77.6562 26.4386 77.6562 35.117C77.6562 39.1606 76.1274 43.0031 73.3515 45.9366C72.9065 46.4066 72.927 47.1483 73.3971 47.5933C73.8665 48.0375 74.6082 48.0183 75.0539 47.5475C78.2434 44.1769 79.9999 39.7623 79.9999 35.117C79.9999 25.3191 72.1778 17.3161 62.4534 17.0416Z" fill="url(#paint0_linear_1_1592)"/>
<path d="M41.0938 71.57V69.0625C41.0938 68.4153 40.5692 67.8906 39.9219 67.8906C39.2745 67.8906 38.75 68.4153 38.75 69.0625V71.57C36.9488 72.0816 35.625 73.7402 35.625 75.7031C35.625 78.0725 37.5527 80 39.9219 80C42.2911 80 44.2188 78.0725 44.2188 75.7031C44.2188 73.7402 42.895 72.0816 41.0938 71.57ZM39.9219 77.6562C38.8448 77.6562 37.9688 76.7802 37.9688 75.7031C37.9688 74.6261 38.8448 73.75 39.9219 73.75C40.9989 73.75 41.875 74.6261 41.875 75.7031C41.875 76.7802 40.9989 77.6562 39.9219 77.6562Z" fill="url(#paint1_linear_1_1592)"/>
<path d="M30.0781 60.3906C29.4308 60.3906 28.9062 60.9153 28.9062 61.5625V67.8906C28.9062 68.4506 28.4506 68.9062 27.8906 68.9062H25.7737C25.2622 67.105 23.6036 65.7812 21.6406 65.7812C19.2714 65.7812 17.3438 67.7088 17.3438 70.0781C17.3438 72.4475 19.2714 74.375 21.6406 74.375C23.6036 74.375 25.2622 73.0513 25.7737 71.25H27.8906C29.743 71.25 31.25 69.743 31.25 67.8906V61.5625C31.25 60.9153 30.7255 60.3906 30.0781 60.3906ZM21.6406 72.0312C20.5636 72.0312 19.6875 71.1552 19.6875 70.0781C19.6875 69.0011 20.5636 68.125 21.6406 68.125C22.7177 68.125 23.5938 69.0011 23.5938 70.0781C23.5938 71.1552 22.7177 72.0312 21.6406 72.0312Z" fill="url(#paint2_linear_1_1592)"/>
<path d="M67.8906 57.0313C65.9277 57.0313 64.2691 58.355 63.7575 60.1563H61.6406C61.0806 60.1563 60.625 59.7006 60.625 59.1406V53.123C62.5231 53.1214 63.6256 53.1178 63.6925 53.1114C66.0347 52.8855 68.2762 52.2145 70.3547 51.1172C70.927 50.815 71.1461 50.1061 70.8441 49.5338C70.5417 48.9614 69.8328 48.742 69.2606 49.0445C67.4642 49.9928 65.5278 50.5749 63.5042 50.7749C63.2433 50.7795 61.7728 50.7814 59.4545 50.7813C59.4541 50.7813 59.4536 50.7813 59.4531 50.7813C59.4527 50.7813 59.4522 50.7813 59.4517 50.7813C50.1516 50.7808 27.2053 50.7472 13.8517 50.7252C11.6187 50.7211 9.50766 50.118 7.74672 48.9814C4.36359 46.798 2.34375 43.0916 2.34375 39.067C2.34375 33.2985 6.45922 28.4117 12.1297 27.4475C12.8733 27.3208 13.4281 26.678 13.4489 25.9191C13.5545 22.0799 14.5291 18.4292 16.3456 15.0688C16.6534 14.4994 16.4412 13.7885 15.872 13.4806C15.3023 13.1725 14.5916 13.385 14.2839 13.9542C12.3861 17.4652 11.3259 21.2633 11.1292 25.2536C4.64422 26.6461 0 32.3595 0 39.067C0 43.8913 2.42078 48.3336 6.47563 50.9506C8.61484 52.3314 11.1641 53.0639 13.8477 53.0689C15.6159 53.0719 17.4112 53.0747 19.2188 53.0777V59.1406C19.2188 59.7006 18.7631 60.1563 18.2031 60.1563H16.0863C15.5747 58.355 13.9161 57.0313 11.9531 57.0313C9.58391 57.0313 7.65625 58.9588 7.65625 61.3281C7.65625 63.6975 9.58391 65.625 11.9531 65.625C13.9161 65.625 15.5747 64.3013 16.0863 62.5H18.2031C20.0555 62.5 21.5625 60.993 21.5625 59.1406V53.0814C24.0123 53.0853 26.4725 53.0891 28.9062 53.0927V56.0938C28.9062 56.741 29.4308 57.2656 30.0781 57.2656C30.7255 57.2656 31.25 56.741 31.25 56.0938V53.0961C33.8077 53.0999 36.3222 53.1033 38.75 53.1064V63.5938C38.75 64.241 39.2745 64.7656 39.9219 64.7656C40.5692 64.7656 41.0938 64.241 41.0938 63.5938V53.1094C43.7406 53.1127 46.2611 53.1155 48.5938 53.1178V67.8906C48.5938 69.743 50.1008 71.25 51.9531 71.25H54.07C54.5816 73.0513 56.2402 74.375 58.2031 74.375C60.5723 74.375 62.5 72.4475 62.5 70.0781C62.5 67.7088 60.5723 65.7813 58.2031 65.7813C56.2402 65.7813 54.5816 67.105 54.07 68.9063H51.9531C51.3931 68.9063 50.9375 68.4506 50.9375 67.8906V53.12C53.7783 53.1224 56.2703 53.1238 58.2795 53.1238H58.2812V59.1406C58.2812 60.993 59.7883 62.5 61.6406 62.5H63.7575C64.2691 64.3013 65.9277 65.625 67.8906 65.625C70.2598 65.625 72.1875 63.6975 72.1875 61.3281C72.1875 58.9588 70.2598 57.0313 67.8906 57.0313ZM11.9531 63.2813C10.8761 63.2813 10 62.4052 10 61.3281C10 60.2511 10.8761 59.375 11.9531 59.375C13.0302 59.375 13.9062 60.2511 13.9062 61.3281C13.9062 62.4052 13.0302 63.2813 11.9531 63.2813ZM58.2031 68.125C59.2802 68.125 60.1562 69.0011 60.1562 70.0781C60.1562 71.1552 59.2802 72.0313 58.2031 72.0313C57.1261 72.0313 56.25 71.1552 56.25 70.0781C56.25 69.0011 57.1261 68.125 58.2031 68.125ZM67.8906 63.2813C66.8136 63.2813 65.9375 62.4052 65.9375 61.3281C65.9375 60.2511 66.8136 59.375 67.8906 59.375C68.9677 59.375 69.8438 60.2511 69.8438 61.3281C69.8438 62.4052 68.9677 63.2813 67.8906 63.2813Z" fill="url(#paint3_linear_1_1592)"/>
</g>
<defs>
<linearGradient id="paint0_linear_1_1592" x1="17.2456" y1="23.957" x2="79.9999" y2="23.957" gradientUnits="userSpaceOnUse">
<stop stop-color="#223962"/>
<stop offset="0.526042" stop-color="#3277BC"/>
<stop offset="0.973958" stop-color="#48ABDF"/>
</linearGradient>
<linearGradient id="paint1_linear_1_1592" x1="35.625" y1="73.9453" x2="44.2187" y2="73.9453" gradientUnits="userSpaceOnUse">
<stop stop-color="#223962"/>
<stop offset="0.526042" stop-color="#3277BC"/>
<stop offset="0.973958" stop-color="#48ABDF"/>
</linearGradient>
<linearGradient id="paint2_linear_1_1592" x1="17.3437" y1="67.3828" x2="31.25" y2="67.3828" gradientUnits="userSpaceOnUse">
<stop stop-color="#223962"/>
<stop offset="0.526042" stop-color="#3277BC"/>
<stop offset="0.973958" stop-color="#48ABDF"/>
</linearGradient>
<linearGradient id="paint3_linear_1_1592" x1="-2.68919e-07" y1="43.8572" x2="72.1875" y2="43.8572" gradientUnits="userSpaceOnUse">
<stop stop-color="#223962"/>
<stop offset="0.526042" stop-color="#3277BC"/>
<stop offset="0.973958" stop-color="#48ABDF"/>
</linearGradient>
<clipPath id="clip0_1_1592">
<rect width="80" height="80" fill="white"/>
</clipPath>
</defs>
</svg>
