<svg width="49" height="60" viewBox="0 0 49 60" fill="none" xmlns="http://www.w3.org/2000/svg">
<g clip-path="url(#clip0_343_5650)">
<path d="M13.65 17.6202C13.8211 17.7913 14.0461 17.878 14.2711 17.878C14.4961 17.878 14.7211 17.7925 14.8922 17.6202C15.2356 17.2769 15.2356 16.7202 14.8922 16.3769C13.6946 15.1792 13.036 13.5878 13.036 11.8944C13.036 10.2011 13.6957 8.60967 14.8922 7.41201C15.2356 7.06865 15.2356 6.51201 14.8922 6.16865C14.5489 5.82529 13.9922 5.82529 13.6489 6.16865C12.1196 7.69795 11.277 9.73115 11.277 11.8944C11.277 14.0577 12.1196 16.0909 13.6489 17.6202H13.65Z" fill="url(#paint0_linear_343_5650)"/>
<path d="M10.6933 20.5768C10.8644 20.7479 11.0894 20.8346 11.3144 20.8346C11.5394 20.8346 11.7644 20.749 11.9355 20.5768C12.2789 20.2334 12.2789 19.6768 11.9355 19.3334C7.83394 15.2318 7.83394 8.55801 11.9355 4.45645C12.2789 4.11309 12.2789 3.55645 11.9355 3.21309C11.5921 2.86973 11.0355 2.86973 10.6921 3.21309C5.90503 8.0002 5.90503 15.7896 10.6921 20.5756L10.6933 20.5768Z" fill="url(#paint1_linear_343_5650)"/>
<path d="M8.35898 23.7901C8.58398 23.7901 8.80898 23.7046 8.98008 23.5323C9.32344 23.189 9.32344 22.6323 8.98008 22.289C3.24844 16.5573 3.24844 7.23154 8.98008 1.4999C9.32344 1.15654 9.32344 0.599902 8.98008 0.256543C8.63672 -0.0868164 8.08008 -0.0868164 7.73672 0.256543C1.31953 6.67373 1.31953 17.1151 7.73672 23.5312C7.90781 23.7022 8.13281 23.789 8.35781 23.789L8.35898 23.7901Z" fill="url(#paint2_linear_343_5650)"/>
<path d="M33.2392 17.6205C33.4114 17.7916 33.6364 17.8783 33.8603 17.8783C34.0841 17.8783 34.3103 17.7928 34.4813 17.6205C37.6384 14.4635 37.6384 9.32715 34.4813 6.17012C34.138 5.82676 33.5813 5.82676 33.238 6.17012C32.8946 6.51348 32.8946 7.07012 33.238 7.41348C35.7095 9.88496 35.7095 13.9068 33.238 16.3783C32.8946 16.7217 32.8946 17.2783 33.238 17.6217L33.2392 17.6205Z" fill="url(#paint3_linear_343_5650)"/>
<path d="M36.1945 19.3334C35.8511 19.6768 35.8511 20.2334 36.1945 20.5768C36.3667 20.7479 36.5906 20.8346 36.8156 20.8346C37.0406 20.8346 37.2656 20.749 37.4367 20.5768C42.2238 15.7896 42.2238 8.0002 37.4367 3.21309C37.0933 2.86973 36.5367 2.86973 36.1933 3.21309C35.85 3.55645 35.85 4.11309 36.1933 4.45645C40.2949 8.55801 40.2949 15.2318 36.1933 19.3334H36.1945Z" fill="url(#paint4_linear_343_5650)"/>
<path d="M39.1513 22.2893C38.8079 22.6326 38.8079 23.1893 39.1513 23.5326C39.3224 23.7037 39.5485 23.7904 39.7724 23.7904C39.9962 23.7904 40.2224 23.7049 40.3935 23.5326C46.8106 17.1154 46.8106 6.67402 40.3935 0.258008C40.0501 -0.0853516 39.4935 -0.0853516 39.1501 0.258008C38.8067 0.601367 38.8067 1.15801 39.1501 1.50137C44.8817 7.23301 44.8817 16.5588 39.1501 22.2904L39.1513 22.2893Z" fill="url(#paint5_linear_343_5650)"/>
<path d="M45.8461 53.4576H44.6133L28.7402 13.2131C28.8586 12.7936 28.923 12.3518 28.923 11.8947C28.923 9.21582 26.7434 7.03613 24.0645 7.03613C21.3855 7.03613 19.2059 9.21582 19.2059 11.8947C19.2059 12.3518 19.2703 12.7936 19.3887 13.2131L3.51797 53.4576H2.28516C1.02539 53.4576 0 54.483 0 55.7428V57.715C0 58.9748 1.02539 60.0002 2.28516 60.0002H4.93945C5.42461 60.0002 5.81836 59.6064 5.81836 59.1213C5.81836 58.6361 5.42461 58.2424 4.93945 58.2424H2.28516C1.99453 58.2424 1.75781 58.0057 1.75781 57.715V55.7428C1.75781 55.4521 1.99453 55.2154 2.28516 55.2154H45.8461C46.1367 55.2154 46.3734 55.4521 46.3734 55.7428V57.715C46.3734 58.0057 46.1367 58.2424 45.8461 58.2424H9.04102C8.55586 58.2424 8.16211 58.6361 8.16211 59.1213C8.16211 59.6064 8.55586 60.0002 9.04102 60.0002H45.8461C47.1059 60.0002 48.1312 58.9748 48.1312 57.715V55.7428C48.1312 54.483 47.1059 53.4576 45.8461 53.4576ZM24.0656 8.79395C25.7754 8.79395 27.1664 10.185 27.1664 11.8947C27.1664 13.6045 25.7754 14.9955 24.0656 14.9955C22.3559 14.9955 20.9648 13.6045 20.9648 11.8947C20.9648 10.185 22.3559 8.79395 24.0656 8.79395ZM32.5687 36.3318L35.5312 43.8412H15.4922L32.5699 36.3318H32.5687ZM12.9105 43.0561L15.6996 35.9838H28.9945L12.9105 43.0561ZM17.8676 34.226L28.8586 26.9264L31.7379 34.226H17.8676ZM16.998 32.6932L19.493 26.3686H26.5207L16.998 32.6932ZM20.1855 24.6107L23.3086 16.6947C23.5547 16.7334 23.8078 16.7545 24.0656 16.7545C24.3234 16.7545 24.5754 16.7346 24.8227 16.6947L27.9457 24.6107H20.1867H20.1855ZM5.40703 53.4576L20.4996 15.1912C20.8336 15.5521 21.2215 15.8615 21.6504 16.1088L6.91875 53.4576H5.4082H5.40703ZM11.9074 45.6002H31.3242L9.02109 52.9186L11.9074 45.6002ZM13.0125 53.4576L36.3082 45.8135L39.3234 53.4576H13.0125ZM41.2125 53.4576L26.4809 16.1076C26.9098 15.8615 27.2977 15.551 27.6316 15.19L42.7242 53.4564H41.2125V53.4576Z" fill="url(#paint6_linear_343_5650)"/>
</g>
<defs>
<linearGradient id="paint0_linear_343_5650" x1="11.277" y1="11.8946" x2="15.1497" y2="11.8946" gradientUnits="userSpaceOnUse">
<stop stop-color="#223962"/>
<stop offset="0.526042" stop-color="#3277BC"/>
<stop offset="0.973958" stop-color="#48ABDF"/>
</linearGradient>
<linearGradient id="paint1_linear_343_5650" x1="7.10181" y1="11.8951" x2="12.193" y2="11.8951" gradientUnits="userSpaceOnUse">
<stop stop-color="#223962"/>
<stop offset="0.526042" stop-color="#3277BC"/>
<stop offset="0.973958" stop-color="#48ABDF"/>
</linearGradient>
<linearGradient id="paint2_linear_343_5650" x1="2.92383" y1="11.8946" x2="9.2376" y2="11.8946" gradientUnits="userSpaceOnUse">
<stop stop-color="#223962"/>
<stop offset="0.526042" stop-color="#3277BC"/>
<stop offset="0.973958" stop-color="#48ABDF"/>
</linearGradient>
<linearGradient id="paint3_linear_343_5650" x1="32.9805" y1="11.8955" x2="36.8491" y2="11.8955" gradientUnits="userSpaceOnUse">
<stop stop-color="#223962"/>
<stop offset="0.526042" stop-color="#3277BC"/>
<stop offset="0.973958" stop-color="#48ABDF"/>
</linearGradient>
<linearGradient id="paint4_linear_343_5650" x1="35.9358" y1="11.8951" x2="41.027" y2="11.8951" gradientUnits="userSpaceOnUse">
<stop stop-color="#223962"/>
<stop offset="0.526042" stop-color="#3277BC"/>
<stop offset="0.973958" stop-color="#48ABDF"/>
</linearGradient>
<linearGradient id="paint5_linear_343_5650" x1="38.8926" y1="11.8955" x2="45.2063" y2="11.8955" gradientUnits="userSpaceOnUse">
<stop stop-color="#223962"/>
<stop offset="0.526042" stop-color="#3277BC"/>
<stop offset="0.973958" stop-color="#48ABDF"/>
</linearGradient>
<linearGradient id="paint6_linear_343_5650" x1="-1.79303e-07" y1="33.5182" x2="48.1312" y2="33.5182" gradientUnits="userSpaceOnUse">
<stop stop-color="#223962"/>
<stop offset="0.526042" stop-color="#3277BC"/>
<stop offset="0.973958" stop-color="#48ABDF"/>
</linearGradient>
<clipPath id="clip0_343_5650">
<rect width="48.1312" height="60" fill="white"/>
</clipPath>
</defs>
</svg>
