<svg width="60" height="60" viewBox="0 0 60 60" fill="none" xmlns="http://www.w3.org/2000/svg">
<g clip-path="url(#clip0_343_5545)">
<path d="M59.0982 26.5883L54.448 21.7069C53.2053 20.4026 51.132 20.3525 49.8277 21.5944C49.1958 22.1965 48.8354 23.0085 48.8143 23.8813C48.7976 24.5624 48.9892 25.2172 49.361 25.7727C44.8892 26.365 40.7347 28.4067 37.5118 31.6278C35.7092 33.4304 34.2819 35.509 33.2685 37.7686V10.7595C33.7563 11.0372 34.3091 11.1849 34.8822 11.1849C35.7725 11.1849 36.6347 10.8157 37.249 10.1715C37.8511 9.53957 38.171 8.71078 38.1499 7.83804C38.1288 6.96531 37.7685 6.15321 37.1365 5.55117L32.2543 0.902729C30.9905 -0.30047 29.0103 -0.301349 27.7465 0.902729L22.8643 5.55205C22.2323 6.15409 21.872 6.96619 21.8509 7.83892C21.8298 8.71166 22.1497 9.54045 22.7518 10.1724C23.8064 11.2789 25.4587 11.4828 26.7322 10.7603V14.6547C26.7322 15.1399 27.126 15.5336 27.6111 15.5336C28.0963 15.5336 28.49 15.1399 28.49 14.6547V8.84349C28.49 8.49194 28.2808 8.17378 27.9574 8.03579C27.634 7.89693 27.2596 7.9646 27.0056 8.20718L26.1601 9.01224C25.5572 9.58615 24.5992 9.5633 24.0244 8.96038C23.7458 8.66859 23.5981 8.2854 23.6087 7.88287C23.6183 7.47946 23.7845 7.10505 24.0771 6.82644L28.9593 2.17712C29.5438 1.62078 30.4587 1.62078 31.0432 2.17712L35.9254 6.82644C36.2172 7.10417 36.3833 7.47946 36.3939 7.88287C36.4035 8.28628 36.2559 8.66859 35.9773 8.96038C35.6899 9.26272 35.3005 9.42883 34.8831 9.42883C34.4937 9.42883 34.1237 9.28118 33.8416 9.01224L32.9961 8.20718C32.7412 7.9646 32.3668 7.89781 32.0443 8.03579C31.7208 8.17466 31.5116 8.49194 31.5116 8.84349V45.0027C31.4888 45.4035 31.4756 45.8052 31.4756 46.2095V56.7333C31.4756 56.822 31.48 56.9091 31.487 56.9961C31.3622 57.7036 30.7444 58.2432 30.0008 58.2432C29.2573 58.2432 28.5885 57.6587 28.5014 56.9091C28.505 56.8511 28.5058 56.7922 28.5058 56.7342V46.2095C28.5058 45.9493 28.4997 45.69 28.49 45.4308V19.3348C28.49 18.8496 28.0963 18.4559 27.6111 18.4559C27.126 18.4559 26.7322 18.8496 26.7322 19.3348V37.8126C25.718 35.5362 24.2837 33.4418 22.4688 31.6278C19.2511 28.412 15.1037 26.3703 10.638 25.7753C10.9949 25.2418 11.1873 24.6143 11.1873 23.9613C11.1873 23.0709 10.8173 22.2088 10.1731 21.5953C8.86794 20.3525 6.79552 20.4035 5.55277 21.7078L0.90257 26.5883C-0.301508 27.8521 -0.301508 29.8314 0.90257 31.0952L5.55277 35.9757C6.79552 37.2799 8.86794 37.3309 10.1731 36.0882C10.805 35.4861 11.1654 34.674 11.1865 33.8013C11.1979 33.3329 11.1109 32.8776 10.9351 32.4584C13.5366 33.0323 15.9377 34.3401 17.8467 36.2481C20.5053 38.9059 21.9695 42.4425 21.9695 46.2077V56.7324C21.9695 58.5341 23.4355 60.0001 25.2381 60.0001C26.1759 60.0001 27.0232 59.602 27.6199 58.9674C28.2167 59.6029 29.0631 60.0001 30.0008 60.0001C30.9386 60.0001 31.7762 59.6064 32.3721 58.978C32.968 59.6072 33.8099 60.0001 34.7433 60.0001C36.545 60.0001 38.011 58.5341 38.011 56.7324V49.2161C38.011 48.731 37.6173 48.3372 37.1321 48.3372C36.647 48.3372 36.2532 48.731 36.2532 49.2161V56.7324C36.2532 57.5647 35.5756 58.2423 34.7433 58.2423C34.0007 58.2423 33.3819 57.7027 33.2571 56.9952C33.2641 56.9082 33.2685 56.8212 33.2685 56.7324V45.0537C33.5445 40.4475 35.4666 36.1567 38.7546 32.8706C42.0926 29.5334 46.5239 27.5805 51.233 27.3705C51.5776 27.3555 51.8808 27.1402 52.0091 26.8203C52.1374 26.5004 52.068 26.1356 51.8298 25.886L50.9869 25.0019C50.7083 24.7101 50.5607 24.3269 50.5704 23.9243C50.58 23.5218 50.7461 23.1465 51.0388 22.8679C51.6417 22.294 52.5997 22.3169 53.1745 22.9198L57.8247 27.8011C58.381 28.3847 58.381 29.2996 57.8247 29.8832L53.1745 34.7637C52.5997 35.3666 51.6417 35.3895 51.0388 34.8155C50.7365 34.5281 50.5704 34.1397 50.5704 33.7222C50.5704 33.3329 50.718 32.9637 50.9869 32.6816L51.7437 31.888C51.9933 31.6261 52.0566 31.2376 51.9036 30.9098C51.7507 30.5819 51.4123 30.3824 51.0502 30.4044C47.2191 30.6522 43.6104 32.2861 40.8903 35.0054C38.316 37.5788 36.7463 40.843 36.3499 44.4447C36.2972 44.9272 36.6452 45.3613 37.1277 45.4141C37.6094 45.4677 38.0444 45.1188 38.0972 44.6362C38.4487 41.4362 39.8444 38.535 42.133 36.2473C44.0481 34.333 46.4571 33.0244 49.0675 32.4522C48.9005 32.8495 48.8126 33.2792 48.8126 33.7205C48.8126 34.6108 49.1826 35.473 49.8268 36.0864C51.132 37.3292 53.2044 37.2782 54.4471 35.9739L59.0973 31.0934C60.3014 29.8296 60.3014 27.8495 59.0973 26.5865L59.0982 26.5883ZM25.2381 58.2423C24.4049 58.2423 23.7273 57.5647 23.7273 56.7324V46.2077C23.7273 41.9732 22.0803 37.9945 19.0894 35.0045C16.3745 32.2905 12.7746 30.6575 8.95232 30.4044C8.93298 30.4035 8.91364 30.4026 8.89431 30.4026C8.55506 30.4026 8.24393 30.5986 8.09891 30.9089C7.94511 31.2367 8.00839 31.6252 8.25887 31.888L9.01384 32.6807C9.29245 32.9725 9.4401 33.3557 9.43043 33.7582C9.42076 34.1617 9.25465 34.5361 8.96198 34.8147C8.35907 35.3886 7.40108 35.3657 6.82628 34.7628L2.17608 29.8823C1.61974 29.2988 1.61974 28.3838 2.17608 27.8003L6.82628 22.9198C7.40108 22.3169 8.35819 22.294 8.96198 22.8679C9.26432 23.1553 9.43043 23.5438 9.43043 23.9613C9.43043 24.3506 9.28278 24.7197 9.01384 25.0019L8.17098 25.8869C7.93368 26.1365 7.86337 26.5013 7.99169 26.8212C8.12001 27.1411 8.42322 27.3555 8.76687 27.3714C13.468 27.5858 17.8933 29.5387 21.226 32.8714C24.6097 36.2543 26.5477 40.6997 26.7322 45.4598V56.7333C26.7322 56.7922 26.734 56.8502 26.7366 56.9082C26.6496 57.6579 26.0107 58.2423 25.2373 58.2423H25.2381Z" fill="url(#paint0_linear_343_5545)"/>
<path d="M51.2937 10.2416C51.4141 10.2416 51.5363 10.217 51.6532 10.1642C52.0961 9.96561 52.2939 9.44531 52.0953 9.00235C51.8957 8.55939 51.3763 8.36164 50.9334 8.56114C50.4904 8.75977 50.2927 9.28008 50.4913 9.72304C50.6381 10.0482 50.9588 10.2416 51.2937 10.2416Z" fill="url(#paint1_linear_343_5545)"/>
<path d="M37.0205 24.5917C36.915 25.0654 37.213 25.5348 37.6867 25.6411C37.7517 25.6552 37.8159 25.6622 37.8792 25.6622C38.2817 25.6622 38.6447 25.3836 38.7361 24.9749C38.8424 24.5012 38.5436 24.031 38.0699 23.9255C37.5962 23.82 37.1268 24.118 37.0205 24.5917Z" fill="url(#paint2_linear_343_5545)"/>
<path d="M45.3745 13.9844C45.5766 13.9844 45.7805 13.915 45.9458 13.7726C46.314 13.4571 46.3571 12.9016 46.0407 12.5334C45.7243 12.1651 45.1697 12.1221 44.8014 12.4385C44.4332 12.7549 44.3901 13.3094 44.7065 13.6777C44.8805 13.8807 45.1266 13.9844 45.3745 13.9844Z" fill="url(#paint3_linear_343_5545)"/>
<path d="M40.2971 19.1308C40.4439 19.2258 40.6091 19.2706 40.7726 19.2706C41.0609 19.2706 41.3439 19.1291 41.5117 18.868C41.7745 18.4602 41.6576 17.9162 41.2498 17.6534C40.842 17.3898 40.298 17.5075 40.0343 17.9153C39.7715 18.3231 39.8884 18.8672 40.2971 19.1308Z" fill="url(#paint4_linear_343_5545)"/>
<path d="M14.0544 13.7726C14.2205 13.915 14.4244 13.9844 14.6265 13.9844C14.8744 13.9844 15.1204 13.8807 15.2945 13.6777C15.61 13.3094 15.5678 12.7549 15.1995 12.4385C14.8304 12.1221 14.2758 12.1651 13.9603 12.5334C13.6439 12.9016 13.6861 13.4562 14.0544 13.7726Z" fill="url(#paint5_linear_343_5545)"/>
<path d="M21.2639 24.9733C21.3553 25.3829 21.7182 25.6615 22.1208 25.6615C22.1849 25.6615 22.2491 25.6545 22.3132 25.6404C22.787 25.5341 23.0858 25.0647 22.9794 24.591C22.874 24.1173 22.4038 23.8185 21.9301 23.9248C21.4572 24.0303 21.1584 24.5005 21.2639 24.9742V24.9733Z" fill="url(#paint6_linear_343_5545)"/>
<path d="M8.34683 10.1642C8.46372 10.217 8.58589 10.2416 8.7063 10.2416C9.04203 10.2416 9.36283 10.0482 9.50872 9.72304C9.70735 9.28008 9.51048 8.75977 9.06752 8.56114C8.62456 8.36164 8.10426 8.55939 7.90563 9.00235C7.70612 9.44531 7.90387 9.96561 8.34683 10.1642Z" fill="url(#paint7_linear_343_5545)"/>
<path d="M19.2284 19.2706C19.3919 19.2706 19.5562 19.2258 19.7039 19.13C20.1117 18.8672 20.2294 18.3231 19.9658 17.9153C19.703 17.5075 19.1589 17.3898 18.7511 17.6534C18.3433 17.9162 18.2256 18.4602 18.4892 18.868C18.6571 19.1291 18.9392 19.2706 19.2284 19.2706Z" fill="url(#paint8_linear_343_5545)"/>
</g>
<defs>
<linearGradient id="paint0_linear_343_5545" x1="-0.000488505" y1="30.0001" x2="60.0004" y2="30.0001" gradientUnits="userSpaceOnUse">
<stop stop-color="#223962"/>
<stop offset="0.526042" stop-color="#3277BC"/>
<stop offset="0.973958" stop-color="#48ABDF"/>
</linearGradient>
<linearGradient id="paint1_linear_343_5545" x1="50.4141" y1="9.36249" x2="52.1725" y2="9.36249" gradientUnits="userSpaceOnUse">
<stop stop-color="#223962"/>
<stop offset="0.526042" stop-color="#3277BC"/>
<stop offset="0.973958" stop-color="#48ABDF"/>
</linearGradient>
<linearGradient id="paint2_linear_343_5545" x1="36.9993" y1="24.7832" x2="38.7576" y2="24.7832" gradientUnits="userSpaceOnUse">
<stop stop-color="#223962"/>
<stop offset="0.526042" stop-color="#3277BC"/>
<stop offset="0.973958" stop-color="#48ABDF"/>
</linearGradient>
<linearGradient id="paint3_linear_343_5545" x1="44.4946" y1="13.1055" x2="46.2526" y2="13.1055" gradientUnits="userSpaceOnUse">
<stop stop-color="#223962"/>
<stop offset="0.526042" stop-color="#3277BC"/>
<stop offset="0.973958" stop-color="#48ABDF"/>
</linearGradient>
<linearGradient id="paint4_linear_343_5545" x1="39.894" y1="18.3916" x2="41.6521" y2="18.3916" gradientUnits="userSpaceOnUse">
<stop stop-color="#223962"/>
<stop offset="0.526042" stop-color="#3277BC"/>
<stop offset="0.973958" stop-color="#48ABDF"/>
</linearGradient>
<linearGradient id="paint5_linear_343_5545" x1="13.748" y1="13.1055" x2="15.506" y2="13.1055" gradientUnits="userSpaceOnUse">
<stop stop-color="#223962"/>
<stop offset="0.526042" stop-color="#3277BC"/>
<stop offset="0.973958" stop-color="#48ABDF"/>
</linearGradient>
<linearGradient id="paint6_linear_343_5545" x1="21.2427" y1="24.7824" x2="23.0009" y2="24.7824" gradientUnits="userSpaceOnUse">
<stop stop-color="#223962"/>
<stop offset="0.526042" stop-color="#3277BC"/>
<stop offset="0.973958" stop-color="#48ABDF"/>
</linearGradient>
<linearGradient id="paint7_linear_343_5545" x1="7.82788" y1="9.36249" x2="9.58609" y2="9.36249" gradientUnits="userSpaceOnUse">
<stop stop-color="#223962"/>
<stop offset="0.526042" stop-color="#3277BC"/>
<stop offset="0.973958" stop-color="#48ABDF"/>
</linearGradient>
<linearGradient id="paint8_linear_343_5545" x1="18.3485" y1="18.3916" x2="20.1065" y2="18.3916" gradientUnits="userSpaceOnUse">
<stop stop-color="#223962"/>
<stop offset="0.526042" stop-color="#3277BC"/>
<stop offset="0.973958" stop-color="#48ABDF"/>
</linearGradient>
<clipPath id="clip0_343_5545">
<rect width="60.0009" height="60" fill="white"/>
</clipPath>
</defs>
</svg>
