<svg width="60" height="38" viewBox="0 0 60 38" fill="none" xmlns="http://www.w3.org/2000/svg">
<g clip-path="url(#clip0_343_5353)">
<path d="M55.8 16.0898L54.2461 9.87539C54.6703 9.78516 54.9902 9.40781 54.9902 8.95664V7.95469C54.9902 5.77851 53.2195 4.00898 51.0445 4.00898H43.9676V1.9418C43.9676 0.870703 43.0969 0 42.0258 0H5.94961C4.87852 0 4.00781 0.870703 4.00781 1.9418V18.9773C4.00781 19.4965 4.42852 19.9172 4.94766 19.9172C5.4668 19.9172 5.8875 19.4965 5.8875 18.9773V1.9418C5.8875 1.90781 5.91563 1.87969 5.94961 1.87969H42.0246C42.0586 1.87969 42.0867 1.90781 42.0867 1.9418V18.9773C42.0867 19.4965 42.5074 19.9172 43.0266 19.9172C43.5457 19.9172 43.9664 19.4965 43.9664 18.9773V17.9121H55.0488C55.0488 17.9121 55.05 17.9121 55.0512 17.9121H55.0535C56.4176 17.9121 57.5754 18.8086 57.9727 20.0414H55.0512C54.532 20.0414 54.1113 20.4621 54.1113 20.9812V22.9852C54.1113 24.6082 55.432 25.9289 57.0551 25.9289H58.1203V30.0621H55.6641C54.8566 27.7324 52.6418 26.0543 50.0414 26.0543C47.441 26.0543 45.225 27.7324 44.4188 30.0633H43.9664V22.9863C43.9664 22.4672 43.5457 22.0465 43.0266 22.0465C42.5074 22.0465 42.0867 22.4672 42.0867 22.9863V30.0633H22.5949C21.7875 27.7336 19.5727 26.0543 16.9723 26.0543C14.3719 26.0543 12.1559 27.7324 11.3496 30.0633H5.94961C5.91563 30.0633 5.8875 30.0352 5.8875 30.0012V27.934H9.95859C10.4777 27.934 10.8984 27.5133 10.8984 26.9941C10.8984 26.475 10.4777 26.0543 9.95859 26.0543H0.939844C0.420703 26.0543 0 26.475 0 26.9941C0 27.5133 0.420703 27.934 0.939844 27.934H4.00898V30.0012C4.00898 31.0723 4.87969 31.943 5.95078 31.943H11.025C11.025 31.9641 11.0238 31.984 11.0238 32.0051C11.0238 35.2863 13.6934 37.9547 16.9734 37.9547C20.2535 37.9547 22.923 35.2852 22.923 32.0051C22.923 31.984 22.9219 31.9629 22.9219 31.943H44.0941C44.0941 31.9641 44.093 31.984 44.093 32.0051C44.093 35.2863 46.7625 37.9547 50.0426 37.9547C53.3227 37.9547 55.9922 35.2852 55.9922 32.0051C55.9922 31.984 55.991 31.9629 55.991 31.943H59.0613C59.5805 31.943 60.0012 31.5223 60.0012 31.0031V20.9824C60.0012 18.5086 58.1754 16.4531 55.8012 16.091L55.8 16.0898ZM43.9664 5.8875H51.0434C52.1824 5.8875 53.1105 6.81445 53.1105 7.95469V8.0168H43.9664V5.8875ZM43.9664 16.0336V9.89531H52.3137L53.8477 16.0336H43.9652H43.9664ZM16.9723 36.075C14.727 36.075 12.9012 34.2492 12.9012 32.0039C12.9012 29.7586 14.727 27.9328 16.9723 27.9328C19.2176 27.9328 21.0434 29.7586 21.0434 32.0039C21.0434 34.2492 19.2176 36.075 16.9723 36.075ZM50.0414 36.075C47.7973 36.075 45.9703 34.2492 45.9703 32.0039C45.9703 29.7586 47.7961 27.9328 50.0414 27.9328C52.2867 27.9328 54.1125 29.7586 54.1125 32.0039C54.1125 34.2492 52.2867 36.075 50.0414 36.075ZM57.0563 24.0504C56.4691 24.0504 55.991 23.5723 55.991 22.9852V21.9199H58.1203V24.0492H57.0563V24.0504Z" fill="url(#paint0_linear_343_5353)"/>
<path d="M16.9734 33.9461C18.0458 33.9461 18.9152 33.0767 18.9152 32.0043C18.9152 30.9319 18.0458 30.0625 16.9734 30.0625C15.901 30.0625 15.0316 30.9319 15.0316 32.0043C15.0316 33.0767 15.901 33.9461 16.9734 33.9461Z" fill="url(#paint1_linear_343_5353)"/>
<path d="M50.0414 33.9461C51.1138 33.9461 51.9832 33.0767 51.9832 32.0043C51.9832 30.9319 51.1138 30.0625 50.0414 30.0625C48.969 30.0625 48.0996 30.9319 48.0996 32.0043C48.0996 33.0767 48.969 33.9461 50.0414 33.9461Z" fill="url(#paint2_linear_343_5353)"/>
<path d="M24.0503 26.9945C24.0503 27.5137 24.471 27.9344 24.9901 27.9344H39.0198C39.539 27.9344 39.9597 27.5137 39.9597 26.9945C39.9597 26.4754 39.539 26.0547 39.0198 26.0547H24.9901C24.471 26.0547 24.0503 26.4754 24.0503 26.9945Z" fill="url(#paint3_linear_343_5353)"/>
<path d="M2.94375 23.9246H14.9684C15.4875 23.9246 15.9082 23.5039 15.9082 22.9848C15.9082 22.4656 15.4875 22.0449 14.9684 22.0449H2.94375C2.42461 22.0449 2.00391 22.4656 2.00391 22.9848C2.00391 23.5039 2.42461 23.9246 2.94375 23.9246Z" fill="url(#paint4_linear_343_5353)"/>
<path d="M31.3395 9.29365L22.9852 17.648L18.6387 13.3015C18.2719 12.9347 17.6766 12.9347 17.3098 13.3015C16.943 13.6683 16.943 14.2636 17.3098 14.6304L22.3207 19.6413C22.5047 19.8253 22.7449 19.9167 22.9852 19.9167C23.2254 19.9167 23.4656 19.8253 23.6496 19.6413L32.6684 10.6226C33.0352 10.2558 33.0352 9.66045 32.6684 9.29365C32.3016 8.92686 31.7062 8.92686 31.3395 9.29365Z" fill="url(#paint5_linear_343_5353)"/>
</g>
<defs>
<linearGradient id="paint0_linear_343_5353" x1="-2.23522e-07" y1="18.9774" x2="60.0012" y2="18.9774" gradientUnits="userSpaceOnUse">
<stop stop-color="#223962"/>
<stop offset="0.526042" stop-color="#3277BC"/>
<stop offset="0.973958" stop-color="#48ABDF"/>
</linearGradient>
<linearGradient id="paint1_linear_343_5353" x1="15.0316" y1="32.0043" x2="18.9152" y2="32.0043" gradientUnits="userSpaceOnUse">
<stop stop-color="#223962"/>
<stop offset="0.526042" stop-color="#3277BC"/>
<stop offset="0.973958" stop-color="#48ABDF"/>
</linearGradient>
<linearGradient id="paint2_linear_343_5353" x1="48.0996" y1="32.0043" x2="51.9832" y2="32.0043" gradientUnits="userSpaceOnUse">
<stop stop-color="#223962"/>
<stop offset="0.526042" stop-color="#3277BC"/>
<stop offset="0.973958" stop-color="#48ABDF"/>
</linearGradient>
<linearGradient id="paint3_linear_343_5353" x1="24.0503" y1="26.9945" x2="39.9597" y2="26.9945" gradientUnits="userSpaceOnUse">
<stop stop-color="#223962"/>
<stop offset="0.526042" stop-color="#3277BC"/>
<stop offset="0.973958" stop-color="#48ABDF"/>
</linearGradient>
<linearGradient id="paint4_linear_343_5353" x1="2.00391" y1="22.9848" x2="15.9082" y2="22.9848" gradientUnits="userSpaceOnUse">
<stop stop-color="#223962"/>
<stop offset="0.526042" stop-color="#3277BC"/>
<stop offset="0.973958" stop-color="#48ABDF"/>
</linearGradient>
<linearGradient id="paint5_linear_343_5353" x1="17.0347" y1="14.4676" x2="32.9435" y2="14.4676" gradientUnits="userSpaceOnUse">
<stop stop-color="#223962"/>
<stop offset="0.526042" stop-color="#3277BC"/>
<stop offset="0.973958" stop-color="#48ABDF"/>
</linearGradient>
<clipPath id="clip0_343_5353">
<rect width="60" height="37.9535" fill="white"/>
</clipPath>
</defs>
</svg>
